<svg xmlns="http://www.w3.org/2000/svg" xmlns:xlink="http://www.w3.org/1999/xlink" viewBox="0 0 826.78 740.73"><defs><style>.cls-1{fill:#e3e3e3;}.cls-2{clip-path:url(#clip-path);}.cls-3{fill:#e96766;}.cls-4{fill:#66a966;}.cls-5{fill:#66d1fe;}.cls-6{fill:#c9ed66;}.cls-7{fill:#67d1fd;}.cls-8{fill:#fec666;}.cls-9{fill:#5ac7f5;}.cls-10{fill:#5ac8f5;}</style><clipPath id="clip-path"><rect class="cls-1" width="574.42" height="574.42"/></clipPath></defs><g id="Capa_2" data-name="Capa 2"><g id="Capa_1-2" data-name="Capa 1"><rect class="cls-1" width="574.42" height="574.42"/><g class="cls-2"><path class="cls-3" d="M316.94,210.43a255.4,255.4,0,0,1,64.65,4.94c26.22,5.51,52.39,3.12,78.57-.46,19.42-2.66,38.07-8.36,57.08-12.62a24.31,24.31,0,0,1-.17,4.61C510.31,236.31,509,266,511.25,296a282.36,282.36,0,0,0,20.56,87c5.4,13.14,10.84,26.32,19.35,38.06a67.22,67.22,0,0,1-16,17.15c-6.42,5-13,9.76-19.48,14.63-41.15,22.34-86.26,29.83-132.76,32.08-6.75.33-13.5,1-20.25.94-4.52,0-6.19,1.15-6.91,5.78C347,548.31,337.85,605,325.29,661.13a582.64,582.64,0,0,1-15.51,57.22c-4.19,12.6-12.85,19.76-26.4,21.53-10.47,1.37-21,1.33-31.08-2-7.77-2.61-9.3-8.05-2.63-12.05,20.64-12.42,26.27-30.71,27.36-52.63,1.64-33.06.08-65.53-10.35-97.29-.48-1.47-1.17-2.88-1.76-4.32a8.35,8.35,0,0,0-.26-2c-11.56-30.87-30.11-57.23-56.62-78.21-10.7-8.47-22.19-16-35.11-21.29-.13-.51-.27-1-.4-1.51a251.59,251.59,0,0,1,2.72-45c4.18-26.94,11.38-52.84,26.19-76.49,22.66-36.19,65.1-54.9,108.34-47.95,13.66,2.2,27.24,4.57,41.43,3.34,19.39-1.67,33.35-13.45,35.54-32,.41-3.45-.59-5.68-4-7.58a289.36,289.36,0,0,1-34-22.19C337.08,231.7,324,223.89,316.94,210.43Z"/><path class="cls-4" d="M551.16,421c-8.51-11.74-13.95-24.92-19.35-38.06a282.36,282.36,0,0,1-20.56-87c-2.24-30-.94-59.65,5.82-89.06a24.31,24.31,0,0,0,.17-4.61l-.09,0,1.32-.9c14.54-4.35,29.68-4.51,44.65-5.86,14.66.46,29.31-.33,44,1.09,27.39,2.66,53.58,8.8,78.16,20.82C743.06,245.7,770,302.6,753.55,362.22c-4.3,15.64-11.25,30.44-16.16,45.92a180.36,180.36,0,0,0-8.23,59,212.9,212.9,0,0,0,9.37,58.94c3.55,11.39,6.08,23.16,13,33.4a230,230,0,0,0,13.79,28.33A42.38,42.38,0,0,1,770,619.94c-7,29.62-13.69,59.29-20.43,89-4.66,20.53-18.95,31.6-41.16,31.57-7.21,0-14.51.71-21.55-1.42-5-1.51-10.1-3.54-11-9.11-.91-5.81,3.68-9.29,8.41-11,35.42-13.15,41.76-48.51,35.23-75.56-7.9-32.65-24.78-61-46.56-86.93-1.86-2.21-3.91-4.29-5.87-6.44l.06.08a2.73,2.73,0,0,0-1.42-2.81c-7-14-17-25.82-29.4-35.81C625.81,503,615,494.88,604.85,486.1A251.72,251.72,0,0,1,551.16,421Z"/><path class="cls-5" d="M171.17,467.75c-14-7.67-24.49-19.13-34.46-30.71C101.56,396.19,81.86,349,74.29,296.88c-2.79-19.15-4.49-38.33-3.87-57.65,1-32.5,13.56-60.86,35.14-85.72C133,121.94,168.6,101.32,207.35,85a398,398,0,0,1,47.3-16.15c6.84-1.92,8.61,1.21,8.92,6.25.38,6.12.09,12.27.09,19.65,9.46-8.65,18.88-15.72,30-20.39,4.79-2,10.82-7.18,14.44-4.41,4.51,3.46,2.27,10.89,1.27,16.37-3.29,18-11.88,34-22.42,49-2.75,3.94-3.36,6.69-.62,11.15,8.56,14,16.65,28.21,22.3,43.56-12.78,8.55-25.42,17.28-37.33,26.92a15.44,15.44,0,0,1-4.22,2.31c-39,14.51-63.38,42.38-79.07,78.25C177.25,322,173,348.07,168.45,374c-3,17.07-4.71,34.18-3,51.59C166.75,439.75,169.68,453.65,171.17,467.75ZM299.39,81.22c-12.54,6.51-19.86,15.94-25.92,26.49-.74,1.28-2.19,2.9-.76,4.22,1.8,1.65,3.45-.25,4.87-1.08,11.11-6.46,17.11-16.44,21.08-28.5l.58-.31-.26-.25S298.66,82.35,299.39,81.22Zm-44-.1c.37-3.13-.91-5.36-6.28-2.55-20,10.49-34.67,26.43-48.5,43.2-.57.69-1.24,1.53-.53,2.36,1,1.19,2.58,1,3.88.73,5.89-1.15,11.88-2,17.59-3.74C243.82,114.45,253.84,100.06,255.37,81.12Z"/><path class="cls-6" d="M551.16,421a251.72,251.72,0,0,0,53.69,65.1c10.16,8.78,21,16.89,31.45,25.34,12.41,10,22.45,21.76,29.39,35.82.3,1-.34,2.46,1.43,2.8l-.06-.08c-.16,12.91,3.64,25.37,9.22,36.52,10.21,20.44,9.26,39.68.77,60.22-7.74,18.73-13,38.38-19.88,57.44-9.2,25.45-38.8,28.45-55.44,21.16-10.54-4.62-12.07-15.48-1.83-19.9,20.85-9,22-26.79,23.48-43.9,2.88-34.17-10.42-64.37-28.66-92.86a290.48,290.48,0,0,0-37.21-46.5c-19.5-19.95-32.1-43.94-41.79-69.38,6.5-4.87,13.06-9.67,19.48-14.63A67.22,67.22,0,0,0,551.16,421Z"/><path d="M171.17,467.75c-1.49-14.1-4.42-28-5.77-42.14-1.66-17.41,0-34.52,3-51.59,4.57-25.95,8.8-52,19.53-76.52,15.69-35.87,40.05-63.74,79.07-78.25a15.44,15.44,0,0,0,4.22-2.31c11.91-9.64,24.55-18.37,37.33-26.92,3.89,3.86,3.66,9.21,5.54,13.8.91,2.22.93,4.77,2.8,6.61,7.07,13.46,20.14,21.27,31.87,30.21a289.36,289.36,0,0,0,34,22.19c3.38,1.9,4.38,4.13,4,7.58-2.19,18.58-16.15,30.36-35.54,32-14.19,1.23-27.77-1.14-41.43-3.34-43.24-7-85.68,11.76-108.34,47.95-14.81,23.65-22,49.55-26.19,76.49a251.59,251.59,0,0,0-2.72,45Z"/><path class="cls-7" d="M751.48,559.48c-6.87-10.24-9.4-22-13-33.4a212.9,212.9,0,0,1-9.37-58.94,180.36,180.36,0,0,1,8.23-59c4.91-15.48,11.86-30.28,16.16-45.92C770,302.6,743.06,245.7,685.28,217.46c-24.58-12-50.77-18.16-78.16-20.82-14.69-1.42-29.34-.63-44-1.09a13.45,13.45,0,0,1,3.22-1c33.41-1.33,66.8-.56,99.15,8,35.8,9.48,68.51,24.53,90.78,54.71,15.29,20.72,23,44.13,23.92,69.11,1,25.68.81,51.42,3.23,77,5.21,55.16,14.9,109.33,41.64,159.43,1.15,2.16,2.78,4.35.78,6.77s-4.59,1.41-7.12,1.18C796,568.73,773.73,564.13,751.48,559.48Z"/><path class="cls-8" d="M172.93,470.08c12.92,5.29,24.41,12.82,35.11,21.29,26.51,21,45.06,47.34,56.62,78.21a8.35,8.35,0,0,1,.26,2c-9.86,20.58-17.2,42.06-25.14,63.32-7.26,19.43-14,39-21,58.53-8.09,22.39-28.06,35.26-52.49,34.05a21.23,21.23,0,0,1-9.33-2.45c-6.82-3.75-7.55-11.2-1.53-16a25.53,25.53,0,0,1,10-4.65c8.68-2.09,12.92-8,15.87-15.4,5.66-14.33,7.36-29.33,8-44.37,1.69-40-2-79.74-7.91-119.31C178.58,506.86,175.74,488.47,172.93,470.08Z"/><path class="cls-3" d="M518.47,201.41l-1.32.9Z"/><path class="cls-9" d="M255.37,81.12c-1.53,18.94-11.55,33.33-33.84,40-5.71,1.7-11.7,2.59-17.59,3.74-1.3.26-2.87.46-3.88-.73-.71-.83,0-1.67.53-2.36,13.83-16.77,28.48-32.71,48.5-43.2C254.46,75.76,255.74,78,255.37,81.12Z"/><path class="cls-10" d="M299.39,81.22c-4.7,13.19-10.7,23.17-21.81,29.63-1.42.83-3.07,2.73-4.87,1.08-1.43-1.32,0-2.94.76-4.22C279.53,97.16,286.85,87.73,299.39,81.22Z"/><polygon class="cls-10" points="298.66 82.35 298.98 81.79 299.24 82.04 298.66 82.35"/></g></g></g></svg>