<svg xmlns="http://www.w3.org/2000/svg" viewBox="0 0 1187.63 1072"><defs><style>.cls-1{isolation:isolate;}.cls-2{fill:#fff0e7;}.cls-3{fill:#ef83ae;}.cls-4{fill:#fecaa8;}.cls-5{fill:#fdb88c;}.cls-6{fill:#d1c8f7;}.cls-7{fill:#dcd8f7;}.cls-8{fill:#c1b8ff;}.cls-9{fill:#ccf2f3;}.cls-10{fill:#fff;}.cls-11{fill:#7fcac4;}.cls-12{fill:#ff98c1;}.cls-13{fill:#fcd9e7;}.cls-14{fill:#fdd56d;}.cls-15{opacity:0.5;mix-blend-mode:soft-light;}.cls-16{fill:#fde4a2;}.cls-17{fill:#80c4bd;}.cls-18{fill:#f29f9b;}.cls-19{fill:#5e3346;}.cls-20,.cls-21,.cls-26{fill:none;stroke-miterlimit:10;}.cls-20{stroke:#d9655f;}.cls-20,.cls-21{stroke-linecap:round;stroke-width:3.19px;}.cls-21{stroke:#40232f;}.cls-22{fill:#f28580;}.cls-23{fill:#51313e;}.cls-24{fill:#8cadff;}.cls-25{fill:#2d1f40;}.cls-26{stroke:#7097fd;stroke-width:4.97px;}</style></defs><g class="cls-1"><g id="Capa_2" data-name="Capa 2"><g id="Capa_1-2" data-name="Capa 1"><path class="cls-2" d="M1185.46,527.13c-.38,110.34-35.55,220.42-100.52,309.84-98.11,135-259.66,217.27-426.48,217.27a529.78,529.78,0,0,1-77.51-5.67q-16.41-2.4-32.47-5.82c-238.32-50.58-417.15-262.2-417.15-515.62C131.33,236,367.33,0,658.46,0c260.91,0,488.44,199,522.59,457.79A515.7,515.7,0,0,1,1185.46,527.13Z"/><path class="cls-3" d="M204.48,641.54a3.21,3.21,0,0,1-3.17-2.42q-1-3.92-2-7.88a3.22,3.22,0,0,1,2.39-3.89,3.26,3.26,0,0,1,3.89,2.39q.93,3.9,1.93,7.77a3.24,3.24,0,0,1-2.32,3.93A2.84,2.84,0,0,1,204.48,641.54Z"/><path class="cls-3" d="M198.41,614.61a3.22,3.22,0,0,1-3.22-2.61c-1-5.35-2-10.78-2.84-16.16a3.23,3.23,0,1,1,6.38-1c.83,5.3,1.77,10.66,2.79,15.93a3.22,3.22,0,0,1-2.55,3.78A2.74,2.74,0,0,1,198.41,614.61ZM193,579.19a3.23,3.23,0,0,1-3.26-2.86c-.61-5.39-1.13-10.89-1.55-16.34a3.22,3.22,0,0,1,6.43-.49c.42,5.37.93,10.79,1.54,16.1a3.23,3.23,0,0,1-2.85,3.57Zm-2.63-35.74a3.22,3.22,0,0,1-3.28-3.11q-.15-4.12-.22-8.27t-.06-8.14a3.34,3.34,0,0,1,3.23-3.22,3.23,3.23,0,0,1,3.22,3.23q0,4,.07,8t.21,8.15a3.24,3.24,0,0,1-3.11,3.34Zm.14-35.83h-.2a3.22,3.22,0,0,1-3.08-3.36c.23-5.46.57-11,1-16.38a3.23,3.23,0,0,1,6.44.51c-.42,5.33-.75,10.76-1,16.15A3.23,3.23,0,0,1,190.49,507.62Zm2.93-35.7-.45,0a3.23,3.23,0,0,1-2.81-3.59c.66-5.42,1.43-10.89,2.28-16.24a3.22,3.22,0,1,1,6.37,1c-.84,5.28-1.59,10.66-2.24,16A3.24,3.24,0,0,1,193.42,471.92Zm5.73-35.37a2.8,2.8,0,0,1-.7-.06,3.24,3.24,0,0,1-2.52-3.81c1.08-5.32,2.28-10.71,3.55-16a3.23,3.23,0,0,1,6.28,1.51c-1.26,5.23-2.44,10.54-3.5,15.79A3.23,3.23,0,0,1,199.15,436.55Zm8.51-34.8a2.77,2.77,0,0,1-.94-.13,3.21,3.21,0,0,1-2.21-4c1.5-5.23,3.13-10.53,4.82-15.73a3.23,3.23,0,0,1,6.14,2c-1.68,5.13-3.28,10.35-4.76,15.51A3.23,3.23,0,0,1,207.66,401.75Zm11.28-34.11a3.12,3.12,0,0,1-1.19-.21,3.21,3.21,0,0,1-1.88-4.15c1.92-5.12,3.95-10.26,6-15.29a3.23,3.23,0,0,1,6,2.48c-2.07,5-4.08,10-6,15.07A3.23,3.23,0,0,1,218.94,367.64Zm13.94-33.09a3.27,3.27,0,0,1-1.42-.3,3.23,3.23,0,0,1-1.55-4.3c2.31-4.93,4.75-9.89,7.25-14.75a3.23,3.23,0,1,1,5.74,2.95c-2.46,4.79-4.87,9.68-7.15,14.54A3.21,3.21,0,0,1,232.88,334.55Zm16.51-31.86a3.17,3.17,0,0,1-1.64-.43,3.23,3.23,0,0,1-1.21-4.4c2.69-4.73,5.51-9.48,8.38-14.12a3.23,3.23,0,1,1,5.49,3.39c-2.83,4.57-5.61,9.26-8.26,13.93A3.25,3.25,0,0,1,249.39,302.69Zm19-30.45a3.23,3.23,0,0,1-2.73-5c3.06-4.51,6.25-9,9.46-13.42a3.23,3.23,0,0,1,5.21,3.82c-3.17,4.33-6.31,8.78-9.33,13.23A3.22,3.22,0,0,1,268.36,272.24Zm21.28-28.85a3.23,3.23,0,0,1-2.57-5.24c3.4-4.25,6.93-8.5,10.48-12.63a3.23,3.23,0,0,1,4.89,4.21c-3.5,4.07-7,8.26-10.33,12.45A3.25,3.25,0,0,1,289.64,243.39Zm23.47-27.09a3.17,3.17,0,0,1-2.26-.87,3.22,3.22,0,0,1-.15-4.56c3.71-4,7.56-7.91,11.43-11.77a3.23,3.23,0,1,1,4.55,4.58c-3.82,3.8-7.61,7.7-11.27,11.61A3.2,3.2,0,0,1,313.11,216.3Zm25.51-25.15a3.23,3.23,0,0,1-2.23-5.61c4-3.68,8.17-7.32,12.31-10.83a3.22,3.22,0,1,1,4.17,4.92c-4.08,3.46-8.16,7.06-12.13,10.68A3.21,3.21,0,0,1,338.62,191.15ZM366,168.07a3.22,3.22,0,0,1-2-5.77c4.28-3.33,8.69-6.64,13.11-9.83a3.23,3.23,0,0,1,3.78,5.23c-4.36,3.15-8.71,6.41-12.93,9.69A3.19,3.19,0,0,1,366,168.07Zm29.09-20.84a3.27,3.27,0,0,1-2.76-1.45,3.23,3.23,0,0,1,.92-4.47c4.53-3,9.18-5.94,13.84-8.77a3.22,3.22,0,1,1,3.35,5.51c-4.58,2.79-9.17,5.7-13.64,8.64A3.19,3.19,0,0,1,395.1,147.23Zm30.62-18.5a3.22,3.22,0,0,1-1.62-6c4.75-2.61,9.62-5.19,14.48-7.64a3.23,3.23,0,0,1,2.91,5.76c-4.79,2.42-9.59,5-14.27,7.53A3,3,0,0,1,425.72,128.73Zm32-16a3.23,3.23,0,0,1-1.39-6.17c4.95-2.24,10-4.42,15-6.48a3.23,3.23,0,0,1,2.45,6c-4.94,2-9.92,4.18-14.81,6.39A3.36,3.36,0,0,1,457.68,112.73Zm33.15-13.45A3.22,3.22,0,0,1,489.69,93c5.13-1.85,10.35-3.63,15.53-5.28a3.22,3.22,0,1,1,2,6.14c-5.1,1.64-10.25,3.39-15.31,5.21A3.41,3.41,0,0,1,490.83,99.28ZM525,88.48a3.23,3.23,0,0,1-.91-6.34c5.24-1.42,10.59-2.78,15.91-4a3.22,3.22,0,0,1,1.47,6.28c-5.24,1.23-10.52,2.57-15.68,4A3.07,3.07,0,0,1,525,88.48Zm34.91-8a3.22,3.22,0,0,1-.66-6.39c5.36-1,10.8-2,16.17-2.77a3.23,3.23,0,0,1,1,6.38c-5.3.81-10.66,1.73-15.94,2.73A3.51,3.51,0,0,1,559.91,80.43Zm35.43-5.27a3.22,3.22,0,0,1-.4-6.43c5.42-.59,10.91-1.09,16.33-1.49a3.23,3.23,0,1,1,.47,6.44c-5.34.39-10.76.88-16.1,1.46Zm52-2.7h-.07c-3.42,0-6.86,0-10.28.06-2,0-3.94.08-5.9.14h0a3.23,3.23,0,0,1-.16-6.45c2.11-.06,4.21-.11,6.32-.15q5.06-.07,10.09-.06a3.23,3.23,0,0,1,0,6.45Z"/><path class="cls-3" d="M675.21,73.43H675q-4-.27-8-.45a3.23,3.23,0,0,1,.31-6.45c2.7.13,5.41.28,8.11.46a3.22,3.22,0,0,1-.16,6.44Z"/><polygon class="cls-3" points="676.73 57.39 674.66 85.83 695.15 72.17 676.73 57.39"/><path class="cls-4" d="M863.92,1012.67c-14.12,6-28.6,11.39-43.34,16.15a531,531,0,0,1-239.64,19.76C549.82,997.36,512.05,928.34,514.75,899c4.5-49.48,24.74-11.26,33.75-63s-110.2-207-63-238.43,92.22,31.5,119.21,4.51,51.74-63,94.47-31.5,27,119.21,18,177.67,81,65.22,121.46,101.23C859.32,867.91,864.15,943.33,863.92,1012.67Z"/><path class="cls-5" d="M767.17,1043c-2.35.52-4.73,1-7.11,1.45C640.62,897,617.52,674.5,617.26,672.12a3.23,3.23,0,0,1,2.9-3.5,3.19,3.19,0,0,1,3.5,2.89C623.92,673.89,647.15,897.16,767.17,1043Z"/><path class="cls-5" d="M646,801a3.25,3.25,0,0,1-1.69-.47c-39-24-101.64-102.38-104.29-105.7a3.22,3.22,0,0,1,5-4c.64.8,64.57,80.81,102.63,104.23a3.21,3.21,0,0,1-1.69,6Z"/><path class="cls-5" d="M711.93,968.93a3.22,3.22,0,0,1-2.71-4.95c20.28-31.85,22-110,22-110.78a3.22,3.22,0,0,1,6.44.11c-.07,3.29-1.76,80.76-23,114.13A3.22,3.22,0,0,1,711.93,968.93Z"/><path class="cls-5" d="M740.43,1019.91h-.09c-108-3-184.4-81.17-185.16-81.95a3.22,3.22,0,0,1,4.64-4.47c.74.77,75.37,77.06,180.7,80a3.22,3.22,0,0,1-.09,6.43Z"/><path class="cls-4" d="M1187.31,527c2,34.34-6,73.77-12.33,105.17a527.46,527.46,0,0,1-42.36,125.34c-55.32,113.8-152.13,205.81-268.69,255.12q-7,3-14.22,5.79C863.48,918,895.37,766.94,911.3,752.78c40.47-36,130.44-42.73,121.46-101.22s-24.78-146.18,18-177.68,67.5,4.51,94.46,31.5c11.55,11.56,26.19,5.34,39.54,1.62A142.07,142.07,0,0,1,1187.31,527Z"/><path class="cls-5" d="M1132.67,575.43c-.23,2.19-20.47,197-120.86,342.8q-10.32,9.36-21.14,18.11C1103.84,790.52,1126,577.1,1126.26,574.79a3.22,3.22,0,0,1,3.51-2.9A3.27,3.27,0,0,1,1132.67,575.43Z"/><path class="cls-5" d="M1175.8,628.59c-.84,4.28-1.74,8.53-2.67,12.74-21.17,23.49-47.43,50.13-67.47,62.49a3.32,3.32,0,0,1-1.68.45,3.21,3.21,0,0,1-1.7-6C1123.9,685,1153.82,653.49,1175.8,628.59Z"/><path class="cls-5" d="M1038,872.22a3.21,3.21,0,0,1-2.71-1.49c-21.24-33.37-22.94-110.84-23-114.13a3.22,3.22,0,0,1,3.16-3.27,3.13,3.13,0,0,1,3.28,3.15c0,.79,1.72,78.95,22,110.79a3.22,3.22,0,0,1-1,4.45A3.33,3.33,0,0,1,1038,872.22Z"/><path class="cls-5" d="M1013.6,916.59q-3.14,2.85-6.34,5.7a3.26,3.26,0,0,1-1-2.22,3.22,3.22,0,0,1,3.12-3.31C1010.8,916.72,1012.22,916.66,1013.6,916.59Z"/><rect class="cls-6" x="0.02" y="620.87" width="447.77" height="203.69"/><path class="cls-7" d="M447.77,591.85v28.56H0V591.85a21.57,21.57,0,0,1,21.55-21.58H426.22A21.57,21.57,0,0,1,447.77,591.85Z"/><path class="cls-7" d="M447.77,825.67v26.22a21.57,21.57,0,0,1-21.55,21.59H21.55A21.57,21.57,0,0,1,0,851.89V825.67Z"/><circle class="cls-8" cx="223.89" cy="847.42" r="9.72"/><polygon class="cls-8" points="285.3 939.54 162.47 939.54 180.35 874.24 269.75 874.24 285.3 939.54"/><rect class="cls-7" x="121.27" y="939.64" width="205.23" height="24.88" rx="1.99"/><polygon class="cls-9" points="290 690.66 290 783.53 157.77 783.53 157.77 661.88 262.25 661.88 289.66 690.32 290 690.66"/><path class="cls-10" d="M255.48,673.66l22,22.82v75.28H170.29v-98.1h85.19m1.36-3.19H167.1V775H280.67V695.18l-.29-.29-23.54-24.42Z"/><polygon class="cls-11" points="289.66 690.32 262.25 690.32 262.25 661.88 289.66 690.32"/><path class="cls-10" d="M246.37,722.71a22.48,22.48,0,1,1-22.48-22.48A22.49,22.49,0,0,1,246.37,722.71Z"/><polygon class="cls-11" points="234 722.17 218.21 711.01 218.21 733.34 234 722.17"/><path class="cls-12" d="M737.89,8.18h345.66a7.92,7.92,0,0,1,7.92,7.92v216a0,0,0,0,1,0,0H730a0,0,0,0,1,0,0V16.1A7.92,7.92,0,0,1,737.89,8.18Z"/><path class="cls-13" d="M758.72,30.28h304a5.57,5.57,0,0,1,5.57,5.57V219.21a0,0,0,0,1,0,0H753.15a0,0,0,0,1,0,0V35.85A5.57,5.57,0,0,1,758.72,30.28Z"/><path class="cls-3" d="M704.5,233.11h412.43a6.43,6.43,0,0,1,6.43,6.43v15a0,0,0,0,1,0,0H698.08a0,0,0,0,1,0,0v-15A6.43,6.43,0,0,1,704.5,233.11Z" transform="translate(1821.44 487.65) rotate(180)"/><path class="cls-10" d="M1050.65,115.69a12.19,12.19,0,0,1-12.24,12.24H788.88a12.25,12.25,0,0,1,0-24.49h249.53A12.25,12.25,0,0,1,1050.65,115.69Z"/><path class="cls-3" d="M989.43,103.44v24.49H788.88a12.25,12.25,0,0,1,0-24.49Z"/><line class="cls-10" x1="813.93" y1="102.88" x2="813.93" y2="128.53"/><line class="cls-10" x1="843.09" y1="102.88" x2="843.09" y2="128.53"/><line class="cls-10" x1="872.24" y1="102.88" x2="872.24" y2="128.53"/><line class="cls-10" x1="901.39" y1="102.88" x2="901.39" y2="128.53"/><line class="cls-10" x1="930.55" y1="102.88" x2="930.55" y2="128.53"/><line class="cls-10" x1="959.7" y1="102.88" x2="959.7" y2="128.53"/><path class="cls-10" d="M987.47,167.81,989,166a6.39,6.39,0,0,0,4.34,1.71c3.52,0,6.62-2.49,6.62-9.77,0-5.36-2.08-8.23-5.66-8.23a4.51,4.51,0,0,0-4.62,4.75c0,3,1.64,4.61,4.65,4.61A7.61,7.61,0,0,0,1000,156l.1,2.23a9,9,0,0,1-6.32,3c-4,0-6.76-2.26-6.76-6.73a7,7,0,0,1,7.24-7c4.75,0,8.37,3.48,8.37,10.48,0,8.75-4.41,12.13-9.12,12.13A8.77,8.77,0,0,1,987.47,167.81Z"/><path class="cls-10" d="M1007.67,158.72c0-7.31,3-11.23,7.83-11.23s7.82,3.92,7.82,11.23-3,11.38-7.82,11.38S1007.67,166,1007.67,158.72Zm13,0c0-6.25-2.15-8.95-5.19-8.95s-5.19,2.7-5.19,8.95,2.15,9.09,5.19,9.09S1020.69,165,1020.69,158.72Zm-7.31-.24a2.12,2.12,0,1,1,2.12,2.29A2.12,2.12,0,0,1,1013.38,158.48Z"/><path class="cls-10" d="M1026.65,153.05c0-3.55,2-5.56,4.75-5.56s4.75,2,4.75,5.56-2,5.67-4.75,5.67S1026.65,156.61,1026.65,153.05Zm0,14,6.25-6.42,1.13,1-5.71,6.94Zm7.34-14c0-2.73-1.16-3.86-2.63-3.86s-2.63,1.13-2.63,3.86,1.16,4,2.63,4S1034,155.72,1034,153.05Zm1.78,11.38c0-3.55,2-5.57,4.75-5.57s4.75,2,4.75,5.57-2,5.67-4.75,5.67S1035.81,168,1035.81,164.43Zm2.08-9.12,5.71-6.94,1.67,1.54-6.25,6.42Zm5.3,9.12c0-2.73-1.17-3.86-2.63-3.86s-2.63,1.13-2.63,3.86,1.16,4,2.63,4S1043.19,167.09,1043.19,164.43Z"/><polygon class="cls-14" points="337.32 230.73 303.56 132.93 460.06 119.3 439.28 214.11 337.32 230.73"/><polygon class="cls-9" points="387.43 74.02 417.24 160.23 294.51 202.68 255.45 89.77 352.43 56.23 387 73.81 387.43 74.02"/><path class="cls-10" d="M350.75,65.84l29.51,15,25.68,74.24L300.23,191.67,266.75,94.9l84-29.06m.24-3.46-88.3,30.54,35.56,102.81L410,157.07,382.85,78.58l-.38-.18L351,62.38Z"/><polygon class="cls-11" points="387 73.81 361.56 82.62 352.43 56.23 387 73.81"/><path class="cls-11" d="M318,133.66l-4.57,23.68a.72.72,0,0,0,.95.82l22.79-7.88a.72.72,0,0,0,.24-1.23l-18.23-15.8A.72.72,0,0,0,318,133.66Z"/><path class="cls-11" d="M374.8,137.27,342,148.61,327.46,136,334,101.93a2.53,2.53,0,0,1,4.14-1.43L375.62,133A2.54,2.54,0,0,1,374.8,137.27Z"/><polygon class="cls-13" points="531.36 105.28 517.2 195.39 388.9 175.23 407.45 57.2 508.82 73.13 531.09 104.9 531.36 105.28"/><path class="cls-10" d="M415,67l87.8,13.8,19,27.11-12.2,77.61-110.5-17.37L415,67m-2.66-3.66L395.48,170.85l116.81,18.36,12.9-82.05-.26-.35L504.66,77.89,412.37,63.38Z"/><polygon class="cls-12" points="531.09 104.9 504.49 100.72 508.82 73.13 531.09 104.9"/><path class="cls-3" d="M442,125.31l-15.16,18.77a.72.72,0,0,0,.45,1.17L451.17,149a.72.72,0,0,0,.78-1l-8.67-22.51A.73.73,0,0,0,442,125.31Z"/><path class="cls-3" d="M490.51,155.18l-34.28-5.38-6.92-18,21.81-27a2.53,2.53,0,0,1,4.33.68l17.82,46.23A2.54,2.54,0,0,1,490.51,155.18Z"/><polygon class="cls-15" points="337.06 226.12 357.75 117.84 518.34 120.28 479.73 230.73 337.06 226.12"/><polygon class="cls-16" points="367.85 129.43 518.5 129.43 479.73 230.73 337.32 230.73 367.85 129.43"/><rect class="cls-11" x="99.03" y="377.79" width="158.37" height="82.96" transform="translate(-105.86 63.11) rotate(-15.55)"/><polygon class="cls-11" points="90.81 400.53 151.63 329.2 243.79 357.97 90.81 400.53"/><rect class="cls-9" x="107.47" y="362.26" width="118.46" height="54.82" transform="translate(-98.35 58.94) rotate(-15.55)"/><polygon class="cls-17" points="178.3 414.89 113.05 480.45 90.81 400.53 178.3 414.89"/><polygon class="cls-17" points="176.29 415.45 266.02 437.89 243.79 357.97 176.29 415.45"/><path class="cls-18" d="M949.67,765.36s-13.47,11.23-37.61,11.23-35.36-11.23-35.36-11.23V641.31h73Z"/><path class="cls-18" d="M947.42,625.59a175.23,175.23,0,0,1-1.77,25c-.25,1.93-.57,3.82-.9,5.69-4.36,24.89-13.9,46.18-26.62,60.48a65.27,65.27,0,0,1-12.79,11.3,45,45,0,0,1-25.28,8.1,33.82,33.82,0,0,1-4-.23c-11.4-1.06-22.07-6.84-31.25-16.12-15.42-15.61-26.73-41.18-30.61-71.21a177.89,177.89,0,0,1-1.48-23q0-6.71.48-13.2c.32-4.27.77-8.45,1.38-12.56C820,562.18,837.22,532,859.44,520.3a43.64,43.64,0,0,1,10.38-4l.09,0A41.56,41.56,0,0,1,880.06,515C917,515,947,563.82,947.39,624.27,947.42,624.72,947.42,625.14,947.42,625.59Z"/><path class="cls-18" d="M970.45,639.43c-2,10.89-9.35,17.8-20.4,17.8a12.28,12.28,0,0,1-5.3-.93c.33-1.87.65-3.76.9-5.69a175.23,175.23,0,0,0,1.77-25c0-.45,0-.87,0-1.32A16.81,16.81,0,0,1,959,620.16C970.07,620.16,972.31,629.15,970.45,639.43Z"/><path class="cls-19" d="M973,591.32a76.53,76.53,0,0,1-6.55,31.19c-11.63-6-22.94,8.12-22.94,8.12s-10.54-10.38-16.94-34-.47-38.45-.47-38.45-18.39,4.78-44.36.55-29.89-8.72-29.89-8.72-5.47,12.67-10.51,21.63c-3.57,6.36-18.38,20.59-26.73,28.36,0-.06,0-.16,0-.22C820,562.18,837.22,532,859.44,520.3a77.71,77.71,0,0,1,10.38-4l.09,0a80.68,80.68,0,0,1,23.61-3.53C937.43,512.72,973,547.92,973,591.32Z"/><path class="cls-18" d="M814.19,648.62c-9.51-1-15.77-7.65-17.61-17.6-1.86-10.28.39-19.27,11.44-19.27a20.06,20.06,0,0,1,5.17.64q-.48,6.5-.48,13.2A177.89,177.89,0,0,0,814.19,648.62Z"/><path class="cls-20" d="M835.44,609.31s-2.25,17.12,6.74,17.68S852,607.91,852,607.91"/><path class="cls-20" d="M884.84,609.31s-2.25,17.12,6.73,17.68,9.83-19.08,9.83-19.08"/><path class="cls-20" d="M865.35,611.84s-5.06,30.59-5.9,34.24,4.49,6.45,13.19,5.33"/><path class="cls-20" d="M851.44,661s-2.81,31.72,17.4,30.6,16.56-30.88,16.56-30.88"/><path class="cls-21" d="M830.11,600.61s13.87-13.51,25.1-9"/><path class="cls-21" d="M889.61,590.23s19.08,2.8,23,15.43"/><path class="cls-22" d="M845.82,647.2a9.26,9.26,0,1,1-9.26-9.26A9.25,9.25,0,0,1,845.82,647.2Z"/><path class="cls-22" d="M918.63,647.2a9.26,9.26,0,1,1-9.26-9.26A9.26,9.26,0,0,1,918.63,647.2Z"/><path class="cls-22" d="M905.34,728.08a45,45,0,0,1-25.28,8.1c-12.91,0-25-6-35.26-16.35C856.52,713.05,880.13,704.93,905.34,728.08Z"/><path class="cls-23" d="M918.13,716.78a3.18,3.18,0,0,1-.16.32c-14.62,26.37-41.57,38.16-41.57,38.16L876.05,736a33.82,33.82,0,0,0,4,.23,45,45,0,0,0,25.28-8.1A65.27,65.27,0,0,0,918.13,716.78Z"/><path class="cls-24" d="M877.37,759.48s-43.54,23.33-66.86,79.3-56,195.9-56,195.9S813.62,1072,871.15,1072s111.94-21.77,111.94-21.77,50.15-231.66-30.9-285.3Z"/><polygon class="cls-9" points="643.49 310.36 679.18 413.56 532.25 464.38 485.49 329.21 601.59 289.06 642.98 310.11 643.49 310.36"/><path class="cls-10" d="M599.63,299.89l35.79,18.21,31,89.71L538.71,452,498.22,335l101.41-35.07m.24-3.47L494.16,333l42.57,123.07,133.79-46.27-32.51-94-.46-.22-37.68-19.18Z"/><polygon class="cls-11" points="642.98 310.11 612.52 320.65 601.59 289.06 642.98 310.11"/><path class="cls-11" d="M560.39,381.51l-5.56,28.84a.73.73,0,0,0,.95.82l27.76-9.6a.72.72,0,0,0,.23-1.23L561.58,381.1A.73.73,0,0,0,560.39,381.51Z"/><path class="cls-11" d="M628.37,386.07,589.1,399.65l-17.4-15.09,7.87-40.79a3,3,0,0,1,5-1.71l44.83,38.84A3,3,0,0,1,628.37,386.07Z"/><path class="cls-24" d="M698.17,417.43s63.75,202.13,99.51,258.1,84,85.52,84,85.52L835,837.23S718.38,711.29,688.84,611.78s-45.09-177.24-45.09-177.24Z"/><path class="cls-18" d="M698.16,417.43l-23.32,7-23.69,7.84-3.54-7.49,22.72-8.35c-9.71-19.51-27.65-58.73-21.14-62,9-4.51,20.08,17.28,20.95,18.95-.94-2.94-19.29-60.93-10.08-62.69C675.24,307.83,698.16,417.43,698.16,417.43Z"/><rect class="cls-25" x="677.96" y="641.71" width="42.37" height="97.18" transform="translate(-80.43 92.31) rotate(-7.14)"/><path class="cls-24" d="M985.43,834.89c-1.64,8.78-2.91,77-61.73,116.89C902,966.53,877,974,850.27,974a153.84,153.84,0,0,1-29.33-2.87c-115.27-22.42-142.1-129-141.93-189.77l51.43-25c.26,2.87,13.23,128.35,103.85,146,19.65,3.84,36,1,50.07-8.54,29.73-20.15,44.41-66.93,47.21-81.74,3.61-19,14.89-29.2,33.91-25.56S989,815.87,985.43,834.89Z"/><path class="cls-26" d="M803.35,890.86a100.06,100.06,0,0,0,30.94,11.47c19.65,3.84,36,1,50.07-8.54,29.73-20.15,44.41-66.93,47.21-81.74"/><path class="cls-26" d="M985.43,834.89c-1.64,8.78-2.91,77-61.73,116.89C902,966.53,877,974,850.27,974a153.84,153.84,0,0,1-29.33-2.87,183.69,183.69,0,0,1-40.79-12.81"/><path class="cls-18" d="M730.44,756.37s10.49-52.86.39-54.41-11.28,19.82-11.28,19.82,1.17-46.64-8.16-46.64-4.66,29.15-4.66,29.15,0-33.43-8.17-33S697,709.34,697,709.34s-1.56-31.87-11.66-29.93.78,36.93.78,36.93-4.67-24.49-12-22.55-1.17,46.65,16.71,81.24Z"/><polygon class="cls-16" points="798.68 481.3 804.41 461.4 810.14 481.3 823.38 487.03 810.14 492.76 804.41 512.66 798.68 492.76 785.45 487.03 798.68 481.3"/><polygon class="cls-3" points="1016.28 610.72 1023.45 585.81 1030.62 610.72 1047.18 617.88 1030.62 625.05 1023.45 649.96 1016.28 625.05 999.72 617.88 1016.28 610.72"/></g></g></g></svg>