<svg xmlns="http://www.w3.org/2000/svg" viewBox="0 0 94.74 83.77"><defs><style>.cls-1,.cls-3{fill:#a8c1f4;stroke:#000;stroke-miterlimit:10;}.cls-1{stroke-width:3.86px;}.cls-2{fill:#e2f5fe;}.cls-3{stroke-width:3.53px;}</style></defs><g id="Capa_2" data-name="Capa 2"><g id="Capa_1-2" data-name="Capa 1"><path class="cls-1" d="M47.39,81.81H7.56c-5.72,0-7-2.25-4.19-7.14Q23.08,40.55,42.8,6.42c.36-.63.79-1.21,1.19-1.82,2.28-3.49,4.67-3.61,6.82,0,4.1,6.81,8,13.73,12,20.61Q77,49.72,91.24,74.29c1,1.79,2.25,3.65,1.12,5.74s-3.5,1.77-5.51,1.77Q67.11,81.83,47.39,81.81ZM12.88,73.73H82L47.41,14Z"/><path class="cls-2" d="M12.88,73.73,47.41,14,82,73.73Zm31.2-32.64c0,2.64.12,5.29,0,7.92s1.24,2.68,3.16,2.64,3.57.13,3.47-2.68c-.16-4.68-.11-9.36,0-14,.05-2.28,0-3.79-3.13-3.8S43.82,32.32,44,35C44.21,37,44.08,39.05,44.08,41.09ZM52.31,62.8a4.88,4.88,0,1,0-9.75.53,4.88,4.88,0,0,0,9.75-.53Z"/><path class="cls-3" d="M44.08,41.09c0-2,.13-4.09,0-6.12-.22-2.65.43-3.84,3.49-3.84s3.18,1.52,3.13,3.8c-.1,4.68-.15,9.36,0,14,.1,2.81-1.57,2.65-3.47,2.68S43.9,51.49,44,49,44.08,43.73,44.08,41.09Z"/><path class="cls-3" d="M52.31,62.8a4.88,4.88,0,0,1-9.75.53,4.88,4.88,0,1,1,9.75-.53Z"/></g></g></svg>