<svg xmlns="http://www.w3.org/2000/svg" viewBox="0 0 108 108"><defs><style>.cls-1{fill:none;}.cls-2,.cls-4{fill:#a8c1f4;stroke:#000;stroke-miterlimit:10;}.cls-2{stroke-width:3.86px;}.cls-3{fill:#e2f5fe;}.cls-4{stroke-width:3.53px;}</style></defs><g id="Capa_2" data-name="Capa 2"><g id="Capa_1-2" data-name="Capa 1"><rect class="cls-1" width="108" height="108"/><path class="cls-2" d="M54,93.93q-19.9,0-39.82,0c-5.72,0-7-2.24-4.19-7.14Q29.71,52.66,49.43,18.54c.36-.63.79-1.22,1.18-1.82,2.29-3.5,4.68-3.61,6.82,0,4.11,6.8,8,13.73,12,20.61Q83.67,61.83,97.87,86.4c1,1.79,2.24,3.65,1.12,5.75s-3.5,1.76-5.52,1.77Q73.74,93.95,54,93.93Zm-34.5-8.09H88.58L54,26.11Z"/><path class="cls-3" d="M19.51,85.84,54,26.11,88.58,85.84ZM50.71,53.2c0,2.65.12,5.29,0,7.92s1.24,2.68,3.16,2.65,3.57.13,3.47-2.69c-.16-4.67-.11-9.36,0-14,0-2.28,0-3.78-3.13-3.79s-3.71,1.18-3.49,3.84C50.84,49.11,50.7,51.16,50.71,53.2Zm8.23,21.72a4.88,4.88,0,1,0-9.75.52,4.88,4.88,0,0,0,9.75-.52Z"/><path class="cls-4" d="M50.71,53.2c0-2,.13-4.09,0-6.11-.22-2.66.43-3.85,3.49-3.84s3.17,1.51,3.13,3.79c-.1,4.68-.15,9.37,0,14,.1,2.82-1.57,2.66-3.47,2.69s-3.3-.16-3.16-2.65S50.71,55.85,50.71,53.2Z"/><path class="cls-4" d="M58.94,74.92a4.88,4.88,0,0,1-9.75.52,4.88,4.88,0,1,1,9.75-.52Z"/></g></g></svg>