<svg xmlns="http://www.w3.org/2000/svg" viewBox="0 0 408.34 371.79"><defs><style>.cls-1{isolation:isolate;}.cls-2{fill:none;}.cls-3,.cls-5{fill:#f9cab3;}.cls-4{fill:#193747;}.cls-12,.cls-18,.cls-5{stroke:#193747;stroke-linecap:round;stroke-linejoin:round;}.cls-5{stroke-width:2.79px;}.cls-12,.cls-18,.cls-6{fill:#fbf6eb;}.cls-7{fill:#6edfc7;}.cls-8{fill:#7fcac4;}.cls-9{fill:#ccf2f3;}.cls-10{mix-blend-mode:multiply;}.cls-11{fill:#d9d9d9;}.cls-12{stroke-width:1.52px;}.cls-13{fill:#74c9e6;}.cls-14{fill:#fcf4bb;}.cls-15{fill:#36b39f;}.cls-16{fill:#ececec;}.cls-17{fill:#b0f0e3;}.cls-18{stroke-width:1.84px;}</style></defs><g class="cls-1"><g id="Capa_2" data-name="Capa 2"><g id="Capa_1-2" data-name="Capa 1"><rect class="cls-2" width="408.34" height="371.79"/><path class="cls-3" d="M339,358.52a1.27,1.27,0,0,1-.28,0,1.37,1.37,0,0,1-.9-.62l-49.19-78.3a1.38,1.38,0,0,1-.17-1.1,1.41,1.41,0,0,1,.7-.88L325,259a1.4,1.4,0,0,1,1.81.46l48.44,72.21a1.4,1.4,0,0,1-.36,1.92l-35.09,24.72A1.45,1.45,0,0,1,339,358.52Z"/><path class="cls-4" d="M325.69,260.2l48.44,72.21L339,357.13l-49.19-78.3,35.84-18.63m0-2.79a2.82,2.82,0,0,0-1.29.31l-35.84,18.64a2.79,2.79,0,0,0-1.07,4l49.19,78.29a2.76,2.76,0,0,0,1.81,1.25,2.51,2.51,0,0,0,.55.06,2.79,2.79,0,0,0,1.6-.51l35.1-24.72a2.81,2.81,0,0,0,.71-3.84L328,258.64a2.78,2.78,0,0,0-2.31-1.23Z"/><path class="cls-5" d="M324.12,268c3-5.25,4.47-13.33,4.5-19.77,0-7,.23-23.12-4-30.11-3.17-5.21-15.6-23-20-26.43-11.75-9.31-38.75,13.11-35.82,27.49,1.08,5.3,2.79,39.8,9.09,51.15,3.14,5.66,13.33,11.95,23.17,11.47"/><path class="cls-6" d="M335.05,360.36H392l-54.6-88.64a1.39,1.39,0,0,0-1.92-.46l-38.9,24a1.41,1.41,0,0,0-.62.87,1.34,1.34,0,0,0,.17,1.05Z"/><path class="cls-4" d="M333.41,360.36h3.27l-39.39-63.95,38.9-24,54.16,87.91h3.27L338.57,271a2.8,2.8,0,0,0-3.84-.92l-38.9,24a2.78,2.78,0,0,0-.91,3.83Z"/><path class="cls-7" d="M330.21,360.36h66.61l-51.54-83.68a1.39,1.39,0,0,0-1.19-.66,1.31,1.31,0,0,0-.73.21l-45.91,28.28a1.4,1.4,0,0,0-.46,1.92Z"/><path class="cls-4" d="M328.57,360.36h3.28l-33.67-54.67,45.91-28.28,51.09,82.95h3.28l-52-84.41a2.78,2.78,0,0,0-3.84-.91l-45.92,28.28a2.79,2.79,0,0,0-.91,3.84Z"/><rect class="cls-8" x="79.89" y="114.07" width="229.42" height="150.84" rx="15.58"/><path class="cls-4" d="M293.73,115.81a13.88,13.88,0,0,1,13.84,13.84V249.32a13.88,13.88,0,0,1-13.84,13.84H95.47a13.88,13.88,0,0,1-13.84-13.84V129.65a13.88,13.88,0,0,1,13.84-13.84H293.73m0-3.49H95.47a17.35,17.35,0,0,0-17.32,17.33V249.32a17.34,17.34,0,0,0,17.32,17.33H293.73a17.34,17.34,0,0,0,17.32-17.33V129.65a17.35,17.35,0,0,0-17.32-17.33Z"/><rect class="cls-9" x="97.12" y="128.91" width="194.96" height="121.16" rx="12.79"/><path class="cls-4" d="M279.29,130.65a11.09,11.09,0,0,1,11,11v95.57a11.09,11.09,0,0,1-11,11H109.91a11.09,11.09,0,0,1-11-11V141.7a11.09,11.09,0,0,1,11-11H279.29m0-3.49H109.91A14.56,14.56,0,0,0,95.38,141.7v95.57a14.55,14.55,0,0,0,14.53,14.54H279.29a14.55,14.55,0,0,0,14.53-14.54V141.7a14.56,14.56,0,0,0-14.53-14.54Z"/><g class="cls-10"><path class="cls-11" d="M293.73,115.81H194.6V263.16h99.13a13.88,13.88,0,0,0,13.84-13.84V129.65A13.88,13.88,0,0,0,293.73,115.81Z"/></g><path class="cls-5" d="M328.52,246.35c2.16-12.17.47-20.07-2.83-25.49-1.79-2.93-21.87-12.26-25.72-13.19-5.93-.89-5.91,5-6.26,7.61-1.38,10.37,19.44,17.9,23.93,28"/><path class="cls-6" d="M236.67,123.26a.76.76,0,0,1-.21,0l-66.25-19.57a.75.75,0,0,1-.52-.94l25.52-86.41a.71.71,0,0,1,.36-.45.79.79,0,0,1,.37-.1.52.52,0,0,1,.21,0L249.7,31.61a.71.71,0,0,1,.45.36l9,16.46a.75.75,0,0,1,.06.57L237.4,122.71A.76.76,0,0,1,236.67,123.26Z"/><path class="cls-4" d="M195.94,16.52l53.55,15.82,8.95,16.45L236.67,122.5l-66.25-19.57,25.52-86.41m0-1.52a1.53,1.53,0,0,0-.73.19,1.49,1.49,0,0,0-.73.9L169,102.5a1.53,1.53,0,0,0,1,1.89L236.24,124a1.65,1.65,0,0,0,.43.06,1.52,1.52,0,0,0,1.46-1.09L259.9,49.22a1.52,1.52,0,0,0-.13-1.16l-8.95-16.45a1.52,1.52,0,0,0-.9-.73L196.37,15.07a1.33,1.33,0,0,0-.43-.07Z"/><path class="cls-6" d="M258.44,49.55l-.17,0-13.71-3.2a.75.75,0,0,1-.49-.38.71.71,0,0,1,0-.62l4.75-13.25a.76.76,0,0,1,.66-.5h.06a.76.76,0,0,1,.66.39l9,16.46a.75.75,0,0,1-.07.82A.75.75,0,0,1,258.44,49.55Z"/><path class="cls-4" d="M249.49,32.34l8.95,16.45-13.71-3.21,4.76-13.24m0-1.52h-.12a1.52,1.52,0,0,0-1.31,1L243.3,45.07a1.54,1.54,0,0,0,1.09,2l13.7,3.2a1.39,1.39,0,0,0,.35,0,1.52,1.52,0,0,0,1.33-2.25l-8.95-16.45a1.52,1.52,0,0,0-1.33-.79Z"/><line class="cls-12" x1="200.59" y1="40.05" x2="245.5" y2="53.31"/><line class="cls-12" x1="198.29" y1="47.84" x2="243.2" y2="61.1"/><line class="cls-12" x1="196" y1="55.62" x2="240.9" y2="68.88"/><line class="cls-12" x1="193.7" y1="63.4" x2="238.61" y2="76.66"/><line class="cls-12" x1="191.4" y1="71.18" x2="236.31" y2="84.44"/><line class="cls-12" x1="189.1" y1="78.96" x2="234.01" y2="92.22"/><line class="cls-12" x1="186.81" y1="86.74" x2="231.71" y2="100"/><line class="cls-12" x1="184.51" y1="94.52" x2="229.42" y2="107.78"/><path class="cls-6" d="M136.62,114.71a1,1,0,0,1-.86-.54L109.83,60.9a1,1,0,0,1,.45-1.29l53.27-25.92a.92.92,0,0,1,.42-.1,1,1,0,0,1,.86.54L190.76,87.4a1,1,0,0,1,0,.74,1,1,0,0,1-.49.55L137,114.61A.92.92,0,0,1,136.62,114.71Z"/><path class="cls-4" d="M164,34.55l25.92,53.28-53.27,25.92L110.7,60.47,164,34.55m0-1.92a1.94,1.94,0,0,0-.84.19L109.85,58.75a1.92,1.92,0,0,0-1,1.1,1.88,1.88,0,0,0,.09,1.47l25.92,53.27a1.93,1.93,0,0,0,2.57.89l53.27-25.92a1.93,1.93,0,0,0,.89-2.58L165.7,33.71A1.93,1.93,0,0,0,164,32.63Z"/><path class="cls-13" d="M135.58,98.51a1.12,1.12,0,0,1-.31-.05,1,1,0,0,1-.55-.49L117.9,63.4a1,1,0,0,1,.44-1.28l42.21-20.54a1,1,0,0,1,.41-.09,1,1,0,0,1,.87.54l16.82,34.56a1,1,0,0,1,0,.74,1,1,0,0,1-.49.55L136,98.42A1,1,0,0,1,135.58,98.51Z"/><path class="cls-4" d="M161,42.45,177.79,77,135.58,97.55,118.76,63,161,42.45m0-1.93a2,2,0,0,0-.84.2l-42.2,20.53a1.93,1.93,0,0,0-.89,2.57l16.82,34.57a1.89,1.89,0,0,0,1.73,1.08,1.88,1.88,0,0,0,.84-.19l42.21-20.54a1.85,1.85,0,0,0,1-1.1,1.92,1.92,0,0,0-.08-1.47L162.7,41.61A1.93,1.93,0,0,0,161,40.52Z"/><path class="cls-14" d="M136.17,71.85A6.22,6.22,0,0,1,133.44,60a6.27,6.27,0,0,1,2.72-.63,6.23,6.23,0,0,1,0,12.45Z"/><path class="cls-4" d="M136.16,60.37a5.26,5.26,0,1,1-2.3.53,5.25,5.25,0,0,1,2.3-.53m0-1.93h0a7.18,7.18,0,1,0,6.46,4,7.16,7.16,0,0,0-6.46-4Z"/><path class="cls-15" d="M136.27,98.18a1,1,0,0,1-1-1c0-.62.17-15.14,4.55-19.95,1-1.09,2.65-1.62,5.09-1.62,7.87,0,21.56,5.63,22.13,5.87a1,1,0,0,1,.06,1.76L136.7,98.08A1.08,1.08,0,0,1,136.27,98.18Z"/><path class="cls-4" d="M145,76.61c7.77,0,21.77,5.79,21.77,5.79L136.27,97.21s.12-14.7,4.3-19.31c.84-.92,2.41-1.29,4.38-1.29m0-1.93h0c-2.73,0-4.62.63-5.81,1.93-4.54,5-4.78,19-4.79,20.59a1.94,1.94,0,0,0,.9,1.64,1.89,1.89,0,0,0,1,.3,2,2,0,0,0,.85-.2l30.44-14.81a1.93,1.93,0,0,0-.11-3.51c-.58-.24-14.44-5.94-22.5-5.94Z"/><path class="cls-15" d="M147.34,92.79a.93.93,0,0,1-.57-.19,1,1,0,0,1-.38-.91c.13-.88,3.25-21.41,7.58-26.17a3.87,3.87,0,0,1,3-1.17c6.73,0,20.82,11.43,21.41,11.92a1,1,0,0,1,.35.86,1,1,0,0,1-.53.75L147.76,92.69A.87.87,0,0,1,147.34,92.79Z"/><path class="cls-4" d="M157,65.31c6.47,0,20.81,11.71,20.81,11.71L147.34,91.83s3.16-21.06,7.34-25.66a3,3,0,0,1,2.3-.86m0-1.92h0a4.82,4.82,0,0,0-3.72,1.48c-4.45,4.9-7.49,24.46-7.82,26.67a2,2,0,0,0,.76,1.84,1.92,1.92,0,0,0,1.14.37,2,2,0,0,0,.85-.19l30.44-14.82a1.91,1.91,0,0,0,.37-3.21c-1.52-1.25-15.07-12.14-22-12.14Z"/><g class="cls-10"><rect class="cls-16" x="148.62" y="38.09" width="29.82" height="59.24" transform="translate(-13.14 78.38) rotate(-25.95)"/></g><rect class="cls-17" x="140.08" y="138.79" width="108.3" height="66.67" rx="0.92"/><path class="cls-4" d="M247.45,139.71v64.83H141V139.71H247.45m0-1.84H141a1.84,1.84,0,0,0-1.84,1.84v64.83a1.84,1.84,0,0,0,1.84,1.84H247.45a1.84,1.84,0,0,0,1.85-1.84V139.71a1.84,1.84,0,0,0-1.85-1.84Z"/><path class="cls-17" d="M141,140.63a.92.92,0,0,1-.54-1.67L193.69,101a.93.93,0,0,1,1.07,0L248,139a.92.92,0,0,1-.54,1.67Z"/><path class="cls-4" d="M194.23,101.77l53.22,37.94H141l53.23-37.94m0-1.84a1.81,1.81,0,0,0-1.07.34l-53.23,37.94a1.84,1.84,0,0,0,1.07,3.34H247.45a1.84,1.84,0,0,0,1.07-3.34l-53.23-37.94a1.78,1.78,0,0,0-1.06-.34Z"/><path class="cls-6" d="M152.37,188.35a.92.92,0,0,1-.92-.92V78.27a.92.92,0,0,1,.92-.92H220a.91.91,0,0,1,.66.27l16,16a1,1,0,0,1,.27.66v93.11a.92.92,0,0,1-.92.92Z"/><path class="cls-4" d="M220,78.27l16,16v93.11h-83.7V78.27H220m0-1.84H152.37a1.84,1.84,0,0,0-1.84,1.84V187.43a1.84,1.84,0,0,0,1.84,1.84h83.7a1.84,1.84,0,0,0,1.84-1.84V94.32a1.85,1.85,0,0,0-.54-1.31l-16-16a1.85,1.85,0,0,0-1.31-.54Z"/><path class="cls-6" d="M219.05,96.22a.92.92,0,0,1-.92-1l1-17a.91.91,0,0,1,.59-.81.87.87,0,0,1,.32-.06.93.93,0,0,1,.66.27l16,16a.92.92,0,0,1,.21,1,.94.94,0,0,1-.81.6Z"/><path class="cls-4" d="M220,78.27l16,16-17,1,1-17m0-1.84a1.84,1.84,0,0,0-1.83,1.73l-1,17a1.85,1.85,0,0,0,.53,1.41,1.89,1.89,0,0,0,1.31.54h.1l17-1A1.84,1.84,0,0,0,237.37,93l-16-16a1.84,1.84,0,0,0-1.31-.54Z"/><line class="cls-18" x1="165.86" y1="104.01" x2="222.59" y2="104.01"/><line class="cls-18" x1="165.86" y1="113.84" x2="222.59" y2="113.84"/><line class="cls-18" x1="165.86" y1="123.67" x2="222.59" y2="123.67"/><line class="cls-18" x1="165.86" y1="133.5" x2="222.59" y2="133.5"/><line class="cls-18" x1="165.86" y1="143.33" x2="222.59" y2="143.33"/><line class="cls-18" x1="165.86" y1="153.16" x2="222.59" y2="153.16"/><line class="cls-18" x1="165.86" y1="162.99" x2="222.59" y2="162.99"/><line class="cls-18" x1="165.86" y1="172.82" x2="222.59" y2="172.82"/><path class="cls-8" d="M141,205.46a.92.92,0,0,1-.92-.92V139.71a.91.91,0,0,1,.5-.82.87.87,0,0,1,.42-.1.93.93,0,0,1,.53.17l52.7,37.56L246.92,139a1,1,0,0,1,.53-.17.92.92,0,0,1,.93.92v64.83a.93.93,0,0,1-.93.92Z"/><path class="cls-4" d="M247.45,139.71v64.83H141V139.71l53.23,37.94,53.22-37.94M141,137.87a1.82,1.82,0,0,0-1.84,1.84v64.83a1.84,1.84,0,0,0,1.84,1.84H247.45a1.84,1.84,0,0,0,1.85-1.84V139.71a1.86,1.86,0,0,0-1-1.64,1.83,1.83,0,0,0-.85-.2,1.78,1.78,0,0,0-1.06.34l-52.16,37.18-52.16-37.18a1.84,1.84,0,0,0-1.07-.34Z"/><path class="cls-8" d="M141,205.46a.92.92,0,0,1-.89-.67.94.94,0,0,1,.41-1l53.23-32.41a.88.88,0,0,1,.95,0l53.23,32.41a.92.92,0,0,1,.41,1,.91.91,0,0,1-.89.67Z"/><path class="cls-4" d="M194.23,172.12l53.22,32.42H141l53.23-32.42m0-1.84a1.81,1.81,0,0,0-1,.27L140,203a1.84,1.84,0,0,0,1,3.41H247.45a1.84,1.84,0,0,0,1-3.41l-53.23-32.42a1.8,1.8,0,0,0-1-.27Z"/><path class="cls-3" d="M65,356.52a1.33,1.33,0,0,1-1.07-.54,1.36,1.36,0,0,1-.16-1.32l33-76.79c-2-3.9-2.07-8.55-.47-17.28,1.1-6,5-21.06,8-27.51l.08-.15a65.36,65.36,0,0,0,2.8-7.79,9.13,9.13,0,0,1,8.55-6.26,5.1,5.1,0,0,1,3.65,1.27,5.8,5.8,0,0,1,1.49-2.27,7,7,0,0,1,4.17-1.15c3.32,0,7.45,1.42,8.58,4.05a8.81,8.81,0,0,1,.34,3,6.61,6.61,0,0,1,1.95-2.34,6.09,6.09,0,0,1,2.93-.62c3.16,0,8.48,1.64,10,4.31a5.17,5.17,0,0,1,.42,2.73c6.25-10,17-27.58,22.82-38,1.83-3.3,4.27-5.19,6.71-5.19a4.29,4.29,0,0,1,2.17.57c1.4.82,4.25,3.44.51,10.2-2.77,5-8.36,17.51-13.76,29.61-4,8.84-7.68,17.19-10.11,22.17-.11.38-.38,1-.95,2.48-1.08,2.7-2.87,7.18-4.4,11.9,5-4.61,13.51-12,20.46-12a8.29,8.29,0,0,1,3.22.62,4.83,4.83,0,0,1,2.9,2.82,3.75,3.75,0,0,1-.26,3c-1.85,3.34-8.67,12-11.67,14.53-.41.35-1.17,1.06-2.13,2-6.24,5.87-20.85,19.61-30.61,19.61-.36,0-.72,0-1.06-.05L107.1,351a1.36,1.36,0,0,1-1.07.79L65.1,356.51Z"/><path class="cls-4" d="M178.69,186a2.92,2.92,0,0,1,1.5.39c2.52,1.47,2,4.8,0,8.41-4.84,8.75-18.26,40.33-24,52,.06.33-4.3,10.09-6.7,18.92h0c.73,0,13.94-14.83,23.08-14.83a6.8,6.8,0,0,1,2.7.52c2.3,1,2.67,2.76,2,4-1.78,3.22-8.49,11.74-11.36,14.16s-21.09,21.25-31.88,21.25a7.52,7.52,0,0,1-1.86-.21l-26.32,59.86L65,355.19,98.17,277.8c-2-3.59-2.32-7.85-.64-17,1-5.64,4.86-20.71,7.89-27.18,0,0,.5-.66,2.93-8.09a7.79,7.79,0,0,1,7.29-5.35,3.74,3.74,0,0,1,2.83,1c.91,1,.15,6.92,0,8.09l0,.2,0-.2c.19-1.35,1.38-9,3.14-10.37a5.59,5.59,0,0,1,3.35-.87c3,0,6.51,1.28,7.36,3.25s-.59,11.1-.59,11.1,2.91-8.75,4.75-9.78a4.9,4.9,0,0,1,2.28-.45c3.17,0,7.73,1.68,8.83,3.63,1.28,2.29-2.11,10.49-2.11,10.49s19.15-30.39,27.67-45.76c1.78-3.21,3.86-4.51,5.55-4.51m0-2.66c-2.94,0-5.81,2.14-7.87,5.88-5.26,9.47-14.67,24.84-21,35.09-1.94-3.15-7.62-4.82-11.05-4.82a7.23,7.23,0,0,0-3.57.79,3,3,0,0,0-.33.21c0-.09-.07-.18-.1-.26-1.37-3.19-6-4.86-9.8-4.86a8,8,0,0,0-5,1.43,5.28,5.28,0,0,0-1.18,1.38,7.3,7.3,0,0,0-3.15-.66,10.49,10.49,0,0,0-9.82,7.18c-1.63,5-2.36,6.81-2.6,7.36-.21.17,0,.08-.21.43-3.06,6.54-7,21.74-8.1,27.83-1.59,8.65-1.53,13.49.32,17.55L62.5,354.14a2.67,2.67,0,0,0,2.44,3.71l.31,0,40.93-4.69a2.7,2.7,0,0,0,2.14-1.57l25.52-58.07h.22c9.12,0,21.63-10.67,31.52-20,.95-.89,1.69-1.59,2.07-1.91,3.18-2.68,10.06-11.43,12-14.91a5,5,0,0,0,.36-4.11,6.28,6.28,0,0,0-3.64-3.61,9.49,9.49,0,0,0-3.74-.73c-5.81,0-12.46,4.67-17.53,9,1-2.8,2-5.27,2.71-7,.49-1.23.78-2,.94-2.46,2.44-5,6.16-13.33,10.09-22.13,5.39-12.08,11-24.57,13.71-29.51,1.12-2,4.36-8.88-1-12a5.68,5.68,0,0,0-2.84-.75Z"/><path class="cls-6" d="M106.42,360.36l29-60.31a1.32,1.32,0,0,0-.73-1.82l-42-15.59a1.48,1.48,0,0,0-.46-.08,1.32,1.32,0,0,0-1.2.75L54,360.36Z"/><path class="cls-4" d="M55.49,360.36l36.75-76.47,42,15.58L105,360.36h3l28.7-59.73a2.68,2.68,0,0,0,.07-2.15,2.65,2.65,0,0,0-1.54-1.5l-42-15.58a2.49,2.49,0,0,0-.92-.17,2.65,2.65,0,0,0-2.4,1.51l-37.3,77.62Z"/><path class="cls-7" d="M111.79,360.36l24.6-51.19a1.43,1.43,0,0,0,0-1.13,1.38,1.38,0,0,0-.81-.78l-49.54-18.4a1.32,1.32,0,0,0-.48-.09,1.4,1.4,0,0,0-1.26.8l-34,70.79Z"/><path class="cls-4" d="M51.87,360.36,85.6,290.17l49.53,18.39-24.88,51.8h3.09l24.31-50.59a2.8,2.8,0,0,0,.07-2.25,2.77,2.77,0,0,0-1.61-1.57L86.57,287.56a2.77,2.77,0,0,0-3.48,1.4l-34.31,71.4Z"/></g></g></g></svg>