<svg xmlns="http://www.w3.org/2000/svg" xmlns:xlink="http://www.w3.org/1999/xlink" viewBox="0 0 599.13 465.7"><defs><style>.cls-1,.cls-21{fill:none;}.cls-2{fill:#fff;}.cls-3{fill:#ebeef0;}.cls-4{fill:#496177;}.cls-5{opacity:0.5;}.cls-6{fill:#ffa16e;}.cls-7{fill:#fefefe;}.cls-8{fill:#ffb71f;}.cls-9{fill:#ff9a00;}.cls-10{fill:#ffbf96;}.cls-11{fill:#2e2e5b;}.cls-12{fill:#3b4f5e;}.cls-13{fill:#9095fa;}.cls-14{fill:#7d83dd;}.cls-15{fill:#fdfefd;}.cls-16{fill:#e5e5e5;}.cls-17{fill:#f9faf9;}.cls-18{fill:#d7d7d7;}.cls-19{fill:#858bea;opacity:0.3;}.cls-20{clip-path:url(#clip-path);}.cls-21{stroke:#fff;stroke-miterlimit:10;stroke-width:1.1px;}</style><clipPath id="clip-path"><path id="SVGID" class="cls-1" d="M336.22,155.53a6.14,6.14,0,0,0-3.22.9l-.25.16a6.26,6.26,0,0,0-1.22,1.08l0,0-.18.22a5.74,5.74,0,0,0-.53.79,5.53,5.53,0,0,0-.36.77l0,.08,0,0c0,.07-.05.15-.08.23a6.37,6.37,0,0,0-.29,1.7,6.16,6.16,0,0,0,.44,2.49,6.69,6.69,0,0,0,.63,1.18,6.31,6.31,0,0,0,1.35,1.43,5.71,5.71,0,0,0,.77.51h0l0,0,.06,0,0,0h0l0,0h0l0,0h0l0,0h0s0,0,0,0h.06l0,0h.06l.06,0,.06,0,0,0h0l.24.09.11,0h0a6.79,6.79,0,0,0,1.34.28l.56,0,.59,0h.06l.26,0a5.68,5.68,0,0,0,1.33-.35h0a6.25,6.25,0,0,0,1.3-.69l.16-.11a6.55,6.55,0,0,0,1.21-1.2,6.31,6.31,0,0,0,.92-1.67,6.24,6.24,0,0,0,.36-1.94,6.14,6.14,0,0,0-1.11-3.69,5.92,5.92,0,0,0-1.31-1.38,6.15,6.15,0,0,0-3.76-1.28"/></clipPath></defs><g id="Capa_2" data-name="Capa 2"><g id="Capa_1-2" data-name="Capa 1"><rect class="cls-2" width="599.13" height="465.7"/><rect class="cls-3" width="599.13" height="465.7"/><rect class="cls-4" width="599.13" height="58.21"/><g class="cls-5"><path class="cls-4" d="M192,234.77c-.06,31,18.91,58.37,47.72,74.45H359c28.63-16,47.51-43.18,47.57-74,.09-49.29-47.9-89.4-107.11-89.52h-.26c-59.08,0-107.08,39.88-107.17,89.1"/><path class="cls-4" d="M189.63,234.93C189.57,266.61,209,294.58,238.4,311H360.25c29.27-16.34,48.56-44.11,48.61-75.64C409,185,359.92,144,299.42,143.88h-.27c-60.38,0-109.43,40.75-109.52,91.05"/></g><path class="cls-6" d="M248.89,230.54Z"/><polyline class="cls-6" points="248.88 230.54 248.89 230.54 248.88 230.54"/><path class="cls-7" d="M252,215.21h0"/><polyline class="cls-7" points="245.83 216.81 245.83 216.81 245.83 216.81"/><polyline class="cls-7" points="245.83 216.81 245.83 216.81 245.83 216.81"/><path class="cls-7" d="M246.26,216.81h0Z"/><polyline class="cls-7" points="246.25 216.81 246.25 216.81 246.25 216.81 246.25 216.81"/><polygon class="cls-7" points="246.24 216.81 246.24 216.81 246.25 216.81 246.24 216.81"/><path class="cls-4" d="M256.84,190.39a6.48,6.48,0,0,0-2.11.34,7.52,7.52,0,0,0-4.63,4.85,12.34,12.34,0,0,0,.07,8c1.54,4.62,5.33,7.86,9.22,7.86a6.74,6.74,0,0,0,2.1-.34,7.54,7.54,0,0,0,4.63-4.85,12.34,12.34,0,0,0-.07-8c-1.54-4.63-5.33-7.86-9.21-7.86"/><path class="cls-8" d="M251.29,168.4l-.66,0A9.18,9.18,0,0,0,246,170.1a25.45,25.45,0,0,0-2.87,2.37c-.54.5-1.09,1-1.65,1.47a12.87,12.87,0,0,1-2.55,1.65,14,14,0,0,1-3.48,1h.07c-1.41.22-2.86.33-4.26.44H231a42.78,42.78,0,0,0-4.46.5,18,18,0,0,0-2.19.54,15.18,15.18,0,0,0-1.89.74,18.88,18.88,0,0,0-3.31,1.92,19.64,19.64,0,0,0-5.17,5.6,17.57,17.57,0,0,0-1.79,3.87,17.61,17.61,0,0,0-.79,4.33,20.51,20.51,0,0,0,.17,4.34,19.16,19.16,0,0,0,.94,3.76,24.82,24.82,0,0,0,3.81,6.6l.67.86.08.1.35.43a.27.27,0,0,0,.15.22,4.3,4.3,0,0,0,.92.35,8.67,8.67,0,0,0,1,.16l.18,0c.27,0,.54.06.8.11l.92.18.22,0,.9.19c1.14.25,2.32.5,3.52.68a25.32,25.32,0,0,0,3.74.27,31.85,31.85,0,0,0,4.87-.4,41.29,41.29,0,0,0,8.31-2.33c1.24-.48,2.51-1,3.87-1.69,1.13-.53,2.2-1.09,3.2-1.64a46.38,46.38,0,0,0,6.33-4.1,28.5,28.5,0,0,0,5.3-5.2,16.46,16.46,0,0,0,2-3.23,12.1,12.1,0,0,0,.67-1.89,10.9,10.9,0,0,0,.29-1.95,8.62,8.62,0,0,0-2.81-6.84,5.76,5.76,0,0,0-1.66-1.06,4.16,4.16,0,0,0-1-.29,3.14,3.14,0,0,0,.44-.41,6.36,6.36,0,0,0,.92-1.36,7.77,7.77,0,0,0,.83-3.2,6.8,6.8,0,0,0-.6-3.15,9.06,9.06,0,0,0-2-2.8,10.58,10.58,0,0,0-2.94-1.94,10.91,10.91,0,0,0-3.39-.94c-.34,0-.7,0-1.07,0"/><path class="cls-9" d="M255.11,178.44H255l-.32,0a3.91,3.91,0,0,0-.56.12c-.18.06-.36.12-.55.2l-.2.09c-.52.57-1,1.16-1.48,1.76a23.72,23.72,0,0,0-1.67,2.45c-.25.43-.48.85-.68,1.26s-.42.86-.59,1.28a21.57,21.57,0,0,0-1,3.09,26.88,26.88,0,0,0-.65,3.35c-.09.71-.17,1.41-.22,2.11s-.08,1.4-.11,2.19c-.06,1.64-.07,3.28,0,4.87.05,2.31.19,4.67.42,7,1-.46,1.88-.93,2.73-1.41a46.18,46.18,0,0,0,6.34-4.1c.29-.22.57-.45.84-.67l.77-1.33a44.17,44.17,0,0,0,2.23-4.47,25.64,25.64,0,0,0,1-2.73,17.15,17.15,0,0,0,.58-2.56,10.59,10.59,0,0,0,0-2.63,6.47,6.47,0,0,0-.43-1.61,5.67,5.67,0,0,0-.69-1.19,6.49,6.49,0,0,0-1-1,7.59,7.59,0,0,0-1.58-.91,11.51,11.51,0,0,0-2.34-.67s-.05,0-.06-.06a.1.1,0,0,1,0-.09l.14-.18a6.56,6.56,0,0,0,.83-1.38,3.76,3.76,0,0,0,.26-.92,2.45,2.45,0,0,0,0-.27,2.09,2.09,0,0,0,0-.25,1.42,1.42,0,0,0,0-.22l-.06-.17-.07-.14a.91.91,0,0,0-.11-.16l-.11-.12a.86.86,0,0,0-.14-.13l-.22-.14-.22-.1a1.36,1.36,0,0,0-.29-.11l-.32-.07-.33,0"/><path class="cls-10" d="M241.47,221.84a15.62,15.62,0,0,0-2.13.16,11.81,11.81,0,0,0-1.93.45,7.17,7.17,0,0,0-2.63,1.42v0l-.19.18a3.47,3.47,0,0,0-.29.25l.27.59a12.38,12.38,0,0,1,.83,3,9.56,9.56,0,0,1,0,2.56,7.29,7.29,0,0,1-.45,1.71v0a6.5,6.5,0,0,1-.72,1.23,5.41,5.41,0,0,1-2.06,1.6l0,0-.07,0a.3.3,0,0,0-.19.36,21.54,21.54,0,0,0,5.08,8.81,15.23,15.23,0,0,0,3.91,2.87,16.11,16.11,0,0,0,4.88,1.55,20.14,20.14,0,0,0,2.83.22h.08a8,8,0,0,0,2.46-.34,5.49,5.49,0,0,0,1-.44,5.26,5.26,0,0,0,.89-.59,5.61,5.61,0,0,0,1.33-1.54,7.72,7.72,0,0,0,.85-1.94,12,12,0,0,0,.44-2.18,20.85,20.85,0,0,0,0-4.54c-.08-.85-.16-1.61-.29-2.39-.06-.39-.15-.78-.25-1.17a9,9,0,0,0-.42-1.19.28.28,0,0,0-.18-.14h-.08a7.3,7.3,0,0,1-.89-.27,5.66,5.66,0,0,1-1.1-.64,4.6,4.6,0,0,1-.8-.79,5,5,0,0,1-.59-1,6.48,6.48,0,0,1-.41-1.53c0-.19,0-.38,0-.57h0c0-.06,0-.13,0-.19s0-.2,0-.3v-.26a4.34,4.34,0,0,1,0-.51c0-.08,0-.15,0-.22a5.66,5.66,0,0,1-.4-.56c-.09-.14-.17-.28-.25-.42a5.4,5.4,0,0,0-.81-.93,8.75,8.75,0,0,0-3.42-1.81,13.86,13.86,0,0,0-2.08-.44,15.72,15.72,0,0,0-2.06-.13Z"/><path class="cls-6" d="M241.47,221.82a16.18,16.18,0,0,0-2.13.17,11.69,11.69,0,0,0-1.94.45,7.39,7.39,0,0,0-2.5,1.31c.2.29.42.57.64.84a14.6,14.6,0,0,0,1.37,1.46v0a12.86,12.86,0,0,0,1.74,1.38,16.92,16.92,0,0,0,1.82,1.1h0a18.32,18.32,0,0,0,2.17,1,17.9,17.9,0,0,0,2.27.67h0a17.52,17.52,0,0,0,2,.33,16.37,16.37,0,0,0,2,.06h0a13.8,13.8,0,0,0,1.69-.16l.73-.14a4.39,4.39,0,0,1-.27-.53,6.39,6.39,0,0,1-.4-1.52c0-.17,0-.34,0-.51l0-.25c0-.1,0-.2,0-.3v-.26a4.34,4.34,0,0,1,0-.51,1.64,1.64,0,0,1,0-.22,5.34,5.34,0,0,1-.41-.56c-.09-.14-.17-.29-.25-.44a4.86,4.86,0,0,0-.81-.92,8.75,8.75,0,0,0-3.42-1.81,12.72,12.72,0,0,0-2.08-.44,16,16,0,0,0-2.06-.14Z"/><path class="cls-10" d="M249.74,180.53a.32.32,0,0,0-.18.06h-.13l-1.5.3c-1.93.38-3.92.77-5.86,1.25-1.3.32-2.49.66-3.63,1l-.83.29-.58.2-1.23.42a56.45,56.45,0,0,0-5.29,2,16.86,16.86,0,0,0-4.67,3,8.93,8.93,0,0,0-1.62,2.06,9.62,9.62,0,0,0-.95,2.48,12.54,12.54,0,0,0-.35,2.72,19,19,0,0,0,.13,2.85,37.46,37.46,0,0,0,1.15,5.67c.24.91.51,1.82.74,2.59l.14.45c.23.8.47,1.62.74,2.42.57,1.69,1.23,3.37,1.88,5,.45,1.15.92,2.35,1.35,3.53a.3.3,0,0,0-.08.39,15.46,15.46,0,0,0,2.26,2.86,16.5,16.5,0,0,0,2.78,2.24,20.21,20.21,0,0,0,3.18,1.68,24.39,24.39,0,0,0,3.56,1.19,20.81,20.81,0,0,0,5.06.62,21.94,21.94,0,0,0,2.8-.18,22.38,22.38,0,0,0,7.48-2.41,21.55,21.55,0,0,0,3.26-2.13,15.75,15.75,0,0,0,2.5-2.53,15,15,0,0,0,1.8-2.93,14.18,14.18,0,0,0,1.08-3.26,15.55,15.55,0,0,0,.32-2.86,17,17,0,0,0-.25-3,23.18,23.18,0,0,0-1.87-5.46c-.16-.38-.33-.76-.49-1.13l0,.07c-.22-.56-.52-1.3-.76-2.05s-.38-1.3-.57-2.16-.31-1.47-.44-2.19-.28-1.46-.44-2.18-.32-1.32-.5-1.9-.36-1.06-.58-1.62a20.23,20.23,0,0,0-1.59-3.11,16,16,0,0,0-3.31-3.83,12.68,12.68,0,0,0-2.06-1.4,12,12,0,0,0-2.39-1h-.08"/><path class="cls-8" d="M251.91,178.32h-1.3l-1,0a31.44,31.44,0,0,0-3.64.41,49.39,49.39,0,0,0-7.08,1.84c-1,.32-2,.68-2.87,1s-1.47.53-2.21.81c-1.78.68-3.32,1.34-4.7,2a26,26,0,0,0-4.39,2.69,14.61,14.61,0,0,0-3.42,3.55,10.55,10.55,0,0,0-1.08,2.15,10.81,10.81,0,0,0-.6,2.76,15.28,15.28,0,0,0,.06,3.29,20.15,20.15,0,0,0,.65,3.29,18,18,0,0,0,.94,2.64c.22.47.47,1,.79,1.5a16.7,16.7,0,0,0,1.2,1.81,10.05,10.05,0,0,0,1.49,1.62,4,4,0,0,0,1.67.92,2.22,2.22,0,0,0,.44.06H227l.39,0a2.36,2.36,0,0,0,.84-.34,2.71,2.71,0,0,0,.73-.74,3.22,3.22,0,0,0,.41-1,5.84,5.84,0,0,0,.17-1.17,8.72,8.72,0,0,0,0-1.23,17.8,17.8,0,0,0-.4-2.48c-.17-.71-.37-1.44-.61-2.22a29.75,29.75,0,0,0-2.84-6.38l-.16-.26-.08-.13a8.85,8.85,0,0,0,1.71.15c.41,0,.84,0,1.32-.06.64-.06,1.28-.15,1.83-.24s.94-.15,1.41-.24a36.33,36.33,0,0,0,4.55-1.17,39.92,39.92,0,0,0,4.82-1.91,35.81,35.81,0,0,0,4.65-2.6,24.8,24.8,0,0,0,4-3.27,16.65,16.65,0,0,0,2.88-3.89,12.34,12.34,0,0,0,1-2.62.27.27,0,0,0-.07-.23.31.31,0,0,0-.11-.09.35.35,0,0,0-.15-.11,4,4,0,0,0-.84-.16l-.48,0"/><path class="cls-9" d="M253.76,176.2h0a.13.13,0,0,0-.11.14v.19a11.28,11.28,0,0,1-.44,2.71,14,14,0,0,1-1.38,3.09,18.47,18.47,0,0,1-3,3.61h0l0,0h0a27,27,0,0,1-2.95,2.39,33.25,33.25,0,0,1-3.27,2A37.38,37.38,0,0,1,238,192.4c-.73.27-1.48.52-2.23.75l-1.31.37c-.58.16-1.15.31-1.73.44l-.35.08.12,0a23.32,23.32,0,0,1-5.7.67h0c-.21,0-.43,0-.64,0s-.47,0-.7,0a.47.47,0,0,0-.54.39.43.43,0,0,0,.14.4c.26.39.5.79.74,1.2s.47.81.68,1.22.44.83.64,1.25.39.84.57,1.26a26.07,26.07,0,0,1,.9,2.57,20,20,0,0,1,.56,2.66h0c.07.53.11,1.07.13,1.61a.1.1,0,0,0,.1.1.11.11,0,0,0,.1-.1,21.94,21.94,0,0,0-1.17-6.22,31.31,31.31,0,0,0-1.18-3c-.23-.49-.46-1-.7-1.46-.12-.23-.23-.45-.36-.68a.64.64,0,0,0-.08-.14h.15a8.15,8.15,0,0,0,1,.05,17.73,17.73,0,0,0,1.79-.09,27.78,27.78,0,0,0,3.62-.67c.58-.14,1.16-.3,1.74-.46s1-.27,1.48-.42c.74-.22,1.48-.47,2.21-.74a35.45,35.45,0,0,0,4.64-2.14,32,32,0,0,0,4.4-2.88,21.92,21.92,0,0,0,3.71-3.62,19.27,19.27,0,0,0,1.4-2.07,14.91,14.91,0,0,0,1-2.22,12.9,12.9,0,0,0,.74-4.08A.13.13,0,0,0,253.76,176.2Z"/><path class="cls-7" d="M247.94,212.54a4.21,4.21,0,0,0-2.11,1.17,2.86,2.86,0,0,0-.61,1,2.05,2.05,0,0,0-.1.55c0,.1,0,.2,0,.29s0,.23,0,.34a1.61,1.61,0,0,0,.22.53,1.26,1.26,0,0,0,.3.31h0l.09.05h.49a1,1,0,0,0,.23-.05l.24-.08h0a8.68,8.68,0,0,0,1.08-.66,4.3,4.3,0,0,1,.6-.32,3.73,3.73,0,0,1,.67-.21,4.81,4.81,0,0,1,.65-.08h.72l.58,0a3.24,3.24,0,0,0,.44,0l.34-.07a1.82,1.82,0,0,0,.23-.15l.09-.08a.57.57,0,0,0,.08-.13h0a1.36,1.36,0,0,0,0-.36,1.78,1.78,0,0,0-.07-.54,1.7,1.7,0,0,0-.27-.56,2.25,2.25,0,0,0-.91-.72,3,3,0,0,0-.55-.21h0l0,0-.05,0a4.66,4.66,0,0,0-1.13-.14,5.53,5.53,0,0,0-1.25.15"/><path class="cls-11" d="M240.93,209.43c.46-.12.57-1.15.26-2.3s-.93-2-1.38-1.87-.57,1.16-.26,2.31.93,2,1.38,1.86"/><path class="cls-11" d="M257.09,205.07c.45-.12.57-1.15.26-2.3s-.93-2-1.39-1.87-.56,1.16-.25,2.31.93,2,1.38,1.86"/><path class="cls-8" d="M239.12,195.69a6.56,6.56,0,0,0-3.83,2.07c-1.83,1.75-2.7,3.82-1.95,4.6a1.1,1.1,0,0,0,.83.3,6.55,6.55,0,0,0,3.84-2.07,6.44,6.44,0,0,0,2.22-3.78A1.09,1.09,0,0,0,240,196a1.1,1.1,0,0,0-.84-.3"/><path class="cls-8" d="M254,191.85c-1.53,0-2.6.44-2.74,1.14-.09.47.26,1,1,1.47a7.84,7.84,0,0,0,2.8,1.07,9.35,9.35,0,0,0,1.71.17c1.53,0,2.6-.45,2.74-1.14.18-1-1.51-2.11-3.77-2.55a9.31,9.31,0,0,0-1.71-.16"/><path class="cls-6" d="M249.18,199.92a.1.1,0,0,0-.11.1,11.57,11.57,0,0,0,.22,2.73,10.79,10.79,0,0,0,.37,1.38c.08.21.16.43.26.64a5.85,5.85,0,0,0,.28.56.21.21,0,0,0,.18.13l.08,0c.18-.11.4-.23.63-.34a3.62,3.62,0,0,1,.68-.2h.54a2.54,2.54,0,0,1,.37.1,1.71,1.71,0,0,1,.35.21,2.42,2.42,0,0,1,.32.32,2.09,2.09,0,0,1,.28.49,2.62,2.62,0,0,1,.17.64,2.81,2.81,0,0,1,0,.71,3,3,0,0,1-.15.57,1.92,1.92,0,0,1-.58.76,2.38,2.38,0,0,1-.44.25,2.42,2.42,0,0,1-.35.12,4.46,4.46,0,0,1-.48.09l-.26,0a.48.48,0,0,0-.48.48.49.49,0,0,0,.47.48,4.68,4.68,0,0,0,.81-.11,3.1,3.1,0,0,0,.46-.15,2.36,2.36,0,0,0,.45-.22,2.61,2.61,0,0,0,.4-.3,2.35,2.35,0,0,0,.53-.67,2.81,2.81,0,0,0,.3-.77,3.18,3.18,0,0,0,0-1.62,2.81,2.81,0,0,0-.79-1.32,2.5,2.5,0,0,0-.69-.42,2.13,2.13,0,0,0-.78-.14,2.49,2.49,0,0,0-.9.18,3.71,3.71,0,0,0-.88.46,7.29,7.29,0,0,1-.39-.79,9.25,9.25,0,0,1-.64-2.44,11.14,11.14,0,0,1-.09-1.81.1.1,0,0,0-.1-.1"/><path class="cls-12" d="M246.3,220.42c-2.34,1.1-4.68,2.22-7,3.3-1.16.54-2.32,1.09-3.5,1.59l-1.23.54c-.38.18-.76.36-1.15.51-.22.09-.44.16-.66.23a2.15,2.15,0,0,1-.5.07l-.15,0-.23-.1a3.47,3.47,0,0,1-.37-.3,5.83,5.83,0,0,1-.86-1.22c-.31-.55-.59-1.12-.85-1.69s-.41-.92-.66-1.36a.31.31,0,0,0-.16-.16.3.3,0,0,0-.23,0,.29.29,0,0,0-.16.15.36.36,0,0,0,0,.23c.15.27.28.55.41.83s.33.71.5,1.06.37.76.58,1.12a6.87,6.87,0,0,0,.65,1,3.32,3.32,0,0,0,.72.73,1.47,1.47,0,0,0,.39.21,1.53,1.53,0,0,0,.52.08,2.89,2.89,0,0,0,.5-.08l.64-.2c.4-.15.78-.33,1.17-.51l.93-.42c.52-.22,1-.44,1.55-.68l3.15-1.45c2.09-1,4.18-2,6.26-2.95a.29.29,0,0,0,.16-.38.29.29,0,0,0-.27-.19.2.2,0,0,0-.11,0m-14.5,6.1h0"/><path class="cls-4" d="M245.13,221.18c.35,1,2.1,1.35,3.88.73s3-2,2.6-3-2.1-1.35-3.89-.73-2.95,2-2.59,3"/><path class="cls-12" d="M236.31,175.71h0c-.31,0-.6,0-.89,0a16.65,16.65,0,0,0-2.57.44,18,18,0,0,0-4.76,2,22.28,22.28,0,0,0-2.18,1.46c-.31.24-.63.51-1,.83l0,0-.05,0,0,0c-.28.25-.58.51-.85.77a24.81,24.81,0,0,0-3.38,4.14,26.09,26.09,0,0,0-2.46,4.78,23.93,23.93,0,0,0-1.38,5.12,19.85,19.85,0,0,0-.07,5.6,19.42,19.42,0,0,0,.82,3.46c.18.55.39,1.1.62,1.63a12.69,12.69,0,0,0,.85,1.58,2.53,2.53,0,0,0,.31.42.46.46,0,0,0,.24.22.51.51,0,0,0,.17,0,.49.49,0,0,0,.2,0,.47.47,0,0,0,.25-.27.45.45,0,0,0,0-.36.87.87,0,0,1-.07-.17l0-.08a1.54,1.54,0,0,0-.08-.19h.34a2.54,2.54,0,0,0,1.33-.37,3.23,3.23,0,0,0,.84-.73,2.29,2.29,0,0,0,.28-.41v0a8,8,0,0,0,.61,1.11.5.5,0,0,0,.22.16.47.47,0,0,0,.17,0,.46.46,0,0,0,.2-.05.47.47,0,0,0,.27-.28.51.51,0,0,0,0-.37q-.15-.45-.33-.87l-.36-.91-.21-.59a1.78,1.78,0,0,0,0-.4,2.28,2.28,0,0,0-.08-.49,1.85,1.85,0,0,0-.11-.31.56.56,0,0,0-.28-.27c-.19-.71-.34-1.42-.46-2.09a19.77,19.77,0,0,1-.23-2.33,20.24,20.24,0,0,1,.46-5.1,20.74,20.74,0,0,1,1.86-5,24.11,24.11,0,0,1,3.69-5.12c.44-.46.82-.85,1.21-1.22s.83-.76,1.38-1.21.94-.74,1.42-1.08c.17-.13.34-.24.52-.36l.21-.15c.27-.18.53-.35.8-.51l.25-.16c.57-.34,1.22-.69,2-1.09l.46-.27c.23-.13.47-.25.71-.37l.51-.25.27-.15.1,0,.22-.11a2,2,0,0,0-.31-.07l-.29,0-.8-.06h-.48"/><path class="cls-4" d="M222.7,202.72a7,7,0,0,0-2.68.53,7.87,7.87,0,0,0-4.48,5.39,12.81,12.81,0,0,0,.64,8.3c1.85,4.53,5.74,7.57,9.68,7.57a7,7,0,0,0,2.67-.52A7.84,7.84,0,0,0,233,218.6a12.91,12.91,0,0,0-.63-8.31c-1.86-4.52-5.75-7.57-9.68-7.57"/><path class="cls-12" d="M220,203.25a7.13,7.13,0,0,0-3.21,2.63l.06,0a6.63,6.63,0,0,1,1.48-1,6.94,6.94,0,0,1,1.67-.54,7.33,7.33,0,0,1,1.24-.11q.3,0,.6,0a8.41,8.41,0,0,1,1.78.37,9.32,9.32,0,0,1,1.59.69,11.1,11.1,0,0,1,2.79,2.22,13.07,13.07,0,0,1,2,3,14,14,0,0,1,1.18,3.4,12.49,12.49,0,0,1,.19,3.66,11,11,0,0,1-.34,1.8,9.55,9.55,0,0,1-.62,1.61,8.18,8.18,0,0,1-.9,1.43,8.07,8.07,0,0,1-.62.68,8,8,0,0,1-.62.54,6.63,6.63,0,0,1-1.43.84,6.77,6.77,0,0,0,1.64-.45A7.86,7.86,0,0,0,233,218.6a12.91,12.91,0,0,0-.63-8.31c-1.86-4.52-5.75-7.57-9.68-7.57a7,7,0,0,0-2.68.53"/><path class="cls-4" d="M254.86,231.42a12.19,12.19,0,0,0-1.82.13.3.3,0,0,0-.26.23.25.25,0,0,0,0,.17,16.93,16.93,0,0,1,.54,1.89c.14.59.25,1.2.34,1.81v0a14.43,14.43,0,0,1,.05,3.87l0-.07a8.89,8.89,0,0,1-.57,2.15h0a5.79,5.79,0,0,1-.68,1.17,4.6,4.6,0,0,1-.79.8,4.79,4.79,0,0,1-1,.6,5.84,5.84,0,0,1-1.52.41,10.89,10.89,0,0,1-1.41.09,12.5,12.5,0,0,1-1.6-.1,14.72,14.72,0,0,1-3.69-1h0a18,18,0,0,1-4-2.36,17.38,17.38,0,0,1-3.06-3.06,14.3,14.3,0,0,1-1.77-3l-.15-.39a.22.22,0,0,0,0-.14.34.34,0,0,0-.1-.16.33.33,0,0,0-.3-.23H233a.32.32,0,0,0-.22.31,13.91,13.91,0,0,0-1.49.76,13,13,0,0,0-1.66,1.19,17.89,17.89,0,0,0-2.91,3.1,26.74,26.74,0,0,0-2.39,3.84,44,44,0,0,0-1.92,4.28,74.46,74.46,0,0,0-2.72,8.78c-.28,1.11-.56,2.31-.92,3.89-.18.8-.37,1.66-.55,2.53-.22,1.07-.43,2.21-.62,3.39-1.33,7.92-1.82,16.45-1.61,27.66,0,2.07.1,4.34.2,6.93l.15,3.44,0,.54c0,1,.09,2.08.16,3.12a.33.33,0,0,0,.22.29.39.39,0,0,0,.16.07,115.45,115.45,0,0,0,15.14.95c2.84.05,5.38.11,7.78.17l5.52.16,2.37.07c2.52.08,5.22.15,7.89.21,3,.07,5.41.1,7.63.1h.27c5.68,0,11.37-.2,15.69-.37l6.45-.27,1,0,1.13,0c2-.09,4.15-.18,6.23-.23h.55l1.91-.05a.27.27,0,0,0,.2-.12.33.33,0,0,0,.05-.22.14.14,0,0,0,0-.07.07.07,0,0,0,0-.05,83.45,83.45,0,0,0,.22-15.21c-.18-2.45-.46-4.94-.86-7.62-.36-2.4-.79-4.76-1.28-7a80,80,0,0,0-9.41-24.24,58.75,58.75,0,0,0-7.6-10.05c-1.13-1.19-2.39-2.39-3.72-3.57a56.47,56.47,0,0,0-4.5-3.58,43.58,43.58,0,0,0-3.93-2.51,31,31,0,0,0-4.22-2,20.85,20.85,0,0,0-4.21-1.15,14.22,14.22,0,0,0-2.25-.18"/><path class="cls-12" d="M269.15,253.21a.18.18,0,0,0-.09.24c.72,1.48,1.4,3,2,4.51s1.24,3.08,1.82,4.63q1.75,4.71,3.18,9.52c.35,1.19.69,2.39,1,3.59l0-.1q1.31,4.88,2.35,9.81c.69,3.28,1.28,6.58,1.82,9.89.38,2.26.71,4.53,1,6.8.16,1.14.31,2.28.46,3.42s.35,2.51.43,3.78a.57.57,0,0,0,.23.39.67.67,0,0,0,.44.12.6.6,0,0,0,.51-.67c-.06-.91-.18-1.82-.3-2.73s-.22-1.67-.34-2.51c-.22-1.63-.47-3.26-.73-4.9q-.8-5-1.8-9.86a177.87,177.87,0,0,0-5.13-19.52c-.91-2.79-1.91-5.55-3-8.27s-2.34-5.4-3.64-8a.18.18,0,0,0-.17-.11h-.07"/><path class="cls-4" d="M198.79,167.51a2,2,0,0,0-.36.17,2,2,0,0,0-.85,1,2.39,2.39,0,0,0-.13.82,4.52,4.52,0,0,0,.49,1.84,6.87,6.87,0,0,0,1.25,1.77,9.93,9.93,0,0,0,1,.84c.35.27.72.54,1.15.82a20.94,20.94,0,0,0,2.61,1.45,29.48,29.48,0,0,0,2.8,1.14,48.33,48.33,0,0,0,9.87,2.19h0l-.09-.09,0,0c-.25-.27-.5-.55-.75-.81-1.7-1.81-3.49-3.53-5.34-5.17-.46-.41-.92-.82-1.39-1.22s-.93-.8-1.4-1.18a26.67,26.67,0,0,0-2.71-2l0,0a17.62,17.62,0,0,0-2.69-1.4c-.33-.1-.67-.19-1-.27a5.65,5.65,0,0,0-1.32-.14,3.32,3.32,0,0,0-.57,0l-.11,0-.43.12"/><path class="cls-4" d="M205.79,149.64a3.05,3.05,0,0,0-.56.15,3.24,3.24,0,0,0-.49.26,5.58,5.58,0,0,0-.64.47,4.17,4.17,0,0,0-.89,1,3.73,3.73,0,0,0-.45,1.22,4.85,4.85,0,0,0-.07.71,5.1,5.1,0,0,0,.05.74,6.08,6.08,0,0,0,.31,1.32,12.75,12.75,0,0,0,1.51,2.92,26.91,26.91,0,0,0,2.39,3c.85.93,1.79,1.87,2.89,2.88.92.86,1.93,1.74,3.08,2.7s2.07,1.68,3,2.39c.73.58,1.52,1.18,2.47,1.9l.5.37,1.2.9.12.09.06,0a.18.18,0,0,0,.1.07c-.06-.13-.12-.26-.17-.4-.94-2.24-1.63-4.57-2.48-6.84-.21-.57-.43-1.14-.66-1.7l-.39-.87c-.12-.26-.25-.52-.37-.79l-.45-1c-.28-.55-.56-1.09-.85-1.63-.71-1.34-1.4-2.53-2.09-3.64a32.73,32.73,0,0,0-2.19-3.13,13.26,13.26,0,0,0-2.18-2.23,4.27,4.27,0,0,0-2.16-1h-.18l-.38,0"/><path class="cls-4" d="M225.13,156.4a4.34,4.34,0,0,0-.64.51,3.17,3.17,0,0,0-.51.68,4.41,4.41,0,0,0-.35.83,5.26,5.26,0,0,0-.21.94,10.76,10.76,0,0,0-.09,2.19c0,.72.13,1.5.27,2.4.28,1.68.7,3.33,1,4.57l.27,1c.11.41.23.81.33,1.21h0c.47-1.63.94-3.25,1.34-4.89.24-1,.46-2,.63-3,.06-.36.11-.73.16-1.09.09-.93.13-1.72.13-2.47a8.94,8.94,0,0,0-.12-1.48,3.4,3.4,0,0,0-.38-1.14,1.12,1.12,0,0,0-.76-.54h-.16a1.81,1.81,0,0,0-.94.33"/><path class="cls-13" d="M232.86,234.33c-.25.06-.5.14-.74.22a.3.3,0,0,0-.19.37.31.31,0,0,0,.38.19c.24-.08.49-.16.74-.22a.31.31,0,0,0,.18-.38.28.28,0,0,0-.14-.16.24.24,0,0,0-.13,0l-.1,0"/><path class="cls-13" d="M232.85,234.3a3.47,3.47,0,0,0-.55.16.3.3,0,0,0-.18.38.29.29,0,0,0,.37.18,3.47,3.47,0,0,1,.55-.16.31.31,0,0,0,.17-.15.3.3,0,0,0,0-.23.35.35,0,0,0-.15-.17.25.25,0,0,0-.12,0h-.11"/><path class="cls-13" d="M232.81,234.28l-.53.17a.29.29,0,0,0-.18.37.3.3,0,0,0,.37.19l.53-.18a.29.29,0,0,0-.1-.57l-.09,0"/><path class="cls-13" d="M232.85,234.23c-.58.19-1.15.41-1.72.64a.31.31,0,0,0-.19.38.31.31,0,0,0,.38.18c.57-.23,1.14-.45,1.72-.64a.3.3,0,0,0,.18-.38.29.29,0,0,0-.28-.2l-.09,0"/><path class="cls-13" d="M232.5,234.34c-.79.25-1.54.62-2.32.89a.29.29,0,0,0-.19.37.31.31,0,0,0,.38.19c.78-.27,1.53-.64,2.32-.9a.29.29,0,0,0,.18-.37.3.3,0,0,0-.28-.2l-.09,0"/><path class="cls-13" d="M232,234.58c-1,.31-1.93.79-2.93,1.1a.29.29,0,0,0-.18.37.3.3,0,0,0,.37.19c1-.31,1.93-.79,2.93-1.1a.29.29,0,0,0,.19-.37.3.3,0,0,0-.29-.2H232"/><path class="cls-13" d="M231.48,234.8c-.88.26-1.73.59-2.57.93a.3.3,0,0,0-.19.37.31.31,0,0,0,.38.19c.84-.34,1.69-.67,2.57-.93a.29.29,0,0,0,.18-.37.29.29,0,0,0-.28-.2h-.09"/><path class="cls-13" d="M231.42,234.86a28.2,28.2,0,0,0-2.71,1,.3.3,0,1,0,.19.56,28.2,28.2,0,0,1,2.71-1,.31.31,0,0,0,.18-.38.29.29,0,0,0-.28-.2l-.09,0"/><polyline class="cls-14" points="228.11 280.87 228.11 280.87 228.11 280.87 228.11 280.87"/><path class="cls-15" d="M267.13,298a23.16,23.16,0,0,0-4.16.38,18.54,18.54,0,0,0-3.45,1,13.43,13.43,0,0,0-3,1.66,7.51,7.51,0,0,0-2.56,3.09,5.27,5.27,0,0,0-.37,1.4v.2c0,.06,0,.11,0,.15v0h0v.17a4.43,4.43,0,0,0,.09,1,1.62,1.62,0,0,1,0,.19c0,.06,0,.13.05.2l0,0h0a.84.84,0,0,1,0,.12l0,.09v0l0,.07a.31.31,0,0,0,.29.22h25.93a.32.32,0,0,0,.22-.1.34.34,0,0,0,.16-.19c0-.11.06-.2.09-.29v-.05s0,0,0-.06v-.09l0-.06c0-.14,0-.25.06-.36v-.71a5.06,5.06,0,0,0-.06-.76,5.41,5.41,0,0,0-.12-.58,8.16,8.16,0,0,0-4-4.55,15.65,15.65,0,0,0-3.12-1.32,20.59,20.59,0,0,0-3.4-.71,22.17,22.17,0,0,0-2.83-.18"/><path class="cls-16" d="M273.22,299.65a.26.26,0,0,0-.15.17.24.24,0,0,0,0,.22.26.26,0,0,0,.17.15,7.9,7.9,0,0,1,1.83.68,10.09,10.09,0,0,1,2.05,1.44,10.36,10.36,0,0,1,1.63,1.93,7.84,7.84,0,0,1,.86,1.8l.09.32a.3.3,0,0,0,.12.19.36.36,0,0,0,.22.05.3.3,0,0,0,.24-.35,9.15,9.15,0,0,0-2.57-4.19,10.46,10.46,0,0,0-2-1.53,7.89,7.89,0,0,0-2.24-.89l-.11,0-.11,0"/><path class="cls-16" d="M267.27,305.47a.26.26,0,0,0-.14.18,4.45,4.45,0,0,0-.08.81,6.54,6.54,0,0,0,.07.89.3.3,0,0,0,.35.22.29.29,0,0,0,.19-.13.34.34,0,0,0,0-.22,2.34,2.34,0,0,1,0-.26,5,5,0,0,1,0-1.09s0,0,0-.05a.28.28,0,0,0,0-.22.3.3,0,0,0-.18-.15h-.08a.32.32,0,0,0-.14,0"/><path class="cls-10" d="M255.1,290.75a11.39,11.39,0,0,0-1.69.12,6.68,6.68,0,0,0-2.9,1.12,5.42,5.42,0,0,0-1.07,1.07,5.86,5.86,0,0,0-.75,1.45,6.24,6.24,0,0,0-.39,2.17,5.11,5.11,0,0,0,.78,2.54,7.74,7.74,0,0,0,.9,1.15,8.41,8.41,0,0,0,1.16,1,10.32,10.32,0,0,0,1.2.78h0a.09.09,0,0,0-.07,0,.26.26,0,0,0-.14.18.32.32,0,0,0,0,.25.33.33,0,0,0,.17.12,58.76,58.76,0,0,1,7.3,1.72l1.29.37,2.32.66c.64.17,1.3.36,2,.52a14.65,14.65,0,0,0,1.81.33,5.59,5.59,0,0,0,.68.05h.15a2.09,2.09,0,0,0,.69-.12.92.92,0,0,0,.51-.42,1,1,0,0,0,0-.71,2.09,2.09,0,0,0-.16-.4,2.65,2.65,0,0,0-.3-.48l-.09-.12c.35.18.71.34,1.08.5a18,18,0,0,0,2.29.84,6.37,6.37,0,0,0,1,.22l.52,0a2.73,2.73,0,0,0,.41,0,2.07,2.07,0,0,0,.82-.29,1.27,1.27,0,0,0,.53-.58,1.42,1.42,0,0,0-.33-1.39,6.56,6.56,0,0,0-1.39-1.26c-.46-.33-1-.65-1.59-1l-.31-.18-.13-.07.72.19a10.86,10.86,0,0,0,1.7.26h.36a2.58,2.58,0,0,0,.82-.11,1.35,1.35,0,0,0,.36-.18.9.9,0,0,0,.29-.32.72.72,0,0,0,.11-.32,1.08,1.08,0,0,0,0-.4,2.51,2.51,0,0,0-.34-.82,5.6,5.6,0,0,0-.65-.81,6.18,6.18,0,0,0-.85-.72,24.84,24.84,0,0,0-2.2-1.37c-1-.55-2-1.09-3.1-1.62s-2.48-1.14-3.72-1.63c-1.4-.55-2.72-1-4-1.37a25,25,0,0,0-3.94-.82,16.39,16.39,0,0,0-1.89-.12"/><path class="cls-6" d="M263.7,297.19a.28.28,0,0,0-.14.21.34.34,0,0,0,0,.24.35.35,0,0,0,.22.14l1.15.31c.36.1.72.21,1.07.33s.88.32,1.31.5.92.39,1.36.62l.63.31.62.34c.43.23.86.47,1.27.74a.16.16,0,0,0,.2-.07.15.15,0,0,0-.06-.21c-.58-.36-1.14-.75-1.72-1.1-.28-.18-.56-.35-.85-.51l-.94-.51a15.69,15.69,0,0,0-1.87-.84,9.32,9.32,0,0,0-1-.33,6.1,6.1,0,0,0-1-.22h-.06a.29.29,0,0,0-.18.05"/><path class="cls-6" d="M261.85,301.15a.29.29,0,0,0,0,.22.35.35,0,0,0,.19.12c.66.17,1.31.33,1.95.54.35.12.69.24,1,.38s.72.31,1.08.48a17.35,17.35,0,0,1,2.05,1.16.13.13,0,0,0,.16-.06.13.13,0,0,0-.05-.16c-.47-.31-.93-.62-1.41-.9s-1-.56-1.53-.82l-.75-.35-.76-.31a11.92,11.92,0,0,0-1.66-.54h-.06a.29.29,0,0,0-.28.24"/><path class="cls-4" d="M232.91,234.41h-.08a53.11,53.11,0,0,0-19,10,45.82,45.82,0,0,0-13,16.93,39.47,39.47,0,0,0-1.79,5,36.55,36.55,0,0,0-1.07,5.28,31.74,31.74,0,0,0-.24,5.34,31.24,31.24,0,0,0,.67,5.12,32.11,32.11,0,0,0,3.71,9.42,35,35,0,0,0,6.39,7.87,36.71,36.71,0,0,0,8.44,5.81,36,36,0,0,0,9.74,3.25,44.54,44.54,0,0,0,4.59.58c1.2.09,2.44.14,3.67.14l1.39,0a42.43,42.43,0,0,0,5.17-.46,30.58,30.58,0,0,0,5-1.16,18.08,18.08,0,0,0,8.08-4.9,10.66,10.66,0,0,0,2.48-4.85,9.87,9.87,0,0,0-.32-5.3,10.39,10.39,0,0,0-3.11-4.46,14.33,14.33,0,0,0-4.57-2.49,32.14,32.14,0,0,0-5.26-1.26L241.5,284l-.35,0-2.29-.35a34.21,34.21,0,0,1-7.56-1.87,12.42,12.42,0,0,1-2.8-1.58,8.36,8.36,0,0,1-1.49-1.48,7.5,7.5,0,0,1-.48-.72,10.7,10.7,0,0,1-.55-1.12v0c-.13-.37-.24-.72-.34-1.07a8.84,8.84,0,0,1-.19-1.06,7.67,7.67,0,0,1-.05-1.07,8.71,8.71,0,0,1,.08-1.06,11.57,11.57,0,0,1,.77-2.74,30.09,30.09,0,0,1,3.26-5.46c.66-.94,1.23-1.79,1.73-2.59s1-1.69,1.42-2.54a24.74,24.74,0,0,0,1.94-5.09,23.56,23.56,0,0,0,.72-5.49,38.61,38.61,0,0,0-.56-6.58c-.18-1.13-.39-2.32-.68-3.75-.12-.62-.26-1.25-.39-1.87l-.08-.38c-.1-.45-.2-.91-.31-1.35a.31.31,0,0,0-.29-.23h-.08m-28,60.19h0l0,0c.07.09.14.19.22.28l-.17-.21h0l0,0Z"/><path class="cls-12" d="M225.43,270.74v0a12.15,12.15,0,0,0-.42,1.2,11.36,11.36,0,0,0-.24,1.16v0h0a8.91,8.91,0,0,0-.07,1,7.45,7.45,0,0,0,.07,1.06v0a7.58,7.58,0,0,0,.24,1.15,9.16,9.16,0,0,0,.37,1h0a9.38,9.38,0,0,0,.53,1.05,9,9,0,0,0,.59.88,9.1,9.1,0,0,0,.76.87c.27.26.56.51.85.74h0a9.54,9.54,0,0,0,1.31.86,14,14,0,0,0,1.4.69h0a20.62,20.62,0,0,0,2.65.89c1.85.5,3.75.81,5.63,1.14l1.52.28,1.91.36c1.27.25,2.54.53,3.79.89a24.4,24.4,0,0,1,3.59,1.29,18.56,18.56,0,0,1,1.72.88,15.5,15.5,0,0,1,1.52,1,10,10,0,0,1,1.26,1.17,9.67,9.67,0,0,1,2.23,4.26,10,10,0,0,1,.21,3.28,11.66,11.66,0,0,1-.23,1.44,10.65,10.65,0,0,0,.44-1.49,10,10,0,0,0-.33-5.3,10.25,10.25,0,0,0-3.1-4.46,14.26,14.26,0,0,0-4.57-2.5,32.49,32.49,0,0,0-5.27-1.26L241.5,284l-.34-.05-2.3-.35a33.45,33.45,0,0,1-7.55-1.87,12.63,12.63,0,0,1-2.8-1.57,9.08,9.08,0,0,1-1.49-1.48,7.86,7.86,0,0,1-1-1.85l0,0c-.14-.4-.25-.74-.34-1.07a9.63,9.63,0,0,1-.19-1.06,7.88,7.88,0,0,1-.05-1.08,7,7,0,0,1,.08-1.05,11.57,11.57,0,0,1,.77-2.74,20.43,20.43,0,0,1,1.51-2.85,17.69,17.69,0,0,0-2.32,3.84"/><path class="cls-12" d="M252.76,231.35a.27.27,0,0,0-.17.16.33.33,0,0,0,0,.22,9.12,9.12,0,0,1,.72,1.88,11.89,11.89,0,0,1,.34,3v-.08a14.85,14.85,0,0,1-.5,3.69,7.81,7.81,0,0,1-.75,1.93,4.74,4.74,0,0,1-.77,1,4.32,4.32,0,0,1-.95.7,5.08,5.08,0,0,1-1.14.44,7.11,7.11,0,0,1-1.66.2,11.29,11.29,0,0,1-2.89-.43,18,18,0,0,1-4.32-1.82,17.25,17.25,0,0,1-3.51-2.75,20.38,20.38,0,0,1-3.19-4.35c-.18-.32-.35-.65-.52-1a.31.31,0,0,0-.16-.16.28.28,0,0,0-.22,0,.3.3,0,0,0-.17.38,23.2,23.2,0,0,0,3.24,4.89,17,17,0,0,0,2.08,2,17.32,17.32,0,0,0,2.43,1.65,17.73,17.73,0,0,0,4.69,1.86,11.26,11.26,0,0,0,2.3.31,8.69,8.69,0,0,0,1.14,0,6.79,6.79,0,0,0,1.09-.22,5,5,0,0,0,1.88-1,5.36,5.36,0,0,0,1.43-1.9,8.74,8.74,0,0,0,.47-1.33,13.41,13.41,0,0,0,.36-1.52,14.81,14.81,0,0,0,.22-3.19,10.6,10.6,0,0,0-1.09-4.42.31.31,0,0,0-.16-.16.22.22,0,0,0-.11,0,.2.2,0,0,0-.11,0m-.36,10.84,0,.05a.08.08,0,0,1,0-.05m-.74,1,0,0,0,0"/><path class="cls-15" d="M267.11,229.69c-.51,1.58-1,3.15-1.54,4.73-.21.62-.41,1.24-.62,1.86l-3.93,12L254.24,269l-4.89,15c-.84,2.58-1.69,5.15-2.53,7.73h84.56l2.08-6.34q5.15-15.71,10.28-31.42,4-12.13,7.94-24.25Z"/><path class="cls-17" d="M351.68,229.67h-3c-.18.77-.37,1.51-.59,2.21a34.87,34.87,0,0,1-1.24,3.43c-.51,1.21-1.07,2.4-1.66,3.54s-1.3,2.37-2,3.5c-1.39,2.25-2.94,4.48-4.72,6.81-1.6,2.09-3.31,4.18-5.24,6.39-1.69,1.93-3.5,3.93-5.72,6.3-.76.82-1.53,1.63-2.3,2.44l-.37.39c-1,1-2,2-2.93,2.9a64.48,64.48,0,0,1-6.39,5.18,78.5,78.5,0,0,1-7.18,4.54c-2.44,1.35-5,2.62-7.59,3.77s-5.35,2.23-8.08,3.17-5.51,1.79-8.29,2.53-5.56,1.37-8.32,1.91-5.44,1-8.07,1.31c-1.59.21-3.14.38-4.63.53-1.81.17-3.45.3-5,.38s-3.14.13-4.55.13h-.5c-1,0-1.83,0-2.63-.06s-1.64-.09-2.41-.15l-1.12-.11-.32,1,84.57,0,.05-.1,2-6.25,3.43-10.47,6.86-21,7.93-24.24Z"/><path class="cls-16" d="M267.11,229.68l-.05.15-1.5,4.58-.61,1.87-.11.32L261,248.31,254.23,269l-4.89,15-1.27,3.88-1.26,3.85h1.92l2.91-8.9,9.54-29.14q3.93-12,7.85-24Z"/><path class="cls-16" d="M305.32,255.54H291.85a47.18,47.18,0,0,1,.91,4.84,65.29,65.29,0,0,1-.18,17.29,62.41,62.41,0,0,1-1.28,6.9,51.09,51.09,0,0,1-2,6.34l-.39.94h0a30.71,30.71,0,0,1-3.8,6.69,18.18,18.18,0,0,1-3.25,3.3,14.44,14.44,0,0,1-2.24,1.41.26.26,0,0,0-.13.17H262.92a.32.32,0,0,0-.29.22,7.17,7.17,0,0,0-.38,2.25,5,5,0,0,0,.46,2.3.3.3,0,0,0,.26.15l.09,0h39.57a.29.29,0,0,0,.25-.15,21.41,21.41,0,0,0,5.59-6,36,36,0,0,0,2.08-3.64c.58-1.16,1.13-2.39,1.69-3.76s1.06-2.79,1.59-4.4,1-3.19,1.41-4.82a74,74,0,0,0,1.86-9.86c.18-1.55.32-3.19.4-4.89s.11-3.24.07-4.8a44,44,0,0,0-1.17-9.58q-.11-.45-.24-.9Zm-1.59,32a3.25,3.25,0,0,1-.43-.08,3.61,3.61,0,0,1-1.05-.52,4.12,4.12,0,0,1-.61-.57,3.15,3.15,0,0,1-.22-.29h0l-.05-.07c-.06-.09-.12-.18-.17-.27l-.15-.26v0h0a4.22,4.22,0,0,1-.32-.76c-.06-.18-.11-.37-.16-.55l0-.14v0h0a7.92,7.92,0,0,1-.16-1.61.76.76,0,0,1,0-.15v-.07a9,9,0,0,1,.16-1.37,8,8,0,0,1,.45-1.51,7.78,7.78,0,0,1,.78-1.45l.22-.3.18-.23h0a3,3,0,0,1,.34-.37,5.3,5.3,0,0,1,.63-.54c.14-.09.27-.18.42-.26l.36-.18H304a3.31,3.31,0,0,1,.68-.2,3.9,3.9,0,0,1,.58,0h.29a3.93,3.93,0,0,1,.68.15,3.06,3.06,0,0,1,.72.37,3.36,3.36,0,0,1,.61.52,4.09,4.09,0,0,1,.51.67,5.06,5.06,0,0,1,.38.73,6.86,6.86,0,0,1,.44,1.67,7.47,7.47,0,0,1,0,1.83,8.12,8.12,0,0,1-.36,1.75,7.55,7.55,0,0,1-.7,1.6,8.73,8.73,0,0,1-.5.74,5.05,5.05,0,0,1-.53.6,4.3,4.3,0,0,1-.65.55,3.59,3.59,0,0,1-.73.43,3.74,3.74,0,0,1-.88.27,4.55,4.55,0,0,1-.52,0l-.33,0M263.15,307.7h0Z"/><path class="cls-18" d="M295.36,266.85c0-.42,0-.85,0-1.27s0-.65-.05-1c-.07-1.46-.16-2.92-.36-4.37v0a18.49,18.49,0,0,0-1.13-4.52h0a1.42,1.42,0,0,0-.08-.18h-1.85a49,49,0,0,1,.9,4.85,65.29,65.29,0,0,1-.18,17.29,64.48,64.48,0,0,1-1.27,6.9,50.41,50.41,0,0,1-2,6.33l-.39,1a30.51,30.51,0,0,1-3.78,6.67,18.51,18.51,0,0,1-3.25,3.3,12.42,12.42,0,0,1-1.72,1.13h0a.29.29,0,0,0-.21.09l-.06,0-.25.12,0,0-.4.19H262.92a.33.33,0,0,0-.3.23,7.22,7.22,0,0,0-.38,2.25,5,5,0,0,0,.46,2.3.29.29,0,0,0,.27.16l.09,0H278c.47-.23.93-.48,1.37-.74a22.24,22.24,0,0,0,2.22-1.51h0A25.46,25.46,0,0,0,283.9,304a26.81,26.81,0,0,0,2.05-2.34h0c.53-.69,1-1.4,1.51-2.13s.93-1.45,1.36-2.19.87-1.56,1.27-2.36.74-1.56,1.07-2.36a43.6,43.6,0,0,0,2-5.7c.26-.95.49-1.91.68-2.88s.36-1.94.49-2.91v0l.09-.71a106.2,106.2,0,0,0,.95-10.83C295.38,268.67,295.39,267.76,295.36,266.85Z"/><path class="cls-18" d="M291.19,292.58h0v0Z"/><path class="cls-4" d="M400.6,150H311.12a.31.31,0,0,0-.3.31v61.27a.31.31,0,0,0,0,.09v15.31a.31.31,0,0,0,.3.32h.05a.33.33,0,0,0,.23-.09,129.7,129.7,0,0,0,9.73-11l.65-.81.32-.39c.86-1.05,1.71-2.09,2.57-3.12H400.6a.31.31,0,0,0,.31-.31V150.26a.31.31,0,0,0-.31-.31"/><path class="cls-15" d="M372.1,163.26H346.16a.63.63,0,1,0,0,1.26h43a.63.63,0,1,0,0-1.26Z"/><path class="cls-15" d="M374.25,169.74h-43a.63.63,0,0,0-.62.63.63.63,0,0,0,.62.63h58.22a.63.63,0,0,0,.63-.63.64.64,0,0,0-.63-.63Z"/><path class="cls-15" d="M376,176.9H331.08a.63.63,0,0,0,0,1.26H389.5a.63.63,0,0,0,0-1.26Z"/><path class="cls-15" d="M389.8,184.14H331.55a.63.63,0,1,0,0,1.25H389.8a.63.63,0,1,0,0-1.25"/><rect class="cls-3" x="313.97" y="190" width="84.24" height="16.71" rx="8.36"/><path class="cls-19" d="M340.52,191.61a.84.84,0,0,0-.27,0,1.65,1.65,0,0,0-.63.3,3.25,3.25,0,0,0-.55.56,7.34,7.34,0,0,0-.86,1.5c-.19.44-.36.89-.51,1.36l-.05,0-.28,0h-.11c-.29,0-.59,0-.87.08l-.7.11a7.73,7.73,0,0,0-.8.21,3.55,3.55,0,0,0-.76.32,1.78,1.78,0,0,0-.58.49,1.34,1.34,0,0,0-.17.31l0,.09a1.24,1.24,0,0,0,0,.27,1.54,1.54,0,0,0,.14.68,3.61,3.61,0,0,0,.41.68,6.89,6.89,0,0,0,1.25,1.2c.29.22.6.45.94.66l0,.07c-.1.26-.22.55-.31.84s-.14.47-.2.68-.12.55-.16.81a4.84,4.84,0,0,0,0,.83,1.78,1.78,0,0,0,.2.73,1,1,0,0,0,.21.29l.07.06.22.15a1.62,1.62,0,0,0,.68.16h.11a2.72,2.72,0,0,0,.67-.08,6.78,6.78,0,0,0,1.63-.61,11.67,11.67,0,0,0,1.31-.76,11.12,11.12,0,0,0,1.28.74,6.88,6.88,0,0,0,1.62.61,2.87,2.87,0,0,0,.69.08h.1a1.54,1.54,0,0,0,.67-.16.76.76,0,0,0,.23-.15l.07-.06a1,1,0,0,0,.21-.29,1.64,1.64,0,0,0,.19-.73,3.93,3.93,0,0,0,0-.83c0-.26-.09-.52-.16-.81s-.12-.43-.2-.68-.2-.56-.31-.83l-.09-.23c.31-.19.6-.4.89-.62a6.91,6.91,0,0,0,1.25-1.21,2.76,2.76,0,0,0,.4-.67,1.78,1.78,0,0,0,.15-.68.84.84,0,0,0,0-.27.29.29,0,0,0,0-.09,1.17,1.17,0,0,0-.17-.31,1.89,1.89,0,0,0-.58-.49,4,4,0,0,0-.77-.33c-.25-.08-.51-.14-.79-.2s-.44-.08-.7-.11a7.52,7.52,0,0,0-.89-.08h-.08l-.24,0-.05-.19h0c-.09-.28-.18-.57-.29-.84s-.2-.47-.29-.65a8,8,0,0,0-.38-.72,4.08,4.08,0,0,0-.51-.66,1.78,1.78,0,0,0-.61-.45,1.37,1.37,0,0,0-.35-.08h-.09"/><path class="cls-19" d="M356.27,191.61a.84.84,0,0,0-.27,0,1.65,1.65,0,0,0-.63.3,3.25,3.25,0,0,0-.55.56A6.9,6.9,0,0,0,354,194a10.55,10.55,0,0,0-.51,1.36l-.05,0-.28,0H353c-.28,0-.58,0-.87.08l-.69.11a7.73,7.73,0,0,0-.8.21,3.87,3.87,0,0,0-.77.32,1.89,1.89,0,0,0-.58.49,1.3,1.3,0,0,0-.16.31l0,.09a2.51,2.51,0,0,0,0,.27,1.71,1.71,0,0,0,.15.68,3.61,3.61,0,0,0,.41.68,6.89,6.89,0,0,0,1.25,1.2,10.31,10.31,0,0,0,.94.66l0,.07c-.11.26-.22.55-.32.84s-.14.47-.19.68a6.43,6.43,0,0,0-.16.81,3.41,3.41,0,0,0,0,.83,2,2,0,0,0,.19.73,1.23,1.23,0,0,0,.22.29l.06.06.23.15a1.58,1.58,0,0,0,.68.16h.1a2.85,2.85,0,0,0,.68-.08,6.72,6.72,0,0,0,1.62-.61,11,11,0,0,0,1.32-.76,9.65,9.65,0,0,0,1.28.74,6.88,6.88,0,0,0,1.62.61,2.85,2.85,0,0,0,.68.08h.1a1.58,1.58,0,0,0,.68-.16.91.91,0,0,0,.23-.15l.07-.06a1.54,1.54,0,0,0,.21-.29,1.78,1.78,0,0,0,.19-.73,3.93,3.93,0,0,0,0-.83,6.92,6.92,0,0,0-.17-.81c0-.21-.11-.43-.19-.68s-.2-.56-.31-.83l-.09-.23c.3-.19.6-.4.89-.62a6.82,6.82,0,0,0,1.24-1.21,2.81,2.81,0,0,0,.41-.67,1.78,1.78,0,0,0,.15-.68,2.51,2.51,0,0,0,0-.27l0-.09a1.14,1.14,0,0,0-.16-.31,1.89,1.89,0,0,0-.58-.49,4.57,4.57,0,0,0-.77-.33,7.79,7.79,0,0,0-.8-.2c-.21,0-.43-.08-.69-.11a7.52,7.52,0,0,0-.89-.08h-.08l-.24,0-.06-.19h0a8.39,8.39,0,0,0-.3-.84c-.1-.25-.19-.47-.28-.65a8,8,0,0,0-.39-.72,3.56,3.56,0,0,0-.5-.66,1.72,1.72,0,0,0-.62-.45,1.3,1.3,0,0,0-.34-.08h-.09"/><path class="cls-19" d="M372,191.61a.93.93,0,0,0-.27,0,1.55,1.55,0,0,0-.62.3,3.25,3.25,0,0,0-.55.56,6.9,6.9,0,0,0-.87,1.5,12.23,12.23,0,0,0-.5,1.36l-.05,0-.28,0h-.12c-.29,0-.58,0-.87.08l-.69.11a6.59,6.59,0,0,0-.8.21,3.43,3.43,0,0,0-.77.32,1.89,1.89,0,0,0-.58.49,1.34,1.34,0,0,0-.17.31.29.29,0,0,0,0,.09,1.26,1.26,0,0,0,0,.27,1.71,1.71,0,0,0,.15.68,3.15,3.15,0,0,0,.41.68,6.8,6.8,0,0,0,1.24,1.2c.29.22.61.45.94.66l0,.07c-.1.26-.22.55-.31.84s-.14.47-.19.68a6.52,6.52,0,0,0-.17.81,4,4,0,0,0,0,.83,1.78,1.78,0,0,0,.19.73,1.54,1.54,0,0,0,.21.29l.07.06a1.53,1.53,0,0,0,.23.15,1.58,1.58,0,0,0,.68.16h.1A2.85,2.85,0,0,0,369,205a6.88,6.88,0,0,0,1.62-.61,11.79,11.79,0,0,0,1.32-.76,9.65,9.65,0,0,0,1.28.74,6.72,6.72,0,0,0,1.62.61,2.85,2.85,0,0,0,.68.08h.1a1.58,1.58,0,0,0,.68-.16.91.91,0,0,0,.23-.15l.06-.06a1.23,1.23,0,0,0,.22-.29,1.78,1.78,0,0,0,.19-.73,3.39,3.39,0,0,0,0-.83,6.8,6.8,0,0,0-.16-.81c0-.21-.12-.43-.2-.68a8.22,8.22,0,0,0-.3-.83l-.09-.23a10.72,10.72,0,0,0,.88-.62,6.6,6.6,0,0,0,1.25-1.21,2.81,2.81,0,0,0,.41-.67,1.59,1.59,0,0,0,.14-.68,1.24,1.24,0,0,0,0-.27l0-.09a.94.94,0,0,0-.17-.31,1.78,1.78,0,0,0-.58-.49,4.13,4.13,0,0,0-.76-.33,7.79,7.79,0,0,0-.8-.2l-.69-.11a7.52,7.52,0,0,0-.89-.08h-.08l-.24,0-.06-.19h0c-.09-.28-.18-.57-.29-.84s-.2-.47-.28-.65-.26-.5-.39-.72a4.06,4.06,0,0,0-.5-.66,1.81,1.81,0,0,0-.62-.45,1.3,1.3,0,0,0-.34-.08H372"/><path class="cls-19" d="M387.76,191.61a.93.93,0,0,0-.27,0,1.55,1.55,0,0,0-.62.3,3.29,3.29,0,0,0-.56.56,7.34,7.34,0,0,0-.86,1.5c-.19.44-.36.89-.51,1.36l-.05,0-.27,0h-.12c-.29,0-.59,0-.87.08l-.7.11a7.73,7.73,0,0,0-.8.21,3.55,3.55,0,0,0-.76.32,1.78,1.78,0,0,0-.58.49,1.34,1.34,0,0,0-.17.31l0,.09a1.24,1.24,0,0,0,0,.27,1.42,1.42,0,0,0,.15.68,3.08,3.08,0,0,0,.4.68,6.89,6.89,0,0,0,1.25,1.2c.29.22.61.45.94.66l0,.07c-.1.26-.22.55-.31.84s-.14.47-.2.68-.12.55-.16.81a4.84,4.84,0,0,0,0,.83,1.78,1.78,0,0,0,.2.73,1,1,0,0,0,.21.29l.07.06a1.53,1.53,0,0,0,.23.15,1.58,1.58,0,0,0,.67.16h.11a2.85,2.85,0,0,0,.68-.08,6.88,6.88,0,0,0,1.62-.61,11.67,11.67,0,0,0,1.31-.76,11.12,11.12,0,0,0,1.28.74,6.78,6.78,0,0,0,1.63.61,2.79,2.79,0,0,0,.68.08h.1a1.58,1.58,0,0,0,.68-.16.86.86,0,0,0,.22-.15l.07-.06a1,1,0,0,0,.21-.29,1.78,1.78,0,0,0,.2-.73,4.8,4.8,0,0,0,0-.83c0-.26-.09-.52-.16-.81s-.12-.43-.2-.68-.2-.56-.3-.83l-.1-.23c.31-.19.6-.4.89-.62a6.91,6.91,0,0,0,1.25-1.21,2.76,2.76,0,0,0,.4-.67,1.48,1.48,0,0,0,.15-.68,1.24,1.24,0,0,0,0-.27l0-.09a1.17,1.17,0,0,0-.17-.31,1.78,1.78,0,0,0-.58-.49,4.13,4.13,0,0,0-.76-.33c-.25-.08-.52-.14-.8-.2s-.44-.08-.7-.11a7.36,7.36,0,0,0-.88-.08h-.09l-.23,0-.06-.19h0c-.09-.28-.18-.57-.29-.84l-.28-.65q-.19-.39-.39-.72a4.72,4.72,0,0,0-.5-.66,1.91,1.91,0,0,0-.62-.45,1.37,1.37,0,0,0-.35-.08h-.09"/><path class="cls-19" d="M324.77,191.61a.93.93,0,0,0-.27,0,1.55,1.55,0,0,0-.62.3,3.25,3.25,0,0,0-.55.56,6.9,6.9,0,0,0-.87,1.5,12.23,12.23,0,0,0-.5,1.36l0,0-.28,0h-.12c-.29,0-.58,0-.87.08l-.7.11a6.92,6.92,0,0,0-.79.21,3.43,3.43,0,0,0-.77.32,1.89,1.89,0,0,0-.58.49,1.34,1.34,0,0,0-.17.31.29.29,0,0,0,0,.09.84.84,0,0,0,0,.27,1.55,1.55,0,0,0,.15.68,3.08,3.08,0,0,0,.4.68,7.24,7.24,0,0,0,1.25,1.2c.29.22.61.45.94.66l0,.07c-.1.26-.22.55-.31.84s-.14.47-.19.68a6.52,6.52,0,0,0-.17.81,4,4,0,0,0,0,.83,1.78,1.78,0,0,0,.19.73,1.19,1.19,0,0,0,.21.29l.07.06a1.53,1.53,0,0,0,.23.15,1.58,1.58,0,0,0,.68.16h.1a2.85,2.85,0,0,0,.68-.08,6.88,6.88,0,0,0,1.62-.61,10.84,10.84,0,0,0,1.31-.76,11.12,11.12,0,0,0,1.28.74,6.94,6.94,0,0,0,1.63.61,2.85,2.85,0,0,0,.68.08h.1a1.58,1.58,0,0,0,.68-.16,1.14,1.14,0,0,0,.23-.15l.06-.06a1.23,1.23,0,0,0,.22-.29,2,2,0,0,0,.19-.73,4,4,0,0,0,0-.83,6.8,6.8,0,0,0-.16-.81c-.05-.21-.12-.43-.2-.68s-.2-.56-.3-.83l-.09-.23a10.72,10.72,0,0,0,.88-.62,6.6,6.6,0,0,0,1.25-1.21,2.81,2.81,0,0,0,.41-.67,1.59,1.59,0,0,0,.14-.68,1.24,1.24,0,0,0,0-.27l0-.09a1.17,1.17,0,0,0-.17-.31,1.78,1.78,0,0,0-.58-.49,4.13,4.13,0,0,0-.76-.33,7.79,7.79,0,0,0-.8-.2c-.22,0-.44-.08-.7-.11a7.18,7.18,0,0,0-.88-.08h-.09l-.23,0-.06-.19h0c-.09-.28-.18-.57-.29-.84l-.28-.65q-.2-.39-.39-.72a4.06,4.06,0,0,0-.5-.66,1.81,1.81,0,0,0-.62-.45,1.28,1.28,0,0,0-.35-.08h-.09"/><path class="cls-8" d="M318,198.36l.17.26a7.24,7.24,0,0,0,1.25,1.2c.29.22.61.45.94.66l0,.07c-.1.26-.22.55-.31.84s-.14.47-.19.68a6.52,6.52,0,0,0-.17.81,4,4,0,0,0,0,.83,1.78,1.78,0,0,0,.19.73,1.19,1.19,0,0,0,.21.29l.07.06a1.53,1.53,0,0,0,.23.15,1.58,1.58,0,0,0,.68.16h.1a2.85,2.85,0,0,0,.68-.08,6.88,6.88,0,0,0,1.62-.61,10.84,10.84,0,0,0,1.31-.76,11.12,11.12,0,0,0,1.28.74,6.94,6.94,0,0,0,1.63.61,2.85,2.85,0,0,0,.68.08h.1a1.58,1.58,0,0,0,.68-.16,1.14,1.14,0,0,0,.23-.15l.06-.06a1.23,1.23,0,0,0,.22-.29,2,2,0,0,0,.19-.73,4,4,0,0,0,0-.83,6.8,6.8,0,0,0-.16-.81c-.05-.21-.12-.43-.2-.68s-.2-.56-.3-.83l-.09-.23a10.72,10.72,0,0,0,.88-.62,6.6,6.6,0,0,0,1.25-1.21l.09-.12Z"/><path class="cls-3" d="M336.22,155.53a6.14,6.14,0,0,0-3.22.9l-.25.16a6.26,6.26,0,0,0-1.22,1.08l0,0-.18.22a5.74,5.74,0,0,0-.53.79,5.53,5.53,0,0,0-.36.77l0,.08,0,0c0,.07-.05.15-.08.23a6.37,6.37,0,0,0-.29,1.7,6.16,6.16,0,0,0,.44,2.49,6.69,6.69,0,0,0,.63,1.18,6.31,6.31,0,0,0,1.35,1.43,5.71,5.71,0,0,0,.77.51h0l0,0,.06,0,0,0h0l0,0h0l0,0h0l0,0h0s0,0,0,0h.06l0,0h.06l.06,0,.06,0,0,0h0l.24.09.11,0h0a6.79,6.79,0,0,0,1.34.28l.56,0,.59,0h.06l.26,0a5.68,5.68,0,0,0,1.33-.35h0a6.25,6.25,0,0,0,1.3-.69l.16-.11a6.55,6.55,0,0,0,1.21-1.2,6.31,6.31,0,0,0,.92-1.67,6.24,6.24,0,0,0,.36-1.94,6.14,6.14,0,0,0-1.11-3.69,5.92,5.92,0,0,0-1.31-1.38,6.15,6.15,0,0,0-3.76-1.28"/><g class="cls-20"><path class="cls-13" d="M338.64,164.24l-.37-.65a3.55,3.55,0,1,0-4.12,0l-.37.65-2.43,4.22h9.73Z"/></g><path class="cls-4" d="M286,150.5c-1.52,0-3,.06-4.52.19a44.18,44.18,0,0,0-4.79.68,25.44,25.44,0,0,0-3.74,1,9.63,9.63,0,0,0-2.93,1.64,5.67,5.67,0,0,0-1.08,1.22,4.62,4.62,0,0,0-.64,1.62,5,5,0,0,0,0,1.88,4.52,4.52,0,0,0,.78,1.77,5.66,5.66,0,0,0,1.33,1.29c.2.14.41.28.62.4a4.47,4.47,0,0,0-.46.19,4.91,4.91,0,0,0-1.26.83,5.17,5.17,0,0,0-1.51,2.4,7.12,7.12,0,0,0,.81,5.64,7,7,0,0,0,1.67,1.87,5.76,5.76,0,0,0,1.09.66,6.43,6.43,0,0,0-.92.71,5.58,5.58,0,0,0-1.29,2,4.66,4.66,0,0,0-.26,2.12,5.56,5.56,0,0,0,.56,2,7.33,7.33,0,0,0,1.19,1.77,8.76,8.76,0,0,0,1.66,1.42,11.08,11.08,0,0,0,4.18,1.54,19.13,19.13,0,0,0,3.38.27c.67,0,1.4,0,2.29-.08,1.09-.06,2.2-.17,3.27-.27.54-.05,1.07-.11,1.61-.15a21.31,21.31,0,0,0-.34,5.59,23.15,23.15,0,0,0,1.16,6.24,12.81,12.81,0,0,0,1.31,2.76,7.46,7.46,0,0,0,1.9,2.07,6,6,0,0,0,2.65,1.09,5.9,5.9,0,0,0,.95.07,7.14,7.14,0,0,0,2.2-.36,5.24,5.24,0,0,0,2.28-1.57,7.36,7.36,0,0,0,1.26-2.42,24.89,24.89,0,0,0,.88-5.68l0-.42c.06-.81.13-1.72.24-2.63a15.24,15.24,0,0,1,.46-2.33,6.6,6.6,0,0,1,.53-1.23c.6-.21,1.22-.41,1.82-.59s1.27-.4,1.9-.62a13.6,13.6,0,0,0,3.73-1.92.59.59,0,0,0,.13-.83.56.56,0,0,0-.36-.23c.31-.5.58-1,.79-1.43s.48-1,.72-1.48l.15-.31a15.37,15.37,0,0,0,.87-2.37,24.27,24.27,0,0,0,.82-5c.1-1.41.13-3,.08-4.73a34.28,34.28,0,0,0-.85-6.92,14.17,14.17,0,0,0-1.21-3.35l0,0a1.62,1.62,0,0,0-.1-.18.57.57,0,0,0,.44-.38.54.54,0,0,0,0-.45.58.58,0,0,0-.34-.31l-1.18-.41a5.19,5.19,0,0,0-.9-.75.67.67,0,0,0-.38-.13h-.05a.64.64,0,0,0-.41.22l-.06.09c-2.09-.66-4.24-1.24-6.4-1.74a77.15,77.15,0,0,0-10.14-1.65c-1.88-.18-3.76-.27-5.58-.27"/><path class="cls-12" d="M277.41,173.08l-1.63.11c-1.09.08-2.18.2-3.28.26h-.64a.27.27,0,0,0-.05.53c1.21,0,2.41.13,3.61.2l1.8.09h.91a9.3,9.3,0,0,0,1.05-.09.55.55,0,0,0,.46-.5.57.57,0,0,0-.51-.61l-.68,0-1,0m-5,.37h0"/><path class="cls-12" d="M273.47,161.89c-.58,0-1.17,0-1.76,0a.23.23,0,0,0-.25.21.23.23,0,0,0,.21.25c1.21,0,2.43.09,3.64.19s2.47.2,3.72.18a.69.69,0,0,0,.41-.13.6.6,0,0,0,.2-.4.56.56,0,0,0-.52-.61h-.3c-1.79,0-3.56.2-5.35.29"/><path class="cls-12" d="M286.77,184.87a.5.5,0,0,0-.13.32v.07c-.08.55-.15,1.11-.19,1.67s-.08,1.12-.1,1.68a35.11,35.11,0,0,0,.06,3.84,26.74,26.74,0,0,0,.59,4.08,13.69,13.69,0,0,0,1.33,3.6,7.16,7.16,0,0,0,2.35,2.6,5.82,5.82,0,0,0,3.5.87,9.28,9.28,0,0,0,2.22-.43,7.56,7.56,0,0,0,1.13-.49,5.4,5.4,0,0,0,1-.63,7.05,7.05,0,0,0,2.24-3.46,20.55,20.55,0,0,0,.81-4.4c.15-1.51.22-3,.42-4.54l0-.16v0a12.36,12.36,0,0,1,.75-3.12.22.22,0,0,0-.43-.12,15.71,15.71,0,0,0-.88,3.88c-.19,1.46-.3,2.93-.49,4.39h0a16.69,16.69,0,0,1-1,4v0l0,.06v0a8.17,8.17,0,0,1-.9,1.57,6,6,0,0,1-1,1,5.79,5.79,0,0,1-1.23.71,8.84,8.84,0,0,1-2,.51,6.66,6.66,0,0,1-1.67,0,5.36,5.36,0,0,1-1.19-.32,5.08,5.08,0,0,1-1-.61,6.18,6.18,0,0,1-1-1,9.7,9.7,0,0,1-1.11-2,18.73,18.73,0,0,1-1.22-4.79l0,.15a35,35,0,0,1-.27-4c0-1.15,0-2.3.08-3.44,0-.44.06-.87.11-1.31a.4.4,0,0,0-.13-.32.46.46,0,0,0-.64,0m-.12.28v0m2.13,13.3v0M299,200.18l-.06.08.06-.08m-2.17,1.69,0,0,0,0m-.09,0,0,0Zm-3.56.52h0m6.72-3.82h0l0,0a.08.08,0,0,0,0,.05"/><path class="cls-12" d="M313.22,151.11a13.81,13.81,0,0,0-2.88.31,7.65,7.65,0,0,0-3,1.33.61.61,0,0,0-.26.37.78.78,0,0,0-.06.27v32.38a.59.59,0,0,0,.32.53,7,7,0,0,0,1.42.84,9.17,9.17,0,0,0,1.63.56,12.53,12.53,0,0,0,3,.34l.58,0a14,14,0,0,0,3.51-.57,10.71,10.71,0,0,0,1.59-.6l.65-.33a5.86,5.86,0,0,0,.93-.63.57.57,0,0,0,.16-.34.41.41,0,0,0,0-.11V153.66a.59.59,0,0,0,0-.22.54.54,0,0,0-.18-.35,5.8,5.8,0,0,0-1.78-1,15.93,15.93,0,0,0-1.54-.5,16.68,16.68,0,0,0-3.39-.48l-.62,0"/><path class="cls-4" d="M317.25,155.32v28.06a.79.79,0,0,0,.78.79.8.8,0,0,0,.79-.79V155.32a.8.8,0,0,0-.79-.79.79.79,0,0,0-.78.79"/><path class="cls-4" d="M314.64,155.26v12.28a.79.79,0,0,0,1.58,0V155.26a.79.79,0,0,0-1.58,0"/><path class="cls-4" d="M283.4,206.63a11.53,11.53,0,0,0-6,1.69l-.49.31a11.67,11.67,0,0,0-2.29,2l0,0-.34.41a12.14,12.14,0,0,0-1,1.5,11.34,11.34,0,0,0-.68,1.44l-.06.17,0,.06a3.81,3.81,0,0,0-.15.44,11.68,11.68,0,0,0,4,12.8,12.46,12.46,0,0,0,1.45.95l.05,0,0,0,.1.05.06,0,0,0,.07,0h0l0,0,.07,0,0,0,.08,0,.05,0,.05,0,.06,0,0,0,.06,0,0,0,.07,0,.1,0,.12.05.07,0,.05,0,.44.17.22.08h0a11.67,11.67,0,0,0,2.52.53c.35,0,.71.05,1.07.05s.73,0,1.1-.05h.11l.5-.06a11.81,11.81,0,0,0,2.5-.65l0,0a11.94,11.94,0,0,0,2.44-1.3l.3-.22a11.63,11.63,0,0,0,2.61-16,11.89,11.89,0,0,0-2.47-2.59,11.59,11.59,0,0,0-7.08-2.41"/><path class="cls-3" d="M281.29,217.72a6.27,6.27,0,0,0-1.7.84,8.53,8.53,0,0,0-2.5,2.71,11.23,11.23,0,0,0-.89,1.89.5.5,0,0,0,.34.61.55.55,0,0,0,.38-.05.53.53,0,0,0,.23-.3c.05-.14.11-.29.17-.44a10,10,0,0,1,1.18-2l0,0,0,0,.06-.07-.06.06a8.24,8.24,0,0,1,1.32-1.32,6.62,6.62,0,0,1,1.31-.77,5.67,5.67,0,0,1,1.34-.37,6.47,6.47,0,0,1,1.32,0,6.12,6.12,0,0,1,1.35.37,6.58,6.58,0,0,1,1.33.79,7.93,7.93,0,0,1,1.29,1.3q.19.26.36.51h0a4.28,4.28,0,0,1,.26.42v0l.05.08h0c.09.17.19.34.27.52h0v0l0,0,.18.4v0h0v0l0,.05h0v0h0c0,.09.07.18.1.27a.55.55,0,0,0,.23.29.46.46,0,0,0,.38,0,.48.48,0,0,0,.34-.6c0-.1-.07-.19-.1-.28v0h0v0l0,0v0l0,0v0a.61.61,0,0,0-.07-.14v0h0l-.17-.36h0l0,0h0l0,0h0v-.05h0l-.21-.41h0v-.05a.56.56,0,0,1-.05-.08l0,0v0l-.24-.39h0l0,0a9.88,9.88,0,0,0-1-1.25,7.63,7.63,0,0,0-1.3-1.11,6.31,6.31,0,0,0-3.36-1.1h-.2a6.19,6.19,0,0,0-1.82.29m5.1,1.82,0,0,0,0m1.38,1.38.05.06-.05-.06m-10.42,2,0,.07,0-.07m1.15-2h0"/><path class="cls-3" d="M281.13,213.77l-2.39-.78-2.61-.84a.57.57,0,0,0-.18,0,.71.71,0,0,0-.66.51.68.68,0,0,0,.48.84l.57.19h0l1,.33a4.34,4.34,0,0,0-.22,1.43c0,1.26.46,2.28,1,2.28s1-1,1-2.28a4.57,4.57,0,0,0-.08-.86l1.63.53a.71.71,0,0,0,.85-.49A.7.7,0,0,0,281.13,213.77Z"/><path class="cls-3" d="M291.45,212.58a.71.71,0,0,0-.66-.51.55.55,0,0,0-.18,0l-2.61.85-2.4.78A.69.69,0,1,0,286,215l1.62-.52a5.65,5.65,0,0,0-.07.86c0,1.26.46,2.28,1,2.28s1-1,1-2.28a4,4,0,0,0-.23-1.43l1-.33h0l.57-.19A.68.68,0,0,0,291.45,212.58Z"/><path class="cls-4" d="M197.19,232.06a.5.5,0,0,0-.2.08.54.54,0,0,0-.21.38.49.49,0,0,0,.44.51l.42.07.66.11h.12a2.9,2.9,0,0,0,0,1c.14.83.55,1.49.94,1.49h0a.51.51,0,0,0,.36-.33,2.58,2.58,0,0,0,.1-1.39,3.25,3.25,0,0,0-.12-.52s0-.05,0-.08h0l.3.06.89.13h.16a.54.54,0,0,0,.24-.14.49.49,0,0,0-.29-.83l-1.78-.27-.22,0-1.71-.26h-.13"/><path class="cls-4" d="M207.63,230.37l-.12,0-.87.45-.87.45-1.59.82a.51.51,0,0,0-.25.66.53.53,0,0,0,.41.28h0a.45.45,0,0,0,.2,0l.29-.15.24-.12.55-.28h0a2.5,2.5,0,0,0,0,.59c.13.82.54,1.47.93,1.49h.06a.48.48,0,0,0,.32-.27,2.49,2.49,0,0,0,.14-1.46,3.76,3.76,0,0,0-.32-1h0l.67-.33.31-.16.1-.05a.51.51,0,0,0,.28-.45.28.28,0,0,0,0-.09.53.53,0,0,0,0-.12.52.52,0,0,0-.46-.28h-.07"/><path class="cls-4" d="M203.21,234.94l-.14,0a4.39,4.39,0,0,0-1.79.8l-.05,0-.1.08-.29.25a5.63,5.63,0,0,0-.79.94,6.66,6.66,0,0,0-.56,1l0,.06c0,.09-.06.16-.09.23l0,.05,0,.06,0,0c0,.11-.07.22-.1.32l0,0v.1a2.76,2.76,0,0,0-.08.27v.07l0,.05v.16a.29.29,0,0,0,0,.09v.15a.32.32,0,0,0,.07.2.37.37,0,0,0,.25.15.38.38,0,0,0,.26-.08.48.48,0,0,0,.09-.11s0-.08,0-.12l0-.18,0-.1,0-.06a2.86,2.86,0,0,1,.07-.28l0-.05c0-.14.08-.27.13-.4l0-.07a3.45,3.45,0,0,1,.14-.34c.06-.13.12-.26.19-.39a5.78,5.78,0,0,1,.76-1.08,4.59,4.59,0,0,1,.84-.7,4.37,4.37,0,0,1,.91-.42,4.11,4.11,0,0,1,.93-.15h0a4.32,4.32,0,0,1,1,.1,4.52,4.52,0,0,1,1,.4,5.91,5.91,0,0,1,1.05.74l0,0a6.89,6.89,0,0,1,1,1.29c.08.12.13.22.21.35a.32.32,0,0,0,.17.14.28.28,0,0,0,.13,0h.06l.09,0a.44.44,0,0,0,.19-.23.25.25,0,0,0,0-.09.4.4,0,0,0,0-.15l0-.07-.06-.1a8,8,0,0,0-.75-1.06,6,6,0,0,0-1.93-1.55l-.1,0,0,0-.12,0a4.7,4.7,0,0,0-1.17-.34,4.82,4.82,0,0,0-.65,0,4.91,4.91,0,0,0-.67.05"/><path class="cls-3" d="M203.13,227.26a8.94,8.94,0,0,0-1.37.11,8.26,8.26,0,0,0-2.65.92,8.5,8.5,0,0,0-2.06,1.6,8.31,8.31,0,0,0-2.1,7.25,8.35,8.35,0,0,0,2.48,4.5,8.46,8.46,0,0,0,1.88,1.32l.23.12a8.32,8.32,0,0,0,1.88.63,8,8,0,0,0,1.67.18h.62a5.31,5.31,0,0,0,.79-.09,6.34,6.34,0,0,0,.74-.16A8.15,8.15,0,0,0,207,243l.17-.09,0,0,.25-.14.08-.05.07,0,.07-.05.05,0,.07-.05.06,0,0,0,.08-.05.07-.06.07,0,.07-.05.06-.05.07,0a7.93,7.93,0,0,0,.91-.83,8.47,8.47,0,0,0,1.47-2.2,9,9,0,0,0,.58-1.7,8.42,8.42,0,0,0,0-3.39,8.59,8.59,0,0,0-.76-2.19l-.16-.29,0,0-.07-.11a9,9,0,0,0-.64-.94,8.54,8.54,0,0,0-.87-.93l-.29-.26,0,0a8.36,8.36,0,0,0-1.85-1.17l-.38-.16a8.35,8.35,0,0,0-2.13-.55c-.33,0-.65-.05-1-.05m1.26,5.81h0a.5.5,0,0,1-.4-.28.48.48,0,0,1,.24-.65l1.59-.83.87-.45.87-.45.12,0h.07a.53.53,0,0,1,.46.28l0,.12a.28.28,0,0,1,0,.09.51.51,0,0,1-.28.45l-.1.05-.31.16-.67.33a3.49,3.49,0,0,1,.33,1,2.49,2.49,0,0,1-.14,1.46.51.51,0,0,1-.32.27h-.06c-.39,0-.8-.67-.94-1.49a3.1,3.1,0,0,1,0-.59l-.8.39-.29.15a.45.45,0,0,1-.2,0Zm-5,2.67c-.39,0-.8-.66-.94-1.49a2.9,2.9,0,0,1,0-1l-.78-.13-.42-.06a.5.5,0,0,1-.44-.52.54.54,0,0,1,.21-.38.5.5,0,0,1,.2-.08h.13l1.71.26.22,0,1.78.27a.49.49,0,0,1,.29.83.54.54,0,0,1-.24.14h-.16l-.89-.14-.3-.06a4.84,4.84,0,0,1,.14.61,2.54,2.54,0,0,1-.1,1.38.54.54,0,0,1-.36.35h0m-.06,4.38a.37.37,0,0,1-.25-.15.32.32,0,0,1-.07-.2v-.15a.29.29,0,0,1,0-.09v-.15l0-.06v-.07a2.76,2.76,0,0,1,.08-.27v-.1l0,0c0-.11.06-.21.1-.32l0,0,0-.06,0-.05c0-.07.06-.14.09-.23l0-.06a6.66,6.66,0,0,1,.56-1,5.63,5.63,0,0,1,.79-.94l.29-.25.1-.08.05,0a4.39,4.39,0,0,1,1.79-.8l.15,0a4.77,4.77,0,0,1,.66-.05,4.82,4.82,0,0,1,.65,0,4.7,4.7,0,0,1,1.17.34l.12,0,0,0,.1,0a6,6,0,0,1,1.93,1.55,8,8,0,0,1,.75,1.06l.06.1,0,.07a.37.37,0,0,1,0,.15s0,.07,0,.09a.42.42,0,0,1-.19.22.16.16,0,0,1-.09,0h-.06a.28.28,0,0,1-.13,0,.38.38,0,0,1-.17-.14c-.08-.13-.13-.23-.21-.35a6.89,6.89,0,0,0-1-1.29l0,0a5.91,5.91,0,0,0-1.05-.74,4.52,4.52,0,0,0-1-.4,4.32,4.32,0,0,0-1-.1h0a4.11,4.11,0,0,0-.93.15,4.37,4.37,0,0,0-.91.42,4.22,4.22,0,0,0-.84.7,5.78,5.78,0,0,0-.76,1.08c-.07.13-.13.26-.19.39s-.1.22-.15.35l0,.06c0,.13-.09.26-.13.4l0,.05a2.86,2.86,0,0,0-.07.28l0,.06,0,.1,0,.17a1,1,0,0,1,0,.13.48.48,0,0,1-.09.11.4.4,0,0,1-.26.08"/><path class="cls-4" d="M216,308a.24.24,0,0,0-.16.05,3.84,3.84,0,0,0-.44.48,3.36,3.36,0,0,0-.34.54,2.76,2.76,0,0,0-.33,1.19,2.57,2.57,0,0,0,1.14,2.23l0,0a.28.28,0,0,0,.16.05H364.62a.28.28,0,0,0,.16-.05,2.67,2.67,0,0,0,.55-.5,2.32,2.32,0,0,0,.31-.54,2.94,2.94,0,0,0,0-2.44,2.16,2.16,0,0,0-.84-1,.22.22,0,0,0-.13,0,.27.27,0,0,0-.12,0H216"/><rect class="cls-4" x="181.95" y="315.67" width="235.24" height="42.15" rx="21.08"/><path class="cls-21" d="M210.57,343.32a9.22,9.22,0,0,1-4.36.93,7,7,0,0,1-5.4-2.17,8,8,0,0,1-2-5.69,8.37,8.37,0,0,1,2.28-6.12,7.72,7.72,0,0,1,5.78-2.34,9.36,9.36,0,0,1,3.72.65v2a7.55,7.55,0,0,0-3.74-.94,5.72,5.72,0,0,0-4.41,1.81,6.83,6.83,0,0,0-1.69,4.86,6.47,6.47,0,0,0,1.58,4.59,5.34,5.34,0,0,0,4.14,1.72,7.82,7.82,0,0,0,4.12-1.06Z"/><path class="cls-21" d="M222.66,344h-1.81V342.2h0a3.71,3.71,0,0,1-3.48,2.05q-4,0-4-4.8v-6.74h1.79v6.45q0,3.57,2.73,3.57a2.78,2.78,0,0,0,2.18-1,3.68,3.68,0,0,0,.85-2.54v-6.5h1.81Z"/><path class="cls-21" d="M225.62,343.58v-1.94a5.3,5.3,0,0,0,3.25,1.09q2.37,0,2.37-1.59a1.33,1.33,0,0,0-.2-.76,2,2,0,0,0-.55-.56,4.38,4.38,0,0,0-.81-.43l-1-.4a14.08,14.08,0,0,1-1.32-.6,3.88,3.88,0,0,1-.94-.69,2.47,2.47,0,0,1-.58-.86,3,3,0,0,1-.19-1.14,2.73,2.73,0,0,1,.36-1.4,3.26,3.26,0,0,1,1-1,4.32,4.32,0,0,1,1.38-.62,6.18,6.18,0,0,1,1.61-.21,6.62,6.62,0,0,1,2.62.5v1.83a5.15,5.15,0,0,0-2.87-.81,3.24,3.24,0,0,0-.91.11,2.39,2.39,0,0,0-.7.33,1.53,1.53,0,0,0-.45.5,1.27,1.27,0,0,0-.16.64,1.53,1.53,0,0,0,.16.74,1.67,1.67,0,0,0,.47.53,3.71,3.71,0,0,0,.75.42c.29.12.62.26,1,.4a13.34,13.34,0,0,1,1.34.59,4.34,4.34,0,0,1,1,.68,2.76,2.76,0,0,1,.65.88,3.17,3.17,0,0,1-.14,2.63,3.35,3.35,0,0,1-1,1,4.44,4.44,0,0,1-1.42.6,7.18,7.18,0,0,1-1.69.2A6.49,6.49,0,0,1,225.62,343.58Z"/><path class="cls-21" d="M241.1,343.87a3.45,3.45,0,0,1-1.69.36q-3,0-3-3.31v-6.67h-1.94v-1.54h1.94V330l1.81-.59v3.34h2.84v1.54h-2.84v6.35a2.68,2.68,0,0,0,.38,1.62,1.53,1.53,0,0,0,1.28.49,1.92,1.92,0,0,0,1.18-.38Z"/><path class="cls-21" d="M248.05,344.25a5.26,5.26,0,0,1-4-1.58,5.87,5.87,0,0,1-1.49-4.19,6.1,6.1,0,0,1,1.56-4.44,5.58,5.58,0,0,1,4.19-1.59,5.06,5.06,0,0,1,3.94,1.55,6.16,6.16,0,0,1,1.41,4.3,6.07,6.07,0,0,1-1.52,4.32A5.33,5.33,0,0,1,248.05,344.25Zm.13-10.28a3.45,3.45,0,0,0-2.76,1.18,4.89,4.89,0,0,0-1,3.26,4.56,4.56,0,0,0,1,3.16,3.47,3.47,0,0,0,2.74,1.16,3.33,3.33,0,0,0,2.69-1.13,4.94,4.94,0,0,0,.94-3.23,5,5,0,0,0-.94-3.26A3.3,3.3,0,0,0,248.18,334Z"/><path class="cls-21" d="M272.55,344h-1.8v-6.47a4.93,4.93,0,0,0-.58-2.71,2.21,2.21,0,0,0-1.94-.83,2.42,2.42,0,0,0-2,1,4.05,4.05,0,0,0-.81,2.53V344h-1.8v-6.69c0-2.22-.86-3.32-2.57-3.32a2.39,2.39,0,0,0-2,1,4.15,4.15,0,0,0-.77,2.59V344h-1.81V332.71h1.81v1.78h0a3.85,3.85,0,0,1,3.51-2,3.25,3.25,0,0,1,3.19,2.33,4,4,0,0,1,3.74-2.33q3.72,0,3.72,4.59Z"/><path class="cls-21" d="M285,338.8h-8a4.23,4.23,0,0,0,1,2.91,3.48,3.48,0,0,0,2.66,1,5.51,5.51,0,0,0,3.5-1.26v1.7a6.53,6.53,0,0,1-3.93,1.08,4.74,4.74,0,0,1-3.75-1.54,6.27,6.27,0,0,1-1.37-4.32,6.17,6.17,0,0,1,1.5-4.29,4.78,4.78,0,0,1,3.7-1.65,4.23,4.23,0,0,1,3.43,1.43,6,6,0,0,1,1.21,4Zm-1.85-1.53a3.66,3.66,0,0,0-.76-2.43,2.55,2.55,0,0,0-2.06-.87,2.91,2.91,0,0,0-2.17.91,4.13,4.13,0,0,0-1.1,2.39Z"/><path class="cls-21" d="M293.64,334.54a2.23,2.23,0,0,0-1.37-.37,2.32,2.32,0,0,0-1.93,1.09,5,5,0,0,0-.78,3V344h-1.8V332.71h1.8V335h.05a3.85,3.85,0,0,1,1.18-1.85,2.63,2.63,0,0,1,1.77-.67,2.79,2.79,0,0,1,1.08.16Z"/><path class="cls-21" d="M312.76,343.32a9.22,9.22,0,0,1-4.36.93,7,7,0,0,1-5.4-2.17,8,8,0,0,1-2-5.69,8.37,8.37,0,0,1,2.28-6.12,7.72,7.72,0,0,1,5.78-2.34,9.29,9.29,0,0,1,3.72.65v2a7.55,7.55,0,0,0-3.74-.94,5.72,5.72,0,0,0-4.41,1.81,6.83,6.83,0,0,0-1.69,4.86,6.47,6.47,0,0,0,1.58,4.59,5.34,5.34,0,0,0,4.14,1.72,7.82,7.82,0,0,0,4.12-1.06Z"/><path class="cls-21" d="M320.44,344.25a5.26,5.26,0,0,1-4-1.58,5.87,5.87,0,0,1-1.49-4.19,6.14,6.14,0,0,1,1.55-4.44,5.62,5.62,0,0,1,4.2-1.59,5,5,0,0,1,3.93,1.55,6.11,6.11,0,0,1,1.42,4.3,6,6,0,0,1-1.53,4.32A5.31,5.31,0,0,1,320.44,344.25Zm.14-10.28a3.45,3.45,0,0,0-2.76,1.18,4.89,4.89,0,0,0-1,3.26,4.6,4.6,0,0,0,1,3.16,3.51,3.51,0,0,0,2.75,1.16,3.33,3.33,0,0,0,2.69-1.13,4.94,4.94,0,0,0,.94-3.23,5,5,0,0,0-.94-3.26A3.3,3.3,0,0,0,320.58,334Z"/><path class="cls-21" d="M345,344h-1.8v-6.47a4.93,4.93,0,0,0-.58-2.71,2.21,2.21,0,0,0-1.95-.83,2.4,2.4,0,0,0-2,1,4.05,4.05,0,0,0-.81,2.53V344H336v-6.69c0-2.22-.85-3.32-2.56-3.32a2.38,2.38,0,0,0-2,1,4.15,4.15,0,0,0-.77,2.59V344h-1.81V332.71h1.81v1.78h0a3.84,3.84,0,0,1,3.5-2,3.25,3.25,0,0,1,2,.64,3.29,3.29,0,0,1,1.18,1.69,4,4,0,0,1,3.74-2.33q3.72,0,3.72,4.59Z"/><path class="cls-21" d="M350.21,342.36h0v6.81h-1.81V332.71h1.81v2h0a4.28,4.28,0,0,1,3.9-2.24,4.1,4.1,0,0,1,3.4,1.51,6.24,6.24,0,0,1,1.23,4.06,7,7,0,0,1-1.38,4.53,4.6,4.6,0,0,1-3.77,1.7A3.78,3.78,0,0,1,350.21,342.36Zm0-4.55v1.57a3.32,3.32,0,0,0,.91,2.37,3.23,3.23,0,0,0,4.88-.28,5.75,5.75,0,0,0,.93-3.49,4.57,4.57,0,0,0-.87-3,2.89,2.89,0,0,0-2.36-1.06,3.19,3.19,0,0,0-2.53,1.09A4,4,0,0,0,350.17,337.81Z"/><path class="cls-21" d="M363.43,344h-1.81V327.29h1.81Z"/><path class="cls-21" d="M375.15,344h-1.81v-1.76h0a3.78,3.78,0,0,1-3.47,2,3.71,3.71,0,0,1-2.63-.89,3.1,3.1,0,0,1-1-2.37c0-2.11,1.24-3.33,3.72-3.68l3.38-.47c0-1.92-.77-2.87-2.32-2.87a5.58,5.58,0,0,0-3.68,1.38V333.5a7,7,0,0,1,3.84-1.05q4,0,4,4.2Zm-1.81-5.7-2.71.38a4.32,4.32,0,0,0-1.9.62,1.81,1.81,0,0,0-.64,1.58,1.74,1.74,0,0,0,.59,1.35,2.29,2.29,0,0,0,1.57.52,2.88,2.88,0,0,0,2.22-.94,3.38,3.38,0,0,0,.87-2.39Z"/><path class="cls-21" d="M379.48,329.85a1.16,1.16,0,0,1-.83-.33,1.21,1.21,0,0,1,0-1.68,1.2,1.2,0,0,1,1.67,0,1.12,1.12,0,0,1,.35.84,1.14,1.14,0,0,1-.35.83A1.18,1.18,0,0,1,379.48,329.85Zm.88,14.13h-1.81V332.71h1.81Z"/><path class="cls-21" d="M393.37,344h-1.8v-6.43c0-2.39-.88-3.58-2.62-3.58a2.89,2.89,0,0,0-2.25,1,3.78,3.78,0,0,0-.88,2.57V344H384V332.71h1.81v1.87h0a4.08,4.08,0,0,1,3.7-2.13,3.44,3.44,0,0,1,2.83,1.19,5.35,5.35,0,0,1,1,3.45Z"/><path class="cls-21" d="M402,343.87a3.38,3.38,0,0,1-1.68.36c-2,0-3-1.1-3-3.31v-6.67h-1.94v-1.54h1.94V330l1.8-.59v3.34H402v1.54h-2.84v6.35a2.6,2.6,0,0,0,.39,1.62,1.51,1.51,0,0,0,1.28.49,1.89,1.89,0,0,0,1.17-.38Z"/></g></g></svg>