<svg xmlns="http://www.w3.org/2000/svg" viewBox="0 0 613.53 396.79"><defs><style>.cls-1{fill:#fff;}.cls-2{fill:#1a2e35;}.cls-3{fill:#e1e1e1;}.cls-4{fill:#f5f5f5;}.cls-5{fill:#44576a;}.cls-6{fill:#ffbf9d;}.cls-7{fill:#ff9a6c;}.cls-8{opacity:0.3;}.cls-9{fill:#fafafa;}.cls-10{fill:#375a64;}.cls-11{fill:#c78976;}.cls-12{fill:#8a503f;}.cls-13{opacity:0.6;}.cls-14{fill:#38526a;}</style></defs><g id="Capa_2" data-name="Capa 2"><g id="Capa_1-2" data-name="Capa 1"><rect class="cls-1" width="613.53" height="396.23"/><path class="cls-2" d="M540.5,396.51c0,.15-103.13.28-230.32.28s-230.34-.13-230.34-.28,103.11-.27,230.34-.27S540.5,396.36,540.5,396.51Z"/><rect class="cls-3" x="384.53" y="83.74" width="53.09" height="76.96"/><rect class="cls-4" x="381.87" y="83.74" width="53.09" height="76.96"/><rect class="cls-1" x="388.47" y="92.08" width="39.9" height="60.29"/><path class="cls-3" d="M428.37,152.36s0-.1,0-.29v-.86c0-.75,0-1.86,0-3.3,0-2.89,0-7.1,0-12.42,0-10.63,0-25.69-.06-43.41l.13.13h-39.9l.14-.14c0,22.74,0,43.71,0,60.28l-.11-.11,29,.06,8,0h2.83l-.7,0h-2.09l-8,0-29.11.06h-.12v-.12c0-16.57,0-37.54,0-60.28v-.15H428.5v.14c0,17.76-.05,32.84-.06,43.49,0,5.31,0,9.51,0,12.39,0,1.43,0,2.53,0,3.28,0,.37,0,.65,0,.84S428.37,152.36,428.37,152.36Z"/><path class="cls-3" d="M435.12,83.74a9.67,9.67,0,0,1-.95,1.38c-.62.82-1.49,1.94-2.49,3.15s-1.93,2.29-2.63,3.06a10.12,10.12,0,0,1-1.16,1.19,9.68,9.68,0,0,1,1-1.33l2.56-3.1L434,85A10,10,0,0,1,435.12,83.74Z"/><path class="cls-1" d="M428.57,152.17a50,50,0,0,0,7,8.7"/><path class="cls-3" d="M435.53,160.87a7.71,7.71,0,0,1-1.21-1.1,39.47,39.47,0,0,1-2.63-3c-1-1.21-1.76-2.36-2.31-3.21a8.67,8.67,0,0,1-.81-1.43,10,10,0,0,1,1,1.31c.59.82,1.41,2,2.37,3.15s1.88,2.25,2.55,3A10.9,10.9,0,0,1,435.53,160.87Z"/><path class="cls-1" d="M381.86,160.64l7-8.58"/><path class="cls-3" d="M388.82,152.06a54.66,54.66,0,0,1-3.37,4.38,50.86,50.86,0,0,1-3.59,4.2,54.66,54.66,0,0,1,3.37-4.38A53.25,53.25,0,0,1,388.82,152.06Z"/><path class="cls-3" d="M381.87,83.74a45.66,45.66,0,0,1,3.38,4A48,48,0,0,1,388.4,92,45.66,45.66,0,0,1,385,88,48,48,0,0,1,381.87,83.74Z"/><rect class="cls-3" x="402.58" y="104.32" width="13.36" height="37.93"/><path class="cls-4" d="M332,299.09c-4.87,1.42-8.8,5.25-11.11,9.77a33.25,33.25,0,0,0-3.19,14.74c-.13,9.81,4.12,20.27,9.06,28.75,9.05-6.07,12.5-18.23,13.86-24.51,2.15-9.93,0-29.17-8.62-28.75"/><path class="cls-4" d="M315.27,367.11c2-5.3.49-11.59-3.23-15.86a21.44,21.44,0,0,0-15-6.89c-2.62-.13-5.51.27-7.27,2.22a6.86,6.86,0,0,0-1,6.91,13.94,13.94,0,0,0,4.48,5.71c6.5,5.32,13.76,9.29,22,7.91"/><path class="cls-3" d="M322.06,390.7c.14,0,.11-2.48-.29-6.48a29.94,29.94,0,0,0-1.61-6.9,65.57,65.57,0,0,0-3.25-8,32.33,32.33,0,0,0-10.08-12,23.3,23.3,0,0,0-4.2-2.29,5.11,5.11,0,0,0-1.68-.49c-.08.18,2.27,1,5.42,3.41a34.63,34.63,0,0,1,9.56,11.88,76.35,76.35,0,0,1,3.27,7.86,33,33,0,0,1,1.8,6.67C321.59,388.25,321.89,390.72,322.06,390.7Z"/><path class="cls-3" d="M332.34,313.89a19.66,19.66,0,0,0-.73,3.2c-.41,2.07-.95,5.07-1.59,8.79-1.27,7.43-2.92,17.73-4.46,29.14s-2.64,21.78-3.28,29.3c-.32,3.76-.54,6.8-.65,8.91a17.82,17.82,0,0,0-.07,3.28,18.14,18.14,0,0,0,.5-3.24c.25-2.29.59-5.28,1-8.87.83-7.5,2.05-17.84,3.59-29.24s3.05-21.51,4.14-29.16c.5-3.58.92-6.56,1.24-8.84A18.29,18.29,0,0,0,332.34,313.89Z"/><path class="cls-4" d="M327.09,372.39a37.7,37.7,0,0,1,27.09-21.29c3-.55,6.67-.44,8.32,2.12s.2,6-1.61,8.42a32.21,32.21,0,0,1-33.82,11.57"/><path class="cls-3" d="M350,359a5.3,5.3,0,0,0-1.69.36c-1.07.29-2.59.81-4.45,1.5a42.51,42.51,0,0,0-13.36,7.88,26.67,26.67,0,0,0-5.31,6.78,25.67,25.67,0,0,0-2.43,6.59,26,26,0,0,0-.59,4.68,4.94,4.94,0,0,0,.06,1.73c.22,0,.3-2.45,1.28-6.22a28,28,0,0,1,2.56-6.29,27.33,27.33,0,0,1,5.18-6.47c4.37-4,9.36-6.33,12.91-8S350.09,359.16,350,359Z"/><path class="cls-4" d="M533.8,113.54s-11.1-3.28-15.59,22.25-4.85,39.55-4.85,39.55-1.56,5.54-5.66,3.49-11.08-9.29-16-6.09c-5.11,3.31-5,10.13-1.16,19s11.68,28.57,12.37,30.36.47,4.71-2.55,3.76-22.26-12.53-27.21-3.07,9.91,32.36,11.49,34.89,1.4,3.88.3,5-7.2-3.42-12.81-6.49-12.65-5.65-15.05.05,2.16,24.9,29.45,50L499.93,317l16.23-6c34-14.9,44.49-31.6,44.06-37.76s-7.92-6-14.22-4.93-13.53,3.37-14.22,2-.43-2.71,1.89-4.6,23.8-18.73,22.18-29.28-23.58-5.84-26.74-5.92-2.41-2.95-1.2-4.38,15-17.6,21.55-24.72,8.81-13.55,5-18.34c-3.62-4.62-12.57,0-17.12.58s-4.22-5.13-4.22-5.13,4.2-13.4,8.23-39-7.83-26-7.83-26"/><path class="cls-3" d="M529.74,136.39s0,.18-.06.54-.12.9-.22,1.58c-.21,1.41-.51,3.45-.9,6.06-.79,5.26-2,12.87-3.5,22.26-3,18.79-7.42,44.71-12.38,73.32s-9.42,54.53-12.54,73.3c-1.56,9.37-2.81,17-3.69,22.23-.43,2.61-.77,4.64-1,6.05-.12.67-.21,1.19-.27,1.57s-.12.53-.12.53,0-.19.06-.54.12-.91.22-1.58c.21-1.41.51-3.45.9-6.06.79-5.26,2-12.87,3.5-22.26,3-18.79,7.42-44.72,12.38-73.34s9.42-54.51,12.54-73.28c1.56-9.37,2.81-17,3.69-22.24.43-2.6.77-4.63,1-6,.12-.67.21-1.19.27-1.57S529.74,136.39,529.74,136.39Z"/><path class="cls-3" d="M501,183.26a4.75,4.75,0,0,1,.77,1c.46.65,1.1,1.61,1.89,2.81,1.55,2.4,3.61,5.78,5.82,9.54l5.6,9.66,1.71,2.92a5.19,5.19,0,0,1,.58,1.1,4.51,4.51,0,0,1-.77-1c-.46-.65-1.11-1.61-1.87-2.82-1.54-2.42-3.55-5.82-5.76-9.58s-4.14-7-5.67-9.62l-1.72-2.91A5.74,5.74,0,0,1,501,183.26Z"/><path class="cls-3" d="M519,210.11c-.09-.13,6.68-4.69,15.11-10.18s15.34-9.83,15.42-9.7-6.67,4.7-15.1,10.19S519.1,210.25,519,210.11Z"/><path class="cls-3" d="M509.42,253.71a5.64,5.64,0,0,1,1.2-.44l3.3-1c2.79-.86,6.64-2.05,10.84-3.51s8-2.91,10.67-4l3.22-1.26a5.2,5.2,0,0,1,1.21-.4,5.8,5.8,0,0,1-1.12.61c-.74.36-1.81.85-3.15,1.43-2.68,1.17-6.42,2.69-10.64,4.15s-8.09,2.6-10.91,3.35c-1.42.37-2.56.66-3.36.83A5.23,5.23,0,0,1,509.42,253.71Z"/><path class="cls-3" d="M487.82,233a4.63,4.63,0,0,1,.94.72c.57.49,1.39,1.21,2.39,2.11,2,1.8,4.75,4.32,7.76,7.13s5.71,5.38,7.64,7.26c1,.94,1.75,1.71,2.27,2.25a4.41,4.41,0,0,1,.78.88,4.14,4.14,0,0,1-.93-.71c-.58-.49-1.4-1.21-2.4-2.12-2-1.8-4.75-4.32-7.76-7.13s-5.7-5.38-7.64-7.26c-1-.94-1.74-1.7-2.27-2.25A5.46,5.46,0,0,1,487.82,233Z"/><path class="cls-3" d="M474.47,270.42a6.85,6.85,0,0,1,1.18.93c.82.71,1.85,1.61,3.08,2.7,2.58,2.29,6.13,5.5,10,9.06s7.39,6.82,9.9,9.19l3,2.84a7.6,7.6,0,0,1,1,1.09,7.09,7.09,0,0,1-1.19-.93l-3.08-2.69c-2.58-2.3-6.12-5.51-10-9.07s-7.39-6.82-9.9-9.19l-2.95-2.84A6.91,6.91,0,0,1,474.47,270.42Z"/><path class="cls-3" d="M502.13,295.43a7.66,7.66,0,0,1,1.5-.59l4.14-1.43c3.5-1.21,8.33-2.89,13.6-4.89s10-3.93,13.44-5.35l4.05-1.68a8.06,8.06,0,0,1,1.51-.55,7.69,7.69,0,0,1-1.42.76c-.93.46-2.29,1.09-4,1.85-3.38,1.52-8.1,3.51-13.39,5.51s-10.14,3.63-13.68,4.74c-1.77.55-3.21,1-4.21,1.25A8.4,8.4,0,0,1,502.13,295.43Z"/><path class="cls-4" d="M161.39,339.66c24.45-13.94,32.39-43.25,33.93-70.11.26-4.49,1.18-9.15-.58-13.27s-6.49-7.25-10.66-5.74c-3.46,1.26-5.26,5-7.41,8a26.26,26.26,0,0,1-11.4,9.06c-3,1.21-6.59,1.79-9.26,0-3.66-2.48-3.62-7.85-3.19-12.3l2.43-24.84c.44-4.44.87-9-.13-13.32s-3.69-8.55-7.81-10.12-9.57.39-10.87,4.66c-.53,1.77-.34,3.69-.63,5.52s-1.34,3.8-3.14,4.15-3.48-1.06-4.69-2.49c-4.18-4.91-6.76-11-9.15-17s-4.67-12.16-8.38-17.44S101.33,174.75,95,173.8s-13.48,2.37-15.66,8.47.89,12.81,4.4,18.25a99.7,99.7,0,0,0,18.86,21.59c1.31,1.12,2.73,2.33,3.11,4,.7,3.05-2.38,5.74-5.4,6.44-3.41.8-7,.13-10.48.22s-7.4,1.28-9,4.43c-2.24,4.38,1.13,9.49,4.58,13A85.36,85.36,0,0,0,109.23,267c3.16,1.49,6.5,2.86,8.93,5.4s3.65,6.68,1.77,9.66-6.06,3.62-9.43,2.67-6.26-3.09-9.41-4.62c-5.9-2.86-13.83-3.17-18.23,1.75-2.89,3.24-3.55,8.05-2.63,12.31s3.23,8.06,5.73,11.6c8.74,12.39,20.43,22.78,34.15,29s26.73,8.74,41.28,4.88"/><path class="cls-3" d="M159.93,359.55A196.24,196.24,0,0,0,156,322.24a400.13,400.13,0,0,0-11.88-44.33c-1.26-3.87-2.49-7.7-3.71-11.46S138,259,136.57,255.39a200.62,200.62,0,0,0-9.31-20.07c-3.27-6.24-6.6-12-9.75-17.44s-6.21-10.37-9.18-14.78a159.19,159.19,0,0,0-15.55-19.78c-2-2.18-3.63-3.82-4.74-4.92l-1.27-1.24a3.94,3.94,0,0,0-.45-.4,2.84,2.84,0,0,0,.39.46c.3.32.71.75,1.21,1.3,1.08,1.13,2.65,2.81,4.63,5a168.74,168.74,0,0,1,15.3,19.89c2.93,4.42,5.94,9.4,9.07,14.8s6.43,11.22,9.67,17.45a199.2,199.2,0,0,1,9.23,20c1.4,3.55,2.6,7.25,3.83,11l3.71,11.45a411.41,411.41,0,0,1,11.92,44.23,199.41,199.41,0,0,1,4.07,37.16"/><path class="cls-3" d="M136.34,255.33a9.67,9.67,0,0,0,.61-1.85c.34-1.21.78-3,1.3-5.16,1-4.37,2.26-10.45,3.58-17.16s2.63-12.76,3.72-17.1c.55-2.17,1-3.93,1.33-5.13a9.06,9.06,0,0,0,.43-1.91,9.27,9.27,0,0,0-.73,1.81c-.43,1.18-1,2.92-1.59,5.08-1.24,4.32-2.64,10.37-4,17.09s-2.45,12.62-3.34,17.2c-.41,2.06-.76,3.8-1.05,5.2A8.49,8.49,0,0,0,136.34,255.33Z"/><path class="cls-3" d="M80.16,239.41a11.86,11.86,0,0,0,2.26.49c1.45.26,3.56.63,6.14,1.18,5.19,1,12.3,2.73,20.06,4.95s14.7,4.54,19.66,6.36c2.5.89,4.49,1.66,5.88,2.19a12.56,12.56,0,0,0,2.18.75,13,13,0,0,0-2.06-1.05c-1.35-.62-3.32-1.48-5.79-2.45-4.93-2-11.86-4.37-19.65-6.6a201.59,201.59,0,0,0-20.17-4.73c-2.61-.47-4.73-.76-6.21-.92A13.46,13.46,0,0,0,80.16,239.41Z"/><path class="cls-3" d="M155.41,321.13a3.14,3.14,0,0,0,.46-.67l1.17-2c1-1.73,2.39-4.26,4.07-7.4,3.36-6.3,7.72-15.14,12.4-25s9-18.7,12.19-25.05l3.83-7.52,1-2.05a3.11,3.11,0,0,0,.31-.74s-.18.21-.46.66l-1.16,2c-1,1.73-2.4,4.26-4.08,7.41-3.35,6.29-7.72,15.13-12.4,25s-9,18.69-12.18,25l-3.84,7.52c-.42.82-.76,1.5-1,2.05A3.47,3.47,0,0,0,155.41,321.13Z"/><path class="cls-3" d="M81.71,289.69a2.82,2.82,0,0,0,.72.38l2.14.94,7.89,3.38c6.67,2.86,15.82,6.91,25.94,11.4s19.31,8.46,26,11.18c3.36,1.36,6.09,2.43,8,3.13l2.2.8a3.18,3.18,0,0,0,.78.23,3,3,0,0,0-.72-.39l-2.14-.93-7.89-3.39c-6.66-2.85-15.82-6.9-25.94-11.39s-19.31-8.46-26-11.18c-3.37-1.36-6.1-2.44-8-3.14l-2.2-.8A2.83,2.83,0,0,0,81.71,289.69Z"/><polygon class="cls-3" points="236.56 20.31 236.56 107.69 111.06 107.69 106.53 20.92 236.56 20.31"/><rect class="cls-1" x="125.99" y="1.46" width="86.59" height="125.5" transform="translate(105.07 233.5) rotate(-90)"/><path class="cls-3" d="M232.63,108.1H105.94V20.33H232.63Zm-125.5-1.19H231.44V21.52H107.13Z"/><rect class="cls-1" x="120.13" y="31.68" width="98.32" height="65.07"/><path class="cls-3" d="M218.44,31.68l-.48,0h-1.4l-5.4,0-20.26.07L120.13,32l.28-.28c0,19.88,0,41.91,0,65.06h0l-.31-.31,98.31.06-.24.25c.05-19.8.1-36,.13-47.35,0-5.65,0-10.06.06-13.09,0-1.49,0-2.64,0-3.44s0-1.19,0-1.19,0,.38,0,1.14,0,1.92,0,3.39c0,3,0,7.41.06,13,0,11.34.08,27.63.13,47.5V97h-.25l-98.31.06h-.31v-.31h0c0-23.15,0-45.18,0-65.06v-.29h.29l71,.14,20.19.08,5.35,0,1.36,0Z"/><path class="cls-3" d="M106.54,20.68a10.41,10.41,0,0,1,2.15,1.4c1.29.92,3,2.24,4.92,3.75s3.55,2.94,4.72,4a10.56,10.56,0,0,1,1.8,1.84c-.12.13-3.14-2.36-6.9-5.37S106.42,20.82,106.54,20.68Z"/><path class="cls-3" d="M232,20.92c.1.14-2.85,2.65-6.61,5.62s-6.88,5.27-7,5.14,2.85-2.65,6.61-5.62S231.93,20.79,232,20.92Z"/><path class="cls-1" d="M231.94,107.52,218,96.18"/><path class="cls-3" d="M218,96.18c.1-.14,3.32,2.3,7.19,5.43s6.91,5.78,6.8,5.91-3.33-2.3-7.19-5.43S217.84,96.31,218,96.18Z"/><path class="cls-3" d="M106.54,107.51c-.11-.14,2.81-2.63,6.53-5.57s6.81-5.21,6.92-5.07-2.82,2.62-6.54,5.56A60.73,60.73,0,0,1,106.54,107.51Z"/><rect class="cls-3" x="160.13" y="31.91" width="21.79" height="61.86" transform="translate(108.18 233.87) rotate(-90)"/><rect class="cls-3" x="459.26" width="67.1" height="97.26"/><rect class="cls-4" x="455.9" width="67.1" height="97.26"/><rect class="cls-1" x="464.23" y="10.54" width="50.43" height="76.19"/><path class="cls-3" d="M514.66,86.73s0-.13,0-.37V85.28c0-1,0-2.36,0-4.18,0-3.65,0-9,0-15.7,0-13.43-.05-32.46-.09-54.86l.17.16-50.42,0h0l.18-.18c0,28.74,0,55.24,0,76.19l-.15-.15,36.71.08,10.14,0h2.66l.92,0-.89,0h-2.63L501,86.8l-36.8.08h-.14v-.15c0-21,0-47.45,0-76.19v-.19h.19l50.42,0h.17v.17c0,22.45-.06,41.51-.08,55,0,6.71,0,12,0,15.66,0,1.81,0,3.2,0,4.15v1.06C514.67,86.61,514.66,86.73,514.66,86.73Z"/><path class="cls-3" d="M523.19,0A11.58,11.58,0,0,1,522,1.74c-.78,1-1.89,2.46-3.15,4s-2.44,2.89-3.31,3.86a12.66,12.66,0,0,1-1.48,1.51,12.23,12.23,0,0,1,1.28-1.68l3.23-3.92,3.23-3.92A12.78,12.78,0,0,1,523.19,0Z"/><path class="cls-1" d="M514.92,86.48a61.8,61.8,0,0,0,8.79,11"/><path class="cls-3" d="M523.71,97.48a9.48,9.48,0,0,1-1.53-1.39,49.85,49.85,0,0,1-3.32-3.74,49.29,49.29,0,0,1-2.92-4.06,9.46,9.46,0,0,1-1-1.81,15.38,15.38,0,0,1,1.24,1.66c.73,1,1.77,2.46,3,4s2.37,2.84,3.22,3.79A14,14,0,0,1,523.71,97.48Z"/><path class="cls-1" d="M455.89,97.19l8.78-10.85"/><path class="cls-3" d="M464.67,86.34a63,63,0,0,1-4.25,5.54c-2.43,3-4.46,5.37-4.53,5.31a64.78,64.78,0,0,1,4.25-5.54C462.57,88.66,464.6,86.28,464.67,86.34Z"/><path class="cls-3" d="M455.9,0a64.67,64.67,0,0,1,4.26,5.1,60,60,0,0,1,4,5.33,61,61,0,0,1-4.27-5.1A61,61,0,0,1,455.9,0Z"/><rect class="cls-3" x="482.06" y="26.01" width="16.89" height="47.94"/><path class="cls-2" d="M411.1,213.31a18.27,18.27,0,0,1-5.46,17.89c-3.22,2.86-7.43,4.51-10.37,7.66a16.07,16.07,0,0,0-3.22,15.54,20.49,20.49,0,0,0,10.83,12,24,24,0,0,0,21.8-.74c8.19-4.63,12.95-13.91,14.16-23.23s-.69-18.77-3.15-27.85"/><path class="cls-2" d="M514.32,377.78c8.47-1.39,16.41,1.2,24.79,3.05a15,15,0,0,0,6.87.37c3.63-.93,6.22-4.46,6.78-8.17a13.39,13.39,0,0,0-2.14-9.28,8.87,8.87,0,0,0-2.9-2.88,10,10,0,0,0-4.05-1.1,28.92,28.92,0,0,0-14.94,2.81,44.54,44.54,0,0,0-12.39,9c-1.77,1.77-1.24,3.82-2,6.21"/><path class="cls-2" d="M342.56,241.08a65.75,65.75,0,0,1,.49-24.3,32,32,0,0,1,4.19-11.07,7.15,7.15,0,0,1,3.1-2.92,5.44,5.44,0,0,1,5.52,1.3,9.3,9.3,0,0,1,2.62,7.11,22.8,22.8,0,0,1-1.89,7.54c-3.28,8.37-8.44,15.31-14,22.34"/><path class="cls-5" d="M506.69,271.68c1.93,1.37,44.52,93.05,44.52,93.05h0a18,18,0,0,0-10.85-1.07l-2.31.62a38.55,38.55,0,0,0-11.6,5.28l-12.13,8.22h0a3.45,3.45,0,0,1-1.73-2.68l0-.35-33-56.64Z"/><path class="cls-6" d="M346.93,125.77l11.35,64.51c3.65,8.68,46.25,61.28,46.25,61.28l-14.09,45.25L334.5,220.32a29.22,29.22,0,0,1-7.87-20.52l2.18-68.92Z"/><path class="cls-5" d="M407.33,241.45l29.21,2.21,25.47,4s44.68,11.74,44.68,16.64c0,1.62-12.21,40.47-19,63.74a163.27,163.27,0,0,0-4.11,17.19l23.12,51.33H396.78V349.44s-7.38-61.75-6.11-70.18S407.33,241.45,407.33,241.45Z"/><path class="cls-7" d="M333.11,99.71a128.82,128.82,0,0,1,2-19.59c.16-.92.53-2,1.46-2.15,1.14-.15,1.72,1.31,1.87,2.46a69.17,69.17,0,0,1-1,23.4"/><path class="cls-5" d="M346.1,236.3c12.53-11.2,13-30.61,11.89-46.05a5,5,0,0,1,.49-3.31c1.19-1.71,4.1-1.08,5.27.65s1.1,4,1,6c.64-1.76,3.4-1.75,4.69-.39s1.51,3.39,1.66,5.26l.42,5.18,36.61,34.89s1-3.13,3.7-1.34,4.42,5.69,4.42,5.69l-25.8,56.32L342.56,241A19.44,19.44,0,0,1,346.1,236.3Z"/><path class="cls-5" d="M395.79,275.27a49,49,0,0,0-8.41,16.4,29.86,29.86,0,0,0,.55,18.23,25.29,25.29,0,0,0,19.4,15.67"/><path class="cls-6" d="M514.32,377.78l-1.39,18.73h27.14l6.36-33.09h0a34.2,34.2,0,0,0-22.94,7.19Z"/><path class="cls-2" d="M358.85,232.16a9,9,0,0,1,.6-1.49c.42-.93,1-2.31,1.64-4s1.33-3.79,2-6.12a73.93,73.93,0,0,0,1.61-7.71,71.4,71.4,0,0,0,.66-7.85c.05-2.42,0-4.61-.14-6.44s-.29-3.3-.43-4.32a8.16,8.16,0,0,1-.14-1.59,9.89,9.89,0,0,1,.36,1.56c.2,1,.41,2.49.6,4.32a59.71,59.71,0,0,1,.26,6.48,65.65,65.65,0,0,1-.63,7.92,66.64,66.64,0,0,1-1.66,7.76,56.09,56.09,0,0,1-2.1,6.13c-.7,1.71-1.32,3.07-1.81,4A8.53,8.53,0,0,1,358.85,232.16Z"/><path class="cls-2" d="M366.83,222.33a23.86,23.86,0,0,1,1.13-2.68,41.38,41.38,0,0,0,2.17-6.64,40.93,40.93,0,0,0,1-6.92,23.68,23.68,0,0,1,.17-2.91,11.47,11.47,0,0,1,.22,2.92,31.72,31.72,0,0,1-.82,7,32.24,32.24,0,0,1-2.34,6.68A10.58,10.58,0,0,1,366.83,222.33Z"/><path class="cls-2" d="M409.83,251.61c-.08-.05.36-.74.62-2a10.61,10.61,0,0,0-.28-4.91,34.92,34.92,0,0,0-1.84-4.68,7.73,7.73,0,0,1-.73-2,8,8,0,0,1,1.08,1.81,23.33,23.33,0,0,1,2,4.7,9.67,9.67,0,0,1,.13,5.15A3.71,3.71,0,0,1,409.83,251.61Z"/><path class="cls-2" d="M403.46,326.19a3.12,3.12,0,0,1-.46-.26l-1.25-.83c-1.08-.73-2.63-1.81-4.47-3.25a38.65,38.65,0,0,1-5.95-5.69,22.91,22.91,0,0,1-4.59-8.94,28.12,28.12,0,0,1-.61-10.06,40,40,0,0,1,1.81-8,52.7,52.7,0,0,1,2-5.15c.27-.6.49-1.06.64-1.36a1.76,1.76,0,0,1,.27-.46s-.24.69-.71,1.9-1.16,3-1.85,5.19a42,42,0,0,0-1.68,8,28.42,28.42,0,0,0,.64,9.86,22.7,22.7,0,0,0,4.46,8.76,39.41,39.41,0,0,0,5.79,5.7c1.8,1.48,3.32,2.6,4.36,3.39l1.19.91C403.34,326.05,403.48,326.17,403.46,326.19Z"/><path class="cls-2" d="M463.44,336.66s-.15.08-.46.17-.77.24-1.38.36a27.26,27.26,0,0,1-5.19.62,29.15,29.15,0,0,1-27.6-17.46,26.77,26.77,0,0,1-1.66-5c-.15-.6-.2-1.08-.26-1.4a1.65,1.65,0,0,1-.05-.49s.19.65.52,1.83a31.07,31.07,0,0,0,1.81,4.85,29.52,29.52,0,0,0,27.24,17.23,32.07,32.07,0,0,0,5.15-.44A16.94,16.94,0,0,1,463.44,336.66Z"/><path class="cls-2" d="M480.29,357.24c-.15,0,1.25-5.89,3.13-13.07s3.51-13,3.66-12.93-1.25,5.88-3.13,13.07S480.44,357.27,480.29,357.24Z"/><path class="cls-2" d="M495.1,344.81c-.13.08-4.38-6.88-9.5-15.54s-9.16-15.74-9-15.82,4.38,6.88,9.5,15.54S495.23,344.73,495.1,344.81Z"/><path class="cls-2" d="M535.7,362c0,.11-1.54.24-4,.85a30.61,30.61,0,0,0-4.14,1.37,33.57,33.57,0,0,0-4.74,2.45,34,34,0,0,0-4.25,3.23,31.73,31.73,0,0,0-3,3.16c-1.58,1.92-2.37,3.26-2.46,3.21a4.64,4.64,0,0,1,.49-1,21.06,21.06,0,0,1,1.67-2.48,27.31,27.31,0,0,1,3-3.28,31.71,31.71,0,0,1,4.29-3.33,31.12,31.12,0,0,1,4.85-2.45,27.19,27.19,0,0,1,4.24-1.28,21.4,21.4,0,0,1,3-.45A4,4,0,0,1,535.7,362Z"/><path class="cls-2" d="M540.88,355.58c0,.11-1.7-.09-4.41.14a28.06,28.06,0,0,0-4.7.82,28.62,28.62,0,0,0-10.38,5.2,28,28,0,0,0-3.47,3.27c-1.81,2-2.66,3.52-2.76,3.46a5.45,5.45,0,0,1,.56-1.06,9.64,9.64,0,0,1,.77-1.17,15.41,15.41,0,0,1,1.13-1.48,25.36,25.36,0,0,1,3.45-3.41,29.22,29.22,0,0,1,5-3.24,29.83,29.83,0,0,1,5.58-2.06,26.4,26.4,0,0,1,4.8-.72,17,17,0,0,1,1.86,0,10.72,10.72,0,0,1,1.4.09A4.88,4.88,0,0,1,540.88,355.58Z"/><g class="cls-8"><path d="M428,315.76c-2.49,4.73-.41,10.49,1.87,15.32,1.76,3.74,3.73,7.55,6.94,10.17a14.86,14.86,0,0,0,21.55-3.05,33.42,33.42,0,0,1-30.87-21.84"/></g><g class="cls-8"><path d="M476.57,313.45c-1.9,4.54-.47,10.76,1.53,15.26s4.1,9.54,2.5,14.2a6.16,6.16,0,0,0-.62,2.66c.11.92,1.1,1.79,1.92,1.37a2.17,2.17,0,0,0,.85-1.31q2.26-6.79,4.52-13.59"/></g><path class="cls-9" d="M376.42,253.64a66.28,66.28,0,0,1,1.09-8.42,65,65,0,0,1,1.62-8.34,65.12,65.12,0,0,1-1.08,8.43A65.55,65.55,0,0,1,376.42,253.64Z"/><path class="cls-9" d="M365.26,251.3c-.13.09-1.95-2.45-4.47-5.37s-4.74-5.12-4.63-5.24a27.1,27.1,0,0,1,5,4.88A26.77,26.77,0,0,1,365.26,251.3Z"/><path class="cls-9" d="M374.84,224a8.66,8.66,0,0,1-1.2,1.9c-.8,1.13-2,2.65-3.34,4.26s-2.68,3-3.66,4a8.87,8.87,0,0,1-1.69,1.49c-.11-.11,2.21-2.62,4.93-5.83S374.71,223.94,374.84,224Z"/><path class="cls-9" d="M371.1,210.71c-.15.06-.75-1.29-1.93-2.63s-2.4-2.14-2.32-2.28a6.87,6.87,0,0,1,4.25,4.91Z"/><path class="cls-9" d="M361.45,218.92a7.5,7.5,0,0,1-2.75.71,7.38,7.38,0,0,1-2.84.17,14.76,14.76,0,0,1,5.59-.88Z"/><path class="cls-9" d="M385.81,230.68a28.77,28.77,0,0,0-.36-4.92,27.71,27.71,0,0,0-1.72-4.63,10.19,10.19,0,0,1,2.08,9.55Z"/><path class="cls-9" d="M398.82,244.68a44.66,44.66,0,0,0-3.41-4.3,43.38,43.38,0,0,0-4.27-3.44,13.32,13.32,0,0,1,7.68,7.74Z"/><path class="cls-9" d="M377.93,269a10,10,0,0,1-4.88.8,9.82,9.82,0,0,1-4.83-1.14c.06-.16,2.16.51,4.84.59S377.89,268.8,377.93,269Z"/><path class="cls-9" d="M387.74,274c-.15-.06.67-2.5,1.36-5.59s1-5.64,1.16-5.63A25.56,25.56,0,0,1,387.74,274Z"/><path class="cls-9" d="M409.15,274.81a38.49,38.49,0,0,1-4.62-4.66,40.08,40.08,0,0,1-4.22-5,40,40,0,0,1,4.62,4.67A39.62,39.62,0,0,1,409.15,274.81Z"/><path class="cls-9" d="M419.13,299.55a19.85,19.85,0,0,1-3.45-3.17,21.31,21.31,0,0,1-3.06-3.56,19.69,19.69,0,0,1,3.46,3.17A20.51,20.51,0,0,1,419.13,299.55Z"/><path class="cls-9" d="M400.59,301.91a21.4,21.4,0,0,1-9.13,5.3c0-.15,2.11-1.09,4.62-2.56S400.49,301.78,400.59,301.91Z"/><path class="cls-9" d="M409.12,325.45c-.16,0,.48-2.82.79-6.3s.22-6.34.39-6.35a20,20,0,0,1,.16,6.4A19.77,19.77,0,0,1,409.12,325.45Z"/><path class="cls-9" d="M441.21,306.31a17.49,17.49,0,0,1-4.58-4,17.9,17.9,0,0,1-3.39-5.07c.15-.09,1.6,2.21,3.8,4.71S441.31,306.18,441.21,306.31Z"/><path class="cls-9" d="M452.93,316.3c-.12-.1,1.48-2.3,3.28-5.12s3.12-5.2,3.26-5.13a33.58,33.58,0,0,1-6.54,10.25Z"/><path class="cls-9" d="M451.21,291.86a27.29,27.29,0,0,1-5.38-1.16A26.73,26.73,0,0,1,440.6,289a27.29,27.29,0,0,1,5.38,1.16A28.42,28.42,0,0,1,451.21,291.86Z"/><path class="cls-9" d="M442.67,334.87a23.42,23.42,0,0,1,0-5,23.15,23.15,0,0,1,.57-5,23.42,23.42,0,0,1,0,5A22.91,22.91,0,0,1,442.67,334.87Z"/><path class="cls-9" d="M450.06,349.6a41.9,41.9,0,0,0,1.34-5.22,39.17,39.17,0,0,0,.08-5.39,10.3,10.3,0,0,1,.46,5.46A10.56,10.56,0,0,1,450.06,349.6Z"/><path class="cls-9" d="M430.91,346.35a16.41,16.41,0,0,1,2-10.6c.16.06-.82,2.3-1.37,5.23S431.07,346.34,430.91,346.35Z"/><path class="cls-9" d="M413.44,353.81a59.69,59.69,0,0,1-5-3.86,59.89,59.89,0,0,1-4.9-3.95,40.56,40.56,0,0,1,9.87,7.81Z"/><path class="cls-9" d="M425.27,333a47.86,47.86,0,0,1-6.21,3.61,48.94,48.94,0,0,1-6.46,3.12,45,45,0,0,1,6.21-3.61A45.46,45.46,0,0,1,425.27,333Z"/><path class="cls-2" d="M462,379.65a2.84,2.84,0,0,1-.68.17c-.46.09-1.12.26-2,.37a42.38,42.38,0,0,1-7.45.48,45.32,45.32,0,0,1-33.66-15.73,45.18,45.18,0,0,1-6.2-9.17,43.3,43.3,0,0,1-2.84-6.89c-.28-.84-.42-1.51-.54-1.95a5.26,5.26,0,0,1-.15-.7,3.2,3.2,0,0,1,.25.67c.16.43.33,1.09.64,1.91a48.26,48.26,0,0,0,3,6.78,47.34,47.34,0,0,0,16.42,17.71,47.25,47.25,0,0,0,23.11,7,47.89,47.89,0,0,0,7.41-.3c.87-.08,1.54-.22,2-.26A2.85,2.85,0,0,1,462,379.65Z"/><path class="cls-9" d="M430.38,374.17a8.16,8.16,0,0,1,.5-5,8.07,8.07,0,0,1,2.92-4.1,25.71,25.71,0,0,0-2.4,4.29C430.42,371.9,430.56,374.17,430.38,374.17Z"/><path class="cls-9" d="M421.67,370.53a11.29,11.29,0,0,0-4.49,6,6.49,6.49,0,0,1,4.49-6Z"/><path class="cls-9" d="M455.17,390.47a8.86,8.86,0,0,1-4.87-1.6,9,9,0,0,1-3.59-3.67,32.94,32.94,0,0,0,3.88,3.2A32.24,32.24,0,0,0,455.17,390.47Z"/><path class="cls-9" d="M460.39,361.14a7,7,0,0,1-1.9,4.23,6.9,6.9,0,0,1-3.86,2.55,22,22,0,0,0,3.44-2.91A22.42,22.42,0,0,0,460.39,361.14Z"/><path class="cls-9" d="M475.2,383c-.13-.1,1.27-1.87,2.55-4.31s2-4.58,2.15-4.53a12.36,12.36,0,0,1-1.66,4.79A12.23,12.23,0,0,1,475.2,383Z"/><path class="cls-9" d="M494.77,385.9c.06.16-1.87.92-3.8,2.52s-3.1,3.31-3.24,3.22a10.79,10.79,0,0,1,7-5.74Z"/><path class="cls-9" d="M479.84,360.82c-.16.05-1.08-3-3-6.47s-4.1-5.84-4-6a6.61,6.61,0,0,1,1.52,1.48,26.61,26.61,0,0,1,5,8.88A6.56,6.56,0,0,1,479.84,360.82Z"/><path class="cls-9" d="M482.77,329.3a25,25,0,0,1-5,1.44,24.41,24.41,0,0,1-5.15.9,25.27,25.27,0,0,1,5-1.44A24.37,24.37,0,0,1,482.77,329.3Z"/><path class="cls-9" d="M473.76,319.88a22.71,22.71,0,0,1-3.24-3.73,22.35,22.35,0,0,1-2.81-4,44.44,44.44,0,0,1,6.05,7.78Z"/><path class="cls-9" d="M496.07,314.22a16.36,16.36,0,0,1-5.07-.65,16.16,16.16,0,0,1-4.83-1.7,48.25,48.25,0,0,1,5,1.16A43.35,43.35,0,0,1,496.07,314.22Z"/><path class="cls-9" d="M511.94,313.94a42.65,42.65,0,0,1,1.62-4.41,42.47,42.47,0,0,1,1.62-4.41,13.68,13.68,0,0,1-1.1,4.6A13.5,13.5,0,0,1,511.94,313.94Z"/><path class="cls-9" d="M508.37,335.45a15.86,15.86,0,0,1-8.43-5c.11-.12,1.77,1.33,4.1,2.71S508.43,335.3,508.37,335.45Z"/><path class="cls-9" d="M518.69,334.8a37.73,37.73,0,0,1,1.17-6.29,36.61,36.61,0,0,1,1.7-6.16,39,39,0,0,1-1.17,6.29A37.33,37.33,0,0,1,518.69,334.8Z"/><path class="cls-9" d="M510.08,358.85a32.43,32.43,0,0,1-3.75-4.66,33.28,33.28,0,0,1-3.3-5,32,32,0,0,1,3.75,4.65A33.64,33.64,0,0,1,510.08,358.85Z"/><path class="cls-9" d="M524.78,349.65c-.15.07-1.12-1.84-2.64-4s-3-3.69-2.88-3.81a12.39,12.39,0,0,1,3.33,3.49A12.15,12.15,0,0,1,524.78,349.65Z"/><path class="cls-9" d="M538.56,347.59c-.13.08-1.52-2-3.39-4.44s-3.5-4.32-3.39-4.43a19,19,0,0,1,3.83,4.1A18.78,18.78,0,0,1,538.56,347.59Z"/><path class="cls-9" d="M535.32,356.72a10.31,10.31,0,0,0-1.26-3.61,10.49,10.49,0,0,0-2.82-2.58c0-.07.48,0,1.15.33a5.86,5.86,0,0,1,3.08,4.67C535.52,356.28,535.39,356.73,535.32,356.72Z"/><path class="cls-9" d="M524.57,369.24c-.08,0-.05-.28-.14-.65a2.08,2.08,0,0,0-.72-1.22,2.23,2.23,0,0,0-1.36-.41c-.38,0-.63.1-.67,0s.16-.29.61-.41a2,2,0,0,1,2.53,2C524.81,369,524.64,369.27,524.57,369.24Z"/><path class="cls-9" d="M414.43,389.26a15.16,15.16,0,0,1-8.73-8.72,40.69,40.69,0,0,0,3.83,4.9A40,40,0,0,0,414.43,389.26Z"/><path class="cls-6" d="M347,126.49c-1.7-16.1-4.78-31.24-5.62-47a2.87,2.87,0,0,0-.75-2.18,2,2,0,0,0-2.74.8,6.11,6.11,0,0,0-.54,3.15,73.08,73.08,0,0,1-4.19,24.64c-1.82,5.13-4.22,10.06-5.6,15.32s1.2,7,3.56,11.95"/><path class="cls-2" d="M293,62.72c-.1.12-6.05-4.73-13.3-10.82s-13-11.12-12.94-11.24,6,4.73,13.3,10.82S293.07,62.6,293,62.72Z"/><path class="cls-2" d="M323.16,55.47c-.15,0-.75-9.4-1.33-21s-.94-21-.79-21,.75,9.4,1.34,21S323.32,55.46,323.16,55.47Z"/><path class="cls-2" d="M303.94,48.74c-.15,0-2-5.32-4.15-12S296,24.64,296.17,24.59s2,5.32,4.14,12S304.08,48.7,303.94,48.74Z"/><path class="cls-2" d="M286.8,72.65a72.39,72.39,0,0,1-8.17-3.45,71.81,71.81,0,0,1-7.94-3.94,71.11,71.11,0,0,1,8.17,3.44A70.75,70.75,0,0,1,286.8,72.65Z"/><path class="cls-2" d="M258.94,60.49c0,.15-.9.16-2,0s-1.92-.37-1.9-.52.9-.16,2,0S259,60.33,258.94,60.49Z"/><path class="cls-2" d="M296.85,17.76c-.15,0-.27-.87-.27-1.94s.12-1.93.27-1.93.28.87.28,1.93S297,17.76,296.85,17.76Z"/><path class="cls-2" d="M360.61,32.71c.11.1-4.77,5.7-10.9,12.51S338.5,57.47,338.39,57.36s4.77-5.7,10.91-12.51S360.5,32.6,360.61,32.71Z"/><path class="cls-2" d="M368.38,25c.11.11-.45.84-1.25,1.64s-1.54,1.37-1.65,1.26.46-.85,1.26-1.65S368.27,24.9,368.38,25Z"/><path class="cls-2" d="M387.25,52.11a8.46,8.46,0,0,1-1.44.86c-.94.52-2.32,1.24-4,2.11-3.43,1.73-8.25,4-13.67,6.25S357.66,65.39,354,66.59c-1.83.61-3.31,1.07-4.35,1.37a11.35,11.35,0,0,1-1.62.42,8.73,8.73,0,0,1,1.56-.62l4.28-1.54c3.62-1.3,8.59-3.16,14-5.4s10.24-4.45,13.71-6.09l4.11-1.95A10.92,10.92,0,0,1,387.25,52.11Z"/><path class="cls-2" d="M371.76,78.17a13.32,13.32,0,0,1-2.8.93c-1.76.48-4.22,1.06-7,1.53s-5.26.74-7.08.87a12.85,12.85,0,0,1-3,0,18.63,18.63,0,0,1,2.92-.44c1.8-.22,4.29-.56,7-1s5.19-1,7-1.37A18.48,18.48,0,0,1,371.76,78.17Z"/><path class="cls-2" d="M385.84,75.57a17.36,17.36,0,0,1-6.1,0,16.75,16.75,0,0,1,6.1,0Z"/><path class="cls-6" d="M331.16,133.13a14.74,14.74,0,0,1-5.59-13.94c.54-3.17,2.11-6.06,3.36-9s2.22-6.26,1.45-9.38a16.27,16.27,0,0,1-.84-3.59c0-1.23.79-2.61,2-2.66a3,3,0,0,1,2.3,1.39c2.06,2.55,3.72,10,2.68,15.57"/><path class="cls-7" d="M336.54,111.5c-.06,0,.1-.86.17-2.4a29.11,29.11,0,0,0-.55-6.5,23.43,23.43,0,0,0-1.26-4.31,8.9,8.9,0,0,0-1.19-2.15,3,3,0,0,0-2-1.35A1.9,1.9,0,0,0,330,96.27a4.46,4.46,0,0,0,.17,2.73,14.16,14.16,0,0,1,.74,3,11.49,11.49,0,0,1-.12,3.2c-.73,4.29-3,7.77-4.18,11.2a15.08,15.08,0,0,0-.95,5,14.8,14.8,0,0,0,.65,4.41,15.05,15.05,0,0,0,3.18,5.61c1,1.14,1.75,1.64,1.71,1.69a2.19,2.19,0,0,1-.52-.35,10.49,10.49,0,0,1-1.34-1.19,14.62,14.62,0,0,1-3.4-5.64,15.13,15.13,0,0,1-.74-4.53,15.38,15.38,0,0,1,.93-5.18c1.16-3.52,3.42-7,4.12-11.13a11.63,11.63,0,0,0,.12-3,14.71,14.71,0,0,0-.71-2.91,4.93,4.93,0,0,1-.16-3,3,3,0,0,1,.84-1.3,2,2,0,0,1,1.46-.52,3.49,3.49,0,0,1,2.34,1.55,9.52,9.52,0,0,1,1.22,2.28,23,23,0,0,1,1.23,4.41,26.8,26.8,0,0,1,.37,6.58,15.3,15.3,0,0,1-.23,1.78A2.73,2.73,0,0,1,336.54,111.5Z"/><path class="cls-2" d="M475,197.49a7.33,7.33,0,0,0,6.54,5.65,9.18,9.18,0,0,0,8-3.92,12.42,12.42,0,0,0,2-8.85c-.61-4.46-3.57-8.74-7.87-10.08s-9.64,1-10.83,5.38l-5,6.92Z"/><path class="cls-6" d="M469.09,183.9a28.83,28.83,0,0,0-25.91-32.29c-15.37-1.46-29,10-31.33,25.25-2,13.38-3.75,26.89-3.69,31.79.19,14.8,8.84,20.56,12.35,22.29a19,19,0,0,0,3.9,1h0a.1.1,0,0,1,.08.12l-3.29,17c-1.49,11.13,4.72,21.05,15.83,22.67s19.86-6.92,21.56-18.05Z"/><path class="cls-2" d="M414.4,185.51c.25.34,2.2-.7,4.7-.33s4.16,1.89,4.48,1.62c.15-.11-.07-.7-.78-1.4a6.42,6.42,0,0,0-3.53-1.68,6.15,6.15,0,0,0-3.79.64C414.62,184.84,414.28,185.35,414.4,185.51Z"/><path class="cls-2" d="M436.68,190.34c.25.34,2.2-.71,4.7-.33s4.16,1.89,4.48,1.62c.15-.12-.06-.71-.78-1.41a6.45,6.45,0,0,0-3.52-1.67,6.17,6.17,0,0,0-3.8.64C436.9,189.67,436.56,190.18,436.68,190.34Z"/><path class="cls-2" d="M428,202.17c0-.14-1.49-.63-4-1.32-.63-.16-1.22-.38-1.26-.83a3.2,3.2,0,0,1,.7-1.83l2.6-4.6c3.64-6.55,6.37-12,6.1-12.12s-3.42,5.05-7.06,11.6l-2.53,4.64a3.75,3.75,0,0,0-.69,2.46,1.63,1.63,0,0,0,.91,1.09,4.88,4.88,0,0,0,1.06.31C426.41,202.07,428,202.31,428,202.17Z"/><path class="cls-7" d="M424.51,231.92s9.55,2.2,22.71-3.3c0,0-5.68,12.22-23.6,7.88Z"/><path class="cls-7" d="M428.2,208.36a4.54,4.54,0,0,1,4.29-1.08,4.14,4.14,0,0,1,2.62,1.94,2.62,2.62,0,0,1-.24,3,3,3,0,0,1-3.4.35,9.5,9.5,0,0,1-2.92-2.37,2.78,2.78,0,0,1-.61-.85.83.83,0,0,1,.14-.93"/><path class="cls-2" d="M435.13,205c-.4-.08-.8,2.63-3.41,4.22s-5.46.87-5.53,1.25c-.07.17.57.62,1.78.83a6.82,6.82,0,0,0,4.6-.88,6,6,0,0,0,2.69-3.57C435.53,205.71,435.32,205,435.13,205Z"/><path class="cls-2" d="M438.41,182.19c.15.71,2.69.76,5.58,1.54s5.15,1.93,5.62,1.37c.22-.26-.1-1-1-1.76a9.55,9.55,0,0,0-4-2.1,9.78,9.78,0,0,0-4.53-.13C439,181.39,438.35,181.85,438.41,182.19Z"/><path class="cls-2" d="M416.93,177.79c.36.63,2.17.29,4.25.57s3.77.94,4.27.4c.21-.26,0-.87-.67-1.52a6.19,6.19,0,0,0-6.86-.79C417.1,176.93,416.78,177.48,416.93,177.79Z"/><path class="cls-2" d="M409,173.54c3.06,4.67,12.78,1.79,18.64-1.42a14,14,0,0,0,19.06-4c3.35,4.28,10.17,2.87,12.66-1.95s1.09-11.46-2.33-15.67-8.41-6.35-13.35-7.26c-11.69-2.16-24.43,2.38-31.43,13C409,161.12,407,167.7,409,173.54"/><path class="cls-10" d="M441.28,145c0,.21-2.76-.32-7.1.4a25.82,25.82,0,0,0-14.7,7.91,32,32,0,0,0-7.06,15.3c-.73,4.34-.17,7.08-.36,7.1a6.1,6.1,0,0,1-.4-1.9,22.12,22.12,0,0,1,.08-5.29,30.87,30.87,0,0,1,7-15.85,25.26,25.26,0,0,1,15.32-7.94,21.78,21.78,0,0,1,5.3-.09A6.26,6.26,0,0,1,441.28,145Z"/><path class="cls-10" d="M425.47,166.71a4.48,4.48,0,0,1-.24-1.67,16.38,16.38,0,0,1,.48-4.56,18.79,18.79,0,0,1,23.59-13.9,16.2,16.2,0,0,1,4.22,1.8,4.84,4.84,0,0,1,1.35,1c-.1.18-2.05-1.28-5.74-2.15a18.76,18.76,0,0,0-22.76,13.41C425.34,164.29,425.66,166.71,425.47,166.71Z"/><path class="cls-2" d="M453.53,161.64a55.72,55.72,0,0,0-2,12.67c0,4.28,1.07,8.7,3.81,12,4.08,4.93,10.9,6.43,17.19,7.62a49.57,49.57,0,0,0,2.93-26.5c-.71-4.34-2.11-8.75-5.17-11.91a14.39,14.39,0,0,0-17.46-2.08"/><path class="cls-2" d="M457,182.14c-1.66,3.58-1.53,7.72-1,11.62s1.56,7.77,1.52,11.72-1.29,8.11-4.38,10.56a18.43,18.43,0,0,0-2.63,2.09,2.72,2.72,0,0,0-.54,3.09c.58,1,2.37.94,2.63-.15l-.16.27A1.74,1.74,0,0,0,454,224a8,8,0,0,0,5.65-2.77c2-2.34,2.83-5.48,3.36-8.53,1.63-9.35,1.31-19,3.89-28.17"/><path class="cls-5" d="M421.13,243.53a22.76,22.76,0,0,0,30.42,16.16c5.48-2.12,9.9-6.24,14.17-10.28A33.23,33.23,0,0,1,434.94,288c-7,.42-14.56-1.73-19-7.2-3.08-3.81-4.32-8.86-4.27-13.76a50,50,0,0,1,2.77-14.39c1.25-4,3.22-8.5,7.27-9.59"/><path class="cls-2" d="M471.36,194.27c4.19,2.28,6.49,7,7.31,11.74s.4,9.52.6,14.29,1.11,9.75,4.13,13.45c3.2,3.93,8.2,5.79,12.66,8.2,9.87,5.32,18,14.33,21,25.14s.28,23.32-7.82,31.07c-7.37,7.06-18.1,9.54-28.31,9.51-7.28,0-15.27-1.56-19.81-7.25s-4.28-13.66-2.64-20.66,4.5-13.82,4.61-21a37.16,37.16,0,0,1-5.59,12.42c-.74,1.08-2,2.23-3.18,1.62s-.79-2.6-.2-3.92c8.78-19.51,5.72-58.84,10.92-80.39"/><path class="cls-6" d="M464.13,192c.27-.08,10.5-2,9.19,8.1s-11.21,6.72-11.19,6.42S464.13,192,464.13,192Z"/><path class="cls-7" d="M465.72,203.13s.16.15.44.32a1.79,1.79,0,0,0,1.32.2c1.12-.25,2.24-1.83,2.52-3.65a5.84,5.84,0,0,0-.16-2.59,2.1,2.1,0,0,0-1.15-1.53.92.92,0,0,0-1.11.35c-.17.27-.13.48-.19.49s-.19-.2-.06-.61a1.16,1.16,0,0,1,.48-.58,1.33,1.33,0,0,1,1-.13,2.46,2.46,0,0,1,1.64,1.81,6,6,0,0,1,.25,2.9c-.33,2-1.62,3.8-3.14,4a1.88,1.88,0,0,1-1.58-.47C465.71,203.38,465.68,203.14,465.72,203.13Z"/><path class="cls-2" d="M410.66,265.35a26.82,26.82,0,0,1,1.72-3.13A42.27,42.27,0,0,0,416,254.5a19.09,19.09,0,0,0,.91-8.38,31,31,0,0,0-.81-3.44,2.94,2.94,0,0,1,.46.85,11.66,11.66,0,0,1,.73,2.53,17.74,17.74,0,0,1-.77,8.61,35.71,35.71,0,0,1-3.84,7.75c-.6.93-1.1,1.67-1.45,2.18S410.7,265.37,410.66,265.35Z"/><path class="cls-9" d="M415.83,253.66c-.16,0-.44-.86-1.35-1.47s-1.83-.6-1.85-.75.23-.19.64-.2a2.68,2.68,0,0,1,1.53.5,2.78,2.78,0,0,1,1,1.26C415.92,253.39,415.89,253.65,415.83,253.66Z"/><path class="cls-9" d="M422.36,253.65a17.73,17.73,0,0,0-2.6-2.44,17.36,17.36,0,0,0-3.28-1.43,5.93,5.93,0,0,1,5.88,3.87Z"/><path class="cls-9" d="M426.48,275.13a17.14,17.14,0,0,1,.61-4.32,17.37,17.37,0,0,1,1.15-4.21,17.19,17.19,0,0,1-.61,4.32A17.55,17.55,0,0,1,426.48,275.13Z"/><path class="cls-9" d="M443,278.37a38,38,0,0,1,.29-9.12,19.26,19.26,0,0,1,.13,4.57A18.67,18.67,0,0,1,443,278.37Z"/><polygon class="cls-11" points="105.78 325.41 89.45 396.51 123.98 396.62 139.93 334.1 105.78 325.41"/><path class="cls-2" d="M275.33,238.08c-3.29-4.41-7.06-8.63-8.79-13.84-.83-2.52-1.16-5.18-2.05-7.68s-2.51-4.93-5-5.88-4.35,0-6,1.78l-11.85,34.65,6.84,26.62c6.81-1.54,15.35-3.36,21.72-6.23s10.63-7.46,11-14.43C281.58,247.59,278.61,242.48,275.33,238.08Z"/><path class="cls-5" d="M167.51,232s-41.19,17.93-46.33,26-22.06,65.75-22.06,65.75l43.36,12.76-.71,60h106.4l-.88-105.84-13.35-58.51s-23.49-1.51-25.67-2.58S167.51,232,167.51,232Z"/><path class="cls-11" d="M313.87,85.2c.34-2.43-1.36-5.1-.14-7.23a6,6,0,0,1,3.3-2.23,5.29,5.29,0,0,1,2-.48,1.79,1.79,0,0,1,1.67,1.06,2.25,2.25,0,0,1-.81,2.18,6.25,6.25,0,0,0-1.6,1.85c-.42,1,0,4.19.39,5.21a92.63,92.63,0,0,1,3.5,11.33"/><path class="cls-11" d="M305.18,86c.15-3.67,3.13-18.15,3.28-21.82,2.48.76,3.92,3.41,4.39,6s.23,5.2.67,7.76c.59,3.44,2.38,6.54,4.19,9.53s3.68,6,4.49,9.42,3.88,12.19,1.49,14.73"/><path class="cls-11" d="M304.48,110.81l-14.72,70c-.52,3.16-55.82,51.39-55.82,51.39l10.92,43.63,72.05-70.43a29.25,29.25,0,0,0,7.88-20.53l-1.22-65.64Z"/><path class="cls-11" d="M302,86.48l2.51,24.33,19.09,8.38s.23-1.73,1.05-10.16c.91-9.3-9.09-13.29-13.54-20.16-1.91-2.94-1.41-8.34-2.88-15-.17-.77-1.24-5.44-1.81-8a5.61,5.61,0,0,0-2.29-3.44c-.86-.57-1.83-.86-2.55,0S302,86.48,302,86.48Z"/><path class="cls-11" d="M313.87,114.89c2.17-1.83,2.63-5.11,1.83-7.84a20.09,20.09,0,0,0-4.5-7.15c-1.86-2.15-3.82-4.28-5-6.88-.8-1.83-1.18-3.83-2.07-5.62s-2.5-3.43-4.5-3.51c1.6,10.07,1.56,15.86,4.82,26.92"/><path class="cls-12" d="M301.6,95.35s-.07-.28-.19-.81-.32-1.41-.51-2.3c-.45-2.11-1-4.83-1.68-7.92l-.07-.3.31,0A4.94,4.94,0,0,1,303,85.33a10.7,10.7,0,0,1,3,5.09,25.71,25.71,0,0,0,1.68,4.42,12.9,12.9,0,0,0,1.86,2.57,3.77,3.77,0,0,1,.63,1,7,7,0,0,1-.8-.86,12,12,0,0,1-2-2.52,24,24,0,0,1-1.81-4.44,10.6,10.6,0,0,0-2.86-4.85,4.48,4.48,0,0,0-3.16-1.21l.24-.32C301,90.59,301.83,95.36,301.6,95.35Z"/><path class="cls-12" d="M310.16,89.16a92.61,92.61,0,0,1-1.76-9.94,92.39,92.39,0,0,1-1.21-10A92.1,92.1,0,0,1,309,79.14,92.41,92.41,0,0,1,310.16,89.16Z"/><path class="cls-12" d="M316.23,90s.08.11.14.37l-.16,0a54.9,54.9,0,0,1-1.92-6.92c-.46-2-.79-3.91-1-5.26a8,8,0,0,1-.19-2.22c.15,0,.8,3.29,1.71,7.36.73,3.29,1.41,6.06,1.55,7l-.16,0C316.19,90.11,316.2,90,316.23,90Z"/><path class="cls-12" d="M320,103.39c-.08,0-.47-.55-1.23-1.37a12.58,12.58,0,0,0-3.5-2.56,12.26,12.26,0,0,0-4.18-1.14,13.57,13.57,0,0,1-1.83-.11,4.11,4.11,0,0,1,1.85-.28,10.46,10.46,0,0,1,7.95,3.84A4.25,4.25,0,0,1,320,103.39Z"/><path class="cls-12" d="M306.21,112.73a15,15,0,0,1-1.25-2.88,65.08,65.08,0,0,1-3.52-14.72,14.94,14.94,0,0,1-.19-3.13,20.91,20.91,0,0,1,.57,3.08c.32,1.9.8,4.52,1.48,7.39s1.45,5.41,2,7.25A20.62,20.62,0,0,1,306.21,112.73Z"/><path class="cls-5" d="M221,233.4a6.73,6.73,0,0,1,9-2.11c7.77-6.32,15.72-12.51,23.49-18.83-2.53,12.67-4.21,30.42,1.45,42,0,0,7.17,13.32,18.58,11.28l-10.18,10-16.09,14.88"/><path class="cls-2" d="M218.5,239.35a10.45,10.45,0,0,1,5.05-8.31,32.5,32.5,0,0,0-3.08,3.82A30.61,30.61,0,0,0,218.5,239.35Z"/><path class="cls-2" d="M226.89,247.14a6.78,6.78,0,0,1-.88-2.32,14.84,14.84,0,0,1,2-11.55,6.72,6.72,0,0,1,1.63-1.87c.07.07-.54.78-1.3,2.08a17.1,17.1,0,0,0-2,5.45,16.75,16.75,0,0,0,0,5.81C226.65,246.22,227,247.1,226.89,247.14Z"/><path class="cls-9" d="M265.8,274.38a8.64,8.64,0,0,1-2.54,1,14,14,0,0,1-7.42-.22,17.76,17.76,0,0,1-8.91-6.4,29.82,29.82,0,0,1-5.32-12.4,93.34,93.34,0,0,1-1.27-24.47c.25-3.13.6-5.65.89-7.38.13-.87.27-1.54.36-2a2.84,2.84,0,0,1,.17-.68,3.08,3.08,0,0,1-.06.7c-.07.51-.15,1.18-.26,2-.22,1.74-.51,4.26-.71,7.38a98.22,98.22,0,0,0,1.42,24.33,29.86,29.86,0,0,0,5.18,12.2A17.49,17.49,0,0,0,256,274.8a14.15,14.15,0,0,0,7.25.39A24.18,24.18,0,0,0,265.8,274.38Z"/><path class="cls-2" d="M142.71,354.3c-.15,0-.28-15.05-.28-33.61s.13-33.62.28-33.62.27,15.05.27,33.62S142.86,354.3,142.71,354.3Z"/><path class="cls-2" d="M141.85,275.46c-.11,0-.08-1.51-.6-3.85a20.73,20.73,0,0,0-1.32-4,22,22,0,0,0-6.18-8.09,20.41,20.41,0,0,0-3.49-2.32c-2.12-1.12-3.58-1.49-3.55-1.59a3.77,3.77,0,0,1,1,.21,7.66,7.66,0,0,1,1.18.39,14.36,14.36,0,0,1,1.51.64,19.35,19.35,0,0,1,3.63,2.28,22.58,22.58,0,0,1,3.69,3.74,23.25,23.25,0,0,1,2.64,4.54,20.49,20.49,0,0,1,1.24,4.11,13.94,13.94,0,0,1,.22,1.63,8,8,0,0,1,.06,1.24A3.79,3.79,0,0,1,141.85,275.46Z"/><path class="cls-2" d="M214.37,231.49a5.78,5.78,0,0,1,.18.89,20.88,20.88,0,0,1,.27,2.6,26.81,26.81,0,0,1-1.32,9.47,27.7,27.7,0,0,1-7.67,11.88,27.29,27.29,0,0,1-32.61,2.45,27.82,27.82,0,0,1-9.36-10.61,27,27,0,0,1-2.72-9.17,20.59,20.59,0,0,1-.11-2.6,4.53,4.53,0,0,1,0-.91,5.78,5.78,0,0,1,.07.9,24.77,24.77,0,0,0,.21,2.58,28.19,28.19,0,0,0,2.86,9,27.6,27.6,0,0,0,9.29,10.35,26.94,26.94,0,0,0,32-2.4,27.75,27.75,0,0,0,9.12-21c0-1.12-.09-2-.17-2.58A8.45,8.45,0,0,1,214.37,231.49Z"/><path class="cls-9" d="M141.79,323.34c0,.15-8.79-2.61-19.52-6.16s-19.41-6.54-19.36-6.69,8.79,2.62,19.53,6.17S141.84,323.2,141.79,323.34Z"/><path class="cls-9" d="M246.26,308.65c0,.15-23.35.37-52.14.49s-52.16.1-52.16-.05,23.35-.38,52.15-.5S246.26,308.5,246.26,308.65Z"/><path class="cls-9" d="M246.79,317.87c0,.15-23.47.27-52.41.27S142,318,142,317.87s23.47-.28,52.42-.28S246.79,317.71,246.79,317.87Z"/><path class="cls-2" d="M232.41,329.07a5,5,0,0,1-.29.86c-.24.59-.55,1.4-1,2.41l-.7,1.74c-.27.63-.6,1.3-.94,2-.7,1.44-1.42,3.12-2.43,4.87l-1.51,2.77c-.54,1-1.17,1.92-1.79,2.94-1.2,2-2.69,4.1-4.21,6.29a114.35,114.35,0,0,1-11.33,13.13,114.07,114.07,0,0,1-13.35,11.07c-2.22,1.48-4.3,2.93-6.37,4.09-1,.59-2,1.21-3,1.73l-2.81,1.46c-1.77,1-3.46,1.66-4.92,2.33-.73.32-1.4.64-2,.9l-1.75.66-2.43.9a5.73,5.73,0,0,1-.86.28,4.59,4.59,0,0,1,.82-.38l2.39-1,1.73-.71c.63-.27,1.29-.6,2-.94,1.44-.69,3.11-1.4,4.86-2.39l2.78-1.49c1-.52,1.92-1.14,2.94-1.74,2-1.18,4.12-2.63,6.32-4.12a116.07,116.07,0,0,0,13.25-11.05,116.51,116.51,0,0,0,11.31-13c1.53-2.17,3-4.21,4.24-6.24.62-1,1.26-1.95,1.8-2.9s1.05-1.87,1.54-2.75c1-1.73,1.77-3.39,2.49-4.82.35-.71.69-1.37,1-2s.52-1.19.74-1.71c.44-1,.79-1.79,1-2.38A7.23,7.23,0,0,1,232.41,329.07Z"/><g class="cls-8"><path d="M228.11,338.28c-7.11,8.66-14.57,14.94-25,19-5,1.93-10.25,3.25-15.1,5.55s-9.41,5.76-11.59,10.66c-1.68,3.79-.86,9.5,3.2,10.35a8.47,8.47,0,0,0,4.6-.71c20.7-7.5,34.3-26.42,43.91-44.83"/></g><path class="cls-2" d="M154.08,149.87c-4.47,3.51-4.77,10.06-4.55,15.73s.29,12.13-3.82,16.05c-3.39,3.23-9.32,4.43-10.29,9a5.33,5.33,0,0,0,8.56,5.25c-1.44,3.58-.79,8.18,2.27,10.54s8.41,1.26,9.57-2.42a4.68,4.68,0,1,0,9.11,2.11"/><path class="cls-2" d="M218.92,191a5.64,5.64,0,1,0,10.59-3.84c-.88-2.19-3.13-3.86-3.23-6.22-.14-2.86,2.87-4.75,5.5-5.87s5.73-2.58,6.15-5.42-2-5-3.92-6.93-3.87-4.88-2.48-7.27c.71-1.22,2.1-1.88,3-2.95,2.05-2.36,1.23-6.33-1.14-8.37s-5.77-2.48-8.88-2.08-6.06,1.54-9.1,2.29A37.49,37.49,0,0,1,185.83,139"/><path class="cls-11" d="M157.11,171.7,168,234.84a20.33,20.33,0,0,0,23.6,16.55h0a20.31,20.31,0,0,0,16.66-21.81c-.49-5.6-.92-10.24-.92-10.24s15.82-4.06,14.45-20.14c-.66-7.77-3.33-23.66-5.9-38a30.05,30.05,0,0,0-32.51-24.58l-1.54.15A29.87,29.87,0,0,0,157.11,171.7Z"/><path class="cls-2" d="M212.52,171.61a2.3,2.3,0,0,1-2,2.53A2.21,2.21,0,0,1,208,172.3a2.3,2.3,0,0,1,2-2.53A2.21,2.21,0,0,1,212.52,171.61Z"/><path class="cls-2" d="M213.22,169.41c-.26.33-2.12-.79-4.59-.54s-4.15,1.66-4.45,1.38c-.14-.12.09-.69.82-1.34a6.38,6.38,0,0,1,3.53-1.48,6.07,6.07,0,0,1,3.69.81C213,168.75,213.34,169.26,213.22,169.41Z"/><path class="cls-2" d="M188.38,174.43a2.31,2.31,0,0,1-2,2.53,2.2,2.2,0,0,1-2.56-1.84,2.3,2.3,0,0,1,2-2.53A2.21,2.21,0,0,1,188.38,174.43Z"/><path class="cls-2" d="M189,172.24c-.26.32-2.12-.79-4.59-.55s-4.16,1.66-4.45,1.38c-.15-.12.09-.68.82-1.34a6.35,6.35,0,0,1,3.53-1.47,6.14,6.14,0,0,1,3.69.8C188.82,171.57,189.13,172.09,189,172.24Z"/><path class="cls-2" d="M199.74,189.66c0-.14,1.49-.55,3.94-1.11.63-.13,1.21-.31,1.27-.75a3.17,3.17,0,0,0-.6-1.83c-.74-1.46-1.51-3-2.33-4.61-3.25-6.58-5.67-12-5.41-12.15s3.12,5.1,6.38,11.68c.78,1.63,1.53,3.17,2.25,4.65a3.68,3.68,0,0,1,.57,2.45,1.61,1.61,0,0,1-.95,1,4.38,4.38,0,0,1-1.05.25C201.32,189.64,199.77,189.8,199.74,189.66Z"/><path class="cls-2" d="M188.7,162.5c-.18.7-2.67.62-5.53,1.25s-5.13,1.65-5.57,1.09c-.2-.28.14-1,1-1.69a9.93,9.93,0,0,1,8.46-1.78C188.19,161.7,188.77,162.17,188.7,162.5Z"/><path class="cls-2" d="M211.61,162.36c-.38.6-2.13.18-4.18.36s-3.74.74-4.19.19c-.21-.26,0-.85.72-1.46a6.05,6.05,0,0,1,6.75-.44C211.48,161.51,211.78,162.07,211.61,162.36Z"/><path class="cls-2" d="M172.83,152.39l-.08.08a12.69,12.69,0,0,0-3.9,8.63c0,.11,0,.22,0,.32-.19,4.65.38,9.29.15,13.93s-1.35,9.45-4.43,12.93c-1.26,1.43-3.64,2.57-4.93,1.16a3.89,3.89,0,0,1-.77-2c-1.94-11-5.91-20.5-7-32.06a9.79,9.79,0,0,1,3.27-8.33c2.25-2,5-4.06,7.85-3s6.79,5.71,9.08,7.64"/><path class="cls-11" d="M163.23,178.44c-.28-.09-11.35-2.19-9.93,8.75s12.12,7.26,12.1,6.95S163.23,178.44,163.23,178.44Z"/><path class="cls-12" d="M161.51,190.43s-.17.15-.47.34a1.9,1.9,0,0,1-1.42.22c-1.21-.28-2.43-2-2.74-4a6.48,6.48,0,0,1,.18-2.8,2.23,2.23,0,0,1,1.25-1.65,1,1,0,0,1,1.19.38c.19.28.15.51.21.52s.21-.21.06-.65a1.17,1.17,0,0,0-.52-.63,1.43,1.43,0,0,0-1.09-.14,2.68,2.68,0,0,0-1.77,2,6.64,6.64,0,0,0-.27,3.14c.36,2.19,1.76,4.11,3.4,4.36a2,2,0,0,0,1.7-.51C161.53,190.69,161.55,190.44,161.51,190.43Z"/><path class="cls-2" d="M162.75,145.7c-3.13-4.13,3.66-11.16,8.91-13.4s12.65-.29,18.22,1c3.51.8,7.05,2,10.62,1.55a24.68,24.68,0,0,0,6.79-2.45,17.71,17.71,0,0,1,6.88-2.08c2.42-.07,5,1,6.14,3.11s.12,5.31-2.23,5.87a5.41,5.41,0,1,1,2.41,9.85c1.45-1.33,4,.39,4,2.35s-1.63,3.56-3.35,4.53c-4.38,2.45-9.78,2.33-14.68,1.2S197,154,192.1,152.75s-13-3.56-17.59-1.43c-3.35,1.56-5.36,6-7.41,5.24a6.72,6.72,0,0,1-3.95-4.59,19.67,19.67,0,0,1-.4-6.27"/><path class="cls-2" d="M163.37,180.31c.31,5.8.63,11.64,2,17.29s3.81,11.16,7.88,15.31c5.34,5.42,12.24,10.63,19.76,11.87,8.2,1.35,18.24-.36,24.92-5.32,3.16-2.34,5.47-7.42,4.49-11.24a8.35,8.35,0,0,0,4.76-7c.17-3-1.64-6.67-4-7.07,1.76-.29,2.26-3.08,1.6-4.66s-3-2.06-4.74-1.72a12.15,12.15,0,0,0-4.73,2.44,17.16,17.16,0,0,1-4.59,2.73c-5.67,1.84-11.43-3.16-17.39-2.93-5.39.21-10.18,4.68-15.53,3.93a10.76,10.76,0,0,1-7.2-5c-1.64-2.52-.93-11.87-1.57-14.82"/><g class="cls-13"><path class="cls-10" d="M206.62,205.51a8.19,8.19,0,0,1-1.31-.39,7.1,7.1,0,0,0-3.19-.16,7.32,7.32,0,0,0-2.93,1.26c-.68.49-1,.89-1.09.83s.21-.52.86-1.11a6.32,6.32,0,0,1,6.46-1.17C206.24,205.1,206.65,205.46,206.62,205.51Z"/></g><path class="cls-1" d="M195,193.35c.4-.06.67,2.61,3.14,4.29s5.3,1.11,5.36,1.48c.05.16-.58.58-1.79.73a6.64,6.64,0,0,1-4.45-1.08,5.83,5.83,0,0,1-2.47-3.62C194.61,194,194.85,193.35,195,193.35Z"/><path class="cls-10" d="M187.07,223a3.32,3.32,0,0,1,.69.26c.45.16,1.12.4,2,.64a34.78,34.78,0,0,0,7.62,1.2,33.24,33.24,0,0,0,5.32-.11,28.55,28.55,0,0,0,6-1.16,23.66,23.66,0,0,0,6.1-2.79,18.4,18.4,0,0,0,5.29-4.8,11,11,0,0,0,2.09-7.94l0-.22.2-.09a8.35,8.35,0,0,0,3.3-2.72,9.34,9.34,0,0,0,1.07-1.78,6.15,6.15,0,0,0,.47-1.91,7.57,7.57,0,0,0-2.54-6.41l-.16-.13.13-.15a4.46,4.46,0,0,0,.65-4.36,4.19,4.19,0,0,0-2.44-2.38,4.66,4.66,0,0,0-2.2-.31c-.52.06-.78.15-.79.12a2.8,2.8,0,0,1,.77-.24,4.64,4.64,0,0,1,5,2.69,4.81,4.81,0,0,1-.64,4.73l0-.28a8,8,0,0,1,2.78,6.76,7,7,0,0,1-.5,2.07,10.11,10.11,0,0,1-1.12,1.89,8.91,8.91,0,0,1-3.51,2.91l.16-.31a11.36,11.36,0,0,1-2.16,8.38,18.75,18.75,0,0,1-5.45,4.94,23.73,23.73,0,0,1-6.24,2.81,28.9,28.9,0,0,1-6.08,1.14,33.64,33.64,0,0,1-5.39,0,33.13,33.13,0,0,1-7.65-1.38,18.33,18.33,0,0,1-2-.75A3.3,3.3,0,0,1,187.07,223Z"/><path class="cls-10" d="M139.07,195.05a1.6,1.6,0,0,1-.56-.28,3.25,3.25,0,0,1-1.11-1.4,4.76,4.76,0,0,1-.22-2.82,5.71,5.71,0,0,1,2.11-3.09,13.76,13.76,0,0,1,4-2.09,26.81,26.81,0,0,0,4.68-2,9.2,9.2,0,0,0,3.53-4.15,15.19,15.19,0,0,0,1.24-5.82c.09-4.15-.87-8.07-1-11.73s.53-7.05,2.19-9.34a8.79,8.79,0,0,1,5.34-3.63,6.07,6.07,0,0,1,1.78-.09,2.61,2.61,0,0,1,.61.12,9.76,9.76,0,0,0-2.34.18,8.7,8.7,0,0,0-5.07,3.64c-1.55,2.22-2.2,5.53-2,9.1s1.11,7.51,1,11.76a15.55,15.55,0,0,1-1.3,6,9.64,9.64,0,0,1-3.76,4.36,25.42,25.42,0,0,1-4.79,2,14,14,0,0,0-3.93,2,5.51,5.51,0,0,0-2.05,2.86,4.6,4.6,0,0,0,.12,2.67A3.61,3.61,0,0,0,139.07,195.05Z"/><path class="cls-10" d="M218.44,139.05a6.54,6.54,0,0,1,1.1-.43,4.11,4.11,0,0,1,.89-.18,6.55,6.55,0,0,1,5.39,1.94h0a8.75,8.75,0,0,1,1.63,6.56,10.76,10.76,0,0,1-4.34,7.17,16.61,16.61,0,0,1-9.2,3.19,36.61,36.61,0,0,1-10.69-1.17,48.41,48.41,0,0,1-15.51-6.87,48.84,48.84,0,0,0-6.36-3.7,17.57,17.57,0,0,0-6.14-1.57,18.52,18.52,0,0,0-9,1.67,30.38,30.38,0,0,0-3,1.69,12.87,12.87,0,0,1,2.88-1.88,18.28,18.28,0,0,1,9.12-1.87,17.81,17.81,0,0,1,6.3,1.54,48.55,48.55,0,0,1,6.45,3.69,48.51,48.51,0,0,0,15.37,6.76,36.39,36.39,0,0,0,10.53,1.18,16.22,16.22,0,0,0,8.94-3.05,10.43,10.43,0,0,0,4.23-6.84,8.51,8.51,0,0,0-1.48-6.31h0a6.45,6.45,0,0,0-5.14-2A12.81,12.81,0,0,0,218.44,139.05Z"/><path class="cls-10" d="M212.83,129.73a6,6,0,0,1-.5,2.42,10.23,10.23,0,0,1-4.52,4.94,13.23,13.23,0,0,1-4.42,1.59,19,19,0,0,1-5.38,0c-3.78-.47-7.68-2-11.79-3.24s-8.25-2-11.89-1.26a15.64,15.64,0,0,0-8.35,4.87,16.26,16.26,0,0,0-3.38,5.68c-.49,1.5-.58,2.38-.65,2.37a2.58,2.58,0,0,1,.06-.64,13.4,13.4,0,0,1,.38-1.8,16,16,0,0,1,3.3-5.87,15.82,15.82,0,0,1,8.54-5.1c3.77-.84,8-.07,12.15,1.22s8,2.78,11.7,3.26a18.07,18.07,0,0,0,5.24,0,12.7,12.7,0,0,0,4.3-1.47,10.35,10.35,0,0,0,4.52-4.68A15,15,0,0,0,212.83,129.73Z"/><path class="cls-14" d="M306.27,338.27A11.25,11.25,0,0,1,313.7,343a19.94,19.94,0,0,1,3.21,8.39c1,5.77-.6,12.31-2.74,17.75-5.87-2.76-9-9.6-10.37-13.18-2.17-5.65-2.65-17.17,2.47-17.7"/><path class="cls-14" d="M322.84,377.26a9.6,9.6,0,0,1-.23-9.64,12.76,12.76,0,0,1,7.82-6c1.5-.42,3.24-.58,4.51.32a4.1,4.1,0,0,1,1.49,3.89,8.41,8.41,0,0,1-1.84,3.91c-3.07,3.95-6.76,7.21-11.75,7.51"/><path class="cls-2" d="M321.35,395.52a4.8,4.8,0,0,1-.19-1.22c-.09-.78-.18-1.92-.26-3.32a41.21,41.21,0,0,1,.67-11,20.63,20.63,0,0,1,5-9.81,13.46,13.46,0,0,1,2.6-2.13,3.73,3.73,0,0,1,1.1-.56,27.75,27.75,0,0,0-3.36,3,21.52,21.52,0,0,0-4.71,9.63,47.87,47.87,0,0,0-.85,10.86A35,35,0,0,1,321.35,395.52Z"/><path class="cls-2" d="M307.64,347a13.29,13.29,0,0,1,.74,1.89c.44,1.22,1,3,1.76,5.22,1.45,4.43,3.35,10.57,5.27,17.41s3.52,13.08,4.6,17.61c.54,2.26.95,4.1,1.22,5.38a10.82,10.82,0,0,1,.35,2,13.44,13.44,0,0,1-.6-1.93c-.36-1.37-.84-3.16-1.42-5.33-1.19-4.5-2.85-10.7-4.78-17.54s-3.75-13-5.08-17.45c-.63-2.15-1.16-3.93-1.56-5.29A12.94,12.94,0,0,1,307.64,347Z"/><path class="cls-14" d="M315,382.74A22.46,22.46,0,0,0,299,370c-1.78-.34-4-.29-5,1.23s-.14,3.56.92,5a19.18,19.18,0,0,0,20.1,7"/><path class="cls-2" d="M300.91,375.07a4.33,4.33,0,0,1,1.18.12,10.67,10.67,0,0,1,1.34.29,15.27,15.27,0,0,1,1.76.53,23.5,23.5,0,0,1,4.32,2,25.16,25.16,0,0,1,8.34,8.08,23.92,23.92,0,0,1,2.15,4.25,13.78,13.78,0,0,1,.59,1.74,11.21,11.21,0,0,1,.33,1.34,3.73,3.73,0,0,1,.15,1.16c-.12,0-.44-1.61-1.49-4.06a27.53,27.53,0,0,0-2.23-4.1,29.88,29.88,0,0,0-3.66-4.39,28.84,28.84,0,0,0-4.49-3.5,27.58,27.58,0,0,0-4.17-2.1C302.54,375.47,300.89,375.2,300.91,375.07Z"/></g></g></svg>