<svg xmlns="http://www.w3.org/2000/svg" viewBox="0 0 507.6 441.44"><defs><style>.cls-1{fill:#1a2e35;}.cls-2{fill:#e1e1e1;}.cls-3{fill:#f5f5f5;}.cls-4{fill:#fff;}.cls-5{fill:#44576a;}.cls-6{fill:#ffbf9d;}.cls-7{fill:#ff9a6c;}.cls-8{opacity:0.3;}.cls-9{fill:#fafafa;}.cls-10{fill:#375a64;}.cls-11{fill:#c78976;}.cls-12{fill:#8a503f;}.cls-13{opacity:0.6;}.cls-14{fill:#38526a;}.cls-15{fill:none;stroke:#fff;stroke-miterlimit:10;stroke-width:1.05px;}</style></defs><g id="Capa_2" data-name="Capa 2"><g id="Capa_1-2" data-name="Capa 1"><path class="cls-1" d="M474.88,438c0,.15-103.13.28-230.31.28S14.22,438.13,14.22,438s103.11-.27,230.35-.27S474.88,437.83,474.88,438Z"/><rect class="cls-2" x="318.91" y="125.21" width="53.09" height="76.96"/><rect class="cls-3" x="316.25" y="125.21" width="53.09" height="76.96"/><rect class="cls-4" x="322.85" y="133.55" width="39.9" height="60.29"/><path class="cls-2" d="M362.75,193.83s0-.1,0-.29v-.85c0-.76,0-1.87,0-3.31,0-2.89,0-7.1,0-12.42,0-10.63,0-25.69-.07-43.41l.13.13h-39.9l.15-.14c0,22.74,0,43.71,0,60.28l-.12-.11,29,.06,8,0h2.83l-.7,0H360l-8,0-29.12.06h-.11v-.12c0-16.57,0-37.54,0-60.28v-.15h40.18v.14c0,17.76-.05,32.84-.07,43.5,0,5.3,0,9.5,0,12.39,0,1.42,0,2.52,0,3.28,0,.36,0,.64,0,.84S362.75,193.83,362.75,193.83Z"/><path class="cls-2" d="M369.5,125.21a9,9,0,0,1-.95,1.38c-.61.82-1.49,1.94-2.49,3.16s-1.93,2.28-2.62,3.05a8.81,8.81,0,0,1-1.17,1.19,9.68,9.68,0,0,1,1-1.33l2.56-3.1,2.55-3.1A11,11,0,0,1,369.5,125.21Z"/><path class="cls-4" d="M363,193.64a49,49,0,0,0,7,8.7"/><path class="cls-2" d="M369.92,202.34a7.47,7.47,0,0,1-1.22-1.1,39.26,39.26,0,0,1-4.93-6.17,7.12,7.12,0,0,1-.81-1.43,12.07,12.07,0,0,1,1,1.31c.59.82,1.41,2,2.37,3.15s1.88,2.25,2.55,3A11.86,11.86,0,0,1,369.92,202.34Z"/><path class="cls-4" d="M316.25,202.11l6.95-8.58"/><path class="cls-2" d="M323.2,193.53a53,53,0,0,1-3.36,4.38,53.25,53.25,0,0,1-3.59,4.2,50.46,50.46,0,0,1,3.36-4.38A53.25,53.25,0,0,1,323.2,193.53Z"/><path class="cls-2" d="M316.25,125.21a45.66,45.66,0,0,1,3.38,4,49.87,49.87,0,0,1,3.15,4.21,51,51,0,0,1-3.38-4A49,49,0,0,1,316.25,125.21Z"/><rect class="cls-2" x="336.96" y="145.79" width="13.36" height="37.93"/><path class="cls-3" d="M266.39,340.56c-4.87,1.42-8.8,5.25-11.11,9.77a33.41,33.41,0,0,0-3.18,14.74c-.14,9.81,4.12,20.27,9,28.75,9.05-6.07,12.5-18.23,13.86-24.51,2.16-9.93,0-29.17-8.62-28.75"/><path class="cls-3" d="M249.65,408.58c2-5.3.49-11.59-3.23-15.86a21.39,21.39,0,0,0-15-6.88c-2.61-.14-5.51.26-7.26,2.21a6.87,6.87,0,0,0-1,6.91,13.89,13.89,0,0,0,4.49,5.71c6.49,5.33,13.75,9.29,22,7.91"/><path class="cls-2" d="M256.45,432.17c.13,0,.1-2.48-.3-6.48a29.94,29.94,0,0,0-1.61-6.9,65.57,65.57,0,0,0-3.25-8,32.24,32.24,0,0,0-10.08-12,23.62,23.62,0,0,0-4.19-2.29,5.19,5.19,0,0,0-1.69-.49c-.08.18,2.28,1,5.43,3.41a34.5,34.5,0,0,1,9.55,11.88,76.35,76.35,0,0,1,3.27,7.86,32.39,32.39,0,0,1,1.8,6.67C256,429.72,256.28,432.19,256.45,432.17Z"/><path class="cls-2" d="M266.72,355.36a19.66,19.66,0,0,0-.73,3.2c-.41,2.07-.95,5.07-1.59,8.79-1.27,7.44-2.92,17.73-4.46,29.14s-2.64,21.78-3.27,29.3c-.32,3.76-.55,6.8-.66,8.91a20.42,20.42,0,0,0-.07,3.28,18.14,18.14,0,0,0,.5-3.24c.26-2.29.59-5.28,1-8.87.84-7.5,2.06-17.84,3.59-29.24s3.05-21.5,4.14-29.16c.5-3.58.92-6.56,1.24-8.84A18.29,18.29,0,0,0,266.72,355.36Z"/><path class="cls-3" d="M261.47,413.86a37.7,37.7,0,0,1,27.09-21.28c3-.56,6.67-.45,8.32,2.11s.2,6-1.61,8.42a32.21,32.21,0,0,1-33.82,11.57"/><path class="cls-2" d="M284.42,400.46a5.3,5.3,0,0,0-1.69.36c-1.07.29-2.59.81-4.45,1.5a42.62,42.62,0,0,0-13.36,7.88,26.67,26.67,0,0,0-5.31,6.78,25.67,25.67,0,0,0-2.43,6.59,26,26,0,0,0-.59,4.68,5.27,5.27,0,0,0,.06,1.73c.22,0,.31-2.45,1.29-6.22A26.21,26.21,0,0,1,265.67,411c4.37-4,9.37-6.34,12.91-8S284.47,400.63,284.42,400.46Z"/><path class="cls-3" d="M468.18,155s-11.1-3.28-15.59,22.25-4.85,39.56-4.85,39.56-1.56,5.53-5.66,3.48-11.08-9.29-16-6.09c-5.11,3.31-5,10.13-1.16,19s11.68,28.57,12.38,30.36.46,4.71-2.56,3.76-22.26-12.53-27.21-3.07,9.92,32.36,11.49,34.9,1.4,3.87.3,5-7.2-3.42-12.81-6.49-12.65-5.65-15.05.05,2.16,24.9,29.45,50l13.41,10.8,16.23-6c33.95-14.9,44.49-31.59,44.06-37.76s-7.92-6-14.22-4.93-13.53,3.38-14.22,2-.42-2.71,1.89-4.6,23.8-18.73,22.18-29.28-23.58-5.83-26.74-5.92-2.41-2.95-1.19-4.38,15-17.6,21.54-24.72,8.82-13.54,5.06-18.34c-3.63-4.62-12.58,0-17.12.58s-4.23-5.13-4.23-5.13,4.21-13.4,8.23-39S468,155,468,155"/><path class="cls-2" d="M464.12,177.86s0,.18-.05.54-.13.91-.22,1.58c-.21,1.41-.52,3.45-.9,6.06-.79,5.26-2,12.87-3.51,22.27-3,18.79-7.42,44.71-12.37,73.31s-9.42,54.53-12.55,73.3c-1.55,9.37-2.81,17-3.69,22.24-.43,2.6-.77,4.63-1,6-.11.67-.21,1.19-.27,1.57s-.12.53-.12.53,0-.18.06-.54.12-.9.22-1.58c.21-1.41.51-3.45.9-6.06.79-5.26,2-12.87,3.5-22.26,3-18.79,7.43-44.72,12.38-73.33S455.91,227,459,208.24c1.55-9.37,2.81-17,3.68-22.23.44-2.61.77-4.64,1-6,.12-.67.21-1.19.28-1.57S464.12,177.86,464.12,177.86Z"/><path class="cls-2" d="M435.43,224.73a5.49,5.49,0,0,1,.76,1c.47.65,1.11,1.61,1.89,2.81,1.55,2.41,3.61,5.78,5.82,9.54s4.1,7.07,5.6,9.66l1.71,2.92a4.64,4.64,0,0,1,.58,1.1,5,5,0,0,1-.77-1c-.46-.66-1.1-1.62-1.87-2.83-1.53-2.42-3.55-5.82-5.75-9.58l-5.67-9.62L436,225.84A4.5,4.5,0,0,1,435.43,224.73Z"/><path class="cls-2" d="M453.39,251.58c-.08-.13,6.68-4.69,15.11-10.18s15.34-9.83,15.43-9.7-6.68,4.7-15.11,10.19S453.48,251.72,453.39,251.58Z"/><path class="cls-2" d="M443.8,295.18a5.37,5.37,0,0,1,1.2-.43l3.3-1c2.79-.85,6.64-2.05,10.84-3.51s8-2.91,10.67-4L473,285a5.9,5.9,0,0,1,1.21-.4,5.07,5.07,0,0,1-1.12.61c-.73.36-1.81.85-3.15,1.43-2.68,1.17-6.42,2.69-10.64,4.15s-8.09,2.6-10.91,3.35c-1.42.38-2.56.66-3.36.84A5.46,5.46,0,0,1,443.8,295.18Z"/><path class="cls-2" d="M422.21,274.47a5.18,5.18,0,0,1,.93.72c.57.49,1.39,1.21,2.4,2.11,2,1.81,4.75,4.33,7.75,7.14s5.71,5.37,7.64,7.25c1,.94,1.75,1.71,2.27,2.25a4.27,4.27,0,0,1,.78.89,5,5,0,0,1-.93-.72c-.58-.49-1.39-1.21-2.4-2.11-2-1.81-4.75-4.33-7.76-7.14s-5.7-5.38-7.64-7.26c-1-.94-1.74-1.7-2.27-2.24A4.37,4.37,0,0,1,422.21,274.47Z"/><path class="cls-2" d="M408.85,311.89a6.85,6.85,0,0,1,1.18.93l3.08,2.7c2.59,2.29,6.13,5.5,10,9.06s7.38,6.82,9.89,9.19l3,2.84a8.19,8.19,0,0,1,1,1.09,7.09,7.09,0,0,1-1.19-.93l-3.07-2.69c-2.59-2.3-6.13-5.5-10-9.07s-7.38-6.81-9.9-9.19L409.88,313A7.18,7.18,0,0,1,408.85,311.89Z"/><path class="cls-2" d="M436.51,336.9a8,8,0,0,1,1.5-.59l4.14-1.43c3.5-1.21,8.33-2.89,13.61-4.89s10-3.93,13.43-5.35l4.05-1.67a9.11,9.11,0,0,1,1.51-.56,7.69,7.69,0,0,1-1.42.76c-.93.46-2.29,1.09-4,1.85-3.38,1.52-8.1,3.51-13.39,5.51s-10.14,3.64-13.68,4.74c-1.77.55-3.2,1-4.2,1.26A9,9,0,0,1,436.51,336.9Z"/><path class="cls-3" d="M95.78,381.13c24.44-13.94,32.38-43.25,33.92-70.11.26-4.49,1.18-9.15-.58-13.27s-6.49-7.25-10.66-5.73c-3.46,1.25-5.26,5-7.41,8a26.25,26.25,0,0,1-11.4,9.05c-3,1.21-6.59,1.79-9.26,0-3.66-2.48-3.62-7.85-3.19-12.29q1.22-12.43,2.44-24.85c.43-4.44.86-9-.14-13.32s-3.69-8.55-7.81-10.12-9.57.39-10.86,4.66c-.54,1.77-.35,3.69-.64,5.52s-1.34,3.8-3.14,4.15-3.48-1.06-4.69-2.49c-4.18-4.9-6.76-11-9.15-17s-4.66-12.16-8.38-17.44-9.12-9.68-15.45-10.63-13.48,2.37-15.66,8.47.89,12.81,4.4,18.25A99.7,99.7,0,0,0,37,263.58c1.31,1.12,2.73,2.33,3.11,4,.7,3.05-2.38,5.74-5.4,6.44-3.41.8-7,.13-10.48.22s-7.4,1.28-9,4.43c-2.24,4.38,1.13,9.49,4.58,12.95a85.3,85.3,0,0,0,23.83,16.83c3.16,1.5,6.5,2.86,8.93,5.4s3.65,6.68,1.77,9.67-6.06,3.61-9.43,2.66-6.26-3.09-9.41-4.62c-5.9-2.86-13.83-3.17-18.22,1.76-2.89,3.23-3.56,8-2.64,12.3s3.23,8.06,5.73,11.6c8.74,12.39,20.43,22.78,34.15,29s26.73,8.74,41.29,4.88"/><path class="cls-2" d="M94.31,401a196.24,196.24,0,0,0-3.91-37.31,398.52,398.52,0,0,0-11.88-44.33l-3.71-11.46c-1.23-3.76-2.44-7.49-3.86-11.06a200.62,200.62,0,0,0-9.31-20.07c-3.27-6.23-6.6-12-9.75-17.44S45.68,249,42.71,244.57A158,158,0,0,0,27.16,224.8c-2-2.19-3.62-3.83-4.74-4.93l-1.27-1.24a3.11,3.11,0,0,0-.45-.4,2.68,2.68,0,0,0,.4.46l1.21,1.3c1.07,1.14,2.64,2.81,4.62,5a169.59,169.59,0,0,1,15.3,19.89c2.93,4.42,5.94,9.4,9.07,14.8s6.43,11.22,9.68,17.45a201.43,201.43,0,0,1,9.22,20c1.4,3.55,2.61,7.25,3.83,11l3.71,11.45a409.08,409.08,0,0,1,11.92,44.23A199.41,199.41,0,0,1,93.73,401"/><path class="cls-2" d="M70.72,296.8a8.85,8.85,0,0,0,.61-1.85c.34-1.21.79-3,1.3-5.16,1-4.37,2.26-10.45,3.58-17.16s2.63-12.76,3.72-17.1c.55-2.17,1-3.92,1.34-5.13a8.56,8.56,0,0,0,.42-1.91A9.27,9.27,0,0,0,81,250.3c-.42,1.18-1,2.92-1.58,5.08-1.25,4.32-2.65,10.37-4,17.09s-2.46,12.62-3.35,17.2c-.41,2.06-.76,3.8-1,5.2A8.25,8.25,0,0,0,70.72,296.8Z"/><path class="cls-2" d="M14.54,280.89a14.05,14.05,0,0,0,2.26.48c1.45.26,3.56.63,6.15,1.18,5.18,1,12.29,2.74,20.05,4.95s14.7,4.54,19.67,6.36c2.49.89,4.49,1.66,5.87,2.19a10.93,10.93,0,0,0,2.18.75,13,13,0,0,0-2.06-1.05c-1.35-.62-3.32-1.48-5.79-2.44-4.93-2-11.86-4.38-19.65-6.61A202.13,202.13,0,0,0,23.06,282c-2.62-.47-4.74-.76-6.22-.92A11.59,11.59,0,0,0,14.54,280.89Z"/><path class="cls-2" d="M89.8,362.6a3.5,3.5,0,0,0,.45-.66l1.17-2c1-1.72,2.39-4.25,4.07-7.4,3.36-6.3,7.72-15.14,12.41-25s9-18.7,12.18-25.05l3.84-7.52,1-2a2.64,2.64,0,0,0,.31-.74,2.94,2.94,0,0,0-.46.66l-1.16,2c-1,1.72-2.4,4.25-4.07,7.4-3.36,6.29-7.73,15.13-12.41,25s-9,18.69-12.18,25.05c-1.58,3.08-2.88,5.63-3.84,7.51l-1,2.05A2.62,2.62,0,0,0,89.8,362.6Z"/><path class="cls-2" d="M16.09,331.16a2.82,2.82,0,0,0,.72.38l2.14.94,7.89,3.38c6.67,2.86,15.82,6.91,25.94,11.4s19.32,8.46,26,11.18c3.36,1.36,6.09,2.43,8,3.14l2.2.79a3.3,3.3,0,0,0,.79.23,2.79,2.79,0,0,0-.73-.38l-2.14-.94L79,357.9C72.38,355,63.22,351,53.11,346.5s-19.32-8.46-26-11.18c-3.36-1.36-6.1-2.44-8-3.14l-2.19-.8A2.93,2.93,0,0,0,16.09,331.16Z"/><polygon class="cls-2" points="170.94 61.78 170.94 149.16 45.44 149.16 40.92 62.39 170.94 61.78"/><rect class="cls-4" x="60.38" y="42.93" width="86.59" height="125.5" transform="translate(-2.02 209.35) rotate(-90)"/><path class="cls-2" d="M167,149.57H40.32V61.8H167ZM41.51,148.38H165.82V63H41.51Z"/><rect class="cls-4" x="54.51" y="73.15" width="98.32" height="65.07"/><path class="cls-2" d="M152.83,73.15l-.49,0h-1.4l-5.4,0-20.26.07-70.77.14.28-.28c0,19.88,0,41.91,0,65.06h0l-.31-.31,98.32.06-.25.25c0-19.8.1-36,.13-47.34,0-5.66,0-10.07.06-13.1,0-1.49,0-2.64,0-3.44s0-1.19,0-1.19,0,.38,0,1.14,0,1.92,0,3.4c0,3,0,7.41.06,13,0,11.35.08,27.63.13,47.5v.25h-.24l-98.32.06H54.2v-.31h0c0-23.15,0-45.18,0-65.06v-.29h.28l71,.14,20.2.07,5.34,0h1.37Z"/><path class="cls-2" d="M40.92,62.15a10.41,10.41,0,0,1,2.15,1.4c1.29.92,3,2.24,4.92,3.75s3.55,2.94,4.72,4a10.11,10.11,0,0,1,1.8,1.84c-.12.13-3.13-2.36-6.9-5.37S40.81,62.29,40.92,62.15Z"/><path class="cls-2" d="M166.42,62.39c.11.14-2.85,2.65-6.6,5.62a61.73,61.73,0,0,1-7,5.14c-.11-.13,2.85-2.65,6.6-5.62S166.31,62.26,166.42,62.39Z"/><path class="cls-4" d="M166.32,149l-14-11.34"/><path class="cls-2" d="M152.33,137.65c.11-.13,3.33,2.3,7.19,5.43s6.91,5.78,6.8,5.91-3.33-2.3-7.19-5.43S152.22,137.78,152.33,137.65Z"/><path class="cls-2" d="M40.92,149c-.11-.14,2.82-2.63,6.53-5.57s6.81-5.21,6.92-5.07-2.82,2.62-6.53,5.56A61.31,61.31,0,0,1,40.92,149Z"/><rect class="cls-2" x="94.51" y="73.39" width="21.79" height="61.86" transform="translate(1.09 209.72) rotate(-90)"/><rect class="cls-2" x="393.64" y="41.47" width="67.1" height="97.26"/><rect class="cls-3" x="390.28" y="41.47" width="67.1" height="97.26"/><rect class="cls-4" x="398.61" y="52.01" width="50.43" height="76.19"/><path class="cls-2" d="M449,128.2s0-.13,0-.37v-1.08c0-1,0-2.36,0-4.18,0-3.65,0-9,0-15.7,0-13.43,0-32.46-.08-54.86l.16.16-50.42,0h0l.19-.18c0,28.74,0,55.24,0,76.19l-.15-.14,36.71.07,10.14,0,2.66,0H449l-.89,0h-2.63l-10.11,0-36.8.08h-.14v-.15c0-20.95,0-47.45,0-76.19v-.19h.19l50.42,0h.17V52c0,22.45-.06,41.51-.08,55,0,6.71,0,12-.05,15.66,0,1.81,0,3.2,0,4.15v1.06C449.05,128.09,449,128.2,449,128.2Z"/><path class="cls-2" d="M457.57,41.47a11.58,11.58,0,0,1-1.2,1.74c-.78,1-1.88,2.46-3.15,4s-2.44,2.89-3.31,3.86a12.66,12.66,0,0,1-1.48,1.51,12.23,12.23,0,0,1,1.28-1.68L452.94,47c1.23-1.48,2.33-2.83,3.23-3.92A12.78,12.78,0,0,1,457.57,41.47Z"/><path class="cls-4" d="M449.3,128a62.12,62.12,0,0,0,8.8,11"/><path class="cls-2" d="M458.1,139a9.79,9.79,0,0,1-1.54-1.4c-.9-.91-2.09-2.21-3.32-3.74a49.29,49.29,0,0,1-2.92-4.06,10.83,10.83,0,0,1-1-1.8,13.18,13.18,0,0,1,1.24,1.65c.74,1,1.78,2.46,3,4s2.37,2.84,3.22,3.79A14.66,14.66,0,0,1,458.1,139Z"/><path class="cls-4" d="M390.27,138.66l8.79-10.85"/><path class="cls-2" d="M399.06,127.81a64.44,64.44,0,0,1-4.26,5.54,65.48,65.48,0,0,1-4.53,5.31,66.68,66.68,0,0,1,4.25-5.54A69,69,0,0,1,399.06,127.81Z"/><path class="cls-2" d="M390.28,41.47a59.9,59.9,0,0,1,4.26,5.1,60,60,0,0,1,4,5.33,59.9,59.9,0,0,1-4.26-5.1A60,60,0,0,1,390.28,41.47Z"/><rect class="cls-2" x="416.45" y="67.48" width="16.89" height="47.94"/><path class="cls-1" d="M345.49,254.78A18.31,18.31,0,0,1,340,272.67c-3.23,2.86-7.44,4.51-10.38,7.66a16.07,16.07,0,0,0-3.22,15.54,20.52,20.52,0,0,0,10.83,12,24,24,0,0,0,21.8-.74c8.19-4.63,13-13.9,14.16-23.23s-.69-18.77-3.15-27.85"/><path class="cls-1" d="M448.7,419.25c8.47-1.39,16.41,1.2,24.8,3.05a14.93,14.93,0,0,0,6.86.37c3.64-.93,6.22-4.46,6.78-8.17a13.39,13.39,0,0,0-2.14-9.28,8.77,8.77,0,0,0-2.9-2.88,10,10,0,0,0-4.05-1.1,28.94,28.94,0,0,0-14.94,2.81,44.54,44.54,0,0,0-12.39,9c-1.77,1.77-1.24,3.82-2,6.21"/><path class="cls-1" d="M276.94,282.55a65.76,65.76,0,0,1,.49-24.3,32,32,0,0,1,4.19-11.07,7.12,7.12,0,0,1,3.11-2.92,5.43,5.43,0,0,1,5.51,1.31,9.27,9.27,0,0,1,2.62,7.1,22.8,22.8,0,0,1-1.89,7.54c-3.27,8.37-8.44,15.31-14,22.34"/><path class="cls-5" d="M441.07,313.15c1.93,1.37,44.52,93.05,44.52,93.05h0a18,18,0,0,0-10.85-1.07l-2.31.62A38.17,38.17,0,0,0,460.84,411l-12.14,8.21h0a3.45,3.45,0,0,1-1.73-2.68l0-.35-33-56.64Z"/><path class="cls-6" d="M281.31,167.25l11.35,64.5c3.66,8.68,46.25,61.29,46.25,61.29l-14.09,45.25-55.93-76.5A29.21,29.21,0,0,1,261,241.27l2.18-68.92Z"/><path class="cls-5" d="M341.71,282.92l29.21,2.21,25.47,3.95s44.68,11.75,44.68,16.64c0,1.63-12.21,40.47-19,63.74A163.27,163.27,0,0,0,418,386.65L441.07,438H331.16V390.92s-7.38-61.75-6.11-70.19S341.71,282.92,341.71,282.92Z"/><path class="cls-7" d="M267.49,141.18a128.82,128.82,0,0,1,2-19.59c.16-.92.54-2,1.46-2.15,1.14-.15,1.72,1.32,1.87,2.46a68.92,68.92,0,0,1-1,23.4"/><path class="cls-5" d="M280.48,277.78c12.53-11.21,13-30.62,11.89-46a5.13,5.13,0,0,1,.49-3.32c1.19-1.71,4.11-1.08,5.27.65s1.1,4,1,6.05c.65-1.76,3.4-1.75,4.69-.39s1.51,3.39,1.66,5.27l.42,5.17,36.61,34.89s1-3.13,3.7-1.34,4.43,5.69,4.43,5.69l-25.81,56.32-47.88-58.26A19.27,19.27,0,0,1,280.48,277.78Z"/><path class="cls-5" d="M330.17,316.74a48.84,48.84,0,0,0-8.4,16.4,29.78,29.78,0,0,0,.54,18.23A25.29,25.29,0,0,0,341.71,367"/><path class="cls-6" d="M448.7,419.25,447.31,438h27.14l6.36-33.09h0a34.21,34.21,0,0,0-22.94,7.19Z"/><path class="cls-1" d="M293.23,273.63a9,9,0,0,1,.6-1.49c.42-.93,1-2.3,1.64-4s1.33-3.79,2-6.12a76.69,76.69,0,0,0,1.6-7.71,71.4,71.4,0,0,0,.66-7.85c.05-2.42,0-4.61-.14-6.44s-.28-3.3-.42-4.32a8.88,8.88,0,0,1-.15-1.59,9,9,0,0,1,.36,1.56c.2,1,.42,2.49.6,4.32a59.71,59.71,0,0,1,.26,6.48,65.65,65.65,0,0,1-.63,7.92,64.7,64.7,0,0,1-1.65,7.76,58.15,58.15,0,0,1-2.11,6.13,41.93,41.93,0,0,1-1.81,4A7.69,7.69,0,0,1,293.23,273.63Z"/><path class="cls-1" d="M301.21,263.81a24.94,24.94,0,0,1,1.13-2.69,41.38,41.38,0,0,0,2.17-6.64,42,42,0,0,0,1-6.92,22.74,22.74,0,0,1,.16-2.91,11.79,11.79,0,0,1,.23,2.92,32.32,32.32,0,0,1-3.17,13.71A11.11,11.11,0,0,1,301.21,263.81Z"/><path class="cls-1" d="M344.22,293.08c-.09-.05.35-.74.61-2a10.72,10.72,0,0,0-.27-4.91,37.85,37.85,0,0,0-1.84-4.68,7.57,7.57,0,0,1-.74-2,8.93,8.93,0,0,1,1.09,1.81,24.66,24.66,0,0,1,2,4.71,9.61,9.61,0,0,1,.12,5.14A3.84,3.84,0,0,1,344.22,293.08Z"/><path class="cls-1" d="M337.85,367.66a2.6,2.6,0,0,1-.46-.26l-1.26-.83c-1.08-.73-2.63-1.8-4.47-3.25a38.55,38.55,0,0,1-5.94-5.68,22.84,22.84,0,0,1-4.6-8.95,28.12,28.12,0,0,1-.61-10.06,40,40,0,0,1,1.81-8c.74-2.22,1.49-4,2-5.15.27-.6.49-1,.65-1.36a1.84,1.84,0,0,1,.26-.46,15,15,0,0,1-.71,1.9c-.47,1.21-1.16,3-1.85,5.19a41.32,41.32,0,0,0-1.67,8,28.4,28.4,0,0,0,.63,9.86,22.81,22.81,0,0,0,4.46,8.77,41,41,0,0,0,5.79,5.7c1.8,1.47,3.32,2.59,4.36,3.38l1.19.91C337.72,367.52,337.86,367.64,337.85,367.66Z"/><path class="cls-1" d="M397.83,378.13a1.64,1.64,0,0,1-.47.17c-.31.08-.77.24-1.38.36a27.15,27.15,0,0,1-5.19.62,29.13,29.13,0,0,1-27.59-17.46,27.48,27.48,0,0,1-1.67-4.95c-.15-.6-.2-1.08-.26-1.4a1.65,1.65,0,0,1,0-.49,16.59,16.59,0,0,1,.52,1.83,32.14,32.14,0,0,0,1.81,4.85,29.52,29.52,0,0,0,27.24,17.23,32.07,32.07,0,0,0,5.15-.44C397.15,378.24,397.81,378.09,397.83,378.13Z"/><path class="cls-1" d="M414.67,398.71c-.15,0,1.25-5.89,3.13-13.07s3.51-13,3.66-12.93-1.25,5.89-3.13,13.07S414.82,398.75,414.67,398.71Z"/><path class="cls-1" d="M429.49,386.28c-.14.08-4.39-6.88-9.51-15.54s-9.16-15.74-9-15.82,4.39,6.88,9.51,15.54S429.62,386.2,429.49,386.28Z"/><path class="cls-1" d="M470.08,403.42c0,.11-1.54.24-3.95.85a31.16,31.16,0,0,0-4.15,1.37,34.66,34.66,0,0,0-4.74,2.45,34,34,0,0,0-4.25,3.23,31.53,31.53,0,0,0-3,3.16c-1.59,1.92-2.37,3.26-2.46,3.21a3.65,3.65,0,0,1,.49-1,20.75,20.75,0,0,1,1.66-2.48,27.31,27.31,0,0,1,3-3.28,32,32,0,0,1,4.3-3.33,30.61,30.61,0,0,1,4.84-2.45,27,27,0,0,1,4.25-1.28,21,21,0,0,1,2.95-.45A4.55,4.55,0,0,1,470.08,403.42Z"/><path class="cls-1" d="M475.27,397.05c0,.11-1.71-.09-4.42.14a28.06,28.06,0,0,0-4.7.82,28.62,28.62,0,0,0-10.38,5.2,29.51,29.51,0,0,0-3.47,3.27c-1.81,2-2.66,3.52-2.76,3.46a5.45,5.45,0,0,1,.56-1.06,10.49,10.49,0,0,1,.77-1.17,17,17,0,0,1,1.14-1.48,25.82,25.82,0,0,1,3.44-3.41,27.37,27.37,0,0,1,10.57-5.3,26.4,26.4,0,0,1,4.8-.72,16.8,16.8,0,0,1,1.86,0,9.36,9.36,0,0,1,1.4.08A5.21,5.21,0,0,1,475.27,397.05Z"/><g class="cls-8"><path d="M362.35,357.23c-2.49,4.73-.41,10.49,1.87,15.32,1.76,3.75,3.73,7.56,6.95,10.17a14.86,14.86,0,0,0,21.54-3,33.43,33.43,0,0,1-30.87-21.85"/></g><g class="cls-8"><path d="M411,354.92c-1.9,4.55-.47,10.76,1.53,15.27s4.1,9.53,2.5,14.19a6.16,6.16,0,0,0-.62,2.66c.11.92,1.1,1.79,1.92,1.37a2.1,2.1,0,0,0,.85-1.31q2.26-6.8,4.52-13.59"/></g><path class="cls-9" d="M310.8,295.12a66.09,66.09,0,0,1,1.09-8.43,67.11,67.11,0,0,1,1.62-8.34,62.88,62.88,0,0,1-1.08,8.43A66,66,0,0,1,310.8,295.12Z"/><path class="cls-9" d="M299.65,292.77c-.14.09-2-2.45-4.48-5.37s-4.74-5.12-4.63-5.23a26.44,26.44,0,0,1,5,4.87A27.05,27.05,0,0,1,299.65,292.77Z"/><path class="cls-9" d="M309.22,265.51a8.66,8.66,0,0,1-1.2,1.9c-.8,1.13-2,2.65-3.34,4.26s-2.68,3-3.66,4a8.32,8.32,0,0,1-1.69,1.48c-.11-.11,2.21-2.62,4.93-5.83S309.09,265.41,309.22,265.51Z"/><path class="cls-9" d="M305.48,252.18c-.15.06-.75-1.29-1.93-2.63s-2.4-2.14-2.32-2.28a6.87,6.87,0,0,1,4.25,4.91Z"/><path class="cls-9" d="M295.83,260.39a15,15,0,0,1-5.59.89,7.11,7.11,0,0,1,2.75-.72A7.63,7.63,0,0,1,295.83,260.39Z"/><path class="cls-9" d="M320.19,272.15a29.33,29.33,0,0,0-.35-4.92,28.79,28.79,0,0,0-1.72-4.63,10.15,10.15,0,0,1,2.07,9.55Z"/><path class="cls-9" d="M333.2,286.15a45.45,45.45,0,0,0-3.4-4.3,46.06,46.06,0,0,0-4.28-3.44,13.32,13.32,0,0,1,7.68,7.74Z"/><path class="cls-9" d="M312.31,310.44a9.84,9.84,0,0,1-4.88.8,10,10,0,0,1-4.82-1.13c.05-.16,2.15.5,4.84.58S312.27,310.28,312.31,310.44Z"/><path class="cls-9" d="M322.12,315.46c-.15,0,.67-2.5,1.36-5.59s1-5.64,1.16-5.63a25.48,25.48,0,0,1-2.52,11.22Z"/><path class="cls-9" d="M343.53,316.28a38.49,38.49,0,0,1-4.62-4.66,40.08,40.08,0,0,1-4.22-5,38.74,38.74,0,0,1,4.63,4.67A39.78,39.78,0,0,1,343.53,316.28Z"/><path class="cls-9" d="M353.51,341a39.32,39.32,0,0,1-6.5-6.73,39.32,39.32,0,0,1,6.5,6.73Z"/><path class="cls-9" d="M335,343.38a15.28,15.28,0,0,1-4.23,3.22,15.46,15.46,0,0,1-4.89,2.08c-.06-.15,2.11-1.09,4.61-2.56S334.87,343.26,335,343.38Z"/><path class="cls-9" d="M343.5,366.92c-.16,0,.48-2.82.79-6.3s.23-6.34.39-6.35a20,20,0,0,1,.16,6.4A19.68,19.68,0,0,1,343.5,366.92Z"/><path class="cls-9" d="M375.59,347.78a23.41,23.41,0,0,1-8-9.1c.14-.09,1.59,2.21,3.8,4.71S375.69,347.66,375.59,347.78Z"/><path class="cls-9" d="M387.32,357.77c-.13-.09,1.47-2.29,3.27-5.12s3.12-5.2,3.27-5.13a22.8,22.8,0,0,1-2.8,5.43A22.56,22.56,0,0,1,387.32,357.77Z"/><path class="cls-9" d="M385.6,333.33a27.14,27.14,0,0,1-5.38-1.16,26.69,26.69,0,0,1-5.24-1.69,28,28,0,0,1,5.38,1.16A28.7,28.7,0,0,1,385.6,333.33Z"/><path class="cls-9" d="M377.05,376.34a23.39,23.39,0,0,1,0-5,22.88,22.88,0,0,1,.57-5,23.28,23.28,0,0,1,0,5A22.91,22.91,0,0,1,377.05,376.34Z"/><path class="cls-9" d="M384.44,391.07a41.9,41.9,0,0,0,1.34-5.22,42.33,42.33,0,0,0,.09-5.39,12.76,12.76,0,0,1-1.43,10.61Z"/><path class="cls-9" d="M365.29,387.82a12.61,12.61,0,0,1,.12-5.47,13,13,0,0,1,1.91-5.13c.16.07-.82,2.3-1.37,5.23S365.46,387.81,365.29,387.82Z"/><path class="cls-9" d="M347.82,395.28a57.2,57.2,0,0,1-5-3.86,59.89,59.89,0,0,1-4.9-3.95,40.56,40.56,0,0,1,9.87,7.81Z"/><path class="cls-9" d="M359.65,374.51a46.47,46.47,0,0,1-6.2,3.61,47.87,47.87,0,0,1-6.47,3.12,46.54,46.54,0,0,1,6.21-3.61A47.46,47.46,0,0,1,359.65,374.51Z"/><path class="cls-1" d="M396.4,421.12a3.62,3.62,0,0,1-.69.18c-.45.08-1.12.25-2,.36a42.33,42.33,0,0,1-7.44.48,46,46,0,0,1-11-1.55,44.72,44.72,0,0,1-22.71-14.18,45.84,45.84,0,0,1-6.2-9.16,43.33,43.33,0,0,1-2.84-6.9c-.28-.83-.42-1.51-.54-2a3.19,3.19,0,0,1-.14-.7,5.77,5.77,0,0,1,.25.67c.15.43.32,1.09.64,1.91a46,46,0,0,0,3,6.78,46.45,46.45,0,0,0,39.53,24.69,47.81,47.81,0,0,0,7.4-.3c.87-.08,1.54-.21,2-.26A3.7,3.7,0,0,1,396.4,421.12Z"/><path class="cls-9" d="M364.77,415.64a8.11,8.11,0,0,1,.49-5,8.19,8.19,0,0,1,2.92-4.1,25.71,25.71,0,0,0-2.4,4.29A26,26,0,0,0,364.77,415.64Z"/><path class="cls-9" d="M356.05,412a11.29,11.29,0,0,0-4.49,6,6.49,6.49,0,0,1,4.49-6Z"/><path class="cls-9" d="M389.55,431.94a8.86,8.86,0,0,1-4.87-1.6,9,9,0,0,1-3.59-3.67,32.94,32.94,0,0,0,3.88,3.2A32.24,32.24,0,0,0,389.55,431.94Z"/><path class="cls-9" d="M394.77,402.62a8.31,8.31,0,0,1-5.76,6.77,20.86,20.86,0,0,0,3.44-2.91A22.21,22.21,0,0,0,394.77,402.62Z"/><path class="cls-9" d="M409.58,424.48c-.13-.1,1.27-1.87,2.56-4.31s2-4.58,2.14-4.53a16.39,16.39,0,0,1-4.7,8.84Z"/><path class="cls-9" d="M429.15,427.37c.06.16-1.86.92-3.8,2.52s-3.09,3.31-3.23,3.22a8.46,8.46,0,0,1,2.88-3.65A8.68,8.68,0,0,1,429.15,427.37Z"/><path class="cls-9" d="M414.22,402.29c-.16.06-1.08-3-3-6.47s-4.1-5.84-4-5.95a6.61,6.61,0,0,1,1.52,1.48,26.61,26.61,0,0,1,5,8.88A6.32,6.32,0,0,1,414.22,402.29Z"/><path class="cls-9" d="M417.15,370.77a24.78,24.78,0,0,1-5,1.44,24.47,24.47,0,0,1-5.14.9,25.57,25.57,0,0,1,5-1.44A24.37,24.37,0,0,1,417.15,370.77Z"/><path class="cls-9" d="M408.14,361.35a22.88,22.88,0,0,1-3.24-3.72,22.21,22.21,0,0,1-2.8-4.06,43.75,43.75,0,0,1,6,7.78Z"/><path class="cls-9" d="M430.46,355.69a16.39,16.39,0,0,1-5.08-.65,16.66,16.66,0,0,1-4.83-1.69,43.77,43.77,0,0,1,5,1.15A43.89,43.89,0,0,1,430.46,355.69Z"/><path class="cls-9" d="M446.33,355.42A36.72,36.72,0,0,1,448,351a41.21,41.21,0,0,1,1.61-4.41,13.39,13.39,0,0,1-1.1,4.6A14,14,0,0,1,446.33,355.42Z"/><path class="cls-9" d="M442.76,376.93a16,16,0,0,1-8.44-5c.11-.13,1.78,1.32,4.1,2.7S442.81,376.77,442.76,376.93Z"/><path class="cls-9" d="M453.07,376.27a39,39,0,0,1,1.17-6.29,36.61,36.61,0,0,1,1.7-6.16,36.53,36.53,0,0,1-1.17,6.29A37.33,37.33,0,0,1,453.07,376.27Z"/><path class="cls-9" d="M444.46,400.32a32.43,32.43,0,0,1-3.75-4.66,31.81,31.81,0,0,1-3.29-5,32.91,32.91,0,0,1,3.74,4.66A33.28,33.28,0,0,1,444.46,400.32Z"/><path class="cls-9" d="M459.16,391.13c-.15.06-1.11-1.85-2.64-4s-3-3.69-2.88-3.81a12.35,12.35,0,0,1,3.33,3.5A12,12,0,0,1,459.16,391.13Z"/><path class="cls-9" d="M472.94,389.06c-.13.08-1.52-2-3.39-4.43a54.59,54.59,0,0,1-3.38-4.44,19.41,19.41,0,0,1,3.82,4.1A18.78,18.78,0,0,1,472.94,389.06Z"/><path class="cls-9" d="M469.7,398.19a10.31,10.31,0,0,0-1.26-3.61,10.49,10.49,0,0,0-2.82-2.58c0-.06.48,0,1.15.33a5.86,5.86,0,0,1,3.08,4.67C469.9,397.75,469.77,398.2,469.7,398.19Z"/><path class="cls-9" d="M459,410.71c-.08,0-.05-.28-.13-.65a2.18,2.18,0,0,0-.73-1.22,2.22,2.22,0,0,0-1.35-.41c-.39,0-.63.1-.68,0s.16-.29.62-.41a2,2,0,0,1,2.52,2C459.19,410.49,459,410.74,459,410.71Z"/><path class="cls-9" d="M348.81,430.74a15.22,15.22,0,0,1-8.73-8.73,25.56,25.56,0,0,0,8.73,8.73Z"/><path class="cls-6" d="M281.42,168c-1.7-16.09-4.78-31.24-5.62-47a2.87,2.87,0,0,0-.75-2.18,2,2,0,0,0-2.74.8,6.11,6.11,0,0,0-.54,3.15,72.89,72.89,0,0,1-4.19,24.65c-1.82,5.12-4.22,10-5.6,15.32s1.2,7,3.57,11.94"/><path class="cls-1" d="M227.35,104.19c-.09.12-6-4.73-13.29-10.82S201,82.25,201.11,82.13s6,4.73,13.3,10.82S227.45,104.08,227.35,104.19Z"/><path class="cls-1" d="M257.55,96.94c-.16,0-.75-9.4-1.34-21s-.94-21-.79-21,.75,9.4,1.34,21S257.7,96.93,257.55,96.94Z"/><path class="cls-1" d="M238.32,90.21c-.15.05-2-5.32-4.15-12s-3.77-12.11-3.62-12.16,2,5.32,4.15,12S238.46,90.17,238.32,90.21Z"/><path class="cls-1" d="M221.18,114.12a71.11,71.11,0,0,1-8.17-3.44,70.75,70.75,0,0,1-7.94-4,70.28,70.28,0,0,1,8.17,3.44A70.75,70.75,0,0,1,221.18,114.12Z"/><path class="cls-1" d="M193.32,102c0,.15-.9.16-2,0s-1.92-.37-1.9-.52.9-.16,2,0S193.34,101.81,193.32,102Z"/><path class="cls-1" d="M231.23,59.23c-.15,0-.27-.87-.27-1.93s.12-1.94.27-1.94.28.87.28,1.94S231.39,59.23,231.23,59.23Z"/><path class="cls-1" d="M295,74.18c.12.1-4.77,5.7-10.9,12.51s-11.21,12.25-11.32,12.15,4.77-5.71,10.91-12.52S294.88,74.08,295,74.18Z"/><path class="cls-1" d="M302.76,66.48c.11.11-.45.84-1.25,1.64s-1.54,1.37-1.65,1.26.46-.85,1.26-1.65S302.66,66.37,302.76,66.48Z"/><path class="cls-1" d="M321.63,93.58a8.46,8.46,0,0,1-1.44.86c-.94.52-2.32,1.24-4,2.11-3.43,1.73-8.25,4-13.67,6.25s-10.43,4.06-14.09,5.26c-1.82.61-3.31,1.08-4.34,1.37a11.24,11.24,0,0,1-1.63.42,9.18,9.18,0,0,1,1.56-.62l4.28-1.53c3.62-1.3,8.59-3.17,14-5.41S312.51,97.84,316,96.2l4.12-2A11.2,11.2,0,0,1,321.63,93.58Z"/><path class="cls-1" d="M306.15,119.64a13.58,13.58,0,0,1-2.81.93c-1.76.49-4.22,1.06-7,1.53s-5.26.74-7.08.87a14.16,14.16,0,0,1-3,.06,18.31,18.31,0,0,1,2.92-.45c1.8-.22,4.29-.56,7-1s5.19-1,7-1.37A19.81,19.81,0,0,1,306.15,119.64Z"/><path class="cls-1" d="M320.22,117a17.36,17.36,0,0,1-6.1,0,16.75,16.75,0,0,1,6.1,0Z"/><path class="cls-6" d="M265.55,174.6a14.74,14.74,0,0,1-5.6-13.94c.54-3.17,2.11-6.06,3.37-9s2.21-6.25,1.45-9.38a15.62,15.62,0,0,1-.85-3.59c0-1.23.79-2.61,2-2.66a3,3,0,0,1,2.3,1.39c2.06,2.55,3.72,10,2.68,15.57"/><path class="cls-7" d="M270.92,153c-.05,0,.11-.86.17-2.4a29.6,29.6,0,0,0-.54-6.5,23.5,23.5,0,0,0-1.27-4.31,9.21,9.21,0,0,0-1.18-2.15,3.08,3.08,0,0,0-2-1.35,1.92,1.92,0,0,0-1.77,1.48,4.54,4.54,0,0,0,.18,2.73,14.79,14.79,0,0,1,.73,3,11.86,11.86,0,0,1-.11,3.2c-.74,4.29-3,7.77-4.19,11.2a15.12,15.12,0,0,0-.95,5,14.48,14.48,0,0,0,.66,4.41,14.92,14.92,0,0,0,3.18,5.62c1,1.14,1.74,1.63,1.71,1.68s-.19-.1-.53-.35a11.22,11.22,0,0,1-1.34-1.19,14.62,14.62,0,0,1-3.4-5.64,14.75,14.75,0,0,1,.19-9.71c1.16-3.52,3.42-7,4.12-11.13a11.59,11.59,0,0,0,.12-3.05,14.2,14.2,0,0,0-.71-2.91,5,5,0,0,1-.16-3,3,3,0,0,1,.84-1.3,2,2,0,0,1,1.46-.52,3.5,3.5,0,0,1,2.34,1.55,9.52,9.52,0,0,1,1.22,2.28,22.31,22.31,0,0,1,1.23,4.41,26.31,26.31,0,0,1,.37,6.58,13.37,13.37,0,0,1-.23,1.78A2.73,2.73,0,0,1,270.92,153Z"/><path class="cls-1" d="M409.33,239a7.34,7.34,0,0,0,6.54,5.65,9.18,9.18,0,0,0,8-3.92,12.37,12.37,0,0,0,2-8.85c-.61-4.46-3.57-8.74-7.87-10.07s-9.64,1-10.83,5.37l-5,6.92Z"/><path class="cls-6" d="M403.47,225.37a28.83,28.83,0,0,0-25.91-32.29c-15.36-1.46-29,10-31.33,25.25-2,13.38-3.75,26.89-3.69,31.79.19,14.8,8.85,20.56,12.35,22.29a19.87,19.87,0,0,0,3.9,1h0a.09.09,0,0,1,.08.11l-3.29,17c-1.49,11.13,4.73,21.06,15.84,22.67s19.85-6.92,21.56-18.05Z"/><path class="cls-1" d="M348.78,227c.25.35,2.2-.7,4.7-.33s4.16,1.89,4.48,1.62c.15-.11-.06-.7-.78-1.4a6.39,6.39,0,0,0-3.52-1.68,6.24,6.24,0,0,0-3.8.64C349,226.31,348.66,226.82,348.78,227Z"/><path class="cls-1" d="M371.06,231.81c.25.34,2.2-.7,4.71-.33s4.15,1.89,4.47,1.62c.15-.12-.06-.71-.78-1.41a6.45,6.45,0,0,0-3.52-1.67,6.19,6.19,0,0,0-3.8.64C371.29,231.14,370.94,231.65,371.06,231.81Z"/><path class="cls-1" d="M362.4,243.64c0-.14-1.49-.63-4-1.32-.63-.16-1.22-.38-1.26-.83a3.22,3.22,0,0,1,.7-1.83l2.6-4.6c3.64-6.55,6.37-12,6.11-12.11s-3.43,5-7.07,11.59L357,239.18a3.7,3.7,0,0,0-.7,2.46,1.63,1.63,0,0,0,.91,1.09,4.8,4.8,0,0,0,1.07.31C360.8,243.54,362.37,243.78,362.4,243.64Z"/><path class="cls-7" d="M358.89,273.39s9.55,2.2,22.71-3.3c0,0-5.68,12.22-23.6,7.88Z"/><path class="cls-7" d="M362.58,249.83a4.55,4.55,0,0,1,4.29-1.08,4.14,4.14,0,0,1,2.62,1.94,2.62,2.62,0,0,1-.24,3,3,3,0,0,1-3.4.35,9.5,9.5,0,0,1-2.92-2.37,3,3,0,0,1-.61-.85.84.84,0,0,1,.14-.93"/><path class="cls-1" d="M369.52,246.45c-.41-.08-.81,2.64-3.42,4.23s-5.45.86-5.53,1.24c-.06.17.57.62,1.79.84a6.87,6.87,0,0,0,4.59-.89,5.93,5.93,0,0,0,2.69-3.57C369.91,247.18,369.71,246.46,369.52,246.45Z"/><path class="cls-1" d="M372.79,223.66c.15.71,2.7.76,5.58,1.54s5.15,1.93,5.63,1.38c.21-.27-.11-1-1-1.77a10,10,0,0,0-8.54-2.22C373.35,222.86,372.73,223.32,372.79,223.66Z"/><path class="cls-1" d="M351.31,219.26c.36.63,2.17.29,4.25.57s3.78.94,4.27.4c.22-.26,0-.87-.67-1.52a5.92,5.92,0,0,0-3.31-1.44,6,6,0,0,0-3.55.65C351.49,218.4,351.16,219,351.31,219.26Z"/><path class="cls-1" d="M343.33,215c3.06,4.67,12.78,1.79,18.65-1.42a14,14,0,0,0,19-4c3.35,4.28,10.17,2.87,12.66-1.95s1.09-11.45-2.33-15.67S383,185.68,378,184.76c-11.7-2.16-24.44,2.38-31.44,13-3.23,4.87-5.17,11.45-3.25,17.29"/><path class="cls-10" d="M375.66,186.43c0,.21-2.76-.32-7.09.4a25.88,25.88,0,0,0-14.71,7.91,32.25,32.25,0,0,0-7.06,15.31c-.73,4.33-.17,7.07-.36,7.09a6.1,6.1,0,0,1-.4-1.9,22.76,22.76,0,0,1,.09-5.29,30.8,30.8,0,0,1,7-15.85,25.31,25.31,0,0,1,15.32-7.94,21.78,21.78,0,0,1,5.3-.09A6.26,6.26,0,0,1,375.66,186.43Z"/><path class="cls-10" d="M359.85,208.18a4.76,4.76,0,0,1-.24-1.67,17.18,17.18,0,0,1,.48-4.56,18.79,18.79,0,0,1,23.59-13.9,16.45,16.45,0,0,1,4.23,1.8,4.9,4.9,0,0,1,1.34,1c-.1.18-2.05-1.28-5.74-2.15a18.76,18.76,0,0,0-22.76,13.41C359.72,205.76,360.05,208.18,359.85,208.18Z"/><path class="cls-1" d="M387.92,203.11a55.74,55.74,0,0,0-2,12.67c0,4.28,1.08,8.7,3.81,12,4.09,4.93,10.9,6.43,17.19,7.62a49.57,49.57,0,0,0,2.93-26.5c-.71-4.34-2.11-8.75-5.16-11.91a14.4,14.4,0,0,0-17.47-2.08"/><path class="cls-1" d="M391.41,223.61c-1.66,3.58-1.53,7.72-1,11.62S392,243,392,247s-1.3,8.12-4.39,10.56A19.16,19.16,0,0,0,385,259.6a2.73,2.73,0,0,0-.54,3.09c.59,1,2.37.94,2.63-.15l-.16.27a1.74,1.74,0,0,0,1.48,2.64,7.89,7.89,0,0,0,5.65-2.77c2-2.34,2.83-5.48,3.36-8.53,1.63-9.35,1.31-19,3.89-28.17"/><path class="cls-5" d="M355.51,285a22.78,22.78,0,0,0,30.42,16.17c5.48-2.13,9.9-6.25,14.18-10.29a33.23,33.23,0,0,1-30.79,38.61c-7,.42-14.56-1.73-19-7.19-3.07-3.82-4.32-8.87-4.27-13.77a50,50,0,0,1,2.77-14.39c1.25-4,3.23-8.5,7.28-9.59"/><path class="cls-1" d="M405.74,235.74c4.19,2.28,6.49,7,7.31,11.74s.4,9.52.6,14.29,1.12,9.75,4.13,13.45c3.2,3.93,8.2,5.79,12.67,8.2,9.87,5.32,18,14.33,20.95,25.14s.28,23.32-7.82,31.07c-7.37,7.06-18.1,9.54-28.3,9.51-7.28,0-15.28-1.56-19.82-7.25s-4.28-13.66-2.64-20.66,4.5-13.82,4.61-21a37.3,37.3,0,0,1-5.59,12.43c-.74,1.07-2,2.23-3.18,1.61s-.79-2.6-.2-3.92c8.78-19.51,5.72-58.84,10.92-80.38"/><path class="cls-6" d="M398.51,233.52c.27-.09,10.5-2,9.19,8.09s-11.21,6.72-11.19,6.42S398.51,233.52,398.51,233.52Z"/><path class="cls-7" d="M400.1,244.6s.16.15.44.32a1.8,1.8,0,0,0,1.32.2c1.12-.25,2.24-1.83,2.53-3.65a6,6,0,0,0-.17-2.59,2,2,0,0,0-1.15-1.52.89.89,0,0,0-1.1.34c-.18.27-.14.48-.19.49s-.2-.2-.06-.61a1.1,1.1,0,0,1,.48-.58,1.37,1.37,0,0,1,1-.13,2.5,2.5,0,0,1,1.63,1.81,6,6,0,0,1,.25,2.9c-.33,2-1.62,3.8-3.14,4a1.92,1.92,0,0,1-1.58-.48C400.09,244.85,400.07,244.61,400.1,244.6Z"/><path class="cls-1" d="M345.05,306.82a25,25,0,0,1,1.72-3.13,43,43,0,0,0,3.65-7.72,18.94,18.94,0,0,0,.91-8.38,31,31,0,0,0-.81-3.44,2.94,2.94,0,0,1,.46.85,11.58,11.58,0,0,1,.74,2.53,17.88,17.88,0,0,1-.78,8.61,35.26,35.26,0,0,1-3.84,7.75c-.59.94-1.1,1.67-1.45,2.18A3.55,3.55,0,0,1,345.05,306.82Z"/><path class="cls-9" d="M350.21,295.14c-.15,0-.44-.87-1.35-1.48s-1.83-.59-1.84-.75.22-.19.64-.19a2.74,2.74,0,0,1,2.51,1.75C350.31,294.86,350.28,295.12,350.21,295.14Z"/><path class="cls-9" d="M356.74,295.12a18.37,18.37,0,0,0-2.6-2.44,18.17,18.17,0,0,0-3.28-1.43,5.93,5.93,0,0,1,5.88,3.87Z"/><path class="cls-9" d="M360.86,316.6a17.19,17.19,0,0,1,.61-4.32,17.55,17.55,0,0,1,1.15-4.21,17.19,17.19,0,0,1-.61,4.32A17.55,17.55,0,0,1,360.86,316.6Z"/><path class="cls-9" d="M377.38,319.84a18.33,18.33,0,0,1-.14-4.57,19.19,19.19,0,0,1,.42-4.55,19.26,19.26,0,0,1,.13,4.57A18.9,18.9,0,0,1,377.38,319.84Z"/><polygon class="cls-11" points="40.16 366.88 23.83 437.98 58.36 438.09 74.31 375.57 40.16 366.88"/><path class="cls-1" d="M209.71,279.55c-3.28-4.4-7.05-8.63-8.78-13.84-.84-2.51-1.17-5.18-2.06-7.68s-2.5-4.93-5-5.88-4.36,0-6,1.78l-11.84,34.65,6.83,26.62c6.81-1.54,15.35-3.35,21.72-6.22s10.63-7.47,11-14.44C216,289.06,213,284,209.71,279.55Z"/><path class="cls-5" d="M101.89,273.42s-41.18,17.93-46.33,26S33.5,365.19,33.5,365.19L76.86,378l-.71,60h106.4l-.88-105.84-13.35-58.51s-23.49-1.51-25.66-2.58S101.89,273.42,101.89,273.42Z"/><path class="cls-11" d="M248.25,126.67c.34-2.43-1.36-5.1-.14-7.23a6,6,0,0,1,3.3-2.23,5.29,5.29,0,0,1,2-.48,1.79,1.79,0,0,1,1.67,1.06,2.25,2.25,0,0,1-.81,2.18,6.25,6.25,0,0,0-1.6,1.85c-.42,1,0,4.2.39,5.21a90.92,90.92,0,0,1,3.5,11.33"/><path class="cls-11" d="M239.56,127.51c.15-3.68,3.13-18.16,3.28-21.83,2.48.76,3.93,3.41,4.39,6s.23,5.2.67,7.76c.6,3.44,2.38,6.55,4.19,9.54s3.68,6,4.49,9.41,3.88,12.19,1.49,14.73"/><path class="cls-11" d="M238.87,152.28l-14.72,70c-.52,3.16-55.83,51.39-55.83,51.39l10.93,43.64,72-70.44a29.21,29.21,0,0,0,7.88-20.53L258,160.66Z"/><path class="cls-11" d="M236.35,128l2.52,24.33L258,160.66s.24-1.73,1.06-10.16c.9-9.3-9.1-13.29-13.55-20.16-1.91-2.94-1.41-8.34-2.88-15-.17-.77-1.24-5.44-1.81-8a5.58,5.58,0,0,0-2.28-3.43c-.86-.58-1.84-.87-2.56,0S236.35,128,236.35,128Z"/><path class="cls-11" d="M248.25,156.36c2.17-1.83,2.63-5.11,1.83-7.84s-2.64-5-4.5-7.15a28.58,28.58,0,0,1-5-6.88c-.8-1.83-1.18-3.83-2.06-5.62s-2.51-3.43-4.51-3.51c1.6,10.07,1.56,15.86,4.83,26.92"/><path class="cls-12" d="M236,136.82s-.08-.28-.2-.81l-.51-2.3c-.45-2.11-1-4.83-1.68-7.92l-.06-.3.3,0a4.94,4.94,0,0,1,3.56,1.33,10.73,10.73,0,0,1,3,5.1,26.76,26.76,0,0,0,1.68,4.41,13.75,13.75,0,0,0,1.86,2.57,3.55,3.55,0,0,1,.63,1,8.5,8.5,0,0,1-.79-.87,11.36,11.36,0,0,1-2-2.52,24.72,24.72,0,0,1-1.82-4.44,10.57,10.57,0,0,0-2.86-4.84,4.5,4.5,0,0,0-3.16-1.22l.24-.32C235.39,132.06,236.22,136.83,236,136.82Z"/><path class="cls-12" d="M244.54,130.63a94.33,94.33,0,0,1-1.75-9.93,94.12,94.12,0,0,1-1.22-10,92.1,92.1,0,0,1,1.76,9.93A92.41,92.41,0,0,1,244.54,130.63Z"/><path class="cls-12" d="M250.61,131.45s.08.11.14.37l-.16,0a54.9,54.9,0,0,1-1.92-6.92c-.46-2-.79-3.91-1-5.26a8.52,8.52,0,0,1-.19-2.22c.15,0,.81,3.3,1.72,7.36.72,3.29,1.4,6.06,1.54,7l-.16,0C250.57,131.58,250.58,131.45,250.61,131.45Z"/><path class="cls-12" d="M254.37,144.86c-.08,0-.47-.55-1.23-1.36a12.11,12.11,0,0,0-3.5-2.57,12.26,12.26,0,0,0-4.18-1.14,13.57,13.57,0,0,1-1.83-.11,4.11,4.11,0,0,1,1.85-.28,10.46,10.46,0,0,1,8,3.84A4.25,4.25,0,0,1,254.37,144.86Z"/><path class="cls-12" d="M240.59,154.2a15.82,15.82,0,0,1-1.25-2.88,63.41,63.41,0,0,1-2.19-7.26,64.07,64.07,0,0,1-1.33-7.46,14.92,14.92,0,0,1-.19-3.13,20.31,20.31,0,0,1,.58,3.08c.31,1.9.79,4.52,1.48,7.39s1.44,5.41,2,7.25A20.62,20.62,0,0,1,240.59,154.2Z"/><path class="cls-5" d="M155.4,274.87a6.72,6.72,0,0,1,9-2.1c7.77-6.32,15.72-12.52,23.49-18.84-2.53,12.67-4.2,30.42,1.45,42,0,0,7.17,13.32,18.58,11.29l-10.17,10-16.1,14.87"/><path class="cls-1" d="M152.88,280.82a10.45,10.45,0,0,1,5.05-8.3,31.86,31.86,0,0,0-3.08,3.81A33.44,33.44,0,0,0,152.88,280.82Z"/><path class="cls-1" d="M161.27,288.61a6.78,6.78,0,0,1-.88-2.32,14.9,14.9,0,0,1,2.05-11.55,6.81,6.81,0,0,1,1.62-1.87c.07.07-.54.78-1.29,2.08a16.6,16.6,0,0,0-2,11.26C161,287.69,161.36,288.57,161.27,288.61Z"/><path class="cls-9" d="M200.18,315.85a8.64,8.64,0,0,1-2.54,1,14,14,0,0,1-7.41-.22,17.75,17.75,0,0,1-8.92-6.4,30,30,0,0,1-5.32-12.4,93.34,93.34,0,0,1-1.27-24.47c.25-3.13.6-5.65.89-7.38.14-.87.27-1.53.36-2a2.84,2.84,0,0,1,.17-.68,3.08,3.08,0,0,1-.06.7c-.07.51-.15,1.18-.26,2-.22,1.74-.51,4.26-.71,7.38a98.71,98.71,0,0,0,1.42,24.33,30,30,0,0,0,5.18,12.2,17.49,17.49,0,0,0,8.63,6.33,14.15,14.15,0,0,0,7.25.39A20.81,20.81,0,0,0,200.18,315.85Z"/><path class="cls-1" d="M77.09,395.77c-.15,0-.27-15-.27-33.61s.12-33.62.27-33.62.28,15,.28,33.62S77.24,395.77,77.09,395.77Z"/><path class="cls-1" d="M76.24,316.93c-.12,0-.08-1.5-.6-3.84a22,22,0,0,0-1.32-4,22.21,22.21,0,0,0-6.18-8.1,22.59,22.59,0,0,0-3.49-2.32c-2.13-1.12-3.59-1.48-3.56-1.59a3.77,3.77,0,0,1,1,.21,7.66,7.66,0,0,1,1.18.39,13.52,13.52,0,0,1,1.51.64,19.35,19.35,0,0,1,3.63,2.28,22.58,22.58,0,0,1,3.69,3.74,23.25,23.25,0,0,1,2.64,4.54A19.26,19.26,0,0,1,76,313a12.08,12.08,0,0,1,.22,1.63,8.09,8.09,0,0,1,.06,1.24A4.13,4.13,0,0,1,76.24,316.93Z"/><path class="cls-1" d="M148.76,273a5.25,5.25,0,0,1,.17.89,20.73,20.73,0,0,1,.28,2.6,27.18,27.18,0,0,1-1.33,9.48,27.55,27.55,0,0,1-7.67,11.87,27.29,27.29,0,0,1-32.61,2.45,27.86,27.86,0,0,1-9.36-10.6,27.09,27.09,0,0,1-2.72-9.18,20.59,20.59,0,0,1-.11-2.6,5.77,5.77,0,0,1,0-.91,5.78,5.78,0,0,1,.07.9,25.74,25.74,0,0,0,.22,2.59,27.9,27.9,0,0,0,2.85,9,27.61,27.61,0,0,0,9.29,10.35,27,27,0,0,0,32-2.39,27.53,27.53,0,0,0,7.64-11.63,27.83,27.83,0,0,0,1.48-9.34,25.72,25.72,0,0,0-.17-2.59A5.13,5.13,0,0,1,148.76,273Z"/><path class="cls-9" d="M76.18,364.81c-.05.15-8.8-2.61-19.53-6.16S37.24,352.11,37.29,352s8.79,2.62,19.53,6.17S76.22,364.67,76.18,364.81Z"/><path class="cls-9" d="M180.64,350.12c0,.15-23.35.37-52.14.5s-52.15.09-52.16-.06,23.35-.37,52.16-.5S180.64,350,180.64,350.12Z"/><path class="cls-9" d="M181.17,359.34c0,.15-23.47.27-52.41.27s-52.41-.12-52.41-.27,23.46-.28,52.41-.28S181.17,359.18,181.17,359.34Z"/><path class="cls-1" d="M166.8,370.54a7.94,7.94,0,0,1-.3.86c-.24.59-.55,1.4-.95,2.41-.21.53-.44,1.11-.7,1.74s-.6,1.3-.94,2c-.7,1.44-1.42,3.12-2.42,4.87-.49.88-1,1.81-1.52,2.78s-1.17,1.91-1.78,2.93c-1.21,2-2.69,4.1-4.22,6.29a113.51,113.51,0,0,1-11.33,13.13,114.07,114.07,0,0,1-13.35,11.07c-2.22,1.48-4.3,2.93-6.37,4.09-1,.6-2,1.21-3,1.73l-2.81,1.46c-1.77,1-3.46,1.66-4.91,2.33-.74.32-1.41.64-2,.9l-1.76.66-2.43.9a4.52,4.52,0,0,1-.86.28,5.72,5.72,0,0,1,.82-.38l2.39-1,1.73-.7c.63-.28,1.3-.61,2-.94,1.44-.7,3.11-1.41,4.86-2.4l2.78-1.48c1-.53,1.93-1.15,2.94-1.75,2-1.17,4.12-2.63,6.32-4.12a116,116,0,0,0,13.26-11.05,117.41,117.41,0,0,0,11.3-13c1.53-2.17,3-4.21,4.24-6.24.62-1,1.26-1.94,1.8-2.9s1.05-1.87,1.54-2.75c1-1.73,1.77-3.39,2.49-4.82.35-.71.7-1.37,1-2l.74-1.72,1.05-2.37A5.5,5.5,0,0,1,166.8,370.54Z"/><g class="cls-8"><path d="M162.49,379.75c-7.11,8.66-14.56,14.94-25,19-5,1.94-10.24,3.26-15.09,5.55S113,410,110.79,414.94c-1.69,3.79-.87,9.5,3.19,10.35a8.56,8.56,0,0,0,4.6-.7c20.7-7.51,34.3-26.43,43.91-44.84"/></g><path class="cls-1" d="M88.46,191.34c-4.47,3.51-4.77,10.06-4.54,15.74s.29,12.13-3.83,16c-3.39,3.23-9.31,4.43-10.29,9a5.33,5.33,0,0,0,8.56,5.25c-1.44,3.58-.79,8.18,2.27,10.54s8.41,1.26,9.57-2.42a4.68,4.68,0,1,0,9.11,2.11"/><path class="cls-1" d="M153.3,232.43a5.64,5.64,0,1,0,10.6-3.84c-.88-2.19-3.13-3.85-3.24-6.22-.13-2.86,2.87-4.75,5.51-5.87s5.73-2.58,6.14-5.42-1.95-5-3.92-6.93-3.86-4.88-2.48-7.27c.71-1.22,2.1-1.88,3-2.95,2.05-2.36,1.23-6.32-1.14-8.37s-5.77-2.48-8.88-2.08-6.06,1.54-9.1,2.29a37.45,37.45,0,0,1-29.6-5.34"/><path class="cls-11" d="M91.49,213.17l10.9,63.14A20.33,20.33,0,0,0,126,292.86h0a20.33,20.33,0,0,0,16.67-21.81c-.5-5.6-.93-10.24-.93-10.24s15.82-4.06,14.45-20.14c-.66-7.76-3.32-23.66-5.9-38a30.05,30.05,0,0,0-32.5-24.58l-1.55.15A29.87,29.87,0,0,0,91.49,213.17Z"/><path class="cls-1" d="M146.9,213.08a2.29,2.29,0,0,1-2,2.53,2.21,2.21,0,0,1-2.57-1.84,2.31,2.31,0,0,1,2-2.53A2.2,2.2,0,0,1,146.9,213.08Z"/><path class="cls-1" d="M147.6,210.88c-.26.33-2.12-.79-4.59-.54s-4.15,1.66-4.45,1.38c-.14-.12.09-.69.83-1.34a6.27,6.27,0,0,1,3.52-1.47,6,6,0,0,1,3.69.8C147.42,210.22,147.73,210.73,147.6,210.88Z"/><path class="cls-1" d="M122.76,215.9a2.3,2.3,0,0,1-2,2.53,2.21,2.21,0,0,1-2.57-1.84,2.3,2.3,0,0,1,2-2.53A2.21,2.21,0,0,1,122.76,215.9Z"/><path class="cls-1" d="M123.39,213.71c-.26.32-2.12-.79-4.59-.55s-4.15,1.66-4.45,1.39c-.14-.13.09-.69.83-1.34a6.28,6.28,0,0,1,3.52-1.48,6.07,6.07,0,0,1,3.69.81C123.2,213,123.51,213.56,123.39,213.71Z"/><path class="cls-1" d="M134.13,231.13a16.92,16.92,0,0,1,3.93-1.11c.63-.13,1.21-.31,1.28-.75a3.27,3.27,0,0,0-.61-1.83c-.74-1.46-1.51-3-2.33-4.61-3.25-6.58-5.67-12-5.41-12.15s3.12,5.1,6.38,11.68c.78,1.63,1.54,3.17,2.25,4.66a3.64,3.64,0,0,1,.57,2.44,1.59,1.59,0,0,1-.95,1,4.38,4.38,0,0,1-1.05.25C135.7,231.11,134.15,231.27,134.13,231.13Z"/><path class="cls-1" d="M123.08,204c-.18.7-2.67.62-5.53,1.25s-5.13,1.65-5.57,1.09c-.2-.27.15-.95,1-1.69a9.85,9.85,0,0,1,8.45-1.77C122.57,203.17,123.16,203.65,123.08,204Z"/><path class="cls-1" d="M146,203.83c-.38.6-2.14.19-4.19.36s-3.74.74-4.19.19c-.2-.26,0-.85.72-1.46a6.11,6.11,0,0,1,6.75-.44C145.87,203,146.16,203.54,146,203.83Z"/><path class="cls-1" d="M107.21,193.86l-.08.08a12.69,12.69,0,0,0-3.9,8.63c0,.11,0,.22,0,.33-.18,4.64.38,9.29.16,13.92s-1.36,9.45-4.44,12.93c-1.26,1.44-3.63,2.57-4.93,1.16a4,4,0,0,1-.77-2c-1.94-11-5.91-20.5-7-32.06a9.79,9.79,0,0,1,3.27-8.33c2.26-2,5-4.06,7.85-3s6.79,5.71,9.09,7.64"/><path class="cls-11" d="M97.61,219.91c-.28-.09-11.35-2.19-9.93,8.76s12.12,7.26,12.1,6.94S97.61,219.91,97.61,219.91Z"/><path class="cls-12" d="M95.9,231.9c-.06,0-.18.16-.48.34a1.89,1.89,0,0,1-1.42.22c-1.21-.28-2.42-2-2.73-4a6.18,6.18,0,0,1,.18-2.8,2.22,2.22,0,0,1,1.24-1.65,1,1,0,0,1,1.19.38c.19.28.15.51.21.52s.21-.21.06-.65a1.2,1.2,0,0,0-.52-.63,1.43,1.43,0,0,0-1.09-.14,2.72,2.72,0,0,0-1.77,2,6.53,6.53,0,0,0-.26,3.14c.35,2.2,1.75,4.11,3.39,4.36a2.07,2.07,0,0,0,1.71-.51C95.91,232.16,95.94,231.91,95.9,231.9Z"/><path class="cls-1" d="M97.13,187.17C94,183,100.79,176,106.05,173.77s12.64-.29,18.21,1c3.51.79,7.06,2,10.62,1.54a24.36,24.36,0,0,0,6.79-2.45,17.69,17.69,0,0,1,6.89-2.07c2.41-.07,5,1,6.13,3.1s.12,5.31-2.23,5.87a5.42,5.42,0,1,1,2.41,9.85c1.45-1.33,4,.39,4,2.36s-1.63,3.55-3.35,4.52c-4.38,2.45-9.78,2.33-14.67,1.2s-9.53-3.19-14.4-4.44-13-3.57-17.58-1.44c-3.36,1.56-5.37,6-7.42,5.25a6.76,6.76,0,0,1-4-4.6,19.67,19.67,0,0,1-.4-6.27"/><path class="cls-1" d="M97.75,221.78c.32,5.81.64,11.64,2,17.29s3.81,11.17,7.88,15.31c5.34,5.43,12.25,10.63,19.76,11.87,8.2,1.35,18.24-.36,24.92-5.31,3.16-2.35,5.47-7.43,4.49-11.25a8.36,8.36,0,0,0,4.77-7c.16-3-1.64-6.67-4-7.07,1.76-.29,2.26-3.08,1.6-4.66s-3-2.05-4.74-1.72a12.15,12.15,0,0,0-4.73,2.44,17,17,0,0,1-4.59,2.73c-5.67,1.84-11.43-3.16-17.39-2.93-5.39.21-10.18,4.69-15.52,3.93a10.76,10.76,0,0,1-7.21-5c-1.64-2.52-.92-11.87-1.57-14.82"/><g class="cls-13"><path class="cls-10" d="M141,247a8.19,8.19,0,0,1-1.31-.39,7,7,0,0,0-6.12,1.11c-.67.48-1,.88-1.09.83s.21-.53.86-1.12a6.31,6.31,0,0,1,3.07-1.49,6.41,6.41,0,0,1,3.39.32C140.62,246.57,141,246.93,141,247Z"/></g><path class="cls-4" d="M129.41,234.82c.4-.06.67,2.62,3.14,4.29s5.31,1.11,5.36,1.48c.06.16-.58.58-1.78.73a6.65,6.65,0,0,1-4.46-1.08,5.87,5.87,0,0,1-2.47-3.62C129,235.51,129.23,234.82,129.41,234.82Z"/><path class="cls-10" d="M121.45,264.45a3.93,3.93,0,0,1,.69.26c.45.17,1.12.4,2,.65a35.5,35.5,0,0,0,7.62,1.19,33.24,33.24,0,0,0,5.32-.11,28.63,28.63,0,0,0,6-1.16,24.28,24.28,0,0,0,6.1-2.78,18.55,18.55,0,0,0,5.28-4.81,11,11,0,0,0,2.09-7.93l0-.23.2-.08a8.56,8.56,0,0,0,3.31-2.73,9.29,9.29,0,0,0,1.06-1.78,6.46,6.46,0,0,0,.48-1.91,7.61,7.61,0,0,0-2.55-6.41l-.15-.13.12-.15a4.46,4.46,0,0,0,.65-4.36,4.16,4.16,0,0,0-2.44-2.38,4.66,4.66,0,0,0-2.2-.31c-.52.06-.78.15-.79.13a2.43,2.43,0,0,1,.77-.24,4.55,4.55,0,0,1,2.3.21,4.41,4.41,0,0,1,2.66,2.47,4.79,4.79,0,0,1-.64,4.73l0-.28a8,8,0,0,1,2.77,6.76,7,7,0,0,1-.5,2.07,9.75,9.75,0,0,1-1.11,1.89,9,9,0,0,1-3.52,2.91l.16-.31a11.36,11.36,0,0,1-2.16,8.38,18.75,18.75,0,0,1-5.45,4.94,23.73,23.73,0,0,1-6.24,2.81,28.9,28.9,0,0,1-6.08,1.14,33.64,33.64,0,0,1-5.39,0,32.7,32.7,0,0,1-7.65-1.38,16.15,16.15,0,0,1-2-.75A3.24,3.24,0,0,1,121.45,264.45Z"/><path class="cls-10" d="M73.45,236.52a1.61,1.61,0,0,1-.55-.28,3.11,3.11,0,0,1-1.11-1.4,4.67,4.67,0,0,1-.23-2.82,5.71,5.71,0,0,1,2.11-3.09,14.14,14.14,0,0,1,4-2.09,25.37,25.37,0,0,0,4.68-2,9.2,9.2,0,0,0,3.53-4.15,15,15,0,0,0,1.24-5.82c.09-4.15-.87-8.07-1-11.73s.53-7.05,2.19-9.34a8.79,8.79,0,0,1,5.34-3.63,6.07,6.07,0,0,1,1.78-.09,2.45,2.45,0,0,1,.61.12,9.76,9.76,0,0,0-2.34.18A8.75,8.75,0,0,0,88.68,194c-1.55,2.22-2.19,5.53-2,9.1s1.1,7.51,1,11.76a15.47,15.47,0,0,1-1.31,6,9.65,9.65,0,0,1-3.75,4.35,25.69,25.69,0,0,1-4.79,2,14.09,14.09,0,0,0-3.94,2,5.49,5.49,0,0,0-2,2.87,4.61,4.61,0,0,0,.12,2.67A3.61,3.61,0,0,0,73.45,236.52Z"/><path class="cls-10" d="M152.82,180.53a2.38,2.38,0,0,1,.49-.23,3.41,3.41,0,0,1,.62-.21,4.69,4.69,0,0,1,.88-.18,6.55,6.55,0,0,1,5.39,1.94h0a8.75,8.75,0,0,1,1.64,6.56,10.84,10.84,0,0,1-4.34,7.17,16.76,16.76,0,0,1-9.21,3.2,37,37,0,0,1-10.69-1.18,48.51,48.51,0,0,1-15.51-6.87,50,50,0,0,0-6.36-3.7,17.57,17.57,0,0,0-6.14-1.57,18.51,18.51,0,0,0-9,1.68,28.31,28.31,0,0,0-3,1.68A12.6,12.6,0,0,1,100.5,187a18.28,18.28,0,0,1,9.12-1.87,17.92,17.92,0,0,1,6.31,1.54,48.46,48.46,0,0,1,6.44,3.69,48.51,48.51,0,0,0,15.37,6.76,36.39,36.39,0,0,0,10.53,1.18,16.22,16.22,0,0,0,8.94-3.05,10.41,10.41,0,0,0,4.23-6.84,8.47,8.47,0,0,0-1.48-6.31h0a6.44,6.44,0,0,0-5.14-2A12,12,0,0,0,152.82,180.53Z"/><path class="cls-10" d="M147.21,171.2a6,6,0,0,1-.5,2.42,10.19,10.19,0,0,1-4.52,4.94,12.73,12.73,0,0,1-4.42,1.59,18.2,18.2,0,0,1-5.37,0c-3.78-.47-7.69-2-11.8-3.24s-8.25-2-11.88-1.25a15.66,15.66,0,0,0-8.36,4.86A16.42,16.42,0,0,0,97,186.22c-.49,1.5-.58,2.38-.65,2.37a5.07,5.07,0,0,1,.06-.64,11.94,11.94,0,0,1,.39-1.79,16.18,16.18,0,0,1,11.83-11c3.77-.84,8-.06,12.15,1.22s8,2.78,11.7,3.27a18.43,18.43,0,0,0,5.24,0,12.85,12.85,0,0,0,4.3-1.48,10.35,10.35,0,0,0,4.52-4.68A13.38,13.38,0,0,0,147.21,171.2Z"/><path class="cls-14" d="M240.65,379.74a11.25,11.25,0,0,1,7.43,4.74,20,20,0,0,1,3.21,8.39c1,5.77-.6,12.31-2.73,17.75-5.88-2.76-9-9.6-10.38-13.18-2.17-5.64-2.65-17.17,2.47-17.7"/><path class="cls-14" d="M257.22,418.73a9.62,9.62,0,0,1-.23-9.64,12.79,12.79,0,0,1,7.82-6,5.42,5.42,0,0,1,4.52.32,4.12,4.12,0,0,1,1.49,3.89,8.43,8.43,0,0,1-1.85,3.91c-3.07,3.95-6.76,7.21-11.75,7.51"/><path class="cls-1" d="M255.74,437a4,4,0,0,1-.2-1.22c-.08-.78-.18-1.91-.26-3.32a41.21,41.21,0,0,1,.67-11,20.63,20.63,0,0,1,5-9.81,13.46,13.46,0,0,1,2.6-2.13,3.87,3.87,0,0,1,1.1-.56,28.9,28.9,0,0,0-3.36,3,21.57,21.57,0,0,0-4.71,9.64,47.75,47.75,0,0,0-.85,10.85A39,39,0,0,1,255.74,437Z"/><path class="cls-1" d="M242,388.48a11.92,11.92,0,0,1,.74,1.89c.44,1.22,1,3,1.77,5.22C246,400,247.87,406.17,249.8,413s3.51,13.08,4.59,17.61c.54,2.27,1,4.1,1.22,5.38a10.82,10.82,0,0,1,.35,2,12.84,12.84,0,0,1-.59-1.93l-1.43-5.33c-1.19-4.49-2.85-10.7-4.77-17.54s-3.75-13-5.09-17.45c-.63-2.15-1.16-3.93-1.56-5.29A12.61,12.61,0,0,1,242,388.48Z"/><path class="cls-14" d="M249.39,424.21a22.42,22.42,0,0,0-16-12.78c-1.78-.34-4-.3-5,1.22s-.14,3.56.93,5a19.18,19.18,0,0,0,20.09,7"/><path class="cls-1" d="M235.3,416.55a3.83,3.83,0,0,1,1.17.12,9.33,9.33,0,0,1,1.35.28,17.42,17.42,0,0,1,1.75.53,23.86,23.86,0,0,1,4.32,2,27.56,27.56,0,0,1,4.64,3.55,26.78,26.78,0,0,1,3.7,4.53,23.36,23.36,0,0,1,2.16,4.25,16.08,16.08,0,0,1,.58,1.74,9.57,9.57,0,0,1,.33,1.34,4.51,4.51,0,0,1,.16,1.16c-.13,0-.45-1.61-1.5-4.06a26.64,26.64,0,0,0-2.23-4.1,30.31,30.31,0,0,0-3.65-4.39,29.37,29.37,0,0,0-4.5-3.5,27.13,27.13,0,0,0-4.17-2.1C236.93,416.94,235.27,416.67,235.3,416.55Z"/><rect class="cls-15" x="0.53" y="0.53" width="506.55" height="440.39"/></g></g></svg>