<svg xmlns="http://www.w3.org/2000/svg" viewBox="0 0 3227.43 2019.8"><defs><style>.cls-1{fill:#f7eae4;}</style></defs><g id="Capa_2" data-name="Capa 2"><g id="Capa_1-2" data-name="Capa 1"><rect class="cls-1" y="1916.72" width="3227.43" height="4.18"/><rect class="cls-1" y="1815.73" width="3227.43" height="4.18"/><rect class="cls-1" y="1714.74" width="3227.43" height="4.18"/><rect class="cls-1" y="1613.75" width="3227.43" height="4.18"/><rect class="cls-1" y="1512.76" width="3227.43" height="4.18"/><rect class="cls-1" y="1411.77" width="3227.43" height="4.18"/><rect class="cls-1" y="1310.78" width="3227.43" height="4.18"/><rect class="cls-1" y="1209.79" width="3227.43" height="4.18"/><rect class="cls-1" y="1108.8" width="3227.43" height="4.18"/><rect class="cls-1" y="1007.81" width="3227.43" height="4.18"/><rect class="cls-1" y="906.82" width="3227.43" height="4.18"/><rect class="cls-1" y="805.83" width="3227.43" height="4.18"/><rect class="cls-1" y="704.84" width="3227.43" height="4.18"/><rect class="cls-1" y="603.85" width="3227.43" height="4.18"/><rect class="cls-1" y="502.86" width="3227.43" height="4.18"/><rect class="cls-1" y="401.87" width="3227.43" height="4.18"/><rect class="cls-1" y="300.88" width="3227.43" height="4.18"/><rect class="cls-1" y="199.89" width="3227.43" height="4.18"/><rect class="cls-1" y="98.9" width="3227.43" height="4.18"/><rect class="cls-1" x="3127.54" width="4.18" height="2019.8"/><rect class="cls-1" x="3029.74" width="4.18" height="2019.8"/><rect class="cls-1" x="2931.94" width="4.18" height="2019.8"/><rect class="cls-1" x="2834.14" width="4.18" height="2019.8"/><rect class="cls-1" x="2736.34" width="4.18" height="2019.8"/><rect class="cls-1" x="2638.54" width="4.18" height="2019.8"/><rect class="cls-1" x="2540.74" width="4.18" height="2019.8"/><rect class="cls-1" x="2442.93" width="4.18" height="2019.8"/><rect class="cls-1" x="2345.13" width="4.18" height="2019.8"/><rect class="cls-1" x="2247.33" width="4.18" height="2019.8"/><rect class="cls-1" x="2149.53" width="4.18" height="2019.8"/><rect class="cls-1" x="2051.73" width="4.18" height="2019.8"/><rect class="cls-1" x="1953.93" width="4.18" height="2019.8"/><rect class="cls-1" x="1856.13" width="4.18" height="2019.8"/><rect class="cls-1" x="1758.33" width="4.18" height="2019.8"/><rect class="cls-1" x="1660.53" width="4.18" height="2019.8"/><rect class="cls-1" x="1562.73" width="4.18" height="2019.8"/><rect class="cls-1" x="1464.93" width="4.18" height="2019.8"/><rect class="cls-1" x="1367.13" width="4.18" height="2019.8"/><rect class="cls-1" x="1269.32" width="4.18" height="2019.8"/><rect class="cls-1" x="1171.52" width="4.18" height="2019.8"/><rect class="cls-1" x="1073.72" width="4.18" height="2019.8"/><rect class="cls-1" x="975.92" width="4.18" height="2019.8"/><rect class="cls-1" x="878.12" width="4.18" height="2019.8"/><rect class="cls-1" x="780.32" width="4.18" height="2019.8"/><rect class="cls-1" x="682.52" width="4.18" height="2019.8"/><rect class="cls-1" x="584.72" width="4.18" height="2019.8"/><rect class="cls-1" x="486.92" width="4.18" height="2019.8"/><rect class="cls-1" x="389.12" width="4.18" height="2019.8"/><rect class="cls-1" x="291.31" width="4.18" height="2019.8"/><rect class="cls-1" x="193.51" width="4.18" height="2019.8"/><rect class="cls-1" x="95.71" width="4.18" height="2019.8"/></g></g></svg>