<svg xmlns="http://www.w3.org/2000/svg" xmlns:xlink="http://www.w3.org/1999/xlink" viewBox="0 0 14954.31 9358.74"><defs><style>.cls-1{fill:none;}.cls-2{clip-path:url(#clip-path);}.cls-3{fill:#fdb88c;}</style><clipPath id="clip-path" transform="translate(2084.64 1282.03)"><rect class="cls-1" width="7427" height="6083.79"/></clipPath></defs><g id="Capa_2" data-name="Capa 2"><g id="Capa_1-2" data-name="Capa 1"><g class="cls-2"><rect class="cls-3" y="8881.13" width="14954.31" height="19.35"/><rect class="cls-3" y="8413.18" width="14954.31" height="19.35"/><rect class="cls-3" y="7945.25" width="14954.31" height="19.35"/><rect class="cls-3" y="7477.31" width="14954.31" height="19.35"/><rect class="cls-3" y="7009.38" width="14954.31" height="19.35"/><rect class="cls-3" y="6541.44" width="14954.31" height="19.35"/><rect class="cls-3" y="6073.5" width="14954.31" height="19.35"/><rect class="cls-3" y="5605.57" width="14954.31" height="19.35"/><rect class="cls-3" y="5137.63" width="14954.31" height="19.35"/><rect class="cls-3" y="4669.7" width="14954.31" height="19.35"/><rect class="cls-3" y="4201.76" width="14954.31" height="19.35"/><rect class="cls-3" y="3733.81" width="14954.31" height="19.35"/><rect class="cls-3" y="3265.88" width="14954.31" height="19.35"/><rect class="cls-3" y="2797.94" width="14954.31" height="19.35"/><rect class="cls-3" y="2330.01" width="14954.31" height="19.35"/><rect class="cls-3" y="1862.07" width="14954.31" height="19.35"/><rect class="cls-3" y="1394.13" width="14954.31" height="19.35"/><rect class="cls-3" y="926.2" width="14954.31" height="19.35"/><rect class="cls-3" y="458.26" width="14954.31" height="19.35"/><rect class="cls-3" x="14491.47" width="19.35" height="9358.74"/><rect class="cls-3" x="14038.31" width="19.35" height="9358.74"/><rect class="cls-3" x="13585.14" width="19.35" height="9358.74"/><rect class="cls-3" x="13131.98" width="19.35" height="9358.74"/><rect class="cls-3" x="12678.82" width="19.35" height="9358.74"/><rect class="cls-3" x="12225.66" width="19.35" height="9358.74"/><rect class="cls-3" x="11772.5" width="19.35" height="9358.74"/><rect class="cls-3" x="11319.35" width="19.35" height="9358.74"/><rect class="cls-3" x="10866.19" width="19.35" height="9358.74"/><rect class="cls-3" x="10413.03" width="19.35" height="9358.74"/><rect class="cls-3" x="9959.87" width="19.35" height="9358.74"/><rect class="cls-3" x="9506.69" width="19.35" height="9358.74"/><rect class="cls-3" x="9053.54" width="19.35" height="9358.74"/><rect class="cls-3" x="8600.38" width="19.35" height="9358.74"/><rect class="cls-3" x="8147.22" width="19.35" height="9358.74"/><rect class="cls-3" x="7694.06" width="19.35" height="9358.74"/><rect class="cls-3" x="7240.9" width="19.35" height="9358.74"/><rect class="cls-3" x="6787.74" width="19.35" height="9358.74"/><rect class="cls-3" x="6334.58" width="19.35" height="9358.74"/><rect class="cls-3" x="5881.42" width="19.35" height="9358.74"/><rect class="cls-3" x="5428.25" width="19.35" height="9358.74"/><rect class="cls-3" x="4975.09" width="19.35" height="9358.74"/><rect class="cls-3" x="4521.93" width="19.35" height="9358.74"/><rect class="cls-3" x="4068.77" width="19.35" height="9358.74"/><rect class="cls-3" x="3615.61" width="19.35" height="9358.74"/><rect class="cls-3" x="3162.45" width="19.35" height="9358.74"/><rect class="cls-3" x="2709.29" width="19.35" height="9358.74"/><rect class="cls-3" x="2256.13" width="19.35" height="9358.74"/><rect class="cls-3" x="1802.98" width="19.35" height="9358.74"/><rect class="cls-3" x="1349.8" width="19.35" height="9358.74"/><rect class="cls-3" x="896.64" width="19.35" height="9358.74"/><rect class="cls-3" x="443.48" width="19.35" height="9358.74"/></g></g></g></svg>