<svg xmlns="http://www.w3.org/2000/svg" xmlns:xlink="http://www.w3.org/1999/xlink" viewBox="0 0 3144.81 1470.37"><defs><style>.cls-1,.cls-19,.cls-24,.cls-26{fill:none;}.cls-2{isolation:isolate;}.cls-3{clip-path:url(#clip-path);}.cls-4{clip-path:url(#clip-path-2);}.cls-5{fill:#263238;}.cls-6{fill:#b96e2b;}.cls-15,.cls-7{fill:#f5a42e;}.cls-8{fill:#a66f1f;}.cls-9{fill:#386ca6;}.cls-10{fill:#488bd6;}.cls-11{fill:#508dba;}.cls-12{fill:#62ace3;}.cls-13{fill:#3b1411;}.cls-14{fill:#96332b;}.cls-15{opacity:0.44;mix-blend-mode:multiply;}.cls-16{fill:#6c301e;}.cls-17{fill:#fff;}.cls-18{fill:#b0f0e3;}.cls-19,.cls-24,.cls-26{stroke:#fff;stroke-miterlimit:10;}.cls-19,.cls-24{stroke-linecap:round;}.cls-19,.cls-26{stroke-width:6.32px;}.cls-20{fill:#7a5217;}.cls-21{fill:#ffc9b9;}.cls-22{fill:#495358;}.cls-23{fill:#ff9979;}.cls-24{stroke-width:6.47px;}.cls-25{fill:#ffab91;}</style><clipPath id="clip-path" transform="translate(-165.09 -34.69)"><rect class="cls-1" width="1191.89" height="767.64"/></clipPath><clipPath id="clip-path-2" transform="translate(-165.09 -34.69)"><rect class="cls-1" width="3632.64" height="767.64"/></clipPath></defs><g class="cls-2"><g id="Capa_2" data-name="Capa 2"><g id="Capa_1-2" data-name="Capa 1"><g class="cls-3"><g class="cls-4"><path class="cls-5" d="M1584.36,1347.07H175a9.88,9.88,0,0,1,0-19.75h1409.4a9.88,9.88,0,0,1,0,19.75Z" transform="translate(-165.09 -34.69)"/><path class="cls-6" d="M885.37,329.57a13.63,13.63,0,0,0-5.4.59c-13.11,3.41-26.15,9.58-36.61,18.28-11,9.12-.15,20.29,10.48,12.15,3.07-2.36,5.42-5.52,8.12-8.3A44.2,44.2,0,0,1,881,340.73c2.11-.63,4.32-1.12,6.11-2.39s3.09-3.57,2.4-5.66A5.06,5.06,0,0,0,885.37,329.57Z" transform="translate(-165.09 -34.69)"/><path class="cls-6" d="M893.85,339.74a13.6,13.6,0,0,0-5.4.6c-13.11,3.4-26.15,9.57-36.61,18.27-11,9.13-.16,20.29,10.47,12.15,3.08-2.36,5.43-5.51,8.12-8.3A44.27,44.27,0,0,1,889.5,350.9a20.45,20.45,0,0,0,6.11-2.38c1.79-1.27,3.08-3.58,2.4-5.67A5.09,5.09,0,0,0,893.85,339.74Z" transform="translate(-165.09 -34.69)"/><path class="cls-6" d="M893.61,352.63a13.62,13.62,0,0,0-5.4.6c-13.11,3.4-26.15,9.57-36.61,18.27-11,9.13-.16,20.29,10.47,12.15,3.08-2.36,5.43-5.51,8.12-8.3a44.37,44.37,0,0,1,19.07-11.56c2.1-.62,4.31-1.11,6.11-2.38s3.09-3.58,2.4-5.67A5.09,5.09,0,0,0,893.61,352.63Z" transform="translate(-165.09 -34.69)"/><path class="cls-6" d="M884,367a11,11,0,0,1,4.4-.48,4.14,4.14,0,0,1,3.4,2.54c.56,1.7-.49,3.59-2,4.62a16.74,16.74,0,0,1-5,1.95A36.13,36.13,0,0,0,869.32,385c-2.2,2.27-4.11,4.85-6.62,6.77-8.68,6.65-17.52-2.47-8.56-9.92A77.9,77.9,0,0,1,884,367Z" transform="translate(-165.09 -34.69)"/><path class="cls-6" d="M842.08,349.62a67.16,67.16,0,0,0-11.9,18c-3.59,7.58-5.06,16.54-2.16,24.42s10.89,14.12,19.24,13.32c5-.48,9.5-3.28,13-6.82a33.91,33.91,0,0,0-7-53.33Z" transform="translate(-165.09 -34.69)"/><path class="cls-7" d="M521.78,330.78c-1.93,19.31,5.27,38.58,16,54s24.9,27.63,38.88,39.65l109.75,94.38c6.54,5.63,13.36,11.4,21.5,13.48,12.45,3.18,25.28-2.87,36.59-9.48a334.46,334.46,0,0,0,92.17-80.21c7.94-9.95,15.81-22.07,14-35C849,395.94,839.34,387,828.79,384.16s-21.78-.7-32.18,2.93c-28.43,9.92-52.71,30.15-76.36,50-33.58-26.55-71-55.87-101-87-13.46-14-26.79-29.28-44.35-36.16S523.81,310.6,521.78,330.78Z" transform="translate(-165.09 -34.69)"/><path class="cls-7" d="M844.4,416.73c1.92-2.94,5.15-4.68,8.09-6.6s5.87-4.42,6.55-7.86a12.4,12.4,0,0,0-.76-6.3,35.3,35.3,0,0,0-30.61-23.36,56,56,0,0,0-13.78,19.65Z" transform="translate(-165.09 -34.69)"/><path class="cls-8" d="M717.31,437a58,58,0,0,0-7.2,45.55c.47,1.77,3.29,1.28,2.82-.51a55.1,55.1,0,0,1,6.71-43.37C720.63,437.14,718.3,435.47,717.31,437Z" transform="translate(-165.09 -34.69)"/><path class="cls-8" d="M714.43,456.15a27.64,27.64,0,0,0,.07,17.18,1.43,1.43,0,1,0,2.59-1.21,24.35,24.35,0,0,1,0-15C717.68,455.41,715,454.4,714.43,456.15Z" transform="translate(-165.09 -34.69)"/><path class="cls-8" d="M819,381.37c-1.83.24-1.32,3.05.51,2.82a25.48,25.48,0,0,1,28.79,22.44c.23,1.82,3,1.31,2.82-.51A28.36,28.36,0,0,0,819,381.37Z" transform="translate(-165.09 -34.69)"/><path class="cls-9" d="M606.78,677.65C503.34,690,504.86,754.49,504.86,754.49l58,248.91,47.34,226.54h54.5c4.84-84.38,9.85-185,7.82-228.66C664,817.84,606.78,677.65,606.78,677.65Z" transform="translate(-165.09 -34.69)"/><path class="cls-10" d="M610.2,1229.94l3.47,27.21H663q.93-13.65,1.7-27.21Z" transform="translate(-165.09 -34.69)"/><path class="cls-6" d="M617.74,1257.15c0,7.33.06,14.45.14,21.3h39l2.18-21.3Z" transform="translate(-165.09 -34.69)"/><path class="cls-7" d="M615.27,1275.26l45.7-1.37c12.73,14.43,89.41,32.59,93.85,52H604.72A227.63,227.63,0,0,1,615.27,1275.26Z" transform="translate(-165.09 -34.69)"/><path class="cls-8" d="M754.82,1325.89c.43,1.86.86,3.71,1.2,5.59.53,3-1.49,5.72-4.25,5.72H608.53a4.59,4.59,0,0,1-4.35-5.07c.15-2.09.34-4.17.54-6.24Z" transform="translate(-165.09 -34.69)"/><path class="cls-11" d="M532.66,750.79s46-32.1,51.4-60.19l-172.72,6.69s-39.5,212.08-28.07,532.65h54.26Z" transform="translate(-165.09 -34.69)"/><path class="cls-12" d="M383.27,1229.94c-.07,9.36-.1,18.46-.07,27.21h48.93l5.4-27.21Z" transform="translate(-165.09 -34.69)"/><path class="cls-6" d="M387.25,1257.15c0,7.33.06,14.45.15,21.3h39l2.18-21.3Z" transform="translate(-165.09 -34.69)"/><path class="cls-7" d="M428.65,1275.26l-45.7-1.37a119.07,119.07,0,0,0-26.25,52h82.51A227.65,227.65,0,0,0,428.65,1275.26Z" transform="translate(-165.09 -34.69)"/><path class="cls-8" d="M356.7,1325.89c-.42,1.86-.86,3.71-1.2,5.59-.53,3,1.5,5.72,4.26,5.72H435.4a4.58,4.58,0,0,0,4.34-5.07q-.23-3.14-.53-6.24Z" transform="translate(-165.09 -34.69)"/><path class="cls-9" d="M568.24,718.83c9.13-10,17.12-21.38,19.2-32.19l-174.55-9s-1.41,20.43-2.08,28.92C462.85,719.76,516.08,724.69,568.24,718.83Z" transform="translate(-165.09 -34.69)"/><path class="cls-9" d="M423.46,1042.79c-5.66-10.6-11.59-20.93-16.28-32.11s-8.14-23-11.57-34.88c-.42-1.45-2.31-.84-2.06.62,2.05,12.28,6.14,24.23,10.77,35.61s10,22.72,17.13,32.45C422.37,1045.74,424.18,1044.13,423.46,1042.79Z" transform="translate(-165.09 -34.69)"/><path class="cls-13" d="M474.88,268.16c-.66-11.09-1.32-22.21-3-33.2a178.69,178.69,0,0,0-7.94-31.8c-3.64,1.05-7.34-3.48-9.39-6.66a9.12,9.12,0,0,1,.73-10.58c1.12-1.32,2.63-2.29,3.65-3.69,3.11-4.29.56-10.24-2-14.91s-4.79-10.83-1.32-14.85c4.43-5.13,12.79-1.22,19.49-2.24,7.77-1.19,12.45-8.9,16.95-15.35,3.22-4.61,7-9.09,12.19-11.36s11.89-1.74,15.54,2.54c2,2.32,2.9,5.48,5.17,7.53,4.47,4,11.45,1.92,17.32.5s14.06-.41,15.13,5.53c.68,3.79-2.18,7.38-2.17,11.22,0,6,6.5,9.58,12.07,11.8s12.08,5.64,12.3,11.63c.26,7.13-9,12.13-8.28,19.24.37,3.74,3.41,6.54,5.65,9.55s3.68,7.59,1,10.27-7.77,1.88-9.51,5.13c-2.16,4,3.69,9.14,1.47,13.14-1.15,2.09-4,2.58-6.33,1.87s-4.14-2.32-6.13-3.64c-11.07-7.37-27.49-5.14-36.2,4.92-4.45,5.15-6.83,11.7-9.62,17.91s-6.34,12.47-12.17,16S478.78,273.74,474.88,268.16Z" transform="translate(-165.09 -34.69)"/><path class="cls-14" d="M571.35,193.51c-.7-7.11,8.54-12.11,8.28-19.24-.22-6-6.74-9.41-12.3-11.63s-12.06-5.8-12.07-11.8c0-3.84,2.85-7.43,2.17-11.22-1.07-5.94-9.26-7-15.13-5.53s-12.85,3.55-17.32-.5c-2.27-2.05-3.18-5.21-5.17-7.53-3.65-4.28-10.39-4.8-15.54-2.54s-9,6.75-12.19,11.36c-4.5,6.45-9.18,14.16-16.95,15.35-6.7,1-15.06-2.89-19.49,2.24-3.47,4-1.19,10.18,1.32,14.85s5.06,10.62,2,14.91c-1,1.4-2.53,2.37-3.65,3.69a9.12,9.12,0,0,0-.73,10.58c2.05,3.18,5.75,7.71,9.39,6.66,1.93,5.52,3.57,11.14,4.95,16.82a47.31,47.31,0,0,0-.67-13.19c-1.29-5.95-7.73-9.88-4.59-16.61,1-2.15,3.72-4.83,3.73-7.12,0-1.37-1.51-3.42-2.13-4.61a44.79,44.79,0,0,1-2.14-4.48,12.24,12.24,0,0,1,7-16.18c4.73-1.83,11.17.63,15.3-2.42,2.85-2.11,4.77-5.5,6.66-8.43,3.65-5.63,8.12-13.36,15.83-13.15,4.61.12,8.46,3.11,11.66,6.13,1.4,1.32,3,3.16,5,3.52,1.74.32,3.76-.45,5.42-.84,4.45-1,9.91-2.45,13.68,1.06,3.31,3.07,3.45,8,4,12.19.8,5.64,3.8,7.58,9.07,9,4.59,1.25,9.52,3.11,11,8.16.95,3.32.15,6.69-.73,9.93-.69,2.5-1.5,5.06-.33,7.53,1.92,4.08,5.43,7.42,4.42,12.37-.77,3.78-3.85,5.55-6,8.44-2.8,3.77.54,8.93-.72,13.29-.78,2.71-2.56,4.85-4.21,7.06a13.41,13.41,0,0,0,3.5,1.82c2.28.71,5.18.22,6.33-1.87,2.22-4-3.63-9.11-1.47-13.14,1.74-3.25,6.93-2.51,9.51-5.13s1.21-7.26-1-10.27S571.72,197.25,571.35,193.51Z" transform="translate(-165.09 -34.69)"/><path class="cls-15" d="M653.26,382.26H536.11c.55.85,1.12,1.7,1.7,2.53,10.76,15.43,24.9,27.63,38.88,39.65l109.75,94.38c6.54,5.63,13.36,11.4,21.5,13.48a29.18,29.18,0,0,0,9.19.8V434.62C696.27,418.13,674.13,400.62,653.26,382.26Z" transform="translate(-165.09 -34.69)"/><path class="cls-7" d="M602.53,347.48a36.77,36.77,0,0,0-22.7-32C552,303.89,521,300.05,490.75,302,463,303.71,435.87,310,409.36,318.5a36.93,36.93,0,0,0-25,41.07,1605.32,1605.32,0,0,1,18.9,312.54c-.27,6.75-.9,16.48,5.56,18.49,59.39,18.53,144.07,21.58,200.59,6.53,14-3.74,3-16.66,3-31.17C612.68,562.13,607.88,450.23,602.53,347.48Z" transform="translate(-165.09 -34.69)"/><path class="cls-15" d="M612.4,666c.25-92.23-3.51-190.81-8.1-283.7H387.75a1602,1602,0,0,1,15.48,289.85c-.15,3.76-.41,8.43.5,12.19H615.86C614.71,679,612.38,672.67,612.4,666Z" transform="translate(-165.09 -34.69)"/><path class="cls-8" d="M566.3,677.78a143.13,143.13,0,0,1-72.14-12.17,142.2,142.2,0,0,1-71.92-74.56c-.71-1.69-3.23-.35-2.53,1.34A145.77,145.77,0,0,0,460,647.28a143.79,143.79,0,0,0,65,31.18,146.35,146.35,0,0,0,42,2.11C568.77,680.4,568.12,677.61,566.3,677.78Z" transform="translate(-165.09 -34.69)"/><path class="cls-8" d="M520.72,331.65A59.66,59.66,0,0,1,464.32,318c-1.34-1.26-3.46.66-2.11,1.93a62.54,62.54,0,0,0,59.14,14.47C523.12,333.94,522.49,331.14,520.72,331.65Z" transform="translate(-165.09 -34.69)"/><path class="cls-6" d="M472,236a345.34,345.34,0,0,1-1.6,69.46,12.67,12.67,0,0,0,5.24,11.95,51.76,51.76,0,0,0,36.87,8.8,12.51,12.51,0,0,0,10.47-13.44,412.22,412.22,0,0,1-1.26-44.64C509,252.09,491.42,242.28,472,236Z" transform="translate(-165.09 -34.69)"/><path class="cls-16" d="M521.68,268.15C509,252.09,491.42,242.28,472,236q1.16,14.79,1,29.64c8.81,24.12,24.75,47.1,46.25,57.13a12.67,12.67,0,0,0,3.72-10A412.22,412.22,0,0,1,521.68,268.15Z" transform="translate(-165.09 -34.69)"/><path class="cls-6" d="M553.81,198.31c4.31,32.3-9.07,92.08-26.82,90.13-24.11-3.43-46.27-22.56-52.66-46.05.11.4-2.62,1.92-5.42,1.76s-6.42-3.42-7.93-5.68c-2.91-4.37-5.88-11.18-2.74-16.18,3.77-6,12.13-7.23,15.66-.17-.26-11.81,3.59-22.74,7.69-33.77a12.56,12.56,0,0,1,7.56-7.52c17-5.94,38-6.21,55.05-.8a10.78,10.78,0,0,1,7,7.08A74.79,74.79,0,0,1,553.81,198.31Z" transform="translate(-165.09 -34.69)"/><path class="cls-13" d="M519.25,200.33c-5.2-6.6-19.49-2.05-24.76,2.19-1,.77-2.12,1.76-2,3.13a1.64,1.64,0,0,0,1.16,1.53c1.62.46,3.15-.88,4.5-1.58a22.65,22.65,0,0,1,13-2.5c2.38.25,4.67,1.37,7.08,1C520.14,203.82,520.17,201.49,519.25,200.33Z" transform="translate(-165.09 -34.69)"/><path class="cls-13" d="M511.65,211.9a2.4,2.4,0,0,0-.66-1,2.51,2.51,0,0,0-1-.65,2.35,2.35,0,0,0-1.22-.27l-.85.11a3.25,3.25,0,0,0-1.4.81l-.49.65a3.21,3.21,0,0,0-.44,1.6v.34a2.44,2.44,0,0,0,.28,1.22,2.21,2.21,0,0,0,.65,1,2.43,2.43,0,0,0,1,.66,2.36,2.36,0,0,0,1.23.27l.84-.11a3.06,3.06,0,0,0,1.4-.82l.5-.64a3.2,3.2,0,0,0,.43-1.6v-.34A2.31,2.31,0,0,0,511.65,211.9Z" transform="translate(-165.09 -34.69)"/><path class="cls-13" d="M546.38,213.86a2.32,2.32,0,0,0-.65-1,2.43,2.43,0,0,0-1-.66,2.47,2.47,0,0,0-1.23-.27l-.84.11a3.31,3.31,0,0,0-1.4.82l-.5.64a3.22,3.22,0,0,0-.43,1.6v.35a2.35,2.35,0,0,0,.27,1.22,3.25,3.25,0,0,0,2.9,1.95l.85-.11a3.37,3.37,0,0,0,1.4-.82l.49-.64a3.13,3.13,0,0,0,.44-1.6v-.35A2.46,2.46,0,0,0,546.38,213.86Z" transform="translate(-165.09 -34.69)"/><path class="cls-13" d="M552.67,204.91c-1.23-2.39-3.88-3.62-6.42-4.3a15.09,15.09,0,0,0-7.52-.14,2.38,2.38,0,0,0-1.7,2.61c.26,1.93,1.9,2,3.42,2a15.24,15.24,0,0,1,5.94,1.1c1.29.54,8,3.91,6.67-.35A6.61,6.61,0,0,0,552.67,204.91Z" transform="translate(-165.09 -34.69)"/><path class="cls-16" d="M523.76,268.6a11,11,0,0,0-3.08,0,20.77,20.77,0,0,1-2.72-.17,24.7,24.7,0,0,1-2.82-.57,8.79,8.79,0,0,0-3-.61,1.24,1.24,0,0,0-.87,2.08,5.78,5.78,0,0,0,2.94,1.62,18,18,0,0,0,3.08.75,25.94,25.94,0,0,0,3.3.3,7.16,7.16,0,0,0,3.57-.46A1.63,1.63,0,0,0,523.76,268.6Z" transform="translate(-165.09 -34.69)"/><path class="cls-16" d="M471.29,234.24a2,2,0,0,1-2.63-1.33,1.9,1.9,0,0,1,.56-1.54,1.81,1.81,0,0,1,1.4-.71,1.28,1.28,0,0,0,1.22-1.61c-.95-3.39-3.66-6.86-7.58-6.47a4.9,4.9,0,0,0-4.05,2.77,3.61,3.61,0,0,0-.21,2.38c.12.46.7,1.65,1.36,1.06.39-.36.26-.88.39-1.34a4.92,4.92,0,0,1,.62-1.36,2.69,2.69,0,0,1,2.57-1.08c2,.19,3.27,1.76,4,3.5a4.17,4.17,0,0,0-2.39,4.84,4.38,4.38,0,0,0,5.31,3C473.22,235.94,472.62,233.79,471.29,234.24Z" transform="translate(-165.09 -34.69)"/><path class="cls-16" d="M537.39,232.61a40,40,0,0,1-4.91-10.33c-.53-1.75-3.33-1.13-2.78.64a42.57,42.57,0,0,0,3.73,8.7,44.09,44.09,0,0,0,2.69,4.12c.92,1.26,2,2.41,2.83,3.74s1.4,2.67.59,4a7.26,7.26,0,0,1-3.37,2.43,22.59,22.59,0,0,1-10,2c-1.84,0-2,2.82-.13,2.86a26,26,0,0,0,11.23-2.24c2.9-1.3,5.83-3.48,5.46-7S539.25,235.39,537.39,232.61Z" transform="translate(-165.09 -34.69)"/><path class="cls-13" d="M529.72,258.36a20.66,20.66,0,0,1-20.48-6.29c-1.22-1.39-3.33.55-2.11,1.93a23.55,23.55,0,0,0,23.23,7.15C532.14,260.69,531.51,257.9,529.72,258.36Z" transform="translate(-165.09 -34.69)"/><path class="cls-17" d="M510.93,232.86a16.23,16.23,0,1,1,16.23-16.22A16.25,16.25,0,0,1,510.93,232.86Zm0-30.31A14.09,14.09,0,1,0,525,216.64,14.1,14.1,0,0,0,510.93,202.55Z" transform="translate(-165.09 -34.69)"/><path class="cls-17" d="M550,232.86a16.23,16.23,0,1,1,16.23-16.22A16.25,16.25,0,0,1,550,232.86Zm0-30.31a14.09,14.09,0,1,0,14.08,14.09A14.1,14.1,0,0,0,550,202.55Z" transform="translate(-165.09 -34.69)"/><path class="cls-17" d="M535.07,211.12c-.75-1.52-2.71-2.09-4.24-2a14.23,14.23,0,0,0-5.4,2l-1-1.9a16.19,16.19,0,0,1,6.25-2.19c2.27-.18,5.12.75,6.31,3.18Z" transform="translate(-165.09 -34.69)"/><path class="cls-17" d="M472.5,219.47l-.87-2a57.82,57.82,0,0,1,24.59-4.89l-.05,2.15A55.5,55.5,0,0,0,472.5,219.47Z" transform="translate(-165.09 -34.69)"/><rect class="cls-18" x="36.61" y="358.69" width="500.83" height="274.42"/><line class="cls-19" x1="216.11" y1="495.9" x2="512.74" y2="495.9"/><line class="cls-19" x1="216.11" y1="514.22" x2="512.74" y2="514.22"/><line class="cls-19" x1="216.11" y1="532.53" x2="512.74" y2="532.53"/><line class="cls-19" x1="348.88" y1="550.84" x2="512.74" y2="550.84"/><polygon class="cls-17" points="497.58 402.31 505.27 417.88 522.45 420.38 510.02 432.5 512.95 449.62 497.58 441.54 482.21 449.62 485.15 432.5 472.71 420.38 489.9 417.88 497.58 402.31"/><polygon class="cls-17" points="414.55 402.31 422.23 417.88 439.42 420.38 426.98 432.5 429.92 449.62 414.55 441.54 399.18 449.62 402.11 432.5 389.68 420.38 406.86 417.88 414.55 402.31"/><polygon class="cls-17" points="331.51 402.31 339.2 417.88 356.38 420.38 343.95 432.5 346.88 449.62 331.51 441.54 316.14 449.62 319.08 432.5 306.64 420.38 323.83 417.88 331.51 402.31"/><polygon class="cls-17" points="248.48 402.31 256.17 417.88 273.35 420.38 260.92 432.5 263.85 449.62 248.48 441.54 233.11 449.62 236.04 432.5 223.61 420.38 240.79 417.88 248.48 402.31"/><rect class="cls-17" x="79.27" y="385.43" width="107.69" height="153.06"/><path class="cls-6" d="M441,681.2a13.73,13.73,0,0,0-.85-5.36c-4-12.94-10.78-25.68-20-35.73-9.63-10.53-20.28.8-11.65,11,2.5,3,5.76,5.17,8.67,7.73a44.2,44.2,0,0,1,12.43,18.51c.73,2.07,1.32,4.25,2.67,6s3.72,2.92,5.77,2.13A5.08,5.08,0,0,0,441,681.2Z" transform="translate(-165.09 -34.69)"/><path class="cls-6" d="M431.26,690.14a13.55,13.55,0,0,0-.85-5.36c-4-12.94-10.78-25.68-20-35.73-9.63-10.53-20.27.79-11.65,11,2.5,3,5.76,5.16,8.67,7.73a44.23,44.23,0,0,1,12.43,18.5c.73,2.08,1.32,4.26,2.67,6s3.72,2.91,5.77,2.13A5.07,5.07,0,0,0,431.26,690.14Z" transform="translate(-165.09 -34.69)"/><path class="cls-6" d="M418.37,690.5a13.55,13.55,0,0,0-.85-5.36c-4-12.94-10.78-25.68-20-35.73-9.62-10.53-20.27.8-11.64,11,2.49,3,5.76,5.17,8.66,7.73A44.22,44.22,0,0,1,407,686.68a20.57,20.57,0,0,0,2.66,6c1.35,1.73,3.72,2.92,5.77,2.13A5.06,5.06,0,0,0,418.37,690.5Z" transform="translate(-165.09 -34.69)"/><path class="cls-6" d="M403.61,681.61a11,11,0,0,1,.69,4.38,4.14,4.14,0,0,1-2.38,3.51c-1.67.64-3.61-.33-4.71-1.74a16.64,16.64,0,0,1-2.18-4.9,36.14,36.14,0,0,0-10.15-15.11c-2.37-2.09-5-3.88-7.07-6.3-7.05-8.36,1.64-17.61,9.51-9A77.92,77.92,0,0,1,403.61,681.61Z" transform="translate(-165.09 -34.69)"/><path class="cls-6" d="M419,638.89a67.43,67.43,0,0,0-18.49-11c-7.75-3.23-16.76-4.28-24.5-1s-13.6,11.53-12.41,19.84c.71,5,3.72,9.33,7.42,12.7A33.92,33.92,0,0,0,424,649.87Z" transform="translate(-165.09 -34.69)"/><path class="cls-7" d="M422.89,318.06c-19.38-1-38.3,7.06-53.21,18.53s-26.44,26.16-37.8,40.68l-89.17,114c-5.31,6.79-10.76,13.87-12.46,22.1-2.59,12.58,4,25.11,11.18,36.1a334.42,334.42,0,0,0,84.41,88.35c10.31,7.46,22.79,14.76,35.62,12.31,11.57-2.21,20-12.27,22.4-22.94s-.31-21.79-4.42-32c-11.24-27.94-32.58-51.26-53.51-74,25-34.78,52.51-73.5,82.25-104.92,13.34-14.1,28-28.13,34.06-46S443.14,319.14,422.89,318.06Z" transform="translate(-165.09 -34.69)"/><path class="cls-7" d="M352.05,644.34c3,1.77,4.91,4.92,7,7.76s4.69,5.67,8.15,6.19a12.57,12.57,0,0,0,6.26-1.06,35.34,35.34,0,0,0,21.92-31.67,56.16,56.16,0,0,0-20.28-12.84Z" transform="translate(-165.09 -34.69)"/><path class="cls-8" d="M325.86,518.32A58,58,0,0,0,280,513.26c-1.75.54-1.13,3.34.64,2.78a55.13,55.13,0,0,1,43.64,4.69C325.9,521.64,327.46,519.24,325.86,518.32Z" transform="translate(-165.09 -34.69)"/><path class="cls-8" d="M306.62,516.34a27.61,27.61,0,0,0-17.16.87,1.44,1.44,0,0,0-.6,1.93,1.46,1.46,0,0,0,1.94.6,24.38,24.38,0,0,1,14.94-.68C307.51,519.55,308.4,516.83,306.62,516.34Z" transform="translate(-165.09 -34.69)"/><path class="cls-8" d="M386.18,617.26c-.32-1.81-3.1-1.17-2.79.64a25.5,25.5,0,0,1-21.07,29.81c-1.81.31-1.17,3.1.64,2.79a28.35,28.35,0,0,0,23.22-33.24Z" transform="translate(-165.09 -34.69)"/><rect class="cls-18" x="681.92" y="171.52" width="160.68" height="150.37"/><path class="cls-6" d="M835.23,371c4.21.08,8.65.12,12.32-1.94s6.1-7,4-10.6c6-3.76,10.58-10.47,13.59-17.3a1.71,1.71,0,0,0-2.48-2.1c-9.65,6-19.45,11.63-27.35,19.89C832.92,361.4,833.71,367.87,835.23,371Z" transform="translate(-165.09 -34.69)"/><path class="cls-17" d="M954.29,268.07a13.73,13.73,0,0,0-12.18-10.74c-5.23-.38-10.33,2.21-14.76,5.65-4.4-3.44-9.5-6-14.73-5.65a13.77,13.77,0,0,0-12.21,10.74c-1.64,7.33,2.4,14.72,6.8,20.12a72.11,72.11,0,0,0,19.67,17,2.22,2.22,0,0,0,.47.29l.47-.29a72.67,72.67,0,0,0,19.7-17C951.9,282.79,955.93,275.4,954.29,268.07Z" transform="translate(-165.09 -34.69)"/><path class="cls-7" d="M3048.69,507.57c11.93,21.59,22.94,42.62,33.22,63.92-8.61,20.1-23.28,39.47-42.23,51q-18.63-29.44-35.22-60.1Z" transform="translate(-165.09 -34.69)"/><path class="cls-7" d="M3058.75,767.64c-31.5-72.11-30.83-51.24-37.19-90.69-8.52-52.86,10.75-106.18,26.76-157.3a21.46,21.46,0,0,0-7.73-23.73c-14.32-10.39-79.38-46.82-167.41-1.87-5.91,3-8,10.71-7.73,17.49.88,22.05,1.29,44.83,5.25,66.8,4.33,24,12.33,47.28,15.63,71.35a348.7,348.7,0,0,1,3.57,46.12c.11,30.81-27.9,62.78-29.15,94C2925.51,800.12,2997.08,793.45,3058.75,767.64Z" transform="translate(-165.09 -34.69)"/><path class="cls-20" d="M2860.75,789.78a49.24,49.24,0,0,0,.34,8.49c77.72,14.81,131.4,11.81,202.28-19.94-1.62-3.8-3.14-7.31-4.62-10.69C2997.08,793.45,2925.51,800.12,2860.75,789.78Z" transform="translate(-165.09 -34.69)"/><path class="cls-21" d="M2983.87,497.06c-2.84,3.19-7.12,5.79-11.34,8.34l-33.06,20a13.69,13.69,0,0,1-6.21,2.37c-4.3.3-7.49-2.34-9.44-4.72-5.63-6.9-9.26-14.59-8.34-22.29s6.8-15.37,17.14-19.75C2949.76,473.74,3000.24,478.69,2983.87,497.06Z" transform="translate(-165.09 -34.69)"/><path class="cls-21" d="M2628.67,591.73a15.29,15.29,0,0,1-4.81-3.8,5.73,5.73,0,0,1-.88-5.81c1.11-2.23,4-3.06,6.43-2.65s4.62,1.76,6.81,2.93a50,50,0,0,0,24.53,5.85c4.38-.1,8.77-.77,13.12-.22,15,1.89,14.86,19.47-1.22,18.09C2657.32,604.81,2641.93,599.41,2628.67,591.73Z" transform="translate(-165.09 -34.69)"/><path class="cls-21" d="M2629.94,576.82a15.62,15.62,0,0,1-4.82-3.81,5.74,5.74,0,0,1-.87-5.81c1.1-2.23,4-3.06,6.43-2.65s4.62,1.77,6.81,2.94a50,50,0,0,0,24.52,5.84c4.38-.09,8.78-.77,13.13-.22,15,1.89,14.85,19.47-1.23,18.1C2658.58,589.89,2643.19,584.49,2629.94,576.82Z" transform="translate(-165.09 -34.69)"/><path class="cls-21" d="M2640.37,566.64a15.47,15.47,0,0,1-4.81-3.81,5.72,5.72,0,0,1-.88-5.81c1.11-2.23,4-3.06,6.43-2.65s4.62,1.76,6.81,2.93a50,50,0,0,0,24.53,5.85c4.38-.1,8.77-.77,13.12-.22,15,1.89,14.86,19.47-1.22,18.1C2669,579.71,2653.63,574.31,2640.37,566.64Z" transform="translate(-165.09 -34.69)"/><path class="cls-21" d="M2654.64,558.9a12.68,12.68,0,0,1-3.93-3.1,4.69,4.69,0,0,1-.71-4.75c.9-1.81,3.25-2.49,5.25-2.16a18.6,18.6,0,0,1,5.56,2.4,40.91,40.91,0,0,0,20,4.77c3.57-.08,7.16-.63,10.71-.18,12.27,1.55,12.13,15.9-1,14.77A88,88,0,0,1,2654.64,558.9Z" transform="translate(-165.09 -34.69)"/><path class="cls-21" d="M2674.61,606.19a76,76,0,0,0,23.84-5c8.92-3.25,17.22-9.29,21.14-17.93s2.47-20-4.89-26c-4.39-3.57-10.25-4.9-15.9-4.86a38.34,38.34,0,0,0-36.73,48.47Z" transform="translate(-165.09 -34.69)"/><path class="cls-21" d="M2690.54,583.18l90,90.52c5.71,5.75,11.55,11.58,19,15s16.86,4.2,24.91-.19c13.52-7.36,17.56-26.34,12.21-39.15s-17.2-20.9-28.59-28.42l-98.32-65Z" transform="translate(-165.09 -34.69)"/><path class="cls-22" d="M2913.46,284.63c-10.29,2.57-19.9,7-27.25,14.51-14.86,15.13-19.05,37.74-19.71,58.16-1.2,36.74,7.25,73.28,24.15,104.49,38,13.41,80.37,10.17,117.89-8.27,5.59-27.54,13-57.38,10.83-85.07-2.3-29.64-14.49-71.65-45.76-82.79-8.69-3.1-18-4-27.24-4.13C2935.89,281.32,2924.3,281.92,2913.46,284.63Z" transform="translate(-165.09 -34.69)"/><path class="cls-5" d="M2915.76,295c-9.71,2.42-18.79,6.64-25.72,13.7-14,14.28-18,35.62-18.61,54.9-1.13,34.68,6.85,69.17,22.8,98.63,35.84,12.67,75.87,9.6,111.29-7.8,5.27-26,12.26-54.17,10.22-80.31-2.18-28-13.68-67.64-43.19-78.15-8.21-2.92-17-3.73-25.72-3.9C2936.94,291.84,2926,292.41,2915.76,295Z" transform="translate(-165.09 -34.69)"/><path class="cls-21" d="M2978.86,395.51a563.85,563.85,0,0,0-4.4,77.23c.07,5.21-1.8,10.22-4.92,13-8.63,7.67-19.12,10.57-28.59,7.74-4.82-1.43-7.77-8.29-6.84-15.5,2.15-16.55,3.58-32.31,4.56-49.52A80.41,80.41,0,0,1,2978.86,395.51Z" transform="translate(-165.09 -34.69)"/><path class="cls-23" d="M2938.67,428.46a80.41,80.41,0,0,1,40.19-32.95q-1.28,10.1-2.18,20.26c-10.38,20.67-25.13,41.22-41.21,50.61C2936.86,453.93,2937.92,441.61,2938.67,428.46Z" transform="translate(-165.09 -34.69)"/><path class="cls-21" d="M2891.72,359.32c.64,40.78,21.62,83.32,32.19,82.42,35.08-3,49.89-40,50-40.48-.12.45,5.61,2,8.72,1.81s7.15-3.8,8.84-6.32c3.25-4.87,6.55-12.45,3.06-18-4.21-6.69-16.08-7.58-20,.29-15.14-17.47-8.77-30-11.87-44.63-19.91-9-43-9.45-64.28-2.59C2894.84,332.94,2891.66,355.56,2891.72,359.32Z" transform="translate(-165.09 -34.69)"/><path class="cls-13" d="M2935.05,367.15a3.16,3.16,0,0,1,1.87-1.87,2.66,2.66,0,0,1,1.36-.3l.94.13a3.5,3.5,0,0,1,1.56.9l.56.72a3.6,3.6,0,0,1,.48,1.78v.38a2.65,2.65,0,0,1-.31,1.36,3.16,3.16,0,0,1-1.87,1.87,2.65,2.65,0,0,1-1.36.31l-.94-.13a3.64,3.64,0,0,1-1.56-.91l-.55-.71a3.51,3.51,0,0,1-.48-1.79v-.38A2.66,2.66,0,0,1,2935.05,367.15Z" transform="translate(-165.09 -34.69)"/><path class="cls-13" d="M2900.62,369.34a2.57,2.57,0,0,1,.73-1.14,2.76,2.76,0,0,1,1.14-.73,2.64,2.64,0,0,1,1.36-.3l.94.13a3.5,3.5,0,0,1,1.56.9l.55.72a3.5,3.5,0,0,1,.48,1.78v.38a2.64,2.64,0,0,1-.3,1.36,2.76,2.76,0,0,1-.73,1.14,2.57,2.57,0,0,1-1.14.73,2.67,2.67,0,0,1-1.36.31l-.94-.13a3.52,3.52,0,0,1-1.56-.91l-.55-.71a3.52,3.52,0,0,1-.49-1.79v-.38A2.67,2.67,0,0,1,2900.62,369.34Z" transform="translate(-165.09 -34.69)"/><path class="cls-23" d="M2980,392a2.25,2.25,0,0,0,2.92-1.48,2.1,2.1,0,0,0-.62-1.72,2,2,0,0,0-1.55-.79,1.43,1.43,0,0,1-1.36-1.79c1.06-3.78,4.08-7.65,8.44-7.21a5.44,5.44,0,0,1,4.5,3.08,3.93,3.93,0,0,1,.24,2.66c-.13.51-.78,1.84-1.51,1.17-.43-.39-.3-1-.44-1.48a5.23,5.23,0,0,0-.69-1.52,3,3,0,0,0-2.86-1.21c-2.22.22-3.64,2-4.47,3.91a4.62,4.62,0,0,1,2.67,5.38,4.89,4.89,0,0,1-5.92,3.35C2977.85,393.93,2978.52,391.54,2980,392Z" transform="translate(-165.09 -34.69)"/><path class="cls-5" d="M2925.23,348a39.45,39.45,0,0,1,21.37,2.85c1.91.82.4,3.67-1.51,2.86a36.39,36.39,0,0,0-19.72-2.48,1.63,1.63,0,0,1-1.69-1.54A1.66,1.66,0,0,1,2925.23,348Z" transform="translate(-165.09 -34.69)"/><path class="cls-5" d="M2893.21,352.49a14.86,14.86,0,0,1,13.55-2.49,1.61,1.61,0,1,1-.94,3.09,14.4,14.4,0,0,0-1.47-.38l-.22,0-.22,0c-.24,0-.48-.06-.72-.07a12.83,12.83,0,0,0-1.52,0l-.39,0-.18,0-.28,0-.4.06c-.47.09-.94.2-1.4.33l-.69.22-.1,0,0,0-.37.15a14,14,0,0,0-1.28.65l-.68.42-.2.14-.24.19a1.67,1.67,0,0,1-2.29-.08A1.64,1.64,0,0,1,2893.21,352.49Z" transform="translate(-165.09 -34.69)"/><path class="cls-23" d="M2916.59,385.9c2.08-.12,2.22,3.11.14,3.23a6.32,6.32,0,0,0-.4,12.6,1.62,1.62,0,0,1-.72,3.15,9.54,9.54,0,0,1,1-19Z" transform="translate(-165.09 -34.69)"/><path class="cls-23" d="M2921.39,421.58l10.65-1a1.62,1.62,0,0,1,1.68,1.55,1.64,1.64,0,0,1-1.54,1.68l-10.65,1a1.63,1.63,0,0,1-1.69-1.54A1.66,1.66,0,0,1,2921.39,421.58Z" transform="translate(-165.09 -34.69)"/><path d="M2934.61,406.89a21.69,21.69,0,0,1-17.83,6.38c-1.84-.2-2,2.68-.13,2.88a24.51,24.51,0,0,0,19.91-7.13C2937.85,407.7,2935.91,405.57,2934.61,406.89Z" transform="translate(-165.09 -34.69)"/><path class="cls-5" d="M2896,319.63c-6.57,7.1,3.89,16.83,9.27,22,17.53,16.89,46.05,21.47,68.89,26.7,7.45,1.7,10.86-2.86,11.44-10.1,2.3-28.32-24.53-47.1-50.12-48.93-12-.86-28.52,1.39-38.25,9.18A10.5,10.5,0,0,0,2896,319.63Z" transform="translate(-165.09 -34.69)"/><rect class="cls-18" x="2837.59" y="243.17" width="307.22" height="186.45"/><line class="cls-24" x1="2856.08" y1="350.13" x2="3122.62" y2="350.13"/><line class="cls-24" x1="2856.08" y1="366.58" x2="3122.62" y2="366.58"/><line class="cls-24" x1="2856.08" y1="383.04" x2="3122.62" y2="383.04"/><line class="cls-24" x1="2975.38" y1="399.49" x2="3122.62" y2="399.49"/><polygon class="cls-17" points="3109 266.03 3115.9 280.02 3131.34 282.26 3120.17 293.16 3122.81 308.54 3109 301.27 3095.19 308.54 3097.82 293.16 3086.65 282.26 3102.09 280.02 3109 266.03"/><polygon class="cls-17" points="3034.39 266.03 3041.29 280.02 3056.73 282.26 3045.56 293.16 3048.2 308.54 3034.39 301.27 3020.58 308.54 3023.21 293.16 3012.04 282.26 3027.48 280.02 3034.39 266.03"/><polygon class="cls-17" points="2959.78 266.03 2966.68 280.02 2982.12 282.26 2970.95 293.16 2973.59 308.54 2959.78 301.27 2945.97 308.54 2948.6 293.16 2937.43 282.26 2952.87 280.02 2959.78 266.03"/><polygon class="cls-17" points="2885.17 266.03 2892.07 280.02 2907.51 282.26 2896.34 293.16 2898.98 308.54 2885.17 301.27 2871.36 308.54 2873.99 293.16 2862.82 282.26 2878.26 280.02 2885.17 266.03"/><path class="cls-21" d="M3081.91,571.49c11.92,24.72,22.83,49.81,32.82,76.65,3.68,9.9,7.27,20.45,5.28,30.83s-11.73,20-22.09,18c-7.22-1.43-12.3-7.72-16.66-13.63q-21.9-29.62-41.58-60.79C3058.63,611,3073.3,591.59,3081.91,571.49Z" transform="translate(-165.09 -34.69)"/><path class="cls-7" d="M2867.22,501.93c-11.93,21.6-22.94,42.62-33.21,63.92,8.61,20.1,23.27,39.47,42.23,51q18.62-29.45,35.21-60.1Z" transform="translate(-165.09 -34.69)"/><path class="cls-21" d="M2834,565.85c-11.93,24.72-22.84,49.82-32.82,76.66-3.69,9.9-7.28,20.45-5.29,30.82s11.74,20,22.1,18c7.21-1.43,12.29-7.71,16.66-13.63q21.89-29.62,41.58-60.79C2857.28,605.32,2842.62,586,2834,565.85Z" transform="translate(-165.09 -34.69)"/><path class="cls-21" d="M3183.41,442.43a15.45,15.45,0,0,0,.53-6.11,5.76,5.76,0,0,0-3.63-4.62c-2.38-.72-5,.8-6.34,2.86s-1.88,4.58-2.53,7a50.21,50.21,0,0,1-12.55,21.86c-3.08,3.12-6.58,5.86-9.16,9.4-8.92,12.23,4,24.16,14,11.51C3173.29,472.26,3179.91,457.35,3183.41,442.43Z" transform="translate(-165.09 -34.69)"/><path class="cls-21" d="M3171.68,433.13a15.33,15.33,0,0,0,.53-6.12,5.76,5.76,0,0,0-3.63-4.62c-2.38-.72-5,.81-6.34,2.87s-1.88,4.57-2.53,7a50,50,0,0,1-12.55,21.86c-3.08,3.13-6.58,5.86-9.16,9.41-8.92,12.23,4,24.16,14,11.51C3161.57,463,3168.18,448,3171.68,433.13Z" transform="translate(-165.09 -34.69)"/><path class="cls-21" d="M3157.11,433.75a15.33,15.33,0,0,0,.53-6.12A5.72,5.72,0,0,0,3154,423c-2.37-.72-5,.8-6.33,2.87s-1.88,4.57-2.54,7a49.9,49.9,0,0,1-12.55,21.86c-3.07,3.12-6.58,5.86-9.16,9.4-8.91,12.24,4,24.17,14,11.52C3147,463.57,3153.62,448.66,3157.11,433.75Z" transform="translate(-165.09 -34.69)"/><path class="cls-21" d="M3141.7,438.84a12.49,12.49,0,0,0,.44-5,4.71,4.71,0,0,0-3-3.77c-1.94-.59-4,.66-5.17,2.34a18.84,18.84,0,0,0-2.07,5.69A40.77,40.77,0,0,1,3121.68,456c-2.51,2.55-5.37,4.79-7.47,7.68-7.28,10,3.26,19.73,11.44,9.4A88,88,0,0,0,3141.7,438.84Z" transform="translate(-165.09 -34.69)"/><path class="cls-21" d="M3162.44,485.8a76.32,76.32,0,0,1-20,13.93c-8.47,4.26-18.56,6.16-27.54,3.1s-16.26-11.93-15.58-21.39c.41-5.64,3.45-10.82,7.36-14.91a38.34,38.34,0,0,1,60.47,6.49Z" transform="translate(-165.09 -34.69)"/><path class="cls-21" d="M3134.77,483q2.08,82.95,4.18,165.9c.27,10.52.51,21.24-2.07,31.36s-8.5,19.7-17.22,23.42c-14.63,6.23-31.21-6.87-36.87-23.34s-3.42-34.91-1.09-52.39q10.05-75.48,20.09-151Z" transform="translate(-165.09 -34.69)"/><path class="cls-23" d="M3087.67,582.91c.19-2,3.42-2.21,3.23-.14l-4.29,47.77c-.18,2-3.41,2.21-3.23.14Z" transform="translate(-165.09 -34.69)"/><path class="cls-8" d="M3027.22,584.47a251.18,251.18,0,0,1,12.15-34.53c.83-1.91,3.69-.39,2.86,1.51A250,250,0,0,0,3023,676.82a244.54,244.54,0,0,0,6.4,35.53c.52,2-2.55,3-3.07,1A253.35,253.35,0,0,1,3027.22,584.47Z" transform="translate(-165.09 -34.69)"/><path class="cls-8" d="M2866.82,542.31c.06-2.07,3.29-2.23,3.23-.14a189.9,189.9,0,0,0,12.35,73.08,187.43,187.43,0,0,0,8.9,19.77c.95,1.84-1.76,3.6-2.72,1.75a191.33,191.33,0,0,1-21.76-94.46Z" transform="translate(-165.09 -34.69)"/><path class="cls-8" d="M2876.52,818.91A293.78,293.78,0,0,0,2949,830.26a297.74,297.74,0,0,0,73-6.76,293.41,293.41,0,0,0,39.79-11.78c1.95-.73,2.94,2.35,1,3.08a297.3,297.3,0,0,1-71.83,17,301,301,0,0,1-74.2-1.07,293.14,293.14,0,0,1-40.94-8.71C2873.81,821.49,2874.51,818.33,2876.52,818.91Z" transform="translate(-165.09 -34.69)"/><path class="cls-25" d="M2945.07,1402.63c-1.41,13.27-2.83,53.87-4.18,63.41h-26.4c-1.58-10.73-10-51.19-11.52-63.41Z" transform="translate(-165.09 -34.69)"/><path class="cls-17" d="M2945.63,1462.07l-34.54-1c-9.62,10-67.58,22.62-70.94,36.09h113.46A146.78,146.78,0,0,0,2945.63,1462.07Z" transform="translate(-165.09 -34.69)"/><path class="cls-11" d="M2840.15,1497.21c-.32,1.29-.65,2.58-.9,3.88a3.3,3.3,0,0,0,3.21,4h108.27a3.29,3.29,0,0,0,3.29-3.52c-.11-1.45-.26-2.89-.41-4.33Z" transform="translate(-165.09 -34.69)"/><path class="cls-9" d="M2849,1077.25c-8.89-86.16-11.8-196,12.06-279,56.43,5.16,73.32,11.45,125.9,10.77,4.59,29.67-13.78,93-13.78,93l-23,500.59h-52.65C2875.52,1304.58,2858.28,1167,2849,1077.25Z" transform="translate(-165.09 -34.69)"/><path class="cls-25" d="M3041.78,1402.63c-1.41,13.27-9.42,53.87-10.77,63.41H3004.6c-1.56-10.68-3.09-51.14-4.59-63.41Z" transform="translate(-165.09 -34.69)"/><path class="cls-17" d="M2999.71,1462.07l34.54-1c9.62,10,25.54,22.62,28.89,36.09h-71.41A146.78,146.78,0,0,1,2999.71,1462.07Z" transform="translate(-165.09 -34.69)"/><path class="cls-11" d="M3063.14,1497.21c.32,1.29.66,2.58.91,3.88a3.31,3.31,0,0,1-3.22,4h-66.22a3.29,3.29,0,0,1-3.29-3.52c.12-1.45.26-2.89.41-4.33Z" transform="translate(-165.09 -34.69)"/><path class="cls-11" d="M2971,902s-63.26-53.46-67.47-99c52.58.68,109.72-5.95,159.84-24.71,45.8,68.53,40.69,212.76,31.81,298.92-9.26,89.74-26.5,227.33-48.53,325.38H2994Z" transform="translate(-165.09 -34.69)"/><path class="cls-9" d="M3034.2,1216.51a53.88,53.88,0,0,0,31.38-26.76,1.62,1.62,0,0,1,2.87,1.5,57.21,57.21,0,0,1-33.26,28.34A1.62,1.62,0,0,1,3034.2,1216.51Z" transform="translate(-165.09 -34.69)"/><path class="cls-9" d="M3057.08,830.79A97.06,97.06,0,0,1,3008,810.55c-1.64-1.29-3.38,1.44-1.76,2.72A100.14,100.14,0,0,0,3056.94,834C3059,834.26,3059.14,831,3057.08,830.79Z" transform="translate(-165.09 -34.69)"/><rect class="cls-18" x="455.52" width="160.68" height="150.37"/><path class="cls-26" d="M693.73,101.21l9.54-21.11a5.47,5.47,0,0,1,5-3.22h0a5.47,5.47,0,0,1,5.47,5.47v18.86H725a12.79,12.79,0,0,1,12.58,15.1l-3,16.09a12.8,12.8,0,0,1-12.58,10.47h-38V105.54Z" transform="translate(-165.09 -34.69)"/><rect class="cls-26" x="498.98" y="70.85" width="20" height="37.33"/><rect class="cls-18" x="2645.34" y="32.3" width="164.55" height="153.99"/><polygon class="cls-17" points="2727.62 75.49 2738.6 97.75 2763.16 101.31 2745.39 118.64 2749.59 143.1 2727.62 131.55 2705.65 143.1 2709.85 118.64 2692.08 101.31 2716.64 97.75 2727.62 75.49"/></g></g></g></g></g></svg>