<svg xmlns="http://www.w3.org/2000/svg" xmlns:xlink="http://www.w3.org/1999/xlink" viewBox="0 0 452.72 507.76"><defs><style>.cls-1,.cls-15{fill:none;}.cls-2{isolation:isolate;}.cls-3{clip-path:url(#clip-path);}.cls-4{fill:#b96e2b;}.cls-11,.cls-5{fill:#f5a42e;}.cls-6{fill:#a66f1f;}.cls-7{fill:#386ca6;}.cls-8{fill:#508dba;}.cls-9{fill:#3b1411;}.cls-10{fill:#96332b;}.cls-11{opacity:0.44;mix-blend-mode:multiply;}.cls-12{fill:#6c301e;}.cls-13{fill:#fff;}.cls-14{fill:#b0f0e3;}.cls-15{stroke:#fff;stroke-linecap:round;stroke-miterlimit:10;stroke-width:4.11px;}</style><clipPath id="clip-path" transform="translate(-236.74 -95.73)"><rect class="cls-1" width="990.06" height="596.27"/></clipPath></defs><g class="cls-2"><g id="Capa_2" data-name="Capa 2"><g id="Capa_1-2" data-name="Capa 1"><g class="cls-3"><path class="cls-4" d="M681.12,230.52a8.76,8.76,0,0,0-3.51.39,61.91,61.91,0,0,0-23.79,11.87c-7.14,5.94-.1,13.19,6.81,7.9a51.63,51.63,0,0,0,5.27-5.39,28.72,28.72,0,0,1,12.39-7.51,13.21,13.21,0,0,0,4-1.56,3.48,3.48,0,0,0,1.56-3.68A3.32,3.32,0,0,0,681.12,230.52Z" transform="translate(-236.74 -95.73)"/><path class="cls-4" d="M686.63,237.13a9,9,0,0,0-3.51.39,61.91,61.91,0,0,0-23.8,11.88c-7.13,5.93-.1,13.19,6.81,7.89a50.74,50.74,0,0,0,5.28-5.39,28.72,28.72,0,0,1,12.39-7.51,13.46,13.46,0,0,0,4-1.55,3.48,3.48,0,0,0,1.56-3.68A3.33,3.33,0,0,0,686.63,237.13Z" transform="translate(-236.74 -95.73)"/><path class="cls-4" d="M686.48,245.51a8.72,8.72,0,0,0-3.51.39,61.91,61.91,0,0,0-23.8,11.88c-7.13,5.93-.1,13.19,6.81,7.89,2-1.53,3.52-3.58,5.28-5.39a28.66,28.66,0,0,1,12.39-7.51,13.4,13.4,0,0,0,4-1.55,3.47,3.47,0,0,0,1.56-3.69A3.31,3.31,0,0,0,686.48,245.51Z" transform="translate(-236.74 -95.73)"/><path class="cls-4" d="M680.25,254.83a7,7,0,0,1,2.87-.32,2.69,2.69,0,0,1,2.21,1.65,2.84,2.84,0,0,1-1.28,3,10.71,10.71,0,0,1-3.24,1.26,23.52,23.52,0,0,0-10.12,6.14,41.66,41.66,0,0,1-4.31,4.4c-5.64,4.32-11.38-1.6-5.56-6.45A50.64,50.64,0,0,1,680.25,254.83Z" transform="translate(-236.74 -95.73)"/><path class="cls-4" d="M653,243.55a43.73,43.73,0,0,0-7.73,11.67c-2.33,4.94-3.29,10.76-1.4,15.88s7.07,9.18,12.5,8.66a14.28,14.28,0,0,0,8.47-4.44,22,22,0,0,0-4.56-34.66Z" transform="translate(-236.74 -95.73)"/><path class="cls-5" d="M444.79,231.31c-1.26,12.55,3.42,25.08,10.42,35.11s16.19,17.95,25.27,25.77l71.34,61.35c4.25,3.65,8.68,7.4,14,8.75,8.09,2.07,16.43-1.86,23.78-6.16A217.31,217.31,0,0,0,649.49,304c5.16-6.47,10.28-14.35,9.07-22.76-1.09-7.58-7.36-13.37-14.22-15.24s-14.15-.45-20.91,1.91c-18.48,6.45-34.27,19.6-49.63,32.5-21.83-17.26-46.13-36.32-65.64-56.58-8.75-9.08-17.41-19-28.82-23.5S446.11,218.19,444.79,231.31Z" transform="translate(-236.74 -95.73)"/><path class="cls-5" d="M654.49,287.18c1.25-1.91,3.35-3.05,5.26-4.29s3.82-2.88,4.26-5.11a8,8,0,0,0-.5-4.1,23,23,0,0,0-19.9-15.19,36.71,36.71,0,0,0-9,12.78Z" transform="translate(-236.74 -95.73)"/><path class="cls-6" d="M571.88,300.37a37.7,37.7,0,0,0-4.67,29.6c.3,1.15,2.13.83,1.83-.33a35.8,35.8,0,0,1,4.36-28.19C574,300.44,572.53,299.36,571.88,300.37Z" transform="translate(-236.74 -95.73)"/><path class="cls-6" d="M570,312.8a18,18,0,0,0,0,11.17.93.93,0,0,0,1.68-.79,15.85,15.85,0,0,1,0-9.73C572.12,312.32,570.38,311.66,570,312.8Z" transform="translate(-236.74 -95.73)"/><path class="cls-6" d="M638,264.19c-1.19.16-.86,2,.33,1.83A16.57,16.57,0,0,1,657,280.61c.15,1.18,2,.85,1.83-.33A18.44,18.44,0,0,0,638,264.19Z" transform="translate(-236.74 -95.73)"/><path class="cls-7" d="M455.78,601.09c27,.27,54,.92,81,2.4C524.6,517,500,456.77,500,456.77c-67.23,8.06-66.25,50-66.25,50Z" transform="translate(-236.74 -95.73)"/><path class="cls-8" d="M424.92,600.94h7.75l19.19-96.64s29.91-20.86,33.41-39.12L373,469.54S364,518.09,358.16,601.12C380.42,601.06,402.67,600.92,424.92,600.94Z" transform="translate(-236.74 -95.73)"/><path class="cls-7" d="M475,483.54c5.93-6.49,11.13-13.9,12.48-20.92L374,456.77s-.92,13.28-1.35,18.8C406.48,484.14,441.08,487.35,475,483.54Z" transform="translate(-236.74 -95.73)"/><path class="cls-9" d="M414.3,190.61c-.42-7.22-.85-14.44-2-21.58a115.76,115.76,0,0,0-5.16-20.67c-2.36.68-4.77-2.26-6.1-4.33a5.93,5.93,0,0,1,.47-6.88c.73-.86,1.71-1.49,2.37-2.4,2-2.79.37-6.65-1.26-9.69s-3.11-7-.86-9.65c2.88-3.33,8.31-.79,12.67-1.46,5-.77,8.09-5.79,11-10,2.1-3,4.58-5.9,7.93-7.38s7.73-1.13,10.1,1.65c1.29,1.51,1.88,3.56,3.36,4.89,2.91,2.64,7.44,1.25,11.26.33s9.14-.27,9.83,3.6c.45,2.46-1.42,4.79-1.41,7.29,0,3.9,4.23,6.22,7.84,7.67s7.86,3.66,8,7.55c.17,4.64-5.83,7.89-5.38,12.51.24,2.43,2.21,4.26,3.67,6.21s2.39,4.93.68,6.67-5.05,1.23-6.18,3.34c-1.4,2.62,2.4,5.94,1,8.54-.76,1.36-2.64,1.68-4.12,1.22a16.63,16.63,0,0,1-4-2.37,18.58,18.58,0,0,0-23.53,3.2c-2.9,3.34-4.45,7.61-6.26,11.64s-4.12,8.11-7.91,10.39S416.84,194.23,414.3,190.61Z" transform="translate(-236.74 -95.73)"/><path class="cls-10" d="M477,142.08c-.45-4.62,5.55-7.87,5.38-12.51-.14-3.89-4.38-6.11-8-7.55s-7.83-3.77-7.84-7.67c0-2.5,1.86-4.83,1.41-7.29-.69-3.87-6-4.52-9.83-3.6s-8.35,2.31-11.26-.33c-1.48-1.33-2.07-3.38-3.36-4.89-2.37-2.78-6.75-3.12-10.1-1.65s-5.83,4.39-7.93,7.38c-2.92,4.19-6,9.21-11,10-4.36.67-9.79-1.87-12.67,1.46-2.25,2.61-.77,6.62.86,9.65s3.29,6.9,1.26,9.69c-.66.91-1.64,1.54-2.37,2.4a5.93,5.93,0,0,0-.47,6.88c1.33,2.07,3.74,5,6.1,4.33,1.26,3.58,2.32,7.23,3.22,10.93a30.55,30.55,0,0,0-.44-8.58c-.83-3.86-5-6.42-3-10.79.65-1.4,2.42-3.14,2.42-4.63,0-.89-1-2.22-1.38-3a28.88,28.88,0,0,1-1.39-2.92,8,8,0,0,1,4.55-10.51c3.08-1.2,7.27.4,9.95-1.58,1.85-1.37,3.1-3.57,4.33-5.47,2.37-3.67,5.27-8.69,10.29-8.56,3,.09,5.5,2,7.58,4,.91.86,2,2,3.27,2.29a9.24,9.24,0,0,0,3.52-.55c2.89-.66,6.44-1.59,8.89.69,2.15,2,2.24,5.22,2.63,7.92.52,3.67,2.47,4.93,5.9,5.87,3,.81,6.18,2,7.12,5.3.61,2.16.1,4.35-.48,6.45-.44,1.63-1,3.29-.21,4.9,1.25,2.65,3.53,4.82,2.87,8-.5,2.46-2.5,3.61-3.89,5.48-1.82,2.46.35,5.81-.47,8.65a14.54,14.54,0,0,1-2.74,4.58,8.86,8.86,0,0,0,2.28,1.19c1.48.46,3.36.14,4.12-1.22,1.44-2.6-2.36-5.92-1-8.54,1.13-2.11,4.5-1.63,6.18-3.34s.78-4.71-.68-6.67S477.25,144.51,477,142.08Z" transform="translate(-236.74 -95.73)"/><path class="cls-11" d="M530.25,264.77H454.1c.37.55.73,1.1,1.11,1.65,7,10,16.19,17.95,25.27,25.77l71.34,61.35c4.25,3.65,8.68,7.4,14,8.75a18.93,18.93,0,0,0,6,.52v-64C558.21,288.08,543.82,276.7,530.25,264.77Z" transform="translate(-236.74 -95.73)"/><path class="cls-5" d="M497.28,242.16a23.93,23.93,0,0,0-14.76-20.78c-18.06-7.55-38.26-10-57.9-8.81-18,1.14-35.67,5.25-52.9,10.75A24,24,0,0,0,355.45,250a1043.24,1043.24,0,0,1,12.28,203.15c-.17,4.39-.58,10.71,3.62,12,38.6,12.05,93.64,14,130.38,4.24,9.11-2.42,1.94-10.83,2-20.26C503.87,381.68,500.76,309,497.28,242.16Z" transform="translate(-236.74 -95.73)"/><path class="cls-11" d="M503.69,449.17c.16-59.95-2.28-124-5.26-184.4H357.67a1040.72,1040.72,0,0,1,10.06,188.4,30.61,30.61,0,0,0,.33,7.93H505.94C505.2,457.66,503.68,453.53,503.69,449.17Z" transform="translate(-236.74 -95.73)"/><path class="cls-6" d="M473.73,456.86A93.18,93.18,0,0,1,426.84,449a92.5,92.5,0,0,1-46.75-48.47c-.46-1.1-2.1-.23-1.64.87a94,94,0,0,0,95.7,57.32C475.33,458.56,474.91,456.75,473.73,456.86Z" transform="translate(-236.74 -95.73)"/><path class="cls-6" d="M444.1,231.87A38.73,38.73,0,0,1,407.44,223c-.87-.81-2.25.44-1.37,1.26a40.64,40.64,0,0,0,38.44,9.41C445.66,233.36,445.25,231.54,444.1,231.87Z" transform="translate(-236.74 -95.73)"/><path class="cls-4" d="M412.41,169.72a224.79,224.79,0,0,1-1,45.14,8.21,8.21,0,0,0,3.41,7.77,33.61,33.61,0,0,0,24,5.72,8.12,8.12,0,0,0,6.8-8.73,270.6,270.6,0,0,1-.82-29C436.49,180.16,425.06,173.79,412.41,169.72Z" transform="translate(-236.74 -95.73)"/><path class="cls-12" d="M444.72,190.6c-8.23-10.44-19.66-16.81-32.31-20.88.5,6.4.7,12.83.65,19.26,5.73,15.68,16.09,30.62,30.06,37.13a8.17,8.17,0,0,0,2.42-6.49A270.6,270.6,0,0,1,444.72,190.6Z" transform="translate(-236.74 -95.73)"/><path class="cls-4" d="M465.61,145.21c2.8,21-5.9,59.85-17.44,58.57-15.66-2.22-30.07-14.66-34.22-29.93.07.26-1.71,1.25-3.52,1.15s-4.17-2.22-5.16-3.69c-1.89-2.84-3.82-7.27-1.78-10.52,2.45-3.9,7.88-4.7,10.18-.11-.17-7.68,2.33-14.78,5-22a8.14,8.14,0,0,1,4.91-4.89,59.22,59.22,0,0,1,35.78-.52,7,7,0,0,1,4.56,4.61A48.81,48.81,0,0,1,465.61,145.21Z" transform="translate(-236.74 -95.73)"/><path class="cls-9" d="M443.15,146.51c-3.38-4.28-12.68-1.33-16.1,1.43-.62.5-1.38,1.15-1.3,2a1.06,1.06,0,0,0,.76,1c1.05.3,2-.57,2.92-1a14.72,14.72,0,0,1,8.47-1.62c1.55.16,3,.88,4.6.65C443.72,148.79,443.74,147.27,443.15,146.51Z" transform="translate(-236.74 -95.73)"/><path class="cls-9" d="M438.2,154a1.55,1.55,0,0,0-.42-.66,1.64,1.64,0,0,0-.67-.43,1.53,1.53,0,0,0-.79-.17l-.55.07a2,2,0,0,0-.91.53l-.32.42a2,2,0,0,0-.28,1v.22a1.58,1.58,0,0,0,.17.8,2.09,2.09,0,0,0,1.89,1.26l.55-.07a2.15,2.15,0,0,0,.91-.53l.32-.42a2,2,0,0,0,.28-1v-.22A1.57,1.57,0,0,0,438.2,154Z" transform="translate(-236.74 -95.73)"/><path class="cls-9" d="M460.78,155.31a1.83,1.83,0,0,0-1.09-1.09,1.53,1.53,0,0,0-.79-.18l-.55.08a2,2,0,0,0-.91.53l-.32.42a2.09,2.09,0,0,0-.29,1v.22a1.53,1.53,0,0,0,.18.79,1.64,1.64,0,0,0,.43.67,1.55,1.55,0,0,0,.66.42,1.57,1.57,0,0,0,.8.18l.55-.07a2.15,2.15,0,0,0,.91-.53l.32-.42a2,2,0,0,0,.28-1v-.22A1.57,1.57,0,0,0,460.78,155.31Z" transform="translate(-236.74 -95.73)"/><path class="cls-9" d="M464.87,149.49a6.27,6.27,0,0,0-4.18-2.79,9.72,9.72,0,0,0-4.88-.09,1.54,1.54,0,0,0-1.11,1.69c.17,1.26,1.23,1.3,2.23,1.31a10,10,0,0,1,3.86.72c.83.36,5.21,2.54,4.33-.22A3.82,3.82,0,0,0,464.87,149.49Z" transform="translate(-236.74 -95.73)"/><path class="cls-12" d="M446.08,190.89a7.12,7.12,0,0,0-2,0,13.73,13.73,0,0,1-1.76-.11,16,16,0,0,1-1.83-.37,5.86,5.86,0,0,0-2-.4.81.81,0,0,0-.56,1.36,3.84,3.84,0,0,0,1.9,1,11.53,11.53,0,0,0,2,.48,15.48,15.48,0,0,0,2.15.2,4.67,4.67,0,0,0,2.32-.3A1.06,1.06,0,0,0,446.08,190.89Z" transform="translate(-236.74 -95.73)"/><path class="cls-12" d="M412,168.56a1.31,1.31,0,0,1-1.7-.87,1.21,1.21,0,0,1,.36-1,1.18,1.18,0,0,1,.9-.46.83.83,0,0,0,.8-1c-.62-2.2-2.38-4.46-4.93-4.2a3.19,3.19,0,0,0-2.63,1.8,2.3,2.3,0,0,0-.13,1.55c.07.3.45,1.07.88.68.25-.23.17-.57.25-.86a2.89,2.89,0,0,1,.41-.89,1.7,1.7,0,0,1,1.66-.7,3.31,3.31,0,0,1,2.61,2.27,2.73,2.73,0,0,0-1.56,3.15,2.86,2.86,0,0,0,3.46,2C413.23,169.66,412.84,168.27,412,168.56Z" transform="translate(-236.74 -95.73)"/><path class="cls-12" d="M454.94,167.5a25.9,25.9,0,0,1-3.19-6.72c-.35-1.13-2.17-.73-1.81.42a27.64,27.64,0,0,0,2.42,5.65,28,28,0,0,0,1.75,2.68c.6.82,1.3,1.57,1.84,2.43a2.5,2.5,0,0,1,.39,2.62,4.88,4.88,0,0,1-2.2,1.58,14.76,14.76,0,0,1-6.49,1.3.93.93,0,0,0-.08,1.86,16.81,16.81,0,0,0,7.3-1.45c1.89-.85,3.79-2.27,3.55-4.57S456.14,169.31,454.94,167.5Z" transform="translate(-236.74 -95.73)"/><path class="cls-9" d="M450,184.24a13.45,13.45,0,0,1-13.31-4.09c-.79-.91-2.16.35-1.37,1.25a15.3,15.3,0,0,0,15.1,4.65C451.52,185.75,451.12,183.93,450,184.24Z" transform="translate(-236.74 -95.73)"/><path class="cls-13" d="M437.74,167.66a10.55,10.55,0,1,1,10.55-10.55A10.56,10.56,0,0,1,437.74,167.66Zm0-19.7a9.16,9.16,0,1,0,9.15,9.15A9.16,9.16,0,0,0,437.74,148Z" transform="translate(-236.74 -95.73)"/><path class="cls-13" d="M463.14,167.66a10.55,10.55,0,1,1,10.55-10.55A10.56,10.56,0,0,1,463.14,167.66Zm0-19.7a9.16,9.16,0,1,0,9.15,9.15A9.16,9.16,0,0,0,463.14,148Z" transform="translate(-236.74 -95.73)"/><path class="cls-13" d="M453.43,153.53a2.85,2.85,0,0,0-2.76-1.29,9.42,9.42,0,0,0-3.51,1.27l-.65-1.23a10.31,10.31,0,0,1,4.06-1.43,4.19,4.19,0,0,1,4.11,2.07Z" transform="translate(-236.74 -95.73)"/><path class="cls-13" d="M412.76,159l-.57-1.28a37.47,37.47,0,0,1,16-3.17l0,1.39A36.15,36.15,0,0,0,412.76,159Z" transform="translate(-236.74 -95.73)"/><rect class="cls-14" y="176.27" width="325.53" height="178.37"/><line class="cls-15" x1="116.68" y1="265.45" x2="309.48" y2="265.45"/><line class="cls-15" x1="116.68" y1="277.36" x2="309.48" y2="277.36"/><line class="cls-15" x1="116.68" y1="289.26" x2="309.48" y2="289.26"/><line class="cls-15" x1="202.97" y1="301.16" x2="309.48" y2="301.16"/><polygon class="cls-13" points="299.63 204.62 304.63 214.74 315.8 216.37 307.71 224.24 309.62 235.37 299.63 230.12 289.64 235.37 291.55 224.24 283.46 216.37 294.63 214.74 299.63 204.62"/><polygon class="cls-13" points="245.66 204.62 250.65 214.74 261.82 216.37 253.74 224.24 255.65 235.37 245.66 230.12 235.67 235.37 237.58 224.24 229.49 216.37 240.66 214.74 245.66 204.62"/><polygon class="cls-13" points="191.69 204.62 196.68 214.74 207.85 216.37 199.77 224.24 201.68 235.37 191.69 230.12 181.7 235.37 183.6 224.24 175.52 216.37 186.69 214.74 191.69 204.62"/><polygon class="cls-13" points="137.72 204.62 142.71 214.74 153.88 216.37 145.8 224.24 147.71 235.37 137.72 230.12 127.72 235.37 129.63 224.24 121.55 216.37 132.72 214.74 137.72 204.62"/><rect class="cls-13" x="27.73" y="193.65" width="70" height="99.49"/><path class="cls-4" d="M392.3,459.08a8.93,8.93,0,0,0-.55-3.49,62.1,62.1,0,0,0-13-23.22c-6.26-6.85-13.18.52-7.57,7.17a49.82,49.82,0,0,0,5.63,5,28.85,28.85,0,0,1,8.08,12,13.19,13.19,0,0,0,1.74,3.9,3.47,3.47,0,0,0,3.75,1.39A3.32,3.32,0,0,0,392.3,459.08Z" transform="translate(-236.74 -95.73)"/><path class="cls-4" d="M386,464.89a8.93,8.93,0,0,0-.55-3.49,62.1,62.1,0,0,0-13-23.22c-6.26-6.85-13.18.52-7.57,7.17a49.82,49.82,0,0,0,5.63,5,28.85,28.85,0,0,1,8.08,12,13.19,13.19,0,0,0,1.74,3.9,3.45,3.45,0,0,0,3.75,1.39A3.32,3.32,0,0,0,386,464.89Z" transform="translate(-236.74 -95.73)"/><path class="cls-4" d="M377.57,465.13a8.72,8.72,0,0,0-.55-3.49,61.83,61.83,0,0,0-13-23.22c-6.26-6.85-13.18.51-7.57,7.17a51.85,51.85,0,0,0,5.63,5,28.7,28.7,0,0,1,8.08,12,13.27,13.27,0,0,0,1.74,3.89,3.46,3.46,0,0,0,3.75,1.39A3.28,3.28,0,0,0,377.57,465.13Z" transform="translate(-236.74 -95.73)"/><path class="cls-4" d="M368,459.34a7.19,7.19,0,0,1,.45,2.85,2.68,2.68,0,0,1-1.55,2.28,2.82,2.82,0,0,1-3.06-1.13,10.84,10.84,0,0,1-1.41-3.18,23.52,23.52,0,0,0-6.6-9.82,40.91,40.91,0,0,1-4.6-4.1c-4.58-5.43,1.07-11.45,6.18-5.85A50.64,50.64,0,0,1,368,459.34Z" transform="translate(-236.74 -95.73)"/><path class="cls-4" d="M378,431.58a43.53,43.53,0,0,0-12-7.18c-5-2.11-10.89-2.79-15.92-.67s-8.84,7.5-8.07,12.9a14.24,14.24,0,0,0,4.83,8.25,22,22,0,0,0,34.41-6.17Z" transform="translate(-236.74 -95.73)"/><path class="cls-5" d="M380.51,223c-12.6-.67-24.89,4.59-34.58,12s-17.19,17-24.57,26.45l-58,74.11c-3.45,4.42-7,9-8.1,14.37-1.69,8.18,2.63,16.32,7.26,23.47a217.47,217.47,0,0,0,54.87,57.42c6.7,4.85,14.81,9.6,23.16,8,7.51-1.43,13-8,14.55-14.91s-.2-14.16-2.87-20.8C345,385,331.1,369.87,317.49,355.12c16.22-22.6,34.13-47.77,53.46-68.19,8.67-9.17,18.2-18.28,22.14-29.89S393.67,223.74,380.51,223Z" transform="translate(-236.74 -95.73)"/><path class="cls-5" d="M334.47,435.12c2,1.15,3.19,3.2,4.53,5.05s3,3.68,5.3,4a8.11,8.11,0,0,0,4.07-.68,23,23,0,0,0,14.24-20.59,36.37,36.37,0,0,0-13.18-8.34Z" transform="translate(-236.74 -95.73)"/><path class="cls-6" d="M317.44,353.21a37.67,37.67,0,0,0-29.79-3.29c-1.13.35-.73,2.17.42,1.81a35.85,35.85,0,0,1,28.37,3C317.47,355.37,318.48,353.81,317.44,353.21Z" transform="translate(-236.74 -95.73)"/><path class="cls-6" d="M304.94,351.92a18,18,0,0,0-11.16.57.93.93,0,0,0-.38,1.25.94.94,0,0,0,1.25.39,15.81,15.81,0,0,1,9.71-.44C305.52,354,306.09,352.24,304.94,351.92Z" transform="translate(-236.74 -95.73)"/><path class="cls-6" d="M356.65,417.52c-.2-1.18-2-.76-1.81.41a16.58,16.58,0,0,1-13.7,19.38c-1.17.2-.76,2,.42,1.81a18.42,18.42,0,0,0,15.09-21.6Z" transform="translate(-236.74 -95.73)"/></g></g></g></g></svg>