<svg xmlns="http://www.w3.org/2000/svg" xmlns:xlink="http://www.w3.org/1999/xlink" viewBox="0 0 498.96 549.15"><defs><style>.cls-1,.cls-11{fill:none;}.cls-2{clip-path:url(#clip-path);}.cls-3{fill:#f5a42e;}.cls-4{fill:#7a5217;}.cls-5{fill:#ffc9b9;}.cls-6{fill:#495358;}.cls-7{fill:#263238;}.cls-8{fill:#ff9979;}.cls-9{fill:#3b1411;}.cls-10{fill:#b0f0e3;}.cls-11{stroke:#fff;stroke-linecap:round;stroke-miterlimit:10;stroke-width:4.7px;}.cls-12{fill:#fff;}.cls-13{fill:#a66f1f;}.cls-14{fill:#386ca6;}.cls-15{fill:#508dba;}</style><clipPath id="clip-path" transform="translate(-364.86 -59.34)"><rect class="cls-1" width="990.06" height="596.27"/></clipPath></defs><g id="Capa_2" data-name="Capa 2"><g id="Capa_1-2" data-name="Capa 1"><g class="cls-2"><path class="cls-3" d="M674.22,379.16c8.66,15.68,16.65,30.94,24.11,46.4-6.25,14.59-16.9,28.65-30.66,37Q654.16,441.23,642.11,419Z" transform="translate(-364.86 -59.34)"/><path class="cls-3" d="M681.52,568c-22.87-52.35-22.38-37.2-27-65.83-6.19-38.38,7.8-77.08,19.42-114.19a15.58,15.58,0,0,0-5.61-17.22c-10.4-7.54-57.62-34-121.53-1.36-4.29,2.18-5.81,7.77-5.61,12.69.64,16,.94,32.55,3.81,48.49,3.15,17.46,9,34.32,11.35,51.8A252.77,252.77,0,0,1,559,515.81c.08,22.36-20.25,45.57-21.16,68.21C584.8,591.53,636.75,586.68,681.52,568Z" transform="translate(-364.86 -59.34)"/><path class="cls-4" d="M537.79,584a35.25,35.25,0,0,0,.25,6.16c56.42,10.75,95.38,8.58,146.83-14.47-1.17-2.76-2.28-5.31-3.35-7.76C636.75,586.68,584.8,591.53,537.79,584Z" transform="translate(-364.86 -59.34)"/><path class="cls-5" d="M627.17,371.53c-2.07,2.32-5.18,4.21-8.24,6.06l-24,14.49a10,10,0,0,1-4.51,1.73c-3.13.21-5.44-1.71-6.86-3.43-4.09-5-6.72-10.6-6.05-16.18S582.45,363,590,359.86C602.4,354.6,639.05,358.2,627.17,371.53Z" transform="translate(-364.86 -59.34)"/><path class="cls-5" d="M369.32,440.26a11.12,11.12,0,0,1-3.49-2.77,4.16,4.16,0,0,1-.64-4.21c.8-1.62,2.89-2.22,4.67-1.93a16.9,16.9,0,0,1,4.95,2.13,36.29,36.29,0,0,0,17.8,4.25c3.17-.07,6.37-.56,9.52-.16,10.91,1.37,10.79,14.13-.89,13.13A78.31,78.31,0,0,1,369.32,440.26Z" transform="translate(-364.86 -59.34)"/><path class="cls-5" d="M370.24,429.43a11.12,11.12,0,0,1-3.49-2.77,4.14,4.14,0,0,1-.64-4.21c.8-1.62,2.89-2.22,4.67-1.93a17,17,0,0,1,4.94,2.13,36.32,36.32,0,0,0,17.8,4.25c3.18-.07,6.38-.56,9.53-.16,10.9,1.37,10.78,14.13-.89,13.13A78.31,78.31,0,0,1,370.24,429.43Z" transform="translate(-364.86 -59.34)"/><path class="cls-5" d="M377.82,422a11,11,0,0,1-3.5-2.77,4.16,4.16,0,0,1-.64-4.21c.81-1.62,2.89-2.22,4.67-1.93a16.79,16.79,0,0,1,4.95,2.13,36.29,36.29,0,0,0,17.8,4.25c3.18-.07,6.37-.56,9.53-.16,10.9,1.37,10.78,14.13-.89,13.13A78.26,78.26,0,0,1,377.82,422Z" transform="translate(-364.86 -59.34)"/><path class="cls-5" d="M388.17,416.43a9.26,9.26,0,0,1-2.85-2.26,3.41,3.41,0,0,1-.52-3.44,3.56,3.56,0,0,1,3.81-1.57,13.37,13.37,0,0,1,4,1.74,29.65,29.65,0,0,0,14.53,3.46c2.6-.06,5.2-.46,7.78-.13,8.9,1.12,8.81,11.54-.73,10.72A63.83,63.83,0,0,1,388.17,416.43Z" transform="translate(-364.86 -59.34)"/><path class="cls-5" d="M402.67,450.75A55.21,55.21,0,0,0,420,447.13c6.47-2.36,12.49-6.75,15.34-13s1.79-14.53-3.55-18.88c-3.18-2.59-7.44-3.55-11.54-3.53a27.84,27.84,0,0,0-26.66,35.19Z" transform="translate(-364.86 -59.34)"/><path class="cls-5" d="M414.23,434l65.37,65.72c4.14,4.17,8.38,8.4,13.78,10.91s12.24,3.05,18.08-.14c9.82-5.34,12.75-19.12,8.87-28.42s-12.49-15.17-20.76-20.63L428.2,414.32Z" transform="translate(-364.86 -59.34)"/><path class="cls-6" d="M576.05,217.33c-7.47,1.86-14.45,5.11-19.78,10.53-10.78,11-13.83,27.39-14.31,42.22a150,150,0,0,0,17.54,75.85c27.56,9.74,58.34,7.38,85.57-6,4.06-20,9.43-41.66,7.86-61.76-1.67-21.51-10.52-52-33.21-60.1-6.31-2.24-13.08-2.86-19.78-3A92.38,92.38,0,0,0,576.05,217.33Z" transform="translate(-364.86 -59.34)"/><path class="cls-7" d="M577.72,224.83c-7.05,1.76-13.63,4.82-18.67,9.95-10.18,10.36-13,25.86-13.51,39.85a141.51,141.51,0,0,0,16.56,71.6c26,9.19,55.07,7,80.78-5.66,3.83-18.88,8.9-39.33,7.42-58.3-1.58-20.31-9.93-49.1-31.36-56.73-6-2.12-12.34-2.71-18.67-2.83A86.81,86.81,0,0,0,577.72,224.83Z" transform="translate(-364.86 -59.34)"/><path class="cls-5" d="M623.53,297.82a407.6,407.6,0,0,0-3.19,56.06c0,3.78-1.31,7.41-3.58,9.43-6.26,5.57-13.88,7.68-20.75,5.63-3.5-1.05-5.64-6-5-11.26,1.56-12,2.6-23.45,3.31-35.95A58.36,58.36,0,0,1,623.53,297.82Z" transform="translate(-364.86 -59.34)"/><path class="cls-8" d="M594.35,321.73a58.36,58.36,0,0,1,29.18-23.91c-.62,4.88-1.14,9.79-1.58,14.7-7.54,15-18.25,29.92-29.92,36.74C593,340.22,593.81,331.28,594.35,321.73Z" transform="translate(-364.86 -59.34)"/><path class="cls-5" d="M560.27,271.55c.46,29.59,15.69,60.48,23.37,59.82,25.46-2.16,36.21-29.05,36.3-29.38-.09.33,4.08,1.45,6.33,1.31s5.19-2.76,6.41-4.58c2.36-3.54,4.76-9,2.23-13.08-3-4.86-11.68-5.5-14.53.2-11-12.67-6.36-21.78-8.61-32.39-14.46-6.55-31.22-6.86-46.66-1.88C562.53,252.4,560.23,268.81,560.27,271.55Z" transform="translate(-364.86 -59.34)"/><path class="cls-9" d="M591.73,277.23a1.94,1.94,0,0,1,.53-.83,2.82,2.82,0,0,1,1.81-.75l.68.1a2.6,2.6,0,0,1,1.14.65c.13.18.26.35.4.52a2.59,2.59,0,0,1,.35,1.3v.27a2,2,0,0,1-.22,1,2,2,0,0,1-.53.83,1.94,1.94,0,0,1-.83.53,2,2,0,0,1-1,.22l-.68-.09a2.54,2.54,0,0,1-1.13-.66c-.14-.17-.27-.35-.4-.52a2.46,2.46,0,0,1-.35-1.3v-.27A1.89,1.89,0,0,1,591.73,277.23Z" transform="translate(-364.86 -59.34)"/><path class="cls-9" d="M566.73,278.82a1.94,1.94,0,0,1,.53-.83,2,2,0,0,1,.83-.53,1.93,1.93,0,0,1,1-.22l.69.09a2.75,2.75,0,0,1,1.13.66c.13.18.27.35.4.52a2.59,2.59,0,0,1,.35,1.3v.27a2,2,0,0,1-.22,1,2.29,2.29,0,0,1-1.36,1.36,2,2,0,0,1-1,.22l-.68-.09a2.54,2.54,0,0,1-1.13-.66l-.4-.52a2.56,2.56,0,0,1-.35-1.3v-.27A2,2,0,0,1,566.73,278.82Z" transform="translate(-364.86 -59.34)"/><path class="cls-8" d="M624.35,295.3a1.65,1.65,0,0,0,2.13-1.08A1.58,1.58,0,0,0,626,293a1.48,1.48,0,0,0-1.13-.57,1,1,0,0,1-1-1.3c.77-2.74,3-5.55,6.13-5.23a4,4,0,0,1,3.27,2.24,2.88,2.88,0,0,1,.17,1.92c-.1.37-.57,1.34-1.1.86-.31-.29-.21-.71-.32-1.08a3.71,3.71,0,0,0-.5-1.11,2.15,2.15,0,0,0-2.07-.87,4.17,4.17,0,0,0-3.25,2.83,3.38,3.38,0,0,1,1.94,3.91,3.55,3.55,0,0,1-4.3,2.43C622.79,296.67,623.28,294.93,624.35,295.3Z" transform="translate(-364.86 -59.34)"/><path class="cls-7" d="M584.59,263.33a28.77,28.77,0,0,1,15.52,2.07c1.39.6.29,2.67-1.1,2.08a26.45,26.45,0,0,0-14.31-1.8,1.19,1.19,0,0,1-1.23-1.12A1.21,1.21,0,0,1,584.59,263.33Z" transform="translate(-364.86 -59.34)"/><path class="cls-7" d="M561.36,266.59a10.78,10.78,0,0,1,9.83-1.81,1.18,1.18,0,0,1-.68,2.25,8,8,0,0,0-1.07-.28l-.16,0-.16,0-.52-.05c-.37,0-.74,0-1.1,0l-.29,0h-.13l-.21,0-.28.05a8.42,8.42,0,0,0-1,.24l-.5.16-.07,0h0l-.27.11a8.17,8.17,0,0,0-.93.48,4.94,4.94,0,0,0-.49.3l-.15.1-.17.14a1.22,1.22,0,0,1-1.66-.06A1.17,1.17,0,0,1,561.36,266.59Z" transform="translate(-364.86 -59.34)"/><path class="cls-8" d="M578.32,290.84a1.17,1.17,0,0,1,.11,2.34,4.59,4.59,0,0,0-.3,9.15,1.17,1.17,0,1,1-.52,2.29,6.93,6.93,0,0,1,.71-13.78Z" transform="translate(-364.86 -59.34)"/><path class="cls-8" d="M581.81,316.74l7.73-.73a1.18,1.18,0,0,1,.1,2.35l-7.73.73a1.18,1.18,0,0,1-1.22-1.12A1.19,1.19,0,0,1,581.81,316.74Z" transform="translate(-364.86 -59.34)"/><path d="M591.41,306.08a15.78,15.78,0,0,1-12.95,4.63c-1.33-.15-1.42,1.94-.09,2.09a17.79,17.79,0,0,0,14.45-5.18C593.76,306.66,592.35,305.12,591.41,306.08Z" transform="translate(-364.86 -59.34)"/><path class="cls-7" d="M563.39,242.74c-4.77,5.15,2.83,12.21,6.73,16,12.72,12.26,33.43,15.59,50,19.38,5.41,1.23,7.88-2.07,8.31-7.33,1.66-20.56-17.82-34.19-36.39-35.52-8.69-.63-20.7,1-27.77,6.66A7.92,7.92,0,0,0,563.39,242.74Z" transform="translate(-364.86 -59.34)"/><rect class="cls-10" x="275.95" y="153.07" width="223.01" height="135.35"/><line class="cls-11" x1="289.38" y1="230.71" x2="482.86" y2="230.71"/><line class="cls-11" x1="289.38" y1="242.66" x2="482.86" y2="242.66"/><line class="cls-11" x1="289.38" y1="254.6" x2="482.86" y2="254.6"/><line class="cls-11" x1="375.98" y1="266.55" x2="482.86" y2="266.55"/><polygon class="cls-12" points="472.97 169.66 477.98 179.82 489.19 181.45 481.08 189.36 483 200.52 472.97 195.25 462.94 200.52 464.86 189.36 456.75 181.45 467.96 179.82 472.97 169.66"/><polygon class="cls-12" points="418.81 169.66 423.82 179.82 435.03 181.45 426.92 189.36 428.83 200.52 418.81 195.25 408.78 200.52 410.7 189.36 402.59 181.45 413.8 179.82 418.81 169.66"/><polygon class="cls-12" points="364.65 169.66 369.66 179.82 380.87 181.45 372.76 189.36 374.68 200.52 364.65 195.25 354.62 200.52 356.54 189.36 348.43 181.45 359.64 179.82 364.65 169.66"/><polygon class="cls-12" points="310.49 169.66 315.5 179.82 326.71 181.45 318.6 189.36 320.51 200.52 310.49 195.25 300.46 200.52 302.38 189.36 294.27 181.45 305.48 179.82 310.49 169.66"/><path class="cls-5" d="M698.33,425.56c8.65,17.95,16.58,36.16,23.82,55.65,2.68,7.18,5.28,14.84,3.84,22.37s-8.52,14.53-16,13.05c-5.23-1-8.92-5.61-12.09-9.9Q682,485.22,667.67,462.6C681.43,454.21,692.08,440.15,698.33,425.56Z" transform="translate(-364.86 -59.34)"/><path class="cls-3" d="M542.48,375.07c-8.65,15.67-16.65,30.94-24.1,46.4,6.25,14.59,16.89,28.65,30.65,37q13.51-21.37,25.57-43.63Z" transform="translate(-364.86 -59.34)"/><path class="cls-5" d="M518.38,421.47c-8.66,17.94-16.58,36.16-23.83,55.64-2.67,7.19-5.28,14.85-3.84,22.38s8.52,14.53,16,13c5.24-1,8.93-5.6,12.1-9.89q15.89-21.51,30.18-44.13C535.27,450.12,524.63,436.06,518.38,421.47Z" transform="translate(-364.86 -59.34)"/><path class="cls-5" d="M772,331.88a11.17,11.17,0,0,0,.38-4.44,4.15,4.15,0,0,0-2.63-3.35c-1.73-.53-3.6.58-4.6,2.08a16.41,16.41,0,0,0-1.84,5.06,36.44,36.44,0,0,1-9.11,15.87c-2.23,2.26-4.78,4.25-6.65,6.82-6.47,8.88,2.9,17.54,10.17,8.36A78.24,78.24,0,0,0,772,331.88Z" transform="translate(-364.86 -59.34)"/><path class="cls-5" d="M763.5,325.12a11.14,11.14,0,0,0,.38-4.44,4.15,4.15,0,0,0-2.64-3.35c-1.72-.52-3.59.58-4.6,2.08a16.75,16.75,0,0,0-1.83,5.06,36.3,36.3,0,0,1-9.12,15.87c-2.23,2.27-4.77,4.26-6.64,6.83-6.48,8.88,2.9,17.54,10.17,8.36A78.43,78.43,0,0,0,763.5,325.12Z" transform="translate(-364.86 -59.34)"/><path class="cls-5" d="M752.92,325.57a11.14,11.14,0,0,0,.39-4.44,4.17,4.17,0,0,0-2.64-3.35c-1.72-.52-3.59.58-4.6,2.08a17,17,0,0,0-1.84,5.06,36.24,36.24,0,0,1-9.11,15.87c-2.23,2.27-4.77,4.26-6.65,6.83-6.47,8.88,2.9,17.54,10.18,8.35A78.16,78.16,0,0,0,752.92,325.57Z" transform="translate(-364.86 -59.34)"/><path class="cls-5" d="M741.74,329.27a9.14,9.14,0,0,0,.31-3.63,3.41,3.41,0,0,0-2.15-2.74,3.59,3.59,0,0,0-3.76,1.7,13.77,13.77,0,0,0-1.5,4.14,29.7,29.7,0,0,1-7.44,12.95c-1.82,1.85-3.9,3.48-5.42,5.57-5.29,7.25,2.36,14.33,8.3,6.83A64,64,0,0,0,741.74,329.27Z" transform="translate(-364.86 -59.34)"/><path class="cls-5" d="M756.79,363.36a55.65,55.65,0,0,1-14.5,10.11c-6.16,3.09-13.48,4.47-20,2.25s-11.8-8.66-11.31-15.53c.3-4.09,2.51-7.85,5.35-10.82a27.82,27.82,0,0,1,43.89,4.71Z" transform="translate(-364.86 -59.34)"/><path class="cls-5" d="M736.7,361.32q1.51,60.23,3,120.43c.19,7.64.37,15.42-1.51,22.77s-6.17,14.3-12.49,17c-10.62,4.52-22.66-5-26.77-16.95s-2.48-25.33-.79-38q7.29-54.8,14.59-109.59Z" transform="translate(-364.86 -59.34)"/><path class="cls-8" d="M702.52,433.85c.13-1.48,2.48-1.6,2.34-.1l-3.11,34.67c-.14,1.49-2.48,1.61-2.35.11Z" transform="translate(-364.86 -59.34)"/><path class="cls-13" d="M658.63,435a182.58,182.58,0,0,1,8.82-25.06c.61-1.39,2.68-.29,2.08,1.09a181.55,181.55,0,0,0-13.95,91,177.61,177.61,0,0,0,4.65,25.79c.38,1.46-1.86,2.19-2.23.73A184,184,0,0,1,658.63,435Z" transform="translate(-364.86 -59.34)"/><path class="cls-13" d="M542.2,404.38c0-1.5,2.39-1.62,2.34-.1a137.85,137.85,0,0,0,9,53.05A135.63,135.63,0,0,0,560,471.68c.69,1.33-1.28,2.61-2,1.27a140,140,0,0,1-15.36-52.8A136,136,0,0,1,542.2,404.38Z" transform="translate(-364.86 -59.34)"/><path class="cls-13" d="M678.2,604.41q3.13-1.06,6.24-2.23c1.41-.53.69-2.76-.72-2.23q-6.91,2.58-14,4.69C672.55,604.55,675.38,604.47,678.2,604.41Z" transform="translate(-364.86 -59.34)"/><path class="cls-13" d="M548.71,607.46l3,.83c2.15.06,4.31.11,6.46.14l4.07,0c-4.36-1-8.7-2.07-13-3.3C547.78,604.75,547.27,607,548.71,607.46Z" transform="translate(-364.86 -59.34)"/><path class="cls-14" d="M558.16,608.43c24,.37,47.88-.81,71.8-2a53.3,53.3,0,0,0-.53-8.41c-38.17.5-50.43-4.07-91.39-7.82q-2.41,8.39-4.34,17.25C541.84,608,550,608.3,558.16,608.43Z" transform="translate(-364.86 -59.34)"/><path class="cls-15" d="M656.24,605.15c14-.6,28.1-1,42.16-.93a120.81,120.81,0,0,0-13.53-28.51c-36.38,13.61-77.86,18.43-116,17.93a52.64,52.64,0,0,0,3.86,14.83C600.57,608.24,628.4,606.34,656.24,605.15Z" transform="translate(-364.86 -59.34)"/><path class="cls-14" d="M643.41,601.07a71.44,71.44,0,0,0,6.2,4.37l4.3-.19a70.51,70.51,0,0,1-9.23-6.15C643.49,598.16,642.23,600.14,643.41,601.07Z" transform="translate(-364.86 -59.34)"/><rect class="cls-10" x="136.4" width="119.45" height="111.78"/><polygon class="cls-12" points="196.13 31.35 204.1 47.51 221.93 50.1 209.03 62.67 212.07 80.43 196.13 72.05 180.18 80.43 183.22 62.67 170.32 50.1 188.15 47.51 196.13 31.35"/></g></g></g></svg>