<svg xmlns="http://www.w3.org/2000/svg" xmlns:xlink="http://www.w3.org/1999/xlink" viewBox="0 0 981 744"><defs><style>.cls-1,.cls-4{fill:none;}.cls-2{fill:#fff;}.cls-3{fill:#ebeced;}.cls-4{stroke:red;stroke-miterlimit:10;stroke-width:1.15px;}.cls-5{fill:#ebeef0;}.cls-6{fill:#38526a;}.cls-7{fill:red;}.cls-8{fill:#ffd4bc;}.cls-9{fill:#deb3a0;}.cls-10{clip-path:url(#clip-path);}.cls-11{fill:#ee605f;}.cls-12{fill:#d73b3e;}.cls-13{fill:#e93737;}.cls-14{fill:#fff8ff;}.cls-15{clip-path:url(#clip-path-2);}.cls-16{clip-path:url(#clip-path-3);}.cls-17{clip-path:url(#clip-path-4);}.cls-18{font-size:54px;fill:#3a5682;font-family:ArialMT, Arial;}</style><clipPath id="clip-path"><rect class="cls-1" x="435.94" y="59.25" width="81.53" height="54.35"/></clipPath><clipPath id="clip-path-2"><rect class="cls-1" x="533.2" y="303.12" width="156.26" height="104.17"/></clipPath><clipPath id="clip-path-3"><rect class="cls-1" x="758.23" y="419.88" width="109.78" height="73.19"/></clipPath><clipPath id="clip-path-4"><rect class="cls-1" x="597.84" y="86.4" width="180.74" height="120.49" transform="translate(16.9 -64.27) rotate(5.41)"/></clipPath></defs><g id="Capa_2" data-name="Capa 2"><g id="Capa_1-2" data-name="Capa 1"><rect class="cls-2" width="981" height="744" rx="32.86"/><ellipse class="cls-3" cx="318.65" cy="559.38" rx="304.65" ry="27.65"/><path class="cls-4" d="M554.65,174.63v0Z"/><path class="cls-5" d="M199.46,558.9a116.74,116.74,0,0,0,3.34-17.64,118,118,0,0,0,.48-20.5c-5.45.66-11.35,1.17-17.64,1.43-6.46.27-12.52.23-18.12,0a43.05,43.05,0,0,1-17.16,8.58c-4.71,1.11-8.93,1.07-17.17,1-7.13-.1-13-.55-17.16-1a23,23,0,0,0-14.3,5.73c-9.55,8.68-6.82,22.22-6.68,22.88Z"/><path class="cls-5" d="M582.31,189.41a123.21,123.21,0,0,1-14.31,1,125.37,125.37,0,0,1-22.88-1.9A60.69,60.69,0,0,0,539.4,157H548a32.64,32.64,0,0,0,7.63-8.58c3-4.95,3.94-9.63,4.77-16.21,2.71-21.7,0-30.64,6.67-39.1a23.25,23.25,0,0,1,3.81-3.81c7.59-5.92,17-5.29,21-4.77q-2.22,27.42-4.77,55.31Q584.79,164.82,582.31,189.41Z"/><path class="cls-5" d="M165.61,266.65Q161,295.84,157,326.72q-3.85,30.24-6.67,59.12c-5.75-1.61-11.81-3.5-18.12-5.72-6.11-2.16-11.83-4.41-17.17-6.68,1.22-30.55,1.69-54.86,1.91-70.56a621,621,0,0,1,5.72-70.56c1.74-12.53,4.53-29.7,18.12-42a48.21,48.21,0,0,1,11.44-7.63c.16,1.18,1.26,8.34,7.63,12.4,4.47,2.85,11.79,4.34,15.26,1,4.2-4.1.75-13.46-1-18.11a38.86,38.86,0,0,0-3.81-7.63,577,577,0,0,1,52.44-28.61c18.39-8.81,44-20.93,79.15-30.51a399.57,399.57,0,0,1,39.09-8.58,39.37,39.37,0,0,1,3.82,22.88q-36.44,20.56-74.38,41-23.5,12.66-46.72,24.8a458.64,458.64,0,0,1,30.51,42.9,458.65,458.65,0,0,1,22.89,41,70.27,70.27,0,0,1-61,46.72,141.8,141.8,0,0,1-50.54-55.3Z"/><rect class="cls-6" x="94.57" y="558.9" width="104.89" height="12.4"/><circle class="cls-6" cx="185.64" cy="540.31" r="8.58"/><path class="cls-6" d="M135.1,542.22c-1.74-.16-2.7-3.13-3.82-6.68s-2.64-8.42-.95-9.53a2.2,2.2,0,0,1,1.91,0c1.79.76,1.47,3.15,2.86,7.62s2.93,6.18,1.91,7.63A2.29,2.29,0,0,1,135.1,542.22Z"/><path class="cls-6" d="M144.63,542.22c-1.73-.16-2.7-3.13-3.81-6.68s-2.64-8.42-.95-9.53a2.18,2.18,0,0,1,1.9,0c1.8.76,1.47,3.15,2.86,7.62s2.94,6.18,1.91,7.63A2.26,2.26,0,0,1,144.63,542.22Z"/><path class="cls-6" d="M154,542.69c-2-.18-3.08-3.58-4.36-7.64s-3-9.65-1.08-10.92a2.55,2.55,0,0,1,2.17,0c2.05.88,1.68,3.61,3.27,8.73s3.35,7.08,2.18,8.73A2.57,2.57,0,0,1,154,542.69Z"/><path class="cls-6" d="M167.52,522.19c-1.28-16-2.7-36.35-3.82-60.07-3.44-73.49.17-92.24,4.77-106.8a165.81,165.81,0,0,1,25.75-49.58L216.15,322a74.29,74.29,0,0,0,61-45.77c-1.81-4.77-4-9.9-6.68-15.26-1.88-3.76-3.8-7.26-5.72-10.48a1133.79,1133.79,0,0,1,273.66-92.5,53.37,53.37,0,0,1,6.68,30.52C495.17,213.17,455.2,233,427.83,246.62c-5.2,2.59-77.73,39.59-108.7,53.4-1.55.69-7.05,3.13-14.3,6.67-16.18,7.91-29.36,15.57-33.38,18.12-21.31,13.52-31.93,39.68-42.9,66.75-10.67,26.3-14.71,47.89-18.12,66.75a432.65,432.65,0,0,0-6.68,62,173,173,0,0,1-18.11,1.9A170.78,170.78,0,0,1,167.52,522.19Z"/><polygon class="cls-6" points="582.31 190.36 591.84 85.47 603.28 85.47 593.75 190.36 582.31 190.36"/><circle class="cls-6" cx="565.14" cy="173.2" r="8.58"/><path class="cls-6" d="M571.82,120.75c-.34-1.08-1.49-1.55-6.68-2.86-6.66-1.67-8-1.71-8.58-1a2.2,2.2,0,0,0,0,1.91c.69,1.64,2.73,1.65,6.68,2.86,4.85,1.48,6.31,2.84,7.62,1.9A2.76,2.76,0,0,0,571.82,120.75Z"/><path class="cls-6" d="M570.86,130.29c-.33-1.08-1.48-1.56-6.67-2.86-6.67-1.68-8-1.72-8.58-1a2.14,2.14,0,0,0,0,1.9c.69,1.65,2.73,1.66,6.67,2.86,4.86,1.48,6.32,2.85,7.63,1.91A2.75,2.75,0,0,0,570.86,130.29Z"/><path class="cls-6" d="M569.8,141c-.19-1.1-1.35-1.75-6.66-3.86-6.84-2.71-8.29-3-9-2.32a2,2,0,0,0-.28,1.85c.49,1.71,2.65,2.06,6.66,3.87,4.94,2.22,6.29,3.78,7.82,3.09A2.59,2.59,0,0,0,569.8,141Z"/><path class="cls-7" d="M148.88,147.67a13.69,13.69,0,0,1-4.4-.72,13.88,13.88,0,0,1-5.92-3.95.47.47,0,0,1,.71-.63,13,13,0,0,0,5.52,3.68,13.28,13.28,0,0,0,8.28,0,.47.47,0,0,1,.6.3.47.47,0,0,1-.3.6A14.42,14.42,0,0,1,148.88,147.67Z"/><path class="cls-7" d="M154.17,141.26a.46.46,0,0,1-.22-.06.48.48,0,0,1-.2-.64,9.77,9.77,0,0,0,.91-6.36,10,10,0,0,0-4.55-6.36.48.48,0,0,1,.49-.82,11,11,0,0,1,5,7,10.71,10.71,0,0,1-1,7A.48.48,0,0,1,154.17,141.26Z"/><path class="cls-7" d="M142.73,116.46h0l-11.44-.95a.48.48,0,0,1-.44-.52.46.46,0,0,1,.51-.43l11.45,1a.47.47,0,0,1,.43.52A.47.47,0,0,1,142.73,116.46Z"/><path class="cls-7" d="M145.59,115.51a.43.43,0,0,1-.25-.07.48.48,0,0,1-.16-.66c.61-1,1.26-1.94,1.93-2.88a54,54,0,0,1,3.84-4.81.47.47,0,1,1,.71.63,55.54,55.54,0,0,0-3.78,4.73c-.65.92-1.29,1.88-1.89,2.84A.47.47,0,0,1,145.59,115.51Z"/><path class="cls-8" d="M117,374.39c.24,8.72.14,15.9,0,21-.28,10.06-.76,12.44,0,18.12a50.27,50.27,0,0,0,6.68,19.07c2.55,4.23,4.69,7.66,7.62,7.63,3.65-.05,6.73-5.4,7.63-9.54,1.27-5.82-1.28-11.64-2.86-15.25-1.4-3.2-3.3-6.38-2.86-6.68s2.79,4,5.72,3.82c2.3-.15,4.39-3,4.77-5.73s-1.12-5.08-2.86-7.62c-3.46-5.07-7.26-6.75-6.67-8.59.4-1.27,2.39-.93,3.81-2.86a6.67,6.67,0,0,0,.95-4.76Z"/><path class="cls-8" d="M170.38,170.34c-2.41-5.57-2.43-5.28-2.86-6.68-2.14-6.91-1.3-12.58-1-16.21a83.26,83.26,0,0,0-1.91-24.79c-1.95-7.74-8-23.3-17.17-23.84-5.1-.29-9.23,4.15-13.34,8.58a37.42,37.42,0,0,0-8.59,35.29,11.1,11.1,0,0,0-4.76,5.72c-1.67,4.85.9,9.87,3.81,12.39,1.48,1.28,3,1.83,5.72,2.86,3.74,1.4,5.37,1.26,7.63,1.91,7.43,2.14,11.54,9.84,12.4,11.44,2.59,4.87.95,5.76,3.81,10.49,1.19,2,4,6.54,9.53,8.58,1.66.62,6.37,2.37,9.54,0,2.54-1.89,2.74-5.42,2.86-7.62C176.26,185.55,175.73,182.7,170.38,170.34Z"/><path class="cls-8" d="M345.35,126c9.66-3.12,17.72-6.14,23.84-8.58,15.22-6.07,18.92-8.71,21.93-12.4,4.18-5.12,5.47-10.35,6.68-15.26,2.76-11.22,2.38-25.21-1.43-26.22-1.85-.49-4,2.18-7.63,6.68a75.86,75.86,0,0,0-9.54,15.25c-2.92,6.34-11.52,14-37.18,19.07A55.24,55.24,0,0,1,345.35,126Z"/><path class="cls-9" d="M378.25,104.54c-.84-.79,1-4,4.77-10.48,4-6.88,6.31-10.91,7.63-10.49,1.54.49,1.81,7.11-1,12.39C386.46,102.13,379.48,105.7,378.25,104.54Z"/><path class="cls-6" d="M333.44,88.81a1.43,1.43,0,0,1-.69-2.69l45.77-24.79a1.43,1.43,0,0,1,1.36,2.52L334.12,88.64A1.4,1.4,0,0,1,333.44,88.81Z"/><path class="cls-6" d="M313.41,167a1.41,1.41,0,0,1-1.27-.78,1.43,1.43,0,0,1,.62-1.92l44.82-22.89a1.43,1.43,0,0,1,1.3,2.55l-44.82,22.88A1.39,1.39,0,0,1,313.41,167Z"/><path class="cls-6" d="M383,133.63a1.41,1.41,0,0,1-1.23-.71,1.43,1.43,0,0,1,.5-2,77.78,77.78,0,0,0,38.39-65.54,1.41,1.41,0,0,1,1.47-1.4,1.43,1.43,0,0,1,1.39,1.46,80.66,80.66,0,0,1-39.8,68A1.42,1.42,0,0,1,383,133.63Z"/><path class="cls-6" d="M458.35,161.28a1.43,1.43,0,0,1-.45-2.79l52.45-17.16a1.42,1.42,0,0,1,1.8.91,1.43,1.43,0,0,1-.91,1.81l-52.45,17.16A1.39,1.39,0,0,1,458.35,161.28Z"/><path class="cls-6" d="M492.68,237.56a1.43,1.43,0,0,1-.67-2.69l40-21a1.43,1.43,0,0,1,1.33,2.53l-40.05,21A1.43,1.43,0,0,1,492.68,237.56Z"/><path class="cls-6" d="M446,283.33a1.43,1.43,0,0,1-.53-2.76l79.15-31.46a1.43,1.43,0,0,1,1,2.65l-79.14,31.47A1.39,1.39,0,0,1,446,283.33Z"/><path class="cls-6" d="M346.78,310a1.43,1.43,0,0,1-.59-2.73l99.17-44.82a1.43,1.43,0,0,1,1.18,2.61L347.37,309.9A1.37,1.37,0,0,1,346.78,310Z"/><path class="cls-6" d="M147.49,172.25a17.9,17.9,0,0,1-7.62,4.76c-10.31,3.13-19.42-5.15-20-5.72-3,.2-9,.1-14.3-3.81-10.66-7.9-7.85-23.68-7.63-24.79a27.81,27.81,0,0,1,3.82-9.54c-.84-1-6.35-7.83-4.77-17.16,1.94-11.45,12.73-16,13.35-16.21-.42-.47-6.16-7.24-3.82-15.26,2.08-7.12,9.61-12.14,18.12-11.44,5.64-2.9,9.76-2.3,11.44-1.91,9,2.07,16,13.67,15.26,28.61a8.82,8.82,0,0,0-2.86-1c-9.31-1.36-21.35,13.18-23.84,27.66a36.66,36.66,0,0,0,1,16.21c-3.84,3.31-5.81,8.1-4.76,12.39,1.33,5.47,7,7.91,8.58,8.58,3.45,1.49,4.91.7,8.58,1.91a21.38,21.38,0,0,1,9.53,6.68"/><path class="cls-6" d="M153.22,145.55a1,1,0,0,0-.3,0,12.93,12.93,0,0,1-4,.65,12.23,12.23,0,0,1-9.24-4.19,1,1,0,0,0-.72-.32,1,1,0,0,0-.71,1.59,14.38,14.38,0,0,0,6.13,4.08,14,14,0,0,0,4.55.75,14.91,14.91,0,0,0,4.64-.75.94.94,0,0,0,.55-.47,1,1,0,0,0,.05-.73A1,1,0,0,0,153.22,145.55Z"/><path class="cls-6" d="M156.06,133.91a11.51,11.51,0,0,0-5.21-7.3,1,1,0,0,0-1.31.33,1,1,0,0,0,.32,1.31,9.46,9.46,0,0,1,4.33,6,9.25,9.25,0,0,1-.87,6.05,1,1,0,0,0,.41,1.29,1,1,0,0,0,1.29-.41A11.26,11.26,0,0,0,156.06,133.91Z"/><path class="cls-6" d="M142.73,116.94a1,1,0,0,0,1-.87.94.94,0,0,0-.87-1l-11.54-1a.95.95,0,0,0-.71,1.57.94.94,0,0,0,.65.33l11.43,1Z"/><path class="cls-6" d="M145.08,115.84a.92.92,0,0,0,.51.15,1,1,0,0,0,.81-.45c.59-1,1.22-1.9,1.87-2.81A53.12,53.12,0,0,1,152,108a.92.92,0,0,0,.24-.69,1,1,0,0,0-.31-.66,1,1,0,0,0-.64-.24,1,1,0,0,0-.71.32,56.44,56.44,0,0,0-3.88,4.85c-.68.95-1.33,1.93-1.94,2.91a.92.92,0,0,0-.12.72A1,1,0,0,0,145.08,115.84Z"/><path class="cls-6" d="M138.91,119.8c-1.53.55-1.89,4.1-.95,6.68,1.09,3,4.21,5.47,5.72,4.76s1.47-4.81,0-7.63C142.64,121.62,140.39,119.27,138.91,119.8Z"/><ellipse class="cls-6" cx="154.17" cy="120.75" rx="3.02" ry="6.03" transform="matrix(0.95, -0.32, 0.32, 0.95, -30.27, 54.95)"/><g class="cls-10"><rect class="cls-11" x="435.46" y="58.77" width="82" height="55.31"/><polygon class="cls-12" points="476.46 92.41 434.87 59.52 436.05 58.03 476.46 89.98 516.88 58.03 518.06 59.52 476.46 92.41"/></g><circle class="cls-13" cx="517.94" cy="59.25" r="14.3"/><path class="cls-14" d="M527.68,50.47a1,1,0,0,0-1.35,0l-8.39,8.39-8.38-8.39a1,1,0,1,0-1.35,1.35l8.38,8.38-7.43,7.44a1,1,0,0,0,.68,1.62.92.92,0,0,0,.67-.28l7.43-7.43L525.37,69a.94.94,0,0,0,.68.28.92.92,0,0,0,.67-.28,1,1,0,0,0,0-1.34l-7.43-7.44,8.39-8.38A1,1,0,0,0,527.68,50.47Z"/><g class="cls-15"><rect class="cls-11" x="532.29" y="302.2" width="157.17" height="106"/><polygon class="cls-12" points="610.87 366.67 531.15 303.64 533.42 300.77 610.87 362.01 688.33 300.77 690.59 303.64 610.87 366.67"/></g><circle class="cls-13" cx="690.37" cy="303.12" r="27.41"/><path class="cls-14" d="M709,286.29a1.84,1.84,0,0,0-2.59,0l-16.07,16.07L674.3,286.29a1.83,1.83,0,0,0-2.58,2.59L687.79,305l-14.24,14.24a1.82,1.82,0,1,0,2.58,2.58l14.24-14.24,14.25,14.24a1.81,1.81,0,0,0,2.58,0,1.83,1.83,0,0,0,0-2.58L693,305,709,288.88A1.84,1.84,0,0,0,709,286.29Z"/><g class="cls-16"><rect class="cls-11" x="757.59" y="419.23" width="110.42" height="74.47"/><polygon class="cls-12" points="812.8 464.53 756.79 420.24 758.39 418.23 812.8 461.25 867.22 418.23 868.81 420.24 812.8 464.53"/></g><circle class="cls-13" cx="868.65" cy="419.88" r="19.26"/><path class="cls-14" d="M881.76,408.05a1.29,1.29,0,0,0-1.82,0l-11.29,11.29-11.29-11.29a1.28,1.28,0,1,0-1.81,1.82l11.29,11.29-10,10a1.28,1.28,0,1,0,1.82,1.81l10-10,10,10a1.28,1.28,0,0,0,1.82-1.81l-10-10,11.29-11.29A1.29,1.29,0,0,0,881.76,408.05Z"/><g class="cls-17"><rect class="cls-11" x="596.79" y="85.29" width="181.8" height="122.61" transform="translate(16.9 -64.22) rotate(5.41)"/><polygon class="cls-12" points="686.44 159.8 601.52 78.51 604.44 75.46 686.95 154.43 782.82 92.36 785.11 95.91 686.44 159.8"/></g><circle class="cls-13" cx="784.92" cy="95.29" r="31.71"/><path class="cls-14" d="M808.23,78a2.1,2.1,0,0,0-3-.28L785,94.42,768.25,74.16A2.11,2.11,0,0,0,765,76.85l16.75,20.26-18,14.85a2.11,2.11,0,0,0-.29,3,2.12,2.12,0,0,0,3,.29l17.95-14.85,14.85,17.95a2.1,2.1,0,0,0,1.43.76,2.11,2.11,0,0,0,1.83-3.45L787.69,97.68,808,80.92A2.1,2.1,0,0,0,808.23,78Z"/><path class="cls-11" d="M704.84,65.93H555.13a1.91,1.91,0,1,1,0-3.82H704.84a1.91,1.91,0,0,1,0,3.82Z"/><path class="cls-11" d="M738.21,247.57H588.5a1.91,1.91,0,0,1,0-3.81H738.21a1.91,1.91,0,1,1,0,3.81Z"/><path class="cls-11" d="M715.32,441.14H565.62a1.91,1.91,0,1,1,0-3.81h149.7a1.91,1.91,0,1,1,0,3.81Z"/><path class="cls-11" d="M904.12,538.4H754.42a1.91,1.91,0,1,1,0-3.81h149.7a1.91,1.91,0,1,1,0,3.81Z"/><path class="cls-11" d="M964.19,479.48H888.87c-.53,0-1-.9-1-2s.43-2,1-2h75.32c.53,0,1,.9,1,2S964.72,479.48,964.19,479.48Z"/><path class="cls-11" d="M921.32,351.83H774.41a1.61,1.61,0,1,1,0-3.18H921.32a1.61,1.61,0,1,1,0,3.18Z"/><path class="cls-11" d="M883.18,330.85H736.27a1.61,1.61,0,1,1,0-3.18H883.18a1.61,1.61,0,1,1,0,3.18Z"/><path class="cls-11" d="M963.72,193.44H851.21a1.54,1.54,0,0,1,0-3.08H963.72a1.54,1.54,0,0,1,0,3.08Z"/><path class="cls-11" d="M940.37,154.07H791.6a1.88,1.88,0,1,1,0-3.76H940.37a1.88,1.88,0,1,1,0,3.76Z"/><path class="cls-11" d="M965.52,56.52H844.64c-.85,0-1.54-1-1.54-2.21s.69-2.21,1.54-2.21H965.52c.85,0,1.54,1,1.54,2.21S966.37,56.52,965.52,56.52Z"/><text class="cls-18" transform="translate(51.05 654.53)">would you like to interrupt <tspan x="0" y="47">the shipment?</tspan></text></g></g></svg>