<svg xmlns="http://www.w3.org/2000/svg" xmlns:xlink="http://www.w3.org/1999/xlink" viewBox="0 0 1055.4 786.98"><defs><style>.cls-1,.cls-3{fill:none;}.cls-2{fill:#ebeced;}.cls-3{stroke:red;stroke-miterlimit:10;stroke-width:1.28px;}.cls-4{fill:#e4e9ff;}.cls-5{fill:#614b93;}.cls-6{fill:red;}.cls-7{fill:#ffd4bc;}.cls-8{fill:#deb3a0;}.cls-9{clip-path:url(#clip-path);}.cls-10{fill:#ee605f;}.cls-11{fill:#d73b3e;}.cls-12{fill:#e93737;}.cls-13{fill:#fff8ff;}.cls-14{clip-path:url(#clip-path-2);}.cls-15{clip-path:url(#clip-path-3);}.cls-16{clip-path:url(#clip-path-4);}.cls-17{fill:#668bc6;}.cls-18{font-size:63.48px;fill:#3a5682;font-family:Arial-BoldItalicMT, Arial;font-weight:700;font-style:italic;}</style><clipPath id="clip-path"><rect class="cls-1" x="467.25" y="15.84" width="90.28" height="60.19"/></clipPath><clipPath id="clip-path-2"><rect class="cls-1" x="574.95" y="285.89" width="173.04" height="115.36"/></clipPath><clipPath id="clip-path-3"><rect class="cls-1" x="824.15" y="415.19" width="121.57" height="81.04"/></clipPath><clipPath id="clip-path-4"><rect class="cls-1" x="646.54" y="45.9" width="200.15" height="133.43" transform="translate(13.95 -69.93) rotate(5.41)"/></clipPath></defs><g id="Capa_2" data-name="Capa 2"><g id="Capa_1-2" data-name="Capa 1"><ellipse class="cls-2" cx="337.37" cy="569.67" rx="337.37" ry="30.62"/><path class="cls-3" d="M598.71,143.61v0Z"/><path class="cls-4" d="M205.38,569.14a130.45,130.45,0,0,0,4.22-42.23c-6,.73-12.56,1.3-19.53,1.58-7.15.29-13.86.25-20.07,0a47.53,47.53,0,0,1-19,9.5c-5.22,1.23-9.88,1.19-19,1.06-7.9-.11-14.43-.61-19-1.06a25.51,25.51,0,0,0-15.83,6.34c-10.57,9.61-7.56,24.61-7.4,25.34Z"/><path class="cls-4" d="M629.33,160A137.09,137.09,0,0,1,613.49,161a138.08,138.08,0,0,1-25.34-2.11,67.36,67.36,0,0,0-6.34-34.85h9.51a36.14,36.14,0,0,0,8.45-9.5c3.32-5.48,4.36-10.67,5.28-17.95,3-24,0-33.93,7.39-43.3a25.33,25.33,0,0,1,4.22-4.22c8.4-6.56,18.82-5.86,23.23-5.28q-2.46,30.37-5.28,61.24Q632.07,132.75,629.33,160Z"/><path class="cls-4" d="M167.89,245.5q-5.12,32.34-9.5,66.53-4.27,33.5-7.39,65.46c-6.37-1.78-13.08-3.87-20.07-6.33-6.76-2.39-13.1-4.88-19-7.39,1.34-33.84,1.87-60.75,2.11-78.14a686.7,686.7,0,0,1,6.34-78.14c1.91-13.87,5-32.88,20.06-46.46a52.89,52.89,0,0,1,12.67-8.45c.18,1.3,1.39,9.23,8.45,13.73,4.94,3.15,13.06,4.8,16.89,1.05,4.65-4.54.84-14.91-1-20.06a42.67,42.67,0,0,0-4.23-8.45,636.43,636.43,0,0,1,58.08-31.67C251.6,97.41,279.92,84,318.89,73.39c17.79-4.85,32.84-7.75,43.29-9.51a43.64,43.64,0,0,1,4.23,25.35Q326.06,112,284,134.63q-26,14-51.74,27.45a504.35,504.35,0,0,1,33.79,47.52A505.87,505.87,0,0,1,291.44,255a77.83,77.83,0,0,1-67.58,51.74,157,157,0,0,1-56-61.25Z"/><rect class="cls-5" x="89.23" y="569.14" width="116.15" height="13.73"/><circle class="cls-5" cx="190.07" cy="548.55" r="9.5"/><path class="cls-5" d="M134.1,550.67c-1.92-.17-3-3.46-4.22-7.4s-2.93-9.33-1.06-10.56a2.49,2.49,0,0,1,2.11,0c2,.85,1.63,3.49,3.17,8.45s3.25,6.84,2.11,8.45A2.48,2.48,0,0,1,134.1,550.67Z"/><path class="cls-5" d="M144.66,550.67c-1.92-.17-3-3.46-4.22-7.4s-2.93-9.33-1.06-10.56a2.49,2.49,0,0,1,2.11,0c2,.85,1.63,3.49,3.17,8.45s3.25,6.84,2.11,8.45A2.48,2.48,0,0,1,144.66,550.67Z"/><path class="cls-5" d="M155,551.19c-2.19-.2-3.41-4-4.82-8.47S146.87,532,149,530.64a2.85,2.85,0,0,1,2.42,0c2.26,1,1.85,4,3.61,9.67,1.72,5.52,3.71,7.83,2.42,9.67A2.87,2.87,0,0,1,155,551.19Z"/><path class="cls-5" d="M170,528.49c-1.42-17.68-3-40.26-4.22-66.52-3.81-81.38.19-102.15,5.28-118.27a183.72,183.72,0,0,1,28.51-54.9l24.29,17.95a82.23,82.23,0,0,0,67.58-50.69,181.92,181.92,0,0,0-7.4-16.89c-2.08-4.17-4.21-8-6.33-11.62A1255.11,1255.11,0,0,1,580.76,125.13a59.3,59.3,0,0,1,7.39,33.79c-55.32,27.36-99.58,49.34-129.88,64.41-5.76,2.86-86.08,43.84-120.37,59.13-1.72.76-7.81,3.47-15.84,7.39-17.92,8.75-32.51,17.24-37,20.06-23.61,15-35.36,43.94-47.52,73.92-11.81,29.13-16.28,53-20.06,73.91a478.44,478.44,0,0,0-7.39,68.64A192.08,192.08,0,0,1,170,528.49Z"/><polygon class="cls-5" points="629.33 161.03 639.89 44.88 652.56 44.88 642 161.03 629.33 161.03"/><circle class="cls-5" cx="610.32" cy="142.02" r="9.5"/><path class="cls-5" d="M617.72,84c-.37-1.2-1.65-1.73-7.4-3.17-7.38-1.86-8.9-1.9-9.5-1.06a2.42,2.42,0,0,0,0,2.11c.77,1.83,3,1.84,7.39,3.17,5.38,1.64,7,3.15,8.45,2.11A3,3,0,0,0,617.72,84Z"/><path class="cls-5" d="M616.66,94.51c-.37-1.2-1.65-1.73-7.39-3.17-7.38-1.86-8.91-1.91-9.5-1.06a2.35,2.35,0,0,0,0,2.11c.76,1.82,3,1.84,7.39,3.17,5.37,1.64,7,3.15,8.44,2.11A3,3,0,0,0,616.66,94.51Z"/><path class="cls-5" d="M615.48,106.39c-.21-1.22-1.49-1.94-7.38-4.28-7.56-3-9.18-3.29-9.94-2.56a2.2,2.2,0,0,0-.31,2c.54,1.89,2.94,2.27,7.38,4.27,5.47,2.47,7,4.2,8.66,3.43A2.87,2.87,0,0,0,615.48,106.39Z"/><path class="cls-6" d="M149.36,113.75a15.12,15.12,0,0,1-11.43-5.17.52.52,0,0,1,0-.74.51.51,0,0,1,.74,0,14.36,14.36,0,0,0,6.11,4.08,14.56,14.56,0,0,0,9.17,0,.53.53,0,0,1,.33,1A16.09,16.09,0,0,1,149.36,113.75Z"/><path class="cls-6" d="M155.22,106.65a.53.53,0,0,1-.47-.77,10.75,10.75,0,0,0,1-7,11,11,0,0,0-5-7,.53.53,0,0,1-.17-.73.51.51,0,0,1,.72-.17,12.09,12.09,0,0,1,5.52,7.73,11.78,11.78,0,0,1-1.1,7.74A.53.53,0,0,1,155.22,106.65Z"/><path class="cls-6" d="M142.55,79.19h0l-12.68-1a.53.53,0,0,1,.09-1.06l12.67,1.06a.53.53,0,0,1,0,1Z"/><path class="cls-6" d="M145.72,78.14a.57.57,0,0,1-.28-.08.53.53,0,0,1-.17-.73c.67-1.08,1.39-2.15,2.13-3.19a60.64,60.64,0,0,1,4.26-5.33.54.54,0,0,1,.75,0,.54.54,0,0,1,0,.75,58.49,58.49,0,0,0-4.19,5.23c-.73,1-1.43,2.08-2.09,3.14A.54.54,0,0,1,145.72,78.14Z"/><path class="cls-7" d="M114,364.82c.27,9.65.16,17.6,0,23.23-.31,11.14-.84,13.78,0,20.07a55.43,55.43,0,0,0,7.39,21.11c2.83,4.68,5.2,8.49,8.45,8.45,4-.05,7.45-6,8.45-10.56,1.4-6.44-1.42-12.9-3.17-16.89-1.55-3.55-3.66-7.06-3.17-7.39s3.08,4.43,6.34,4.22c2.54-.17,4.86-3.36,5.28-6.34s-1.24-5.62-3.17-8.44c-3.84-5.61-8.05-7.48-7.39-9.51.45-1.41,2.65-1,4.22-3.16a7.36,7.36,0,0,0,1.06-5.28Z"/><path class="cls-7" d="M173.17,138.85c-2.67-6.16-2.69-5.84-3.17-7.39-2.37-7.65-1.43-13.93-1.05-18a92.16,92.16,0,0,0-2.11-27.45c-2.17-8.57-8.82-25.81-19-26.4-5.66-.33-10.22,4.59-14.78,9.5a41.45,41.45,0,0,0-9.51,39.07,12.35,12.35,0,0,0-5.28,6.34c-1.84,5.37,1,10.94,4.23,13.72,1.64,1.42,3.27,2,6.33,3.17,4.15,1.55,6,1.39,8.45,2.11,8.23,2.37,12.78,10.91,13.73,12.68,2.88,5.39,1.05,6.37,4.22,11.61,1.32,2.17,4.48,7.25,10.56,9.5,1.83.68,7.05,2.62,10.56,0,2.81-2.09,3-6,3.17-8.44C179.69,155.7,179.1,152.55,173.17,138.85Z"/><path class="cls-7" d="M366.93,89.75c10.7-3.45,19.62-6.8,26.4-9.5,16.85-6.72,20.95-9.64,24.29-13.73,4.63-5.67,6.05-11.46,7.39-16.89,3.06-12.43,2.64-27.92-1.58-29C421.39,20.05,419,23,415,28a83.13,83.13,0,0,0-10.56,16.9c-3.24,7-12.76,15.52-41.18,21.12a61,61,0,0,1,3.69,23.75Z"/><path class="cls-8" d="M403.36,66c-.93-.88,1.14-4.46,5.28-11.62,4.41-7.61,7-12.08,8.45-11.62,1.71.55,2,7.88-1.06,13.73C412.45,63.32,404.73,67.27,403.36,66Z"/><path class="cls-5" d="M353.74,48.57a1.58,1.58,0,0,1-.76-3l50.69-27.46a1.58,1.58,0,0,1,1.5,2.79L354.49,48.38A1.58,1.58,0,0,1,353.74,48.57Z"/><path class="cls-5" d="M331.56,135.16a1.59,1.59,0,0,1-.72-3l49.63-25.34a1.58,1.58,0,1,1,1.44,2.82L332.28,135A1.69,1.69,0,0,1,331.56,135.16Z"/><path class="cls-5" d="M408.64,98.2a1.58,1.58,0,0,1-.8-3,86.85,86.85,0,0,0,29-28,86.7,86.7,0,0,0,13.48-44.59A1.56,1.56,0,0,1,452,21.12a1.58,1.58,0,0,1,1.55,1.62,89.91,89.91,0,0,1-14,46.22,89.92,89.92,0,0,1-30.09,29A1.59,1.59,0,0,1,408.64,98.2Z"/><path class="cls-5" d="M492.06,128.82a1.56,1.56,0,0,1-1.5-1.09,1.58,1.58,0,0,1,1-2l58.07-19a1.58,1.58,0,1,1,1,3l-58.08,19A1.4,1.4,0,0,1,492.06,128.82Z"/><path class="cls-5" d="M530.08,213.3a1.59,1.59,0,0,1-.74-3l44.35-23.23a1.58,1.58,0,0,1,2.14.67,1.6,1.6,0,0,1-.67,2.14l-44.35,23.23A1.64,1.64,0,0,1,530.08,213.3Z"/><path class="cls-5" d="M478.33,264a1.58,1.58,0,0,1-.58-3.05l87.64-34.85a1.58,1.58,0,1,1,1.17,2.94l-87.64,34.85A1.51,1.51,0,0,1,478.33,264Z"/><path class="cls-5" d="M368.52,293.55a1.61,1.61,0,0,1-1.45-.93,1.59,1.59,0,0,1,.8-2.1l109.81-49.63a1.59,1.59,0,0,1,1.31,2.89L369.17,293.41A1.65,1.65,0,0,1,368.52,293.55Z"/><path class="cls-5" d="M147.83,141a19.85,19.85,0,0,1-8.45,5.28c-11.42,3.46-21.5-5.71-22.17-6.34-3.3.22-10,.1-15.84-4.22-11.8-8.74-8.69-26.22-8.45-27.46a30.86,30.86,0,0,1,4.23-10.56c-.93-1.11-7-8.67-5.28-19C94,66,106,61,106.65,60.72c-.46-.53-6.81-8-4.23-16.9,2.3-7.88,10.65-13.45,20.07-12.67,6.24-3.21,10.81-2.54,12.67-2.11,9.92,2.29,17.75,15.13,16.89,31.68a9.61,9.61,0,0,0-3.16-1.06c-10.32-1.51-23.64,14.59-26.4,30.62a40.53,40.53,0,0,0,1.05,18c-4.26,3.68-6.44,9-5.28,13.73,1.48,6,7.77,8.76,9.51,9.5,3.82,1.65,5.44.78,9.5,2.11a23.82,23.82,0,0,1,10.56,7.4"/><path class="cls-5" d="M154.17,111.4a1.27,1.27,0,0,0-.34,0,14.22,14.22,0,0,1-4.47.72,13.64,13.64,0,0,1-4.36-.71,13.85,13.85,0,0,1-5.88-3.93,1.08,1.08,0,0,0-.79-.35,1,1,0,0,0-.79,1.75,15.64,15.64,0,0,0,11.82,5.35,16.78,16.78,0,0,0,5.14-.82,1.1,1.1,0,0,0,.61-.53,1,1,0,0,0,.06-.81A1.06,1.06,0,0,0,154.17,111.4Z"/><path class="cls-5" d="M157.31,98.52a12.68,12.68,0,0,0-5.77-8.09,1,1,0,0,0-.54-.15,1.08,1.08,0,0,0-.91.51,1.06,1.06,0,0,0,.36,1.45,10.5,10.5,0,0,1,4.79,6.7,10.19,10.19,0,0,1-1,6.7,1.06,1.06,0,0,0,.46,1.42,1,1,0,0,0,.48.12,1.05,1.05,0,0,0,.94-.57A12.37,12.37,0,0,0,157.31,98.52Z"/><path class="cls-5" d="M142.55,79.72a1,1,0,0,0,1-1,1,1,0,0,0-.24-.77,1.12,1.12,0,0,0-.72-.37l-12.78-1.06a1.05,1.05,0,0,0-1,1,1,1,0,0,0,1,1.14l12.66,1.06Z"/><path class="cls-5" d="M145.16,78.51a1.1,1.1,0,0,0,.56.16,1,1,0,0,0,.89-.5c.66-1,1.36-2.1,2.08-3.11a59.32,59.32,0,0,1,4.15-5.19,1.07,1.07,0,0,0,.27-.77,1,1,0,0,0-.35-.72,1.05,1.05,0,0,0-.71-.27,1.07,1.07,0,0,0-.78.35,61.64,61.64,0,0,0-4.3,5.37c-.75,1-1.47,2.13-2.15,3.22a1.07,1.07,0,0,0-.13.8A1,1,0,0,0,145.16,78.51Z"/><path class="cls-5" d="M138.33,82.89c-1.7.61-2.1,4.54-1.06,7.39,1.2,3.28,4.66,6.06,6.34,5.28s1.62-5.32,0-8.45C142.46,84.91,140,82.3,138.33,82.89Z"/><ellipse class="cls-5" cx="155.22" cy="83.95" rx="3.34" ry="6.68" transform="translate(-18.58 53.39) rotate(-18.43)"/><g class="cls-9"><rect class="cls-10" x="466.72" y="15.31" width="90.81" height="61.24"/><polygon class="cls-11" points="512.12 52.56 466.06 16.14 467.37 14.48 512.12 49.87 556.87 14.48 558.18 16.14 512.12 52.56"/></g><circle class="cls-12" cx="558.06" cy="15.84" r="15.84"/><path class="cls-13" d="M568.83,6.12a1,1,0,0,0-1.49,0l-9.28,9.28-9.29-9.28a1,1,0,0,0-1.49,0,1.06,1.06,0,0,0,0,1.49l9.28,9.28-8.23,8.23a1.07,1.07,0,0,0,0,1.5,1.06,1.06,0,0,0,1.5,0l8.23-8.23,8.23,8.23a1.05,1.05,0,0,0,.74.31,1.1,1.1,0,0,0,.75-.31,1.07,1.07,0,0,0,0-1.5l-8.23-8.23,9.28-9.28A1,1,0,0,0,568.83,6.12Z"/><g class="cls-14"><rect class="cls-10" x="573.94" y="284.88" width="174.05" height="117.38"/><polygon class="cls-11" points="660.97 356.27 572.68 286.47 575.19 283.29 660.97 351.11 746.74 283.29 749.25 286.47 660.97 356.27"/></g><circle class="cls-12" cx="749" cy="285.89" r="30.36"/><path class="cls-13" d="M769.66,267.26a2,2,0,0,0-2.86,0L749,285.05l-17.79-17.79a2,2,0,1,0-2.86,2.86l17.79,17.8-15.77,15.77a2,2,0,0,0,2.86,2.86L749,290.78l15.77,15.77a2,2,0,0,0,2.87,0,2,2,0,0,0,0-2.86l-15.78-15.77,17.8-17.8A2,2,0,0,0,769.66,267.26Z"/><g class="cls-15"><rect class="cls-10" x="823.44" y="414.48" width="122.28" height="82.47"/><polygon class="cls-11" points="884.58 464.63 822.56 415.59 824.32 413.36 884.58 461.01 944.84 413.36 946.6 415.59 884.58 464.63"/></g><circle class="cls-12" cx="946.43" cy="415.19" r="21.33"/><path class="cls-13" d="M960.94,402.1a1.41,1.41,0,0,0-2,0l-12.5,12.5-12.5-12.5a1.42,1.42,0,0,0-2,2l12.5,12.5-11.08,11.08a1.41,1.41,0,0,0,0,2,1.39,1.39,0,0,0,1,.42,1.42,1.42,0,0,0,1-.42l11.08-11.08,11.08,11.08a1.41,1.41,0,0,0,2,0,1.43,1.43,0,0,0,0-2l-11.08-11.08,12.5-12.5A1.41,1.41,0,0,0,960.94,402.1Z"/><g class="cls-16"><rect class="cls-10" x="645.37" y="44.67" width="201.32" height="135.77" transform="translate(13.95 -69.88) rotate(5.41)"/><polygon class="cls-11" points="744.64 127.18 650.6 37.17 653.84 33.79 745.21 121.24 851.37 52.51 853.91 56.44 744.64 127.18"/></g><circle class="cls-12" cx="853.7" cy="55.75" r="35.11"/><path class="cls-13" d="M879.52,36.54a2.36,2.36,0,0,0-3.3-.31L853.79,54.78,835.24,32.35a2.34,2.34,0,0,0-3.61,3l18.55,22.43L830.3,74.2a2.34,2.34,0,1,0,3,3.61l19.88-16.44L869.6,81.25a2.34,2.34,0,1,0,3.61-3L856.77,58.39l22.44-18.55A2.36,2.36,0,0,0,879.52,36.54Z"/><path class="cls-17" d="M765,23.23H599.24a2.11,2.11,0,0,1,0-4.22H765a2.11,2.11,0,1,1,0,4.22Z"/><path class="cls-17" d="M802,224.38H636.19a2.11,2.11,0,0,1,0-4.22H802a2.11,2.11,0,1,1,0,4.22Z"/><path class="cls-17" d="M776.63,438.74H610.85a2.12,2.12,0,0,1,0-4.23H776.63a2.12,2.12,0,0,1,0,4.23Z"/><path class="cls-17" d="M985.71,546.44H819.93a2.11,2.11,0,1,1,0-4.22H985.71a2.11,2.11,0,1,1,0,4.22Z"/><path class="cls-17" d="M1052.22,481.19h-83.4c-.59,0-1.06-1-1.06-2.22s.47-2.22,1.06-2.22h83.4c.59,0,1.07,1,1.07,2.22S1052.81,481.19,1052.22,481.19Z"/><path class="cls-17" d="M1004.75,339.83H842.06a1.78,1.78,0,1,1,0-3.52h162.69a1.78,1.78,0,1,1,0,3.52Z"/><path class="cls-17" d="M962.52,316.6H799.82a1.78,1.78,0,1,1,0-3.52h162.7a1.78,1.78,0,1,1,0,3.52Z"/><path class="cls-17" d="M1051.7,164.44H927.11a1.71,1.71,0,0,1,0-3.41H1051.7a1.71,1.71,0,0,1,0,3.41Z"/><path class="cls-17" d="M1025.84,120.84H861.09a2.08,2.08,0,1,1,0-4.16h164.75a2.08,2.08,0,1,1,0,4.16Z"/><path class="cls-17" d="M1053.69,12.82H919.83c-.94,0-1.7-1.1-1.7-2.45s.76-2.45,1.7-2.45h133.86c.94,0,1.71,1.1,1.71,2.45S1054.63,12.82,1053.69,12.82Z"/><text class="cls-18" transform="translate(6.7 696.08)">would you like to interrupt <tspan x="0" y="67">the shipment?</tspan></text></g></g></svg>