<svg xmlns="http://www.w3.org/2000/svg" viewBox="0 0 518.22 568.93"><defs><style>.cls-1{fill:#a8c1f4;}</style></defs><g id="Capa_2" data-name="Capa 2"><g id="Capa_1-2" data-name="Capa 1"><path class="cls-1" d="M198.5,392.51c2.3-2.43,4.7-4.66,6.74-7.18,10.67-13.22,22.19-25.69,33.48-38.36,3.16-3.55,2.61-5.89-1.09-8.4-5.65-3.83-11.17-7.86-16.7-11.86-1.26-.91-3.54-1.6-2.68-3.58.73-1.65,2.68-.65,4.07-.34q39.72,9,79.43,18c9.74,2.21,19.51,4.36,29.25,6.57,6.94,1.57,8.17.85,9.68-6.05,4.65-21.15,9.24-42.31,13.92-63.45q13.77-62.21,27.59-124.4c.35-1.59,1-3.16.17-5.61-5.29,4.78-10.32,9.22-15.24,13.76q-41.07,38-82.13,75.94-29.91,27.6-60,55c-14.77,13.45-29.94,26.5-43.71,41-25.87,27.22-46.54,57.77-58.54,93.73a189.36,189.36,0,0,0-9.32,52.45c-.21,5,.41,10,.57,15,.1,3.23-.8,5-4.38,2.86-23.3-13.9-47.85-25.74-69.91-41.68C17.22,439.64,4.45,417.43,1,389.8a178.85,178.85,0,0,1-1-21.94q0-87.74,0-175.47a146.12,146.12,0,0,1,3.57-31.2C7.91,141.35,20,126.87,36.12,115.51,55.37,102,76.31,91.24,96.6,79.43c33-19.18,66-38.19,99-57.3C207.46,15.28,219.3,8.51,232.42,4.3c26.49-8.5,51.48-3.89,75.09,9.33,29.06,16.28,57.74,33.23,86.59,49.88,24.67,14.23,49.39,28.38,74,42.7,32.25,18.76,49.84,46.48,50,84.18.19,65.32.29,130.65-.18,196-.16,22.37-7.23,42.73-24.12,58.43-10.29,9.56-22.35,16.76-34.49,23.76-31,17.89-62,35.92-93,53.78-20.64,11.88-41.09,24.15-62.18,35.19-31.92,16.7-63.79,14.39-95.14-2.44-23.8-12.77-41.63-30.92-51.08-56.48-6.27-17-7.79-34.63-6.31-52.64,1.9-23.25,8.9-45.06,18.86-65.93A181.69,181.69,0,0,1,192,344.7c1-1.24,1.7-3.48,3.66-2.81,2.17.75,1.45,3.13,1.46,4.86,0,13.33,0,26.66,0,40C197.14,388.48,196.55,390.4,198.5,392.51ZM371.94,152.77l-.56-1c-1.62.75-3.27,1.46-4.87,2.25q-50.65,24.91-101.3,49.85-63.67,31.26-127.39,62.45-23.32,11.43-46.63,22.87c-1.12.55-3,.78-2.75,2.45.17,1.32,1.77,1.27,2.88,1.52,21.27,4.8,42.56,9.53,63.81,14.42a10,10,0,0,0,8.83-2q45.43-33.45,90.95-66.8,40.28-29.52,80.6-59C347.7,170.84,359.8,161.78,371.94,152.77Z"/></g></g></svg>