<svg xmlns="http://www.w3.org/2000/svg" xmlns:xlink="http://www.w3.org/1999/xlink" viewBox="0 0 690.28 619.2"><defs><style>.cls-1{fill:#fff;}.cls-2{clip-path:url(#clip-path);}.cls-3{fill:#e96766;}.cls-4{fill:#66a966;}.cls-5{fill:#66d1fe;}.cls-6{fill:#c9ed66;}.cls-7{fill:#67d1fd;}.cls-8{fill:#fec666;}.cls-9{fill:#5ac7f5;}.cls-10{fill:#5ac8f5;}</style><clipPath id="clip-path"><circle class="cls-1" cx="239.66" cy="239.66" r="239.66"/></clipPath></defs><g id="Capa_2" data-name="Capa 2"><g id="Capa_1-2" data-name="Capa 1"><circle class="cls-1" cx="239.66" cy="239.66" r="239.66"/><g class="cls-2"><path class="cls-3" d="M264.09,175.91a213.91,213.91,0,0,1,54,4.12c21.92,4.61,43.79,2.62,65.68-.38,16.23-2.22,31.82-7,47.71-10.55a19.06,19.06,0,0,1-.14,3.86c-5.64,24.58-6.74,49.36-4.86,74.44a236,236,0,0,0,17.18,72.71c4.52,11,9.07,22,16.18,31.82a56.46,56.46,0,0,1-13.34,14.34c-5.37,4.15-10.85,8.16-16.29,12.23-34.39,18.67-72.1,24.93-111,26.81-5.64.28-11.28.81-16.92.79-3.78,0-5.18,1-5.78,4.83-7.37,47.43-15,94.82-25.5,141.73a489,489,0,0,1-13,47.83C254.6,611,247.36,617,236,618.49c-8.75,1.15-17.54,1.12-26-1.71-6.49-2.18-7.77-6.73-2.2-10.08,17.26-10.38,22-25.66,22.88-44,1.37-27.63.06-54.78-8.65-81.33-.41-1.23-1-2.41-1.48-3.61a7.37,7.37,0,0,0-.22-1.64,147.85,147.85,0,0,0-47.33-65.38c-8.94-7.07-18.55-13.37-29.34-17.8-.12-.42-.23-.83-.34-1.25a211,211,0,0,1,2.27-37.65c3.5-22.52,9.52-44.17,21.9-63.94C186.48,259.86,222,244.22,258.11,250c11.41,1.84,22.76,3.82,34.62,2.79,16.22-1.39,27.89-11.24,29.72-26.77.34-2.89-.5-4.76-3.32-6.34a241.35,241.35,0,0,1-28.4-18.55C280.92,193.69,270,187.16,264.09,175.91Z"/><path class="cls-4" d="M459.88,351.93c-7.11-9.81-11.66-20.83-16.18-31.82a236,236,0,0,1-17.18-72.71c-1.88-25.08-.78-49.86,4.86-74.44a19.06,19.06,0,0,0,.14-3.86l-.07,0,1.11-.75c12.15-3.64,24.8-3.77,37.32-4.9,12.26.39,24.5-.28,36.78.91,22.9,2.22,44.79,7.35,65.34,17.4,48.3,23.61,70.79,71.18,57.07,121-3.6,13.07-9.41,25.45-13.52,38.39a151,151,0,0,0-6.88,49.32,178.22,178.22,0,0,0,7.84,49.27c3,9.52,5.08,19.36,10.83,27.92a193,193,0,0,0,11.52,23.68,35.44,35.44,0,0,1,3.93,26.86C637,543,631.34,567.8,625.71,592.6,621.81,609.77,609.86,619,591.3,619c-6,0-12.13.6-18-1.18-4.18-1.26-8.44-3-9.17-7.62-.76-4.86,3.08-7.76,7-9.23,29.6-11,34.9-40.55,29.44-63.16-6.6-27.29-20.71-51-38.92-72.67-1.55-1.85-3.26-3.59-4.9-5.38l.05.07a2.28,2.28,0,0,0-1.2-2.35,88.83,88.83,0,0,0-24.57-29.94c-8.77-7.06-17.8-13.84-26.29-21.19A210.33,210.33,0,0,1,459.88,351.93Z"/><path class="cls-5" d="M142.24,391c-11.71-6.42-20.48-16-28.81-25.67-29.38-34.15-45.86-73.62-52.18-117.17-2.33-16-3.75-32-3.23-48.19.87-27.17,11.33-50.88,29.37-71.66,22.9-26.39,52.7-43.62,85.09-57.3A330.56,330.56,0,0,1,212,57.52c5.72-1.6,7.2,1,7.45,5.23.32,5.11.08,10.26.08,16.42,7.9-7.23,15.78-13.14,25-17,4-1.68,9.05-6,12.08-3.69,3.76,2.89,1.89,9.1,1.05,13.69-2.74,15-9.92,28.41-18.73,41-2.31,3.29-2.82,5.59-.53,9.32,7.16,11.67,13.92,23.59,18.65,36.41-10.69,7.15-21.25,14.45-31.21,22.51a12.86,12.86,0,0,1-3.53,1.93c-32.62,12.13-53,35.43-66.09,65.41-9,20.51-12.51,42.27-16.33,64-2.52,14.28-3.93,28.58-2.55,43.14C138.54,367.6,141,379.22,142.24,391ZM249.42,67.9c-10.49,5.43-16.6,13.32-21.67,22.14-.62,1.07-1.83,2.42-.63,3.53,1.5,1.38,2.88-.22,4.07-.91,9.28-5.39,14.3-13.74,17.62-23.82l.48-.26-.22-.21S248.81,68.84,249.42,67.9Zm-36.8-.09c.31-2.61-.76-4.48-5.25-2.13-16.74,8.77-29,22.09-40.54,36.11-.48.58-1,1.28-.45,2,.85,1,2.16.82,3.25.61,4.92-1,9.93-1.71,14.7-3.13C203,95.67,211.34,83.64,212.62,67.81Z"/><path class="cls-6" d="M459.88,351.93a210.33,210.33,0,0,0,44.88,54.41c8.49,7.35,17.52,14.13,26.29,21.19a88.83,88.83,0,0,1,24.57,29.94c.25.85-.28,2.06,1.2,2.35l-.05-.07c-.14,10.79,3,21.2,7.7,30.53,8.54,17.08,7.74,33.17.65,50.34-6.47,15.66-10.86,32.08-16.62,48-7.69,21.27-32.43,23.77-46.34,17.68-8.82-3.86-10.09-12.94-1.53-16.64,17.42-7.52,18.41-22.39,19.62-36.69,2.41-28.56-8.71-53.81-24-77.63a242.48,242.48,0,0,0-31.1-38.87c-16.31-16.68-26.83-36.73-34.94-58,5.44-4.07,10.92-8.08,16.29-12.23A56.46,56.46,0,0,0,459.88,351.93Z"/><path d="M142.24,391c-1.25-11.79-3.7-23.41-4.83-35.22-1.38-14.56,0-28.86,2.55-43.14,3.82-21.69,7.35-43.45,16.33-64,13.11-30,33.47-53.28,66.09-65.41a12.86,12.86,0,0,0,3.53-1.93c10-8.06,20.52-15.36,31.21-22.51,3.25,3.23,3.06,7.71,4.63,11.54.76,1.85.78,4,2.34,5.53,5.9,11.25,16.83,17.78,26.64,25.25a241.35,241.35,0,0,0,28.4,18.55c2.82,1.58,3.66,3.45,3.32,6.34-1.83,15.53-13.5,25.38-29.72,26.77-11.86,1-23.21-.95-34.62-2.79-36.16-5.81-71.63,9.83-90.57,40.08-12.38,19.77-18.4,41.42-21.9,63.94a211,211,0,0,0-2.27,37.65Z"/><path class="cls-7" d="M627.34,467.69c-5.75-8.56-7.86-18.4-10.83-27.92a178.22,178.22,0,0,1-7.84-49.27,151,151,0,0,1,6.88-49.32c4.11-12.94,9.92-25.32,13.52-38.39,13.72-49.83-8.77-97.4-57.07-121-20.55-10.05-42.44-15.18-65.34-17.4-12.28-1.19-24.52-.52-36.78-.91a10.87,10.87,0,0,1,2.69-.84c27.93-1.11,55.84-.47,82.88,6.68,29.93,7.92,57.27,20.5,75.89,45.74a102,102,0,0,1,20,57.76c.83,21.47.69,43,2.71,64.39,4.35,46.11,12.45,91.39,34.8,133.27,1,1.81,2.33,3.64.66,5.66s-3.84,1.18-6,1C664.54,475.42,645.93,471.58,627.34,467.69Z"/><path class="cls-8" d="M143.71,393c10.79,4.43,20.4,10.73,29.34,17.8a147.85,147.85,0,0,1,47.33,65.38,7.37,7.37,0,0,1,.22,1.64c-8.24,17.2-14.38,35.16-21,52.93-6.06,16.24-11.68,32.63-17.57,48.93-6.76,18.72-23.46,29.48-43.88,28.46a17.61,17.61,0,0,1-7.8-2.05c-5.7-3.13-6.31-9.35-1.28-13.36a21.42,21.42,0,0,1,8.34-3.89c7.26-1.75,10.8-6.64,13.27-12.88,4.73-12,6.15-24.51,6.68-37.08,1.42-33.44-1.66-66.66-6.61-99.74C148.43,423.71,146.05,408.33,143.71,393Z"/><path class="cls-3" d="M432.56,168.37l-1.11.75Z"/><path class="cls-9" d="M212.62,67.81c-1.28,15.83-9.66,27.86-28.29,33.44-4.77,1.42-9.78,2.16-14.7,3.13-1.09.21-2.4.38-3.25-.61-.59-.7,0-1.4.45-2,11.56-14,23.8-27.34,40.54-36.11C211.86,63.33,212.93,65.2,212.62,67.81Z"/><path class="cls-10" d="M249.42,67.9c-3.93,11-8.95,19.37-18.23,24.76-1.19.69-2.57,2.29-4.07.91-1.2-1.11,0-2.46.63-3.53C232.82,81.22,238.93,73.33,249.42,67.9Z"/><polygon class="cls-10" points="248.81 68.84 249.07 68.37 249.29 68.58 248.81 68.84"/></g></g></g></svg>