<svg xmlns="http://www.w3.org/2000/svg" viewBox="0 0 33.84 31.62"><defs><style>.cls-1{fill:#e96766;}.cls-2{fill:#66a966;}.cls-3{fill:#66d1fe;}.cls-4{fill:#c9ed66;}.cls-5{fill:#706766;}.cls-6{fill:#67d1fd;}.cls-7{fill:#fec666;}.cls-8{fill:#5ac7f5;}.cls-9{fill:#5ac8f5;}</style></defs><g id="Capa_2" data-name="Capa 2"><g id="Capa_1-2" data-name="Capa 1"><path class="cls-1" d="M11,6.69a10.87,10.87,0,0,1,2.9.23,9.63,9.63,0,0,0,3.51,0c.87-.13,1.7-.4,2.55-.6a1.61,1.61,0,0,1,0,.22,14.37,14.37,0,0,0-.26,4.19,13.72,13.72,0,0,0,.92,4.09,8.43,8.43,0,0,0,.86,1.79,3,3,0,0,1-.71.8c-.29.24-.58.46-.87.69A13.12,13.12,0,0,1,14,19.59c-.31,0-.61.05-.91,0s-.28.06-.31.28c-.39,2.66-.8,5.33-1.36,8-.2.91-.42,1.8-.7,2.69a1.33,1.33,0,0,1-1.18,1,3,3,0,0,1-1.39-.09c-.35-.13-.41-.38-.12-.57a2.77,2.77,0,0,0,1.23-2.48,13.29,13.29,0,0,0-.46-4.57l-.08-.2s0-.07,0-.1A8.17,8.17,0,0,0,6.16,19.9a6.16,6.16,0,0,0-1.57-1l0-.08a13.58,13.58,0,0,1,.12-2.11,9.55,9.55,0,0,1,1.18-3.6,4.68,4.68,0,0,1,4.84-2.25,7.2,7.2,0,0,0,1.86.15,1.66,1.66,0,0,0,1.59-1.5A.34.34,0,0,0,14,9.15a13.16,13.16,0,0,1-1.52-1A4.61,4.61,0,0,1,11,6.69Z"/><path class="cls-2" d="M21.51,16.59a8.43,8.43,0,0,1-.86-1.79,13.72,13.72,0,0,1-.92-4.09A14.37,14.37,0,0,1,20,6.52a1.61,1.61,0,0,0,0-.22h0l.06,0a9.63,9.63,0,0,1,2-.27c.65,0,1.31,0,2,0a9.49,9.49,0,0,1,3.5,1,5.76,5.76,0,0,1,3,6.8c-.19.74-.5,1.44-.72,2.16a9.05,9.05,0,0,0-.37,2.78,10.44,10.44,0,0,0,.42,2.77,5.94,5.94,0,0,0,.58,1.57,10.72,10.72,0,0,0,.62,1.33,2.09,2.09,0,0,1,.21,1.51c-.31,1.39-.61,2.79-.92,4.19a1.72,1.72,0,0,1-1.84,1.48,3.09,3.09,0,0,1-1-.07c-.22-.07-.45-.16-.49-.43a.48.48,0,0,1,.37-.51A2.92,2.92,0,0,0,29,27,10.22,10.22,0,0,0,27,23l-.26-.31h0a.13.13,0,0,0-.07-.14,5,5,0,0,0-1.31-1.68c-.47-.4-.95-.78-1.41-1.19A11.69,11.69,0,0,1,21.51,16.59Z"/><path class="cls-3" d="M4.51,18.79A6.07,6.07,0,0,1,3,17.34,13,13,0,0,1,.18,10.75,15.36,15.36,0,0,1,0,8,6.44,6.44,0,0,1,1.58,4,12,12,0,0,1,6.13.79,16.24,16.24,0,0,1,8.25,0c.3-.09.38.05.4.29s0,.58,0,.92A4.69,4.69,0,0,1,10,.29c.21-.1.48-.34.65-.21s.1.51,0,.77a5.92,5.92,0,0,1-1,2.3.44.44,0,0,0,0,.53,10.81,10.81,0,0,1,1,2.05C10.09,6.13,9.52,6.54,9,7a.59.59,0,0,1-.19.11,6.3,6.3,0,0,0-3.54,3.68,16.45,16.45,0,0,0-.87,3.6,9.82,9.82,0,0,0-.14,2.42C4.31,17.47,4.45,18.12,4.51,18.79ZM10.25.61A2.9,2.9,0,0,0,9.09,1.86c0,.06-.1.13,0,.19s.16,0,.22,0a2.23,2.23,0,0,0,1-1.34h0Zm-2,0c0-.15,0-.26-.28-.12a7.25,7.25,0,0,0-2.17,2s-.06.07,0,.11a.19.19,0,0,0,.18,0,7.43,7.43,0,0,0,.79-.17A2,2,0,0,0,8.28.61Z"/><path class="cls-4" d="M21.51,16.59a11.69,11.69,0,0,0,2.4,3.06c.46.41.94.79,1.41,1.19a5,5,0,0,1,1.31,1.68c0,.05,0,.12.07.14h0a3.86,3.86,0,0,0,.41,1.72,3.37,3.37,0,0,1,0,2.83c-.34.88-.58,1.81-.89,2.7a1.82,1.82,0,0,1-2.48,1c-.47-.22-.54-.73-.08-.94.93-.42,1-1.26,1-2.06a7.18,7.18,0,0,0-1.28-4.37,14.67,14.67,0,0,0-1.66-2.19,9.07,9.07,0,0,1-1.87-3.26c.29-.23.58-.45.87-.69A3,3,0,0,0,21.51,16.59Z"/><path class="cls-5" d="M4.51,18.79c-.06-.67-.2-1.32-.26-2a9.82,9.82,0,0,1,.14-2.42,16.45,16.45,0,0,1,.87-3.6A6.3,6.3,0,0,1,8.8,7.1.59.59,0,0,0,9,7c.53-.45,1.1-.86,1.67-1.26.17.18.16.43.25.65a.91.91,0,0,0,.12.31,4.61,4.61,0,0,0,1.43,1.42,13.16,13.16,0,0,0,1.52,1,.34.34,0,0,1,.18.36A1.66,1.66,0,0,1,12.57,11a7.2,7.2,0,0,1-1.86-.15,4.68,4.68,0,0,0-4.84,2.25,9.55,9.55,0,0,0-1.18,3.6,13.58,13.58,0,0,0-.12,2.11Z"/><path class="cls-6" d="M30.47,23.1a5.94,5.94,0,0,1-.58-1.57,10.44,10.44,0,0,1-.42-2.77A9.05,9.05,0,0,1,29.84,16c.22-.72.53-1.42.72-2.16a5.76,5.76,0,0,0-3-6.8A9.49,9.49,0,0,0,24,6c-.65-.07-1.31,0-2,0a.34.34,0,0,1,.14,0,14.12,14.12,0,0,1,4.44.38,6.91,6.91,0,0,1,4.06,2.57,6,6,0,0,1,1.07,3.25c0,1.2,0,2.42.14,3.62a20.35,20.35,0,0,0,1.86,7.5c.05.1.13.2,0,.31s-.21.07-.32.06A25.62,25.62,0,0,1,30.47,23.1Z"/><path class="cls-7" d="M4.59,18.9a6.16,6.16,0,0,1,1.57,1,8.17,8.17,0,0,1,2.53,3.67s0,.07,0,.1c-.44,1-.77,2-1.13,3S7,28.48,6.64,29.4A2.28,2.28,0,0,1,4.29,31a.82.82,0,0,1-.41-.12.43.43,0,0,1-.07-.75,1.08,1.08,0,0,1,.44-.22A1,1,0,0,0,5,29.19a6.51,6.51,0,0,0,.36-2.09A31,31,0,0,0,5,21.49C4.84,20.63,4.72,19.76,4.59,18.9Z"/><path class="cls-1" d="M20.05,6.26,20,6.3Z"/><path class="cls-8" d="M8.28.61A2,2,0,0,1,6.77,2.49,7.43,7.43,0,0,1,6,2.66a.19.19,0,0,1-.18,0s0-.08,0-.11A7.25,7.25,0,0,1,8,.49C8.24.35,8.3.46,8.28.61Z"/><path class="cls-9" d="M10.25.61A2.36,2.36,0,0,1,9.27,2c-.06,0-.13.13-.22,0s0-.13,0-.19A2.9,2.9,0,0,1,10.25.61Z"/><polygon class="cls-9" points="10.22 0.66 10.23 0.64 10.24 0.65 10.22 0.66"/></g></g></svg>