<svg xmlns="http://www.w3.org/2000/svg" viewBox="0 0 723 723"><defs><style>.cls-1{fill:#fff0e7;}.cls-2{fill:#fdb88c;}</style></defs><g id="Capa_2" data-name="Capa 2"><g id="Capa_1-2" data-name="Capa 1"><rect class="cls-1" width="723" height="723"/><path class="cls-2" d="M620.45,267.44c-.12-37.69-17.71-65.41-50-84.17-24.62-14.33-49.34-28.47-74-42.71-28.85-16.65-57.53-33.6-86.59-49.87-23.61-13.22-48.6-17.83-75.09-9.33-13.12,4.2-25,11-36.79,17.82-33,19.11-66.07,38.12-99,57.31C178.69,168.3,157.75,179,138.5,192.56c-16.16,11.37-28.21,25.85-32.55,45.68a146.29,146.29,0,0,0-3.57,31.21V444.92a178.48,178.48,0,0,0,1,21.93c3.42,27.64,16.19,49.85,38.71,66.13,22,15.95,46.6,27.79,69.9,41.69,3.59,2.14,4.48.36,4.38-2.87-.16-5-.78-10-.57-15a189.76,189.76,0,0,1,9.32-52.44c12-36,32.67-66.52,58.54-93.74,13.77-14.48,28.94-27.53,43.71-41q30.09-27.39,60-55,41.11-37.92,82.13-75.94c4.93-4.55,9.95-9,15.24-13.76.86,2.44.18,4-.17,5.61L457,355c-4.68,21.14-9.27,42.31-13.91,63.46-1.52,6.89-2.74,7.62-9.69,6-9.74-2.21-19.51-4.35-29.25-6.56q-39.72-9-79.43-18.05c-1.39-.32-3.34-1.32-4.07.34-.86,2,1.42,2.67,2.68,3.57,5.53,4,11.05,8,16.7,11.87,3.71,2.51,4.25,4.85,1.09,8.39-11.29,12.67-22.81,25.14-33.48,38.36-2,2.53-4.44,4.76-6.74,7.19-1.95-2.11-1.36-4-1.37-5.77v-40c0-1.72.71-4.1-1.46-4.85-1.95-.68-2.68,1.57-3.66,2.8A181.45,181.45,0,0,0,272.87,457c-10,20.87-17,42.68-18.86,65.93-1.48,18,0,35.67,6.31,52.63,9.45,25.56,27.29,43.72,51.08,56.49,31.35,16.83,63.22,19.14,95.15,2.43,21.08-11,41.53-23.31,62.17-35.18,31-17.86,62-35.89,93-53.78,12.14-7,24.2-14.2,34.49-23.77,16.89-15.7,24-36,24.12-58.42C620.74,398.09,620.64,332.77,620.45,267.44Zm-182.54-10.6q-40.28,29.54-80.61,59-45.51,33.33-90.95,66.79a10,10,0,0,1-8.83,2c-21.25-4.91-42.52-9.61-63.81-14.44-1.11-.25-2.71-.21-2.87-1.52-.21-1.68,1.62-1.9,2.74-2.45q23.29-11.48,46.63-22.88L367.6,280.89Q418.27,256,468.9,231c1.6-.79,3.25-1.5,4.87-2.25l.56,1c-12.14,9.06-24.24,18.13-36.42,27.07Z"/></g></g></svg>