<svg xmlns="http://www.w3.org/2000/svg" viewBox="0 0 599.13 466.15"><defs><style>.cls-1{fill:#fff;}.cls-2{fill:#2b2d31;}.cls-3,.cls-4{fill:#496177;}.cls-4{opacity:0.51;}.cls-11,.cls-12,.cls-13,.cls-16,.cls-18,.cls-19,.cls-5{fill:none;}.cls-5{stroke:#2b2d31;}.cls-13,.cls-16,.cls-5{stroke-miterlimit:10;}.cls-6{opacity:0.84;}.cls-7{fill:#242528;}.cls-8{fill:#3b4f5e;}.cls-9{fill:#740915;}.cls-10{fill:#1b3036;}.cls-11,.cls-12{stroke:#fff;}.cls-11,.cls-12,.cls-18,.cls-19{stroke-linecap:round;stroke-linejoin:round;}.cls-11{stroke-width:0.36px;}.cls-12{stroke-width:0.9px;}.cls-13,.cls-18,.cls-19{stroke:#321c1a;}.cls-13{stroke-width:0.43px;}.cls-14{fill:#fd8867;}.cls-15{fill:#303335;}.cls-16{stroke:#242528;}.cls-17{fill:#321c1a;}.cls-18{stroke-width:0.36px;}.cls-19{stroke-width:0.7px;}</style></defs><g id="Capa_2" data-name="Capa 2"><g id="Capa_1-2" data-name="Capa 1"><rect class="cls-1" y="0.44" width="599.13" height="465.7"/><rect class="cls-2" y="0.44" width="599.13" height="465.7"/><rect class="cls-3" width="599.13" height="58.21"/><circle class="cls-4" cx="305.31" cy="212.68" r="111.83"/><path class="cls-3" d="M410.94,312.86s-12.95-32.2-46.42-31.07-32.76,30-55.06,17.6c-14.19-7.87-29.74-9.74-41-5.31-18.05,7.07-21.91,14.75-35.09,7.51-19.2-10.55-40.83-2.54-46.61,11.27Z"/><line class="cls-3" x1="424.56" y1="313.29" x2="172.38" y2="313.29"/><circle class="cls-3" cx="329.1" cy="155.12" r="11.01"/><path class="cls-2" d="M216.05,159.33h60.46s-.29-2.4-7-4.32-11.54,3-19.13,0S238.75,147.7,229,150.1,216.05,159.33,216.05,159.33Z"/><path class="cls-2" d="M362.39,178.72h44s-.21-2.12-5.1-3.82-8.39,2.65-13.91,0-8.46-6.47-15.58-4.35A14.87,14.87,0,0,0,362.39,178.72Z"/><rect class="cls-3" x="373.22" y="204.51" width="34.36" height="29.48" rx="8.12"/><polygon class="cls-5" points="398.29 224.4 384.2 224.4 381.65 224.4 381.65 213.24 398.29 213.24 398.29 216.03 398.29 224.4"/><polyline class="cls-5" points="381.65 213.24 389.97 219.8 398.29 213.24"/><g class="cls-6"><rect class="cls-3" x="183.05" y="174.74" width="24.57" height="22.59" rx="9.62"/></g><path class="cls-2" d="M190.69,181.9a6.08,6.08,0,1,0,8.6,0A6.11,6.11,0,0,0,190.69,181.9Zm8.59.88h-1.94a14.1,14.1,0,0,0-.75-1.83A5.53,5.53,0,0,1,199.28,182.78Zm-6.52,3.07a9.47,9.47,0,0,1,.29-2.36h3.89a10,10,0,0,1,.28,2.36Zm4.44.71a11.38,11.38,0,0,1-.42,2.35H193.2a12.09,12.09,0,0,1-.42-2.35ZM195,180.72a6.11,6.11,0,0,1,.86.06,11.61,11.61,0,0,1,.88,2h-3.48a11.61,11.61,0,0,1,.88-2A6.11,6.11,0,0,1,195,180.72Zm-1.59.23a12.9,12.9,0,0,0-.76,1.83h-1.93A5.44,5.44,0,0,1,193.4,181Zm-3.18,2.54h2.22a10.54,10.54,0,0,0-.31,2.36h-2.61A5.37,5.37,0,0,1,190.22,183.49Zm0,5.42a5.37,5.37,0,0,1-.7-2.35h2.62a11.26,11.26,0,0,0,.37,2.35Zm.49.72h2a14.23,14.23,0,0,0,.75,1.84A5.42,5.42,0,0,1,190.71,189.63Zm4.28,2.06a5.81,5.81,0,0,1-.72-.05,17.25,17.25,0,0,1-.85-2h3.14a17.25,17.25,0,0,1-.85,2A5.81,5.81,0,0,1,195,191.69Zm1.52-.22a14.23,14.23,0,0,0,.75-1.84h2A5.45,5.45,0,0,1,196.51,191.47Zm3.25-2.56h-2.29a11.26,11.26,0,0,0,.37-2.35h2.62A5.37,5.37,0,0,1,199.76,188.91Zm.7-3.06h-2.61a10.54,10.54,0,0,0-.31-2.36h2.22A5.37,5.37,0,0,1,200.46,185.85Z"/><ellipse class="cls-7" cx="276.8" cy="182.62" rx="2.12" ry="2.15"/><ellipse class="cls-7" cx="263.51" cy="274.62" rx="2.55" ry="2.59"/><path class="cls-7" d="M429.46,195.2a2.7,2.7,0,1,1-2.69-2.73A2.71,2.71,0,0,1,429.46,195.2Z"/><rect class="cls-7" x="190.38" y="260.33" width="3.79" height="3.85"/><rect class="cls-7" x="410.23" y="270.77" width="3.79" height="3.85"/><rect class="cls-7" x="383.95" y="247.79" width="43.5" height="2.82" rx="1.41"/><path class="cls-7" d="M190.67,221H171.08a1.41,1.41,0,0,1-1.41-1.41h0a1.41,1.41,0,0,1,1.41-1.41h19.59a1.41,1.41,0,0,1,1.41,1.41h0A1.41,1.41,0,0,1,190.67,221Z"/><rect class="cls-7" x="372.81" y="259.66" width="11.94" height="2.82" rx="1.41"/><rect class="cls-7" x="231.79" y="226.97" width="4.82" height="86.26"/><path class="cls-3" d="M236.53,204.26h13.86a0,0,0,0,1,0,0V235a0,0,0,0,1,0,0H205.77a0,0,0,0,1,0,0v0A30.76,30.76,0,0,1,236.53,204.26Z"/><path class="cls-8" d="M251.54,204.26h0a15,15,0,0,0-15,15V235h30V219.27A15,15,0,0,0,251.54,204.26Z"/><rect class="cls-9" x="229.43" y="186.98" width="2.28" height="31.34"/><polygon class="cls-9" points="231.71 197.87 226.09 195.5 226.09 186.63 231.71 186.63 231.71 197.87"/><path class="cls-2" d="M236.53,235l4.75,10.74a9.53,9.53,0,0,0,8.71,5.66h15.33a5.5,5.5,0,0,0,5-7.72L266.54,235Z"/><polygon class="cls-7" points="311.34 293.99 312.8 301.45 321.88 301.45 320.45 294.05 311.34 293.99"/><path class="cls-10" d="M311.72,301l.43,4.75-8.55,2a4.71,4.71,0,0,0-3,4.07l-.1,1.07,25,0-2.57-11.9Z"/><line class="cls-11" x1="300.83" y1="310.56" x2="325.07" y2="310.56"/><line class="cls-12" x1="307.39" y1="306.83" x2="308.88" y2="308.36"/><line class="cls-12" x1="310.11" y1="306.23" x2="311.6" y2="307.76"/><path class="cls-8" d="M334.24,250.49l-16,12.9,6.87,33.18-17.73.43-7.89-32a11.88,11.88,0,0,1,3.93-12.35l20.36-19.23,15.73-.61Z"/><polygon class="cls-7" points="347.51 293.99 350.25 301.45 359.34 301.45 356.62 294.05 347.51 293.99"/><path class="cls-10" d="M349.18,301l1.28,4.75-8.54,2a4.7,4.7,0,0,0-3,4.07l-.1,1.07,25.87,0-4.28-11.9Z"/><line class="cls-11" x1="339.14" y1="310.56" x2="363.83" y2="310.56"/><line class="cls-12" x1="345.71" y1="306.83" x2="347.19" y2="308.36"/><line class="cls-12" x1="348.43" y1="306.23" x2="349.91" y2="307.76"/><path class="cls-8" d="M332.65,233.79l.2,31.68a25.89,25.89,0,0,0,2,9.83L344,296.13l17.78-.34L351.93,269l1.4-23.84A16.91,16.91,0,0,0,348.12,231Z"/><line class="cls-13" x1="332.76" y1="251.69" x2="327.16" y2="247.57"/><path class="cls-14" d="M310.33,211.88l-13.58,11.88a6.38,6.38,0,0,0-.93,8.84h0a6.37,6.37,0,0,0,8.95,1.06l13.82-11.58a6.56,6.56,0,0,0,1.62-8.44h0A6.57,6.57,0,0,0,310.33,211.88Z"/><polygon class="cls-3" points="304.91 216.63 311.99 210.32 318.59 222.08 312.97 226.79 304.91 216.63"/><path class="cls-14" d="M302,223.2l-21.76-.64-1.43,7.27,20.89,5.1a6,6,0,0,0,7.13-5.67h0A5.94,5.94,0,0,0,302,223.2Z"/><path class="cls-14" d="M281.74,223.24l-.12,6.58s-14.78,4.19-16.17-11.28l4.49-2.9Z"/><path class="cls-15" d="M247.7,204h26.51a3,3,0,0,1,3,3v13.37a2.71,2.71,0,0,1-2.71,2.71h-27a2.71,2.71,0,0,1-2.71-2.71V206.93A3,3,0,0,1,247.7,204Z" transform="translate(159.11 -107.92) rotate(33.13)"/><path class="cls-16" d="M253.57,198l6.28,15.54a1.38,1.38,0,0,0,1.3.87l16.61-.18"/><line class="cls-16" x1="268.38" y1="228" x2="265.47" y2="214.39"/><line class="cls-16" x1="244.47" y1="212.42" x2="258.1" y2="209.59"/><path class="cls-14" d="M277.76,220.68l-4.64-3.54a1.22,1.22,0,0,0-1.89.56h0a1.22,1.22,0,0,0,.26,1.24l2.1,2.26a7.49,7.49,0,0,0,2.08,6.8Z"/><path class="cls-3" d="M323.58,204.67s13.85-4.83,15.64-.64c3.38,7.93,9.9,28,9.9,28l-27.28,3.27-10.41-18.8a5.59,5.59,0,0,1-.09-5,7.67,7.67,0,0,1,.3-.89c2.39-2.36,9.19-5,9.19-5Z"/><line class="cls-3" x1="315.81" y1="224.41" x2="312.93" y2="219.73"/><path class="cls-15" d="M326.26,225.3h26.51a3,3,0,0,1,3,3v13.37a2.71,2.71,0,0,1-2.71,2.71H326a2.71,2.71,0,0,1-2.71-2.71V228.26a3,3,0,0,1,3-3Z" transform="translate(84.07 -89.46) rotate(17.1)"/><path class="cls-16" d="M328.14,222l10.32,13.2a1.41,1.41,0,0,0,1.5.48l15.91-4.76"/><line class="cls-16" x1="350.65" y1="246.72" x2="344.1" y2="234.44"/><line class="cls-16" x1="323.37" y1="238.34" x2="335.68" y2="231.86"/><path class="cls-14" d="M332.33,214.07,347,224.89a6.38,6.38,0,0,0,8.89-.19h0a6.37,6.37,0,0,0-.07-9L341.42,204.6a6.56,6.56,0,0,0-8.58-.54h0A6.55,6.55,0,0,0,332.33,214.07Z"/><path class="cls-3" d="M341.07,204.29l4,3.14-8.65,10.3-3.62-3.07c-3.23-2.75-4.18-7.08-1.31-10.21h0C334.16,201.59,338,201.9,341.07,204.29Z"/><line class="cls-3" x1="336.76" y1="217.23" x2="331.9" y2="213.94"/><path class="cls-14" d="M346.15,218.2l-5.5,21.54,7.24,3.35,9.22-20.27a6,6,0,0,0-4-8.11h0A6,6,0,0,0,346.15,218.2Z"/><path class="cls-14" d="M348.16,240.66s1.88,10.05-3.88,10.12c-8.36.11-6.89-6.6-6.89-6.6l1.62.5,2.07-5.37Z"/><path class="cls-14" d="M341.08,239.31s-3.38,2.49-2.07,6.23,3.08-3.54,3.08-3.54Z"/><path class="cls-9" d="M306.4,188.18s-4.49,4.07,1.79,8.88l.29-9.26Z"/><path class="cls-14" d="M313.65,200.07l2.44,7.5c.85,2.63,2.88,3.52,5.38,2.68h0c2.14-.72,4.15-2.52,3.3-4.81l-4.39-11.62Z"/><path class="cls-17" d="M316.09,207.57l5-7.26c-.11-2.36-7.08.86-7.08.86Z"/><path class="cls-14" d="M315.55,204.18h0c-3.69.62-7.21-1.77-7.8-4.76l-1.2-6.26a7.13,7.13,0,0,1,5.37-8.3h0c3.82-.91,8.31,1.28,9.19,5.09l.88,4.89A8.12,8.12,0,0,1,315.55,204.18Z"/><polyline class="cls-18" points="311.04 196.56 311.17 198.72 312.09 198.61"/><path class="cls-17" d="M309.45,196.07a.66.66,0,0,1-.51.78.66.66,0,1,1,.51-.78Z"/><path class="cls-17" d="M315.05,195.35a.64.64,0,1,1-1.26.25.64.64,0,1,1,1.26-.25Z"/><path class="cls-18" d="M315.49,198.72a3.33,3.33,0,0,1-3,1.52"/><line class="cls-19" x1="315.33" y1="192.13" x2="312.97" y2="192.62"/><line class="cls-19" x1="309.06" y1="193.34" x2="307.7" y2="193.68"/><path class="cls-9" d="M320.34,195.81l-4.3-7.94s-5.62,4.2-11.66,2.55c0,0-3.37-1.48-2.24-4.78s5.73-2.43,8-3.6c4.12-2.12,13.79-2.39,14.14,5.18.31,6.6-2.12,9.37-2.12,9.37l-1.81-.78"/><path class="cls-14" d="M325.47,194.59a2.64,2.64,0,1,1-3.18-2A2.69,2.69,0,0,1,325.47,194.59Z"/><path class="cls-18" d="M322.18,196.05s-.45-1.92,1.4-2"/><path class="cls-9" d="M320.46,187.83a3,3,0,0,1-3.28,2.8c-1.68-.13-4.1-1.6-4-3.28s2.77-2.93,4.45-2.8A3,3,0,0,1,320.46,187.83Z"/><rect class="cls-3" x="184.93" y="315.91" width="235.13" height="42.13" rx="21.07"/><path class="cls-5" d="M250.64,345.37h-2.21l-2.64-4.43a10.6,10.6,0,0,0-.7-1.05,3.93,3.93,0,0,0-.7-.71,2.47,2.47,0,0,0-.77-.4,3.37,3.37,0,0,0-.93-.13h-1.52v6.72h-1.85V329.58H244a6.78,6.78,0,0,1,1.91.26,4.16,4.16,0,0,1,1.52.79,3.75,3.75,0,0,1,1,1.31,4.42,4.42,0,0,1,.36,1.85,4.31,4.31,0,0,1-.25,1.51,3.93,3.93,0,0,1-.7,1.23,4.49,4.49,0,0,1-1.1.92,5.88,5.88,0,0,1-1.45.59v0a3.79,3.79,0,0,1,.69.4,3.49,3.49,0,0,1,.55.54,6.9,6.9,0,0,1,.53.69l.57.91Zm-9.47-14.12V337h2.51a3.78,3.78,0,0,0,1.28-.21,3.06,3.06,0,0,0,1-.6,2.76,2.76,0,0,0,.67-1,3.23,3.23,0,0,0,.24-1.27,2.49,2.49,0,0,0-.82-2,3.53,3.53,0,0,0-2.37-.71Z"/><path class="cls-5" d="M260.63,345.37h-1.8v-1.76h-.05a3.77,3.77,0,0,1-3.47,2,3.71,3.71,0,0,1-2.63-.89,3.06,3.06,0,0,1-1-2.37c0-2.1,1.24-3.33,3.72-3.67l3.38-.48c0-1.91-.78-2.87-2.33-2.87a5.52,5.52,0,0,0-3.67,1.39v-1.85a6.91,6.91,0,0,1,3.83-1.06q4,0,4,4.21Zm-1.8-5.7-2.72.37a4.45,4.45,0,0,0-1.9.62,1.82,1.82,0,0,0-.64,1.58,1.74,1.74,0,0,0,.59,1.35,2.29,2.29,0,0,0,1.57.52,2.88,2.88,0,0,0,2.22-.94,3.38,3.38,0,0,0,.88-2.38Z"/><path class="cls-5" d="M273.39,345.37h-1.8v-6.43c0-2.39-.88-3.59-2.62-3.59a2.83,2.83,0,0,0-2.24,1,3.77,3.77,0,0,0-.89,2.57v6.43H264V334.09h1.81V336h0a4.08,4.08,0,0,1,3.7-2.14,3.43,3.43,0,0,1,2.83,1.2,5.26,5.26,0,0,1,1,3.45Z"/><path class="cls-5" d="M286.42,345.37h-1.81v-1.92h0a4.16,4.16,0,0,1-3.88,2.18,4.22,4.22,0,0,1-3.4-1.51A6.24,6.24,0,0,1,276,340a6.78,6.78,0,0,1,1.41-4.49,4.66,4.66,0,0,1,3.76-1.68,3.62,3.62,0,0,1,3.38,1.83h0v-7h1.81Zm-1.81-5.1v-1.66a3.22,3.22,0,0,0-.9-2.31,3,3,0,0,0-2.29-.95,3.11,3.11,0,0,0-2.6,1.21,5.32,5.32,0,0,0-.95,3.35,4.78,4.78,0,0,0,.91,3.07,3,3,0,0,0,2.44,1.13,3.07,3.07,0,0,0,2.45-1.09A4,4,0,0,0,284.61,340.27Z"/><path class="cls-5" d="M294.78,345.63a5.22,5.22,0,0,1-4-1.58,5.87,5.87,0,0,1-1.49-4.19,6.1,6.1,0,0,1,1.55-4.43,5.58,5.58,0,0,1,4.2-1.6,5.06,5.06,0,0,1,3.93,1.55,6.14,6.14,0,0,1,1.42,4.31,6,6,0,0,1-1.53,4.32A5.34,5.34,0,0,1,294.78,345.63Zm.14-10.28a3.45,3.45,0,0,0-2.76,1.18,4.9,4.9,0,0,0-1,3.27,4.62,4.62,0,0,0,1,3.16,3.5,3.5,0,0,0,2.75,1.15,3.3,3.3,0,0,0,2.69-1.13,6.05,6.05,0,0,0,0-6.48A3.28,3.28,0,0,0,294.92,335.35Z"/><path class="cls-5" d="M319.29,345.37h-1.8v-6.48a4.9,4.9,0,0,0-.58-2.7,2.21,2.21,0,0,0-2-.84,2.39,2.39,0,0,0-2,1.06,4,4,0,0,0-.81,2.53v6.43h-1.81v-6.7c0-2.21-.85-3.32-2.56-3.32a2.36,2.36,0,0,0-2,1,4.11,4.11,0,0,0-.77,2.59v6.43h-1.81V334.09h1.81v1.79h0a3.83,3.83,0,0,1,3.5-2.05,3.27,3.27,0,0,1,2,.64,3.33,3.33,0,0,1,1.18,1.69,4,4,0,0,1,3.74-2.33q3.72,0,3.72,4.59Z"/><path class="cls-5" d="M334.11,345.26a3.55,3.55,0,0,1-1.68.35q-3,0-3-3.3v-6.67h-1.93v-1.55h1.93v-2.75l1.81-.58v3.33h2.84v1.55h-2.84V342a2.72,2.72,0,0,0,.38,1.62,1.56,1.56,0,0,0,1.28.48,1.89,1.89,0,0,0,1.18-.37Z"/><path class="cls-5" d="M345.41,340.18h-8a4.19,4.19,0,0,0,1,2.91,3.48,3.48,0,0,0,2.66,1,5.5,5.5,0,0,0,3.5-1.25v1.69a6.53,6.53,0,0,1-3.93,1.08,4.77,4.77,0,0,1-3.75-1.53,6.31,6.31,0,0,1-1.37-4.32,6.13,6.13,0,0,1,1.5-4.29,4.76,4.76,0,0,1,3.7-1.66,4.23,4.23,0,0,1,3.42,1.43,6,6,0,0,1,1.22,4Zm-1.85-1.53a3.66,3.66,0,0,0-.76-2.43,2.55,2.55,0,0,0-2.06-.87,2.91,2.91,0,0,0-2.17.91,4.13,4.13,0,0,0-1.1,2.39Z"/><path class="cls-5" d="M347.45,345V343a5.35,5.35,0,0,0,3.25,1.09c1.59,0,2.38-.53,2.38-1.58a1.45,1.45,0,0,0-.2-.77,2,2,0,0,0-.56-.55,4.39,4.39,0,0,0-.81-.44l-1-.4a13.81,13.81,0,0,1-1.31-.6,3.92,3.92,0,0,1-.95-.68,2.63,2.63,0,0,1-.57-.87,3,3,0,0,1-.19-1.13,2.68,2.68,0,0,1,.36-1.4,3.17,3.17,0,0,1,1-1,4.58,4.58,0,0,1,1.38-.62,6.11,6.11,0,0,1,1.6-.21,6.41,6.41,0,0,1,2.62.51v1.82a5.12,5.12,0,0,0-2.86-.81,3.6,3.6,0,0,0-.91.11,2.17,2.17,0,0,0-.7.33,1.56,1.56,0,0,0-.46.5,1.42,1.42,0,0,0-.16.65,1.61,1.61,0,0,0,.16.73,1.68,1.68,0,0,0,.47.53,3.34,3.34,0,0,0,.75.42l1,.41a12.38,12.38,0,0,1,1.35.59,4.46,4.46,0,0,1,1,.68,2.58,2.58,0,0,1,.64.87,2.85,2.85,0,0,1,.23,1.18,2.72,2.72,0,0,1-.37,1.45,3,3,0,0,1-1,1,4.44,4.44,0,0,1-1.42.6,6.56,6.56,0,0,1-1.68.2A6.38,6.38,0,0,1,347.45,345Z"/><path class="cls-5" d="M362.93,345.26a3.5,3.5,0,0,1-1.68.35c-2,0-3-1.1-3-3.3v-6.67h-1.94v-1.55h1.94v-2.75l1.8-.58v3.33h2.84v1.55h-2.84V342a2.64,2.64,0,0,0,.39,1.62,1.53,1.53,0,0,0,1.27.48,1.89,1.89,0,0,0,1.18-.37Z"/></g></g></svg>