<svg xmlns="http://www.w3.org/2000/svg" xmlns:xlink="http://www.w3.org/1999/xlink" viewBox="0 0 1542.64 500.94"><defs><style>.cls-1{fill:none;}.cls-2{fill:#44576a;}.cls-3{fill:#fffffd;}.cls-4{fill:#c6d0d6;}.cls-5{fill:#fff;}.cls-6{fill:#d6dbd8;}.cls-7{fill:#dfe7db;}.cls-8{clip-path:url(#clip-path);}.cls-9{fill:#e18763;}.cls-10{fill:#ffbea3;}.cls-11{fill:#ffd6c4;}.cls-12{fill:#5a5350;}.cls-13{fill:#e1e1e1;}.cls-14{fill:#464650;}.cls-15{opacity:0.43;}.cls-16{fill:#a5b8c5;}.cls-17{fill:#a7a7a7;}.cls-18{fill:#f9b233;}.cls-19{clip-path:url(#clip-path-2);}.cls-20{clip-path:url(#clip-path-3);}.cls-21{fill:#b17f4a;}</style><clipPath id="clip-path"><rect id="SVGID" class="cls-1" x="663.1" y="414.04" width="25.88" height="35.61" transform="translate(1214.29 1026.66) rotate(-164.71)"/></clipPath><clipPath id="clip-path-2"><rect id="SVGID-2" data-name="SVGID" class="cls-1" x="817.93" y="252.86" width="25.88" height="35.61" transform="translate(1685.36 87.77) rotate(149.88)"/></clipPath><clipPath id="clip-path-3"><rect id="SVGID-3" data-name="SVGID" class="cls-1" x="1033.21" y="395.04" width="25.88" height="35.61" transform="translate(2158.2 244.88) rotate(149.88)"/></clipPath></defs><g id="Capa_2" data-name="Capa 2"><g id="Capa_1-2" data-name="Capa 1"><circle class="cls-2" cx="1075.72" cy="282.15" r="5.19"/><circle class="cls-2" cx="1072.74" cy="304.16" r="5.19"/><circle class="cls-2" cx="1069.12" cy="325.99" r="5.19"/><circle class="cls-2" cx="1063.31" cy="347.23" r="5.19"/><circle class="cls-2" cx="1056.02" cy="368.07" r="5.19"/><circle class="cls-2" cx="1046.69" cy="388.34" r="5.19"/><circle class="cls-2" cx="1036.11" cy="407.38" r="5.19"/><circle class="cls-2" cx="1022.55" cy="425.61" r="5.19"/><circle class="cls-2" cx="1006.64" cy="440.79" r="5.19"/><circle class="cls-2" cx="988.48" cy="453.97" r="5.19"/><circle class="cls-2" cx="968.59" cy="463.29" r="5.19"/><circle class="cls-2" cx="947.09" cy="468.17" r="5.19"/><circle class="cls-2" cx="924.94" cy="469.1" r="5.19"/><circle class="cls-2" cx="902.83" cy="466.84" r="5.19"/><circle class="cls-2" cx="880.72" cy="462.39" r="5.19"/><circle class="cls-2" cx="859.61" cy="455.03" r="5.19"/><circle class="cls-2" cx="839.43" cy="446.42" r="5.19"/><circle class="cls-2" cx="819.28" cy="435.53" r="5.19"/><circle class="cls-2" cx="802.55" cy="423.09" r="5.19"/><circle class="cls-2" cx="786.27" cy="406.07" r="5.19"/><circle class="cls-2" cx="775.18" cy="388.29" r="5.19"/><circle class="cls-2" cx="768.28" cy="366.87" r="5.19"/><circle class="cls-2" cx="766.22" cy="345.97" r="5.19"/><circle class="cls-2" cx="769.42" cy="323.32" r="5.19"/><circle class="cls-2" cx="778.18" cy="302.19" r="5.19"/><circle class="cls-2" cx="790.59" cy="285.25" r="5.19"/><circle class="cls-2" cx="805.27" cy="270.92" r="5.19"/><circle class="cls-2" cx="825.89" cy="258.21" r="5.19"/><circle class="cls-2" cx="847.55" cy="253.37" r="5.19"/><circle class="cls-2" cx="869.22" cy="256.5" r="5.19"/><circle class="cls-2" cx="887.7" cy="266.94" r="5.19"/><circle class="cls-2" cx="900.76" cy="284.06" r="5.19"/><circle class="cls-2" cx="916.6" cy="324.58" r="5.19"/><circle class="cls-2" cx="914.02" cy="302.64" r="5.19"/><circle class="cls-2" cx="904.1" cy="370.3" r="5.19"/><circle class="cls-2" cx="911.91" cy="346.12" r="5.19"/><circle class="cls-2" cx="890.48" cy="385.12" r="5.19"/><circle class="cls-2" cx="874.57" cy="400.31" r="5.19"/><circle class="cls-2" cx="857.71" cy="413.84" r="5.19"/><circle class="cls-2" cx="838.69" cy="425.79" r="5.19"/><circle class="cls-2" cx="796.66" cy="441.01" r="5.19"/><circle class="cls-2" cx="776.18" cy="442.99" r="5.19"/><circle class="cls-2" cx="753.85" cy="446.65" r="5.19"/><circle class="cls-2" cx="730.84" cy="444.75" r="5.19"/><circle class="cls-2" cx="709" cy="440.78" r="5.19"/><circle class="cls-2" cx="687.37" cy="433.86" r="5.19"/><circle class="cls-2" cx="667.59" cy="425.27" r="5.19"/><circle class="cls-2" cx="647.44" cy="414.38" r="5.19"/><circle class="cls-2" cx="629.26" cy="402.83" r="5.19"/><circle class="cls-2" cx="611.61" cy="388.64" r="5.19"/><circle class="cls-2" cx="594.47" cy="375.1" r="5.19"/><circle class="cls-2" cx="579.01" cy="358.39" r="5.19"/><circle class="cls-2" cx="563.94" cy="341.32" r="5.19"/><path class="cls-2" d="M983.29,105q35.33,27.33,70.24,55.18L1322.14,18.42Z"/><path class="cls-2" d="M1076.89,265.35l-22.35-94q15.87,11.76,31.73,23.53Q1081.59,230.12,1076.89,265.35Z"/><path class="cls-2" d="M1082.1,265.49q5.63-29.56,11.24-59.12l29.74,24.76q-8.68,7.89-18.19,16Q1093.3,256.88,1082.1,265.49Z"/><path class="cls-2" d="M1086.87,188l-28.45-22.61L1323.94,18.88,1212.6,99.29Z"/><path class="cls-2" d="M1249.42,146.4l-70.24,116.18-84-72.45L1323.94,18.88Z"/><rect class="cls-3" x="606.7" y="393.05" width="88.75" height="55.41" rx="0.54" transform="translate(1168.18 998.29) rotate(-164.71)"/><path class="cls-4" d="M621.47,383.94l73.82,20.18a6.11,6.11,0,0,1,4.29,7.51l-1.38,5-85.61-23.4,1.38-5A6.11,6.11,0,0,1,621.47,383.94Z"/><rect class="cls-5" x="621.86" y="396.88" width="72.17" height="3.64" transform="translate(1187.49 956.77) rotate(-164.71)"/><rect class="cls-5" x="620.92" y="401.57" width="72.17" height="1.12" transform="translate(1184.75 963.26) rotate(-164.71)"/><rect class="cls-6" x="650.48" y="409.31" width="13.79" height="2.75" transform="translate(1183.21 980.16) rotate(-164.71)"/><rect class="cls-6" x="628.39" y="410.45" width="35.24" height="2.3" transform="translate(1160.63 978.96) rotate(-164.71)"/><rect class="cls-6" x="642.16" y="416.97" width="19.9" height="2.75" transform="translate(1170.84 993.84) rotate(-164.71)"/><rect class="cls-6" x="629.16" y="419.34" width="32.09" height="2.3" transform="translate(1156.72 996.22) rotate(-164.71)"/><rect class="cls-6" x="632.07" y="424.4" width="27.82" height="2.75" transform="translate(1156.83 1006.82) rotate(-164.71)"/><rect class="cls-6" x="644.98" y="430.25" width="13.63" height="2.3" transform="translate(1166.79 1019.38) rotate(-164.71)"/><rect class="cls-6" x="643.53" y="434.73" width="13.79" height="2.75" transform="translate(1162.85 1028.27) rotate(-164.71)"/><rect class="cls-6" x="621.44" y="435.87" width="35.24" height="2.3" transform="translate(1140.28 1027.07) rotate(-164.71)"/><rect class="cls-7" x="663.34" y="414.11" width="25.88" height="35.61" transform="translate(1214.75 1026.85) rotate(-164.71)"/><g class="cls-8"><path class="cls-5" d="M677.56,439.64l-3.56,12-3.91,1.68-2.67-3.7,3.27-11.57S673,434.78,677.56,439.64Z"/><polygon class="cls-9" points="672.16 444.86 672.95 445.08 674.61 442.24 672.17 441.58 672.16 444.86"/><polygon class="cls-9" points="667.7 452.93 672.68 454.29 672.99 444.88 672.23 444.67 667.7 452.93"/><path class="cls-10" d="M681.39,430.58a2.23,2.23,0,1,0,2.79-1.8A2.34,2.34,0,0,0,681.39,430.58Z"/><path class="cls-10" d="M667.8,426.86a2.23,2.23,0,1,0,2.79-1.79A2.36,2.36,0,0,0,667.8,426.86Z"/><rect class="cls-11" x="670.91" y="433.56" width="7.01" height="8.42" transform="translate(1209.54 1037.88) rotate(-164.71)"/><path class="cls-10" d="M677.91,438.28a8.68,8.68,0,0,1-3.57-.22,8.83,8.83,0,0,1-3.19-1.62l1-3.65,6.76,1.85Z"/><rect class="cls-11" x="669.64" y="417.9" width="14.97" height="18.91" rx="0.59" transform="translate(1217.62 1018.12) rotate(-164.71)"/><path class="cls-12" d="M684.32,421.9s-8.3,4.19-11.06,2.46-3.64,1.85-3.64,1.85-.83-4.84.14-6.24c.81-1.16,1.3-3,4.72-2.92S687.37,415.39,684.32,421.9Z"/><path class="cls-12" d="M686.22,420.61s2.67,1,1.49,3.54a71,71,0,0,1-3.58,6.25s-2.39-6.73-1.15-8.38S684.86,419.82,686.22,420.61Z"/><path class="cls-10" d="M679,426.29s-1.08-.1-1.44,1.7-.3,3.72-1.05,3.58a1.19,1.19,0,0,1-.94-.65s-.3,1.36,1,1.27,1.26-2.48,1.3-3.58A4.73,4.73,0,0,1,679,426.29Z"/><polygon class="cls-13" points="677.56 439.63 673.24 441.96 676.18 445.01 677.56 439.63"/><polygon class="cls-13" points="670.77 437.78 673.3 441.98 669.22 443.11 670.77 437.78"/><path class="cls-14" d="M677.64,439.45c0,.19-7.75,14.37-7.75,14.37l14.52,4,3.17-11.61Z"/><path class="cls-14" d="M670.79,437.57c0,.2-.63,16.32-.63,16.32l-14.53-4,3.18-11.61Z"/></g><g class="cls-15"><path class="cls-16" d="M637.3,407l-6.1,22.33-19.07-5.21,6.11-22.33Zm-14.86,15.22a7.24,7.24,0,1,0-5.08-8.89A7.24,7.24,0,0,0,622.44,422.24Z"/><circle class="cls-16" cx="624.31" cy="415.18" r="5.56" transform="translate(59.2 907.93) rotate(-74.71)"/></g><rect class="cls-17" x="653.56" y="444.16" width="1.02" height="3.66" transform="translate(1167.39 1048.66) rotate(-164.71)"/><rect class="cls-17" x="650.02" y="443.48" width="3.13" height="3.66" transform="translate(1162.7 1046.67) rotate(-164.71)"/><rect class="cls-17" x="649.54" y="442.97" width="0.3" height="3.66" transform="translate(1159.11 1045.15) rotate(-164.71)"/><rect class="cls-17" x="647.58" y="442.43" width="0.3" height="3.66" transform="translate(1155.41 1043.59) rotate(-164.71)"/><rect class="cls-17" x="645.63" y="441.9" width="0.3" height="3.66" transform="translate(1151.72 1042.03) rotate(-164.71)"/><rect class="cls-17" x="644.3" y="441.53" width="0.3" height="3.66" transform="translate(1149.19 1040.96) rotate(-164.71)"/><rect class="cls-17" x="642.96" y="441.17" width="0.3" height="3.66" transform="translate(1146.67 1039.89) rotate(-164.71)"/><rect class="cls-17" x="641.01" y="440.64" width="0.3" height="3.66" transform="matrix(-0.96, -0.26, 0.26, -0.96, 1142.97, 1038.33)"/><rect class="cls-17" x="639.68" y="440.27" width="0.3" height="3.66" transform="translate(1140.45 1037.26) rotate(-164.71)"/><rect class="cls-17" x="638.34" y="439.91" width="0.3" height="3.66" transform="translate(1137.93 1036.19) rotate(-164.71)"/><rect class="cls-17" x="637.01" y="439.54" width="0.3" height="3.66" transform="translate(1135.4 1035.12) rotate(-164.71)"/><rect class="cls-17" x="635.06" y="439.01" width="0.3" height="3.66" transform="translate(1131.71 1033.56) rotate(-164.71)"/><rect class="cls-17" x="631.72" y="438.29" width="1.71" height="3.66" transform="matrix(-0.96, -0.26, 0.26, -0.96, 1126.73, 1031.45)"/><rect class="cls-17" x="628.74" y="437.33" width="0.7" height="3.66" transform="translate(1120.12 1028.66) rotate(-164.71)"/><rect class="cls-3" x="761.08" y="252.95" width="88.75" height="55.41" rx="0.58" transform="translate(1642.97 119.16) rotate(149.88)"/><path class="cls-18" d="M758.45,275.9l66.19-38.41a6.12,6.12,0,0,1,8.36,2.22l2.61,4.51-76.76,44.54-2.62-4.51A6.11,6.11,0,0,1,758.45,275.9Z"/><rect class="cls-5" x="758.48" y="258.46" width="72.17" height="3.64" transform="translate(1612.45 86.62) rotate(149.88)"/><rect class="cls-5" x="760.26" y="262.79" width="72.17" height="1.12" transform="translate(1617.32 91.46) rotate(149.88)"/><rect class="cls-6" x="795.81" y="267.72" width="13.79" height="2.75" transform="translate(1632.04 98.99) rotate(149.88)"/><rect class="cls-6" x="777.75" y="276.69" width="35.24" height="2.3" transform="translate(1622.76 118.97) rotate(149.88)"/><rect class="cls-6" x="794.51" y="276.86" width="19.9" height="2.75" transform="translate(1639.91 115.14) rotate(149.88)"/><rect class="cls-6" x="785.1" y="283.5" width="32.09" height="2.3" transform="translate(1636.94 128.77) rotate(149.88)"/><rect class="cls-6" x="791.54" y="286.44" width="27.82" height="2.75" transform="translate(1646.56 132.52) rotate(149.88)"/><rect class="cls-6" x="806.72" y="286.46" width="13.63" height="2.3" transform="matrix(-0.86, 0.5, -0.5, -0.86, 1661.53, 128.08)"/><rect class="cls-6" x="809.03" y="290.52" width="13.79" height="2.75" transform="translate(1668.14 134.86) rotate(149.88)"/><rect class="cls-6" x="790.98" y="299.48" width="35.24" height="2.3" transform="translate(1658.86 154.84) rotate(149.88)"/><rect class="cls-7" x="818.15" y="252.73" width="25.88" height="35.61" transform="translate(1685.71 87.42) rotate(149.88)"/><g class="cls-19"><path class="cls-5" d="M837.49,275.05l6.07,11L842,290l-4.5-.69-6-10.46S830.84,274.88,837.49,275.05Z"/><polygon class="cls-9" points="837.42 282.56 838.13 282.15 837.27 278.98 835.09 280.25 837.42 282.56"/><polygon class="cls-9" points="840.04 291.4 844.5 288.81 838.01 281.98 837.33 282.38 840.04 291.4"/><path class="cls-10" d="M833.73,266a2.22,2.22,0,1,0,.68-3.24A2.35,2.35,0,0,0,833.73,266Z"/><path class="cls-10" d="M821.54,273a2.23,2.23,0,1,0,.68-3.24A2.35,2.35,0,0,0,821.54,273Z"/><rect class="cls-11" x="830.45" y="271.77" width="7.01" height="8.42" transform="translate(1693.79 96.14) rotate(149.88)"/><path class="cls-10" d="M836.77,273.85a8.65,8.65,0,0,1-2.67,2.38,8.74,8.74,0,0,1-3.39,1.14l-1.9-3.27,6.07-3.52Z"/><rect class="cls-11" x="820.95" y="257.28" width="14.97" height="18.91" rx="0.59" transform="translate(1678.85 81.66) rotate(149.88)"/><path class="cls-12" d="M829.6,257.78s-2.84,8.86-6,9.61-1.24,3.88-1.24,3.88-4-2.79-4.34-4.47c-.26-1.39-1.2-3,1.23-5.41S827.1,251,829.6,257.78Z"/><path class="cls-12" d="M830,255.52s2.61-1.17,3.57,1.43a70.87,70.87,0,0,1,1.94,6.93s-6.47-3-6.78-5.06S828.5,255.93,830,255.52Z"/><path class="cls-10" d="M829,264.63s-.84.7.19,2.23,2.44,2.82,1.82,3.25a1.17,1.17,0,0,1-1.12.21s.75,1.18,1.62.16-.87-2.64-1.63-3.44A4.75,4.75,0,0,1,829,264.63Z"/><polygon class="cls-13" points="837.49 275.05 836.11 279.76 840.34 279.8 837.49 275.05"/><polygon class="cls-13" points="831.4 278.58 836.17 279.72 834.11 283.42 831.4 278.58"/><path class="cls-14" d="M837.41,274.86c.1.17,4.79,15.61,4.79,15.61l13-7.56-6-10.41Z"/><path class="cls-14" d="M831.27,278.42c.1.18,11.18,11.91,11.18,11.91l-13,7.56-6-10.41Z"/></g><g class="cls-15"><path class="cls-16" d="M786,280.83l11.62,20-17.1,9.92-11.61-20Zm.4,21.26a7.24,7.24,0,1,0-9.89-2.62A7.23,7.23,0,0,0,786.4,302.09Z"/><circle class="cls-16" cx="782.69" cy="295.81" r="5.56" transform="translate(-42.75 432.77) rotate(-30.12)"/></g><rect class="cls-17" x="825.01" y="294.41" width="1.02" height="3.66" transform="translate(1688.23 138.16) rotate(149.88)"/><rect class="cls-17" x="821.73" y="295.7" width="3.13" height="3.66" transform="translate(1684.72 141.68) rotate(149.88)"/><rect class="cls-17" x="821.45" y="296.69" width="0.3" height="3.66" transform="translate(1682.05 144.38) rotate(149.88)"/><rect class="cls-17" x="819.7" y="297.71" width="0.3" height="3.66" transform="translate(1679.29 147.15) rotate(149.88)"/><rect class="cls-17" x="817.94" y="298.72" width="0.3" height="3.66" transform="translate(1676.54 149.93) rotate(149.88)"/><rect class="cls-17" x="816.75" y="299.42" width="0.3" height="3.66" transform="translate(1674.66 151.82) rotate(149.88)"/><rect class="cls-17" x="815.55" y="300.11" width="0.3" height="3.66" transform="matrix(-0.86, 0.5, -0.5, -0.86, 1672.77, 153.71)"/><rect class="cls-17" x="813.8" y="301.13" width="0.3" height="3.66" transform="matrix(-0.86, 0.5, -0.5, -0.86, 1670.02, 156.49)"/><rect class="cls-17" x="812.61" y="301.82" width="0.3" height="3.66" transform="translate(1668.14 158.38) rotate(149.88)"/><rect class="cls-17" x="811.41" y="302.51" width="0.3" height="3.66" transform="translate(1666.25 160.28) rotate(149.88)"/><rect class="cls-17" x="810.21" y="303.21" width="0.3" height="3.66" transform="translate(1664.37 162.17) rotate(149.88)"/><rect class="cls-17" x="808.46" y="304.22" width="0.3" height="3.66" transform="translate(1661.62 164.94) rotate(149.88)"/><rect class="cls-17" x="805.4" y="305.59" width="1.71" height="3.66" transform="translate(1657.9 168.68) rotate(149.88)"/><rect class="cls-17" x="802.77" y="307.41" width="0.7" height="3.66" transform="translate(1652.98 173.64) rotate(149.88)"/><rect class="cls-3" x="976.36" y="395.13" width="88.75" height="55.41" rx="0.58" transform="matrix(-0.86, 0.5, -0.5, -0.86, 2115.81, 276.27)"/><path class="cls-4" d="M973.73,418.07l66.19-38.4a6.11,6.11,0,0,1,8.35,2.21l2.62,4.52-76.76,44.54-2.62-4.51A6.12,6.12,0,0,1,973.73,418.07Z"/><rect class="cls-5" x="973.76" y="400.64" width="72.17" height="3.64" transform="matrix(-0.86, 0.5, -0.5, -0.86, 2085.29, 243.73)"/><rect class="cls-5" x="975.54" y="404.97" width="72.17" height="1.12" transform="translate(2090.16 248.57) rotate(149.88)"/><rect class="cls-6" x="1011.09" y="409.9" width="13.79" height="2.75" transform="matrix(-0.86, 0.5, -0.5, -0.86, 2104.88, 256.1)"/><rect class="cls-6" x="993.03" y="418.87" width="35.24" height="2.3" transform="matrix(-0.86, 0.5, -0.5, -0.86, 2095.6, 276.08)"/><rect class="cls-6" x="1009.79" y="419.04" width="19.9" height="2.75" transform="translate(2112.75 272.25) rotate(149.88)"/><rect class="cls-6" x="1000.38" y="425.68" width="32.09" height="2.3" transform="matrix(-0.86, 0.5, -0.5, -0.86, 2109.77, 285.88)"/><rect class="cls-6" x="1006.82" y="428.62" width="27.82" height="2.75" transform="translate(2119.4 289.62) rotate(149.88)"/><rect class="cls-6" x="1022" y="428.64" width="13.63" height="2.3" transform="translate(2134.37 285.19) rotate(149.88)"/><rect class="cls-6" x="1024.31" y="432.69" width="13.79" height="2.75" transform="translate(2140.98 291.97) rotate(149.88)"/><rect class="cls-6" x="1006.26" y="441.66" width="35.24" height="2.3" transform="translate(2131.7 311.94) rotate(149.88)"/><rect class="cls-7" x="1033.43" y="394.91" width="25.88" height="35.61" transform="translate(2158.55 244.53) rotate(149.88)"/><g class="cls-20"><path class="cls-5" d="M1052.77,417.23l6.07,11-1.56,4-4.51-.7L1046.83,421S1046.12,417.06,1052.77,417.23Z"/><polygon class="cls-9" points="1052.7 424.74 1053.41 424.33 1052.55 421.16 1050.37 422.43 1052.7 424.74"/><polygon class="cls-9" points="1055.32 433.58 1059.78 430.99 1053.29 424.16 1052.61 424.56 1055.32 433.58"/><path class="cls-10" d="M1049,408.14a2.22,2.22,0,1,0,.67-3.24A2.36,2.36,0,0,0,1049,408.14Z"/><path class="cls-10" d="M1036.82,415.21a2.23,2.23,0,1,0,.68-3.24A2.36,2.36,0,0,0,1036.82,415.21Z"/><rect class="cls-11" x="1045.73" y="413.95" width="7.01" height="8.42" transform="translate(2166.62 253.25) rotate(149.88)"/><path class="cls-10" d="M1052.05,416a8.65,8.65,0,0,1-2.67,2.38,8.74,8.74,0,0,1-3.39,1.14l-1.9-3.27,6.07-3.52Z"/><rect class="cls-11" x="1036.23" y="399.46" width="14.97" height="18.91" rx="0.59" transform="translate(2151.69 238.77) rotate(149.88)"/><path class="cls-21" d="M1044.88,400s-2.84,8.86-6,9.61-1.24,3.88-1.24,3.88-4-2.8-4.34-4.47c-.26-1.39-1.2-3,1.23-5.41S1042.38,393.22,1044.88,400Z"/><path class="cls-21" d="M1045.3,397.7s2.61-1.17,3.57,1.43a70.87,70.87,0,0,1,1.94,6.93s-6.47-3-6.78-5.06S1043.78,398.11,1045.3,397.7Z"/><path class="cls-10" d="M1044.3,406.81s-.84.7.19,2.22,2.44,2.83,1.82,3.26a1.17,1.17,0,0,1-1.12.21s.75,1.17,1.62.16-.87-2.64-1.63-3.44A4.75,4.75,0,0,1,1044.3,406.81Z"/><polygon class="cls-13" points="1052.76 417.23 1051.39 421.94 1055.62 421.98 1052.76 417.23"/><polygon class="cls-13" points="1046.68 420.76 1051.45 421.9 1049.39 425.6 1046.68 420.76"/><path class="cls-14" d="M1052.69,417c.1.17,4.79,15.61,4.79,15.61l13-7.56-6-10.41Z"/><path class="cls-14" d="M1046.54,420.6c.11.18,11.18,11.91,11.18,11.91l-13,7.56-6-10.41Z"/></g><g class="cls-15"><path class="cls-16" d="M1001.28,423l11.62,20-17.1,9.92-11.61-20Zm.4,21.27a7.24,7.24,0,1,0-9.89-2.63A7.23,7.23,0,0,0,1001.68,444.27Z"/><circle class="cls-16" cx="997.97" cy="437.99" r="5.56" transform="translate(-85.03 560.02) rotate(-30.12)"/></g><rect class="cls-17" x="1040.29" y="436.59" width="1.02" height="3.66" transform="translate(2161.06 295.27) rotate(149.88)"/><rect class="cls-17" x="1037.01" y="437.88" width="3.13" height="3.66" transform="translate(2157.56 298.79) rotate(149.88)"/><rect class="cls-17" x="1036.73" y="438.87" width="0.3" height="3.66" transform="translate(2154.89 301.49) rotate(149.88)"/><rect class="cls-17" x="1034.98" y="439.89" width="0.3" height="3.66" transform="translate(2152.13 304.26) rotate(149.88)"/><rect class="cls-17" x="1033.22" y="440.9" width="0.3" height="3.66" transform="translate(2149.38 307.03) rotate(149.88)"/><rect class="cls-17" x="1032.03" y="441.6" width="0.3" height="3.66" transform="translate(2147.49 308.93) rotate(149.88)"/><rect class="cls-17" x="1030.83" y="442.29" width="0.3" height="3.66" transform="translate(2145.61 310.82) rotate(149.88)"/><rect class="cls-17" x="1029.08" y="443.31" width="0.3" height="3.66" transform="translate(2142.86 313.6) rotate(149.88)"/><rect class="cls-17" x="1027.89" y="444" width="0.3" height="3.66" transform="matrix(-0.86, 0.5, -0.5, -0.86, 2140.97, 315.49)"/><rect class="cls-17" x="1026.69" y="444.69" width="0.3" height="3.66" transform="translate(2139.09 317.38) rotate(149.88)"/><rect class="cls-17" x="1025.49" y="445.39" width="0.3" height="3.66" transform="matrix(-0.86, 0.5, -0.5, -0.86, 2137.21, 319.28)"/><rect class="cls-17" x="1023.74" y="446.4" width="0.3" height="3.66" transform="translate(2134.46 322.05) rotate(149.88)"/><rect class="cls-17" x="1020.68" y="447.77" width="1.71" height="3.66" transform="matrix(-0.86, 0.5, -0.5, -0.86, 2130.74, 325.79)"/><rect class="cls-17" x="1018.05" y="449.59" width="0.7" height="3.66" transform="translate(2125.82 330.75) rotate(149.88)"/><rect class="cls-1" width="1542.64" height="500.94"/></g></g></svg>