<svg xmlns="http://www.w3.org/2000/svg" viewBox="0 0 985.96 804.37"><defs><style>.cls-1{fill:#fff;}.cls-2{fill:#e5f1ff;}.cls-3{fill:#d0e7ff;}.cls-4{fill:#a7ceff;}.cls-5{fill:#5b8ad9;}.cls-6{fill:#9779ff;}.cls-7{fill:#7433d2;}.cls-8{fill:#70aaff;}.cls-9{fill:#ff3d14;}.cls-10{fill:#202036;}.cls-11,.cls-12,.cls-21,.cls-22{fill:none;stroke-miterlimit:10;}.cls-11{stroke:#202036;stroke-width:26.78px;}.cls-12,.cls-21{stroke:#ffb691;}.cls-12{stroke-width:13.39px;}.cls-13{fill:#ffb691;}.cls-14{fill:#ee8d87;}.cls-15{fill:#be635f;}.cls-16{fill:#cf736e;}.cls-17{fill:#ff9292;}.cls-18{fill:#ffacac;}.cls-19{fill:#ff8e3c;}.cls-20{fill:#ffd146;}.cls-21{stroke-width:13.82px;}.cls-22{stroke:#38526a;stroke-width:1.42px;}.cls-23{fill:#ee605f;}.cls-24{fill:#ebeef0;}.cls-25{fill:#38526a;}</style></defs><g id="Capa_2" data-name="Capa 2"><g id="Capa_1-2" data-name="Capa 1"><rect class="cls-1" width="985.96" height="804.37"/><rect class="cls-1" x="149.12" y="12.77" width="669.44" height="669.44"/><path class="cls-2" d="M730,284.38c-7-78.57-78-137.46-156.47-129.69a142.77,142.77,0,0,0-109.79,70.88,62.69,62.69,0,0,1-63.25,30.93,143.22,143.22,0,0,0-35.05-.68c-77.61,8-134.86,77.57-127.72,155.26a143,143,0,0,0,266.4,58c12.81-22.32,38.2-34.06,63.69-30.51A143.07,143.07,0,0,0,730,284.38Z"/><rect class="cls-3" y="608.13" width="985.96" height="74.07"/><ellipse class="cls-4" cx="483.84" cy="620.93" rx="271.29" ry="12.8"/><path class="cls-5" d="M194,599a25.57,25.57,0,0,1,12.12,3c7.71-17.44,26.65-29.95,49.05-30.69C271.92,551.71,298.6,539,328.67,539c26.24,0,49.88,9.69,66.59,25.19a73.16,73.16,0,0,1,9.31-.6c23.8,0,44.53,11.47,55.44,28.44a36.31,36.31,0,0,1,7.44-.77c17.71,0,32.07,12.6,32.07,28.13H170.78C170.78,608.14,181.19,599,194,599Z"/><circle class="cls-4" cx="332.1" cy="581.57" r="13.89"/><path class="cls-4" d="M359.53,583.94a4.7,4.7,0,1,0,4.7-4.7A4.7,4.7,0,0,0,359.53,583.94Z"/><path class="cls-4" d="M393.84,602A11.92,11.92,0,1,0,405.76,590,11.92,11.92,0,0,0,393.84,602Z"/><path class="cls-4" d="M304.05,558.93a3.4,3.4,0,1,0,3.4-3.4A3.4,3.4,0,0,0,304.05,558.93Z"/><path class="cls-5" d="M279.36,583.3l.28-2.66c-.45,0-45.64-5.88-73.3-86.31l-2.53.87C232.08,577.39,277.44,583.1,279.36,583.3Z"/><path class="cls-4" d="M216.11,522.46h0a26.82,26.82,0,0,1-37-8.44h0A26.81,26.81,0,0,1,216.11,522.46Z"/><path class="cls-4" d="M206.65,500.34h0a26.82,26.82,0,0,1-11-36.28h0A26.81,26.81,0,0,1,206.65,500.34Z"/><path class="cls-4" d="M229.67,544.93h0A26.81,26.81,0,0,1,192.09,550h0A26.82,26.82,0,0,1,229.67,544.93Z"/><path class="cls-4" d="M245.68,564.58h0a26.81,26.81,0,0,1-36.8,9.13h0A26.81,26.81,0,0,1,245.68,564.58Z"/><path class="cls-4" d="M258.73,527.54h0a26.82,26.82,0,0,1-11.53,36.13h0A26.82,26.82,0,0,1,258.73,527.54Z"/><path class="cls-4" d="M245.77,510.75h0A26.81,26.81,0,0,1,229.5,545h0A26.82,26.82,0,0,1,245.77,510.75Z"/><path class="cls-4" d="M228.8,486.44h0a26.81,26.81,0,0,1-12.3,35.87h0A26.81,26.81,0,0,1,228.8,486.44Z"/><path class="cls-4" d="M219.2,608.09a14.2,14.2,0,0,1,6.72,1.67c4.28-9.67,14.79-16.61,27.21-17,9.26-10.88,24.06-17.92,40.74-17.92a54.22,54.22,0,0,1,36.93,14,40,40,0,0,1,5.17-.34c13.19,0,24.69,6.36,30.74,15.78a20,20,0,0,1,4.13-.43c9.82,0,17.78,7,17.78,15.6H206.3C206.3,613.16,212.07,608.09,219.2,608.09Z"/><polygon class="cls-6" points="613.91 572.09 737.05 572.09 737.05 616.02 737.05 616.02 613.91 616.02 613.91 572.09"/><polygon class="cls-7" points="613.91 587.48 737.05 593.55 737.05 575.56 613.91 575.56 613.91 587.48"/><rect class="cls-8" x="611.78" y="571.94" width="127.39" height="10.93" transform="translate(1350.96 1154.81) rotate(180)"/><polygon class="cls-6" points="486.15 512.65 609.29 512.65 609.29 556.58 609.29 556.58 486.15 556.58 486.15 512.65"/><polygon class="cls-7" points="486.15 528.04 609.29 534.11 609.29 516.12 486.15 516.12 486.15 528.04"/><rect class="cls-8" x="484.02" y="512.5" width="127.39" height="10.93" transform="translate(1095.44 1035.93) rotate(180)"/><polygon class="cls-6" points="358.39 453.21 481.53 453.21 481.53 497.14 481.53 497.14 358.39 497.14 358.39 453.21"/><polygon class="cls-7" points="358.39 468.6 481.53 474.67 481.53 456.68 358.39 456.68 358.39 468.6"/><rect class="cls-8" x="356.26" y="453.06" width="127.39" height="10.93" transform="translate(839.92 917.05) rotate(180)"/><polygon class="cls-6" points="230.63 393.77 353.77 393.77 353.77 437.7 353.77 437.7 230.63 437.7 230.63 393.77"/><polygon class="cls-7" points="230.63 409.16 353.77 415.23 353.77 397.24 230.63 397.24 230.63 409.16"/><rect class="cls-8" x="228.51" y="393.62" width="127.39" height="10.93" transform="translate(584.41 798.18) rotate(180)"/><rect class="cls-9" x="545.76" y="455.31" width="18.74" height="17.36" transform="translate(162.8 -143.9) rotate(17.27)"/><path class="cls-10" d="M539.45,462.91l-4.27,16s-16.71-4.31-27.65,16.36L557.33,509l10.54-38.22Z"/><path class="cls-2" d="M537.93,473.37l9.89,2.73a2.75,2.75,0,0,0,3.38-1.92h0a2.76,2.76,0,0,0-1.92-3.39l-9.89-2.72A2.74,2.74,0,0,0,536,470h0A2.74,2.74,0,0,0,537.93,473.37Z"/><path class="cls-2" d="M535.81,481.07l9.88,2.73a2.76,2.76,0,0,0,3.39-1.93h0a2.75,2.75,0,0,0-1.92-3.38l-9.89-2.73a2.76,2.76,0,0,0-3.39,1.93h0A2.75,2.75,0,0,0,535.81,481.07Z"/><path class="cls-4" d="M522.1,480.54c2.27,4.08,3.77,10.37,0,18.75l-14.62-4C511.94,487,517.29,482.68,522.1,480.54Z"/><rect class="cls-2" x="505.42" y="500.92" width="53.69" height="4.67" transform="translate(152.9 -123.37) rotate(15.41)"/><polyline class="cls-11" points="643.3 349.18 582.59 378.99 555.86 462.91"/><path class="cls-12" d="M612.65,227.45c5.58,47-7.29,94.14-92.3,83.81"/><path class="cls-1" d="M611.59,222.23h0a11.41,11.41,0,0,1,12.31,10.42l1.71,20.63-22.72,1.89-1.72-20.63A11.41,11.41,0,0,1,611.59,222.23Z"/><rect class="cls-9" x="694.02" y="516.3" width="18.74" height="14.36" transform="matrix(0.98, -0.21, 0.21, 0.98, -93.5, 157.74)"/><path class="cls-10" d="M691,528.82l.23,16.57s-17.26.37-22.19,23.24l51.64-.32-.21-39.64Z"/><path class="cls-2" d="M692.4,539.31l10.25-.06a2.74,2.74,0,0,0,2.74-2.76h0a2.76,2.76,0,0,0-2.77-2.74l-10.25,0a2.76,2.76,0,0,0-2.74,2.77h0A2.76,2.76,0,0,0,692.4,539.31Z"/><path class="cls-2" d="M692.44,547.29l10.26,0a2.75,2.75,0,0,0,2.73-2.77h0a2.74,2.74,0,0,0-2.76-2.74l-10.26,0a2.76,2.76,0,0,0-2.74,2.77h0A2.76,2.76,0,0,0,692.44,547.29Z"/><path class="cls-4" d="M679.1,550.5c3.29,3.31,6.44,9,5.13,18l-15.16.09C671.06,559.41,675.05,553.85,679.1,550.5Z"/><rect class="cls-2" x="668.19" y="567.27" width="53.69" height="4.67" transform="translate(-2.97 3.65) rotate(-0.3)"/><polyline class="cls-11" points="674.92 341.18 681.24 436.96 703.38 520.83"/><path class="cls-10" d="M666.41,315.31l-17.86.41a24,24,0,0,0-23.41,24.44h0a24,24,0,0,0,24.5,23.35l17.86-.41a24,24,0,0,0,23.41-24.44h0A24,24,0,0,0,666.41,315.31Z"/><path class="cls-4" d="M620.55,335a8.54,8.54,0,0,0,5.88,7,77.54,77.54,0,0,0,28.81,3.31A78.45,78.45,0,0,0,692,332.8a8.57,8.57,0,0,0,3.79-8.38c-4.17-29.69-8-56.89-12.11-86.4a31.17,31.17,0,0,0-35.19-26.54l-15.55,2.19a29.1,29.1,0,0,0-24.77,32.86Z"/><rect class="cls-1" x="653.16" y="250.35" width="21.25" height="4.78" transform="translate(-23.32 72.81) rotate(-6.17)"/><path class="cls-7" d="M638.75,231.63c-6.53,75.09,43.88,94.51,76.2,89.12l10.56-11-12.8-9.55s-68.48,13.29-68.84-68.59Z"/><path class="cls-6" d="M633.18,220.77h7.66a7.92,7.92,0,0,1,7.92,7.92v7.66a0,0,0,0,1,0,0h-11.4a4.18,4.18,0,0,1-4.18-4.18v-11.4A0,0,0,0,1,633.18,220.77Z" transform="translate(26.12 520.18) rotate(-45)"/><path class="cls-13" d="M641.71,160.63h-1.4a16.24,16.24,0,0,0-16.24,16.25v44.48H658V176.88A16.24,16.24,0,0,0,641.71,160.63Z"/><path class="cls-14" d="M624.07,176.88a16.24,16.24,0,0,1,16.24-16.25h1.4A16.24,16.24,0,0,1,658,176.88v28.48a20.19,20.19,0,0,1-6.58,1.11h-18a20.24,20.24,0,0,1-9.31-2.27Z"/><path class="cls-1" d="M663.26,217.21c-2.31-7.58-5.6-9.88-5.6-9.88a25.8,25.8,0,0,1-16.65,13,25.8,25.8,0,0,1-16.64-13s-3.29,2.3-5.6,9.88,3.73,17,3.73,17L641,225.78l18.52,8.45S665.56,224.78,663.26,217.21Z"/><path class="cls-14" d="M603.26,171.76,668.62,167a5.47,5.47,0,0,0,5.1-5.81h0a5.47,5.47,0,0,0-5.82-5.1l-65.36,4.72a5.47,5.47,0,0,0-5.1,5.81h0A5.47,5.47,0,0,0,603.26,171.76Z"/><path class="cls-15" d="M668.91,164.7a3.18,3.18,0,0,0-.86-6.29l-65.36,4.72a3.32,3.32,0,0,0-.44.06,3.18,3.18,0,0,0,.86,6.29l65.36-4.72A3.32,3.32,0,0,0,668.91,164.7Z"/><path class="cls-10" d="M639,212.6h0a30.53,30.53,0,0,0,28.46-32.46l-2.42-36.87A29.27,29.27,0,0,0,634,116l-2.52.17a29.27,29.27,0,0,0-27.28,31.12l2.42,36.87A30.53,30.53,0,0,0,639,212.6Z"/><path class="cls-13" d="M618.65,135.11h33.12a8.54,8.54,0,0,1,8.54,8.54v29.73a0,0,0,0,1,0,0h-50.2a0,0,0,0,1,0,0V143.65A8.54,8.54,0,0,1,618.65,135.11Z" transform="translate(1279.16 266.53) rotate(176.24)"/><path class="cls-13" d="M628.83,193.29l11.65-.76a6.24,6.24,0,0,0,5.81-6.63h0a8.19,8.19,0,0,0-8.71-7.63l-7.73.5a8.2,8.2,0,0,0-7.64,8.71h0A6.22,6.22,0,0,0,628.83,193.29Z"/><path class="cls-1" d="M612.51,160.93c.26,3.8,3.32,5.63,6.93,5.39s6.4-2.47,6.14-6.26-3.3-5.46-6.91-5.22S612.26,157.13,612.51,160.93Z"/><path class="cls-10" d="M625.33,160.07a5.23,5.23,0,0,0-2.34-3.64,8.33,8.33,0,0,0-8.4.56,5.19,5.19,0,0,0-1.82,3.92l-.51,0a5.8,5.8,0,0,1,.11-2.58,5.07,5.07,0,0,1,1.39-2.3,8.47,8.47,0,0,1,9.94-.67,5.16,5.16,0,0,1,1.69,2.1,6,6,0,0,1,.45,2.55Z"/><path class="cls-10" d="M617.15,156.23a4.81,4.81,0,1,1-4.48,5.11A4.8,4.8,0,0,1,617.15,156.23Z"/><path class="cls-10" d="M612.36,149.3l6-2.36a2.58,2.58,0,1,1,1.87,4.81l-6,2.35a2.58,2.58,0,1,1-1.87-4.8Z"/><path class="cls-1" d="M651.86,158.3c.25,3.8-2.54,6-6.15,6.26s-6.67-1.59-6.92-5.39,2.55-5.84,6.16-6.08S651.61,154.5,651.86,158.3Z"/><path class="cls-10" d="M638.54,159.19a5.84,5.84,0,0,1,.1-2.59,5.09,5.09,0,0,1,1.4-2.3,7.7,7.7,0,0,1,4.86-1.94,7.8,7.8,0,0,1,5.08,1.28,5.13,5.13,0,0,1,1.68,2.1,5.81,5.81,0,0,1,.45,2.55l-.5,0a5.21,5.21,0,0,0-2.34-3.65,7.29,7.29,0,0,0-4.27-.85,7.39,7.39,0,0,0-4.13,1.42,5.23,5.23,0,0,0-1.83,3.92Z"/><path class="cls-10" d="M643.06,154.5a4.81,4.81,0,1,0,5.12,4.47A4.8,4.8,0,0,0,643.06,154.5Z"/><path class="cls-10" d="M650.47,146.75l-6.31-1.52a2.57,2.57,0,1,0-1.22,5l6.31,1.53a2.58,2.58,0,0,0,1.22-5Z"/><path class="cls-16" d="M629.45,176.07l7.62-.5a2.27,2.27,0,0,0,2.12-2.42h0a2.28,2.28,0,0,0-2.42-2.13l-7.62.5A2.27,2.27,0,0,0,627,174h0A2.27,2.27,0,0,0,629.45,176.07Z"/><path class="cls-14" d="M633.3,176.61h0a3.39,3.39,0,0,0,3.16-3.6l-.85-12.9A3.39,3.39,0,0,0,632,157h0a3.38,3.38,0,0,0-3.16,3.6l.84,12.9A3.39,3.39,0,0,0,633.3,176.61Z"/><polygon class="cls-14" points="608.91 136.79 659 133.5 659.58 142.42 608.98 137.89 608.91 136.79"/><path class="cls-10" d="M627.91,182.7a57.42,57.42,0,0,0,11.26-3.19c2.62-1.08,5,2.22,3.68,5.14-1.41,3.11-4,6.06-8.55,6.58-3.77.43-6.2-.51-7.78-1.86C624.3,187.44,625.2,183.2,627.91,182.7Z"/><path class="cls-17" d="M634.3,191.23c4.59-.52,7.14-3.47,8.55-6.58a4.24,4.24,0,0,0,.35-1.32,10.57,10.57,0,0,0-6.75-.23c-4.49,1.1-6.62,4.34-7.6,7.6v0A11.54,11.54,0,0,0,634.3,191.23Z"/><path class="cls-18" d="M632,187.53c.47.76,2.21.59,3.88-.38s2.65-2.39,2.17-3.16-2.21-.59-3.88.38S631.53,186.76,632,187.53Z"/><path class="cls-1" d="M627.91,182.7a57.42,57.42,0,0,0,11.26-3.19,2.88,2.88,0,0,1,3.75,1.87,21.25,21.25,0,0,1-10.06,4.83,23.87,23.87,0,0,1-7.59.38C625.21,184.81,626.2,183,627.91,182.7Z"/><path class="cls-13" d="M535.27,308.61l.26,2.82a14.37,14.37,0,0,1-13,15.66h0a14.38,14.38,0,0,1-15.66-13l-.26-2.83a14.38,14.38,0,0,1,13-15.66h0A14.39,14.39,0,0,1,535.27,308.61Z"/><path class="cls-6" d="M493.84,343.3l-19.46-25.58a12.32,12.32,0,0,1,2.34-17.23l10.67-8.11a12.31,12.31,0,0,1,17.23,2.34l19.46,25.59a12.31,12.31,0,0,1-2.35,17.23l-10.67,8.11A12.3,12.3,0,0,1,493.84,343.3Zm7.21-45.86A7.81,7.81,0,0,0,490.11,296l-10.67,8.11A7.81,7.81,0,0,0,478,315l19.46,25.59a7.82,7.82,0,0,0,10.94,1.49L519,334a7.83,7.83,0,0,0,1.49-11Z"/><rect class="cls-10" x="492.61" y="303.75" width="40.32" height="9.98" rx="1.93" transform="translate(448.15 -286.31) rotate(52.75)"/><path class="cls-13" d="M515.74,316.61l-5.14-22.53s18.88-3.56,20.69,4.36c2,8.7-10.46,8.05-10.46,8.05S522.91,313.64,515.74,316.61Z"/><path class="cls-14" d="M531.29,298.44a6.47,6.47,0,0,1,0,3.92,5.9,5.9,0,0,1-2.67,3,13,13,0,0,1-3.8,1.42,20,20,0,0,1-4,.47h0l.8-1a10.45,10.45,0,0,1,.28,3.37,9,9,0,0,1-.87,3.27,8.08,8.08,0,0,1-2.09,2.69,9.33,9.33,0,0,1-1.37,1c-.48.29-1,.5-1.49.76h0l-.83.43-.26-1c-1-3.73-1.68-7.52-2.38-11.31s-1.37-7.59-2-11.4q1.66,5.55,3.16,11.13c1,3.72,2,7.45,2.76,11.23l-1.08-.56h0c.43-.22.88-.4,1.28-.65a8,8,0,0,0,1.15-.82,6.33,6.33,0,0,0,1.69-2.19,7.31,7.31,0,0,0,.72-2.7,9,9,0,0,0-.22-2.8l-.26-1.06,1.07,0h0a18.93,18.93,0,0,0,3.76-.06,11.78,11.78,0,0,0,3.63-.94,5.29,5.29,0,0,0,2.67-2.48A6.2,6.2,0,0,0,531.29,298.44Z"/><path class="cls-13" d="M519.35,322.7h0a3.76,3.76,0,0,1-3,4.36l-15.14,2.11a3.76,3.76,0,0,1-4.36-3h0a3.77,3.77,0,0,1,3-4.37L515,319.69A3.77,3.77,0,0,1,519.35,322.7Z"/><path class="cls-14" d="M505.46,321c2.6-.63,5.21-1.18,7.84-1.63.67-.12,1.26-.23,2-.34a4.34,4.34,0,0,1,2.65,8,5.08,5.08,0,0,1-1.07.46,6.67,6.67,0,0,1-1.06.16l-2,.22c-2.65.27-5.32.47-8,.59q3.9-.91,7.83-1.61l2-.34a5.7,5.7,0,0,0,.9-.18,3.45,3.45,0,0,0,.75-.36,3.17,3.17,0,0,0,1.44-2.81,3.1,3.1,0,0,0-1.73-2.63,3.06,3.06,0,0,0-1.6-.36l-1.95.21C510.81,320.72,508.14,320.92,505.46,321Z"/><path class="cls-13" d="M517.28,315.49h0a3.74,3.74,0,0,1-3,4.36L499.14,322a3.75,3.75,0,0,1-4.36-3h0a3.76,3.76,0,0,1,3-4.37l15.14-2.11A3.75,3.75,0,0,1,517.28,315.49Z"/><path class="cls-14" d="M503.4,313.81c2.6-.63,5.21-1.18,7.83-1.63.68-.12,1.27-.23,2-.34a4.34,4.34,0,0,1,4.75,4.1,4.37,4.37,0,0,1-2.1,3.94,4.61,4.61,0,0,1-1.07.46,8.23,8.23,0,0,1-1.06.17l-2,.21c-2.66.28-5.32.48-8,.59,2.61-.61,5.22-1.15,7.84-1.6l2-.35a5.7,5.7,0,0,0,.9-.18,3,3,0,0,0,.75-.36,3.16,3.16,0,0,0,1.43-2.81,3.09,3.09,0,0,0-1.72-2.63,3.31,3.31,0,0,0-1.61-.36l-1.94.21C508.74,313.52,506.08,313.71,503.4,313.81Z"/><path class="cls-13" d="M514.87,308.25h0a3.75,3.75,0,0,1-3,4.36l-15.14,2.11a3.74,3.74,0,0,1-4.36-3h0a3.75,3.75,0,0,1,3-4.36l15.14-2.11A3.75,3.75,0,0,1,514.87,308.25Z"/><path class="cls-14" d="M501,306.57q3.9-.94,7.83-1.63l2-.34a4.45,4.45,0,0,1,2.27.39,4.34,4.34,0,0,1,.38,7.65,4.22,4.22,0,0,1-1.07.46,8.23,8.23,0,0,1-1.06.17l-2,.21c-2.65.28-5.32.48-8,.6q3.9-.93,7.83-1.61l2-.34c.33-.06.67-.11.9-.18a3.49,3.49,0,0,0,.75-.37,3.16,3.16,0,0,0,1.43-2.81,3.1,3.1,0,0,0-1.72-2.63,3.17,3.17,0,0,0-1.61-.35L509,306Q505,306.42,501,306.57Z"/><path class="cls-13" d="M516.47,300.63h0a3.75,3.75,0,0,1-3,4.36l-15.14,2.11a3.75,3.75,0,0,1-4.36-3h0a3.74,3.74,0,0,1,3-4.36l15.14-2.11A3.76,3.76,0,0,1,516.47,300.63Z"/><path class="cls-14" d="M502.59,299c2.6-.63,5.21-1.18,7.83-1.63.68-.12,1.26-.23,2-.34a4.34,4.34,0,0,1,4.75,4.1,4.37,4.37,0,0,1-2.1,3.94,4.58,4.58,0,0,1-1.07.45,5.78,5.78,0,0,1-1.06.17l-2,.21c-2.66.28-5.32.48-8,.6,2.61-.62,5.22-1.15,7.84-1.61l2-.34a5.7,5.7,0,0,0,.9-.18,3.45,3.45,0,0,0,.75-.36,3.16,3.16,0,0,0,1.43-2.81,3.21,3.21,0,0,0-3.33-3l-1.94.21Q506.6,298.79,502.59,299Z"/><rect class="cls-6" x="406.37" y="301.99" width="131.02" height="76.1" transform="translate(456.93 -241.4) rotate(52.75)"/><rect class="cls-10" x="407.52" y="337.71" width="131.02" height="2.9" transform="translate(456.68 -242.66) rotate(52.75)"/><rect class="cls-19" x="444.27" y="299.55" width="11.24" height="18.37" transform="translate(423.33 -236.26) rotate(52.75)"/><rect class="cls-20" x="447.93" y="301.37" width="11.24" height="9.18" transform="translate(422.57 -240.26) rotate(52.75)"/><rect class="cls-19" x="490.24" y="359.78" width="11.24" height="18.37" transform="translate(489.42 -249.08) rotate(52.75)"/><rect class="cls-20" x="493.89" y="361.59" width="11.24" height="9.18" transform="matrix(0.61, 0.8, -0.8, 0.61, 488.64, -253.08)"/><path class="cls-21" d="M679.53,220.82c68.51-7.14,65.3-70.68,27.29-121.42"/><path class="cls-13" d="M722.11,84.31a4.64,4.64,0,0,1,3.8,4c1.14,9.39.24,18.47-8.56,19.91-9.88,1.62-16.27,2.78-20.24-2s-9-13.53-11.77-15.72c0,0,4.22-4.4,11.57,2.78l-3.35-27.14c-.49-2.38.68-4.62,3.07-5.07h0c2.36-.45,3.3,1.13,3.76,3.49l3.06,16.53Z"/><path class="cls-14" d="M724.45,90.44a28.52,28.52,0,0,1-1.34,4.46,7.67,7.67,0,0,1-2.69,3.44,7.32,7.32,0,0,1-4.16,1.15c-1.59,0-3.16,0-4.7-.12a9.84,9.84,0,0,1-4.29-1.05,5.24,5.24,0,0,1-2.33-3.41,13.37,13.37,0,0,1-.38-2.22c0-.77-.06-1.54,0-2.31s0-1.55,0-2.34a17.41,17.41,0,0,0,0-2.39,20.92,20.92,0,0,0-.66,2.31,23.5,23.5,0,0,0-.34,2.38c0,.8,0,1.61,0,2.42a13.88,13.88,0,0,0,.34,2.45l.15.61c.06.2.15.39.23.59a4.67,4.67,0,0,0,.6,1.15l.37.54a5.21,5.21,0,0,0,.47.47,5.12,5.12,0,0,0,.49.44l.56.35a11,11,0,0,0,4.82,1.16c1.61.08,3.19.06,4.76.08a8.26,8.26,0,0,0,4.8-1.37,8,8,0,0,0,2.9-4A9.42,9.42,0,0,0,724.45,90.44Z"/><polygon class="cls-14" points="714.7 100.13 717.6 83.53 719.39 83.84 716.07 100.06 714.7 100.13"/><polygon class="cls-14" points="709.92 99.78 708.36 99.28 709.91 82.2 711.77 82.52 709.92 99.78"/><path class="cls-1" d="M666.37,224.8h0a11.77,11.77,0,0,1,8.48-14.32l20.69-5.3,5.84,22.8-20.69,5.3A11.76,11.76,0,0,1,666.37,224.8Z"/><line class="cls-22" x1="214.69" y1="142.4" x2="214.69" y2="13.55"/><circle class="cls-23" cx="212.94" cy="188.42" r="74.03" transform="translate(-70.86 205.76) rotate(-45)"/><path class="cls-23" d="M212.94,188.42h74A73.68,73.68,0,0,0,273.63,146Z"/><circle class="cls-1" cx="212.94" cy="188.42" r="58.08"/><path class="cls-2" d="M212.94,188.42H271a57.8,57.8,0,0,0-10.46-33.25Z"/><circle class="cls-23" cx="212.94" cy="188.42" r="42.13" transform="translate(-70.86 205.76) rotate(-45)"/><path class="cls-23" d="M212.94,188.42h42.13a42,42,0,0,0-7.59-24.12Z"/><circle class="cls-1" cx="212.94" cy="188.42" r="26.17"/><path class="cls-2" d="M212.94,188.42h26.18a26,26,0,0,0-4.73-15Z"/><circle class="cls-23" cx="212.94" cy="188.42" r="10.22" transform="translate(-65.53 245.85) rotate(-53.16)"/><path class="cls-23" d="M212.94,188.42h10.22a10.16,10.16,0,0,0-1.84-5.85Z"/><path class="cls-24" d="M212.94,188.42a192.81,192.81,0,0,1,22.62-22.9c8-7,16.31-13.54,24.9-19.71s17.39-12,26.49-17.49a218,218,0,0,1,28.56-14.63l1,1.39a219.34,219.34,0,0,1-23,22.39q-12.12,10.32-25,19.52c-8.59,6.17-17.43,12-26.63,17.31A193.16,193.16,0,0,1,212.94,188.42Z"/><path class="cls-25" d="M314.58,114.75l-31.16,16.58L280.6,125l15.84-23.47a7.76,7.76,0,0,1,12.17,2Z"/><path class="cls-25" d="M315.11,115.37,289,139.14l5,4.78,27.44-7a7.77,7.77,0,0,0,2.19-12.15Z"/><path class="cls-19" d="M237.44,163.91c-.63.54-1.26,1.06-1.88,1.61a192.81,192.81,0,0,0-22.62,22.9,193.16,193.16,0,0,0,28.92-14.12l1.72-1Z"/><path class="cls-1" d="M242.56,163.91l53.54-36.49S266.44,141.69,242.56,163.91Z"/></g></g></svg>