<svg xmlns="http://www.w3.org/2000/svg" viewBox="0 0 599.13 465.7"><defs><style>.cls-1{fill:#fff;}.cls-2{fill:#2b2d31;}.cls-3,.cls-4,.cls-5{fill:#496177;}.cls-4{opacity:0.52;}.cls-5{opacity:0.82;}.cls-10,.cls-13,.cls-18,.cls-6{fill:none;stroke-miterlimit:10;}.cls-10,.cls-6{stroke:#2b2d31;}.cls-7{fill:#af5656;}.cls-8{fill:#ffc364;}.cls-9{fill:#932569;opacity:0.1;}.cls-10{stroke-width:2px;}.cls-11{fill:#ffba91;}.cls-12{fill:#854636;}.cls-13,.cls-18{stroke:#4d0e19;stroke-linecap:round;}.cls-13{stroke-width:1.23px;}.cls-14{fill:#eda27c;}.cls-15{fill:#d89279;}.cls-16{fill:#4d0e19;}.cls-17{fill:#ffc9ae;}.cls-18{stroke-width:0.62px;}.cls-19{fill:#3b4f5e;}</style></defs><g id="Capa_2" data-name="Capa 2"><g id="Capa_1-2" data-name="Capa 1"><rect class="cls-1" width="599.13" height="465.7"/><rect class="cls-2" width="599.13" height="465.7"/><rect class="cls-3" width="599.13" height="58.21"/><path class="cls-4" d="M261.42,143.88h2.18a81,81,0,0,1,81,81v87.75a0,0,0,0,1,0,0H180.41a0,0,0,0,1,0,0V224.89A81,81,0,0,1,261.42,143.88Z"/><rect class="cls-5" x="301.77" y="170.62" width="121.04" height="50.54" rx="14.37"/><path class="cls-6" d="M320.63,185.62l1.82,3.7a1,1,0,0,0,.71.52l4.08.59a.94.94,0,0,1,.52,1.6l-2.95,2.88a.89.89,0,0,0-.27.83l.69,4.06a.93.93,0,0,1-1.36,1l-3.65-1.91a.9.9,0,0,0-.87,0l-3.65,1.91a.94.94,0,0,1-1.37-1l.7-4.06a1,1,0,0,0-.27-.83L311.81,192a.94.94,0,0,1,.52-1.6l4.08-.59a1,1,0,0,0,.71-.52l1.82-3.7A1,1,0,0,1,320.63,185.62Z"/><path class="cls-7" d="M320.34,188.35l1.22,2.46a.61.61,0,0,0,.47.34l2.72.4a.63.63,0,0,1,.35,1.07l-2,1.92a.62.62,0,0,0-.18.55l.47,2.71a.63.63,0,0,1-.91.66l-2.44-1.28a.66.66,0,0,0-.58,0l-2.43,1.28a.63.63,0,0,1-.91-.66l.46-2.71a.6.6,0,0,0-.18-.55l-2-1.92a.63.63,0,0,1,.35-1.07l2.72-.4a.6.6,0,0,0,.47-.34l1.22-2.46A.62.62,0,0,1,320.34,188.35Z"/><path class="cls-6" d="M341.57,185.62l1.83,3.7a1,1,0,0,0,.71.52l4.08.59a.94.94,0,0,1,.52,1.6l-3,2.88a1,1,0,0,0-.27.83l.7,4.06a.93.93,0,0,1-1.36,1l-3.65-1.91a.92.92,0,0,0-.88,0l-3.65,1.91a.94.94,0,0,1-1.36-1l.7-4.06a1,1,0,0,0-.27-.83L332.76,192a.94.94,0,0,1,.52-1.6l4.08-.59a.94.94,0,0,0,.7-.52l1.83-3.7A.94.94,0,0,1,341.57,185.62Z"/><path class="cls-3" d="M341.29,188.35l1.22,2.46a.61.61,0,0,0,.47.34l2.72.4a.63.63,0,0,1,.35,1.07l-2,1.92a.62.62,0,0,0-.18.55l.47,2.71a.63.63,0,0,1-.91.66L341,197.18a.66.66,0,0,0-.58,0L338,198.46a.63.63,0,0,1-.91-.66l.46-2.71a.6.6,0,0,0-.18-.55l-2-1.92a.63.63,0,0,1,.35-1.07l2.72-.4a.61.61,0,0,0,.47-.34l1.22-2.46A.62.62,0,0,1,341.29,188.35Z"/><path class="cls-6" d="M362.52,185.62l1.83,3.7a.94.94,0,0,0,.7.52l4.08.59a.94.94,0,0,1,.52,1.6l-2.95,2.88a1,1,0,0,0-.27.83l.7,4.06a.93.93,0,0,1-1.36,1l-3.65-1.91a.92.92,0,0,0-.88,0l-3.65,1.91a.93.93,0,0,1-1.36-1l.7-4.06a1,1,0,0,0-.27-.83l-3-2.88a.94.94,0,0,1,.52-1.6l4.08-.59a.94.94,0,0,0,.71-.52l1.83-3.7A.94.94,0,0,1,362.52,185.62Z"/><path class="cls-8" d="M362.24,188.35l1.22,2.46a.61.61,0,0,0,.47.34l2.72.4a.63.63,0,0,1,.35,1.07l-2,1.92a.6.6,0,0,0-.18.55l.46,2.71a.63.63,0,0,1-.91.66L362,197.18a.66.66,0,0,0-.58,0L359,198.46a.63.63,0,0,1-.91-.66l.47-2.71a.62.62,0,0,0-.18-.55l-2-1.92a.63.63,0,0,1,.35-1.07l2.72-.4a.61.61,0,0,0,.47-.34l1.22-2.46A.62.62,0,0,1,362.24,188.35Z"/><path class="cls-6" d="M383.47,185.62l1.82,3.7a1,1,0,0,0,.71.52l4.08.59a.94.94,0,0,1,.52,1.6l-3,2.88a1,1,0,0,0-.27.83l.7,4.06a.94.94,0,0,1-1.37,1l-3.65-1.91a.9.9,0,0,0-.87,0l-3.65,1.91a.93.93,0,0,1-1.36-1l.69-4.06a.89.89,0,0,0-.27-.83l-3-2.88a.94.94,0,0,1,.52-1.6l4.08-.59a1,1,0,0,0,.71-.52l1.83-3.7A.94.94,0,0,1,383.47,185.62Z"/><path class="cls-9" d="M383.19,188.35l1.22,2.46a.6.6,0,0,0,.47.34l2.72.4a.63.63,0,0,1,.35,1.07l-2,1.92a.6.6,0,0,0-.18.55l.46,2.71a.63.63,0,0,1-.91.66l-2.43-1.28a.66.66,0,0,0-.58,0l-2.44,1.28a.63.63,0,0,1-.91-.66l.47-2.71a.62.62,0,0,0-.18-.55l-2-1.92a.63.63,0,0,1,.35-1.07l2.72-.4a.61.61,0,0,0,.47-.34l1.22-2.46A.62.62,0,0,1,383.19,188.35Z"/><path class="cls-6" d="M404.42,185.62l1.82,3.7a1,1,0,0,0,.71.52l4.08.59a.94.94,0,0,1,.52,1.6l-2.95,2.88a1,1,0,0,0-.27.83l.7,4.06a.94.94,0,0,1-1.37,1L404,198.88a.9.9,0,0,0-.87,0l-3.65,1.91a.93.93,0,0,1-1.36-1l.69-4.06a.92.92,0,0,0-.27-.83L395.6,192a.94.94,0,0,1,.52-1.6l4.08-.59a1,1,0,0,0,.71-.52l1.82-3.7A1,1,0,0,1,404.42,185.62Z"/><path class="cls-9" d="M404.14,188.35l1.21,2.46a.63.63,0,0,0,.48.34l2.72.4a.62.62,0,0,1,.34,1.07l-2,1.92a.6.6,0,0,0-.18.55l.46,2.71a.63.63,0,0,1-.91.66l-2.43-1.28a.68.68,0,0,0-.59,0l-2.43,1.28a.63.63,0,0,1-.91-.66l.47-2.71a.65.65,0,0,0-.18-.55l-2-1.92a.63.63,0,0,1,.34-1.07l2.73-.4a.61.61,0,0,0,.47-.34l1.21-2.46A.63.63,0,0,1,404.14,188.35Z"/><line class="cls-10" x1="314.27" y1="180.93" x2="356.17" y2="180.93"/><line class="cls-10" x1="314.27" y1="206" x2="410.2" y2="206"/><line class="cls-10" x1="314.27" y1="211.63" x2="410.2" y2="211.63"/><path class="cls-11" d="M362.2,228.76s5.79-6.09,6.09-9.75,4.58-3.66,4.58,1.52-.31,3.2-.31,3.2,8.84-7,11.28-6.25S379,224.8,379,224.8s7.63-4.88,9.76-4.12-6,7.17-6,7.17,8.69-4,10.22-2.9-6.71,6.1-6.71,6.1,6.25-2.59,7.32-1.37-13.08,9.82-16,9.45Z"/><path class="cls-3" d="M310.79,239l27,21.44,24.69-34.6,20.15,13-32.56,45.85a12,12,0,0,1-15.5,3.61l-20.66-11.19Z"/><path class="cls-12" d="M255.51,194.31s-12.26-3.26-9.41-10.32,10.78-6,10.78-6,2.38-11,14-14.11,15.78.44,15.78.44,15.81-6.29,22.39,5,.87,18.43.87,18.43,5.41,2.17,3.88,9.9-24.42-12.83-44.31-10.05L266.14,195l-7,1.29Z"/><path class="cls-13" d="M297.7,198.49s-5.62-15.41-14.14-17.22"/><path class="cls-3" d="M257.84,225.91,244.08,230a32.63,32.63,0,0,0-23.16,27.2L214,312H317.86l7.24-49.36a39.07,39.07,0,0,0-26.5-30.77l-14.83-4.8Z"/><path class="cls-11" d="M274.69,291.74s10.05-2.36,20.44,5.14c3.1,2.23,5.6,4,7.58,5.31a2.25,2.25,0,0,1-1.27,4.11H286.67v6.39h-7Z"/><path class="cls-3" d="M250.22,253l-2.95,31.13L261,286.6s-21.38,1-21.38-1Z"/><path class="cls-11" d="M260,208.62l-3.21,20.94,4.23,2.93a17.57,17.57,0,0,0,19.11.6l1.41-.85-5.45-25.53Z"/><path class="cls-14" d="M280.48,227.15c-7,0-22-7.45-21-18.83l18.29,4.23Z"/><path class="cls-11" d="M298.33,205.71c0,12.12-7.12,18.67-17.67,18.67s-20.54-6.55-20.54-18.67,8.55-28.77,19.11-28.77C297.26,176.94,298.33,193.59,298.33,205.71Z"/><path class="cls-15" d="M294.35,203.32a1.76,1.76,0,0,0-.81,2.32c.44.72,1,.21,1.95-.35s1.75-1,1.31-1.69A1.78,1.78,0,0,0,294.35,203.32Z"/><path class="cls-12" d="M261.16,198.79s3,7.66,8.59,8.4c6.07.81,4.44-1.83,14.19-2.7s10.5,2.75,12.43,2.95c1,.09,1.48-1,1.75-2.05a.2.2,0,0,1,.4,0c0,5.66-1.56,21.75-18.28,20.82C259.49,225.09,256.53,207.71,261.16,198.79Z"/><path class="cls-16" d="M285,198.73s-3.2,6.48-1.39,8.73,2.25-.43,2.25-.43Z"/><path class="cls-17" d="M286.6,203.32c0,2.83.41,5.12-.77,5.12s-1.45-2.46-1.45-5.29.27-5,1.45-5S286.6,200.49,286.6,203.32Z"/><path class="cls-11" d="M289,210.78c0,1.94-2.57,4.5-5.74,4.5s-5.74-2.56-5.74-4.5,2.77-1.27,5.94-1.27S289,208.84,289,210.78Z"/><path class="cls-16" d="M285.2,211.18a4.72,4.72,0,0,1-3.48-.57.42.42,0,0,0-.6.21c-.38,1-1,3.34.91,3.65,2.23.36,1.53-.85,3.39-2.91A.23.23,0,0,0,285.2,211.18Z"/><path class="cls-11" d="M254.09,196.36a5.18,5.18,0,1,0,6.67-3A5.19,5.19,0,0,0,254.09,196.36Z"/><path class="cls-18" d="M256.88,196.39s2.87-.09,4.6,3.31"/><path class="cls-18" d="M257.33,198.72a3.43,3.43,0,0,1,2.35-1.14"/><path class="cls-18" d="M263.78,200a3.6,3.6,0,0,1-1.27,2.06"/><path class="cls-12" d="M298.21,197.76c-.21,1.79-2.37.61-5.16.28s-5.17.31-4.95-1.48,2.64-3,5.44-2.64S298.42,196,298.21,197.76Z"/><path class="cls-12" d="M283.54,196.47c-.21,1.79-2.37.61-5.16.28s-5.17.31-4.95-1.48,2.64-3,5.44-2.64S283.75,194.68,283.54,196.47Z"/><path class="cls-15" d="M275.47,203.32a1.78,1.78,0,0,1,.82,2.32c-.45.72-1.06.21-2-.35s-1.75-1-1.3-1.69A1.77,1.77,0,0,1,275.47,203.32Z"/><path class="cls-14" d="M270.19,181.11s2.91,8.54,10.53,10,16.27,0,16.27,0,.71-8.61-6.36-9.21S270.19,181.11,270.19,181.11Z"/><path class="cls-3" d="M231.5,311.94l-23.75.08a9.25,9.25,0,0,1-8.36-13.22l23.69-49.92a19.94,19.94,0,0,1,22.07-11h0c4.42.91,8.1,4.32,6.54,8.55Z"/><line class="cls-6" x1="250.73" y1="250.66" x2="239.11" y2="286.89"/><polygon class="cls-3" points="234.22 286.91 269.22 287.11 268.2 312.69 228.9 312.69 234.22 286.91"/><polyline class="cls-6" points="235.72 286.77 273.31 287.32 279.66 312.29"/><path class="cls-16" d="M277.79,200.13c0,1.07.43,1.94.95,1.94s1-.87,1-1.94-.43-1.94-1-1.94S277.79,199.06,277.79,200.13Z"/><path class="cls-16" d="M291.84,200.66c0,1.08.42,1.94,1,1.94s.95-.86.95-1.94-.43-1.94-.95-1.94S291.84,199.59,291.84,200.66Z"/><ellipse class="cls-18" cx="274.84" cy="200.91" rx="8.38" ry="7.91"/><ellipse class="cls-18" cx="296.46" cy="200.91" rx="8.38" ry="7.91"/><path class="cls-18" d="M283.22,200.91s1.58-1.63,4.86,0"/><path class="cls-12" d="M268.11,177.81s5.9,11.19,13.41,11.4c4.42.13,6.61-.45,7.67-1a2.63,2.63,0,0,1,2.21,0c2.65,1.19,8.44,3.18,7.42-2.6C297.5,178.17,283.25,169,268.11,177.81Z"/><line class="cls-6" x1="321.4" y1="285.68" x2="324.34" y2="264.67"/><path class="cls-6" d="M337.45,260.83s-4.09,2.15-3.83,8.34"/><polygon class="cls-19" points="416.68 262.62 353.77 262.62 324.75 312.69 387.66 312.69 416.68 262.62"/><polygon class="cls-19" points="346.37 312.69 286.67 312.69 286.67 306.3 348.25 306.3 346.37 312.69"/><polygon class="cls-3" points="427.46 262.62 364.55 262.62 335.53 312.69 398.44 312.69 427.46 262.62"/><path class="cls-19" d="M387.6,270.78c-1.26,2.18-1,4.68.53,5.58s3.83-.15,5.09-2.34,1-4.68-.52-5.58S388.86,268.59,387.6,270.78Z"/><path class="cls-4" d="M389.25,270.78c-.8,1.38-.65,3,.33,3.52s2.42-.09,3.22-1.47.65-3-.33-3.53S390.05,269.4,389.25,270.78Z"/><line class="cls-3" x1="414.49" y1="312.69" x2="171.67" y2="312.69"/><line class="cls-6" x1="364.55" y1="262.62" x2="345.39" y2="295.69"/><path class="cls-3" d="M249.49,161.55h-21A11.51,11.51,0,0,0,217,173.07v1.83a11.51,11.51,0,0,0,11.51,11.51h15l2.6,2.62a1.55,1.55,0,0,0,2.66-1.09v-1.53h.77A11.51,11.51,0,0,0,261,174.9v-1.83A11.51,11.51,0,0,0,249.49,161.55Z"/><line class="cls-10" x1="226.47" y1="171.6" x2="250.73" y2="171.6"/><line class="cls-10" x1="243.57" y1="176.94" x2="250.73" y2="176.94"/><rect class="cls-3" x="175.95" y="315.73" width="234.86" height="42.09" rx="21.04"/><path class="cls-6" d="M254.23,329.89h-4.56V344h-1.85V329.89h-4.55v-1.67h11Z"/><path class="cls-6" d="M263.2,338.82h-8a4.2,4.2,0,0,0,1,2.91,3.48,3.48,0,0,0,2.66,1,5.56,5.56,0,0,0,3.5-1.25v1.69a6.53,6.53,0,0,1-3.93,1.08,4.74,4.74,0,0,1-3.75-1.54,6.27,6.27,0,0,1-1.37-4.32,6.16,6.16,0,0,1,1.49-4.28,4.78,4.78,0,0,1,3.71-1.66A4.25,4.25,0,0,1,262,333.9a5.94,5.94,0,0,1,1.21,4Zm-1.85-1.53a3.66,3.66,0,0,0-.75-2.43,2.57,2.57,0,0,0-2.07-.87,2.89,2.89,0,0,0-2.16.91,4.14,4.14,0,0,0-1.11,2.39Z"/><path class="cls-6" d="M265.25,343.6v-1.94a5.32,5.32,0,0,0,3.25,1.09c1.58,0,2.38-.53,2.38-1.58a1.36,1.36,0,0,0-.21-.77,1.92,1.92,0,0,0-.55-.55,3.87,3.87,0,0,0-.81-.44l-1-.4a14.08,14.08,0,0,1-1.32-.6,4.06,4.06,0,0,1-.94-.68,2.6,2.6,0,0,1-.58-.87,3.22,3.22,0,0,1-.19-1.13,2.65,2.65,0,0,1,.37-1.41,3.22,3.22,0,0,1,1-1,4.5,4.5,0,0,1,1.39-.62,6.05,6.05,0,0,1,1.6-.21,6.62,6.62,0,0,1,2.62.5v1.83a5.14,5.14,0,0,0-2.86-.81,3.68,3.68,0,0,0-.92.11,2.39,2.39,0,0,0-.7.33,1.53,1.53,0,0,0-.45.5,1.27,1.27,0,0,0-.16.64,1.5,1.5,0,0,0,.16.74,1.67,1.67,0,0,0,.47.53,3.71,3.71,0,0,0,.75.42l1,.41a13.42,13.42,0,0,1,1.34.58,4.66,4.66,0,0,1,1,.69,2.73,2.73,0,0,1,.64.87,3.17,3.17,0,0,1-.14,2.63,3.24,3.24,0,0,1-1,1,4.44,4.44,0,0,1-1.42.6,7.09,7.09,0,0,1-1.68.2A6.38,6.38,0,0,1,265.25,343.6Z"/><path class="cls-6" d="M280.73,343.9a3.55,3.55,0,0,1-1.68.35q-3,0-3-3.3v-6.68h-1.93v-1.54h1.93V330l1.81-.58v3.33h2.84v1.54h-2.84v6.36a2.66,2.66,0,0,0,.38,1.61,1.53,1.53,0,0,0,1.28.49,1.89,1.89,0,0,0,1.18-.38Z"/><path class="cls-6" d="M300.88,344h-2.2L296,339.58a9.09,9.09,0,0,0-.7-1.05,3.93,3.93,0,0,0-.7-.71,2.47,2.47,0,0,0-.77-.4,3,3,0,0,0-.93-.13h-1.52V344h-1.85V328.22h4.71a6.78,6.78,0,0,1,1.91.26,4.16,4.16,0,0,1,1.52.79,3.63,3.63,0,0,1,1,1.31,4.82,4.82,0,0,1,.11,3.36,3.93,3.93,0,0,1-.7,1.23,4.49,4.49,0,0,1-1.1.92,5.71,5.71,0,0,1-1.45.58v.05a3.48,3.48,0,0,1,.69.4,3.91,3.91,0,0,1,.55.53,6.74,6.74,0,0,1,.53.7l.58.91Zm-9.47-14.12v5.73h2.51a3.78,3.78,0,0,0,1.28-.21,3.06,3.06,0,0,0,1-.6,2.64,2.64,0,0,0,.67-1,3.23,3.23,0,0,0,.24-1.27,2.47,2.47,0,0,0-.82-2,3.51,3.51,0,0,0-2.37-.71Z"/><path class="cls-6" d="M311.24,338.82h-8a4.19,4.19,0,0,0,1,2.91,3.5,3.5,0,0,0,2.66,1,5.61,5.61,0,0,0,3.51-1.25v1.69a6.56,6.56,0,0,1-3.93,1.08,4.75,4.75,0,0,1-3.76-1.54,6.27,6.27,0,0,1-1.36-4.32,6.12,6.12,0,0,1,1.49-4.28,4.76,4.76,0,0,1,3.7-1.66A4.26,4.26,0,0,1,310,333.9a6,6,0,0,1,1.21,4Zm-1.85-1.53a3.66,3.66,0,0,0-.76-2.43,2.55,2.55,0,0,0-2.06-.87,2.92,2.92,0,0,0-2.17.91,4.19,4.19,0,0,0-1.1,2.39Z"/><path class="cls-6" d="M322.83,332.73,318.34,344h-1.77l-4.28-11.28h2l2.86,8.19a7.51,7.51,0,0,1,.39,1.58h.05a7.18,7.18,0,0,1,.35-1.53l3-8.24Z"/><path class="cls-6" d="M325.69,329.87a1.16,1.16,0,0,1-1.17-1.17,1.15,1.15,0,0,1,.35-.84,1.13,1.13,0,0,1,.82-.34,1.18,1.18,0,0,1,.84.34,1.11,1.11,0,0,1,.35.84,1.09,1.09,0,0,1-.35.83A1.14,1.14,0,0,1,325.69,329.87Zm.88,14.14h-1.8V332.73h1.8Z"/><path class="cls-6" d="M339.29,338.82h-8a4.24,4.24,0,0,0,1,2.91,3.52,3.52,0,0,0,2.67,1,5.58,5.58,0,0,0,3.5-1.25v1.69a6.53,6.53,0,0,1-3.93,1.08,4.75,4.75,0,0,1-3.76-1.54,6.27,6.27,0,0,1-1.36-4.32,6.12,6.12,0,0,1,1.49-4.28,4.76,4.76,0,0,1,3.7-1.66,4.26,4.26,0,0,1,3.43,1.43,5.94,5.94,0,0,1,1.21,4Zm-1.85-1.53a3.71,3.71,0,0,0-.75-2.43,2.59,2.59,0,0,0-2.07-.87,2.92,2.92,0,0,0-2.17.91,4.19,4.19,0,0,0-1.1,2.39Z"/><path class="cls-6" d="M356.22,332.73,352.84,344H351l-2.32-8.07a5.21,5.21,0,0,1-.18-1.05h0a5.58,5.58,0,0,1-.23,1l-2.53,8.1h-1.8l-3.41-11.28h1.89l2.33,8.48a4.64,4.64,0,0,1,.16,1h.09a4.61,4.61,0,0,1,.19-1l2.6-8.46h1.65l2.34,8.5a5.79,5.79,0,0,1,.16,1H352a5.14,5.14,0,0,1,.19-1l2.29-8.5Z"/></g></g></svg>