<svg xmlns="http://www.w3.org/2000/svg" viewBox="0 0 205.99 151.13"><defs><style>.cls-1{fill:#fafafa;}.cls-2{fill:#263238;}.cls-3{fill:#e8505b;}.cls-4{fill:#fff;}.cls-5{font-size:9px;font-family:MyriadPro-Regular, Myriad Pro;}.cls-6{letter-spacing:-0.08em;}.cls-7{letter-spacing:-0.01em;}.cls-8{letter-spacing:-0.01em;}.cls-9{letter-spacing:-0.01em;}.cls-10{letter-spacing:0.01em;}.cls-11{letter-spacing:0em;}.cls-12{letter-spacing:0.01em;}.cls-13{opacity:0.3;}.cls-14{fill:#ffbe9d;}.cls-15{fill:#eb996e;}.cls-16{fill:#455a64;}</style></defs><g id="Capa_2" data-name="Capa 2"><g id="Screen"><path class="cls-1" d="M31.11.25H187.82a17.92,17.92,0,0,1,17.92,17.92V150.88a0,0,0,0,1,0,0H13.2a0,0,0,0,1,0,0V18.17A17.92,17.92,0,0,1,31.11.25Z"/><path class="cls-2" d="M178.18,115c0,.07-31.07.13-69.38.13S39.41,115,39.41,115s31.06-.13,69.39-.13S178.18,114.88,178.18,115Z"/><path class="cls-2" d="M165.43,123.59c0,.07-23.74.13-53,.13s-53-.06-53-.13,23.74-.13,53-.13S165.43,123.52,165.43,123.59Z"/><rect class="cls-3" x="13.2" y="0.25" width="192.54" height="58.41"/><path class="cls-2" d="M206,151.13H13V0H206Zm-192.54-.5h192V.5h-192Z"/><path class="cls-2" d="M100,70.14,95.71,83.35H92.43L89.52,74.4l-3,8.95H83.25L78.91,70.14h3.17l3,9.28,3.12-9.28H91l3,9.36,3.08-9.36Z"/><path class="cls-2" d="M109.76,77.56v5.79H107V82.09a3.33,3.33,0,0,1-3.09,1.41c-2.38,0-3.8-1.32-3.8-3.08s1.27-3,4.36-3h2.34c0-1.27-.75-2-2.34-2a4.83,4.83,0,0,0-2.92.94l-1.06-2.06A7.81,7.81,0,0,1,104.87,73C108,73,109.76,74.48,109.76,77.56Zm-3,2.58v-1h-2c-1.38,0-1.81.51-1.81,1.19s.62,1.23,1.66,1.23A2.17,2.17,0,0,0,106.81,80.14Z"/><path class="cls-2" d="M118.72,73v2.72c-.24,0-.43,0-.66,0a2.5,2.5,0,0,0-2.7,2.84v4.79h-2.94V73.2h2.81v1.34A4.09,4.09,0,0,1,118.72,73Z"/><path class="cls-2" d="M130.86,77.54v5.81h-2.94V78c0-1.64-.76-2.4-2.06-2.4s-2.43.87-2.43,2.74v5h-3V73.2h2.81v1.18A4.5,4.5,0,0,1,126.65,73C129.05,73,130.86,74.44,130.86,77.54Z"/><path class="cls-2" d="M133.17,70.14A1.67,1.67,0,0,1,135,68.5a1.65,1.65,0,0,1,1.83,1.58,1.84,1.84,0,0,1-3.66.06Zm.36,3.06h2.94V83.35h-2.94Z"/><path class="cls-2" d="M149.59,77.54v5.81h-2.94V78c0-1.64-.76-2.4-2.06-2.4s-2.44.87-2.44,2.74v5h-2.94V73.2H142v1.18A4.47,4.47,0,0,1,145.38,73C147.78,73,149.59,74.44,149.59,77.54Z"/><path class="cls-2" d="M162.84,73.2v8.45c0,3.78-2,5.51-5.7,5.51a8.4,8.4,0,0,1-5-1.39l1.17-2.12a6.06,6.06,0,0,0,3.59,1.15c2.07,0,3-.94,3-2.77v-.44a4.2,4.2,0,0,1-3.21,1.27,4.91,4.91,0,1,1,0-9.82,4.09,4.09,0,0,1,3.36,1.46V73.2ZM159.94,78a2.68,2.68,0,1,0-2.67,2.49A2.47,2.47,0,0,0,159.94,78Z"/><path class="cls-2" d="M165.15,81.78a1.82,1.82,0,0,1,3.62,0,1.81,1.81,0,0,1-3.62,0Zm0-11.64h3.51l-.58,8.62h-2.34Z"/><path class="cls-4" d="M97.21,46.91a5,5,0,0,1-4.36-7.53l14.4-25.12a5,5,0,0,1,4.35-2.53h0a5,5,0,0,1,4.35,2.5l14.55,25a5,5,0,0,1-4.33,7.55l-29,.09Zm14.4-33.67h0a3.49,3.49,0,0,0-3,1.77L94.15,40.13a3.52,3.52,0,0,0,3.06,5.28h0l29-.09a3.53,3.53,0,0,0,3-5.3L114.66,15A3.49,3.49,0,0,0,111.61,13.24Z"/><path class="cls-4" d="M109.61,38.78a1.85,1.85,0,0,1,1.93-1.86,1.82,1.82,0,0,1,1.9,1.83,1.85,1.85,0,0,1-1.88,1.89A1.88,1.88,0,0,1,109.61,38.78Zm.06-15.09,3.55,0L112.7,34.9h-2.38Z"/><path class="cls-4" d="M93.52,52.58a2.24,2.24,0,0,1-.65-.22,10.05,10.05,0,0,1-1.65-.91,10.95,10.95,0,0,1-4.73-10.82A10.64,10.64,0,0,1,87,38.8a2.93,2.93,0,0,1,.27-.63,24.27,24.27,0,0,0-.55,2.48A11.21,11.21,0,0,0,91.32,51.3,19.06,19.06,0,0,0,93.52,52.58Z"/><path class="cls-4" d="M87.34,52s-.13-.07-.34-.25a8,8,0,0,1-.8-.82,10.79,10.79,0,0,1-2.61-7,8.37,8.37,0,0,1,.06-1.14,1.19,1.19,0,0,1,.09-.41s0,.59,0,1.55a12.16,12.16,0,0,0,2.57,6.84C86.93,51.53,87.37,51.93,87.34,52Z"/><path class="cls-4" d="M137.87,34.54a2.7,2.7,0,0,1,.19.55c.05.18.11.4.16.66a8.2,8.2,0,0,1,.15.89,13.09,13.09,0,0,1,.1,2.34,14.56,14.56,0,0,1-.46,2.84,15.27,15.27,0,0,1-1,2.68,13,13,0,0,1-1.27,2c-.19.27-.4.49-.57.69s-.34.36-.48.49a2.66,2.66,0,0,1-.44.38s.57-.6,1.35-1.67a14.19,14.19,0,0,0,1.19-2,14.81,14.81,0,0,0,1-2.64,15.64,15.64,0,0,0,.47-2.79,14.22,14.22,0,0,0,0-2.3C138.06,35.35,137.82,34.56,137.87,34.54Z"/><path class="cls-4" d="M141.14,40.05a4.41,4.41,0,0,1,.07,1.31,13.49,13.49,0,0,1-.48,3.15,13.83,13.83,0,0,1-1.21,2.94,5.19,5.19,0,0,1-.74,1.09,10.11,10.11,0,0,1,.57-1.17,17.18,17.18,0,0,0,1.13-2.93,18.14,18.14,0,0,0,.55-3.09A11.92,11.92,0,0,1,141.14,40.05Z"/><text class="cls-5" transform="translate(84.81 96.25)"><tspan class="cls-6">Y</tspan><tspan x="4.19" y="0">ou h</tspan><tspan class="cls-7" x="21" y="0">a</tspan><tspan class="cls-8" x="25.27" y="0">v</tspan><tspan x="29.51" y="0">e </tspan><tspan class="cls-9" x="35.93" y="0">t</tspan><tspan x="38.85" y="0">o sele</tspan><tspan class="cls-10" x="60.42" y="0">c</tspan><tspan x="64.57" y="0">t </tspan><tspan class="cls-11" x="69.46" y="0">a</tspan><tspan x="73.76" y="0">t </tspan><tspan x="4" y="10.8">least one difficul</tspan><tspan class="cls-12" x="65.44" y="10.8">t</tspan><tspan x="68.5" y="10.8">y</tspan></text></g><g id="Character"><path class="cls-3" d="M13.31,76.68s10.87-2.89,11.52-2.37c3.34,2.66,21,.58,21,.58L62.6,79.63s2.73,20.14,4.58,28c1.22,5.24-3.4,13.12-3.4,13.12l-5.93,21.49L63,150.74l-49.67,0v-74Z"/><path class="cls-1" d="M56.55,99.84l-.43,0c-.29,0-.71.05-1.25.12-1.08.11-2.64.34-4.55.73s-4.16,1-6.66,1.57c-1.25.3-2.57.61-3.94.88-.69.13-1.39.28-2.12.35l-.54.06-.55,0c-.37,0-.74,0-1.11,0a50,50,0,0,1-8.31-1.16c-2.52-.52-4.78-1-6.68-1.47s-3.44-.73-4.52-.9c-.54-.09-1-.13-1.24-.17l-.43-.07s.6,0,1.68.18,2.63.45,4.53.85,4.17.93,6.69,1.44a51.06,51.06,0,0,0,8.28,1.14,10.09,10.09,0,0,0,1.1,0h.55l.54-.06c.71-.07,1.41-.22,2.1-.35,1.37-.27,2.69-.58,3.94-.87,2.5-.61,4.76-1.16,6.67-1.53A35.45,35.45,0,0,1,56.55,99.84Z"/><path class="cls-1" d="M58.69,138.35l-.39-.27c-.24-.18-.62-.43-1.11-.74a22.43,22.43,0,0,0-4.46-2.11A23.94,23.94,0,0,0,45.56,134a63,63,0,0,0-8.93.73,83.82,83.82,0,0,1-8.94.85,29.08,29.08,0,0,1-7.3-.67,19,19,0,0,1-4.63-1.72,13.17,13.17,0,0,1-1.16-.7l-.38-.26a4.54,4.54,0,0,1,.4.24c.26.16.65.39,1.16.66a19.18,19.18,0,0,0,4.63,1.67,30,30,0,0,0,7.27.64,86.63,86.63,0,0,0,8.93-.87,64.42,64.42,0,0,1,9-.72,24,24,0,0,1,7.2,1.33,21.22,21.22,0,0,1,4.45,2.16c.49.32.86.58,1.1.77A4.46,4.46,0,0,1,58.69,138.35Z"/><path class="cls-1" d="M59.39,145.45l-.45.13c-.3.08-.74.19-1.3.37A47.82,47.82,0,0,0,53,147.74a38.5,38.5,0,0,1-6.94,2.53,19.57,19.57,0,0,1-4.34.47,25.09,25.09,0,0,1-4.65-.52c-3.15-.63-6-1.62-8.72-2.39a37.13,37.13,0,0,0-7.2-1.47,18.64,18.64,0,0,0-4.95.17c-.57.12-1,.21-1.31.3s-.46.12-.46.12.15-.06.45-.15.73-.2,1.31-.33a17.92,17.92,0,0,1,5-.22,37.06,37.06,0,0,1,7.24,1.44c2.67.76,5.57,1.75,8.71,2.38a25.75,25.75,0,0,0,4.63.52,19.89,19.89,0,0,0,4.3-.46A39.76,39.76,0,0,0,53,147.64a43.39,43.39,0,0,1,4.66-1.75c.56-.17,1-.27,1.31-.34Z"/><g class="cls-13"><path d="M59.3,137c.25-7.57,1.52-16.45.4-23.52,1.54,3.27,3.18,10.57,3.18,10.57a31.21,31.21,0,0,1-1,3.64c-.84,2.86-1.72,6.45-2.57,9.31"/></g><path class="cls-1" d="M62.45,121.23l-.43-.31a12.13,12.13,0,0,0-1.27-.86,15.4,15.4,0,0,0-5.29-1.84,25.33,25.33,0,0,0-8.31.1c-3.11.5-6.44,1.48-10,2.34s-7,1.5-10.17,1.13a23.23,23.23,0,0,1-8-2.38,17,17,0,0,1-2.73-1.71c-.37-.3-.71-.58-1-.85s-.55-.55-.78-.8l-.55-.7a6.28,6.28,0,0,1-.36-.54l-.27-.46s.11.15.3.44.21.34.37.54l.56.68c.22.24.5.49.78.78s.64.55,1,.84a17.41,17.41,0,0,0,2.73,1.68,23.36,23.36,0,0,0,8,2.34c3.13.35,6.59-.3,10.11-1.14s6.87-1.84,10-2.33a25.49,25.49,0,0,1,8.35-.07,15.06,15.06,0,0,1,5.3,1.9,12.94,12.94,0,0,1,1.26.88Z"/><path class="cls-2" d="M51.9,138.3a1.08,1.08,0,0,1-.28.08l-.8.2-3,.66c-2.51.53-6,1.24-9.83,1.94s-7.34,1.28-9.87,1.66c-1.27.2-2.3.34-3,.44l-.82.1a1.26,1.26,0,0,1-.29,0,1.49,1.49,0,0,1,.28-.07l.82-.15,3-.52c2.52-.43,6-1,9.86-1.74s7.31-1.37,9.83-1.86l3-.58.81-.15A1,1,0,0,1,51.9,138.3Z"/><path class="cls-2" d="M52.84,120.55a1.2,1.2,0,0,1,0,.31,8.14,8.14,0,0,1-.14.86,14.25,14.25,0,0,1-1,3,18.21,18.21,0,0,1-2.55,4,23.41,23.41,0,0,1-4.28,3.95,41.75,41.75,0,0,1-9.42,4.76c-1.26.48-2.29.84-3,1.08l-.82.27a1.32,1.32,0,0,1-.3.08,1.2,1.2,0,0,1,.28-.12l.81-.32,3-1.16a44.93,44.93,0,0,0,9.33-4.8A24.37,24.37,0,0,0,49,128.63a18.56,18.56,0,0,0,2.56-3.94,14.64,14.64,0,0,0,1.06-3C52.75,121,52.81,120.55,52.84,120.55Z"/><path class="cls-2" d="M29.7,19.07c4.85-4.62,12.34-7.2,18.38-4.32,4.06,1.94,6.73,5.9,10.26,8.69,2.57,2,5.78,3.64,7.06,6.66,1.14,2.66.45,5.69.06,8.55s-.29,6.19,1.88,8.1c1.14,1,2.66,1.44,4,2.23a10.79,10.79,0,0,1,4.55,7.63,32.1,32.1,0,0,1-.34,9.12l-12.71,2-2-3.56-.9,5.46-16.16.93Z"/><path class="cls-14" d="M27.45,24.21l-.14,3.51L24.6,80.36C24.32,86.46,30,91.85,36.53,92.1h0c6.6.26,9.45-4.61,9.84-10.77.41-6.47,1-13.26,1-13.26s8.41-.89,10.79-11.65c1.18-5.35,1.44-14.23,1.42-21.5a11.48,11.48,0,0,0-12-11.46Z"/><path class="cls-2" d="M55.74,41.33a1.39,1.39,0,0,1-1.42,1.33A1.36,1.36,0,0,1,53,41.31,1.4,1.4,0,0,1,54.38,40,1.33,1.33,0,0,1,55.74,41.33Z"/><path class="cls-2" d="M57.34,39.41c-.18.17-1.19-.67-2.69-.76s-2.64.6-2.79.41.12-.41.62-.73a3.8,3.8,0,0,1,2.25-.55,3.75,3.75,0,0,1,2.13.84C57.3,39,57.43,39.34,57.34,39.41Z"/><path class="cls-2" d="M41.17,40.86a1.39,1.39,0,0,1-1.43,1.32,1.33,1.33,0,0,1-1.36-1.34,1.39,1.39,0,0,1,1.42-1.33A1.36,1.36,0,0,1,41.17,40.86Z"/><path class="cls-2" d="M42.58,38.8c-.18.18-1.19-.67-2.69-.75s-2.64.59-2.79.4.11-.4.62-.72A3.8,3.8,0,0,1,40,37.18,3.68,3.68,0,0,1,42.1,38C42.54,38.39,42.67,38.73,42.58,38.8Z"/><path class="cls-2" d="M47.36,50.25A10.27,10.27,0,0,1,49.82,50c.39,0,.75-.07.83-.33a1.91,1.91,0,0,0-.18-1.15c-.31-.95-.63-1.94-1-3-1.32-4.25-2.26-7.73-2.09-7.78s1.39,3.35,2.71,7.59l.91,3a2.23,2.23,0,0,1,.11,1.52,1,1,0,0,1-.67.52,2.56,2.56,0,0,1-.65,0A9.36,9.36,0,0,1,47.36,50.25Z"/><path class="cls-15" d="M47.33,68.07A27.7,27.7,0,0,1,33,63.31S36.09,71,47,70.62Z"/><path class="cls-15" d="M46.1,52.83a2.73,2.73,0,0,0-2.63,0,2.47,2.47,0,0,0-1.2,1.52,1.55,1.55,0,0,0,.59,1.69,1.81,1.81,0,0,0,2-.32,5.54,5.54,0,0,0,1.31-1.81,1.54,1.54,0,0,0,.22-.57.52.52,0,0,0-.22-.52"/><path class="cls-2" d="M42.05,34.56c0,.43-1.56.56-3.24,1.14s-3,1.36-3.27,1c-.14-.15,0-.58.5-1.09a5.76,5.76,0,0,1,2.29-1.4A5.65,5.65,0,0,1,41,34C41.69,34.11,42.08,34.36,42.05,34.56Z"/><path class="cls-2" d="M58,37.13c-.41.23-1.5-.49-2.93-1s-2.74-.64-2.91-1.07c-.07-.2.23-.47.86-.6a5.27,5.27,0,0,1,4.71,1.64C58.08,36.63,58.14,37,58,37.13Z"/><path class="cls-2" d="M35.43,18c1.88,2.71,2.75,4.77,3.78,9.51.5,2.33-1.42,3.89-3.33,5.24a1.5,1.5,0,0,1-2.34-.95h0s.41,7.23-2.3,10.38a6.23,6.23,0,0,0-1.15,5.06,8.56,8.56,0,0,0,2.19,4.49,10.89,10.89,0,0,1,1.37,12.31A33,33,0,0,0,31.9,67a4.48,4.48,0,0,0-.41,1.9,1.53,1.53,0,0,1-1.34,1.57,119.45,119.45,0,0,1-27.06-.07A1.49,1.49,0,0,1,1.8,69.23c-.61-3,.67-6.23,2.27-8.93,1.79-3,4-5.9,4.72-9.33.65-3.24-.12-6.77,1.29-9.76,1.72-3.66,6.14-5.28,8.43-8.61,2.16-3.15,2.13-7.38,4.09-10.66A10.31,10.31,0,0,1,35.43,18"/><path class="cls-2" d="M35.8,22.05c3.36,1.87,4.81,6.1,8.07,8.15,3,1.86,6.76,1.52,10.24,1.11-.1-.77-.2-1.54-.31-2.32A6.08,6.08,0,0,0,55,30.9a2.11,2.11,0,0,0,2.09.57c1.17-.43,1.38-2,1.12-3.25A11.28,11.28,0,0,0,55.38,23a15.34,15.34,0,0,0-20-2.24"/><path class="cls-2" d="M23.28,29.93a9.92,9.92,0,0,0-1.53-10,8.36,8.36,0,0,0-8.88-2.46,6.92,6.92,0,0,0-3.58,2.57,7.88,7.88,0,0,0,.09,8.3,9,9,0,0,0,6.79,4,16.08,16.08,0,0,0,7.75-1.54"/><path class="cls-16" d="M18.51,30.47s.64.51,1.76,1.17a12.72,12.72,0,0,0,2.05,1,14.68,14.68,0,0,0,2.69.69,14,14,0,0,0,2.78.12,13,13,0,0,0,2.26-.34c1.26-.31,2-.66,2-.61a2.16,2.16,0,0,1-.5.27,4.3,4.3,0,0,1-.62.26,8.25,8.25,0,0,1-.84.28,12.43,12.43,0,0,1-5.13.3,13.19,13.19,0,0,1-2.74-.73,11.05,11.05,0,0,1-2.07-1.05,5.76,5.76,0,0,1-.73-.51c-.21-.15-.38-.3-.52-.42S18.5,30.49,18.51,30.47Z"/><path class="cls-16" d="M32.36,37.19a2.19,2.19,0,0,1-.6.16c-.39.09-1,.2-1.66.3a15.25,15.25,0,0,1-5.58-.15,8.67,8.67,0,0,1-4.72-2.9,5.94,5.94,0,0,1-.87-1.47,2.75,2.75,0,0,1-.18-.59A10,10,0,0,0,20,34.47a8.85,8.85,0,0,0,4.64,2.75,16.39,16.39,0,0,0,5.48.23l1.67-.21A2.62,2.62,0,0,1,32.36,37.19Z"/><path class="cls-16" d="M11.91,69.85s0,0-.07-.07-.11-.14-.18-.25a3.22,3.22,0,0,1-.4-1.11,5,5,0,0,1,1.33-4,10.09,10.09,0,0,1,2.34-1.84c.91-.56,1.93-1.07,2.93-1.7a8.75,8.75,0,0,0,2.71-2.48,4.65,4.65,0,0,0,.71-1.77,5.8,5.8,0,0,0,0-2A24.77,24.77,0,0,0,20,50.85a10.43,10.43,0,0,1-.8-3.7,9.79,9.79,0,0,1,2.06-6,9.16,9.16,0,0,1,3.3-2.72l.62-.27.47-.15a1.76,1.76,0,0,1,.4-.1,2.47,2.47,0,0,1-.38.15l-.46.18-.6.29a9.38,9.38,0,0,0-3.19,2.75,9.66,9.66,0,0,0-2,5.84,10.27,10.27,0,0,0,.8,3.6,24.71,24.71,0,0,1,1.28,3.84,6.06,6.06,0,0,1,0,2.08,4.87,4.87,0,0,1-.76,1.88A8.9,8.9,0,0,1,18,61.1c-1,.63-2,1.13-2.95,1.68a10,10,0,0,0-2.31,1.78,5,5,0,0,0-1.37,3.85A3.43,3.43,0,0,0,11.91,69.85Z"/><path class="cls-16" d="M26.39,70.52a1.4,1.4,0,0,1-.31-.19,2.5,2.5,0,0,1-.68-.78A3.66,3.66,0,0,1,25,68a5.87,5.87,0,0,1,.3-2.15c.5-1.58,1.88-3,2.94-4.79A6,6,0,0,0,29.13,58a8.28,8.28,0,0,0-.77-3.39c-1-2.22-2.49-4-3.53-5.86a12.06,12.06,0,0,1-1.19-2.78,6.67,6.67,0,0,1-.19-2.63,5.2,5.2,0,0,1,1.7-3.35,3.5,3.5,0,0,1,.89-.53,1.17,1.17,0,0,1,.34-.11,5.34,5.34,0,0,0-1.16.72,5.22,5.22,0,0,0-1.57,3.29,6.67,6.67,0,0,0,.21,2.55,11.84,11.84,0,0,0,1.2,2.71c.52.9,1.16,1.81,1.8,2.77a18.71,18.71,0,0,1,1.76,3.11A8.58,8.58,0,0,1,29.41,58a6.5,6.5,0,0,1-1,3.2c-1.11,1.82-2.48,3.2-3,4.71A6.07,6.07,0,0,0,25.12,68a3.82,3.82,0,0,0,.38,1.54A3.25,3.25,0,0,0,26.39,70.52Z"/><path class="cls-16" d="M49.19,30.38s-.08,0-.2-.09a4.47,4.47,0,0,1-.53-.37A6.41,6.41,0,0,1,47,28.13,19.07,19.07,0,0,1,45.55,25c-.24-.61-.48-1.24-.79-1.87a11.61,11.61,0,0,0-1.14-1.84A12.31,12.31,0,0,0,37.46,17a16.06,16.06,0,0,0-3.11-.55,4.31,4.31,0,0,1,.85,0,11.84,11.84,0,0,1,2.32.37,12.24,12.24,0,0,1,3.17,1.41,11.91,11.91,0,0,1,3.15,2.87A11.78,11.78,0,0,1,45,23c.31.64.55,1.28.78,1.89A21.34,21.34,0,0,0,47.12,28a7,7,0,0,0,1.41,1.81C48.94,30.2,49.2,30.36,49.19,30.38Z"/><path class="cls-16" d="M56.78,30.58a.92.92,0,0,1-.29,0,4.37,4.37,0,0,1-.81-.24,7,7,0,0,1-2.54-1.77,15.53,15.53,0,0,1-2.57-3.8,29,29,0,0,0-2.81-4.81,9.25,9.25,0,0,0-4.52-3,18.12,18.12,0,0,0-4.47-.75c-1.3-.07-2.36-.05-3.08,0H34.55a1,1,0,0,1,.29-.05l.84,0c.73,0,1.79-.09,3.09-.05a17.66,17.66,0,0,1,4.55.7A9.45,9.45,0,0,1,48,19.74a27.69,27.69,0,0,1,2.82,4.87,15.86,15.86,0,0,0,2.48,3.78,7.38,7.38,0,0,0,2.44,1.81C56.38,30.49,56.78,30.55,56.78,30.58Z"/><path class="cls-16" d="M68.48,66.31s.15-.38.35-1.09a10,10,0,0,0,.43-3.06,10.27,10.27,0,0,0-1-4.43,10.5,10.5,0,0,0-1.49-2.26c-.61-.72-1.3-1.41-2-2.13a18.42,18.42,0,0,1-2-2.23,13.45,13.45,0,0,1-1.37-2.39,13.24,13.24,0,0,1-.8-2.37,11.82,11.82,0,0,1-.34-2.14,12.72,12.72,0,0,1,.13-3.14,7.67,7.67,0,0,1,.18-.83,1.32,1.32,0,0,1,.09-.29s-.07.41-.16,1.14a13.84,13.84,0,0,0,0,3.1,14,14,0,0,0,1.18,4.42A13,13,0,0,0,63,51,19.5,19.5,0,0,0,65,53.15c.71.71,1.41,1.41,2,2.14a10.58,10.58,0,0,1,1.51,2.32,10.35,10.35,0,0,1,1,4.55,9.69,9.69,0,0,1-.52,3.09,6.2,6.2,0,0,1-.32.8A2.21,2.21,0,0,1,68.48,66.31Z"/><path class="cls-16" d="M9.11,27.53a2.26,2.26,0,0,1,.1-.7,7.4,7.4,0,0,1,.68-1.76,7.22,7.22,0,0,1,4.51-3.65A6.52,6.52,0,0,1,21,24.07a2.11,2.11,0,0,1,.33.59A11.16,11.16,0,0,0,19.66,23a6.38,6.38,0,0,0-5.2-1.19,7.17,7.17,0,0,0-4.37,3.43A14.12,14.12,0,0,0,9.11,27.53Z"/><path class="cls-16" d="M15.14,30.71a6.29,6.29,0,0,1,.23-1.6A7.43,7.43,0,0,1,17,25.6a3.07,3.07,0,0,1,3.38-.84,2,2,0,0,1,.87.71c.15.24.2.39.18.4A2.91,2.91,0,0,0,20.28,25a3,3,0,0,0-3.08.86,8.23,8.23,0,0,0-1.61,3.32A10.1,10.1,0,0,1,15.14,30.71Z"/><path class="cls-3" d="M23.5,20.58a35,35,0,0,0-1.78,3.81,35.13,35.13,0,0,0-1,4.15,10.31,10.31,0,0,1,.68-4.28A9.48,9.48,0,0,1,23.5,20.58Z"/><path class="cls-2" d="M0,55.93a2.87,2.87,0,0,0,1.09.82A3.32,3.32,0,0,0,2.67,57a3.52,3.52,0,0,0,1.93-.81,6.39,6.39,0,0,0,1.85-5.06c0-1.05-.14-2.15-.25-3.29a13.38,13.38,0,0,1,.06-3.57,6.26,6.26,0,0,1,.56-1.73,6.06,6.06,0,0,1,1-1.44,10,10,0,0,1,2.73-1.9c.95-.48,1.88-.86,2.73-1.25a14.42,14.42,0,0,0,2.29-1.24A6.85,6.85,0,0,0,18.13,34a6.49,6.49,0,0,0,.4-1.32s0,.12,0,.36a4.79,4.79,0,0,1-.3,1,7,7,0,0,1-2.53,2.79A15.8,15.8,0,0,1,13.37,38c-.86.39-1.79.78-2.72,1.25A10.3,10.3,0,0,0,8,41.16a6,6,0,0,0-1,1.41,6.32,6.32,0,0,0-.55,1.69c-.42,2.4.2,4.71.19,6.83a6.49,6.49,0,0,1-1.93,5.14,3.52,3.52,0,0,1-2,.82,3.27,3.27,0,0,1-1.61-.25,2.51,2.51,0,0,1-.85-.58A1.79,1.79,0,0,1,0,55.93Z"/><path class="cls-2" d="M63.45,20.65a1.31,1.31,0,0,1,.09.31,1.68,1.68,0,0,1-.06.92,2.58,2.58,0,0,1-2.7,1.7,4,4,0,0,1-2.14-.93,7.85,7.85,0,0,1-1.73-2.07c-.5-.81-.95-1.69-1.54-2.53a12.54,12.54,0,0,0-2.13-2.32A12.68,12.68,0,0,0,47.84,13a13,13,0,0,0-8.18.89c-.35.17-.63.31-.81.42l-.29.14a8,8,0,0,1,1.08-.61,12.4,12.4,0,0,1,3.22-1.06,12.52,12.52,0,0,1,10.48,2.82A12.28,12.28,0,0,1,55.5,18c.6.84,1,1.73,1.54,2.53a7.3,7.3,0,0,0,1.68,2.05,4,4,0,0,0,2.07.92A2.43,2.43,0,0,0,62.57,23a2.47,2.47,0,0,0,.85-1.13,1.74,1.74,0,0,0,.09-.89C63.48,20.76,63.44,20.66,63.45,20.65Z"/><path class="cls-2" d="M31.76,66.68l.09-.05.29-.13c.25-.12.62-.29,1.08-.56a8.67,8.67,0,0,0,3.19-3,6.38,6.38,0,0,0,.88-2.9,5.37,5.37,0,0,0-.17-1.68,6.91,6.91,0,0,0-.77-1.63,16.11,16.11,0,0,0-2.69-2.81c-.51-.45-1-.9-1.53-1.4a8.89,8.89,0,0,1-1.38-1.65,6.72,6.72,0,0,1-.5-1A5.5,5.5,0,0,1,30,48.83a4.56,4.56,0,0,1,.23-2.08,15.65,15.65,0,0,1,2-3.4,12.14,12.14,0,0,0,1.63-3.12,11.86,11.86,0,0,0,.57-3,11.44,11.44,0,0,0-.6-4.39,11,11,0,0,0-.45-1.12c-.12-.25-.18-.39-.18-.39s.08.13.21.38a8.93,8.93,0,0,1,.48,1.11,11.18,11.18,0,0,1,.65,4.42,11.61,11.61,0,0,1-.56,3,12.19,12.19,0,0,1-1.63,3.16,15.24,15.24,0,0,0-1.93,3.37,4.29,4.29,0,0,0-.22,2,4.35,4.35,0,0,0,.23,1,5.6,5.6,0,0,0,.49.94,8.42,8.42,0,0,0,1.35,1.62c.49.5,1,.95,1.52,1.4a16.06,16.06,0,0,1,2.71,2.84,6.65,6.65,0,0,1,.78,1.67A5.42,5.42,0,0,1,37.42,60,6.57,6.57,0,0,1,36.51,63a8.68,8.68,0,0,1-3.26,3A10,10,0,0,1,31.76,66.68Z"/><path class="cls-2" d="M71.83,46.83l.08,0a1.08,1.08,0,0,1,.21.11,1.38,1.38,0,0,1,.54.73,1.69,1.69,0,0,1-.16,1.41,2,2,0,0,1-1.67.85,2.91,2.91,0,0,1-2.1-.91,6.12,6.12,0,0,1-1.37-2.28,14,14,0,0,1-.47-6,39.18,39.18,0,0,0,.4-6,9.93,9.93,0,0,0-.47-2.58,7.21,7.21,0,0,0-1-2A5.16,5.16,0,0,0,62,27.84l.32,0a1.54,1.54,0,0,1,.38.06,3.19,3.19,0,0,1,.51.13,5.56,5.56,0,0,1,2.64,2,7.17,7.17,0,0,1,1.08,2,9.75,9.75,0,0,1,.5,2.61,37.92,37.92,0,0,1-.39,6,13.88,13.88,0,0,0,.45,6A5.87,5.87,0,0,0,68.82,49a2.78,2.78,0,0,0,2,.89,2,2,0,0,0,1.61-.79,1.61,1.61,0,0,0,.17-1.34,1.39,1.39,0,0,0-.5-.73A1.78,1.78,0,0,0,71.83,46.83Z"/><path class="cls-3" d="M24.59,75.66S28.68,84,37.33,83.57s9.55-8,9.55-8l4.84,5.33L46.88,92.85l-7.12,3.07L28.17,92.85l-3.11-4.91-7.67-9.1Z"/><path class="cls-1" d="M53.38,84.57s-.14,0-.43,0a5.93,5.93,0,0,0-1.2.24,8.47,8.47,0,0,0-1.76.83c-.65.39-1.35.91-2.13,1.48a17.33,17.33,0,0,1-2.65,1.71,10.07,10.07,0,0,1-1.65.62,11.63,11.63,0,0,1-1.83.33,19.31,19.31,0,0,1-8.14-1.26c-2.78-1-5.36-2-7.83-2.64a12.62,12.62,0,0,0-3.56-.32,20.6,20.6,0,0,0-3.12.33,17.08,17.08,0,0,0-4.33,1.33c-.24.11-.45.23-.63.33a3,3,0,0,0-.45.27l-.36.23a7.2,7.2,0,0,1,1.42-.89,17.09,17.09,0,0,1,4.33-1.38,20.78,20.78,0,0,1,3.13-.35,12.88,12.88,0,0,1,3.6.31c2.49.58,5.08,1.68,7.85,2.63a19.4,19.4,0,0,0,8.07,1.27,13,13,0,0,0,1.82-.32,10.54,10.54,0,0,0,1.63-.61,17.89,17.89,0,0,0,2.64-1.68c.77-.56,1.48-1.07,2.14-1.46a8.05,8.05,0,0,1,1.79-.82A5.72,5.72,0,0,1,53,84.57Z"/><path class="cls-14" d="M54.41,55.93l3.29,6.63.31,3.6s.3-1.09.67-2.11a26.2,26.2,0,0,0,.6-4.21l-2.4-5s-1.41-2.75.29-4l2.54,3.36s-2-3.86-.11-4.91l2.14,2.41a1,1,0,0,1,.47-1.46l5.42,6.95L67,67.44,65.09,78.08,66,79.67l-9.62,6.67s-3-6.58-3.21-8.75,1.94-13.71,1.94-13.71-2.05-4.1-1.78-5.74A3.28,3.28,0,0,1,54.41,55.93Z"/><path class="cls-15" d="M57.14,87.94s0,0-.06-.1l-.16-.3-.56-1.2c-.49-1.06-1.19-2.61-2-4.64a29.55,29.55,0,0,1-1.19-3.43,6,6,0,0,1-.1-2.08q.09-1.08.24-2.22c.4-3,1-6.46,1.63-10.21l0,.11A24.66,24.66,0,0,1,53.39,60a9.41,9.41,0,0,1-.24-1.08,5.49,5.49,0,0,1,0-.58l0-.3,0-.28a4.42,4.42,0,0,1,.38-1.09,2.85,2.85,0,0,1,.75-1l.17-.14.1.21,3.3,6.62,0,0v0c.1,1.12.2,2.35.31,3.6l-.4,0q.24-.73.48-1.5l.24-.76a6,6,0,0,0,.17-.76c.18-1,.29-2.15.38-3.26l0,.11-1.44-3-.74-1.53c-.12-.26-.26-.52-.37-.8a5.64,5.64,0,0,1-.28-.85A4,4,0,0,1,56.19,52a2.32,2.32,0,0,1,.87-1.44l.17-.12.12.16L59.89,54l-.34.22a9.16,9.16,0,0,1-.89-2.61,3.53,3.53,0,0,1,0-1.41A1.7,1.7,0,0,1,59.52,49l.14-.08.11.12,2.17,2.62-.33.21a1.74,1.74,0,0,1-.14-1,1.26,1.26,0,0,1,.65-.82l.14-.07.1.12L67.78,57l0,.06v.07c-.25,3.69-.48,7.11-.7,10.24h0c-.73,4.1-1.37,7.66-1.9,10.64v-.08l3.55,6.57c.41.77.72,1.35.93,1.76l.23.45c0,.1.08.16.07.16l-.09-.14-.26-.44-1-1.73c-.85-1.52-2.08-3.73-3.65-6.52V78l1.82-10.65h0c.2-3.13.41-6.56.65-10.24l0,.12-5.45-6.85.25.05a.78.78,0,0,0-.44.55,1.27,1.27,0,0,0,.11.76l.59,1.32-.92-1.11-2.18-2.61.25.05a1.32,1.32,0,0,0-.65.91,3.23,3.23,0,0,0,0,1.24A9.06,9.06,0,0,0,59.91,54l-.35.21L57,50.88l.29,0a1.81,1.81,0,0,0-.71,1.18,3.38,3.38,0,0,0,.08,1.48,5.74,5.74,0,0,0,.26.8c.1.25.23.5.36.76.24.52.49,1,.74,1.54l1.43,3,0,0v.05c-.09,1.12-.19,2.22-.38,3.3a7.84,7.84,0,0,1-.18.81l-.25.77c-.16.5-.31,1-.47,1.48l-.31,1-.08-1c-.1-1.24-.21-2.47-.3-3.6l0,.07-3.28-6.64.27.08a2.45,2.45,0,0,0-.63.81,4,4,0,0,0-.35,1,4.31,4.31,0,0,0,.18,2.07,24.64,24.64,0,0,0,1.52,3.83l0,.05v0C54.58,67.56,54,71,53.57,74c-.1.76-.19,1.49-.25,2.2a5.6,5.6,0,0,0,.07,2,27.75,27.75,0,0,0,1.14,3.41c.79,2,1.47,3.6,1.92,4.67L57,87.51l.13.32A.82.82,0,0,1,57.14,87.94Z"/><path class="cls-15" d="M62.27,65.17a7.25,7.25,0,0,1,0-1.77c.06-1.09.17-2.59.31-4.24l0-.46,0,.14c-.87-1.3-1.63-2.46-2.16-3.31a6.09,6.09,0,0,1-.78-1.42,7.39,7.39,0,0,1,1,1.26c.59.81,1.38,2,2.26,3.24l0,.06v.07l0,.45c-.14,1.66-.3,3.16-.43,4.24A7.07,7.07,0,0,1,62.27,65.17Z"/><path class="cls-15" d="M65.11,62.33a6.65,6.65,0,0,1,0-1.62c0-1,.15-2.38.28-3.94l0,.15-.3-.4c-1-1.32-1.93-2.54-2.56-3.43a7.74,7.74,0,0,1-1-1.5,8.1,8.1,0,0,1,1.2,1.32c.69.85,1.63,2,2.65,3.36l.3.4,0,.06v.08c-.14,1.55-.29,2.93-.42,3.93A6.56,6.56,0,0,1,65.11,62.33Z"/><path class="cls-3" d="M53.76,84.11l13.42-5.66S86.66,122.18,87.8,125c2.7,6.66,0,16.54-7.29,16.36-3.45-.08-13.33-1.42-16-11.92-.85-3.29-3.25-11.18-3.25-11.18Z"/><path class="cls-2" d="M67.18,78.45l-.24.13-.7.34-2.69,1.27-9.64,4.49.06-.12c.8,4.48,1.79,9.79,3,15.45,1.74,8.2,3.64,15.56,5.1,20.86.74,2.64,1.35,4.77,1.77,6.27.21.73.37,1.3.49,1.7l.12.45,0,.15s0-.05-.06-.15l-.14-.43-.54-1.69c-.45-1.47-1.09-3.6-1.85-6.25-1.51-5.29-3.44-12.64-5.18-20.86-1.21-5.66-2.18-11-3-15.46v-.08l.08,0,9.67-4.4,2.72-1.22.72-.31Z"/><path class="cls-1" d="M85.64,122.2l-.12.21-.38.56a7.71,7.71,0,0,1-.62.86,12.87,12.87,0,0,1-.9,1.09l-.55.61c-.2.21-.42.41-.64.63-.43.44-1,.85-1.48,1.3a21.92,21.92,0,0,1-8,4.06c-.67.17-1.31.34-1.92.43-.3.05-.59.12-.88.15l-.81.09c-.52.07-1,.06-1.41.08a7.58,7.58,0,0,1-1.07,0l-.67,0-.24,0h.91a8,8,0,0,0,1.06,0c.42,0,.89,0,1.4-.1l.82-.1c.28,0,.57-.1.87-.16.61-.09,1.24-.27,1.91-.44a24.93,24.93,0,0,0,4.17-1.62,24.34,24.34,0,0,0,3.76-2.42,19.51,19.51,0,0,0,1.48-1.28c.22-.21.45-.4.64-.61l.56-.6c.36-.37.65-.75.91-1.07a8.19,8.19,0,0,0,.64-.85l.4-.54A1.36,1.36,0,0,1,85.64,122.2Z"/><path class="cls-1" d="M82,110.36a.92.92,0,0,1-.1.2c-.08.13-.18.34-.34.58A11,11,0,0,1,80,113a11.61,11.61,0,0,1-3,2.11,11.4,11.4,0,0,1-4.29,1.2,31.55,31.55,0,0,1-4.46-.2,12.74,12.74,0,0,0-3.61.12,6.4,6.4,0,0,0-2.26.87c-.48.31-.7.54-.72.53a3.71,3.71,0,0,1,.69-.58,6.21,6.21,0,0,1,2.27-.93,12.83,12.83,0,0,1,3.64-.16,30.16,30.16,0,0,0,4.44.19A11.88,11.88,0,0,0,79.87,113a12.12,12.12,0,0,0,1.59-1.85c.17-.23.27-.43.36-.55A1,1,0,0,1,82,110.36Z"/><path class="cls-1" d="M58.28,105.15s.26,0,.75,0a7.38,7.38,0,0,0,2-.33,10.58,10.58,0,0,0,2.71-1.31,27.82,27.82,0,0,0,2.9-2.29,31.67,31.67,0,0,1,2.9-2.34,11.28,11.28,0,0,1,2.7-1.4,7.62,7.62,0,0,1,2-.39,3.63,3.63,0,0,1,.75,0s-.27,0-.75,0a7.77,7.77,0,0,0-2,.44A11.53,11.53,0,0,0,69.61,99a34.51,34.51,0,0,0-2.88,2.34,26,26,0,0,1-2.92,2.29,10.54,10.54,0,0,1-2.75,1.3,7,7,0,0,1-2,.28A3.46,3.46,0,0,1,58.28,105.15Z"/><path class="cls-1" d="M68.26,84.93a.75.75,0,0,1-.05.14,3.31,3.31,0,0,1-.17.38,4.39,4.39,0,0,1-1,1.2,6.16,6.16,0,0,1-2,1.14,11.44,11.44,0,0,1-2.75.57c-1,.1-1.94.15-2.79.24A13.13,13.13,0,0,0,57.3,89a8.23,8.23,0,0,0-1.42.57,4.18,4.18,0,0,1-.5.27l.12-.09a2.34,2.34,0,0,1,.35-.23,6.62,6.62,0,0,1,1.42-.62,12.11,12.11,0,0,1,2.24-.45c.86-.1,1.81-.15,2.79-.25A11.49,11.49,0,0,0,65,87.66a6.31,6.31,0,0,0,2-1.09A5.05,5.05,0,0,0,68.26,84.93Z"/></g></g></svg>