<svg xmlns="http://www.w3.org/2000/svg" viewBox="0 0 411.79 302.12"><defs><style>.cls-1{fill:#fafafa;}.cls-2{fill:#263238;}.cls-3{fill:#e8505b;}.cls-4{fill:#fff;}.cls-5{font-size:18px;font-family:MyriadPro-Regular, Myriad Pro;}.cls-6{letter-spacing:-0.08em;}.cls-7{letter-spacing:-0.01em;}.cls-8{letter-spacing:-0.01em;}.cls-9{letter-spacing:-0.01em;}.cls-10{letter-spacing:0.01em;}.cls-11{letter-spacing:0em;}.cls-12{letter-spacing:0.01em;}.cls-13{opacity:0.3;}.cls-14{fill:#ffbe9d;}.cls-15{fill:#eb996e;}.cls-16{fill:#455a64;}</style></defs><g id="Capa_2" data-name="Capa 2"><g id="Screen"><path class="cls-1" d="M44.3.5H393.38a17.92,17.92,0,0,1,17.92,17.92v283.2a0,0,0,0,1,0,0H26.38a0,0,0,0,1,0,0V18.42A17.92,17.92,0,0,1,44.3.5Z"/><path class="cls-2" d="M356.19,229.81c0,.14-62.1.26-138.69.26S78.79,230,78.79,229.81s62.09-.26,138.71-.26S356.19,229.66,356.19,229.81Z"/><path class="cls-2" d="M330.71,247.07c0,.14-47.46.26-106,.26s-106-.12-106-.26,47.44-.26,106-.26S330.71,246.92,330.71,247.07Z"/><rect class="cls-3" x="26.38" y="0.5" width="384.91" height="116.77"/><path class="cls-2" d="M411.79,302.12H25.88V0H411.79Zm-384.91-1H410.79V1H26.88Z"/><path class="cls-2" d="M200,140.21l-8.64,26.42h-6.56L179,148.74l-6,17.89h-6.53l-8.68-26.42h6.34l6,18.57,6.23-18.57h5.66l6,18.72,6.16-18.72Z"/><path class="cls-2" d="M219.41,155v11.59H213.9V164.1c-1.09,1.85-3.2,2.83-6.18,2.83-4.76,0-7.59-2.64-7.59-6.15s2.53-6.08,8.72-6.08h4.68c0-2.53-1.51-4-4.68-4a9.76,9.76,0,0,0-5.85,1.89l-2.11-4.11a15.55,15.55,0,0,1,8.75-2.46C215.83,146,219.41,148.89,219.41,155Zm-5.88,5.17v-2.07h-4c-2.75,0-3.62,1-3.62,2.37s1.24,2.46,3.32,2.46A4.34,4.34,0,0,0,213.53,160.21Z"/><path class="cls-2" d="M237.34,146v5.44c-.49,0-.87-.08-1.32-.08-3.25,0-5.4,1.77-5.4,5.66v9.59h-5.88V146.32h5.62V149C231.79,147,234.21,146,237.34,146Z"/><path class="cls-2" d="M261.61,155v11.63h-5.89V155.91c0-3.28-1.51-4.79-4.11-4.79-2.83,0-4.87,1.73-4.87,5.47v10h-5.89V146.32h5.62v2.38a8.93,8.93,0,0,1,6.72-2.68C258,146,261.61,148.81,261.61,155Z"/><path class="cls-2" d="M266.21,140.21a3.36,3.36,0,0,1,3.66-3.28c2.19,0,3.66,1.36,3.66,3.17a3.68,3.68,0,0,1-7.32.11Zm.72,6.11h5.89v20.31h-5.89Z"/><path class="cls-2" d="M299,155v11.63h-5.88V155.91c0-3.28-1.51-4.79-4.12-4.79-2.83,0-4.86,1.73-4.86,5.47v10h-5.89V146.32h5.62v2.38a8.92,8.92,0,0,1,6.72-2.68C295.42,146,299,148.81,299,155Z"/><path class="cls-2" d="M325.54,146.32v16.91c0,7.55-4.08,11-11.4,11-3.85,0-7.58-.95-10-2.79l2.34-4.23a12.08,12.08,0,0,0,7.17,2.3c4.15,0,6-1.89,6-5.55v-.86a8.38,8.38,0,0,1-6.41,2.52c-5.63,0-10.16-3.88-10.16-9.81s4.53-9.81,10.16-9.81a8.14,8.14,0,0,1,6.71,2.91v-2.61Zm-5.81,9.51c0-3-2.23-5-5.32-5s-5.36,2-5.36,5,2.26,5,5.36,5S319.73,158.81,319.73,155.83Z"/><path class="cls-2" d="M330.14,163.49a3.64,3.64,0,0,1,7.25,0,3.63,3.63,0,0,1-7.25,0Zm.12-23.28h7l-1.17,17.25h-4.68Z"/><path class="cls-4" d="M194.33,93.78a10.05,10.05,0,0,1-8.72-15l28.8-50.22a9.93,9.93,0,0,1,8.68-5.05h0a10,10,0,0,1,8.69,5l29.1,50.05a10,10,0,0,1-8.66,15.1l-57.89.18Zm28.79-67.32h0A7,7,0,0,0,217,30L188.22,80.23a7,7,0,0,0,6.11,10.55h0l57.89-.18A7,7,0,0,0,258.31,80L229.21,30A7,7,0,0,0,223.12,26.46Z"/><path class="cls-4" d="M219.12,77.52A3.71,3.71,0,0,1,223,73.8a3.72,3.72,0,1,1,.05,7.43A3.74,3.74,0,0,1,219.12,77.52Zm.12-30.16,7.09,0-1,22.45-4.74,0Z"/><path class="cls-4" d="M187,105.12a5.56,5.56,0,0,1-1.3-.45,19.92,19.92,0,0,1-3.3-1.81,21.92,21.92,0,0,1-9.45-21.65,20.09,20.09,0,0,1,.92-3.64,5,5,0,0,1,.55-1.26,39.61,39.61,0,0,0-1.1,5,22.36,22.36,0,0,0,9.29,21.29A38.63,38.63,0,0,0,187,105.12Z"/><path class="cls-4" d="M174.6,103.88s-.26-.15-.67-.51a14.61,14.61,0,0,1-1.61-1.63,21.79,21.79,0,0,1-5.22-13.9,16.36,16.36,0,0,1,.13-2.28c.07-.54.13-.83.17-.82s0,1.19.07,3.09A24.43,24.43,0,0,0,169,95.07a24.85,24.85,0,0,0,3.63,6.44C173.79,103,174.66,103.81,174.6,103.88Z"/><path class="cls-4" d="M275.61,69.06a4.84,4.84,0,0,1,.38,1.09,11.47,11.47,0,0,1,.33,1.32c.09.52.24,1.1.3,1.77a26.27,26.27,0,0,1,.19,4.68,28.74,28.74,0,0,1-.91,5.67A29.48,29.48,0,0,1,273.83,89a25.32,25.32,0,0,1-2.53,4,16.43,16.43,0,0,1-1.15,1.38,11.11,11.11,0,0,1-.95,1,5.19,5.19,0,0,1-.88.76c-.07-.08,1.14-1.2,2.69-3.33a28.9,28.9,0,0,0,2.39-4,30.61,30.61,0,0,0,2-5.27,32,32,0,0,0,.93-5.57,27.47,27.47,0,0,0-.08-4.61C276,70.66,275.51,69.08,275.61,69.06Z"/><path class="cls-4" d="M282.16,80.06a9.81,9.81,0,0,1,.14,2.63,27.15,27.15,0,0,1-1,6.29,27.65,27.65,0,0,1-2.42,5.88A9.85,9.85,0,0,1,277.43,97a20.18,20.18,0,0,1,1.15-2.35,33.44,33.44,0,0,0,3.35-12A22.13,22.13,0,0,1,282.16,80.06Z"/><text class="cls-5" transform="translate(169.55 192.41)"><tspan class="cls-6">Y</tspan><tspan x="8.37" y="0">ou h</tspan><tspan class="cls-7" x="41.98" y="0">a</tspan><tspan class="cls-8" x="50.51" y="0">v</tspan><tspan x="58.99" y="0">e </tspan><tspan class="cls-9" x="71.82" y="0">t</tspan><tspan x="77.67" y="0">o sele</tspan><tspan class="cls-10" x="120.78" y="0">c</tspan><tspan x="129.08" y="0">t </tspan><tspan class="cls-11" x="138.85" y="0">a</tspan><tspan x="147.45" y="0">t </tspan><tspan x="8" y="21.6">least one difficul</tspan><tspan class="cls-12" x="130.81" y="21.6">t</tspan><tspan x="136.93" y="21.6">y</tspan></text></g><g id="Character"><path class="cls-3" d="M26.61,153.28s21.72-5.77,23-4.73c6.67,5.31,41.89,1.16,41.89,1.16l33.61,9.48s5.45,40.26,9.15,56c2.46,10.47-6.78,26.21-6.78,26.21l-11.86,43,10.25,16.94-99.29,0v-148Z"/><path class="cls-1" d="M113.05,199.59l-.87.09c-.57,0-1.41.1-2.49.23-2.17.23-5.28.67-9.09,1.47s-8.31,1.9-13.32,3.12c-2.5.6-5.13,1.22-7.88,1.77-1.38.26-2.77.56-4.23.7-.36,0-.72.09-1.09.12l-1.1,0c-.73,0-1.47.06-2.22,0a100.79,100.79,0,0,1-16.6-2.32c-5-1.05-9.55-2.11-13.36-2.94s-6.88-1.47-9-1.79c-1.07-.2-1.91-.27-2.47-.36l-.87-.13s1.21.06,3.36.37,5.26.89,9.07,1.69,8.33,1.85,13.37,2.88a101.84,101.84,0,0,0,16.55,2.28c.74.06,1.47,0,2.2,0l1.09,0c.37,0,.72-.08,1.08-.12,1.43-.13,2.83-.43,4.2-.69,2.74-.54,5.37-1.15,7.88-1.75,5-1.2,9.51-2.32,13.33-3.06A70.05,70.05,0,0,1,113.05,199.59Z"/><path class="cls-1" d="M117.33,276.57s-.28-.17-.78-.53-1.25-.86-2.23-1.49a45.23,45.23,0,0,0-8.9-4.21,48.26,48.26,0,0,0-14.34-2.56,128.56,128.56,0,0,0-17.85,1.45,169.93,169.93,0,0,1-17.88,1.71,58.61,58.61,0,0,1-14.59-1.35,37.22,37.22,0,0,1-9.26-3.44,25.34,25.34,0,0,1-2.31-1.39c-.51-.34-.77-.53-.77-.53l.81.48c.51.34,1.3.78,2.32,1.34a39.3,39.3,0,0,0,9.26,3.33,59,59,0,0,0,14.53,1.27,172.92,172.92,0,0,0,17.85-1.73,127.08,127.08,0,0,1,17.9-1.43,48,48,0,0,1,14.4,2.64,43.32,43.32,0,0,1,8.89,4.32c1,.64,1.73,1.16,2.21,1.54S117.33,276.57,117.33,276.57Z"/><path class="cls-1" d="M118.73,290.76l-.91.27c-.6.15-1.48.38-2.59.74a89.73,89.73,0,0,0-9.27,3.58,76.53,76.53,0,0,1-13.86,5,38.46,38.46,0,0,1-8.67.95,50.25,50.25,0,0,1-9.31-1c-6.3-1.27-12.1-3.25-17.43-4.78a75.88,75.88,0,0,0-14.4-2.95,37.07,37.07,0,0,0-9.88.35c-1.15.23-2,.42-2.63.61l-.92.23.9-.3a26.92,26.92,0,0,1,2.62-.66,36.27,36.27,0,0,1,9.93-.45,74.18,74.18,0,0,1,14.46,2.89c5.35,1.52,11.14,3.49,17.41,4.76a51.47,51.47,0,0,0,9.25,1,38.58,38.58,0,0,0,8.61-.93,79.38,79.38,0,0,0,13.84-5,81.47,81.47,0,0,1,9.31-3.49c1.13-.35,2-.56,2.62-.7Z"/><g class="cls-13"><path d="M118.55,273.9c.49-15.14,3-32.89.8-47,3.08,6.53,6.35,21.12,6.35,21.12a63.82,63.82,0,0,1-2,7.28c-1.69,5.72-3.45,12.9-5.14,18.62"/></g><path class="cls-1" d="M124.85,242.35s-.31-.21-.87-.63a25.83,25.83,0,0,0-2.53-1.71,30.79,30.79,0,0,0-10.57-3.69,51.26,51.26,0,0,0-16.62.22c-6.22,1-12.87,3-19.94,4.68s-14,3-20.32,2.25a46.53,46.53,0,0,1-16-4.76,35.58,35.58,0,0,1-5.46-3.41c-.73-.6-1.42-1.16-2-1.71s-1.1-1.1-1.54-1.6l-1.11-1.39a10.31,10.31,0,0,1-.71-1.09c-.37-.59-.55-.91-.55-.91l.6.88c.2.29.41.67.73,1.07l1.13,1.36c.44.49,1,1,1.55,1.57s1.29,1.09,2,1.68a36.9,36.9,0,0,0,5.46,3.36A46.58,46.58,0,0,0,54,243.18c6.26.72,13.18-.6,20.22-2.27s13.72-3.67,20-4.66a51,51,0,0,1,16.71-.14,30.48,30.48,0,0,1,10.59,3.79,25.73,25.73,0,0,1,2.51,1.77C124.57,242.11,124.85,242.35,124.85,242.35Z"/><path class="cls-2" d="M103.75,276.47a2.18,2.18,0,0,1-.56.17l-1.6.39c-1.39.33-3.42.78-5.92,1.32-5,1.07-12,2.47-19.64,3.88s-14.68,2.56-19.74,3.33c-2.54.38-4.59.68-6,.87l-1.64.2a3.46,3.46,0,0,1-.57,0,1.93,1.93,0,0,1,.56-.14l1.62-.3,6-1c5.05-.86,12-2.06,19.71-3.47S90.57,279,95.59,278l6-1.16,1.62-.29A2.49,2.49,0,0,1,103.75,276.47Z"/><path class="cls-2" d="M105.63,241a3.36,3.36,0,0,1,0,.6c-.07.39-.1,1-.28,1.72a27.91,27.91,0,0,1-2,6.09,35.23,35.23,0,0,1-5.09,8,46.07,46.07,0,0,1-8.55,7.9,83.77,83.77,0,0,1-18.83,9.51c-2.53,1-4.59,1.68-6,2.17l-1.65.54a2.51,2.51,0,0,1-.59.16,2.61,2.61,0,0,1,.56-.26l1.61-.63,6-2.32a89.09,89.09,0,0,0,18.65-9.6,47.25,47.25,0,0,0,8.5-7.77,36.48,36.48,0,0,0,5.12-7.88,30.84,30.84,0,0,0,2.13-6C105.45,241.82,105.58,241,105.63,241Z"/><path class="cls-2" d="M59.38,38.12C69.06,28.88,84,23.73,96.11,29.49c8.13,3.87,13.46,11.78,20.52,17.37,5.14,4.06,11.55,7.28,14.12,13.31,2.26,5.32.89,11.37.12,17.1s-.58,12.36,3.75,16.19c2.27,2,5.32,2.87,7.9,4.46,5.2,3.21,8.15,9.21,9.09,15.25s.13,12.19-.69,18.24l-25.39,4-3.92-7.11-1.8,10.92L87.5,141.07Z"/><path class="cls-14" d="M54.87,48.4l-.28,7L49.18,160.64c-.57,12.2,10.77,23,23.84,23.48h0c13.2.52,18.9-9.22,19.68-21.54.82-12.92,1.91-26.51,1.91-26.51s16.82-1.76,21.58-23.28c2.36-10.7,2.89-28.45,2.84-43A23,23,0,0,0,95,46.89Z"/><path class="cls-2" d="M111.44,82.63a2.79,2.79,0,0,1-2.86,2.64,2.66,2.66,0,0,1-2.72-2.68,2.79,2.79,0,0,1,2.85-2.65A2.68,2.68,0,0,1,111.44,82.63Z"/><path class="cls-2" d="M114.64,78.79c-.37.34-2.39-1.35-5.39-1.52s-5.28,1.19-5.59.81c-.15-.18.25-.81,1.25-1.45a7.62,7.62,0,0,1,4.5-1.1,7.39,7.39,0,0,1,4.25,1.67C114.54,78,114.82,78.63,114.64,78.79Z"/><path class="cls-2" d="M82.29,81.68a2.79,2.79,0,0,1-2.85,2.65,2.67,2.67,0,0,1-2.72-2.69A2.79,2.79,0,0,1,79.57,79,2.67,2.67,0,0,1,82.29,81.68Z"/><path class="cls-2" d="M85.13,77.57c-.37.35-2.39-1.34-5.38-1.51s-5.29,1.19-5.59.8c-.15-.17.24-.8,1.24-1.44a7.62,7.62,0,0,1,4.5-1.1A7.39,7.39,0,0,1,84.16,76C85,76.75,85.31,77.42,85.13,77.57Z"/><path class="cls-2" d="M94.68,100.46c0-.17,1.88-.38,4.92-.58.77,0,1.5-.14,1.66-.66a3.83,3.83,0,0,0-.37-2.3L99,91c-2.64-8.49-4.51-15.46-4.16-15.56s2.76,6.69,5.41,15.18c.63,2.1,1.24,4.09,1.81,6a4.42,4.42,0,0,1,.22,3,1.91,1.91,0,0,1-1.33,1,5.2,5.2,0,0,1-1.31.1C96.56,100.74,94.68,100.64,94.68,100.46Z"/><path class="cls-15" d="M94.61,136.07A55.42,55.42,0,0,1,66,126.56s6.17,15.35,28,14.62Z"/><path class="cls-15" d="M92.16,105.62a5.42,5.42,0,0,0-5.25.06,5,5,0,0,0-2.42,3,3.12,3.12,0,0,0,1.19,3.38,3.64,3.64,0,0,0,4-.63,11.44,11.44,0,0,0,2.62-3.62,3.16,3.16,0,0,0,.44-1.16,1,1,0,0,0-.44-1"/><path class="cls-2" d="M84.07,69.09c-.12.86-3.13,1.12-6.48,2.28S71.65,74.08,71,73.46c-.28-.29,0-1.15,1-2.17A11.95,11.95,0,0,1,82,68C83.34,68.19,84.11,68.68,84.07,69.09Z"/><path class="cls-2" d="M115.86,74.23c-.82.45-3-1-5.88-2s-5.46-1.27-5.81-2.13c-.14-.41.45-.94,1.72-1.21a10.07,10.07,0,0,1,5.13.47,9.71,9.71,0,0,1,4.28,2.82C116.11,73.22,116.23,74,115.86,74.23Z"/><path class="cls-2" d="M70.82,36.06c3.77,5.42,5.51,9.54,7.57,19,1,4.64-2.85,7.78-6.66,10.47a3,3,0,0,1-4.68-1.89h0s.82,14.45-4.6,20.74c-2.54,2.95-2.77,6.83-2.3,10.12a17.34,17.34,0,0,0,4.37,9c5.84,6.55,7.18,17,2.76,24.61a64,64,0,0,0-3.51,5.81,9.17,9.17,0,0,0-.82,3.81,3,3,0,0,1-2.67,3.13,238.23,238.23,0,0,1-54.11-.13,3,3,0,0,1-2.57-2.33c-1.22-6,1.35-12.45,4.54-17.85,3.57-6,8.05-11.78,9.44-18.65,1.3-6.47-.25-13.54,2.56-19.5C23.59,75.06,32.42,71.83,37,65.16c4.32-6.29,4.27-14.73,8.17-21.3,5-8.43,16.8-12,25.65-7.8"/><path class="cls-2" d="M71.57,44.08c6.72,3.73,9.61,12.2,16.13,16.29,5.94,3.72,13.52,3,20.48,2.22-.21-1.54-.42-3.09-.62-4.63A12.36,12.36,0,0,0,110,61.77a4.23,4.23,0,0,0,4.18,1.14c2.35-.86,2.77-4,2.25-6.5A22.57,22.57,0,0,0,110.72,46a30.71,30.71,0,0,0-39.91-4.5"/><path class="cls-2" d="M46.53,59.83a19.77,19.77,0,0,0-3-20,16.74,16.74,0,0,0-17.75-4.93,13.86,13.86,0,0,0-7.16,5.13c-3.26,4.71-2.88,11.79.17,16.61a17.94,17.94,0,0,0,13.57,8c5.26.5,10.55-.95,15.5-3.07"/><path class="cls-16" d="M37,60.92c.08-.09,1.28,1,3.51,2.34a26,26,0,0,0,4.11,1.95A29.63,29.63,0,0,0,50,66.6a28.65,28.65,0,0,0,5.55.23,26,26,0,0,0,4.5-.68c2.53-.62,4-1.32,4-1.22a3.88,3.88,0,0,1-1,.54,9.49,9.49,0,0,1-1.23.52,16.28,16.28,0,0,1-1.7.55,23,23,0,0,1-4.56.81,27.57,27.57,0,0,1-5.68-.19,27.66,27.66,0,0,1-5.49-1.46,23.61,23.61,0,0,1-4.13-2.1,16.54,16.54,0,0,1-1.46-1,10.38,10.38,0,0,1-1-.85A4.77,4.77,0,0,1,37,60.92Z"/><path class="cls-16" d="M64.69,74.34a4.56,4.56,0,0,1-1.19.33c-.78.17-1.92.39-3.33.59A30.17,30.17,0,0,1,49,75a17.32,17.32,0,0,1-9.45-5.8,11.94,11.94,0,0,1-1.73-2.93A3.91,3.91,0,0,1,37.49,65a19.34,19.34,0,0,0,2.4,3.87,17.8,17.8,0,0,0,9.27,5.5,32.74,32.74,0,0,0,11,.45c1.41-.15,2.55-.31,3.34-.41A5.65,5.65,0,0,1,64.69,74.34Z"/><path class="cls-16" d="M23.8,139.64s-.05,0-.14-.15-.21-.27-.35-.5a6.38,6.38,0,0,1-.8-2.2,10,10,0,0,1,2.66-8,20.36,20.36,0,0,1,4.67-3.69c1.82-1.11,3.86-2.13,5.87-3.39a17.66,17.66,0,0,0,5.41-5,9.44,9.44,0,0,0,1.42-3.55,11.24,11.24,0,0,0-.09-4,47.54,47.54,0,0,0-2.51-7.59,20.81,20.81,0,0,1-1.6-7.38,19.57,19.57,0,0,1,4.13-11.94,18.14,18.14,0,0,1,6.59-5.44l1.24-.55,1-.3a4.28,4.28,0,0,1,.78-.2,4.4,4.4,0,0,1-.75.31l-.91.35-1.21.58a18.72,18.72,0,0,0-6.37,5.49,19.3,19.3,0,0,0-3.92,11.69,20.1,20.1,0,0,0,1.6,7.19A49,49,0,0,1,43,109.13a11.7,11.7,0,0,1,.08,4.17,9.77,9.77,0,0,1-1.51,3.76A17.92,17.92,0,0,1,36,122.14c-2.05,1.27-4.09,2.27-5.91,3.36a20.17,20.17,0,0,0-4.62,3.56,9.86,9.86,0,0,0-2.73,7.69A7.52,7.52,0,0,0,23.8,139.64Z"/><path class="cls-16" d="M52.76,141a3.24,3.24,0,0,1-.62-.37A5,5,0,0,1,50.79,139a7.21,7.21,0,0,1-.88-3.16,12,12,0,0,1,.61-4.31c1-3.17,3.75-6,5.88-9.57a12.21,12.21,0,0,0,1.83-6.14,16.49,16.49,0,0,0-1.53-6.77c-1.92-4.44-5-8-7.06-11.73a23.92,23.92,0,0,1-2.39-5.55,13.13,13.13,0,0,1-.36-5.26,10.38,10.38,0,0,1,3.39-6.7,7.13,7.13,0,0,1,1.78-1.06,2.83,2.83,0,0,1,.68-.22A10.77,10.77,0,0,0,50.42,80a10.35,10.35,0,0,0-3.13,6.58,12.83,12.83,0,0,0,.41,5.08,23.88,23.88,0,0,0,2.39,5.42c1.06,1.81,2.32,3.63,3.6,5.54a38.29,38.29,0,0,1,3.53,6.23,17,17,0,0,1,1.57,7,12.74,12.74,0,0,1-1.94,6.4c-2.21,3.64-5,6.4-6,9.43a11.78,11.78,0,0,0-.67,4.16,7.15,7.15,0,0,0,.75,3.08A6.34,6.34,0,0,0,52.76,141Z"/><path class="cls-16" d="M98.33,60.73s-.15,0-.4-.19a7.37,7.37,0,0,1-1.06-.72,13,13,0,0,1-3-3.59,38.57,38.57,0,0,1-2.81-6.34c-.46-1.21-1-2.48-1.57-3.74a23.4,23.4,0,0,0-2.29-3.66A24.61,24.61,0,0,0,74.88,34a33.89,33.89,0,0,0-6.22-1.1,8.77,8.77,0,0,1,1.71,0,23,23,0,0,1,4.63.75,24.2,24.2,0,0,1,6.35,2.82,23.77,23.77,0,0,1,6.29,5.74A22.71,22.71,0,0,1,90,45.91c.62,1.29,1.11,2.57,1.56,3.8A41.77,41.77,0,0,0,94.2,56,14.31,14.31,0,0,0,97,59.65C97.83,60.38,98.36,60.69,98.33,60.73Z"/><path class="cls-16" d="M113.5,61.13a2.32,2.32,0,0,1-.58-.08,8.77,8.77,0,0,1-1.62-.47A14.25,14.25,0,0,1,106.23,57a31,31,0,0,1-5.14-7.61c-1.61-3-3.15-6.54-5.61-9.61a18.56,18.56,0,0,0-9-6.06,36.19,36.19,0,0,0-8.94-1.49c-2.6-.14-4.7-.1-6.16-.09H69.66a2.17,2.17,0,0,1-.58,0,2.3,2.3,0,0,1,.58-.09L71.33,32c1.46-.08,3.57-.18,6.18-.09a35.12,35.12,0,0,1,9.08,1.39,18.88,18.88,0,0,1,9.33,6.2c2.52,3.16,4,6.69,5.63,9.73a31.71,31.71,0,0,0,5,7.57,14.45,14.45,0,0,0,4.87,3.61C112.71,61,113.52,61.07,113.5,61.13Z"/><path class="cls-16" d="M136.89,132.56c-.06,0,.31-.76.71-2.18a20.57,20.57,0,0,0-4.14-19.48c-1.21-1.44-2.61-2.82-4-4.26a37.53,37.53,0,0,1-3.89-4.46,27,27,0,0,1-2.75-4.79,26.13,26.13,0,0,1-1.6-4.73,25.49,25.49,0,0,1-.68-4.29,25.8,25.8,0,0,1,.27-6.27,15.3,15.3,0,0,1,.35-1.67,2.19,2.19,0,0,1,.18-.56c.05,0-.14.81-.31,2.27a27.6,27.6,0,0,0-.09,6.2A27.51,27.51,0,0,0,126,101.86a38.72,38.72,0,0,0,3.84,4.38c1.41,1.44,2.82,2.83,4,4.3a20.49,20.49,0,0,1,5,13.72,19.47,19.47,0,0,1-1.05,6.19,12.5,12.5,0,0,1-.64,1.58A1.87,1.87,0,0,1,136.89,132.56Z"/><path class="cls-16" d="M18.21,55a5.25,5.25,0,0,1,.21-1.39,14.57,14.57,0,0,1,1.36-3.53,14.36,14.36,0,0,1,9-7.29A13,13,0,0,1,42,48.12a4.15,4.15,0,0,1,.67,1.18,23.83,23.83,0,0,0-3.4-3.39,12.81,12.81,0,0,0-10.4-2.37,14.43,14.43,0,0,0-8.74,6.85A28.24,28.24,0,0,0,18.21,55Z"/><path class="cls-16" d="M30.26,61.4a13.23,13.23,0,0,1,.46-3.21,15.1,15.1,0,0,1,3.22-7,6.2,6.2,0,0,1,6.76-1.68,4,4,0,0,1,1.74,1.43c.31.47.39.77.36.79A5.76,5.76,0,0,0,40.54,50a6,6,0,0,0-6.15,1.73,16.18,16.18,0,0,0-3.22,6.61A19.28,19.28,0,0,1,30.26,61.4Z"/><path class="cls-3" d="M47,41.14c.16.14-2.05,3.18-3.57,7.62s-1.78,8.33-2,8.3-.24-4,1.38-8.57S46.89,41,47,41.14Z"/><path class="cls-2" d="M0,111.81a5.45,5.45,0,0,0,2.18,1.63,6.51,6.51,0,0,0,3.16.43,7,7,0,0,0,3.85-1.63c2.47-2,3.81-5.92,3.71-10.1,0-2.1-.29-4.3-.5-6.59a26.68,26.68,0,0,1,.11-7.13A13,13,0,0,1,13.64,85a12.17,12.17,0,0,1,2.06-2.88,20.21,20.21,0,0,1,5.45-3.79c1.89-1,3.75-1.72,5.47-2.49a31.43,31.43,0,0,0,4.57-2.47,13.92,13.92,0,0,0,5.06-5.43,12.77,12.77,0,0,0,.8-2.64s0,.24-.09.71a8.55,8.55,0,0,1-.6,2,13.85,13.85,0,0,1-5.05,5.56A31.22,31.22,0,0,1,26.72,76c-1.71.77-3.56,1.55-5.44,2.5a20,20,0,0,0-5.36,3.76,11.5,11.5,0,0,0-2,2.8,12.63,12.63,0,0,0-1.1,3.38c-.84,4.81.39,9.43.37,13.67s-1.3,8.2-3.85,10.27a7.1,7.1,0,0,1-4,1.63,6.58,6.58,0,0,1-3.22-.49,5,5,0,0,1-1.69-1.17A5.15,5.15,0,0,1,0,111.81Z"/><path class="cls-2" d="M126.83,41.29a2.49,2.49,0,0,1,.2.61,3.56,3.56,0,0,1-.12,1.84,5.24,5.24,0,0,1-1.72,2.35,5,5,0,0,1-3.69,1,8.12,8.12,0,0,1-4.28-1.87,15.49,15.49,0,0,1-3.45-4.13c-1-1.61-1.89-3.38-3.08-5a25.07,25.07,0,0,0-25-10.3,26.19,26.19,0,0,0-6.42,2c-.71.34-1.27.62-1.63.83s-.58.29-.58.29a19.31,19.31,0,0,1,2.16-1.23,25.3,25.3,0,0,1,31.7,8.24c1.2,1.69,2.09,3.47,3.08,5.07a15.38,15.38,0,0,0,3.36,4.08,8,8,0,0,0,4.15,1.85,4.88,4.88,0,0,0,3.55-1,5,5,0,0,0,1.71-2.25,3.51,3.51,0,0,0,.18-1.79C126.9,41.5,126.81,41.3,126.83,41.29Z"/><path class="cls-2" d="M63.48,133.3a1,1,0,0,1,.2-.1l.57-.26c.51-.23,1.25-.59,2.16-1.11a17.39,17.39,0,0,0,6.38-6.07A13.06,13.06,0,0,0,74.56,120a11.17,11.17,0,0,0-.36-3.37,12.93,12.93,0,0,0-1.53-3.24,31.52,31.52,0,0,0-5.38-5.62c-1-.91-2.06-1.8-3.06-2.8a17.6,17.6,0,0,1-2.75-3.3,11.77,11.77,0,0,1-1-1.93,9.67,9.67,0,0,1-.48-2.1,9,9,0,0,1,.45-4.15,31.51,31.51,0,0,1,3.93-6.8,24.44,24.44,0,0,0,3.24-6.23,23.33,23.33,0,0,0,1.15-6,23,23,0,0,0-1.2-8.77,18.45,18.45,0,0,0-.91-2.25c-.23-.5-.34-.77-.34-.77s.15.25.4.74a17.5,17.5,0,0,1,1,2.24A22.51,22.51,0,0,1,69,74.42a23.71,23.71,0,0,1-1.12,6.09,24.82,24.82,0,0,1-3.25,6.32,31,31,0,0,0-3.88,6.73,8.81,8.81,0,0,0-.43,4,9.52,9.52,0,0,0,.46,2,12.87,12.87,0,0,0,1,1.88,17.59,17.59,0,0,0,2.71,3.24c1,1,2,1.88,3,2.79a31.45,31.45,0,0,1,5.41,5.69,13.05,13.05,0,0,1,1.55,3.33,10.78,10.78,0,0,1,.35,3.45,13.1,13.1,0,0,1-1.83,5.9,17.2,17.2,0,0,1-6.51,6.05A18.18,18.18,0,0,1,63.48,133.3Z"/><path class="cls-2" d="M143.59,93.62s.06,0,.16,0a2,2,0,0,1,.43.21,2.79,2.79,0,0,1,1.07,1.46,3.33,3.33,0,0,1-.32,2.83,4,4,0,0,1-3.34,1.69A5.73,5.73,0,0,1,137.4,98a12.08,12.08,0,0,1-2.74-4.55c-1.3-3.55-1.35-7.77-.94-12s1-8.34.81-12a19.22,19.22,0,0,0-.95-5.15,14.79,14.79,0,0,0-2.1-4,11.22,11.22,0,0,0-5.14-4,12.94,12.94,0,0,0-2.37-.54s.22,0,.63,0a4.33,4.33,0,0,1,.76.12,5.56,5.56,0,0,1,1,.27,11.11,11.11,0,0,1,5.28,4,15.16,15.16,0,0,1,2.17,4.08,19.42,19.42,0,0,1,1,5.22c.26,3.75-.36,7.84-.77,12.1s-.37,8.42.89,11.92a12.14,12.14,0,0,0,2.65,4.46,5.53,5.53,0,0,0,4,1.78,3.87,3.87,0,0,0,3.2-1.57,3.17,3.17,0,0,0,.35-2.69,2.75,2.75,0,0,0-1-1.44A4.14,4.14,0,0,0,143.59,93.62Z"/><path class="cls-3" d="M49.16,151.26s8.18,16.57,25.47,15.8,19.08-15.93,19.08-15.93l9.68,10.66-9.68,23.82-14.22,6.15-23.18-6.15-6.2-9.82L34.77,157.61Z"/><path class="cls-1" d="M106.72,169.07l-.86.06a11.77,11.77,0,0,0-2.41.47,17,17,0,0,0-3.52,1.67c-1.3.78-2.7,1.81-4.25,2.95a34.86,34.86,0,0,1-5.3,3.41,19.82,19.82,0,0,1-3.29,1.25,25.08,25.08,0,0,1-3.67.67c-5.11.52-10.74-.61-16.27-2.53s-10.71-4.1-15.65-5.27a25.7,25.7,0,0,0-7.13-.66,44.05,44.05,0,0,0-6.23.67,34.07,34.07,0,0,0-8.65,2.66,13.17,13.17,0,0,0-1.26.65,7.86,7.86,0,0,0-.9.54c-.47.32-.72.47-.72.47a14.22,14.22,0,0,1,2.83-1.77,33.59,33.59,0,0,1,8.66-2.77,42.89,42.89,0,0,1,6.26-.7,25.41,25.41,0,0,1,7.2.63c5,1.16,10.15,3.36,15.69,5.25s11.09,3,16.14,2.54a23.3,23.3,0,0,0,3.63-.65,20.2,20.2,0,0,0,3.25-1.21A35.78,35.78,0,0,0,95.55,174c1.56-1.13,3-2.15,4.29-2.92a16.74,16.74,0,0,1,3.57-1.64,10.7,10.7,0,0,1,2.44-.41Z"/><path class="cls-14" d="M108.78,111.8l6.58,13.26.6,7.2s.6-2.17,1.34-4.21,1.2-8.42,1.2-8.42l-4.79-9.95s-2.83-5.49.59-8.05l5.07,6.72s-4-7.72-.22-9.82l4.28,4.83a2,2,0,0,1,.93-2.92l10.83,13.89-1.34,20.49-3.72,21.27,1.77,3.18L112.67,172.6s-6-13.15-6.42-17.5,3.87-27.4,3.87-27.4-4.09-8.19-3.56-11.47S108.78,111.8,108.78,111.8Z"/><path class="cls-15" d="M114.22,175.79s0-.06-.12-.19l-.3-.61-1.13-2.39c-1-2.11-2.38-5.22-4-9.27a57.28,57.28,0,0,1-2.38-6.86,12,12,0,0,1-.19-4.16c.12-1.43.28-2.91.48-4.43.79-6.08,1.91-12.92,3.25-20.41l0,.21a49.76,49.76,0,0,1-3.11-7.77,15.05,15.05,0,0,1-.47-2.16,7.33,7.33,0,0,1-.08-1.15l0-.6.1-.57a9.37,9.37,0,0,1,.77-2.19,5.52,5.52,0,0,1,1.49-1.92l.34-.27.2.42,6.6,13.24,0,.07v.07c.19,2.26.4,4.72.61,7.21l-.78-.08,1-3,.48-1.51a14.81,14.81,0,0,0,.34-1.53c.37-2.1.58-4.3.75-6.51l0,.21c-.93-1.94-1.9-3.94-2.88-6-.49-1-1-2-1.47-3.07-.24-.51-.52-1-.74-1.58a13,13,0,0,1-.56-1.7,7.84,7.84,0,0,1-.18-3.31,4.57,4.57,0,0,1,1.74-2.88l.34-.24.24.32,5.07,6.72-.68.43a19,19,0,0,1-1.78-5.21,7.59,7.59,0,0,1,0-2.81A3.51,3.51,0,0,1,119,98l.29-.16.21.25,4.35,5.23-.66.43a3.44,3.44,0,0,1-.28-2,2.43,2.43,0,0,1,1.29-1.63l.29-.15.2.25,10.83,13.74.09.11v.14c-.5,7.37-1,14.21-1.39,20.48h0v0c-1.46,8.19-2.73,15.31-3.8,21.26l0-.15,7.1,13.14,1.86,3.5.46.91a1.17,1.17,0,0,1,.14.32s-.07-.09-.19-.29l-.52-.88-2-3.44c-1.69-3-4.17-7.46-7.29-13l0-.07v-.08c1-6,2.24-13.09,3.64-21.29v0c.39-6.26.82-13.11,1.29-20.48l.08.25q-5.19-6.54-10.88-13.7l.49.1a1.64,1.64,0,0,0-.88,1.1,2.62,2.62,0,0,0,.22,1.52l1.19,2.63-1.85-2.21-4.36-5.21.5.09a2.71,2.71,0,0,0-1.3,1.82,6.72,6.72,0,0,0,0,2.49,18.51,18.51,0,0,0,1.7,5l-.69.43q-2.5-3.32-5.08-6.71l.58.08a3.7,3.7,0,0,0-1.43,2.37,7.09,7.09,0,0,0,.17,3,11.36,11.36,0,0,0,.52,1.59c.2.5.47,1,.71,1.53l1.48,3.07,2.88,6,0,.1v.11c-.18,2.23-.4,4.43-.77,6.59a13.5,13.5,0,0,1-.37,1.62c-.16.52-.32,1-.49,1.54l-.94,3-.62,1.93-.17-2c-.2-2.49-.4-4.94-.59-7.2l0,.14-6.56-13.26.54.14a5.12,5.12,0,0,0-1.26,1.64,8.26,8.26,0,0,0-.7,2,8.36,8.36,0,0,0,.37,4.13,49.26,49.26,0,0,0,3,7.66l0,.1,0,.11c-1.38,7.47-2.55,14.31-3.38,20.36-.21,1.52-.38,3-.51,4.4a11.2,11.2,0,0,0,.14,4,59.11,59.11,0,0,0,2.28,6.82c1.58,4.06,2.93,7.19,3.84,9.33l1,2.43.26.63A1,1,0,0,1,114.22,175.79Z"/><path class="cls-15" d="M124.48,130.28a15.84,15.84,0,0,1,0-3.53c.12-2.18.34-5.18.63-8.49l.08-.91.07.27C123.55,115,122,112.7,121,111a12.88,12.88,0,0,1-1.57-2.83,13.69,13.69,0,0,1,2,2.52c1.18,1.62,2.77,3.89,4.52,6.47l.08.12v.15c0,.28,0,.59-.08.91-.29,3.3-.6,6.3-.87,8.46A14.28,14.28,0,0,1,124.48,130.28Z"/><path class="cls-15" d="M130.16,124.6a13.44,13.44,0,0,1,0-3.23c.11-2,.31-4.77.58-7.88l.08.29-.6-.78c-2-2.66-3.84-5.09-5.11-6.87a15,15,0,0,1-1.93-3,15.41,15.41,0,0,1,2.39,2.64c1.39,1.69,3.27,4.06,5.3,6.72l.6.78.1.13v.16c-.29,3.1-.59,5.86-.84,7.85A12.78,12.78,0,0,1,130.16,124.6Z"/><path class="cls-3" d="M107.48,168.15l26.81-11.32s39,87.41,41.24,93.06c5.38,13.31.06,33.06-14.58,32.71-6.9-.17-26.66-2.85-32-23.84-1.69-6.58-6.49-22.35-6.49-22.35Z"/><path class="cls-2" d="M134.29,156.83a2.53,2.53,0,0,1-.47.26l-1.41.68L127,160.31l-19.27,9,.13-.24c1.59,8.94,3.57,19.57,6,30.87,3.48,16.41,7.28,31.12,10.2,41.72,1.49,5.26,2.69,9.53,3.54,12.52.41,1.45.74,2.59,1,3.41l.24.88a2,2,0,0,1,.07.31s-.05-.09-.12-.29-.17-.51-.29-.87c-.25-.81-.61-1.94-1.06-3.38-.91-2.94-2.19-7.2-3.71-12.49-3-10.57-6.86-25.28-10.35-41.7-2.42-11.31-4.37-21.95-5.91-30.9l0-.17.16-.07,19.34-8.81,5.42-2.43,1.44-.63A5.23,5.23,0,0,1,134.29,156.83Z"/><path class="cls-1" d="M171.19,244.3a2.62,2.62,0,0,1-.24.4l-.74,1.13a19.7,19.7,0,0,1-1.25,1.73c-.52.64-1.07,1.42-1.8,2.17l-1.1,1.22c-.39.42-.84.82-1.27,1.25-.87.88-1.9,1.71-3,2.6a44.54,44.54,0,0,1-16,8.12c-1.34.34-2.62.68-3.84.86-.6.1-1.19.23-1.76.3l-1.63.17a27.31,27.31,0,0,1-2.82.17,18.77,18.77,0,0,1-2.13,0l-1.35-.07-.47,0a2.51,2.51,0,0,1,.47,0h1.35a19.73,19.73,0,0,0,2.12,0c.83-.06,1.77-.06,2.81-.22l1.62-.19c.56-.07,1.14-.21,1.75-.31,1.21-.19,2.47-.55,3.8-.88a49.81,49.81,0,0,0,8.34-3.25,48.55,48.55,0,0,0,7.53-4.83c1.06-.88,2.09-1.69,3-2.56.44-.42.89-.81,1.28-1.23l1.11-1.19c.73-.75,1.29-1.51,1.82-2.14a19.71,19.71,0,0,0,1.29-1.69l.79-1.09A2.1,2.1,0,0,1,171.19,244.3Z"/><path class="cls-1" d="M163.83,220.61a2.24,2.24,0,0,1-.21.41c-.16.27-.35.67-.68,1.15a22,22,0,0,1-3.12,3.8,23.28,23.28,0,0,1-5.94,4.21,22.63,22.63,0,0,1-8.57,2.39,60.17,60.17,0,0,1-8.91-.4,25.78,25.78,0,0,0-7.21.24,13,13,0,0,0-4.52,1.74c-1,.62-1.42,1.09-1.44,1.06a7.53,7.53,0,0,1,1.37-1.16,12.68,12.68,0,0,1,4.54-1.86,25.71,25.71,0,0,1,7.28-.31,61.44,61.44,0,0,0,8.86.38,22.8,22.8,0,0,0,8.48-2.34,23.65,23.65,0,0,0,5.91-4.11,24.46,24.46,0,0,0,3.17-3.7c.34-.47.55-.87.73-1.12A2.35,2.35,0,0,1,163.83,220.61Z"/><path class="cls-1" d="M116.5,210.21s.54,0,1.5,0a14.73,14.73,0,0,0,4-.65A21.44,21.44,0,0,0,127.4,207a54.49,54.49,0,0,0,5.8-4.59,64.47,64.47,0,0,1,5.79-4.67,22.69,22.69,0,0,1,5.4-2.79,14.61,14.61,0,0,1,4-.79,8.47,8.47,0,0,1,1.51.06s-.54,0-1.5.06a15.09,15.09,0,0,0-3.95.88,23.27,23.27,0,0,0-5.32,2.82,67.09,67.09,0,0,0-5.74,4.67,52.89,52.89,0,0,1-5.85,4.59,21,21,0,0,1-5.5,2.59,13.52,13.52,0,0,1-4.06.56A7.62,7.62,0,0,1,116.5,210.21Z"/><path class="cls-1" d="M136.45,169.77a.93.93,0,0,1-.09.28,6,6,0,0,1-.34.77,8.68,8.68,0,0,1-2,2.4,12.45,12.45,0,0,1-4,2.29,23.28,23.28,0,0,1-5.5,1.14c-2,.2-3.87.28-5.57.47a26.21,26.21,0,0,0-4.47.82,15.68,15.68,0,0,0-2.84,1.14c-.63.34-1,.57-1,.55s.07-.08.22-.19a7.89,7.89,0,0,1,.71-.47,13.88,13.88,0,0,1,2.83-1.24,25.14,25.14,0,0,1,4.5-.9c1.71-.2,3.6-.29,5.57-.49a24.25,24.25,0,0,0,5.44-1.1,12.91,12.91,0,0,0,3.93-2.19A9.58,9.58,0,0,0,136.45,169.77Z"/></g></g></svg>