<svg xmlns="http://www.w3.org/2000/svg" viewBox="0 0 220 220"><defs><style>.cls-1{fill:#fff;}.cls-2{fill:#fafafa;}.cls-3{fill:#263238;}.cls-4{fill:#e8505b;}.cls-5{font-size:9px;font-family:MyriadPro-Regular, Myriad Pro;}.cls-6{letter-spacing:-0.08em;}.cls-7{letter-spacing:-0.01em;}.cls-8{letter-spacing:-0.01em;}.cls-9{letter-spacing:-0.01em;}.cls-10{letter-spacing:0.01em;}.cls-11{letter-spacing:0em;}.cls-12{letter-spacing:0.01em;}.cls-13{opacity:0.3;}.cls-14{fill:#ffbe9d;}.cls-15{fill:#eb996e;}.cls-16{fill:#455a64;}</style></defs><g id="Capa_2" data-name="Capa 2"><g id="Character"><rect class="cls-1" width="220" height="220"/><path class="cls-2" d="M34.12,34.69H190.83A17.92,17.92,0,0,1,208.75,52.6V185.31a0,0,0,0,1,0,0H16.2a0,0,0,0,1,0,0V52.6A17.92,17.92,0,0,1,34.12,34.69Z"/><path class="cls-3" d="M181.18,149.39c0,.07-31.06.13-69.38.13s-69.38-.06-69.38-.13,31.06-.13,69.38-.13S181.18,149.32,181.18,149.39Z"/><path class="cls-3" d="M168.43,158c0,.07-23.74.13-53,.13s-53-.06-53-.13,23.73-.13,53-.13S168.43,158,168.43,158Z"/><rect class="cls-4" x="16.2" y="34.69" width="192.54" height="58.41"/><path class="cls-3" d="M209,185.56H16V34.44H209Zm-192.55-.5h192V34.94h-192Z"/><path class="cls-3" d="M103,104.57l-4.33,13.22H95.43l-2.91-9-3,9H86.26l-4.34-13.22h3.17l3,9.29,3.11-9.29H94l3,9.37,3.08-9.37Z"/><path class="cls-3" d="M112.76,112v5.8H110v-1.27a3.34,3.34,0,0,1-3.1,1.42c-2.38,0-3.79-1.32-3.79-3.08s1.26-3,4.36-3h2.34c0-1.26-.76-2-2.34-2a4.93,4.93,0,0,0-2.93.94l-1.06-2.05a7.78,7.78,0,0,1,4.38-1.23C111,107.48,112.76,108.91,112.76,112Zm-2.94,2.59v-1h-2c-1.38,0-1.81.51-1.81,1.19s.62,1.23,1.66,1.23A2.18,2.18,0,0,0,109.82,114.58Z"/><path class="cls-3" d="M121.73,107.48v2.72c-.25,0-.43,0-.66,0a2.5,2.5,0,0,0-2.7,2.83v4.8h-3V107.63h2.82V109A4.08,4.08,0,0,1,121.73,107.48Z"/><path class="cls-3" d="M133.87,112v5.82h-3v-5.36c0-1.65-.75-2.4-2-2.4s-2.44.87-2.44,2.74v5h-2.94V107.63h2.81v1.19a4.43,4.43,0,0,1,3.36-1.34C132.06,107.48,133.87,108.88,133.87,112Z"/><path class="cls-3" d="M136.17,104.57a1.69,1.69,0,0,1,1.83-1.64,1.65,1.65,0,0,1,1.83,1.59,1.84,1.84,0,0,1-3.66,0Zm.36,3.06h2.95v10.16h-2.95Z"/><path class="cls-3" d="M152.59,112v5.82h-2.94v-5.36c0-1.65-.75-2.4-2.06-2.4s-2.43.87-2.43,2.74v5h-2.95V107.63H145v1.19a4.43,4.43,0,0,1,3.36-1.34C150.78,107.48,152.59,108.88,152.59,112Z"/><path class="cls-3" d="M165.85,107.63v8.46c0,3.77-2,5.51-5.7,5.51a8.34,8.34,0,0,1-5-1.4l1.17-2.11a6.08,6.08,0,0,0,3.59,1.15c2.08,0,3-.94,3-2.77V116a4.17,4.17,0,0,1-3.21,1.27,4.91,4.91,0,1,1,0-9.82,4.07,4.07,0,0,1,3.36,1.45v-1.3Zm-2.91,4.76a2.68,2.68,0,1,0-2.66,2.49A2.46,2.46,0,0,0,162.94,112.39Z"/><path class="cls-3" d="M168.15,116.22a1.82,1.82,0,0,1,3.63,0,1.82,1.82,0,0,1-3.63,0Zm.06-11.65h3.51l-.59,8.63h-2.34Z"/><path class="cls-1" d="M100.21,81.35a5,5,0,0,1-4.36-7.53L110.26,48.7a5,5,0,0,1,4.34-2.53h0a5,5,0,0,1,4.34,2.5l14.56,25a5,5,0,0,1-4.33,7.55l-29,.09Zm14.41-33.68h0a3.48,3.48,0,0,0-3,1.77L97.16,74.57a3.53,3.53,0,0,0,3,5.28h0l29-.09a3.53,3.53,0,0,0,3-5.3l-14.56-25A3.48,3.48,0,0,0,114.62,47.67Z"/><path class="cls-1" d="M112.61,73.21a1.92,1.92,0,1,1,2,1.86A1.87,1.87,0,0,1,112.61,73.21Zm.06-15.08,3.55,0-.52,11.23-2.37,0Z"/><path class="cls-1" d="M96.52,87a3.69,3.69,0,0,1-.65-.23,9.87,9.87,0,0,1-1.65-.9A10.92,10.92,0,0,1,89.5,75.06,9.76,9.76,0,0,1,90,73.24a3.2,3.2,0,0,1,.28-.63,18.49,18.49,0,0,0-.55,2.48,11.18,11.18,0,0,0,4.65,10.65A19.57,19.57,0,0,0,96.52,87Z"/><path class="cls-1" d="M90.34,86.4a1.55,1.55,0,0,1-.33-.25,8,8,0,0,1-.8-.82,10.79,10.79,0,0,1-1.92-3.25,10.93,10.93,0,0,1-.7-3.7,7.88,7.88,0,0,1,.07-1.14,1.18,1.18,0,0,1,.08-.42c.05,0,0,.6,0,1.55a12,12,0,0,0,2.57,6.84C89.94,86,90.37,86.37,90.34,86.4Z"/><path class="cls-1" d="M140.87,69a1.92,1.92,0,0,1,.19.55,4.43,4.43,0,0,1,.17.66,8.42,8.42,0,0,1,.15.88,13.25,13.25,0,0,1,.09,2.35,14.41,14.41,0,0,1-.45,2.83,14.25,14.25,0,0,1-1,2.68,12.37,12.37,0,0,1-1.26,2c-.2.27-.41.49-.58.69a4.33,4.33,0,0,1-.47.48,2.53,2.53,0,0,1-.44.38s.57-.6,1.34-1.66a14.71,14.71,0,0,0,1.2-2,16.53,16.53,0,0,0,1-2.64,15.48,15.48,0,0,0,.46-2.78,14.45,14.45,0,0,0,0-2.31C141.06,69.78,140.82,69,140.87,69Z"/><path class="cls-1" d="M144.15,74.48a4.93,4.93,0,0,1,.07,1.32,13.06,13.06,0,0,1-.49,3.14,13.22,13.22,0,0,1-1.21,3,4.68,4.68,0,0,1-.74,1.09,10.07,10.07,0,0,1,.58-1.18,17.78,17.78,0,0,0,1.12-2.93,16.27,16.27,0,0,0,.55-3.08A10.91,10.91,0,0,1,144.15,74.48Z"/><text class="cls-5" transform="translate(87.82 130.68)"><tspan class="cls-6">Y</tspan><tspan x="4.19" y="0">ou h</tspan><tspan class="cls-7" x="21" y="0">a</tspan><tspan class="cls-8" x="25.27" y="0">v</tspan><tspan x="29.51" y="0">e </tspan><tspan class="cls-9" x="35.93" y="0">t</tspan><tspan x="38.85" y="0">o sele</tspan><tspan class="cls-10" x="60.42" y="0">c</tspan><tspan x="64.57" y="0">t </tspan><tspan class="cls-11" x="69.46" y="0">a</tspan><tspan x="73.76" y="0">t </tspan><tspan x="4" y="10.8">least one difficul</tspan><tspan class="cls-12" x="65.44" y="10.8">t</tspan><tspan x="68.5" y="10.8">y</tspan></text><path class="cls-4" d="M16.31,111.11s10.87-2.89,11.53-2.36c3.33,2.65,21,.57,21,.57l16.81,4.75s2.73,20.14,4.58,28c1.23,5.24-3.39,13.11-3.39,13.11l-5.93,21.5L66,185.18l-49.67,0v-74Z"/><path class="cls-2" d="M59.56,134.27a3.85,3.85,0,0,1-.44,0c-.28,0-.71.05-1.25.12a44.29,44.29,0,0,0-4.54.73c-1.91.39-4.16,1-6.66,1.56-1.25.3-2.57.61-4,.89-.69.13-1.38.28-2.11.35l-.55.06h-.55c-.37,0-.74,0-1.11,0a50.94,50.94,0,0,1-8.3-1.16c-2.52-.53-4.78-1.06-6.68-1.47s-3.45-.74-4.53-.9c-.53-.1-.95-.14-1.24-.18l-.43-.07s.6,0,1.68.19,2.63.45,4.54.85,4.17.92,6.69,1.44a50.91,50.91,0,0,0,8.28,1.14c.37,0,.73,0,1.1,0l.54,0c.18,0,.36,0,.54-.06a20,20,0,0,0,2.1-.34c1.38-.27,2.69-.58,3.94-.88,2.51-.6,4.76-1.16,6.67-1.53A35.5,35.5,0,0,1,59.56,134.27Z"/><path class="cls-2" d="M61.69,172.78l-.38-.26c-.25-.18-.63-.43-1.12-.75a22.94,22.94,0,0,0-4.45-2.1,24.3,24.3,0,0,0-7.17-1.29,65.78,65.78,0,0,0-8.93.73,86.57,86.57,0,0,1-8.95.86,29.62,29.62,0,0,1-7.3-.68,18.22,18.22,0,0,1-4.63-1.72,12.2,12.2,0,0,1-1.15-.69l-.39-.27.4.24c.26.17.66.39,1.17.67a19.24,19.24,0,0,0,4.63,1.66,29,29,0,0,0,7.27.64,86.48,86.48,0,0,0,8.93-.86,61.36,61.36,0,0,1,9-.72,24.34,24.34,0,0,1,7.2,1.32,22,22,0,0,1,4.45,2.16c.49.32.86.58,1.11.77Z"/><path class="cls-2" d="M62.4,179.88l-.46.14c-.3.07-.74.19-1.3.37A43,43,0,0,0,56,182.18a39.18,39.18,0,0,1-6.93,2.52,19,19,0,0,1-4.34.48,25.19,25.19,0,0,1-4.66-.52c-3.15-.64-6-1.63-8.71-2.39a38.23,38.23,0,0,0-7.21-1.48,18.48,18.48,0,0,0-4.94.18q-.87.17-1.32.3l-.46.12.45-.15a12.13,12.13,0,0,1,1.31-.33,18.35,18.35,0,0,1,5-.23,37.21,37.21,0,0,1,7.23,1.45c2.68.76,5.57,1.74,8.71,2.38a25.72,25.72,0,0,0,4.63.51,18.74,18.74,0,0,0,4.31-.46A39.58,39.58,0,0,0,56,182.08a40.6,40.6,0,0,1,4.66-1.75c.56-.17,1-.28,1.31-.35Z"/><g class="cls-13"><path d="M62.31,171.45c.24-7.57,1.51-16.45.4-23.52,1.54,3.26,3.17,10.56,3.17,10.56a32.65,32.65,0,0,1-1,3.64c-.85,2.86-1.73,6.46-2.57,9.32"/></g><path class="cls-2" d="M65.46,155.67l-.44-.32c-.27-.22-.7-.5-1.26-.86a15.69,15.69,0,0,0-5.29-1.84,25.63,25.63,0,0,0-8.31.11c-3.11.5-6.44,1.47-10,2.34s-7,1.49-10.16,1.12a23.08,23.08,0,0,1-8-2.37,18.71,18.71,0,0,1-2.73-1.71c-.37-.3-.71-.58-1-.86s-.55-.55-.77-.8l-.56-.69c-.15-.2-.25-.4-.35-.54-.19-.3-.28-.46-.28-.46l.31.44c.1.14.2.33.36.53l.57.68c.22.25.49.5.77.79s.65.54,1,.84a18.71,18.71,0,0,0,2.73,1.68,23.5,23.5,0,0,0,8,2.33c3.14.36,6.59-.3,10.12-1.13s6.86-1.84,10-2.33a25.31,25.31,0,0,1,8.36-.08,15.26,15.26,0,0,1,5.3,1.9,11.26,11.26,0,0,1,1.25.89Z"/><path class="cls-3" d="M54.9,172.73a1.1,1.1,0,0,1-.27.09l-.81.19c-.69.17-1.71.39-3,.66-2.51.54-6,1.24-9.82,2s-7.35,1.28-9.88,1.66c-1.27.19-2.29.34-3,.43l-.82.11a.91.91,0,0,1-.29,0,1.24,1.24,0,0,1,.28-.07l.81-.15,3-.51c2.53-.43,6-1,9.86-1.74s7.32-1.38,9.83-1.87l3-.57.81-.15Z"/><path class="cls-3" d="M55.84,155a1.36,1.36,0,0,1,0,.3c0,.2,0,.49-.14.86a13.71,13.71,0,0,1-1,3,17.71,17.71,0,0,1-2.55,4,22.41,22.41,0,0,1-4.28,3.94,42,42,0,0,1-9.41,4.77c-1.27.47-2.3.83-3,1.08l-.83.27-.29.08a1.16,1.16,0,0,1,.27-.13l.81-.32,3-1.16A44.45,44.45,0,0,0,47.7,167,23,23,0,0,0,52,163.06a17.94,17.94,0,0,0,2.56-3.94,15.39,15.39,0,0,0,1.07-3C55.75,155.4,55.82,155,55.84,155Z"/><path class="cls-3" d="M32.71,53.5c4.84-4.62,12.33-7.19,18.37-4.31,4.07,1.93,6.74,5.89,10.27,8.68,2.57,2,5.77,3.65,7.06,6.66,1.13,2.66.44,5.69.06,8.56s-.29,6.18,1.87,8.1c1.14,1,2.67,1.43,4,2.23,2.6,1.6,4.07,4.61,4.54,7.63a31.76,31.76,0,0,1-.34,9.12l-12.7,2-2-3.56-.91,5.46L46.77,105Z"/><path class="cls-14" d="M30.45,58.65l-.14,3.51-2.7,52.63c-.29,6.11,5.39,11.49,11.92,11.75h0c6.6.26,9.46-4.62,9.85-10.78.4-6.46.95-13.26.95-13.26s8.42-.88,10.8-11.64c1.18-5.36,1.44-14.24,1.42-21.51a11.51,11.51,0,0,0-12-11.46Z"/><path class="cls-3" d="M58.75,75.77a1.4,1.4,0,0,1-1.43,1.32A1.33,1.33,0,0,1,56,75.75a1.4,1.4,0,0,1,1.43-1.33A1.34,1.34,0,0,1,58.75,75.77Z"/><path class="cls-3" d="M60.35,73.85c-.18.17-1.19-.68-2.69-.76s-2.65.6-2.8.4.12-.4.62-.72a3.82,3.82,0,0,1,2.25-.55,3.65,3.65,0,0,1,2.13.83C60.3,73.43,60.44,73.77,60.35,73.85Z"/><path class="cls-3" d="M44.17,75.29a1.4,1.4,0,0,1-1.43,1.33,1.34,1.34,0,0,1-1.36-1.34A1.4,1.4,0,0,1,42.81,74,1.33,1.33,0,0,1,44.17,75.29Z"/><path class="cls-3" d="M45.59,73.24c-.18.17-1.19-.67-2.69-.76s-2.65.6-2.8.41.12-.41.62-.73A3.82,3.82,0,0,1,43,71.61a3.71,3.71,0,0,1,2.13.83C45.54,72.83,45.68,73.16,45.59,73.24Z"/><path class="cls-3" d="M50.36,84.69a10.31,10.31,0,0,1,2.47-.29c.38,0,.75-.07.83-.33a1.93,1.93,0,0,0-.19-1.15c-.3-1-.62-1.94-1-3-1.32-4.24-2.25-7.72-2.08-7.78s1.38,3.35,2.71,7.6c.31,1,.62,2,.9,3a2.2,2.2,0,0,1,.11,1.51,1,1,0,0,1-.66.52,2.69,2.69,0,0,1-.66.06A9.42,9.42,0,0,1,50.36,84.69Z"/><path class="cls-15" d="M50.33,102.5A27.7,27.7,0,0,1,36,97.74s3.08,7.68,14,7.32Z"/><path class="cls-15" d="M49.11,87.27a2.73,2.73,0,0,0-2.63,0,2.5,2.5,0,0,0-1.21,1.51,1.59,1.59,0,0,0,.6,1.7,1.82,1.82,0,0,0,2-.32,5.83,5.83,0,0,0,1.32-1.81,1.93,1.93,0,0,0,.22-.58.5.5,0,0,0-.23-.51"/><path class="cls-3" d="M45.06,69c-.06.43-1.57.56-3.24,1.14s-3,1.35-3.28,1c-.14-.14,0-.57.5-1.08a6,6,0,0,1,5-1.67C44.69,68.55,45.08,68.79,45.06,69Z"/><path class="cls-3" d="M61,71.57c-.41.22-1.5-.5-2.94-1s-2.73-.63-2.91-1.06c-.07-.21.23-.47.86-.61a5,5,0,0,1,2.57.24,4.8,4.8,0,0,1,2.14,1.41C61.09,71.06,61.15,71.45,61,71.57Z"/><path class="cls-3" d="M38.43,52.48c1.89,2.7,2.76,4.77,3.79,9.51.5,2.32-1.43,3.89-3.33,5.23a1.51,1.51,0,0,1-2.35-.94h0s.42,7.23-2.3,10.38a6.21,6.21,0,0,0-1.14,5.06,8.59,8.59,0,0,0,2.18,4.48,10.9,10.9,0,0,1,1.38,12.32,31.89,31.89,0,0,0-1.75,2.9,4.38,4.38,0,0,0-.41,1.91,1.52,1.52,0,0,1-1.34,1.56,119,119,0,0,1-27.07-.06,1.5,1.5,0,0,1-1.29-1.17c-.6-3,.68-6.23,2.28-8.93,1.78-3,4-5.89,4.72-9.33.65-3.23-.12-6.77,1.28-9.75C14.81,72,19.22,70.37,21.51,67c2.17-3.15,2.14-7.37,4.09-10.65a10.3,10.3,0,0,1,12.83-3.9"/><path class="cls-3" d="M38.8,56.48c3.37,1.87,4.81,6.11,8.07,8.15,3,1.87,6.77,1.52,10.25,1.12-.1-.78-.21-1.55-.31-2.32A6.36,6.36,0,0,0,58,65.34a2.11,2.11,0,0,0,2.09.56c1.18-.43,1.38-2,1.13-3.25a11.39,11.39,0,0,0-2.86-5.22,15.36,15.36,0,0,0-20-2.25"/><path class="cls-3" d="M26.28,64.36a9.87,9.87,0,0,0-1.52-10,8.39,8.39,0,0,0-8.88-2.47,7,7,0,0,0-3.58,2.57,7.9,7.9,0,0,0,.08,8.31,9,9,0,0,0,6.79,4,16.12,16.12,0,0,0,7.76-1.54"/><path class="cls-16" d="M21.51,64.91s.64.51,1.76,1.17A13.13,13.13,0,0,0,28,67.75a14.79,14.79,0,0,0,2.78.12,13.07,13.07,0,0,0,2.25-.34c1.26-.31,2-.67,2-.61a2.78,2.78,0,0,1-.5.27c-.17.08-.37.17-.62.26a8.61,8.61,0,0,1-.85.27,11.84,11.84,0,0,1-2.28.41A13.8,13.8,0,0,1,28,68a13.46,13.46,0,0,1-2.75-.73,12.27,12.27,0,0,1-2.06-1c-.29-.17-.52-.36-.73-.51a3.6,3.6,0,0,1-.52-.43A2.23,2.23,0,0,1,21.51,64.91Z"/><path class="cls-16" d="M35.37,71.62a2.59,2.59,0,0,1-.6.17c-.39.08-1,.19-1.67.29a15,15,0,0,1-5.57-.15A8.71,8.71,0,0,1,22.8,69a6,6,0,0,1-.86-1.46,1.79,1.79,0,0,1-.18-.6A9.71,9.71,0,0,0,23,68.9a8.88,8.88,0,0,0,4.64,2.76,16.35,16.35,0,0,0,5.48.22c.7-.07,1.27-.15,1.67-.2A3.08,3.08,0,0,1,35.37,71.62Z"/><path class="cls-16" d="M14.91,104.29a.3.3,0,0,1-.07-.08,1.3,1.3,0,0,1-.17-.25,3,3,0,0,1-.4-1.1,5,5,0,0,1,1.32-4A10.56,10.56,0,0,1,17.93,97c.91-.56,1.93-1.07,2.94-1.7a8.79,8.79,0,0,0,2.7-2.47,4.48,4.48,0,0,0,.71-1.78,5.51,5.51,0,0,0,0-2A24.86,24.86,0,0,0,23,85.28a10.38,10.38,0,0,1-.8-3.69,9.79,9.79,0,0,1,2.06-6,9.08,9.08,0,0,1,3.3-2.72l.62-.28.47-.14a2.54,2.54,0,0,1,.39-.11,1.37,1.37,0,0,1-.37.16l-.46.17-.6.29a9.41,9.41,0,0,0-3.19,2.75,9.62,9.62,0,0,0-2,5.85,10.32,10.32,0,0,0,.8,3.6A24,24,0,0,1,24.52,89a5.82,5.82,0,0,1,0,2.08A4.92,4.92,0,0,1,23.81,93,9,9,0,0,1,21,95.53c-1,.64-2.05,1.14-3,1.68A10.52,10.52,0,0,0,15.74,99a4.91,4.91,0,0,0-1.36,3.85A3.92,3.92,0,0,0,14.91,104.29Z"/><path class="cls-16" d="M29.4,105a1.68,1.68,0,0,1-.31-.19,2.43,2.43,0,0,1-.68-.79A3.57,3.57,0,0,1,28,102.4a6,6,0,0,1,.31-2.16c.49-1.58,1.87-3,2.94-4.78a6.16,6.16,0,0,0,.91-3.07A8.23,8.23,0,0,0,31.37,89c-1-2.22-2.5-4-3.53-5.87a11.86,11.86,0,0,1-1.2-2.77,6.69,6.69,0,0,1-.18-2.64,5.23,5.23,0,0,1,1.69-3.35,3.66,3.66,0,0,1,.9-.53,1.79,1.79,0,0,1,.34-.11,5.43,5.43,0,0,0-1.16.73,5.12,5.12,0,0,0-1.57,3.29,6.41,6.41,0,0,0,.21,2.54A11.85,11.85,0,0,0,28.06,83c.53.91,1.16,1.82,1.8,2.78a19.49,19.49,0,0,1,1.77,3.11,8.52,8.52,0,0,1,.78,3.5,6.24,6.24,0,0,1-1,3.2c-1.1,1.83-2.48,3.21-3,4.72a5.79,5.79,0,0,0-.34,2.08,3.48,3.48,0,0,0,.38,1.54A3.1,3.1,0,0,0,29.4,105Z"/><path class="cls-16" d="M52.19,64.81s-.07,0-.2-.09a4.16,4.16,0,0,1-.53-.36A6.66,6.66,0,0,1,50,62.56a20.44,20.44,0,0,1-1.4-3.17c-.23-.61-.48-1.24-.79-1.87a11.09,11.09,0,0,0-1.14-1.83,12.36,12.36,0,0,0-6.16-4.26,18.1,18.1,0,0,0-3.11-.55,4.39,4.39,0,0,1,.86,0,11.19,11.19,0,0,1,2.31.38,12.09,12.09,0,0,1,6.33,4.28A11.37,11.37,0,0,1,48,57.4a18.19,18.19,0,0,1,.78,1.9,21.13,21.13,0,0,0,1.34,3.16,7.13,7.13,0,0,0,1.4,1.82C51.94,64.64,52.21,64.79,52.19,64.81Z"/><path class="cls-16" d="M59.78,65a1.58,1.58,0,0,1-.29,0,4.37,4.37,0,0,1-.81-.24A7.07,7.07,0,0,1,56.14,63a15.8,15.8,0,0,1-2.57-3.81,28.6,28.6,0,0,0-2.8-4.81,9.37,9.37,0,0,0-4.53-3,18,18,0,0,0-4.47-.74c-1.3-.07-2.35,0-3.08,0h-.84a.94.94,0,0,1-.29,0,1.36,1.36,0,0,1,.29,0l.84-.06c.73,0,1.78-.09,3.09,0a17.22,17.22,0,0,1,4.54.7A9.45,9.45,0,0,1,51,54.18,27.28,27.28,0,0,1,53.8,59a16,16,0,0,0,2.49,3.79,7.36,7.36,0,0,0,2.43,1.81C59.39,64.92,59.79,65,59.78,65Z"/><path class="cls-16" d="M71.48,100.75s.15-.39.36-1.09a10.47,10.47,0,0,0,.42-3.06,10.18,10.18,0,0,0-2.49-6.69c-.61-.72-1.31-1.41-2-2.13a19.24,19.24,0,0,1-1.94-2.23,13.6,13.6,0,0,1-1.38-2.4,13.15,13.15,0,0,1-.8-2.36,14,14,0,0,1-.34-2.15,12.55,12.55,0,0,1,.14-3.13,6.7,6.7,0,0,1,.17-.84,1.09,1.09,0,0,1,.09-.28s-.07.4-.16,1.13a14.51,14.51,0,0,0,0,3.1,13.4,13.4,0,0,0,.37,2.11,13.68,13.68,0,0,0,.81,2.32A14,14,0,0,0,66,85.39,19.41,19.41,0,0,0,68,87.58c.7.72,1.4,1.41,2,2.15a10.71,10.71,0,0,1,1.51,2.32,10.3,10.3,0,0,1,1,4.55,9.75,9.75,0,0,1-.52,3.09,6,6,0,0,1-.32.79A1.16,1.16,0,0,1,71.48,100.75Z"/><path class="cls-16" d="M12.12,62a2.24,2.24,0,0,1,.1-.69,7.6,7.6,0,0,1,.68-1.77,7.2,7.2,0,0,1,4.5-3.65A6.58,6.58,0,0,1,24,58.5a2.15,2.15,0,0,1,.34.6,12.11,12.11,0,0,0-1.7-1.7,6.39,6.39,0,0,0-5.2-1.18,7.21,7.21,0,0,0-4.38,3.42A12.84,12.84,0,0,0,12.12,62Z"/><path class="cls-16" d="M18.14,65.15a7,7,0,0,1,.23-1.61A7.68,7.68,0,0,1,20,60a3.11,3.11,0,0,1,3.38-.84,2,2,0,0,1,.88.72.92.92,0,0,1,.18.39,3,3,0,0,0-1.14-.86,3,3,0,0,0-3.07.86,8.07,8.07,0,0,0-1.61,3.31A9.28,9.28,0,0,1,18.14,65.15Z"/><path class="cls-4" d="M26.51,55a33.91,33.91,0,0,0-1.79,3.81,34.63,34.63,0,0,0-1,4.15,10.27,10.27,0,0,1,.69-4.29A9.49,9.49,0,0,1,26.51,55Z"/><path class="cls-3" d="M3,90.37a2.9,2.9,0,0,0,1.1.81,3.17,3.17,0,0,0,1.58.22,3.44,3.44,0,0,0,1.92-.82,6.37,6.37,0,0,0,1.86-5c0-1-.15-2.15-.25-3.3a13.38,13.38,0,0,1,0-3.57,6.51,6.51,0,0,1,.57-1.73,5.91,5.91,0,0,1,1-1.44,10.38,10.38,0,0,1,2.72-1.9c.95-.47,1.88-.86,2.74-1.24a15.14,15.14,0,0,0,2.28-1.24,6.9,6.9,0,0,0,2.54-2.72,6.33,6.33,0,0,0,.4-1.31s0,.12-.05.35a3.94,3.94,0,0,1-.3,1,6.84,6.84,0,0,1-2.52,2.78,14.57,14.57,0,0,1-2.3,1.27c-.86.39-1.78.77-2.72,1.25A10,10,0,0,0,11,75.6,5.58,5.58,0,0,0,10,77a6.56,6.56,0,0,0-.55,1.69c-.42,2.41.19,4.72.18,6.84a6.47,6.47,0,0,1-1.93,5.14,3.55,3.55,0,0,1-2,.81,3.28,3.28,0,0,1-1.61-.24,2.56,2.56,0,0,1-.84-.59A3.51,3.51,0,0,1,3,90.37Z"/><path class="cls-3" d="M66.45,55.09a1.59,1.59,0,0,1,.1.31,1.78,1.78,0,0,1-.06.92,2.51,2.51,0,0,1-.86,1.17,2.55,2.55,0,0,1-1.85.53,4.09,4.09,0,0,1-2.14-.94A7.51,7.51,0,0,1,59.92,55c-.5-.8-1-1.69-1.54-2.52a13,13,0,0,0-2.13-2.33,12.74,12.74,0,0,0-13.58-1.82c-.36.17-.64.31-.82.41l-.29.15a9.67,9.67,0,0,1,1.08-.62,12.58,12.58,0,0,1,3.22-1.05A12.65,12.65,0,0,1,58.5,52.4c.6.85,1,1.74,1.54,2.54a7.77,7.77,0,0,0,1.68,2,4,4,0,0,0,2.08.93,2.45,2.45,0,0,0,1.77-.49,2.55,2.55,0,0,0,.86-1.12,1.78,1.78,0,0,0,.09-.9C66.48,55.2,66.44,55.09,66.45,55.09Z"/><path class="cls-3" d="M34.76,101.11l.1,0,.29-.13c.25-.12.62-.3,1.07-.56a8.68,8.68,0,0,0,3.19-3,6.51,6.51,0,0,0,.89-2.9,5.48,5.48,0,0,0-.18-1.69,6.31,6.31,0,0,0-.77-1.62,15.37,15.37,0,0,0-2.68-2.81c-.51-.45-1-.9-1.54-1.4a8.77,8.77,0,0,1-1.37-1.65,5.93,5.93,0,0,1-.5-1,4.31,4.31,0,0,1-.24-1,4.4,4.4,0,0,1,.23-2.07,15.19,15.19,0,0,1,2-3.4,12.58,12.58,0,0,0,1.62-3.12,11.74,11.74,0,0,0,0-7.4,9.07,9.07,0,0,0-.46-1.12c-.12-.26-.17-.39-.17-.39l.2.37a9.21,9.21,0,0,1,.48,1.12,11.16,11.16,0,0,1,.65,4.41,11.28,11.28,0,0,1-.56,3,12.31,12.31,0,0,1-1.62,3.16,15.67,15.67,0,0,0-1.94,3.37,4.39,4.39,0,0,0-.22,2,4.63,4.63,0,0,0,.24,1,6,6,0,0,0,.48.94,9.15,9.15,0,0,0,1.35,1.62c.5.49,1,.94,1.53,1.39a15.71,15.71,0,0,1,2.7,2.85,6.18,6.18,0,0,1,.78,1.67,5.37,5.37,0,0,1,.18,1.72,6.5,6.5,0,0,1-.92,3,8.59,8.59,0,0,1-3.26,3A8.81,8.81,0,0,1,34.76,101.11Z"/><path class="cls-3" d="M74.84,81.27l.07,0a1,1,0,0,1,.22.1,1.42,1.42,0,0,1,.53.73,1.64,1.64,0,0,1-.16,1.42,2,2,0,0,1-1.67.84,2.85,2.85,0,0,1-2.1-.91,5.94,5.94,0,0,1-1.36-2.27,13.92,13.92,0,0,1-.47-6,39.13,39.13,0,0,0,.4-6,9.85,9.85,0,0,0-.47-2.58,7.41,7.41,0,0,0-1.06-2,5.58,5.58,0,0,0-2.57-2A8,8,0,0,0,65,62.27l.31,0,.38.06a2.8,2.8,0,0,1,.51.14,5.47,5.47,0,0,1,2.64,2,7.44,7.44,0,0,1,1.09,2,9.68,9.68,0,0,1,.49,2.61,38,38,0,0,1-.39,6,14,14,0,0,0,.45,6,6,6,0,0,0,1.33,2.23,2.74,2.74,0,0,0,2,.89,1.94,1.94,0,0,0,1.6-.78,1.59,1.59,0,0,0,.17-1.35,1.39,1.39,0,0,0-.49-.72A2.69,2.69,0,0,0,74.84,81.27Z"/><path class="cls-4" d="M27.6,110.1s4.09,8.29,12.74,7.9,9.54-8,9.54-8l4.85,5.34-4.85,11.91-7.11,3.08-11.6-3.08-3.1-4.91-7.67-9.09Z"/><path class="cls-2" d="M56.39,119,56,119a6.61,6.61,0,0,0-1.21.23,8.57,8.57,0,0,0-1.76.84c-.65.39-1.35.91-2.12,1.48a18.35,18.35,0,0,1-2.65,1.7,10.42,10.42,0,0,1-1.65.62,10.88,10.88,0,0,1-1.84.34A19.49,19.49,0,0,1,36.59,123c-2.78-1-5.35-2.06-7.83-2.64A12.61,12.61,0,0,0,25.2,120a23.38,23.38,0,0,0-3.11.33,17.79,17.79,0,0,0-4.33,1.33,7.11,7.11,0,0,0-.63.33,3.78,3.78,0,0,0-.45.27c-.24.16-.37.23-.37.23a7,7,0,0,1,1.42-.88,16.61,16.61,0,0,1,4.34-1.39,21.82,21.82,0,0,1,3.13-.35,12.93,12.93,0,0,1,3.6.32c2.49.58,5.07,1.68,7.84,2.63a19.42,19.42,0,0,0,8.08,1.27,11.59,11.59,0,0,0,1.81-.33,9,9,0,0,0,1.63-.61,17.87,17.87,0,0,0,2.64-1.67c.78-.57,1.49-1.08,2.15-1.47a8.62,8.62,0,0,1,1.78-.81A5.21,5.21,0,0,1,56,119Z"/><path class="cls-14" d="M57.42,90.36,60.71,97l.3,3.61s.3-1.09.67-2.11a26.2,26.2,0,0,0,.6-4.21l-2.39-5s-1.42-2.74.29-4l2.54,3.35s-2-3.85-.12-4.91l2.15,2.42a1,1,0,0,1,.46-1.46l5.42,6.95L70,101.88,68.1,112.52l.89,1.59-9.63,6.67s-3-6.58-3.21-8.76,1.94-13.71,1.94-13.71S56,94.22,56.31,92.58A3.36,3.36,0,0,1,57.42,90.36Z"/><path class="cls-15" d="M60.14,122.37l-.06-.1-.15-.3-.57-1.19c-.48-1.06-1.19-2.61-2-4.64a30.22,30.22,0,0,1-1.19-3.43,6.07,6.07,0,0,1-.09-2.09c.06-.71.14-1.45.24-2.21.39-3,1-6.46,1.63-10.21v.1a24.14,24.14,0,0,1-1.55-3.88,7.69,7.69,0,0,1-.24-1.08,3.69,3.69,0,0,1,0-.58l0-.3.06-.28a4.35,4.35,0,0,1,.38-1.1,2.79,2.79,0,0,1,.74-1l.17-.13.11.2c1,2.11,2.15,4.34,3.3,6.63v.07c.09,1.13.2,2.36.3,3.6l-.39,0L61.31,99l.24-.75c.07-.24.12-.5.17-.77.18-1.05.28-2.15.37-3.25l0,.1-1.44-3c-.24-.51-.49-1-.74-1.54-.12-.25-.25-.51-.37-.79a5.24,5.24,0,0,1-.27-.85,3.86,3.86,0,0,1-.09-1.66A2.21,2.21,0,0,1,60.07,85l.16-.12.13.16,2.53,3.35-.34.22A9.59,9.59,0,0,1,61.66,86a3.67,3.67,0,0,1,0-1.4,1.78,1.78,0,0,1,.85-1.17l.15-.08.1.13L65,86.12l-.33.22a1.69,1.69,0,0,1-.14-1,1.17,1.17,0,0,1,.64-.81l.15-.08.1.13c1.88,2.39,3.69,4.69,5.42,6.87l0,.06v.07c-.26,3.68-.49,7.11-.7,10.24h0c-.74,4.09-1.37,7.66-1.9,10.63l0-.07L71.77,119c.4.76.71,1.35.93,1.75l.23.46a.84.84,0,0,1,.07.16s0,0-.1-.15l-.26-.44-1-1.72L68,112.49l0,0v0c.51-3,1.11-6.55,1.81-10.65v0q.3-4.71.65-10.25l0,.13L65.06,84.8l.24,0a.86.86,0,0,0-.44.55,1.34,1.34,0,0,0,.11.76l.6,1.32-.93-1.1-2.18-2.61.25,0a1.4,1.4,0,0,0-.65.91,3.28,3.28,0,0,0,0,1.25,9.34,9.34,0,0,0,.85,2.48l-.34.22L60,85.31l.28,0a1.91,1.91,0,0,0-.71,1.19A3.55,3.55,0,0,0,59.69,88a5.19,5.19,0,0,0,.25.79c.1.26.24.51.36.77.25.52.5,1,.74,1.54l1.44,3,0,0v0c-.09,1.12-.2,2.21-.38,3.3a7.91,7.91,0,0,1-.19.81l-.24.76-.47,1.48-.31,1-.09-1-.29-3.61,0,.07-3.29-6.63.28.07a2.46,2.46,0,0,0-.63.82,4.06,4.06,0,0,0-.36,1,4.17,4.17,0,0,0,.19,2.06,24.23,24.23,0,0,0,1.51,3.83l0,.06v.05c-.69,3.74-1.27,7.16-1.69,10.19-.11.75-.19,1.49-.26,2.19a6.08,6.08,0,0,0,.07,2,31.82,31.82,0,0,0,1.14,3.42c.79,2,1.47,3.6,1.93,4.66.22.53.4.94.52,1.22l.13.31C60.13,122.33,60.15,122.37,60.14,122.37Z"/><path class="cls-15" d="M65.28,99.61a7.28,7.28,0,0,1,0-1.77c0-1.09.16-2.59.31-4.25l0-.45,0,.13C64.81,92,64.05,90.81,63.52,90a7.13,7.13,0,0,1-.79-1.41,6.38,6.38,0,0,1,1,1.26c.59.81,1.39,1.94,2.26,3.23l0,.06v.08l0,.45c-.15,1.66-.3,3.15-.43,4.23A8.7,8.7,0,0,1,65.28,99.61Z"/><path class="cls-15" d="M68.11,96.77a7.39,7.39,0,0,1,0-1.62c0-1,.15-2.39.29-3.94l0,.14-.3-.39c-1-1.33-1.92-2.54-2.56-3.43a7.42,7.42,0,0,1-1-1.5,7.83,7.83,0,0,1,1.19,1.32c.7.85,1.64,2,2.66,3.36l.3.39,0,.07v.08c-.15,1.55-.3,2.93-.42,3.92A6.38,6.38,0,0,1,68.11,96.77Z"/><path class="cls-4" d="M56.77,118.55l13.41-5.66s19.48,43.72,20.63,46.55c2.69,6.66,0,16.54-7.3,16.36-3.44-.09-13.33-1.43-16-11.92-.84-3.3-3.24-11.19-3.24-11.19Z"/><path class="cls-3" d="M70.18,112.89l-.24.13-.7.34-2.69,1.27-9.63,4.49L57,119c.79,4.47,1.78,9.79,3,15.44,1.74,8.21,3.64,15.57,5.1,20.87.75,2.63,1.35,4.77,1.77,6.26l.49,1.71.12.44c0,.1,0,.16,0,.16l-.06-.15-.14-.44c-.13-.4-.31-1-.53-1.69-.46-1.47-1.1-3.6-1.86-6.24-1.5-5.29-3.43-12.65-5.17-20.86-1.21-5.66-2.19-11-3-15.46V119l.07,0,9.68-4.41,2.71-1.21.72-.32A1.53,1.53,0,0,1,70.18,112.89Z"/><path class="cls-2" d="M88.64,156.64l-.12.2-.37.57a9.07,9.07,0,0,1-.63.86c-.26.32-.53.71-.9,1.09l-.55.61c-.19.21-.42.41-.63.62-.44.44-1,.86-1.48,1.3a23.55,23.55,0,0,1-3.79,2.44A24.12,24.12,0,0,1,76,166c-.67.16-1.31.34-1.92.43-.31.05-.6.11-.88.14l-.82.09c-.52.07-1,.07-1.41.09a9.22,9.22,0,0,1-1.07,0l-.67,0-.23,0h.9a10,10,0,0,0,1.07,0c.41,0,.88,0,1.4-.11l.81-.1c.28,0,.57-.1.88-.15.6-.1,1.23-.27,1.9-.44a24.68,24.68,0,0,0,4.17-1.63,25.2,25.2,0,0,0,3.77-2.41c.53-.44,1-.85,1.48-1.28l.64-.61.55-.6c.37-.38.65-.76.92-1.07s.47-.61.64-.85l.39-.54Z"/><path class="cls-2" d="M85,144.79a2.35,2.35,0,0,1-.11.21c-.08.13-.17.33-.34.57a11,11,0,0,1-1.56,1.9,11.44,11.44,0,0,1-3,2.11,11.29,11.29,0,0,1-4.29,1.19,28.94,28.94,0,0,1-4.46-.2,13,13,0,0,0-3.6.12,6.6,6.6,0,0,0-2.26.87,8.61,8.61,0,0,0-.72.54,4.07,4.07,0,0,1,.68-.59,6.29,6.29,0,0,1,2.28-.92,12.4,12.4,0,0,1,3.63-.16,31.6,31.6,0,0,0,4.44.19,11.31,11.31,0,0,0,4.24-1.17,11.84,11.84,0,0,0,3-2.06,11.07,11.07,0,0,0,1.59-1.85c.17-.23.28-.43.37-.56A.88.88,0,0,1,85,144.79Z"/><path class="cls-2" d="M61.28,139.59s.27,0,.75,0a7.44,7.44,0,0,0,2-.33,10.87,10.87,0,0,0,2.7-1.31,26.76,26.76,0,0,0,2.91-2.3,31.42,31.42,0,0,1,2.89-2.33,11.47,11.47,0,0,1,2.7-1.4,6.93,6.93,0,0,1,2-.39,3.71,3.71,0,0,1,.75,0s-.27,0-.75,0a7.41,7.41,0,0,0-2,.44,11.35,11.35,0,0,0-2.66,1.41,34.23,34.23,0,0,0-2.87,2.33,25.1,25.1,0,0,1-2.93,2.3,10.5,10.5,0,0,1-2.75,1.29,7,7,0,0,1-2,.29A4.52,4.52,0,0,1,61.28,139.59Z"/><path class="cls-2" d="M71.26,119.36s0,0,0,.14a2.85,2.85,0,0,1-.18.39,4.52,4.52,0,0,1-1,1.2,6.59,6.59,0,0,1-2,1.14,11.53,11.53,0,0,1-2.76.57c-1,.1-1.93.14-2.78.24a13.08,13.08,0,0,0-2.24.41,7.49,7.49,0,0,0-1.42.57c-.32.17-.48.28-.49.27a.43.43,0,0,1,.11-.09l.35-.24a7.11,7.11,0,0,1,1.42-.62,12.93,12.93,0,0,1,2.25-.45c.86-.1,1.8-.15,2.79-.25A12.25,12.25,0,0,0,68,122.1a6.58,6.58,0,0,0,2-1.1A4.87,4.87,0,0,0,71.26,119.36Z"/></g></g></svg>