<svg xmlns="http://www.w3.org/2000/svg" viewBox="0 0 2901.06 1060.76"><defs><style>.cls-1{fill:#323335;}.cls-2{fill:none;}.cls-3{fill:#1d2238;}.cls-4{fill:#333437;}.cls-5{fill:#2a2b2d;}.cls-6{fill:#38526a;}.cls-7{fill:#44576a;}.cls-8{fill:#9ea9bd;}.cls-9{fill:#d2d6e1;}.cls-10{fill:#f1f2f5;}.cls-11{fill:#eb9481;}.cls-12{fill:#fff;}.cls-13{fill:#4a4e60;}</style></defs><g id="Capa_2" data-name="Capa 2"><g id="Capa_1-2" data-name="Capa 1"><polygon class="cls-1" points="38.43 1033.12 38.43 485.92 437.06 485.92 437.06 124.94 1579.14 124.94 1579.14 220.01 1998.03 220.01 2004.92 1033.12 38.43 1033.12"/><rect class="cls-2" width="2901.06" height="1060.76"/><rect class="cls-3" x="353.82" y="320.97" width="512.26" height="658.49" rx="62.42"/><rect class="cls-4" x="385.73" y="360.17" width="448.45" height="580.07"/><rect class="cls-5" x="512.32" y="420.75" width="303.54" height="18.54"/><rect class="cls-5" x="512.32" y="456.96" width="303.54" height="18.54"/><rect class="cls-5" x="512.32" y="493.17" width="147.93" height="18.54"/><path class="cls-5" d="M499.68,513.07H414.31V419.39h85.37ZM417,510.35H497V422.11H417Z"/><polygon class="cls-6" points="445.58 437.33 465.58 465.16 520.74 413.28 530.53 425.93 462.72 490.72 433.49 448.34 445.58 437.33"/><rect class="cls-5" x="512.32" y="540.21" width="303.54" height="18.54"/><rect class="cls-5" x="512.32" y="576.42" width="303.54" height="18.54"/><rect class="cls-5" x="512.32" y="612.62" width="147.93" height="18.54"/><path class="cls-5" d="M499.68,632.53H414.31V538.85h85.37ZM417,629.8H497V541.57H417Z"/><polygon class="cls-6" points="445.58 556.79 465.58 584.62 520.74 532.74 530.53 545.39 462.72 610.18 433.49 567.79 445.58 556.79"/><rect class="cls-5" x="512.32" y="659.67" width="303.54" height="18.54"/><rect class="cls-5" x="512.32" y="695.88" width="303.54" height="18.54"/><rect class="cls-5" x="512.32" y="732.08" width="147.93" height="18.54"/><path class="cls-5" d="M499.68,752H414.31V658.31h85.37ZM417,749.26H497V661H417Z"/><polygon class="cls-6" points="445.58 676.25 465.58 704.08 520.74 652.2 530.53 664.85 462.72 729.64 433.49 687.25 445.58 676.25"/><rect class="cls-5" x="512.32" y="779.13" width="303.54" height="18.54"/><rect class="cls-5" x="512.32" y="815.34" width="303.54" height="18.54"/><rect class="cls-5" x="512.32" y="851.54" width="147.93" height="18.54"/><path class="cls-5" d="M499.68,871.44H414.31V777.77h85.37ZM417,868.72H497V780.49H417Z"/><polygon class="cls-6" points="445.58 795.71 465.58 823.54 520.74 771.66 530.53 784.31 462.72 849.1 433.49 806.71 445.58 795.71"/><path class="cls-7" d="M565.37,312.31a33.79,33.79,0,0,1,67.57,0h31.31v53.53H534.06V312.31Zm33.78,5.35a11.92,11.92,0,1,0-11.91-11.92A11.92,11.92,0,0,0,599.15,317.66Z"/><rect class="cls-8" x="951.79" y="834.27" width="141" height="141.6"/><rect class="cls-3" x="1013.79" y="834.27" width="17" height="22.42"/><rect class="cls-9" x="1092.79" y="834.27" width="100.96" height="141.6"/><rect class="cls-3" x="1136.81" y="834.27" width="12.92" height="22.42"/><rect class="cls-6" x="924.61" y="563.27" width="141" height="271"/><rect class="cls-3" x="986.62" y="563.27" width="17" height="42.91"/><rect class="cls-7" x="1065.62" y="563.27" width="100.96" height="271"/><rect class="cls-3" x="1109.64" y="563.27" width="12.92" height="42.91"/><rect class="cls-6" x="687.53" y="834.27" width="181.35" height="141.6"/><rect class="cls-3" x="767.28" y="834.27" width="21.86" height="22.42"/><rect class="cls-7" x="868.88" y="834.27" width="120" height="141.6"/><rect class="cls-3" x="921.48" y="834.27" width="21.86" height="22.42"/><rect class="cls-9" x="709.83" y="692.67" width="141" height="141.6"/><rect class="cls-3" x="771.83" y="692.67" width="17" height="22.42"/><rect class="cls-10" x="850.83" y="692.67" width="100.96" height="141.6"/><rect class="cls-3" x="894.85" y="692.67" width="12.92" height="22.42"/><rect class="cls-3" x="159.65" y="974.74" width="858.01" height="3.48"/><path class="cls-3" d="M293.39,561.83,288.71,565l-24.94-37.28a2.83,2.83,0,0,1,.78-3.91h0a2.82,2.82,0,0,1,3.9.78Z"/><path class="cls-11" d="M268.69,571.65s1.92-16,5.93-16.76,15.87-.44,18.24,0,8.9,4.6,10.23,8.75l-25.36,24.62Z"/><path class="cls-3" d="M245.31,437.11a36.25,36.25,0,0,1,6.6,15c.62,3.5-.41,7-3.5,8.81h0l-17.2-23.8Z"/><path class="cls-11" d="M220.82,432.9h0a28,28,0,0,0-27.92,25.88l-.23,0-6.06,37.79A15.26,15.26,0,0,0,199.26,514h0c8.32,1.33,14.7,3.7,17.48-12.65l.43-2.68a29.31,29.31,0,0,0,3.65.24h0a28,28,0,0,0,28-28v-10A28,28,0,0,0,220.82,432.9Z"/><path class="cls-3" d="M237.91,456.15a19.52,19.52,0,0,1,.53,2.2c.08.37.12.73.18,1.1s.12.73.16,1.1c.08.73.17,1.47.2,2.2l.08,1.1,0,1.1-1.24-1.24c.47,0,.93,0,1.4,0,.24,0,.43,0,.83,0a4.14,4.14,0,0,1,1,.28,3.45,3.45,0,0,1,2.05,3.34,3.31,3.31,0,0,1-.71,1.83,3,3,0,0,1-1.55,1,3,3,0,0,1-.89.1,6.27,6.27,0,0,1-.76-.13,14.47,14.47,0,0,1-1.4-.37h0a.07.07,0,0,1,0-.09.08.08,0,0,1,.07,0l1.4,0c.23,0,.47,0,.69,0a3,3,0,0,0,.65-.17,2.28,2.28,0,0,0,0-4.19,2.86,2.86,0,0,0-.64-.16H237.7V465c0-2.93,0-5.87.07-8.8a.07.07,0,0,1,.07-.07.06.06,0,0,1,.06.05Z"/><circle class="cls-3" cx="243.7" cy="456.36" r="1.94"/><path class="cls-12" d="M242.08,476s-3.22-4.7-12.61-4.58Z"/><path class="cls-3" d="M238.8,448.51c-.18.73,1.33,1.71,3.36,2.21s3.83.3,4-.43-1.33-1.71-3.36-2.2S239,447.79,238.8,448.51Z"/><circle class="cls-3" cx="232.43" cy="457.26" r="1.94"/><path class="cls-3" d="M227.54,451.25c.19.73,2,.89,4,.36s3.51-1.53,3.33-2.25-2-.88-4-.36S227.35,450.53,227.54,451.25Z"/><path class="cls-3" d="M244,477.34a22.1,22.1,0,0,1-4.11-.75c-.67-.16-1.32-.38-2-.58s-1.29-.45-1.93-.68-1.27-.51-1.9-.78-1.25-.55-1.86-.88a22.39,22.39,0,0,1-3.57-2.17h0a.05.05,0,0,1,0-.09l7.7,2.86,7.65,3a.05.05,0,0,1,0,.07,0,0,0,0,1-.06,0Z"/><path class="cls-7" d="M188.87,461.57s24.39-21.5,48-21.49c0,0,10.32-.46,14.13,8.28,0,0-4.54-35.68-44-29.67S183.32,465,183.32,465Z"/><path class="cls-3" d="M216.66,444.47s-4.81,5.84-14.84,16.44c-2.49,2.62-6.79,6.25-6.79,6.25s1-5.49-.81-9.49C194.22,457.67,205.43,448.62,216.66,444.47Z"/><path class="cls-3" d="M232.16,439.55s3.09,5.6,11,6c0,0-12.58,4.13-17.49-4.61Z"/><polygon class="cls-3" points="190.89 470.5 189.03 481.45 183.32 464.98 192.9 458.78 190.89 470.5"/><ellipse class="cls-11" cx="190.62" cy="462.94" rx="5.58" ry="6.9"/><path class="cls-3" d="M193.82,461.05a4.34,4.34,0,0,0-1.51-.86,2,2,0,0,0-.7-.1,1.73,1.73,0,0,0-.61.09,2.78,2.78,0,0,0-1.6,1.71,4.34,4.34,0,0,0-.2.64,3.43,3.43,0,0,0-.06.34l0,.17v.12a.12.12,0,0,1,0,0s0,0-.05-.08a.53.53,0,0,0-.35-.23c-.16,0,.1.07.33,0,.5-.06,1.13-.19,1.77-.29a4.33,4.33,0,0,1,2,.08h0s0,.05,0,.09a.07.07,0,0,1-.06,0,5.52,5.52,0,0,0-1.75.49c-.57.22-1.14.48-1.74.66a1.9,1.9,0,0,1-1,.07.73.73,0,0,1-.43-.34,1.13,1.13,0,0,1-.13-.5,4.59,4.59,0,0,1,.3-1.87,4,4,0,0,1,1.08-1.57,3,3,0,0,1,1.74-.75,2.82,2.82,0,0,1,1.83.49,3.66,3.66,0,0,1,1.21,1.44.07.07,0,0,1,0,.09.06.06,0,0,1-.07,0Z"/><path class="cls-10" d="M221.85,442.6s16.73-22.43,37-17-7.8,22.77-7.8,22.77S243.22,435.23,221.85,442.6Z"/><path class="cls-3" d="M205.26,419.77c.19,1-1.92,2.22-4.71,2.76s-5.2.17-5.39-.81,1.91-2.22,4.7-2.76S205.07,418.78,205.26,419.77Z"/><path class="cls-3" d="M217.17,498.68a59.2,59.2,0,0,1-12.47-9.83s2.69,9.35,12,12.51Z"/><path class="cls-13" d="M264.36,945l42.39,18.48a17.06,17.06,0,0,1,10.24,16h0l-92.17-.19,4.9-34.32Z"/><path class="cls-3" d="M224.83,973.14c7.59.44,15.19.68,22.78.84,3.8.1,7.59.13,11.39.2l11.39.08,11.39,0c3.79-.05,7.59-.06,11.39-.15,7.59-.13,15.18-.34,22.78-.74-7.6-.44-15.19-.68-22.78-.85-3.8-.1-7.59-.13-11.39-.19l-11.39-.08-11.39,0c-3.79,0-7.59.06-11.39.15C240,972.53,232.43,972.73,224.83,973.14Z"/><circle class="cls-3" cx="244.3" cy="959.53" r="8.37" transform="translate(-606.94 453.78) rotate(-45)"/><path class="cls-3" d="M301,960.16a5.71,5.71,0,0,0-3.13-.3,7.6,7.6,0,0,0-2.79,1.11,7,7,0,0,0-2.14,2.2,4.84,4.84,0,0,0-.72,3.12l.17.1a12.41,12.41,0,0,1,.8-1.07c.15-.17.28-.36.44-.52l.46-.47a13.53,13.53,0,0,1,2.11-1.66,20.66,20.66,0,0,1,2.34-1.32c.41-.19.82-.37,1.24-.53s.84-.33,1.27-.46Z"/><path class="cls-3" d="M290.22,955.54a5.61,5.61,0,0,0-3.13-.29,7.42,7.42,0,0,0-2.79,1.1,7.14,7.14,0,0,0-2.14,2.2,5,5,0,0,0-.72,3.13l.18.1a9.42,9.42,0,0,1,.8-1.08c.14-.17.27-.35.43-.51l.47-.48a12.94,12.94,0,0,1,2.1-1.65,18,18,0,0,1,2.34-1.32c.41-.19.82-.37,1.24-.53a12.15,12.15,0,0,1,1.27-.47Z"/><path class="cls-3" d="M280.2,951.35a5.6,5.6,0,0,0-3.13-.29,7.44,7.44,0,0,0-2.78,1.1,7,7,0,0,0-2.14,2.2,4.85,4.85,0,0,0-.72,3.13l.17.1a10.77,10.77,0,0,1,.8-1.08c.15-.17.28-.35.43-.51l.47-.48a13.47,13.47,0,0,1,2.11-1.65,17.35,17.35,0,0,1,2.34-1.32c.41-.19.82-.37,1.24-.53a12,12,0,0,1,1.26-.47Z"/><path class="cls-8" d="M209.12,945l42.39,18.48a17.06,17.06,0,0,1,10.23,16h0l-92.16-.19,4.9-34.32Z"/><path class="cls-3" d="M169.59,973.14c7.59.44,15.18.68,22.77.84,3.8.1,7.6.13,11.39.2l11.39.08,11.39,0c3.8-.05,7.6-.06,11.39-.15,7.59-.13,15.19-.34,22.78-.74-7.59-.44-15.18-.68-22.77-.85-3.8-.1-7.6-.13-11.39-.19l-11.39-.08-11.39,0c-3.8,0-7.6.06-11.39.15C184.78,972.53,177.18,972.73,169.59,973.14Z"/><circle class="cls-3" cx="189.05" cy="959.53" r="8.37" transform="translate(-623.12 414.72) rotate(-45)"/><path class="cls-3" d="M245.79,960.16a5.7,5.7,0,0,0-3.13-.3,7.56,7.56,0,0,0-2.78,1.11,7,7,0,0,0-2.14,2.2,4.91,4.91,0,0,0-.73,3.12l.18.1a10.64,10.64,0,0,1,.8-1.07c.15-.17.28-.36.43-.52l.47-.47a13.53,13.53,0,0,1,2.11-1.66,19.83,19.83,0,0,1,2.34-1.32c.4-.19.82-.37,1.24-.53s.84-.33,1.26-.46Z"/><path class="cls-3" d="M235,955.54a5.6,5.6,0,0,0-3.13-.29,7.44,7.44,0,0,0-2.78,1.1,7,7,0,0,0-2.14,2.2,4.92,4.92,0,0,0-.73,3.13l.18.1a10.77,10.77,0,0,1,.8-1.08c.15-.17.28-.35.43-.51l.47-.48a13.47,13.47,0,0,1,2.11-1.65,17.35,17.35,0,0,1,2.34-1.32c.41-.19.82-.37,1.24-.53a12,12,0,0,1,1.26-.47Z"/><path class="cls-3" d="M225,951.35a5.6,5.6,0,0,0-3.13-.29,7.37,7.37,0,0,0-2.78,1.1,7,7,0,0,0-2.14,2.2,4.92,4.92,0,0,0-.73,3.13l.18.1a10.77,10.77,0,0,1,.8-1.08c.15-.17.27-.35.43-.51l.47-.48a13.47,13.47,0,0,1,2.11-1.65,16.76,16.76,0,0,1,2.34-1.32c.4-.19.82-.37,1.24-.53a11.21,11.21,0,0,1,1.26-.47Z"/><path class="cls-3" d="M279,944.67l-8.28-170a103.08,103.08,0,0,0-1.69-14.23l-17.59-92.38-106.61-8.34s-10.47,42.59,11,83.58l11,202.7,56.89-.36V945Z"/><path class="cls-13" d="M215.22,673.64l.73,8.48.67,8.49,1.35,17,2.49,33.95.61,8.49.57,8.5,1.12,17,2.23,34,.13,2.12c0,.71,0,1.42,0,2.13l0,4.26,0,8.51-.05,17-.06,17,0,8.51-.09,8.51-.36,34-.29,17-.15,8.51-.19,8.51h-.15l0-68.07,0-34V813.78c0-.71,0-1.42,0-2.13l-.13-2.12-8.4-135.88Z"/><path class="cls-7" d="M299.19,616.46l-14.62-22.75-33.74,9.14L242,542.37c-.09-.65-.17-1.2-.24-1.64-2.21-13.3-25.75-36.45-25.75-36.45l-5.2,5.36-24.2-13.11s-20.11,8.08-32.46,23.77-9.3,139.44-9.3,139.44,25,20.24,43.05,23.57,65.5-9.67,65.5-9.67-.82-10.38-2-25.37Z"/><path class="cls-12" d="M210.81,509.64l-11.39,9.78a5,5,0,0,1-6.48,0c-5.26-4.46-14.6-13.63-11.66-20.42l5.33-2.5Z"/><path class="cls-12" d="M210.81,509.64l5.63,6.07a3.31,3.31,0,0,0,5.31-.64l1.66-3-7.4-7.84Z"/><path class="cls-7" d="M180.72,535.85l21,60.13,65.43-33.13,10.35,25.39-58.23,48.19a35.22,35.22,0,0,1-19.49,8h0a35.17,35.17,0,0,1-31.2-14.11c-9.85-13.3-22.34-31.54-23.61-40.08-2.11-14.3-12.91-41.55,9.14-69.89Z"/><path class="cls-3" d="M245.13,574.05q-5.31,3-10.67,5.82c-3.56,1.93-7.15,3.82-10.73,5.71s-7.17,3.78-10.77,5.63-7.19,3.73-10.81,5.56l-1,.52-.24-1.13c-.54-2.6-1.13-5.2-1.74-7.79s-1.23-5.19-1.89-7.77c-1.32-5.16-2.69-10.31-4.23-15.41s-3.19-10.16-5.11-15.12c-1-2.48-2-4.94-3.17-7.33a45.27,45.27,0,0,0-4-6.89,40.91,40.91,0,0,1,4.54,6.63c1.3,2.34,2.5,4.75,3.57,7.21,2.17,4.9,4,9.95,5.67,15S197.65,575,199,580.16s2.57,10.39,3.64,15.65l-1.26-.61c3.62-1.83,7.25-3.61,10.88-5.41s7.28-3.56,10.92-5.34,7.29-3.53,11-5.26S241.45,575.73,245.13,574.05Z"/><path class="cls-3" d="M145,590.19l2.18,3.95,2.16,4c1.44,2.63,2.89,5.27,4.36,7.89s2.91,5.25,4.41,7.85l2.25,3.9c.75,1.3,1.49,2.62,2.23,3.93,2.94,5.22,5.83,10.5,9.79,14.86a30,30,0,0,0,3.17,3c.55.47,1.15.88,1.73,1.3s1.22.79,1.87,1.12a25.94,25.94,0,0,0,8.21,2.76,38.06,38.06,0,0,0,17.39-1.48,44.42,44.42,0,0,0,8.14-3.43,42.66,42.66,0,0,0,3.76-2.32c1.22-.83,2.35-1.76,3.53-2.71q7-5.68,14.06-11.29l7.07-5.59,3.54-2.79,3.56-2.77-3.38,3-3.41,2.95-6.82,5.9q-6.84,5.88-13.72,11.7c-1.13,1-2.3,2-3.55,2.86a42.25,42.25,0,0,1-3.87,2.47,46.43,46.43,0,0,1-8.39,3.68,43.56,43.56,0,0,1-9,1.88,36,36,0,0,1-9.21-.25,27.64,27.64,0,0,1-8.77-3c-.69-.36-1.34-.79-2-1.21s-1.28-.9-1.86-1.41a29,29,0,0,1-3.33-3.22,50.81,50.81,0,0,1-5.36-7.42c-1.58-2.59-3-5.25-4.4-7.91q-1.05-2-2.13-4c-.72-1.32-1.45-2.64-2.15-4q-2.12-4-4.15-8t-4-8.08l-2-4.06Z"/><path class="cls-3" d="M194.12,617.68c-.16-.54-.29-1.09-.41-1.65a12.16,12.16,0,0,1-.28-1.69,19.53,19.53,0,0,1-.09-3.42,22.1,22.1,0,0,1,1.41-6.75,21.83,21.83,0,0,1,3.38-6,16.39,16.39,0,0,1,5.18-4.45,59.62,59.62,0,0,0-3.39,5.63,47.88,47.88,0,0,0-4.47,11.88c-.3,1-.44,2.1-.69,3.17S194.41,616.56,194.12,617.68Z"/><path class="cls-13" d="M284,611.75l-27-11.29a2.5,2.5,0,0,1-.73-4.15l69.67-64.53a2.51,2.51,0,0,1,3.94.71l14.74,29.26a2.66,2.66,0,0,1-.69,3.26l-56.45,46.23A3.41,3.41,0,0,1,284,611.75Z"/><path class="cls-3" d="M251,648.5c-.44-2.77-.8-5.55-1.12-8.33-.17-1.39-.32-2.79-.46-4.18s-.28-2.78-.4-4.18c-.27-2.78-.48-5.57-.69-8.37-.12-1.39-.19-2.79-.29-4.18s-.18-2.8-.25-4.19l0-.55.44-.24c1.37-.75,2.74-1.51,4.11-2.24s2.75-1.48,4.15-2.19,2.77-1.43,4.17-2.12,2.81-1.38,4.23-2q-1.92,1.35-3.89,2.62t-3.94,2.53c-1.32.84-2.66,1.65-4,2.47s-2.67,1.61-4,2.42l.42-.79c.14,1.39.23,2.79.34,4.18s.23,2.79.31,4.19c.19,2.79.37,5.58.5,8.38.07,1.4.13,2.79.18,4.19s.11,2.8.14,4.2C251,642.89,251.06,645.69,251,648.5Z"/><path class="cls-11" d="M319,589.85c-.11-.7-.3-1.39-.47-2.07-.35-1.39-.68-2.8-1-4.2q-.72-2.91-1.42-5.84a3.7,3.7,0,0,0-7.18,1.75l.13.56a3.68,3.68,0,0,0-6,3.68c.14.61.29,1.23.45,1.84a1.19,1.19,0,0,0-.43-.46,2.93,2.93,0,0,0-4,.68,4.08,4.08,0,0,0-.25,2.54c.28,3.92.85,7.84,1.28,11.75l-7.18,6.68,1.64,2.57c1.48-.52,2.86-.81,4.34-1.32,2-.68,4-1.23,5.91-2.08a17.14,17.14,0,0,0,4.09-2.72,60.9,60.9,0,0,0,6.67-6.86c1-1.11,1.88-2.24,2.76-3.4A3.89,3.89,0,0,0,319,589.85Z"/><path class="cls-3" d="M300.12,600.08s-.81,3.1.71,5.38c0,0-2.67-.62-1.73-4.43Z"/><path class="cls-3" d="M309,580.05a6.47,6.47,0,0,1,2.21,3.19c.4,1.25.71,2.51,1,3.76s.6,2.52.86,3.79l.39,1.91c.12.64.25,1.28.34,1.92-.19-.62-.37-1.25-.55-1.87l-.51-1.87c-.35-1.25-.66-2.51-1-3.77l-.93-3.77a6.22,6.22,0,0,0-.72-1.75A7.59,7.59,0,0,0,309,580.05Z"/><path class="cls-3" d="M303.49,585.58a4.87,4.87,0,0,1,2.17,2.68c.33,1.12.56,2.24.81,3.37s.45,2.25.63,3.39l.27,1.71c.07.57.16,1.14.22,1.71-.16-.55-.29-1.11-.44-1.67l-.39-1.68c-.27-1.12-.5-2.25-.74-3.37s-.45-2.26-.7-3.37a3.77,3.77,0,0,0-.69-1.51A6.77,6.77,0,0,0,303.49,585.58Z"/><path class="cls-3" d="M260.28,596c2.68-2.62,5.4-5.18,8.11-7.77s5.44-5.14,8.17-7.7l8.23-7.64,8.27-7.59c5.55-5,11.09-10.07,16.67-15l4.18-3.75,4.21-3.72q4.19-3.72,8.42-7.42l.68-.59.4.78,3.19,6.34,3.16,6.35,3.12,6.38c1.05,2.12,2.07,4.26,3.09,6.4-1.18-2.06-2.35-4.11-3.5-6.18l-3.47-6.2-3.42-6.21-3.4-6.24,1.08.19c-2.74,2.56-5.5,5.09-8.26,7.62l-4.14,3.79-4.16,3.77q-8.3,7.56-16.69,15L285.81,574l-8.45,7.4c-2.83,2.44-5.65,4.9-8.51,7.32S263.16,593.59,260.28,596Z"/></g></g></svg>