<svg xmlns="http://www.w3.org/2000/svg" viewBox="0 0 723 723"><defs><style>.cls-1{fill:#fff;}.cls-2{fill:#a8c1f4;}</style></defs><g id="Capa_2" data-name="Capa 2"><g id="Capa_1-2" data-name="Capa 1"><rect class="cls-1" width="723" height="723"/><path class="cls-2" d="M620.45,267.42c-.12-37.69-17.71-65.41-50-84.17-24.62-14.33-49.34-28.47-74-42.71-28.85-16.65-57.53-33.6-86.59-49.87-23.61-13.22-48.6-17.83-75.09-9.33-13.12,4.2-25,11-36.79,17.82-33,19.11-66.07,38.12-99,57.31-20.29,11.81-41.23,22.54-60.48,36.07-16.16,11.37-28.21,25.85-32.55,45.68a146.14,146.14,0,0,0-3.57,31.21q0,87.74,0,175.47a178.6,178.6,0,0,0,1,21.93c3.42,27.64,16.19,49.85,38.71,66.13,22.05,15.95,46.6,27.79,69.9,41.69,3.59,2.14,4.48.36,4.38-2.87-.16-5-.78-10-.57-15a189.72,189.72,0,0,1,9.32-52.44c12-36,32.67-66.52,58.54-93.74,13.77-14.48,28.94-27.53,43.71-41q30.09-27.39,60-55,41.12-37.92,82.13-75.94c4.93-4.55,9.95-9,15.24-13.76.86,2.44.18,4-.17,5.61Q470.78,292.74,457,354.94c-4.68,21.14-9.27,42.31-13.91,63.46-1.52,6.89-2.74,7.62-9.69,6-9.74-2.21-19.51-4.35-29.25-6.56q-39.72-9-79.43-18.05c-1.39-.32-3.34-1.32-4.07.34-.86,2,1.42,2.67,2.68,3.57,5.53,4,11.05,8,16.7,11.87,3.71,2.51,4.25,4.85,1.09,8.39-11.29,12.67-22.81,25.14-33.48,38.36-2,2.53-4.44,4.76-6.74,7.19-1.95-2.11-1.36-4-1.37-5.77,0-13.33,0-26.66,0-40,0-1.72.71-4.1-1.46-4.85-1.95-.68-2.68,1.57-3.66,2.8a181.47,181.47,0,0,0-21.54,35.33c-10,20.87-16.95,42.68-18.86,65.93-1.48,18,0,35.67,6.31,52.63,9.45,25.56,27.29,43.72,51.08,56.49,31.35,16.83,63.22,19.14,95.15,2.43,21.08-11,41.53-23.31,62.17-35.18,31-17.86,62-35.89,93-53.78,12.14-7,24.2-14.2,34.49-23.77,16.89-15.7,24-36,24.12-58.42C620.74,398.07,620.64,332.75,620.45,267.42Zm-182.54-10.6q-40.28,29.54-80.61,59-45.51,33.34-90.95,66.79a10,10,0,0,1-8.83,2C236.27,379.7,215,375,193.71,370.17c-1.11-.25-2.71-.21-2.87-1.52-.21-1.68,1.62-1.9,2.74-2.45q23.29-11.47,46.63-22.88,63.71-31.21,127.39-62.45Q418.27,256,468.9,231c1.6-.79,3.25-1.5,4.87-2.25l.56,1C462.19,238.81,450.09,247.88,437.91,256.82Z"/></g></g></svg>