<svg xmlns="http://www.w3.org/2000/svg" viewBox="0 0 535.29 421.32"><defs><style>.cls-1{isolation:isolate;}.cls-2{fill:#dcd8f7;}.cls-3{fill:#333;}.cls-4,.cls-7{fill:#fff;}.cls-5,.cls-8{fill:#e6e6e6;}.cls-6{fill:#ccc;}.cls-7{mix-blend-mode:soft-light;}.cls-8{mix-blend-mode:multiply;}.cls-9{fill:#aca0fa;}.cls-10{fill:#c1b8ff;}.cls-11{fill:#999;mix-blend-mode:color-burn;}.cls-12{fill:#d1c8f7;}.cls-13{fill:#e96766;}</style></defs><g class="cls-1"><g id="Capa_2" data-name="Capa 2"><g id="Capa_1-2" data-name="Capa 1"><path d="M3,420.63a3,3,0,0,1-3-3V389.1a3,3,0,0,1,3-3H34.9a2,2,0,0,0,2-2V117.89A26.75,26.75,0,0,1,63.65,91.13H471.22a26.81,26.81,0,0,1,17.31,6.35l.16.14c.5.44,1,.87,1.45,1.35s.9.93,1.29,1.38l.21.25A26.69,26.69,0,0,1,498,117.89V384.1a2,2,0,0,0,2,2h31.89a3,3,0,0,1,3,3v28.53a3,3,0,0,1-3,3Z"/><rect class="cls-2" x="64.89" y="117.96" width="407.57" height="247.45"/><path class="cls-3" d="M489.54,102.36l-.15-.18c-.37-.43-.76-.85-1.16-1.25s-.82-.79-1.25-1.16l-.19-.16A23.62,23.62,0,0,0,471.43,94H63.86A23.76,23.76,0,0,0,40.1,117.73V388.94H495.18V117.73A23.65,23.65,0,0,0,489.54,102.36ZM471.43,365.18H63.86V117.73H471.43Z"/><path d="M472.46,116H64.89a2,2,0,0,0-2,2V365.41a2,2,0,0,0,2,2H472.46a2,2,0,0,0,2-2V118A2,2,0,0,0,472.46,116Zm0,249.45H64.89V118H472.46Z"/><rect class="cls-4" x="3.21" y="388.94" width="528.87" height="20.59"/><rect class="cls-5" x="3.21" y="409.53" width="528.87" height="7.94"/><rect class="cls-6" x="197.84" y="388.94" width="139.61" height="10.3"/><path d="M277.52,114.45a3,3,0,0,1-2.41-1.23L260.68,93.6a2,2,0,0,0-1.61-.82,2,2,0,0,0-.76.15l-44.95,18.33a2.93,2.93,0,0,1-1.13.23,3,3,0,0,1-2.26-1,2.53,2.53,0,0,1-.31-.42,3,3,0,0,1-.36-.89,3,3,0,0,1,0-1.5l17.19-59.16a2,2,0,0,0-.3-1.75L195.4,4.78A3,3,0,0,1,197.81,0a3,3,0,0,1,.72.09L404,50.35a3,3,0,0,1,.71,5.57l-.15.08L278.78,114.17A3,3,0,0,1,277.52,114.45Z"/><path d="M249,69.32a2,2,0,0,0-1.61-.81,1.94,1.94,0,0,0-1.18.39,2,2,0,0,0-.43,2.79L257.66,87.8l-42.35,17.27L232,47.5a2,2,0,0,0-.31-1.74l-29-39.51,194.57,47.6L278.17,109Z"/><path d="M42.85,277.57a6.33,6.33,0,0,1-3.47-1,6.25,6.25,0,0,1-2.43-3c-.52-1.37-1-2.77-1.48-4.17-1.35-4-2.56-8.15-3.57-12.24a6.3,6.3,0,0,1,4.59-7.64,6.54,6.54,0,0,1,1.53-.19A6.29,6.29,0,0,1,44.13,254c.94,3.78,2,7.57,3.29,11.28.42,1.25.87,2.51,1.33,3.74a6.32,6.32,0,0,1-5.9,8.53Z"/><path d="M42.85,272.57a1.33,1.33,0,0,1-.72-.22,1.29,1.29,0,0,1-.5-.63c-.5-1.31-1-2.66-1.42-4-1.31-3.9-2.48-7.89-3.46-11.85a1.27,1.27,0,0,1,.14-1,1.33,1.33,0,0,1,.81-.6,1.12,1.12,0,0,1,.32,0,1.3,1.3,0,0,1,1.26,1c1,3.9,2.12,7.82,3.4,11.66.44,1.31.91,2.62,1.39,3.91a1.29,1.29,0,0,1,0,1,1.25,1.25,0,0,1-.73.68A1.22,1.22,0,0,1,42.85,272.57Z"/><path d="M34.89,245.71a6.31,6.31,0,0,1-6.24-5.45,159.94,159.94,0,0,1-1.42-17.06,6.32,6.32,0,0,1,6.13-6.49h.18a6.28,6.28,0,0,1,6.3,6.13,147.47,147.47,0,0,0,1.3,15.7,6.31,6.31,0,0,1-5.38,7.11A6.36,6.36,0,0,1,34.89,245.71Z"/><path d="M34.89,240.71a1.28,1.28,0,0,1-.71-.21,1.32,1.32,0,0,1-.58-.92,155,155,0,0,1-1.37-16.52,1.32,1.32,0,0,1,.36-.94,1.31,1.31,0,0,1,.91-.41h0A1.31,1.31,0,0,1,34.84,223a152.79,152.79,0,0,0,1.35,16.25,1.28,1.28,0,0,1-.25,1,1.31,1.31,0,0,1-.87.51Z"/><path d="M34,212.89l-.51,0a6.31,6.31,0,0,1-5.78-6.79,159,159,0,0,1,2.28-17A6.31,6.31,0,0,1,36.14,184a6.73,6.73,0,0,1,1.18.11,6.32,6.32,0,0,1,5,7.38,146.64,146.64,0,0,0-2.1,15.61A6.34,6.34,0,0,1,34,212.89Z"/><path d="M33.85,207.88a1.2,1.2,0,0,1-.61-.2,1.32,1.32,0,0,1-.59-1.2,154,154,0,0,1,2.21-16.43A1.31,1.31,0,0,1,36.14,189a1.07,1.07,0,0,1,.25,0,1.3,1.3,0,0,1,1,1.52,151.81,151.81,0,0,0-2.17,16.16,1.32,1.32,0,0,1-1.3,1.2Z"/><path d="M40.07,180.63a6.3,6.3,0,0,1-6-8.14,160.72,160.72,0,0,1,5.84-16.08,6.31,6.31,0,0,1,11.61,4.93,147.27,147.27,0,0,0-5.38,14.82A6.29,6.29,0,0,1,40.07,180.63Z"/><path d="M40.07,175.63a1.73,1.73,0,0,1-.38,0,1.5,1.5,0,0,1-.34-.16,1.32,1.32,0,0,1-.53-1.47,156.79,156.79,0,0,1,5.66-15.59,1.31,1.31,0,1,1,2.41,1,153,153,0,0,0-5.57,15.32A1.31,1.31,0,0,1,40.07,175.63Z"/><path d="M52.91,150.42a6.36,6.36,0,0,1-3.07-.8l-.4-.25a6.32,6.32,0,0,1-2-8.33c1.9-3.41,4-6.79,6.09-10,1-1.5,2-3,3-4.44a6.32,6.32,0,0,1,5.15-2.67,6.31,6.31,0,0,1,5.15,10c-1,1.34-1.89,2.72-2.8,4.1-2,3-3.86,6.1-5.61,9.24A6.3,6.3,0,0,1,52.91,150.42Z"/><path d="M52.91,145.42a1.29,1.29,0,0,1-.63-.17l-.09-.05a1.31,1.31,0,0,1-.41-1.73c1.84-3.3,3.82-6.57,5.89-9.72,1-1.45,1.95-2.9,2.94-4.3a1.28,1.28,0,0,1,1.07-.56,1.35,1.35,0,0,1,.75.24,1.31,1.31,0,0,1,.32,1.82c-1,1.39-2,2.81-2.89,4.24-2,3.1-4,6.31-5.8,9.56A1.32,1.32,0,0,1,52.91,145.42Z"/><path d="M71.88,123.62a6.25,6.25,0,0,1-3.46-1,7.61,7.61,0,0,1-.72-.55,6.29,6.29,0,0,1-.55-8.89,160.8,160.8,0,0,1,12-12.21,6.31,6.31,0,0,1,8.51,9.32,146.34,146.34,0,0,0-11,11.23A6.31,6.31,0,0,1,71.88,123.62Z"/><path d="M71.88,118.62a1.33,1.33,0,0,1-.72-.22l-.15-.11a1.31,1.31,0,0,1-.11-1.85,156.17,156.17,0,0,1,11.62-11.82,1.31,1.31,0,0,1,.88-.34,1.29,1.29,0,0,1,1,.43,1.35,1.35,0,0,1,.34.94,1.29,1.29,0,0,1-.43.9,152.71,152.71,0,0,0-11.42,11.62A1.29,1.29,0,0,1,71.88,118.62Z"/><path d="M96.13,101.49a6.28,6.28,0,0,1-3.47-1A6.49,6.49,0,0,1,91,98.9a6.3,6.3,0,0,1,1.37-8.81,158,158,0,0,1,14.34-9.34,6.26,6.26,0,0,1,3.15-.85A6.31,6.31,0,0,1,113,91.67a146.9,146.9,0,0,0-13.19,8.6A6.25,6.25,0,0,1,96.13,101.49Z"/><path d="M96.13,96.49a1.36,1.36,0,0,1-.73-.22,1.25,1.25,0,0,1-.33-.32,1.3,1.3,0,0,1,.28-1.82,152.29,152.29,0,0,1,13.89-9,1.25,1.25,0,0,1,.65-.18,1.31,1.31,0,0,1,.66,2.44,152.16,152.16,0,0,0-13.66,8.89A1.28,1.28,0,0,1,96.13,96.49Z"/><path d="M124.55,85.08A6.31,6.31,0,0,1,122,73c4.52-2,9.19-3.8,13.9-5.38l2.07-.68a6.17,6.17,0,0,1,1.95-.31,6.31,6.31,0,0,1,1.94,12.31l-2,.64c-4.34,1.45-8.65,3.12-12.82,5A6.16,6.16,0,0,1,124.55,85.08Z"/><path d="M124.55,80.08a1.3,1.3,0,0,1-.72-.22,1.25,1.25,0,0,1-.48-.56,1.31,1.31,0,0,1,.67-1.72c4.38-1.94,8.91-3.69,13.47-5.22l2-.67a1.45,1.45,0,0,1,.41-.06,1.31,1.31,0,0,1,1.24.9,1.29,1.29,0,0,1-.08,1,1.32,1.32,0,0,1-.76.65c-.67.22-1.34.43-2,.66-4.49,1.5-8.95,3.23-13.25,5.13A1.31,1.31,0,0,1,124.55,80.08Z"/><path d="M155.74,74.8a6.31,6.31,0,0,1-1.46-12.44c5.49-1.31,11.08-2.42,16.64-3.28a6.33,6.33,0,0,1,1-.07,6.3,6.3,0,0,1,1,12.53c-5.23.82-10.49,1.85-15.65,3.08A6.1,6.1,0,0,1,155.74,74.8Z"/><path d="M155.74,69.8a1.33,1.33,0,0,1-1.27-1,1.31,1.31,0,0,1,1-1.57c5.36-1.28,10.83-2.36,16.25-3.2h.2a1.31,1.31,0,0,1,1.29,1.1,1.31,1.31,0,0,1-1.09,1.49c-5.36.84-10.75,1.9-16,3.16A1.65,1.65,0,0,1,155.74,69.8Z"/><path d="M188.23,69.75a6.31,6.31,0,0,1-.46-12.6c5.14-.38,10.36-.57,15.53-.57h1.43A6.32,6.32,0,0,1,211,62.93a6.31,6.31,0,0,1-6.3,6.26h-1.36c-4.87,0-9.79.18-14.62.54Z"/><path d="M188.23,64.75a1.33,1.33,0,0,1-1.3-1.21,1.31,1.31,0,0,1,.32-.95,1.23,1.23,0,0,1,.89-.45c5-.37,10.12-.56,15.17-.56h1.37a1.31,1.31,0,0,1,0,2.61H203.3c-5,0-10,.19-15,.55Z"/><polygon class="cls-4" points="403.49 53.11 403.47 53.12 277.73 111.29 247.64 70.35 230.32 46.78 198.02 2.84 403.46 53.1 403.49 53.11"/><polygon class="cls-5" points="352.52 54.11 247.64 70.35 230.32 46.79 352.52 54.11"/><polygon class="cls-5" points="247.64 70.35 212.56 108.19 212.44 108.32 212.51 108.08 230.32 46.78 247.64 70.35"/><polygon class="cls-6" points="212.44 108.33 261 88.52 247.64 70.35 212.44 108.33"/><rect class="cls-7" x="97.25" y="143.75" width="342.86" height="221.43"/><rect class="cls-8" x="118.02" y="163.14" width="70.84" height="70.84" rx="26.75"/><rect class="cls-8" x="226.78" y="163.14" width="192.54" height="7.55"/><rect class="cls-8" x="226.78" y="184.23" width="192.54" height="7.55"/><rect class="cls-8" x="226.78" y="205.32" width="192.54" height="7.55"/><rect class="cls-8" x="226.78" y="226.42" width="192.54" height="7.55"/><rect class="cls-8" x="118.02" y="272.3" width="301.3" height="31.45"/><rect class="cls-8" x="118.02" y="317" width="301.3" height="48.19"/><path class="cls-9" d="M329.49,280l23.85,18.82-.29.26,0,0a15.29,15.29,0,0,1-10,3.74l-148.49.06a15.32,15.32,0,0,1-10-3.7l0,0-.29-.26L208,280.07l41-32.39,3.78-3,10.42-8.24,5.56-4.39,5.56,4.39,10.43,8.22,3.79,3Z"/><path class="cls-10" d="M268.67,240.29l-11.73,8.2-4.21,2.95-.62.43L208.9,282.09l-24.44,17.1,0,0-.29-.26a15.36,15.36,0,0,1-5-10l0-97.15a15.33,15.33,0,0,1,4.44-9.49l.22-.21c.21-.2.42-.4.64-.59l24.46,17.08,54.3,37.91Z"/><path class="cls-10" d="M358.33,193.08l0,94.35a15.31,15.31,0,0,1-5,11.38l-.29.26,0,0L328.55,282l-43.18-30.15-.62-.43-4.22-3-11.73-8.19,5.49-3.84,39.4-27.55,14.83-10.38L353,181.42l.65.59.22.22A15.37,15.37,0,0,1,358.33,193.08Z"/><path class="cls-11" d="M353.63,182l.22.22L332.09,204l-43.58,43.65-3.76,3.76-3.45,3.46a17.76,17.76,0,0,1-25.12,0l-3.45-3.45L249,247.68,205.32,204l-21.77-21.78.22-.21c.21-.2.42-.4.64-.59a15.35,15.35,0,0,1,10-3.71l148.5-.06A15.32,15.32,0,0,1,353,181.42Z"/><path class="cls-12" d="M353.63,182l-22.74,20.67-13.17,12-33,30-4.19,3.81-3,2.74a13.05,13.05,0,0,1-17.56,0l-3-2.74-4.19-3.8-46.24-42-22.74-20.65c.21-.2.42-.4.64-.59a15.35,15.35,0,0,1,10-3.71l148.5-.06A15.32,15.32,0,0,1,353,181.42Z"/><path class="cls-7" d="M252.73,251.44q-8.39,6.19-16.88,12.22l-2.12,1.51-2.12,1.51-4.25,3-8.52,6-8.55,5.95L206,284.57l-2.15,1.48-2.14,1.47c-5.73,3.92-11.48,7.82-17.28,11.64C190,295,195.65,291,201.3,286.94l2.12-1.51,2.13-1.5,4.25-3,8.52-6,8.55-5.94,4.29-3,2.14-1.47,2.15-1.47Q244,257.2,252.73,251.44Z"/><path class="cls-7" d="M284.75,251.43c5.8,3.82,11.55,7.71,17.28,11.62l2.15,1.47,2.14,1.48,4.29,2.95,8.55,5.93,8.52,6,4.25,3,2.13,1.5,2.12,1.51c5.65,4,11.29,8.08,16.87,12.2-5.8-3.81-11.55-7.7-17.27-11.62L333.63,286l-2.15-1.47-4.28-2.95-8.56-5.94-8.52-6-4.25-3-2.12-1.5-2.12-1.51C296,259.6,290.34,255.55,284.75,251.43Z"/><circle class="cls-13" cx="340.72" cy="194.91" r="23.92" transform="translate(-35.67 83.5) rotate(-13.28)"/><path class="cls-4" d="M339.42,181.68a3.7,3.7,0,0,1,1.79-.62,2.11,2.11,0,0,1,1.67.6,2.26,2.26,0,0,1,.73,1.77q0,3.3,0,11.06t0,11.9A2.36,2.36,0,0,1,343,208a2.06,2.06,0,0,1-1.24.75,4.47,4.47,0,0,1-1.46,0,2.11,2.11,0,0,1-1.24-.75,2.41,2.41,0,0,1-.51-1.57q0-7.32.08-17.82l-.66.54-.66.54a3.07,3.07,0,0,1-1.78.72,2.34,2.34,0,0,1-1.74-.72,2.4,2.4,0,0,1-.72-1.74,2,2,0,0,1,.72-1.73Z"/><path class="cls-4" d="M41.24,273.86a3.29,3.29,0,0,1-1.28-1.6c-.5-1.33-1-2.7-1.44-4.06-1.33-3.95-2.51-8-3.51-12a3.31,3.31,0,0,1,6.42-1.6c1,3.85,2.09,7.72,3.36,11.5.43,1.29.89,2.58,1.36,3.85a3.31,3.31,0,0,1-4.91,3.92Z"/><path class="cls-4" d="M33.29,242a3.29,3.29,0,0,1-1.46-2.32A156.33,156.33,0,0,1,30.44,223a3.31,3.31,0,0,1,6.61-.19,148.47,148.47,0,0,0,1.33,16A3.31,3.31,0,0,1,33.29,242Z"/><path class="cls-4" d="M32.35,209.19a3.3,3.3,0,0,1-1.48-3,155.85,155.85,0,0,1,2.23-16.65,3.31,3.31,0,0,1,6.5,1.24,147.37,147.37,0,0,0-2.14,15.94,3.31,3.31,0,0,1-3.56,3A3.37,3.37,0,0,1,32.35,209.19Z"/><path class="cls-4" d="M38.46,176.93a3.31,3.31,0,0,1-1.34-3.73,159,159,0,0,1,5.73-15.78A3.31,3.31,0,1,1,48.94,160a150.85,150.85,0,0,0-5.5,15.12,3.3,3.3,0,0,1-4.12,2.2A3.56,3.56,0,0,1,38.46,176.93Z"/><path class="cls-4" d="M51.3,146.71a3.32,3.32,0,0,1-1.07-4.37c1.87-3.34,3.88-6.66,6-9.85,1-1.46,2-2.93,3-4.36a3.31,3.31,0,0,1,5.4,3.82c-1,1.37-1.93,2.77-2.86,4.18-2,3.06-3.93,6.23-5.72,9.43a3.31,3.31,0,0,1-4.5,1.28Z"/><path class="cls-4" d="M70.27,119.91a3.27,3.27,0,0,1-.37-.28,3.31,3.31,0,0,1-.29-4.67,154.59,154.59,0,0,1,11.77-12,3.31,3.31,0,0,1,4.46,4.88,150.74,150.74,0,0,0-11.28,11.47A3.3,3.3,0,0,1,70.27,119.91Z"/><path class="cls-4" d="M94.51,97.78a3.26,3.26,0,0,1-.85-.81,3.3,3.3,0,0,1,.72-4.62,155.63,155.63,0,0,1,14.07-9.17,3.31,3.31,0,0,1,3.3,5.73,149.5,149.5,0,0,0-13.47,8.78A3.3,3.3,0,0,1,94.51,97.78Z"/><path class="cls-4" d="M122.93,81.37a3.3,3.3,0,0,1,.49-5.78c4.43-2,9-3.74,13.64-5.29l2-.67a3.31,3.31,0,1,1,2,6.29l-2,.65c-4.43,1.49-8.82,3.19-13.07,5.07A3.31,3.31,0,0,1,122.93,81.37Z"/><path class="cls-4" d="M154.13,71.09a3.31,3.31,0,0,1,1.05-6c5.41-1.29,10.93-2.37,16.41-3.22a3.3,3.3,0,1,1,1,6.53c-5.3.82-10.64,1.88-15.88,3.13A3.29,3.29,0,0,1,154.13,71.09Z"/><path class="cls-4" d="M186.63,66A3.3,3.3,0,0,1,188.2,60c5.53-.41,11.16-.6,16.71-.56a3.31,3.31,0,1,1,0,6.61c-5.37,0-10.81.15-16.18.55A3.28,3.28,0,0,1,186.63,66Z"/><path d="M3.41,421.32a3,3,0,0,1-3-3V389.78a3,3,0,0,1,3-3H532.29a3,3,0,0,1,3,3v28.54a3,3,0,0,1-3,3Zm0-33.54a2,2,0,0,0-2,2v28.54a2,2,0,0,0,2,2H532.29a2,2,0,0,0,2-2V389.78a2,2,0,0,0-2-2Z"/></g></g></g></svg>