<svg xmlns="http://www.w3.org/2000/svg" viewBox="0 0 408.34 371.79"><defs><style>.cls-1{isolation:isolate;}.cls-15,.cls-2{fill:none;}.cls-13,.cls-3,.cls-5{fill:#fbf6eb;}.cls-4{fill:#193747;}.cls-13,.cls-5{stroke:#193747;stroke-linejoin:round;}.cls-13,.cls-15,.cls-5{stroke-linecap:round;}.cls-5{stroke-width:2.73px;}.cls-6{fill:#74c9e6;}.cls-7{fill:#fcf4bb;}.cls-8{fill:#36b39f;}.cls-9{mix-blend-mode:multiply;}.cls-10{fill:#ececec;}.cls-11{fill:#d1c8f7;}.cls-12{fill:#dcd8f7;}.cls-13{stroke-width:3.31px;}.cls-14{fill:#aca0fa;}.cls-15{stroke:#fff;stroke-miterlimit:10;stroke-width:3.74px;stroke-dasharray:3.26 0.81 5.43;}</style></defs><g class="cls-1"><g id="Capa_2" data-name="Capa 2"><g id="Capa_1-2" data-name="Capa 1"><rect class="cls-2" width="408.34" height="371.79"/><path class="cls-3" d="M286.27,208.5a1.32,1.32,0,0,1-.39-.06L166.7,173.25a1.35,1.35,0,0,1-.92-1.7L211.67,16.11a1.36,1.36,0,0,1,1.31-1,1.74,1.74,0,0,1,.39,0l96.34,28.45a1.36,1.36,0,0,1,.81.66l16.1,29.59a1.33,1.33,0,0,1,.11,1.05L287.58,207.52a1.35,1.35,0,0,1-.65.81A1.41,1.41,0,0,1,286.27,208.5Z"/><path class="cls-4" d="M213,16.5l96.34,28.44,16.1,29.6L286.27,207.13,167.09,171.94,213,16.5m0-2.74a2.73,2.73,0,0,0-2.62,2l-45.9,155.45a2.73,2.73,0,0,0,1.85,3.39l119.19,35.2a2.87,2.87,0,0,0,.77.11,2.77,2.77,0,0,0,1.31-.33,2.73,2.73,0,0,0,1.31-1.63l39.16-132.6a2.75,2.75,0,0,0-.23-2.08l-16.1-29.6a2.73,2.73,0,0,0-1.63-1.31L213.76,13.87a3,3,0,0,0-.78-.11Z"/><path class="cls-3" d="M325.42,75.91a1.76,1.76,0,0,1-.31,0L300.46,70.1a1.32,1.32,0,0,1-.89-.67,1.37,1.37,0,0,1-.09-1.12L308,44.48a1.36,1.36,0,0,1,1.18-.9h.11a1.35,1.35,0,0,1,1.2.72l16.1,29.59a1.37,1.37,0,0,1-.11,1.49A1.38,1.38,0,0,1,325.42,75.91Z"/><path class="cls-4" d="M309.32,44.94l16.1,29.6-24.65-5.77,8.55-23.83m0-2.74h-.21A2.74,2.74,0,0,0,306.75,44l-8.56,23.83a2.72,2.72,0,0,0,.18,2.23,2.76,2.76,0,0,0,1.77,1.36L324.8,77.2a2.68,2.68,0,0,0,.62.07,2.72,2.72,0,0,0,2.4-4l-16.1-29.6a2.74,2.74,0,0,0-2.4-1.43Z"/><line class="cls-5" x1="221.36" y1="58.82" x2="302.15" y2="82.68"/><line class="cls-5" x1="217.23" y1="72.82" x2="298.01" y2="96.68"/><line class="cls-5" x1="213.09" y1="86.82" x2="293.88" y2="110.67"/><line class="cls-5" x1="208.96" y1="100.82" x2="289.75" y2="124.67"/><line class="cls-5" x1="204.83" y1="114.82" x2="285.61" y2="138.67"/><line class="cls-5" x1="200.69" y1="128.82" x2="281.48" y2="152.67"/><line class="cls-5" x1="196.56" y1="142.81" x2="277.35" y2="166.67"/><line class="cls-5" x1="192.43" y1="156.81" x2="273.21" y2="180.66"/><path class="cls-3" d="M106.28,193.12a1.73,1.73,0,0,1-1.56-1L58.09,96.32A1.73,1.73,0,0,1,58,95a1.77,1.77,0,0,1,.88-1l95.83-46.63a1.75,1.75,0,0,1,2.32.8L203.67,144a1.73,1.73,0,0,1-.8,2.32L107,193A1.75,1.75,0,0,1,106.28,193.12Z"/><path class="cls-4" d="M155.48,48.93l46.63,95.83-95.83,46.63L59.65,95.56l95.83-46.63m0-3.46a3.37,3.37,0,0,0-1.51.35L58.13,92.45a3.45,3.45,0,0,0-1.75,2,3.41,3.41,0,0,0,.16,2.64l46.63,95.84a3.45,3.45,0,0,0,3.11,1.94,3.5,3.5,0,0,0,1.51-.34l95.84-46.64a3.47,3.47,0,0,0,1.6-4.62L158.59,47.41a3.45,3.45,0,0,0-3.11-1.94Z"/><path class="cls-6" d="M104.42,164a1.85,1.85,0,0,1-.57-.1,1.72,1.72,0,0,1-1-.88L72.6,100.83a1.73,1.73,0,0,1-.08-1.32,1.77,1.77,0,0,1,.88-1l75.92-36.94a1.82,1.82,0,0,1,.75-.17,1.73,1.73,0,0,1,1.56,1l30.26,62.19a1.73,1.73,0,0,1,.08,1.32,1.75,1.75,0,0,1-.88,1l-75.92,36.94A1.66,1.66,0,0,1,104.42,164Z"/><path class="cls-4" d="M150.08,63.13l30.26,62.18-75.92,36.95L74.16,100.07l75.92-36.94m0-3.46a3.44,3.44,0,0,0-1.51.35L72.64,97a3.45,3.45,0,0,0-1.75,2,3.41,3.41,0,0,0,.16,2.64l30.25,62.19a3.48,3.48,0,0,0,2,1.76,3.57,3.57,0,0,0,1.13.19,3.48,3.48,0,0,0,1.51-.35l75.92-36.94a3.52,3.52,0,0,0,1.76-2,3.46,3.46,0,0,0-.16-2.64L153.19,61.62a3.45,3.45,0,0,0-3.12-1.95Z"/><path class="cls-7" d="M105.46,116a11.19,11.19,0,1,1,4.89-1.13A11.11,11.11,0,0,1,105.46,116Z"/><path class="cls-4" d="M105.45,95.36a9.47,9.47,0,1,1-4.13,1,9.46,9.46,0,0,1,4.13-1m0-3.46h0a12.95,12.95,0,0,0-12.2,8.71,12.82,12.82,0,0,0,.59,9.87A12.92,12.92,0,1,0,105.45,91.9Z"/><path class="cls-8" d="M105.66,163.38a1.7,1.7,0,0,1-.92-.27,1.72,1.72,0,0,1-.81-1.47c0-1.11.3-27.22,8.17-35.89,1.78-2,4.77-2.9,9.16-2.9,14.16,0,38.78,10.12,39.82,10.56a1.73,1.73,0,0,1,.1,3.15l-54.76,26.65A1.83,1.83,0,0,1,105.66,163.38Z"/><path class="cls-4" d="M121.26,124.58c14,0,39.16,10.42,39.16,10.42l-54.76,26.65s.21-26.46,7.73-34.74c1.51-1.67,4.33-2.33,7.87-2.33m0-3.46h0c-4.9,0-8.32,1.13-10.44,3.47-8.17,9-8.6,34.19-8.62,37a3.47,3.47,0,0,0,1.61,3,3.51,3.51,0,0,0,1.85.53,3.34,3.34,0,0,0,1.51-.35l54.77-26.64a3.46,3.46,0,0,0-.19-6.31c-1.06-.44-26-10.69-40.49-10.69Z"/><path class="cls-8" d="M125.57,153.69a1.72,1.72,0,0,1-1-.33,1.75,1.75,0,0,1-.69-1.66c.24-1.56,5.85-38.5,13.63-47.06a7,7,0,0,1,5.41-2.11c12.12,0,37.46,20.57,38.53,21.44a1.74,1.74,0,0,1-.34,2.9l-54.76,26.65A1.83,1.83,0,0,1,125.57,153.69Z"/><path class="cls-4" d="M142.9,104.26c11.64,0,37.44,21,37.44,21L125.57,152s5.68-37.88,13.2-46.16a5.34,5.34,0,0,1,4.13-1.54m0-3.46h0a8.68,8.68,0,0,0-6.69,2.67c-8,8.8-13.46,44-14.06,48a3.47,3.47,0,0,0,1.37,3.3,3.51,3.51,0,0,0,2,.67,3.38,3.38,0,0,0,1.52-.35l54.76-26.64a3.47,3.47,0,0,0,.67-5.8c-2.73-2.23-27.1-21.83-39.62-21.83Z"/><g class="cls-9"><rect class="cls-10" x="127.86" y="55.29" width="53.64" height="106.58" transform="translate(-31.92 78.62) rotate(-25.95)"/></g><rect class="cls-11" x="112.5" y="236.44" width="194.82" height="119.94" rx="1.66"/><path class="cls-4" d="M305.66,238.09V354.72H114.16V238.09h191.5m0-3.31H114.16a3.32,3.32,0,0,0-3.32,3.31V354.72a3.32,3.32,0,0,0,3.32,3.31h191.5a3.32,3.32,0,0,0,3.32-3.31V238.09a3.32,3.32,0,0,0-3.32-3.31Z"/><path class="cls-12" d="M114.16,239.75a1.65,1.65,0,0,1-1.58-1.15,1.67,1.67,0,0,1,.61-1.86L209,168.49a1.66,1.66,0,0,1,1-.31,1.69,1.69,0,0,1,1,.31l95.75,68.25a1.66,1.66,0,0,1-1,3Z"/><path class="cls-4" d="M209.91,169.84l95.75,68.25H114.16l95.75-68.25m0-3.31a3.27,3.27,0,0,0-1.92.61L112.23,235.4a3.31,3.31,0,0,0,1.93,6h191.5a3.31,3.31,0,0,0,1.93-6l-95.76-68.26a3.29,3.29,0,0,0-1.92-.61Z"/><path class="cls-3" d="M134.62,325.6a1.66,1.66,0,0,1-1.66-1.66V127.57a1.66,1.66,0,0,1,1.66-1.66h121.7a1.66,1.66,0,0,1,1.17.49l28.87,28.87a1.65,1.65,0,0,1,.48,1.17v167.5a1.65,1.65,0,0,1-1.65,1.66Z"/><path class="cls-4" d="M256.32,127.57l28.87,28.87v167.5H134.62V127.57h121.7m0-3.31H134.62a3.31,3.31,0,0,0-3.31,3.31V323.94a3.32,3.32,0,0,0,3.31,3.32H285.19a3.32,3.32,0,0,0,3.31-3.32V156.44a3.35,3.35,0,0,0-1-2.35l-28.87-28.86a3.31,3.31,0,0,0-2.34-1Z"/><path class="cls-3" d="M254.56,159.85a1.65,1.65,0,0,1-1.17-.48,1.69,1.69,0,0,1-.49-1.27l1.77-30.62a1.64,1.64,0,0,1,1.06-1.46,1.71,1.71,0,0,1,.59-.11,1.65,1.65,0,0,1,1.17.49l28.87,28.87a1.66,1.66,0,0,1-1.08,2.82Z"/><path class="cls-4" d="M256.32,127.57l28.87,28.87-30.63,1.76,1.76-30.63m0-3.31a3.41,3.41,0,0,0-1.18.21,3.34,3.34,0,0,0-2.13,2.91L251.25,158a3.32,3.32,0,0,0,3.31,3.5h.19l30.63-1.77a3.29,3.29,0,0,0,2.9-2.12,3.32,3.32,0,0,0-.75-3.53l-28.87-28.86a3.28,3.28,0,0,0-2.34-1Z"/><line class="cls-13" x1="158.87" y1="173.88" x2="260.93" y2="173.88"/><line class="cls-13" x1="158.87" y1="191.57" x2="260.93" y2="191.57"/><line class="cls-13" x1="158.87" y1="209.25" x2="260.93" y2="209.25"/><line class="cls-13" x1="158.87" y1="226.93" x2="260.93" y2="226.93"/><line class="cls-13" x1="158.87" y1="244.62" x2="260.93" y2="244.62"/><line class="cls-13" x1="158.87" y1="262.3" x2="260.93" y2="262.3"/><line class="cls-13" x1="158.87" y1="279.98" x2="260.93" y2="279.98"/><line class="cls-13" x1="158.87" y1="297.67" x2="260.93" y2="297.67"/><path class="cls-14" d="M114.16,356.38a1.66,1.66,0,0,1-1.66-1.66V238.09a1.66,1.66,0,0,1,.9-1.47,1.69,1.69,0,0,1,1.72.12l94.79,67.57,94.79-67.57a1.68,1.68,0,0,1,1-.3,1.7,1.7,0,0,1,.76.18,1.66,1.66,0,0,1,.9,1.47V354.72a1.66,1.66,0,0,1-1.66,1.66Z"/><path class="cls-4" d="M305.66,238.09V354.72H114.16V238.09l95.75,68.26,95.75-68.26m0-3.31a3.3,3.3,0,0,0-1.92.62l-93.83,66.88L116.08,235.4a3.31,3.31,0,0,0-5.24,2.69V354.72a3.32,3.32,0,0,0,3.32,3.31h191.5a3.32,3.32,0,0,0,3.32-3.31V238.09a3.32,3.32,0,0,0-1.8-2.94,3.28,3.28,0,0,0-1.52-.37Z"/><path class="cls-14" d="M114.16,356.38a1.66,1.66,0,0,1-.87-3.07L209.05,295a1.66,1.66,0,0,1,1.72,0l95.76,58.32a1.66,1.66,0,0,1-.87,3.07Z"/><path class="cls-4" d="M209.91,296.41l95.75,58.31H114.16l95.75-58.31m0-3.32a3.3,3.3,0,0,0-1.72.49l-95.76,58.31a3.31,3.31,0,0,0,1.73,6.14h191.5a3.31,3.31,0,0,0,1.73-6.14l-95.76-58.31a3.32,3.32,0,0,0-1.72-.49Z"/><path class="cls-14" d="M354.61,356.74a9.44,9.44,0,0,1-8.08-2.11l-26.11-20.21-4.49,5.81a8.8,8.8,0,0,1-4.9,3.4c-3.37.76-6.47-1.22-8.08-5.17L283.8,291.65a8.22,8.22,0,0,1-.07-7,6.46,6.46,0,0,1,4.46-3.27,10.1,10.1,0,0,1,3.62-.11l50.12,6.82c3.22.44,5.61,2,6.57,4.39s.38,5.17-1.61,7.73L342.4,306l26.1,20.21c4.65,3.6,5.39,9.09,1.85,13.67L360.23,353a9.88,9.88,0,0,1-5.62,3.74Z"/><path class="cls-4" d="M288.66,283.51a8.4,8.4,0,0,1,2.86-.07l50.12,6.82c5.09.69,6.68,4.58,3.54,8.64l-5.83,7.53L367.18,328c4.06,3.14,4,7.36,1.46,10.63l-10.12,13.07a7.8,7.8,0,0,1-4.38,3,7.47,7.47,0,0,1-6.28-1.71L320,331.38l-5.83,7.52a6.62,6.62,0,0,1-3.65,2.62c-2.21.49-4.36-.84-5.61-3.88L285.8,290.83c-1.54-3.76-.26-6.62,2.86-7.32m-1-4.23a8.62,8.62,0,0,0-5.91,4.39,10.38,10.38,0,0,0,0,8.8l19.15,46.81c2,4.92,6.16,7.45,10.57,6.47a11,11,0,0,0,6.13-4.19l3.17-4.1,24.4,18.89a11.84,11.84,0,0,0,9.88,2.51,12,12,0,0,0,6.85-4.53l10.13-13.08c4.26-5.52,3.34-12.39-2.24-16.71l-24.39-18.89,3.17-4.09c2.47-3.2,3.16-6.8,1.9-9.89s-4.28-5.16-8.29-5.71l-50.12-6.81a12.32,12.32,0,0,0-4.39.13Z"/><g class="cls-9"><path class="cls-10" d="M341.64,290.26l-50.12-6.82c-2.67-.36-4.65.38-5.64,1.86l77.54,60,5.22-6.73c2.53-3.27,2.6-7.49-1.46-10.63l-27.83-21.54,5.83-7.53C348.32,294.84,346.73,291,341.64,290.26Z"/></g><line class="cls-15" x1="259.89" y1="273.31" x2="276.65" y2="284.08"/><line class="cls-15" x1="284.67" y1="256.09" x2="288.92" y2="275.56"/><line class="cls-15" x1="254.53" y1="303.01" x2="274" y2="298.77"/><line class="cls-15" x1="269.73" y1="262.84" x2="281.52" y2="278.89"/><line class="cls-15" x1="299.04" y1="255.64" x2="296.03" y2="275.34"/><line class="cls-15" x1="261.28" y1="317.96" x2="277.34" y2="306.16"/><line class="cls-15" x1="254.09" y1="288.65" x2="273.78" y2="291.66"/></g></g></g></svg>