<svg xmlns="http://www.w3.org/2000/svg" xmlns:xlink="http://www.w3.org/1999/xlink" viewBox="0 0 1554 521"><defs><style>.cls-1{fill:none;}.cls-2{fill:#44576a;}.cls-3{fill:#fffffd;}.cls-4{fill:#c6d0d6;}.cls-5{fill:#fff;}.cls-6{fill:#d6dbd8;}.cls-7{fill:#dfe7db;}.cls-8{clip-path:url(#clip-path);}.cls-9{fill:#e18763;}.cls-10{fill:#ffbea3;}.cls-11{fill:#ffd6c4;}.cls-12{fill:#5a5350;}.cls-13{fill:#e1e1e1;}.cls-14{fill:#464650;}.cls-15{opacity:0.43;}.cls-16{fill:#a5b8c5;}.cls-17{fill:#a7a7a7;}.cls-18{fill:#f9b233;}.cls-19{clip-path:url(#clip-path-2);}.cls-20{clip-path:url(#clip-path-3);}.cls-21{fill:#b17f4a;}</style><clipPath id="clip-path"><rect id="SVGID" class="cls-1" x="1084.73" y="301.57" width="16.3" height="22.42" transform="translate(2012.32 981.26) rotate(-159.95)"/></clipPath><clipPath id="clip-path-2"><rect id="SVGID-2" data-name="SVGID" class="cls-1" x="1190.31" y="208.53" width="16.3" height="22.42" transform="translate(2375.51 -95.09) rotate(154.64)"/></clipPath><clipPath id="clip-path-3"><rect id="SVGID-3" data-name="SVGID" class="cls-1" x="1317.96" y="308.99" width="16.3" height="22.42" transform="translate(2661.54 41.46) rotate(154.64)"/></clipPath></defs><g id="Capa_2" data-name="Capa 2"><g id="Capa_1-2" data-name="Capa 1"><circle class="cls-2" cx="1346.57" cy="240.93" r="3.37"/><circle class="cls-2" cx="1343.46" cy="255.02" r="3.37"/><circle class="cls-2" cx="1339.94" cy="268.96" r="3.37"/><circle class="cls-2" cx="1335.03" cy="282.4" r="3.37"/><circle class="cls-2" cx="1329.19" cy="295.5" r="3.37"/><circle class="cls-2" cx="1322.06" cy="308.12" r="3.37"/><circle class="cls-2" cx="1314.18" cy="319.87" r="3.37"/><circle class="cls-2" cx="1304.42" cy="330.94" r="3.37"/><circle class="cls-2" cx="1293.3" cy="339.92" r="3.37"/><circle class="cls-2" cx="1280.84" cy="347.47" r="3.37"/><circle class="cls-2" cx="1267.46" cy="352.43" r="3.37"/><circle class="cls-2" cx="1253.27" cy="354.43" r="3.37"/><circle class="cls-2" cx="1238.88" cy="353.84" r="3.37"/><circle class="cls-2" cx="1224.69" cy="351.18" r="3.37"/><circle class="cls-2" cx="1210.62" cy="347.11" r="3.37"/><circle class="cls-2" cx="1197.35" cy="341.21" r="3.37"/><circle class="cls-2" cx="1184.75" cy="334.55" r="3.37"/><circle class="cls-2" cx="1172.29" cy="326.41" r="3.37"/><circle class="cls-2" cx="1162.13" cy="317.45" r="3.37"/><circle class="cls-2" cx="1152.5" cy="305.56" r="3.37"/><circle class="cls-2" cx="1146.29" cy="293.45" r="3.37"/><circle class="cls-2" cx="1142.97" cy="279.21" r="3.37"/><circle class="cls-2" cx="1142.76" cy="265.57" r="3.37"/><circle class="cls-2" cx="1146.06" cy="251.08" r="3.37"/><circle class="cls-2" cx="1152.87" cy="237.87" r="3.37"/><circle class="cls-2" cx="1161.81" cy="227.57" r="3.37"/><circle class="cls-2" cx="1172.09" cy="219.09" r="3.37"/><circle class="cls-2" cx="1186.12" cy="211.97" r="3.37"/><circle class="cls-2" cx="1200.41" cy="210" r="3.37"/><circle class="cls-2" cx="1214.27" cy="213.2" r="3.37"/><circle class="cls-2" cx="1225.67" cy="220.95" r="3.37"/><circle class="cls-2" cx="1233.2" cy="232.74" r="3.37"/><circle class="cls-2" cx="1241.27" cy="259.82" r="3.37"/><circle class="cls-2" cx="1240.79" cy="245.48" r="3.37"/><circle class="cls-2" cx="1230.72" cy="288.75" r="3.37"/><circle class="cls-2" cx="1237.07" cy="273.52" r="3.37"/><circle class="cls-2" cx="1221.1" cy="297.61" r="3.37"/><circle class="cls-2" cx="1209.98" cy="306.58" r="3.37"/><circle class="cls-2" cx="1198.34" cy="314.44" r="3.37"/><circle class="cls-2" cx="1185.38" cy="321.15" r="3.37"/><circle class="cls-2" cx="1157.35" cy="328.74" r="3.37"/><circle class="cls-2" cx="1143.98" cy="328.91" r="3.37"/><circle class="cls-2" cx="1129.33" cy="330.08" r="3.37"/><circle class="cls-2" cx="1114.54" cy="327.61" r="3.37"/><circle class="cls-2" cx="1100.61" cy="323.86" r="3.37"/><circle class="cls-2" cx="1086.98" cy="318.22" r="3.37"/><circle class="cls-2" cx="1074.64" cy="311.59" r="3.37"/><circle class="cls-2" cx="1062.18" cy="303.45" r="3.37"/><circle class="cls-2" cx="1051.04" cy="295" r="3.37"/><circle class="cls-2" cx="1040.37" cy="284.85" r="3.37"/><path class="cls-2" d="M1296.29,121.25q21.39,19.59,42.49,39.51l181.54-77.27Z"/><path class="cls-2" d="M1348.24,230.12l-9.41-62.05,19.28,17Z"/><path class="cls-2" d="M1351.6,230.5q5.24-18.84,10.46-37.67L1380,210.46c-4,3.09-8.25,6.22-12.64,9.34C1362,223.62,1356.73,227.17,1351.6,230.5Z"/><path class="cls-2" d="M1358.87,180.59l-17.2-16.18,179.79-80.53L1445,129.94Z"/><path class="cls-2" d="M1466.35,162.41l-51.74,71.43q-25.26-25.71-50.5-51.43l157.35-98.53Z"/><rect class="cls-3" x="1049.86" y="287.08" width="55.88" height="34.89" rx="0.54" transform="translate(1985.9 960.07) rotate(-159.95)"/><path class="cls-4" d="M1061.15,279.87l45.26,16.52a3.85,3.85,0,0,1,2.3,4.94l-1.13,3.08-52.49-19.15,1.13-3.09A3.85,3.85,0,0,1,1061.15,279.87Z"/><rect class="cls-5" x="1060.54" y="289.89" width="45.44" height="2.29" transform="translate(2001.12 935.8) rotate(-159.95)"/><rect class="cls-5" x="1059.78" y="292.79" width="45.44" height="0.7" transform="translate(1998.91 939.61) rotate(-159.95)"/><rect class="cls-6" x="1077.94" y="297.66" width="8.68" height="1.73" transform="translate(1996.64 949.98) rotate(-159.95)"/><rect class="cls-6" x="1064.01" y="297.79" width="22.19" height="1.45" transform="translate(1982.72 947.48) rotate(-159.95)"/><rect class="cls-6" x="1072.31" y="302.2" width="12.53" height="1.73" transform="translate(1987.9 957.51) rotate(-159.95)"/><rect class="cls-6" x="1064.03" y="303.32" width="20.2" height="1.45" transform="translate(1978.95 957.89) rotate(-159.95)"/><rect class="cls-6" x="1065.58" y="306.54" width="17.51" height="1.73" transform="translate(1978.2 964.48) rotate(-159.95)"/><rect class="cls-6" x="1073.41" y="310.51" width="8.58" height="1.45" transform="translate(1983.4 973.05) rotate(-159.95)"/><rect class="cls-6" x="1072.25" y="313.25" width="8.68" height="1.73" transform="translate(1980.27 978.26) rotate(-159.95)"/><rect class="cls-6" x="1058.32" y="313.37" width="22.19" height="1.45" transform="translate(1966.35 975.76) rotate(-159.95)"/><rect class="cls-7" x="1084.88" y="301.63" width="16.3" height="22.42" transform="translate(2012.59 981.42) rotate(-159.95)"/><g class="cls-8"><path class="cls-5" d="M1093.43,317.75l-2.86,7.36L1088,326l-1.48-2.46,2.65-7.09S1090.83,314.47,1093.43,317.75Z"/><polygon class="cls-9" points="1089.77 320.75 1090.25 320.93 1091.44 319.23 1089.95 318.69 1089.77 320.75"/><polygon class="cls-9" points="1086.55 325.57 1089.61 326.69 1090.29 320.8 1089.82 320.63 1086.55 325.57"/><path class="cls-10" d="M1096.31,312.27a1.4,1.4,0,1,0,1.84-1A1.47,1.47,0,0,0,1096.31,312.27Z"/><path class="cls-10" d="M1088,309.23a1.4,1.4,0,1,0,1.84-1A1.47,1.47,0,0,0,1088,309.23Z"/><rect class="cls-11" x="1089.35" y="313.77" width="4.42" height="5.3" transform="translate(2008.5 987.86) rotate(-159.95)"/><path class="cls-10" d="M1093.72,316.92a5.61,5.61,0,0,1-2.23-.33,5.78,5.78,0,0,1-1.92-1.18l.82-2.24,4.15,1.51Z"/><rect class="cls-11" x="1089.09" y="304.07" width="9.43" height="11.91" rx="0.59" transform="translate(2015.05 976.22) rotate(-159.95)"/><path class="cls-12" d="M1098.6,307s-5.43,2.2-7.07,1-2.38,1-2.38,1-.27-3.08.41-3.9,1-1.8,3.12-1.59S1100.85,303.05,1098.6,307Z"/><path class="cls-12" d="M1099.86,306.26a1.62,1.62,0,0,1,.75,2.31,44.74,44.74,0,0,1-2.57,3.73s-1.15-4.35-.29-5.32S1099.05,305.7,1099.86,306.26Z"/><path class="cls-10" d="M1095.05,309.45s-.67-.12-1,1-.38,2.31-.85,2.19a.75.75,0,0,1-.55-.46s-.26.84.58.85.92-1.49,1-2.18A3,3,0,0,1,1095.05,309.45Z"/><polygon class="cls-13" points="1093.43 317.75 1090.6 318.98 1092.28 321.05 1093.43 317.75"/><polygon class="cls-13" points="1089.27 316.23 1090.64 319 1088.02 319.49 1089.27 316.23"/><path class="cls-14" d="M1093.49,317.64c0,.12-5.61,8.61-5.61,8.61l8.9,3.25,2.6-7.12Z"/><path class="cls-14" d="M1089.29,316.1c0,.12-1.25,10.21-1.25,10.21l-8.9-3.25,2.59-7.12Z"/></g><g class="cls-15"><path class="cls-16" d="M1058.19,290.92l-5,13.69,11.69,4.27,5-13.7Zm1.56,13a4.56,4.56,0,1,0-2.72-5.84A4.56,4.56,0,0,0,1059.75,304Z"/><circle class="cls-16" cx="1061.29" cy="299.63" r="3.5" transform="translate(416.01 1193.9) rotate(-69.95)"/></g><rect class="cls-17" x="1078.04" y="319.36" width="0.64" height="2.3" transform="translate(1981.5 991.27) rotate(-159.95)"/><rect class="cls-17" x="1075.85" y="318.8" width="1.97" height="2.3" transform="translate(1978.74 989.67) rotate(-159.95)"/><rect class="cls-17" x="1075.58" y="318.38" width="0.19" height="2.3" transform="translate(1976.63 988.45) rotate(-159.95)"/><rect class="cls-17" x="1074.38" y="317.94" width="0.19" height="2.3" transform="translate(1974.46 987.19) rotate(-159.95)"/><rect class="cls-17" x="1073.18" y="317.51" width="0.19" height="2.3" transform="translate(1972.28 985.93) rotate(-159.95)"/><rect class="cls-17" x="1072.37" y="317.21" width="0.19" height="2.3" transform="translate(1970.8 985.07) rotate(-159.95)"/><rect class="cls-17" x="1071.55" y="316.91" width="0.19" height="2.3" transform="translate(1969.32 984.22) rotate(-159.95)"/><rect class="cls-17" x="1070.35" y="316.47" width="0.19" height="2.3" transform="translate(1967.14 982.96) rotate(-159.95)"/><rect class="cls-17" x="1069.53" y="316.17" width="0.19" height="2.3" transform="translate(1965.66 982.1) rotate(-159.95)"/><rect class="cls-17" x="1068.72" y="315.88" width="0.19" height="2.3" transform="translate(1964.18 981.24) rotate(-159.95)"/><rect class="cls-17" x="1067.9" y="315.58" width="0.19" height="2.3" transform="translate(1962.69 980.38) rotate(-159.95)"/><rect class="cls-17" x="1066.7" y="315.14" width="0.19" height="2.3" transform="translate(1960.52 979.12) rotate(-159.95)"/><rect class="cls-17" x="1064.64" y="314.55" width="1.07" height="2.3" transform="translate(1957.59 977.43) rotate(-159.95)"/><rect class="cls-17" x="1062.82" y="313.77" width="0.44" height="2.3" transform="translate(1953.71 975.18) rotate(-159.95)"/><rect class="cls-3" x="1154.04" y="207.23" width="55.88" height="34.89" rx="0.58" transform="translate(2346.27 -78.63) rotate(154.64)"/><path class="cls-18" d="M1152.74,219.24l43.54-20.64a3.85,3.85,0,0,1,5.13,1.82l1.4,3-50.49,23.94-1.41-3A3.84,3.84,0,0,1,1152.74,219.24Z"/><rect class="cls-5" x="1153.5" y="210.18" width="45.44" height="2.29" transform="translate(2329.58 -101.58) rotate(154.64)"/><rect class="cls-5" x="1154.46" y="213" width="45.44" height="0.7" transform="translate(2332.27 -98.14) rotate(154.64)"/><rect class="cls-6" x="1176.52" y="216.42" width="8.68" height="1.73" transform="translate(2340.97 -92.23) rotate(154.64)"/><rect class="cls-6" x="1164.71" y="221.66" width="22.19" height="1.45" transform="translate(2333.53 -80.35) rotate(154.64)"/><rect class="cls-6" x="1175.22" y="222.24" width="12.53" height="1.73" transform="translate(2344.66 -81.41) rotate(154.64)"/><rect class="cls-6" x="1168.97" y="226.24" width="20.2" height="1.45" transform="translate(2341.71 -73.04) rotate(154.64)"/><rect class="cls-6" x="1172.85" y="228.31" width="17.51" height="1.73" transform="translate(2347.48 -69.92) rotate(154.64)"/><rect class="cls-6" x="1182.4" y="228.74" width="8.58" height="1.45" transform="translate(2357.29 -71.54) rotate(154.64)"/><rect class="cls-6" x="1183.63" y="231.41" width="8.68" height="1.73" transform="translate(2360.92 -66.73) rotate(154.64)"/><rect class="cls-6" x="1171.82" y="236.65" width="22.19" height="1.45" transform="translate(2353.48 -54.86) rotate(154.64)"/><rect class="cls-7" x="1190.45" y="208.46" width="16.3" height="22.42" transform="translate(2375.76 -95.28) rotate(154.64)"/><g class="cls-19"><path class="cls-5" d="M1202.38,222.83l3.23,7.21-1.18,2.41-2.79-.67-3.18-6.87S1198.22,222.38,1202.38,222.83Z"/><polygon class="cls-9" points="1201.94 227.55 1202.41 227.33 1202.04 225.29 1200.6 225.97 1201.94 227.55"/><polygon class="cls-9" points="1203.12 233.23 1206.06 231.84 1202.35 227.21 1201.9 227.43 1203.12 233.23"/><path class="cls-10" d="M1200.49,216.94a1.4,1.4,0,1,0,.6-2A1.49,1.49,0,0,0,1200.49,216.94Z"/><path class="cls-10" d="M1192.48,220.74a1.4,1.4,0,1,0,.59-2A1.48,1.48,0,0,0,1192.48,220.74Z"/><rect class="cls-11" x="1197.91" y="220.58" width="4.42" height="5.3" transform="translate(2380.17 -89.15) rotate(154.64)"/><path class="cls-10" d="M1202,222.05a5.43,5.43,0,0,1-1.8,1.35,5.56,5.56,0,0,1-2.19.54l-1-2.16,4-1.89Z"/><rect class="cls-11" x="1192.42" y="211.19" width="9.43" height="11.91" rx="0.59" transform="translate(2371.89 -99.46) rotate(154.64)"/><path class="cls-12" d="M1198.33,211.59s-2.24,5.41-4.27,5.71-1,2.38-1,2.38-2.38-2-2.49-3c-.09-.89-.6-1.95,1.05-3.33S1197.12,207.23,1198.33,211.59Z"/><path class="cls-12" d="M1198.71,210.19a1.63,1.63,0,0,1,2.17,1.09c.46,1.68.85,4.45.85,4.45s-3.9-2.24-4-3.53S1197.74,210.37,1198.71,210.19Z"/><path class="cls-10" d="M1197.61,215.86s-.56.39,0,1.4,1.39,1.9,1,2.14a.75.75,0,0,1-.71.08s.41.77,1,.18-.41-1.7-.84-2.25A2.87,2.87,0,0,1,1197.61,215.86Z"/><polygon class="cls-13" points="1202.38 222.84 1201.27 225.72 1203.92 225.97 1202.38 222.84"/><polygon class="cls-13" points="1198.37 224.74 1201.31 225.7 1199.82 227.91 1198.37 224.74"/><path class="cls-14" d="M1202.34,222.71c.06.12,2.19,10,2.19,10l8.57-4.06-3.25-6.85Z"/><path class="cls-14" d="M1198.3,224.63c0,.11,6.39,8.05,6.39,8.05l-8.57,4.06-3.24-6.84Z"/></g><g class="cls-15"><path class="cls-16" d="M1158.53,229.1l6.24,13.17,11.25-5.33-6.25-13.17Zm10.38,8a4.56,4.56,0,1,0-6.07-2.17A4.56,4.56,0,0,0,1168.91,237.14Z"/><circle class="cls-16" cx="1166.91" cy="233" r="3.5" transform="translate(12.68 522.33) rotate(-25.36)"/></g><rect class="cls-17" x="1193.44" y="234.36" width="0.64" height="2.3" transform="translate(2373.34 -63.06) rotate(154.64)"/><rect class="cls-17" x="1191.32" y="235.05" width="1.97" height="2.3" transform="translate(2370.85 -61.11) rotate(154.64)"/><rect class="cls-17" x="1191.09" y="235.58" width="0.19" height="2.3" transform="translate(2368.95 -59.63) rotate(154.64)"/><rect class="cls-17" x="1189.94" y="236.13" width="0.19" height="2.3" transform="translate(2366.99 -58.09) rotate(154.64)"/><rect class="cls-17" x="1188.78" y="236.67" width="0.19" height="2.3" transform="translate(2365.03 -56.56) rotate(154.64)"/><rect class="cls-17" x="1188" y="237.05" width="0.19" height="2.3" transform="translate(2363.69 -55.51) rotate(154.64)"/><rect class="cls-17" x="1187.21" y="237.42" width="0.19" height="2.3" transform="translate(2362.35 -54.47) rotate(154.64)"/><rect class="cls-17" x="1186.06" y="237.96" width="0.19" height="2.3" transform="translate(2360.39 -52.93) rotate(154.64)"/><rect class="cls-17" x="1185.27" y="238.34" width="0.19" height="2.3" transform="translate(2359.06 -51.89) rotate(154.64)"/><rect class="cls-17" x="1184.49" y="238.71" width="0.19" height="2.3" transform="translate(2357.72 -50.84) rotate(154.64)"/><rect class="cls-17" x="1183.7" y="239.08" width="0.19" height="2.3" transform="translate(2356.38 -49.79) rotate(154.64)"/><rect class="cls-17" x="1182.55" y="239.63" width="0.19" height="2.3" transform="translate(2354.42 -48.26) rotate(154.64)"/><rect class="cls-17" x="1180.55" y="240.37" width="1.07" height="2.3" transform="translate(2351.78 -46.19) rotate(154.64)"/><rect class="cls-17" x="1178.81" y="241.34" width="0.44" height="2.3" transform="translate(2348.28 -43.46) rotate(154.64)"/><rect class="cls-3" x="1281.69" y="307.69" width="55.88" height="34.89" rx="0.58" transform="translate(2632.3 57.92) rotate(154.64)"/><path class="cls-4" d="M1280.39,319.7l43.54-20.64a3.85,3.85,0,0,1,5.13,1.82l1.4,3L1280,327.79l-1.41-3A3.84,3.84,0,0,1,1280.39,319.7Z"/><rect class="cls-5" x="1281.15" y="310.64" width="45.44" height="2.29" transform="translate(2615.61 34.97) rotate(154.64)"/><rect class="cls-5" x="1282.11" y="313.45" width="45.44" height="0.7" transform="translate(2618.3 38.41) rotate(154.64)"/><rect class="cls-6" x="1304.17" y="316.88" width="8.68" height="1.73" transform="translate(2627 44.33) rotate(154.64)"/><rect class="cls-6" x="1292.36" y="322.12" width="22.19" height="1.45" transform="translate(2619.56 56.2) rotate(154.64)"/><rect class="cls-6" x="1302.87" y="322.7" width="12.53" height="1.73" transform="translate(2630.69 55.14) rotate(154.64)"/><rect class="cls-6" x="1296.62" y="326.7" width="20.2" height="1.45" transform="translate(2627.73 63.51) rotate(154.64)"/><rect class="cls-6" x="1300.5" y="328.77" width="17.51" height="1.73" transform="translate(2633.51 66.63) rotate(154.64)"/><rect class="cls-6" x="1310.05" y="329.2" width="8.58" height="1.45" transform="translate(2643.31 65.02) rotate(154.64)"/><rect class="cls-6" x="1311.28" y="331.87" width="8.68" height="1.73" transform="translate(2646.95 69.82) rotate(154.64)"/><rect class="cls-6" x="1299.47" y="337.11" width="22.19" height="1.45" transform="translate(2639.51 81.7) rotate(154.64)"/><rect class="cls-7" x="1318.1" y="308.92" width="16.3" height="22.42" transform="translate(2661.79 41.27) rotate(154.64)"/><g class="cls-20"><path class="cls-5" d="M1330,323.29l3.23,7.21-1.18,2.4-2.79-.67-3.18-6.86S1325.87,322.84,1330,323.29Z"/><polygon class="cls-9" points="1329.59 328.01 1330.06 327.79 1329.69 325.75 1328.25 326.43 1329.59 328.01"/><polygon class="cls-9" points="1330.77 333.69 1333.71 332.29 1329.99 327.67 1329.55 327.88 1330.77 333.69"/><path class="cls-10" d="M1328.14,317.4a1.4,1.4,0,1,0,.6-2A1.49,1.49,0,0,0,1328.14,317.4Z"/><path class="cls-10" d="M1320.13,321.19a1.4,1.4,0,1,0,.59-2A1.47,1.47,0,0,0,1320.13,321.19Z"/><rect class="cls-11" x="1325.56" y="321.04" width="4.42" height="5.3" transform="translate(2666.2 47.41) rotate(154.64)"/><path class="cls-10" d="M1329.64,322.5a5.33,5.33,0,0,1-1.8,1.36,5.56,5.56,0,0,1-2.19.54l-1-2.16,4-1.89Z"/><rect class="cls-11" x="1320.07" y="311.65" width="9.43" height="11.91" rx="0.59" transform="matrix(-0.9, 0.43, -0.43, -0.9, 2657.92, 37.09)"/><path class="cls-21" d="M1326,312.05s-2.24,5.41-4.27,5.71-1,2.38-1,2.38-2.38-2-2.49-3c-.09-.89-.6-2,1-3.33S1324.77,307.69,1326,312.05Z"/><path class="cls-21" d="M1326.36,310.65a1.63,1.63,0,0,1,2.17,1.09c.46,1.67.85,4.45.85,4.45s-3.9-2.24-4-3.53S1325.39,310.83,1326.36,310.65Z"/><path class="cls-10" d="M1325.26,316.32s-.56.39,0,1.4,1.39,1.9,1,2.14a.73.73,0,0,1-.71.07s.41.78,1,.19-.41-1.7-.84-2.25A2.87,2.87,0,0,1,1325.26,316.32Z"/><polygon class="cls-13" points="1330.03 323.3 1328.92 326.18 1331.57 326.43 1330.03 323.3"/><polygon class="cls-13" points="1326.02 325.19 1328.96 326.16 1327.47 328.37 1326.02 325.19"/><path class="cls-14" d="M1330,323.17c.06.12,2.19,10.05,2.19,10.05l8.57-4.06-3.25-6.85Z"/><path class="cls-14" d="M1326,325.09c0,.11,6.39,8.05,6.39,8.05l-8.57,4.06-3.24-6.84Z"/></g><g class="cls-15"><path class="cls-16" d="M1286.18,329.56l6.24,13.17,11.25-5.33-6.25-13.17Zm10.38,8a4.56,4.56,0,1,0-6.07-2.17A4.56,4.56,0,0,0,1296.56,337.6Z"/><circle class="cls-16" cx="1294.56" cy="333.46" r="3.5" transform="translate(-18.05 586.7) rotate(-25.36)"/></g><rect class="cls-17" x="1321.09" y="334.82" width="0.64" height="2.3" transform="translate(2659.36 73.49) rotate(154.64)"/><rect class="cls-17" x="1318.97" y="335.51" width="1.97" height="2.3" transform="translate(2656.88 75.44) rotate(154.64)"/><rect class="cls-17" x="1318.74" y="336.04" width="0.19" height="2.3" transform="translate(2654.97 76.93) rotate(154.64)"/><rect class="cls-17" x="1317.59" y="336.59" width="0.19" height="2.3" transform="translate(2653.02 78.46) rotate(154.64)"/><rect class="cls-17" x="1316.43" y="337.13" width="0.19" height="2.3" transform="translate(2651.06 79.99) rotate(154.64)"/><rect class="cls-17" x="1315.65" y="337.51" width="0.19" height="2.3" transform="translate(2649.72 81.04) rotate(154.64)"/><rect class="cls-17" x="1314.86" y="337.88" width="0.19" height="2.3" transform="translate(2648.38 82.09) rotate(154.64)"/><rect class="cls-17" x="1313.71" y="338.42" width="0.19" height="2.3" transform="translate(2646.42 83.62) rotate(154.64)"/><rect class="cls-17" x="1312.92" y="338.8" width="0.19" height="2.3" transform="translate(2645.09 84.67) rotate(154.64)"/><rect class="cls-17" x="1312.14" y="339.17" width="0.19" height="2.3" transform="translate(2643.75 85.71) rotate(154.64)"/><rect class="cls-17" x="1311.35" y="339.54" width="0.19" height="2.3" transform="translate(2642.41 86.76) rotate(154.64)"/><rect class="cls-17" x="1310.2" y="340.09" width="0.19" height="2.3" transform="translate(2640.45 88.29) rotate(154.64)"/><rect class="cls-17" x="1308.2" y="340.82" width="1.07" height="2.3" transform="translate(2637.81 90.36) rotate(154.64)"/><rect class="cls-17" x="1306.46" y="341.8" width="0.44" height="2.3" transform="translate(2634.31 93.1) rotate(154.64)"/><rect class="cls-1" width="1554" height="521"/></g></g></svg>