<svg xmlns="http://www.w3.org/2000/svg" viewBox="0 0 135 135"><defs><style>.cls-1{fill:none;}.cls-2{fill:#e2f5fe;stroke-width:2.19px;}.cls-2,.cls-3,.cls-4{stroke:#000;stroke-miterlimit:10;}.cls-3{fill:#a8c1f4;}.cls-3,.cls-4{stroke-width:2.5px;}.cls-4{fill:#fff;}</style></defs><g id="Capa_2" data-name="Capa 2"><g id="Capa_1-2" data-name="Capa 1"><rect class="cls-1" width="135" height="135"/><circle class="cls-2" cx="67.5" cy="67.5" r="50"/><path class="cls-3" d="M98.74,37.86c-1.12,2.76-2.25,5.52-3.35,8.28Q84.61,73,73.83,99.94l-.15.35a2,2,0,0,1-3.64.1Q64.13,88.24,58.25,76.11a.65.65,0,0,1,0-.13c0-.34.33-.5.54-.71L97.44,36.64c.22-.22.54-.38.54-.76.46.15.52.62.76.94Z"/><path class="cls-4" d="M97.46,35.36c0,.38-.32.54-.54.76L58.23,74.75c-.21.21-.49.38-.53.71-1.46-.73-2.92-1.47-4.39-2.18l-17-8.23c-.86-.41-1.7-.85-2.56-1.23A3.28,3.28,0,0,1,32,62.27v-1a2.63,2.63,0,0,1,1.42-1.4l56.37-22.5c2-.8,4.06-1.54,6-2.46h.9C96.92,35.07,97.29,35.05,97.46,35.36Z"/></g></g></svg>