<svg xmlns="http://www.w3.org/2000/svg" viewBox="0 0 1824.35 1536.86"><defs><style>.cls-1{fill:#f2f2f2;}.cls-2{fill:#ececec;}.cls-3{fill:#ccc;}.cls-4{fill:#333;}.cls-5{fill:#ffb380;}.cls-6{fill:#f95;}.cls-7{fill:#fff;}.cls-8{fill:#95abed;}.cls-9{fill:#7194d3;}.cls-10{font-size:59px;fill:#b7b7b7;font-family:ArialRoundedMTBold, Arial Rounded MT Bold;}.cls-11{letter-spacing:-0.01em;}.cls-12{fill:none;}</style></defs><g id="Capa_2" data-name="Capa 2"><g id="Layer_2" data-name="Layer 2"><path class="cls-1" d="M233.36,248a26.12,26.12,0,0,1,26.12-26.11H977.42A26.12,26.12,0,0,1,1003.54,248V777.12a26.12,26.12,0,0,1-26.12,26.12H259.48a26.12,26.12,0,0,1-26.12-26.12Z"/><path class="cls-2" d="M253.43,258.91a14,14,0,0,1,14-14H523.49a14,14,0,0,1,14,14v9.4a14,14,0,0,1-14,14H267.43a14,14,0,0,1-14-14Z"/><rect class="cls-2" x="397.3" y="296.76" width="504.58" height="37.41" rx="14"/><polygon class="cls-3" points="972.85 270.69 969.1 270.69 964.09 265.25 959.05 270.69 955.59 270.69 962.48 263.63 955.65 256.54 959.4 256.54 964.38 261.88 969.37 256.54 972.85 256.54 965.91 263.5 972.85 270.69"/><path class="cls-3" d="M955.48,256.47l6.89,7.16-7,7.12h3.67l5-5.39,5,5.39h4l-.1-.1L966,263.5l7-7h-3.7l-5,5.3-4.94-5.3Zm.35.13h3.53l5,5.39,5-5.39h3.26l-6.86,6.9,6.87,7.12h-3.53l-5.06-5.48L959,270.62h-3.25l6.83-7Z"/><path class="cls-3" d="M913.94,255.56v16.1H930v-16.1Zm2.14,2.14H927.9v11.82H916.08Z"/><rect class="cls-3" x="874.98" y="262.37" width="15.39" height="2.49"/><polygon class="cls-3" points="521.95 270.69 518.21 270.69 513.2 265.25 508.16 270.69 504.69 270.69 511.59 263.63 504.76 256.54 508.5 256.54 513.48 261.88 518.48 256.54 521.95 256.54 515.02 263.5 521.95 270.69"/><path class="cls-3" d="M504.59,256.47l6.89,7.16-7,7.12h3.68l5-5.39,5,5.39h4l-.11-.1-6.9-7.15,7-7h-3.69l-5,5.3-4.93-5.3Zm.34.13h3.53l5,5.39,5-5.39h3.26l-6.87,6.9,6.87,7.12h-3.53l-5-5.48-5.09,5.48h-3.24l6.82-7Z"/><polygon class="cls-3" points="566.63 264.67 559.43 264.67 559.43 271.87 557.23 271.87 557.23 264.67 550.03 264.67 550.03 262.55 557.23 262.55 557.23 255.35 559.43 255.35 559.43 262.55 566.63 262.55 566.63 264.67"/><path class="cls-3" d="M557.16,255.28v7.2H550v2.26h7.2v7.2h2.34v-7.2h7.2v-2.26h-7.2v-7.2Zm.14.14h2.06v7.2h7.2v2h-7.2v7.2H557.3v-7.2h-7.2v-2h7.2Z"/><path class="cls-3" d="M283.91,312.57a1.53,1.53,0,0,0-.78.25l-9.81,6.47a1.51,1.51,0,0,0,0,2.52l9.81,6.47a1.51,1.51,0,0,0,2.09-.42,1.53,1.53,0,0,0,.22-1.14,1.52,1.52,0,0,0-.65-1l-7.91-5.22,7.91-5.21a1.51,1.51,0,0,0-.88-2.77Z"/><path class="cls-3" d="M274.15,319a1.52,1.52,0,0,0-1.51,1.51,1.5,1.5,0,0,0,1.51,1.51h19.54a1.5,1.5,0,0,0,1.06-.44,1.48,1.48,0,0,0,.44-1.07,1.52,1.52,0,0,0-1.5-1.51Z"/><path class="cls-3" d="M357.78,312.57a1.51,1.51,0,0,0-.76,2.77l7.9,5.21-7.9,5.22a1.48,1.48,0,0,0-.65,1,1.53,1.53,0,0,0,.22,1.14,1.5,1.5,0,0,0,1,.64,1.53,1.53,0,0,0,1.14-.22l9.81-6.47a1.51,1.51,0,0,0,0-2.52l-9.81-6.47A1.59,1.59,0,0,0,357.78,312.57Z"/><path class="cls-3" d="M348.12,319.05a1.51,1.51,0,1,0,0,3h19.54a1.51,1.51,0,1,0,0-3Z"/><path class="cls-3" d="M320.83,313a9.41,9.41,0,1,0,9.46,9.84h-2.37a7.05,7.05,0,1,1-7.06-7.48h0a7,7,0,0,1,6.52,4.36l2.2-.87a9.4,9.4,0,0,0-8.72-5.85Z"/><polygon class="cls-3" points="326.05 319.9 330.34 317.4 330.19 321.82 326.05 319.9"/><path class="cls-3" d="M426.56,322.56a9.78,9.78,0,0,1-4.7-1l1-3.06a10.77,10.77,0,0,0,3.63.73,3,3,0,0,0,1.26-.19.69.69,0,0,0,.41-.64.62.62,0,0,0-.21-.47,3,3,0,0,0-.87-.47q-.66-.26-1.95-.63a5,5,0,0,1-2.49-1.54,4.23,4.23,0,0,1,.53-5.76,6.12,6.12,0,0,1,3.87-1.13,11,11,0,0,1,2.49.28,7.84,7.84,0,0,1,2.17.77l-1.07,3a15.92,15.92,0,0,0-1.93-.54,7.27,7.27,0,0,0-1.58-.17c-.87,0-1.3.23-1.3.71a.72.72,0,0,0,.41.61,9.8,9.8,0,0,0,1.76.61,6.38,6.38,0,0,1,3.13,1.7,3.79,3.79,0,0,1,1.07,2.7,4.13,4.13,0,0,1-1.42,3.37A6.49,6.49,0,0,1,426.56,322.56Z"/><path class="cls-3" d="M438.85,322.4a6.4,6.4,0,0,1-2.92-.65,5,5,0,0,1-2-1.82,4.87,4.87,0,0,1-.72-2.62,4.87,4.87,0,0,1,2.71-4.46,6,6,0,0,1,2.76-.63,4.62,4.62,0,0,1,2.49.65,4,4,0,0,1,1.56,1.74,5.67,5.67,0,0,1,.51,2.44,2.21,2.21,0,0,1,0,.52l-5.92.77a1.76,1.76,0,0,0,.77,1,2.82,2.82,0,0,0,1.4.3,7.22,7.22,0,0,0,2.9-.69l.49,2.64A9.82,9.82,0,0,1,438.85,322.4Zm1.36-6.55a1.44,1.44,0,0,0-1.5-1.24,1.32,1.32,0,0,0-1.12.53,2.27,2.27,0,0,0-.44,1.38Z"/><path class="cls-3" d="M449.07,322.4a4.62,4.62,0,0,1-2.41-.67,5.22,5.22,0,0,1-2.44-4.48,5,5,0,0,1,.67-2.57,4.83,4.83,0,0,1,4.18-2.46,3.36,3.36,0,0,1,1.89.57,3.48,3.48,0,0,1,1.35,1.72v-2.29h4.14v10h-4.14v-1.83A3.36,3.36,0,0,1,449.07,322.4Zm1.28-3.12a1.8,1.8,0,0,0,1.34-.55,2,2,0,0,0,.62-1.34v-.16a1.9,1.9,0,0,0-.64-1.34,1.83,1.83,0,0,0-1.32-.55,1.93,1.93,0,0,0-1.42.59,2,2,0,0,0,0,2.78A2,2,0,0,0,450.35,319.28Z"/><path class="cls-3" d="M458.44,312.49h4.17v2a3.69,3.69,0,0,1,1.22-1.72,3.07,3.07,0,0,1,1.84-.57l.57,3.21a6.88,6.88,0,0,0-2.77.42,1.31,1.31,0,0,0-.86,1.26v5.13h-4.17Z"/><path class="cls-3" d="M472.12,322.4a6,6,0,0,1-2.8-.63,4.82,4.82,0,0,1-1.9-1.82,5.13,5.13,0,0,1-.67-2.64,4.92,4.92,0,0,1,.71-2.59,5.15,5.15,0,0,1,1.93-1.83,5.58,5.58,0,0,1,2.73-.67,5.1,5.1,0,0,1,3,.79l-.38,2.62a6.89,6.89,0,0,0-1.85-.33,2,2,0,0,0-1.5.55,1.92,1.92,0,0,0-.56,1.46,2,2,0,0,0,.56,1.48,2,2,0,0,0,1.46.55,6.41,6.41,0,0,0,1.85-.33l.38,2.76a5.49,5.49,0,0,1-1.36.47A7,7,0,0,1,472.12,322.4Z"/><path class="cls-3" d="M476.56,309.24l4.16-.61v5.76a3.35,3.35,0,0,1,1.3-1.6,3.9,3.9,0,0,1,2.13-.57,3.53,3.53,0,0,1,3,1.36,5.74,5.74,0,0,1,1.09,3.73v4.93h-4.14v-5.35a2,2,0,0,0-.38-1.3,1.21,1.21,0,0,0-1-.45,1.59,1.59,0,0,0-.92.31,2.15,2.15,0,0,0-.75.87,2.89,2.89,0,0,0-.28,1.3v4.62h-4.16Z"/><circle class="cls-3" cx="914.75" cy="304.91" r="2.97"/><circle class="cls-3" cx="914.75" cy="326.01" r="2.97"/><circle class="cls-3" cx="914.75" cy="315.46" r="2.97"/><polygon class="cls-3" points="273.47 263.5 268.74 263.5 268.74 267.37 274.23 267.37 274.23 268.54 267.31 268.54 267.31 257.64 274.15 257.64 274.15 258.82 268.74 258.82 268.74 262.33 273.47 262.33 273.47 263.5"/><path class="cls-3" d="M279.72,261.68a4.83,4.83,0,0,0-.68-.05,1.83,1.83,0,0,0-1.85,1.16v5.75H275.8v-8.1h1.35l0,.94a2.16,2.16,0,0,1,1.93-1.09,1.45,1.45,0,0,1,.62.1Z"/><path class="cls-3" d="M284.91,261.68a4.83,4.83,0,0,0-.68-.05,1.83,1.83,0,0,0-1.85,1.16v5.75H281v-8.1h1.35l0,.94a2.16,2.16,0,0,1,1.93-1.09,1.45,1.45,0,0,1,.62.1Z"/><path class="cls-3" d="M285.66,264.41a4.84,4.84,0,0,1,.47-2.14,3.45,3.45,0,0,1,3.21-2,3.39,3.39,0,0,1,2.67,1.15,4.34,4.34,0,0,1,1,3v.1a4.9,4.9,0,0,1-.46,2.13,3.46,3.46,0,0,1-1.29,1.46,3.68,3.68,0,0,1-1.94.52,3.4,3.4,0,0,1-2.67-1.15A4.47,4.47,0,0,1,285.66,264.41Zm1.4.17a3.42,3.42,0,0,0,.62,2.16,2.12,2.12,0,0,0,3.35,0,3.86,3.86,0,0,0,.62-2.33,3.45,3.45,0,0,0-.63-2.15,2.11,2.11,0,0,0-3.34,0A3.79,3.79,0,0,0,287.06,264.58Z"/><path class="cls-3" d="M298.69,261.68a4.83,4.83,0,0,0-.68-.05,1.83,1.83,0,0,0-1.85,1.16v5.75h-1.39v-8.1h1.35l0,.94a2.16,2.16,0,0,1,1.94-1.09,1.4,1.4,0,0,1,.61.1Z"/><path class="cls-3" d="M309.46,264.88H311V266h-1.52v2.53h-1.39V266h-5v-.82l4.88-7.55h1.47Zm-4.78,0h3.39v-5.35l-.16.3Z"/><path class="cls-3" d="M319.06,263.89a6.39,6.39,0,0,1-.83,3.62,3.46,3.46,0,0,1-5.18,0,6,6,0,0,1-.87-3.46v-1.85a6.23,6.23,0,0,1,.83-3.57,3,3,0,0,1,2.61-1.17,3,3,0,0,1,2.59,1.13,6,6,0,0,1,.85,3.47ZM317.68,262a5,5,0,0,0-.5-2.56,1.69,1.69,0,0,0-1.56-.81,1.66,1.66,0,0,0-1.55.8,4.87,4.87,0,0,0-.5,2.46v2.22a5.18,5.18,0,0,0,.51,2.61,1.7,1.7,0,0,0,1.55.84,1.68,1.68,0,0,0,1.52-.79,5,5,0,0,0,.53-2.51Z"/><path class="cls-3" d="M326.68,264.88h1.52V266h-1.52v2.53h-1.39V266h-5v-.82l4.88-7.55h1.47Zm-4.78,0h3.39v-5.35l-.16.3Z"/><path class="cls-3" d="M333.33,264.12a11.6,11.6,0,0,1,.45-3.25,9.27,9.27,0,0,1,1.36-2.83,5.7,5.7,0,0,1,1.86-1.8l.28.91a6.12,6.12,0,0,0-1.79,2.56,11.19,11.19,0,0,0-.77,3.86v.64a11.21,11.21,0,0,0,1,5,6.1,6.1,0,0,0,1.51,2l-.28.85a5.93,5.93,0,0,1-1.9-1.86A10.36,10.36,0,0,1,333.33,264.12Z"/><polygon class="cls-3" points="347.22 268.54 345.77 268.54 340.29 260.14 340.29 268.54 338.84 268.54 338.84 257.64 340.29 257.64 345.79 266.08 345.79 257.64 347.22 257.64 347.22 268.54"/><path class="cls-3" d="M349.19,264.41a4.83,4.83,0,0,1,.46-2.14,3.51,3.51,0,0,1,1.31-1.46,3.47,3.47,0,0,1,1.9-.52,3.39,3.39,0,0,1,2.68,1.15,4.38,4.38,0,0,1,1,3v.1a4.89,4.89,0,0,1-.45,2.13,3.48,3.48,0,0,1-1.3,1.46,3.64,3.64,0,0,1-1.93.52,3.39,3.39,0,0,1-2.67-1.15A4.47,4.47,0,0,1,349.19,264.41Zm1.39.17a3.48,3.48,0,0,0,.62,2.16,2,2,0,0,0,1.68.82,2,2,0,0,0,1.68-.82,3.86,3.86,0,0,0,.62-2.33,3.39,3.39,0,0,0-.64-2.15,2.1,2.1,0,0,0-3.33,0A3.79,3.79,0,0,0,350.58,264.58Z"/><path class="cls-3" d="M360.18,258.48v2h1.51v1.07h-1.51v5a1.19,1.19,0,0,0,.2.74.87.87,0,0,0,.69.24,3.36,3.36,0,0,0,.66-.09v1.12a4,4,0,0,1-1.06.15,1.73,1.73,0,0,1-1.4-.56,2.41,2.41,0,0,1-.48-1.6v-5h-1.47v-1.07h1.47v-2Z"/><polygon class="cls-3" points="373.33 263.73 368.76 263.73 368.76 268.54 367.32 268.54 367.32 257.64 374.07 257.64 374.07 258.82 368.76 258.82 368.76 262.55 373.33 262.55 373.33 263.73"/><path class="cls-3" d="M375.06,264.41a4.83,4.83,0,0,1,.46-2.14,3.49,3.49,0,0,1,1.3-1.46,3.53,3.53,0,0,1,1.91-.52,3.37,3.37,0,0,1,2.67,1.15,4.34,4.34,0,0,1,1,3v.1a4.76,4.76,0,0,1-.46,2.13,3.46,3.46,0,0,1-1.29,1.46,3.67,3.67,0,0,1-1.93.52,3.42,3.42,0,0,1-2.68-1.15A4.47,4.47,0,0,1,375.06,264.41Zm1.39.17a3.42,3.42,0,0,0,.62,2.16,2.12,2.12,0,0,0,3.35,0,3.8,3.8,0,0,0,.62-2.33,3.45,3.45,0,0,0-.63-2.15,2.1,2.1,0,0,0-3.33,0A3.79,3.79,0,0,0,376.45,264.58Z"/><path class="cls-3" d="M389.17,267.74a3,3,0,0,1-2.38.95,2.52,2.52,0,0,1-2-.75,3.25,3.25,0,0,1-.68-2.23v-5.27h1.38v5.23c0,1.23.5,1.84,1.5,1.84a2.07,2.07,0,0,0,2.11-1.18v-5.89h1.39v8.1H389.2Z"/><path class="cls-3" d="M393.93,260.44l0,1a3,3,0,0,1,2.43-1.17c1.71,0,2.58,1,2.59,2.9v5.35h-1.38v-5.36a1.87,1.87,0,0,0-.41-1.3,1.6,1.6,0,0,0-1.22-.42,2,2,0,0,0-1.18.36,2.47,2.47,0,0,0-.8.95v5.77h-1.38v-8.1Z"/><path class="cls-3" d="M400.74,264.42a4.71,4.71,0,0,1,.89-3,3,3,0,0,1,4.56-.17V257h1.39v11.5H406.3l-.06-.87a2.84,2.84,0,0,1-2.32,1,2.76,2.76,0,0,1-2.29-1.15A5,5,0,0,1,400.74,264.42Zm1.39.16a3.6,3.6,0,0,0,.57,2.16,1.85,1.85,0,0,0,1.57.77,2,2,0,0,0,1.92-1.18v-3.72a2,2,0,0,0-1.91-1.15,1.85,1.85,0,0,0-1.58.79A4,4,0,0,0,402.13,264.58Z"/><path class="cls-3" d="M412.92,264.19a11.3,11.3,0,0,1-.44,3.2,9.31,9.31,0,0,1-1.34,2.83,5.93,5.93,0,0,1-1.89,1.84l-.29-.85a6,6,0,0,0,1.85-2.74,11.81,11.81,0,0,0,.72-4.13v-.24a12.26,12.26,0,0,0-.33-2.92,10.14,10.14,0,0,0-.92-2.43,5.43,5.43,0,0,0-1.32-1.66l.29-.85a5.67,5.67,0,0,1,1.88,1.83,9.16,9.16,0,0,1,1.34,2.82A11.75,11.75,0,0,1,412.92,264.19Z"/><path class="cls-4" d="M372.84,525h-19.7V515l18.92-26H388v26.17h6.82V525H388v11.53H372.84Zm0-9.82V501.06l-9.24,14.08Z"/><path class="cls-4" d="M421.71,537.13A21.69,21.69,0,0,1,410.19,534a22.69,22.69,0,0,1-8-8.75,27.9,27.9,0,0,1-2.84-12.74,27.29,27.29,0,0,1,2.84-12.59,22,22,0,0,1,8-8.75,21.3,21.3,0,0,1,11.52-3.2,20.82,20.82,0,0,1,11.38,3.2,21.31,21.31,0,0,1,8,8.75A26.88,26.88,0,0,1,444,512.51a27.55,27.55,0,0,1-2.85,12.66,21.76,21.76,0,0,1-8,8.83A21.38,21.38,0,0,1,421.71,537.13Zm0-11.81a5.39,5.39,0,0,0,3.84-1.64,11.42,11.42,0,0,0,2.78-4.62,20.34,20.34,0,0,0,1-6.55,17.66,17.66,0,0,0-2.13-9.17q-2.13-3.55-5.48-3.56t-5.62,3.56a21.29,21.29,0,0,0,.07,18.42Q418.37,525.32,421.71,525.32Z"/><path class="cls-4" d="M467.31,525h-19.7V515l18.92-26h15.93v26.17h6.83V525h-6.83v11.53H467.31Zm0-9.82V501.06l-9.25,14.08Z"/><path class="cls-4" d="M502,537a8.11,8.11,0,0,1-5.9-2.06,7,7,0,0,1-2.14-5.19,6.68,6.68,0,0,1,2.21-5.2,8.4,8.4,0,0,1,5.83-2,7.91,7.91,0,0,1,5.76,2.14,6.65,6.65,0,0,1,2.21,5.05,7.08,7.08,0,0,1-2.06,5.33A8.37,8.37,0,0,1,502,537Z"/><path class="cls-5" d="M1479.47,699.8c7.9-2.38,15-5.49,20.68-9.81,2.59-2.11.42-4.76-1.24-6.47-46.6-46-97-74.47-151.88-92.58-24.65-8.13-34.31-7.19-61.39-14-3.94-1.25-6-2.48-7.27-4.06-13.48-15.89-18.66-31.78-24.44-47.66l14.3-5.05c6.32,5.53,11.34,14.28,18.94,16.58,2.67-2.37,6.68-3.13,10.71-3.86-5.73-5.68-11.27-13-17.25-16.66l-37.19-7.14,7.74-21.72c15.35,2.2,28.06,1.26,46.09,8.11,3.2,1.21,6.88,4.77,10.43,7.36v-3c-5.72-4.28-8.74-11.72-11.57-14.27-6.82-6.14-21.67-10.45-33.05-15.48l5.65-36,23.8-5.95c10.17,1.95,19,1.38,29.59,5.95,5.53,2.4,16.75,20.9,30.5,33.32,11.22,20,16,47.35,38.67,54.44,84.83,33.06,175.14,54.2,252.27,104.71,36.44,23.87,47,61.63,31.21,84-51.55,73.13-116.73,106-180.87,130.3C1479.69,814.88,1471.67,779.29,1479.47,699.8Z"/><path class="cls-6" d="M1293.18,446.49H1293c-7.26.8-15.15,1.59-23.82,2.38a1.3,1.3,0,0,0-1.18,1.42,1.3,1.3,0,0,0,1.42,1.19c8.61-.79,16.43-1.57,23.66-2.36,4.34,1.86,9.68,2.31,14.5,3.12a15.23,15.23,0,0,0,3.74,6.3c1.69,1.68,3.43,2.9,4.83,4.44a1.31,1.31,0,0,0,1.94-1.76c-1.64-1.82-3.44-3.07-4.92-4.54a11.74,11.74,0,0,1-3.4-5.94,1.31,1.31,0,0,0-1-1c-5.37-1-11.16-1.37-15-3.16A1.24,1.24,0,0,0,1293.18,446.49Z"/><path class="cls-6" d="M1275.84,455.72a36.2,36.2,0,0,0-5.42.57,1.31,1.31,0,0,0,.46,2.58c13.82-2.47,23.06,4.16,34.88,7.67a55.28,55.28,0,0,0,8.12,11.09,1.32,1.32,0,0,0,.92.4,1.27,1.27,0,0,0,.94-.37,1.32,1.32,0,0,0,.4-.92,1.35,1.35,0,0,0-.37-.93,53,53,0,0,1-8-11,1.29,1.29,0,0,0-.79-.62C1296.92,461.32,1288,455.36,1275.84,455.72Z"/><path class="cls-6" d="M1328.1,454.06a1.23,1.23,0,0,0-.7.19c-3.73,2.27-7.81,4.46-10.72,7.89s-4.39,8.06-3.16,14.58c0,3.2-1.59,6.73-3.34,10.56s-3.64,8-3.79,12.53a1.32,1.32,0,0,0,1.27,1.36,1.34,1.34,0,0,0,.94-.36,1.31,1.31,0,0,0,.41-.91c.13-3.89,1.8-7.71,3.55-11.53s3.59-7.62,3.58-11.65a1,1,0,0,0,0-.25c-1.2-6.08.11-9.72,2.57-12.63s6.28-5,10.08-7.35a1.32,1.32,0,0,0,.44-1.8A1.29,1.29,0,0,0,1328.1,454.06Z"/><path class="cls-6" d="M1326.19,473a1.32,1.32,0,0,0-1.22.73c-7.9,16-4,37.2-5.46,55.43-7.52,1.16-14.93,3.93-21.34,2.48a1.28,1.28,0,0,0-1,.17,1.32,1.32,0,0,0-.58.82,1.38,1.38,0,0,0,.17,1,1.35,1.35,0,0,0,.82.58c7.87,1.78,16-1.7,23.37-2.66a1.3,1.3,0,0,0,1.13-1.19c1.68-19-2.22-40.38,5.23-55.46a1.29,1.29,0,0,0-.6-1.75A1.19,1.19,0,0,0,1326.19,473Z"/><path class="cls-6" d="M1307.69,501.52h-.19a1.37,1.37,0,0,0-.86.52,1.34,1.34,0,0,0-.24,1c.64,4.27-.51,5.91-2,8l.17-.19c-7.26,6.83-9.16,14.53-8,22.27a1.32,1.32,0,0,0,.52.86,1.27,1.27,0,0,0,1,.24,1.31,1.31,0,0,0,.86-.51,1.37,1.37,0,0,0,.24-1c-1.08-7.1.46-13.64,7.19-20a1.46,1.46,0,0,0,.16-.19,12.25,12.25,0,0,0,2.46-9.88A1.3,1.3,0,0,0,1307.69,501.52Z"/><path class="cls-5" d="M877,1015.33c-3.89,40.05.55,85.1-17.67,116.54-45,35.57-86,50.41-131.37,50.94-3.69,0-8,.85-11.25,3.54-1.71-8.19-2.26-15.23-5.11-24.58-1.49-8.84-20.67-14.66-25.35-2.4-2.69,10.08.62,19.41.58,32.24l-6.31-8.84c-2.78-14.63-1.66-25.88-8.41-44-5-10.35-17.05-11.35-22.3-2.31-2.78,17,1.8,32.57,1.05,48.38l-36-8c-13-1.19-22.11.84-24.71,8.68-2.67,8.07,1,15.09,8.33,17.25,12.78,2.93,25.67,6.39,38.08,7.44,12.2,3.28,24.8,5.34,35.1,14.28,5.17,13.69,14,18.5,24.7,18.74,17.11,7.92,50,11.69,75,21.12,16.76,5.24,39-1.09,58.48-2.52,46.63-3.43,93.12-10.7,128.59-50.43,8-59.35,9.67-123.6-1.33-195.63Z"/><path class="cls-7" d="M651.67,1137.22c2.9-4.87,12.94-3.9,15.32,1.49,0,0,1.86,8.25-3,14.2-2.81,3.46-10.56,2.46-11.6-2.23S651.67,1137.22,651.67,1137.22Z"/><path class="cls-7" d="M688.78,1160.35s-.52,12.94,2.38,15.32,10.86,2.45,12.2-.75,2.53-12.27,2.53-12.27A14.82,14.82,0,0,0,688.78,1160.35Z"/><path class="cls-7" d="M716.26,1194c4.5-2.08,10.66-.24,16.52,2.84,0,0,1.05,8.62-.74,10.52s-10.49.94-12.83-3C717.16,1201,716.26,1194,716.26,1194Z"/><path class="cls-5" d="M1065.56,377.87V539a89.16,89.16,0,0,0,89.36,89.35h25.26A89.15,89.15,0,0,0,1269.53,539V377.87Z"/><path class="cls-5" d="M1122.32,608.4h90.45l14.73,75.32c-40.17,15.55-79.83,19.11-118.49,0Z"/><path class="cls-5" d="M1268.49,519.42a29.52,29.52,0,0,0,4.4.33,30,30,0,1,0,0-60.09,30.91,30.91,0,0,0-4.4.32Z"/><path class="cls-5" d="M1069.4,519.42a29.56,29.56,0,0,1-4.41.33,30,30,0,0,1,0-60.09,30.94,30.94,0,0,1,4.41.32Z"/><path class="cls-6" d="M1119.59,621.22c33,10.15,65,11.36,95.74,0C1179.7,640.71,1148.84,635.15,1119.59,621.22Z"/><path class="cls-4" d="M1066.65,488.81c-2.76-10.41-5.45-20.86-16-26.05-12.63-27.25-13.26-57.55-7.09-80.35-17.66-20.24,11.11-50,30.75-36.26,2.86-21.4,43.1-38.06,60-17.57,14.46-25.45,67.47-23.65,73.88,1.17,10.8-22,59.71-8.56,56.06,19.41,17-14.24,47,15.13,31,33.25,3.72,32.53-1.83,59.41-13.82,78.33-12.2,5.29-12,17.44-14.63,28.07-1.4-26.94,1-47-12.34-69.81-58.54,19-112.56,14.13-171.1,0C1067.85,442.14,1069.4,460,1066.65,488.81Z"/><circle class="cls-4" cx="1120.91" cy="483.03" r="12.18"/><circle class="cls-4" cx="1214.18" cy="483.03" r="12.18"/><path class="cls-6" d="M1169.11,478a2.28,2.28,0,0,0-.45,0,2,2,0,0,0-1.58,2.38,48.85,48.85,0,0,1-5.21,30.23,32.53,32.53,0,0,0-4,11.12,13.46,13.46,0,0,0,1.87,9.55c1.85,2.68,5,4.52,9.07,5.34s9.28.7,15.76-.48a2,2,0,0,0,1.63-2.34,2,2,0,0,0-2.34-1.63c-6.16,1.11-10.88,1.16-14.26.49s-5.37-2-6.53-3.67a9.42,9.42,0,0,1-1.2-6.73,29.3,29.3,0,0,1,3.51-9.71,53,53,0,0,0,5.63-33A2,2,0,0,0,1169.11,478Z"/><path class="cls-4" d="M1136,580.75c23.08-27.61,42.93-27.11,68,0Q1167.75,568.3,1136,580.75Z"/><path class="cls-4" d="M1182.38,455.4a3,3,0,0,0-2.93,3.19,3,3,0,0,0,1,2.07s9.58,9.21,20.6,6.69c4.54-1,12.59-3,20.83-3.26s16.3,1.33,21.38,6.7a3,3,0,1,0,4.38-4.14c-6.82-7.22-16.84-8.84-25.93-8.58s-17.61,2.4-22,3.4c-6.81,1.56-15.25-5.3-15.25-5.3A3,3,0,0,0,1182.38,455.4Z"/><path class="cls-4" d="M1148.91,455.4a3,3,0,0,0-2,.77s-8.44,6.86-15.25,5.3c-4.38-1-12.91-3.15-22-3.4s-19.1,1.35-25.93,8.58a3,3,0,0,0,4.38,4.14c5.08-5.37,13.15-6.93,21.39-6.7s16.29,2.23,20.82,3.26c11,2.52,20.61-6.69,20.61-6.69a3.05,3.05,0,0,0,1-2.08,3,3,0,0,0-3-3.18Z"/><path class="cls-8" d="M944.29,1478.53H1393.6c13.92-198.56-16.83-387.1,1.35-540.79a8,8,0,0,1,1.26-4c27.71-38.48,64.66-60.28,98-86.34,2.85-2.39,2.27-2.73.84-6.29-20.37-50.75-19.5-96.5-15.48-141.51.09-1.06-.17-1.29-.85-1.4-63.59-10.57-187.09,23.72-251.79-22.33-34.42,25.83-77.51,26.38-116.74,0-56.8,53.28-168.39,48.93-218.86,109.38-28.9,53.44-24.7,144.42-33.39,221.34-.89,8.62,1.19,9.69,9.32,10.85,28,4,60.33,5.18,89.7,1.62C977.25,1238,929.11,1328.45,944.29,1478.53Z"/><path class="cls-4" d="M768.36,1142.42l30.86-1.66a18.82,18.82,0,0,1,4.16.27L1084,1196c2.73,1,2.29,7.5.3,7.74L793.64,1217.2Z"/><path class="cls-4" d="M399.33,873.41l246.81,20.23c9.67.79,11,7.29,14.53,14.53l143.61,295.34c3.52,7.24-6.68,16.31-14.53,14.53l-43.37-9.87c-7-28.27-21.09-27.55-29.69-21.82l-5.11-24.58c-1.42-6.86-18.6-15.31-25.35-2.4-2.51,10.74,1.39,21.86.58,32.24l-6.31-8.84c-2.76-14-2-25.71-8.41-44-4.63-9.62-17.39-11.16-22.2-2.24-1.83,15.26.84,32,1,48.31L537.27,1162.5c-7.9-1.55-10.76-7.42-14.53-14.53l-137.94-260C381,880.83,391.31,872.75,399.33,873.41Z"/><path class="cls-9" d="M894.61,802.59a1.82,1.82,0,0,0-.52.08,2,2,0,0,0-1.17.94,2,2,0,0,0-.16,1.5c18.61,63.41,11.64,123,62.56,193.28a2,2,0,0,0,3.18-2.3c-50.2-69.32-43.1-127.79-62-192.09A2,2,0,0,0,894.61,802.59Z"/><path class="cls-9" d="M1423,721.82a2,2,0,0,0-1.58.86s-10.9,16.29-21,48.05-19.35,79.11-16.39,141.62a2,2,0,0,0,2.06,1.87,2,2,0,0,0,1.87-2.05c-2.94-62,6.28-108.91,16.21-140.26s20.48-47,20.48-47a2,2,0,0,0-1.69-3.06Z"/><path class="cls-9" d="M1368.32,710a1.06,1.06,0,0,0-.25,0,2,2,0,0,0-1.65,2.23s3.21,21.22,7.61,44.6c2.2,11.7,4.7,23.93,7.25,34.36s5.08,19,7.7,23.7a2,2,0,0,0,3.61-.4,2,2,0,0,0-.17-1.5c-2.14-3.88-4.79-12.42-7.32-22.73s-5-22.5-7.21-34.15c-4.38-23.31-7.58-44.46-7.58-44.46A2,2,0,0,0,1368.32,710Z"/><path class="cls-9" d="M1316.32,709.1a2,2,0,0,0-1.23.44s-76.41,62-113.58,138.71a2,2,0,0,0-.09,1.5,2,2,0,0,0,1,1.12,2,2,0,0,0,2.62-.91c36.61-75.58,112.52-137.36,112.52-137.36a2,2,0,0,0,.71-1.33,1.92,1.92,0,0,0-.43-1.44A2,2,0,0,0,1316.32,709.1Z"/><path class="cls-9" d="M1111.7,1224.35a2,2,0,0,0-1.77,1c-19.35,35.19-58.75,70-93.31,95.76a696.42,696.42,0,0,1-64.2,42.7,2,2,0,0,0-.92,1.19,2,2,0,0,0,1.37,2.42,2,2,0,0,0,1.5-.19,702.48,702.48,0,0,0,64.61-43c34.76-26,74.49-60.81,94.4-97a2,2,0,0,0-.78-2.67A2,2,0,0,0,1111.7,1224.35Z"/><path class="cls-9" d="M962.9,953a2,2,0,0,0-1.73,2.87s32.66,63.74,8.91,110.66a2,2,0,1,0,3.51,1.77c25-49.46-8.93-114.24-8.93-114.24A2,2,0,0,0,962.9,953Z"/><path class="cls-9" d="M878.41,873.91a2,2,0,0,0-.89.22,2,2,0,0,0-1,1.16,2,2,0,0,0,.13,1.5s5.57,10.65,13.94,23.4,19.5,27.65,31,36.36a2,2,0,0,0,3.13-1.85,2,2,0,0,0-.76-1.29c-10.77-8.13-21.85-22.79-30.11-35.37S880.17,875,880.17,875A2,2,0,0,0,878.41,873.91Z"/><path class="cls-9" d="M1073.62,1319.54a2,2,0,0,0-1.62.8c-11.55,15.59-34.64,32-54.78,44.26s-37.31,20.59-37.31,20.59a2,2,0,0,0-1,1.12,2,2,0,0,0,.09,1.5,2,2,0,0,0,1.12,1,2,2,0,0,0,1.51-.09s17.33-8.37,37.65-20.77,43.64-28.75,55.89-45.28a2,2,0,0,0-.41-2.75A2,2,0,0,0,1073.62,1319.54Z"/><path class="cls-3" d="M765.38,1475.37a2.62,2.62,0,0,0,0,5.24h785.36a2.62,2.62,0,1,0,0-5.24Z"/><path class="cls-6" d="M650.88,1183.57a1.36,1.36,0,0,0-.94.35,1.33,1.33,0,0,0-.41.92c-.51,18.22,7.21,23.29,13,29.73a1.3,1.3,0,0,0,.9.44,1.33,1.33,0,0,0,1-.34,1.25,1.25,0,0,0,.43-.9,1.28,1.28,0,0,0-.33-1c-6.07-6.81-12.78-10.41-12.29-27.9a1.3,1.3,0,0,0-1.27-1.35Z"/><path class="cls-6" d="M686.85,1190.3h-.18a1.31,1.31,0,0,0-1.16,1.45c1.11,9.73,1.19,18.12,2.55,24.52.76,3.61,3.33,7.45,6.45,11.56s6.82,8.46,10,12.72a1.31,1.31,0,1,0,2.11-1.56c-3.23-4.36-6.94-8.72-10-12.74s-5.4-7.76-6-10.52c-1.26-6-1.38-14.39-2.5-24.28A1.32,1.32,0,0,0,686.85,1190.3Z"/><path class="cls-6" d="M716.7,1185a1.28,1.28,0,0,0-.88.33,10.26,10.26,0,0,0-3.53,6.44,17.79,17.79,0,0,0,.65,6.87,276.38,276.38,0,0,0,9.27,30.47,1.31,1.31,0,0,0,2.42.09,1.33,1.33,0,0,0,0-1,273.25,273.25,0,0,1-9.19-30.22,15.68,15.68,0,0,1-.6-5.86,7.45,7.45,0,0,1,2.67-4.83,1.32,1.32,0,0,0,.12-1.85A1.3,1.3,0,0,0,716.7,1185Z"/><path class="cls-6" d="M728.25,1181.88a1.31,1.31,0,0,0-.21,2.61,14,14,0,0,1,8.69,5.15,36.53,36.53,0,0,1,5.67,10.49c3.13,8.21,5.24,18.14,9.08,25.92a1.31,1.31,0,1,0,2.35-1.15c-3.61-7.32-5.74-17.21-9-25.7a38.6,38.6,0,0,0-6.11-11.25,16.87,16.87,0,0,0-10.27-6Z"/><path class="cls-6" d="M817.74,1217.57a1.31,1.31,0,0,0-1.2.77c-1.46,3.24-6.17,5.75-12.41,7.7s-13.81,3.42-20.64,5.26a1.3,1.3,0,0,0-.93,1.6,1.32,1.32,0,0,0,1.61.93c6.69-1.8,14.29-3.26,20.75-5.28s11.94-4.55,14-9.13a1.29,1.29,0,0,0,0-1,1.35,1.35,0,0,0-.69-.74A1.41,1.41,0,0,0,817.74,1217.57Z"/><path class="cls-6" d="M1502.52,685.94a1.32,1.32,0,0,0-.69,2.42,143.33,143.33,0,0,0,22.6,11.26c13.1,5.15,29.89,9.45,44.72,5.61a1.32,1.32,0,0,0,.34-2.4,1.39,1.39,0,0,0-1-.14c-13.9,3.6-30.25-.46-43.1-5.51a140,140,0,0,1-22.14-11A1.35,1.35,0,0,0,1502.52,685.94Z"/><path class="cls-6" d="M1281.41,459.43a1.32,1.32,0,0,0-1.22.89A1.31,1.31,0,0,0,1281,462c15.27,5.12,21.57,19.18,19.57,32s-12.16,24.27-30.78,24.1h-1.3l0,1.3c-.31,20.13-.43,38.49-9.9,58.19a1.32,1.32,0,0,0,.61,1.75,1.3,1.3,0,0,0,1.75-.61c9.55-19.87,9.83-38.43,10.14-58.09,18.89-.4,30-12.61,32.1-26.22,2.17-13.94-4.88-29.37-21.33-34.87A1.31,1.31,0,0,0,1281.41,459.43Z"/><path class="cls-8" d="M1394.35,244a66.86,66.86,0,0,1,18.47.63q23.4,4,26.46,17.82a17.65,17.65,0,0,1,.07,6.85q-1.63,9.56-7.72,13.5a44.47,44.47,0,0,1-6,3.17,43.08,43.08,0,0,0-5.43,2.87,19,19,0,0,0-6.59,7.47l-16.85-2.87a24.49,24.49,0,0,1-.09-7.81,14.74,14.74,0,0,1,1.88-5.47,13.14,13.14,0,0,1,3-3.28,16.72,16.72,0,0,1,3.59-2.1c1.23-.55,2.38-1.05,3.44-1.5a15,15,0,0,0,2.72-1.49,3.13,3.13,0,0,0,1.36-2.09q.91-5.4-6.47-6.66a39.8,39.8,0,0,0-12.79.34c-1.14.18-2,.34-2.5.47ZM1406,298.53a14.83,14.83,0,0,1,5.33,1.86,10.22,10.22,0,0,1,3.33,3.08,11,11,0,0,1,1.6,8.4,12.13,12.13,0,0,1-5.31,8q-4.48,3.18-10.9,2.09t-8.89-4.7a11.46,11.46,0,0,1-1.69-8.46q.81-4.76,5.6-8A14.26,14.26,0,0,1,1406,298.53Z"/><path class="cls-8" d="M1471.92,327.28l-13.06-11.53,26.11-36.9,20.3,17.9Zm-10.61.63a14.61,14.61,0,0,1,3.56,4.39,10.1,10.1,0,0,1,1.21,4.37,11,11,0,0,1-3,8,12.15,12.15,0,0,1-8.74,4q-5.49.35-10.4-4t-5.13-8.71a11.31,11.31,0,0,1,3-8.05q3.18-3.62,9-3.88A14.29,14.29,0,0,1,1461.31,327.91Z"/><text class="cls-10" transform="translate(520.89 538.68)">User not <tspan class="cls-11" x="259.36" y="0">f</tspan><tspan x="278.23" y="0">ound</tspan></text><rect class="cls-12" width="1824.35" height="1536.86"/></g></g></svg>